<svg width="33" height="32" viewBox="0 0 33 32" fill="none" xmlns="http://www.w3.org/2000/svg">
<path d="M17 29C25.6684 29 30 23.1797 30 16C30 8.8203 25.6684 3 17 3C8.33161 3 4 8.8203 4 16C4 23.1797 8.33161 29 17 29Z" fill="url(#paint0_radial_68_3080)"/>
<path d="M17 29C25.6684 29 30 23.1797 30 16C30 8.8203 25.6684 3 17 3C8.33161 3 4 8.8203 4 16C4 23.1797 8.33161 29 17 29Z" fill="url(#paint1_radial_68_3080)"/>
<path d="M17 29C25.6684 29 30 23.1797 30 16C30 8.8203 25.6684 3 17 3C8.33161 3 4 8.8203 4 16C4 23.1797 8.33161 29 17 29Z" fill="url(#paint2_radial_68_3080)"/>
<path d="M17 29C25.6684 29 30 23.1797 30 16C30 8.8203 25.6684 3 17 3C8.33161 3 4 8.8203 4 16C4 23.1797 8.33161 29 17 29Z" fill="url(#paint3_radial_68_3080)"/>
<path d="M17 29C25.6684 29 30 23.1797 30 16C30 8.8203 25.6684 3 17 3C8.33161 3 4 8.8203 4 16C4 23.1797 8.33161 29 17 29Z" fill="url(#paint4_radial_68_3080)"/>
<path d="M17 29C25.6684 29 30 23.1797 30 16C30 8.8203 25.6684 3 17 3C8.33161 3 4 8.8203 4 16C4 23.1797 8.33161 29 17 29Z" fill="url(#paint5_radial_68_3080)"/>
<path d="M17 29C25.6684 29 30 23.1797 30 16C30 8.8203 25.6684 3 17 3C8.33161 3 4 8.8203 4 16C4 23.1797 8.33161 29 17 29Z" fill="url(#paint6_radial_68_3080)"/>
<path d="M17 29C25.6684 29 30 23.1797 30 16C30 8.8203 25.6684 3 17 3C8.33161 3 4 8.8203 4 16C4 23.1797 8.33161 29 17 29Z" fill="url(#paint7_radial_68_3080)"/>
<path d="M17 29C25.6684 29 30 23.1797 30 16C30 8.8203 25.6684 3 17 3C8.33161 3 4 8.8203 4 16C4 23.1797 8.33161 29 17 29Z" fill="url(#paint8_radial_68_3080)"/>
<path d="M17 29C25.6684 29 30 23.1797 30 16C30 8.8203 25.6684 3 17 3C8.33161 3 4 8.8203 4 16C4 23.1797 8.33161 29 17 29Z" fill="url(#paint9_radial_68_3080)"/>
<path d="M17 29C25.6684 29 30 23.1797 30 16C30 8.8203 25.6684 3 17 3C8.33161 3 4 8.8203 4 16C4 23.1797 8.33161 29 17 29Z" fill="url(#paint10_radial_68_3080)"/>
<path d="M17 29C25.6684 29 30 23.1797 30 16C30 8.8203 25.6684 3 17 3C8.33161 3 4 8.8203 4 16C4 23.1797 8.33161 29 17 29Z" fill="url(#paint11_radial_68_3080)"/>
<path d="M17 29C25.6684 29 30 23.1797 30 16C30 8.8203 25.6684 3 17 3C8.33161 3 4 8.8203 4 16C4 23.1797 8.33161 29 17 29Z" fill="url(#paint12_radial_68_3080)"/>
<path d="M17 29C25.6684 29 30 23.1797 30 16C30 8.8203 25.6684 3 17 3C8.33161 3 4 8.8203 4 16C4 23.1797 8.33161 29 17 29Z" fill="url(#paint13_radial_68_3080)"/>
<path d="M17 29C25.6684 29 30 23.1797 30 16C30 8.8203 25.6684 3 17 3C8.33161 3 4 8.8203 4 16C4 23.1797 8.33161 29 17 29Z" fill="url(#paint14_radial_68_3080)"/>
<path d="M17 29C25.6684 29 30 23.1797 30 16C30 8.8203 25.6684 3 17 3C8.33161 3 4 8.8203 4 16C4 23.1797 8.33161 29 17 29Z" fill="url(#paint15_radial_68_3080)"/>
<path d="M17 29C25.6684 29 30 23.1797 30 16C30 8.8203 25.6684 3 17 3C8.33161 3 4 8.8203 4 16C4 23.1797 8.33161 29 17 29Z" fill="url(#paint16_radial_68_3080)"/>
<path d="M17 29C25.6684 29 30 23.1797 30 16C30 8.8203 25.6684 3 17 3C8.33161 3 4 8.8203 4 16C4 23.1797 8.33161 29 17 29Z" fill="url(#paint17_radial_68_3080)"/>
<path d="M17 29C25.6684 29 30 23.1797 30 16C30 8.8203 25.6684 3 17 3C8.33161 3 4 8.8203 4 16C4 23.1797 8.33161 29 17 29Z" fill="url(#paint18_radial_68_3080)"/>
<path d="M17 29C25.6684 29 30 23.1797 30 16C30 8.8203 25.6684 3 17 3C8.33161 3 4 8.8203 4 16C4 23.1797 8.33161 29 17 29Z" fill="url(#paint19_radial_68_3080)"/>
<path d="M18 3L4 16V13.3065L4.5947 11.7523L4 10.651V8.30138L4.66812 6.72275L4 5.64586V5C4 3.89543 4.89543 3 6 3H6.66282L7.49497 3.63892L9.29387 3H11.6679L12.6836 3.52879L14.3112 3H18Z" fill="#BB1D80"/>
<path d="M18 3L4 16V13.3065L4.5947 11.7523L4 10.651V8.30138L4.66812 6.72275L4 5.64586V5C4 3.89543 4.89543 3 6 3H6.66282L7.49497 3.63892L9.29387 3H11.6679L12.6836 3.52879L14.3112 3H18Z" fill="url(#paint20_linear_68_3080)"/>
<path d="M9.41421 3L4 8.41421V5.58579L6.58579 3H9.41421Z" fill="#5092FF"/>
<path d="M14.4142 3L4 13.4142V10.5858L11.5858 3H14.4142Z" fill="#5092FF"/>
<path fill-rule="evenodd" clip-rule="evenodd" d="M28.75 5C29.1642 5 29.5 5.33579 29.5 5.75C29.5 7.94812 27.668 9.5 25.75 9.5C25.3358 9.5 25 9.16421 25 8.75C25 8.33579 25.3358 8 25.75 8C26.909 8 28 7.05188 28 5.75C28 5.33579 28.3358 5 28.75 5Z" fill="url(#paint21_radial_68_3080)"/>
<path fill-rule="evenodd" clip-rule="evenodd" d="M10.75 24C11.1642 24 11.5 24.3358 11.5 24.75C11.5 26.9481 9.66796 28.5 7.75 28.5C7.33579 28.5 7 28.1642 7 27.75C7 27.3358 7.33579 27 7.75 27C8.90902 27 10 26.0519 10 24.75C10 24.3358 10.3358 24 10.75 24Z" fill="url(#paint22_radial_68_3080)"/>
<circle cx="27" cy="28" r="1" fill="url(#paint23_radial_68_3080)"/>
<circle cx="10" cy="20" r="1" fill="url(#paint24_radial_68_3080)"/>
<circle cx="25" cy="3" r="1" fill="url(#paint25_radial_68_3080)"/>
<path fill-rule="evenodd" clip-rule="evenodd" d="M20.9262 12.6864C20.7066 12.8948 20.5742 13.1621 20.4853 13.3882C20.3035 13.8508 19.7812 14.0785 19.3185 13.8967C18.8559 13.7149 18.6282 13.1925 18.81 12.7299C18.9361 12.4092 19.1864 11.8561 19.6869 11.3809C20.2102 10.8842 20.9592 10.5184 21.9773 10.5184C24.0519 10.5184 24.8738 12.0728 25.1416 12.7107C25.334 13.1691 25.1184 13.6966 24.6601 13.8889C24.2017 14.0813 23.6742 13.8657 23.4819 13.4074C23.2906 12.9515 22.9153 12.3184 21.9773 12.3184C21.4314 12.3184 21.1231 12.4995 20.9262 12.6864Z" fill="url(#paint26_radial_68_3080)"/>
<path fill-rule="evenodd" clip-rule="evenodd" d="M11.7492 12.6864C11.5296 12.8948 11.3972 13.1621 11.3083 13.3882C11.1265 13.8508 10.6042 14.0785 10.1415 13.8967C9.67891 13.7149 9.45124 13.1925 9.63302 12.7299C9.75906 12.4092 10.0094 11.8561 10.5099 11.3809C11.0332 10.8842 11.7822 10.5184 12.8003 10.5184C14.8749 10.5184 15.6968 12.0728 15.9646 12.7107C16.157 13.1691 15.9414 13.6966 15.4831 13.8889C15.0247 14.0813 14.4972 13.8657 14.3049 13.4074C14.1136 12.9515 13.7383 12.3184 12.8003 12.3184C12.2544 12.3184 11.9461 12.4995 11.7492 12.6864Z" fill="url(#paint27_radial_68_3080)"/>
<path fill-rule="evenodd" clip-rule="evenodd" d="M18.8977 19.8308C18.8977 19.4166 19.2335 19.0808 19.6477 19.0808H27.502C27.9162 19.0808 28.252 19.4166 28.252 19.8308C28.252 20.245 27.9162 20.5808 27.502 20.5808H19.6477C19.2335 20.5808 18.8977 20.245 18.8977 19.8308Z" fill="#00A6ED"/>
<path fill-rule="evenodd" clip-rule="evenodd" d="M18.8977 19.8308C18.8977 19.4166 19.2335 19.0808 19.6477 19.0808H27.502C27.9162 19.0808 28.252 19.4166 28.252 19.8308C28.252 20.245 27.9162 20.5808 27.502 20.5808H19.6477C19.2335 20.5808 18.8977 20.245 18.8977 19.8308Z" fill="url(#paint28_radial_68_3080)"/>
<path fill-rule="evenodd" clip-rule="evenodd" d="M18.8977 19.8308C18.8977 19.4166 19.2335 19.0808 19.6477 19.0808H27.502C27.9162 19.0808 28.252 19.4166 28.252 19.8308C28.252 20.245 27.9162 20.5808 27.502 20.5808H19.6477C19.2335 20.5808 18.8977 20.245 18.8977 19.8308Z" fill="url(#paint29_radial_68_3080)"/>
<path fill-rule="evenodd" clip-rule="evenodd" d="M18.8977 19.8308C18.8977 19.4166 19.2335 19.0808 19.6477 19.0808H27.502C27.9162 19.0808 28.252 19.4166 28.252 19.8308C28.252 20.245 27.9162 20.5808 27.502 20.5808H19.6477C19.2335 20.5808 18.8977 20.245 18.8977 19.8308Z" fill="url(#paint30_radial_68_3080)"/>
<path fill-rule="evenodd" clip-rule="evenodd" d="M18.8977 19.8308C18.8977 19.4166 19.2335 19.0808 19.6477 19.0808H27.502C27.9162 19.0808 28.252 19.4166 28.252 19.8308C28.252 20.245 27.9162 20.5808 27.502 20.5808H19.6477C19.2335 20.5808 18.8977 20.245 18.8977 19.8308Z" fill="url(#paint31_linear_68_3080)"/>
<path fill-rule="evenodd" clip-rule="evenodd" d="M26.9788 13.7449C26.9788 13.3307 27.3145 12.9949 27.7288 12.9949H27.791C29.7695 12.9949 31.3575 14.6283 31.3016 16.606C31.2899 17.0201 30.9448 17.3462 30.5307 17.3345C30.1167 17.3228 29.7905 16.9777 29.8022 16.5637C29.8342 15.4307 28.9245 14.4949 27.791 14.4949H27.7288C27.3145 14.4949 26.9788 14.1591 26.9788 13.7449Z" fill="#00A6ED"/>
<path fill-rule="evenodd" clip-rule="evenodd" d="M26.9788 13.7449C26.9788 13.3307 27.3145 12.9949 27.7288 12.9949H27.791C29.7695 12.9949 31.3575 14.6283 31.3016 16.606C31.2899 17.0201 30.9448 17.3462 30.5307 17.3345C30.1167 17.3228 29.7905 16.9777 29.8022 16.5637C29.8342 15.4307 28.9245 14.4949 27.791 14.4949H27.7288C27.3145 14.4949 26.9788 14.1591 26.9788 13.7449Z" fill="url(#paint32_radial_68_3080)"/>
<path fill-rule="evenodd" clip-rule="evenodd" d="M26.9788 13.7449C26.9788 13.3307 27.3145 12.9949 27.7288 12.9949H27.791C29.7695 12.9949 31.3575 14.6283 31.3016 16.606C31.2899 17.0201 30.9448 17.3462 30.5307 17.3345C30.1167 17.3228 29.7905 16.9777 29.8022 16.5637C29.8342 15.4307 28.9245 14.4949 27.791 14.4949H27.7288C27.3145 14.4949 26.9788 14.1591 26.9788 13.7449Z" fill="url(#paint33_radial_68_3080)"/>
<path fill-rule="evenodd" clip-rule="evenodd" d="M26.9788 13.7449C26.9788 13.3307 27.3145 12.9949 27.7288 12.9949H27.791C29.7695 12.9949 31.3575 14.6283 31.3016 16.606C31.2899 17.0201 30.9448 17.3462 30.5307 17.3345C30.1167 17.3228 29.7905 16.9777 29.8022 16.5637C29.8342 15.4307 28.9245 14.4949 27.791 14.4949H27.7288C27.3145 14.4949 26.9788 14.1591 26.9788 13.7449Z" fill="url(#paint34_radial_68_3080)"/>
<path fill-rule="evenodd" clip-rule="evenodd" d="M26.9788 13.7449C26.9788 13.3307 27.3145 12.9949 27.7288 12.9949H27.791C29.7695 12.9949 31.3575 14.6283 31.3016 16.606C31.2899 17.0201 30.9448 17.3462 30.5307 17.3345C30.1167 17.3228 29.7905 16.9777 29.8022 16.5637C29.8342 15.4307 28.9245 14.4949 27.791 14.4949H27.7288C27.3145 14.4949 26.9788 14.1591 26.9788 13.7449Z" fill="url(#paint35_radial_68_3080)"/>
<path fill-rule="evenodd" clip-rule="evenodd" d="M26.9788 13.7449C26.9788 13.3307 27.3145 12.9949 27.7288 12.9949H27.791C29.7695 12.9949 31.3575 14.6283 31.3016 16.606C31.2899 17.0201 30.9448 17.3462 30.5307 17.3345C30.1167 17.3228 29.7905 16.9777 29.8022 16.5637C29.8342 15.4307 28.9245 14.4949 27.791 14.4949H27.7288C27.3145 14.4949 26.9788 14.1591 26.9788 13.7449Z" fill="url(#paint36_radial_68_3080)"/>
<path fill-rule="evenodd" clip-rule="evenodd" d="M30.573 15.835C30.9871 15.8467 31.3133 16.1918 31.3016 16.6059L31.2934 16.8948C31.2355 18.9471 29.5551 20.5807 27.502 20.5807C27.0877 20.5807 26.752 20.2449 26.752 19.8307C26.752 19.4165 27.0877 19.0807 27.502 19.0807C28.7431 19.0807 29.759 18.0931 29.794 16.8525L29.8022 16.5635C29.8139 16.1495 30.159 15.8233 30.573 15.835Z" fill="#00A6ED"/>
<path fill-rule="evenodd" clip-rule="evenodd" d="M30.573 15.835C30.9871 15.8467 31.3133 16.1918 31.3016 16.6059L31.2934 16.8948C31.2355 18.9471 29.5551 20.5807 27.502 20.5807C27.0877 20.5807 26.752 20.2449 26.752 19.8307C26.752 19.4165 27.0877 19.0807 27.502 19.0807C28.7431 19.0807 29.759 18.0931 29.794 16.8525L29.8022 16.5635C29.8139 16.1495 30.159 15.8233 30.573 15.835Z" fill="url(#paint37_radial_68_3080)"/>
<path fill-rule="evenodd" clip-rule="evenodd" d="M30.573 15.835C30.9871 15.8467 31.3133 16.1918 31.3016 16.6059L31.2934 16.8948C31.2355 18.9471 29.5551 20.5807 27.502 20.5807C27.0877 20.5807 26.752 20.2449 26.752 19.8307C26.752 19.4165 27.0877 19.0807 27.502 19.0807C28.7431 19.0807 29.759 18.0931 29.794 16.8525L29.8022 16.5635C29.8139 16.1495 30.159 15.8233 30.573 15.835Z" fill="url(#paint38_radial_68_3080)"/>
<path fill-rule="evenodd" clip-rule="evenodd" d="M30.573 15.835C30.9871 15.8467 31.3133 16.1918 31.3016 16.6059L31.2934 16.8948C31.2355 18.9471 29.5551 20.5807 27.502 20.5807C27.0877 20.5807 26.752 20.2449 26.752 19.8307C26.752 19.4165 27.0877 19.0807 27.502 19.0807C28.7431 19.0807 29.759 18.0931 29.794 16.8525L29.8022 16.5635C29.8139 16.1495 30.159 15.8233 30.573 15.835Z" fill="url(#paint39_radial_68_3080)"/>
<path fill-rule="evenodd" clip-rule="evenodd" d="M30.573 15.835C30.9871 15.8467 31.3133 16.1918 31.3016 16.6059L31.2934 16.8948C31.2355 18.9471 29.5551 20.5807 27.502 20.5807C27.0877 20.5807 26.752 20.2449 26.752 19.8307C26.752 19.4165 27.0877 19.0807 27.502 19.0807C28.7431 19.0807 29.759 18.0931 29.794 16.8525L29.8022 16.5635C29.8139 16.1495 30.159 15.8233 30.573 15.835Z" fill="url(#paint40_radial_68_3080)"/>
<path fill-rule="evenodd" clip-rule="evenodd" d="M30.573 15.835C30.9871 15.8467 31.3133 16.1918 31.3016 16.6059L31.2934 16.8948C31.2355 18.9471 29.5551 20.5807 27.502 20.5807C27.0877 20.5807 26.752 20.2449 26.752 19.8307C26.752 19.4165 27.0877 19.0807 27.502 19.0807C28.7431 19.0807 29.759 18.0931 29.794 16.8525L29.8022 16.5635C29.8139 16.1495 30.159 15.8233 30.573 15.835Z" fill="url(#paint41_radial_68_3080)"/>
<path fill-rule="evenodd" clip-rule="evenodd" d="M24.8314 15.8922C24.8314 14.292 26.1286 12.9949 27.7287 12.9949H27.791C28.2052 12.9949 28.541 13.3307 28.541 13.7449C28.541 14.1591 28.2052 14.4949 27.791 14.4949H27.7287C26.957 14.4949 26.3314 15.1205 26.3314 15.8922V16.2062C26.3314 16.6204 25.9956 16.9562 25.5814 16.9562C25.1672 16.9562 24.8314 16.6204 24.8314 16.2062V15.8922Z" fill="#00A6ED"/>
<path fill-rule="evenodd" clip-rule="evenodd" d="M24.8314 15.8922C24.8314 14.292 26.1286 12.9949 27.7287 12.9949H27.791C28.2052 12.9949 28.541 13.3307 28.541 13.7449C28.541 14.1591 28.2052 14.4949 27.791 14.4949H27.7287C26.957 14.4949 26.3314 15.1205 26.3314 15.8922V16.2062C26.3314 16.6204 25.9956 16.9562 25.5814 16.9562C25.1672 16.9562 24.8314 16.6204 24.8314 16.2062V15.8922Z" fill="url(#paint42_radial_68_3080)"/>
<path fill-rule="evenodd" clip-rule="evenodd" d="M24.8314 15.8922C24.8314 14.292 26.1286 12.9949 27.7287 12.9949H27.791C28.2052 12.9949 28.541 13.3307 28.541 13.7449C28.541 14.1591 28.2052 14.4949 27.791 14.4949H27.7287C26.957 14.4949 26.3314 15.1205 26.3314 15.8922V16.2062C26.3314 16.6204 25.9956 16.9562 25.5814 16.9562C25.1672 16.9562 24.8314 16.6204 24.8314 16.2062V15.8922Z" fill="url(#paint43_radial_68_3080)"/>
<path fill-rule="evenodd" clip-rule="evenodd" d="M24.8314 15.8922C24.8314 14.292 26.1286 12.9949 27.7287 12.9949H27.791C28.2052 12.9949 28.541 13.3307 28.541 13.7449C28.541 14.1591 28.2052 14.4949 27.791 14.4949H27.7287C26.957 14.4949 26.3314 15.1205 26.3314 15.8922V16.2062C26.3314 16.6204 25.9956 16.9562 25.5814 16.9562C25.1672 16.9562 24.8314 16.6204 24.8314 16.2062V15.8922Z" fill="url(#paint44_radial_68_3080)"/>
<path fill-rule="evenodd" clip-rule="evenodd" d="M24.8314 15.8922C24.8314 14.292 26.1286 12.9949 27.7287 12.9949H27.791C28.2052 12.9949 28.541 13.3307 28.541 13.7449C28.541 14.1591 28.2052 14.4949 27.791 14.4949H27.7287C26.957 14.4949 26.3314 15.1205 26.3314 15.8922V16.2062C26.3314 16.6204 25.9956 16.9562 25.5814 16.9562C25.1672 16.9562 24.8314 16.6204 24.8314 16.2062V15.8922Z" fill="url(#paint45_radial_68_3080)"/>
<path fill-rule="evenodd" clip-rule="evenodd" d="M24.8314 15.8922C24.8314 14.292 26.1286 12.9949 27.7287 12.9949H27.791C28.2052 12.9949 28.541 13.3307 28.541 13.7449C28.541 14.1591 28.2052 14.4949 27.791 14.4949H27.7287C26.957 14.4949 26.3314 15.1205 26.3314 15.8922V16.2062C26.3314 16.6204 25.9956 16.9562 25.5814 16.9562C25.1672 16.9562 24.8314 16.6204 24.8314 16.2062V15.8922Z" fill="url(#paint46_radial_68_3080)"/>
<path fill-rule="evenodd" clip-rule="evenodd" d="M28.1744 15.4089C28.5886 15.4089 28.9244 15.7447 28.9244 16.1589V16.2062C28.9244 17.3364 28.0082 18.2527 26.8779 18.2527C25.7477 18.2527 24.8314 17.3364 24.8314 16.2062C24.8314 15.792 25.1672 15.4562 25.5814 15.4562C25.9956 15.4562 26.3314 15.792 26.3314 16.2062C26.3314 16.508 26.5761 16.7527 26.8779 16.7527C27.1797 16.7527 27.4244 16.508 27.4244 16.2062V16.1589C27.4244 15.7447 27.7602 15.4089 28.1744 15.4089Z" fill="#00A6ED"/>
<path fill-rule="evenodd" clip-rule="evenodd" d="M28.1744 15.4089C28.5886 15.4089 28.9244 15.7447 28.9244 16.1589V16.2062C28.9244 17.3364 28.0082 18.2527 26.8779 18.2527C25.7477 18.2527 24.8314 17.3364 24.8314 16.2062C24.8314 15.792 25.1672 15.4562 25.5814 15.4562C25.9956 15.4562 26.3314 15.792 26.3314 16.2062C26.3314 16.508 26.5761 16.7527 26.8779 16.7527C27.1797 16.7527 27.4244 16.508 27.4244 16.2062V16.1589C27.4244 15.7447 27.7602 15.4089 28.1744 15.4089Z" fill="url(#paint47_radial_68_3080)"/>
<path fill-rule="evenodd" clip-rule="evenodd" d="M28.1744 15.4089C28.5886 15.4089 28.9244 15.7447 28.9244 16.1589V16.2062C28.9244 17.3364 28.0082 18.2527 26.8779 18.2527C25.7477 18.2527 24.8314 17.3364 24.8314 16.2062C24.8314 15.792 25.1672 15.4562 25.5814 15.4562C25.9956 15.4562 26.3314 15.792 26.3314 16.2062C26.3314 16.508 26.5761 16.7527 26.8779 16.7527C27.1797 16.7527 27.4244 16.508 27.4244 16.2062V16.1589C27.4244 15.7447 27.7602 15.4089 28.1744 15.4089Z" fill="url(#paint48_radial_68_3080)"/>
<path fill-rule="evenodd" clip-rule="evenodd" d="M28.1744 15.4089C28.5886 15.4089 28.9244 15.7447 28.9244 16.1589V16.2062C28.9244 17.3364 28.0082 18.2527 26.8779 18.2527C25.7477 18.2527 24.8314 17.3364 24.8314 16.2062C24.8314 15.792 25.1672 15.4562 25.5814 15.4562C25.9956 15.4562 26.3314 15.792 26.3314 16.2062C26.3314 16.508 26.5761 16.7527 26.8779 16.7527C27.1797 16.7527 27.4244 16.508 27.4244 16.2062V16.1589C27.4244 15.7447 27.7602 15.4089 28.1744 15.4089Z" fill="url(#paint49_radial_68_3080)"/>
<path fill-rule="evenodd" clip-rule="evenodd" d="M28.1744 15.4089C28.5886 15.4089 28.9244 15.7447 28.9244 16.1589V16.2062C28.9244 17.3364 28.0082 18.2527 26.8779 18.2527C25.7477 18.2527 24.8314 17.3364 24.8314 16.2062C24.8314 15.792 25.1672 15.4562 25.5814 15.4562C25.9956 15.4562 26.3314 15.792 26.3314 16.2062C26.3314 16.508 26.5761 16.7527 26.8779 16.7527C27.1797 16.7527 27.4244 16.508 27.4244 16.2062V16.1589C27.4244 15.7447 27.7602 15.4089 28.1744 15.4089Z" fill="url(#paint50_radial_68_3080)"/>
<path fill-rule="evenodd" clip-rule="evenodd" d="M28.1744 15.4089C28.5886 15.4089 28.9244 15.7447 28.9244 16.1589V16.2062C28.9244 17.3364 28.0082 18.2527 26.8779 18.2527C25.7477 18.2527 24.8314 17.3364 24.8314 16.2062C24.8314 15.792 25.1672 15.4562 25.5814 15.4562C25.9956 15.4562 26.3314 15.792 26.3314 16.2062C26.3314 16.508 26.5761 16.7527 26.8779 16.7527C27.1797 16.7527 27.4244 16.508 27.4244 16.2062V16.1589C27.4244 15.7447 27.7602 15.4089 28.1744 15.4089Z" fill="url(#paint51_radial_68_3080)"/>
<path fill-rule="evenodd" clip-rule="evenodd" d="M28.1744 15.4089C28.5886 15.4089 28.9244 15.7447 28.9244 16.1589V16.2062C28.9244 17.3364 28.0082 18.2527 26.8779 18.2527C25.7477 18.2527 24.8314 17.3364 24.8314 16.2062C24.8314 15.792 25.1672 15.4562 25.5814 15.4562C25.9956 15.4562 26.3314 15.792 26.3314 16.2062C26.3314 16.508 26.5761 16.7527 26.8779 16.7527C27.1797 16.7527 27.4244 16.508 27.4244 16.2062V16.1589C27.4244 15.7447 27.7602 15.4089 28.1744 15.4089Z" fill="url(#paint52_radial_68_3080)"/>
<path d="M19 16.24C18.4477 16.24 18 16.6877 18 17.24C18 17.7923 18.4477 18.24 19 18.24C19.1636 18.24 19.2955 18.3718 19.2955 18.5355C19.2955 18.6991 19.1636 18.8309 19 18.8309C18.4477 18.8309 18 19.2786 18 19.8309C18 19.8309 18 19.8309 18 19.8309C18 20.3832 18.4477 20.831 19 20.831C19.1636 20.831 19.2955 20.9628 19.2955 21.1264C19.2955 21.2901 19.1636 21.4219 19 21.4219C18.4477 21.4219 18 21.8696 18 22.4219C18 22.9742 18.4477 23.4219 19 23.4219C20.2682 23.4219 21.2955 22.3946 21.2955 21.1264C21.2955 20.6457 21.1479 20.1996 20.8955 19.8309C21.1479 19.4623 21.2955 19.0162 21.2955 18.5355C21.2955 17.2673 20.2682 16.24 19 16.24Z" fill="url(#paint53_radial_68_3080)"/>
<defs>
<radialGradient id="paint0_radial_68_3080" cx="0" cy="0" r="1" gradientUnits="userSpaceOnUse" gradientTransform="translate(25.8232 9.50052) rotate(132.839) scale(34.8273)">
<stop stop-color="#FFF478"/>
<stop offset="0.474827" stop-color="#FFB02E"/>
<stop offset="1" stop-color="#F70A8D"/>
</radialGradient>
<radialGradient id="paint1_radial_68_3080" cx="0" cy="0" r="1" gradientUnits="userSpaceOnUse" gradientTransform="translate(18.2018 15.6615) rotate(121.67) scale(14.304)">
<stop stop-opacity="0"/>
<stop offset="0.692364" stop-opacity="0.0118229"/>
<stop offset="1" stop-opacity="0.09"/>
</radialGradient>
<radialGradient id="paint2_radial_68_3080" cx="0" cy="0" r="1" gradientUnits="userSpaceOnUse" gradientTransform="translate(17.001 12.7508) rotate(90) scale(16.6092)">
<stop offset="0.823911" stop-color="#F59639" stop-opacity="0"/>
<stop offset="1" stop-color="#FF63C4"/>
</radialGradient>
<radialGradient id="paint3_radial_68_3080" cx="0" cy="0" r="1" gradientUnits="userSpaceOnUse" gradientTransform="translate(14.6508 13.3003) rotate(82.316) scale(1.46643 1.32554)">
<stop stop-color="#CA7A1B" stop-opacity="0.85"/>
<stop offset="0.55915" stop-color="#CA7A1B" stop-opacity="0.336184"/>
<stop offset="0.868092" stop-color="#CA7A1B" stop-opacity="0.0764313"/>
<stop offset="1" stop-color="#CA7A1B" stop-opacity="0"/>
</radialGradient>
<radialGradient id="paint4_radial_68_3080" cx="0" cy="0" r="1" gradientUnits="userSpaceOnUse" gradientTransform="translate(25.851 20.5548) rotate(90) scale(0.870855 5.43922)">
<stop stop-color="#BB582B" stop-opacity="0.34"/>
<stop offset="0.64156" stop-color="#BB582B" stop-opacity="0.0937459"/>
<stop offset="1" stop-color="#BB582B" stop-opacity="0"/>
</radialGradient>
<radialGradient id="paint5_radial_68_3080" cx="0" cy="0" r="1" gradientUnits="userSpaceOnUse" gradientTransform="translate(26.8406 20.4969) rotate(83.4781) scale(0.838377 2.03587)">
<stop stop-color="#BB582B" stop-opacity="0.34"/>
<stop offset="0.204707" stop-color="#BB582B" stop-opacity="0.0937459"/>
<stop offset="1" stop-color="#BB582B" stop-opacity="0"/>
</radialGradient>
<radialGradient id="paint6_radial_68_3080" cx="0" cy="0" r="1" gradientUnits="userSpaceOnUse" gradientTransform="translate(25.6381 17.6041) rotate(127.999) scale(1.54598 2.01475)">
<stop stop-color="#BB582B" stop-opacity="0.47"/>
<stop offset="0.744792" stop-color="#BB582B" stop-opacity="0.105729"/>
<stop offset="1" stop-color="#BB582B" stop-opacity="0"/>
</radialGradient>
<radialGradient id="paint7_radial_68_3080" cx="0" cy="0" r="1" gradientUnits="userSpaceOnUse" gradientTransform="translate(28.2633 17.5898) rotate(-164.616) scale(0.958792 1.33021)">
<stop stop-color="#BB582B" stop-opacity="0.46"/>
<stop offset="0.743212" stop-color="#BB582B" stop-opacity="0.105729"/>
<stop offset="1" stop-color="#BB582B" stop-opacity="0"/>
</radialGradient>
<radialGradient id="paint8_radial_68_3080" cx="0" cy="0" r="1" gradientUnits="userSpaceOnUse" gradientTransform="translate(25.2643 16.1547) rotate(180) scale(1.6337 2.12906)">
<stop stop-color="#BB582B" stop-opacity="0.52"/>
<stop offset="0.437811" stop-color="#BB582B" stop-opacity="0.33"/>
<stop offset="0.744792" stop-color="#BB582B" stop-opacity="0.105729"/>
<stop offset="1" stop-color="#BB582B" stop-opacity="0"/>
</radialGradient>
<radialGradient id="paint9_radial_68_3080" cx="0" cy="0" r="1" gradientUnits="userSpaceOnUse" gradientTransform="translate(27.7777 18.8738) rotate(-124.317) scale(1.11667 1.54926)">
<stop stop-color="#BB582B" stop-opacity="0.35"/>
<stop offset="0.743212" stop-color="#BB582B" stop-opacity="0.105729"/>
<stop offset="1" stop-color="#BB582B" stop-opacity="0"/>
</radialGradient>
<radialGradient id="paint10_radial_68_3080" cx="0" cy="0" r="1" gradientUnits="userSpaceOnUse" gradientTransform="translate(27.4528 15.5381) rotate(107.996) scale(0.740257 1.03668)">
<stop stop-color="#BB582B" stop-opacity="0.26"/>
<stop offset="0.634263" stop-color="#BB582B" stop-opacity="0.12"/>
<stop offset="1" stop-color="#BB582B" stop-opacity="0"/>
</radialGradient>
<radialGradient id="paint11_radial_68_3080" cx="0" cy="0" r="1" gradientUnits="userSpaceOnUse" gradientTransform="translate(26.408 15.2307) rotate(87.7094) scale(0.901152 1.262)">
<stop stop-color="#BB582B" stop-opacity="0.37"/>
<stop offset="0.567708" stop-color="#BB582B" stop-opacity="0.19"/>
<stop offset="1" stop-color="#BB582B" stop-opacity="0"/>
</radialGradient>
<radialGradient id="paint12_radial_68_3080" cx="0" cy="0" r="1" gradientUnits="userSpaceOnUse" gradientTransform="translate(13.4167 12.0662) rotate(106.109) scale(0.842606 2.01535)">
<stop stop-color="#CA7A1B" stop-opacity="0.85"/>
<stop offset="0.53696" stop-color="#CA7A1B" stop-opacity="0.336184"/>
<stop offset="1" stop-color="#CA7A1B" stop-opacity="0"/>
</radialGradient>
<radialGradient id="paint13_radial_68_3080" cx="0" cy="0" r="1" gradientUnits="userSpaceOnUse" gradientTransform="translate(14.0969 12.6869) rotate(120.805) scale(0.827266 1.99506)">
<stop stop-color="#CA7A1B" stop-opacity="0.85"/>
<stop offset="0.254368" stop-color="#CA7A1B" stop-opacity="0.336184"/>
<stop offset="1" stop-color="#CA7A1B" stop-opacity="0"/>
</radialGradient>
<radialGradient id="paint14_radial_68_3080" cx="0" cy="0" r="1" gradientUnits="userSpaceOnUse" gradientTransform="translate(23.7934 13.1388) rotate(118.322) scale(1.36421)">
<stop stop-color="#CA7A1B" stop-opacity="0.8"/>
<stop offset="0.695556" stop-color="#CA7A1B" stop-opacity="0.158114"/>
<stop offset="1" stop-color="#CA7A1B" stop-opacity="0"/>
</radialGradient>
<radialGradient id="paint15_radial_68_3080" cx="0" cy="0" r="1" gradientUnits="userSpaceOnUse" gradientTransform="translate(23.9724 13.5373) rotate(126.357) scale(1.23509 1.21052)">
<stop stop-color="#CA7A1B" stop-opacity="0.38"/>
<stop offset="0.556517" stop-color="#CA7A1B" stop-opacity="0.158114"/>
<stop offset="1" stop-color="#CA7A1B" stop-opacity="0"/>
</radialGradient>
<radialGradient id="paint16_radial_68_3080" cx="0" cy="0" r="1" gradientUnits="userSpaceOnUse" gradientTransform="translate(23.1236 12.4186) rotate(124.482) scale(0.796195 2.16641)">
<stop stop-color="#CA7A1B" stop-opacity="0.8"/>
<stop offset="0.727564" stop-color="#CA7A1B" stop-opacity="0.158114"/>
<stop offset="1" stop-color="#CA7A1B" stop-opacity="0"/>
</radialGradient>
<radialGradient id="paint17_radial_68_3080" cx="0" cy="0" r="1" gradientUnits="userSpaceOnUse" gradientTransform="translate(25.1712 9.84902) rotate(105.526) scale(1.56077)">
<stop stop-color="#E37847" stop-opacity="0.37"/>
<stop offset="0.427196" stop-color="#E37847" stop-opacity="0.268229"/>
<stop offset="1" stop-color="#E37847" stop-opacity="0"/>
</radialGradient>
<radialGradient id="paint18_radial_68_3080" cx="0" cy="0" r="1" gradientUnits="userSpaceOnUse" gradientTransform="translate(22.3487 20.419) rotate(89.2151) scale(1.09279 5.21178)">
<stop stop-color="#BB582B" stop-opacity="0.32"/>
<stop offset="0.702064" stop-color="#BB582B" stop-opacity="0.15"/>
<stop offset="1" stop-color="#BB582B" stop-opacity="0"/>
</radialGradient>
<radialGradient id="paint19_radial_68_3080" cx="0" cy="0" r="1" gradientUnits="userSpaceOnUse" gradientTransform="translate(21.4565 20.3921) rotate(91.0809) scale(0.989263 3.12883)">
<stop stop-color="#BB582B" stop-opacity="0.22"/>
<stop offset="0.702064" stop-color="#BB582B" stop-opacity="0.09"/>
<stop offset="1" stop-color="#BB582B" stop-opacity="0"/>
</radialGradient>
<linearGradient id="paint20_linear_68_3080" x1="4" y1="18.9453" x2="17" y2="4.13281" gradientUnits="userSpaceOnUse">
<stop stop-color="#5092FF"/>
<stop offset="0.859375" stop-color="#5092FF" stop-opacity="0"/>
</linearGradient>
<radialGradient id="paint21_radial_68_3080" cx="0" cy="0" r="1" gradientUnits="userSpaceOnUse" gradientTransform="translate(28.8906 8.91406) rotate(-129.912) scale(3.23894 13.7191)">
<stop offset="0.359375" stop-color="#FF42B1"/>
<stop offset="0.854167" stop-color="#F70A8D"/>
<stop offset="1" stop-color="#CE336E"/>
</radialGradient>
<radialGradient id="paint22_radial_68_3080" cx="0" cy="0" r="1" gradientUnits="userSpaceOnUse" gradientTransform="translate(10.8906 27.9141) rotate(-129.912) scale(3.23894 13.7191)">
<stop offset="0.359375" stop-color="#FF42B1"/>
<stop offset="0.854167" stop-color="#F70A8D"/>
<stop offset="1" stop-color="#CE336E"/>
</radialGradient>
<radialGradient id="paint23_radial_68_3080" cx="0" cy="0" r="1" gradientUnits="userSpaceOnUse" gradientTransform="translate(27.5 27.5) rotate(135) scale(1.41421)">
<stop stop-color="#45C9FF"/>
<stop offset="1" stop-color="#3E80FF"/>
</radialGradient>
<radialGradient id="paint24_radial_68_3080" cx="0" cy="0" r="1" gradientUnits="userSpaceOnUse" gradientTransform="translate(10.5 19.5) rotate(135) scale(1.41421)">
<stop stop-color="#45C9FF"/>
<stop offset="1" stop-color="#3E80FF"/>
</radialGradient>
<radialGradient id="paint25_radial_68_3080" cx="0" cy="0" r="1" gradientUnits="userSpaceOnUse" gradientTransform="translate(25.5 2.5) rotate(135) scale(1.41421)">
<stop stop-color="#45C9FF"/>
<stop offset="1" stop-color="#3E80FF"/>
</radialGradient>
<radialGradient id="paint26_radial_68_3080" cx="0" cy="0" r="1" gradientUnits="userSpaceOnUse" gradientTransform="translate(21.9797 13.2129) rotate(-91.5327) scale(6.5392 9.16661)">
<stop offset="0.166667" stop-color="#482641"/>
<stop offset="0.276042" stop-color="#503A4A"/>
<stop offset="0.401042" stop-color="#483637"/>
</radialGradient>
<radialGradient id="paint27_radial_68_3080" cx="0" cy="0" r="1" gradientUnits="userSpaceOnUse" gradientTransform="translate(12.8027 13.2129) rotate(-91.5327) scale(6.5392 9.16661)">
<stop offset="0.166667" stop-color="#482641"/>
<stop offset="0.276042" stop-color="#503A4A"/>
<stop offset="0.401042" stop-color="#483637"/>
</radialGradient>
<radialGradient id="paint28_radial_68_3080" cx="0" cy="0" r="1" gradientUnits="userSpaceOnUse" gradientTransform="translate(22.4375 15.3202) rotate(9.65183) scale(4.65971 7.89053)">
<stop offset="0.328125" stop-color="#1B6AD1"/>
<stop offset="1" stop-color="#2A80F0" stop-opacity="0"/>
</radialGradient>
<radialGradient id="paint29_radial_68_3080" cx="0" cy="0" r="1" gradientUnits="userSpaceOnUse" gradientTransform="translate(27.1875 16.0546) rotate(27.8973) scale(1.20221 1.73102)">
<stop stop-color="#1B6AD1"/>
<stop offset="1" stop-color="#2A80F0" stop-opacity="0"/>
</radialGradient>
<radialGradient id="paint30_radial_68_3080" cx="0" cy="0" r="1" gradientUnits="userSpaceOnUse" gradientTransform="translate(28.7812 22.0077) rotate(-92.9038) scale(4.31804 17.7684)">
<stop stop-color="#1B6AD1"/>
<stop offset="0.601914" stop-color="#2A80F0" stop-opacity="0"/>
</radialGradient>
<linearGradient id="paint31_linear_68_3080" x1="23.5748" y1="19.0826" x2="23.5748" y2="20.5808" gradientUnits="userSpaceOnUse">
<stop stop-color="#A0D9FF" stop-opacity="0"/>
<stop offset="0.238015" stop-color="#A0D9FF" stop-opacity="0.413046"/>
<stop offset="0.360818" stop-color="#A0D9FF" stop-opacity="0.52"/>
<stop offset="0.465258" stop-color="#A0D9FF" stop-opacity="0.534742"/>
<stop offset="0.590242" stop-color="#A0D9FF" stop-opacity="0.411458"/>
<stop offset="0.85064" stop-color="#A0D9FF" stop-opacity="0"/>
</linearGradient>
<radialGradient id="paint32_radial_68_3080" cx="0" cy="0" r="1" gradientUnits="userSpaceOnUse" gradientTransform="translate(22.8782 12.5244) rotate(9.29314) scale(4.42401 7.22305)">
<stop offset="0.328125" stop-color="#1B6AD1"/>
<stop offset="1" stop-color="#2A80F0" stop-opacity="0"/>
</radialGradient>
<radialGradient id="paint33_radial_68_3080" cx="0" cy="0" r="1" gradientUnits="userSpaceOnUse" gradientTransform="translate(27.3927 13.196) rotate(26.9934) scale(1.13327 1.59596)">
<stop stop-color="#1B6AD1"/>
<stop offset="1" stop-color="#2A80F0" stop-opacity="0"/>
</radialGradient>
<radialGradient id="paint34_radial_68_3080" cx="0" cy="0" r="1" gradientUnits="userSpaceOnUse" gradientTransform="translate(28.9074 18.6398) rotate(-93.0178) scale(3.94905 16.8855)">
<stop stop-color="#1B6AD1"/>
<stop offset="0.601914" stop-color="#2A80F0" stop-opacity="0"/>
</radialGradient>
<radialGradient id="paint35_radial_68_3080" cx="0" cy="0" r="1" gradientUnits="userSpaceOnUse" gradientTransform="translate(28.1418 16.3936) rotate(-54.7725) scale(3.09273 2.93161)">
<stop stop-color="#A0D9FF" stop-opacity="0"/>
<stop offset="0.623619" stop-color="#A0D9FF" stop-opacity="0.183577"/>
<stop offset="0.727437" stop-color="#A0D9FF" stop-opacity="0.47"/>
<stop offset="0.798816" stop-color="#A0D9FF" stop-opacity="0.5"/>
<stop offset="0.83338" stop-color="#A0D9FF" stop-opacity="0.52"/>
<stop offset="0.8682" stop-color="#A0D9FF" stop-opacity="0.46"/>
<stop offset="1" stop-color="#A0D9FF" stop-opacity="0"/>
</radialGradient>
<radialGradient id="paint36_radial_68_3080" cx="0" cy="0" r="1" gradientUnits="userSpaceOnUse" gradientTransform="translate(28.2187 13.0156) rotate(98.9306) scale(0.276793 1.04734)">
<stop stop-color="#00A6ED"/>
<stop offset="0.739378" stop-color="#00A6ED"/>
<stop offset="1" stop-color="#00A6ED" stop-opacity="0"/>
</radialGradient>
<radialGradient id="paint37_radial_68_3080" cx="0" cy="0" r="1" gradientUnits="userSpaceOnUse" gradientTransform="translate(22.4375 15.3202) rotate(9.65183) scale(4.65971 7.89053)">
<stop offset="0.328125" stop-color="#1B6AD1"/>
<stop offset="1" stop-color="#2A80F0" stop-opacity="0"/>
</radialGradient>
<radialGradient id="paint38_radial_68_3080" cx="0" cy="0" r="1" gradientUnits="userSpaceOnUse" gradientTransform="translate(27.1875 16.0546) rotate(27.8973) scale(1.20221 1.73102)">
<stop stop-color="#1B6AD1"/>
<stop offset="1" stop-color="#2A80F0" stop-opacity="0"/>
</radialGradient>
<radialGradient id="paint39_radial_68_3080" cx="0" cy="0" r="1" gradientUnits="userSpaceOnUse" gradientTransform="translate(28.7812 22.0077) rotate(-92.9038) scale(4.31804 17.7684)">
<stop stop-color="#1B6AD1"/>
<stop offset="0.601914" stop-color="#2A80F0" stop-opacity="0"/>
</radialGradient>
<radialGradient id="paint40_radial_68_3080" cx="0" cy="0" r="1" gradientUnits="userSpaceOnUse" gradientTransform="translate(27.3933 16.6226) rotate(37.0007) scale(3.93925 3.77652)">
<stop offset="0.626079" stop-color="#A0D9FF" stop-opacity="0"/>
<stop offset="0.779522" stop-color="#A0D9FF" stop-opacity="0.47"/>
<stop offset="0.798816" stop-color="#A0D9FF" stop-opacity="0.5"/>
<stop offset="0.83338" stop-color="#A0D9FF" stop-opacity="0.52"/>
<stop offset="0.8682" stop-color="#A0D9FF" stop-opacity="0.46"/>
<stop offset="1" stop-color="#A0D9FF" stop-opacity="0"/>
</radialGradient>
<radialGradient id="paint41_radial_68_3080" cx="0" cy="0" r="1" gradientUnits="userSpaceOnUse" gradientTransform="translate(31.2437 16.186) rotate(161.94) scale(0.276635 1.18276)">
<stop stop-color="#00A6ED"/>
<stop offset="0.628895" stop-color="#00A6ED" stop-opacity="0.537426"/>
<stop offset="1" stop-color="#00A6ED" stop-opacity="0"/>
</radialGradient>
<radialGradient id="paint42_radial_68_3080" cx="0" cy="0" r="1" gradientUnits="userSpaceOnUse" gradientTransform="translate(21.3138 12.5655) rotate(9.87654) scale(3.80167 6.58153)">
<stop offset="0.328125" stop-color="#1B6AD1"/>
<stop offset="1" stop-color="#2A80F0" stop-opacity="0"/>
</radialGradient>
<radialGradient id="paint43_radial_68_3080" cx="0" cy="0" r="1" gradientUnits="userSpaceOnUse" gradientTransform="translate(25.1865 13.1784) rotate(28.4569) scale(0.985316 1.43729)">
<stop stop-color="#1B6AD1"/>
<stop offset="1" stop-color="#2A80F0" stop-opacity="0"/>
</radialGradient>
<radialGradient id="paint44_radial_68_3080" cx="0" cy="0" r="1" gradientUnits="userSpaceOnUse" gradientTransform="translate(26.4859 18.1473) rotate(-92.8366) scale(3.60392 14.4876)">
<stop stop-color="#1B6AD1"/>
<stop offset="0.601914" stop-color="#2A80F0" stop-opacity="0"/>
</radialGradient>
<radialGradient id="paint45_radial_68_3080" cx="0" cy="0" r="1" gradientUnits="userSpaceOnUse" gradientTransform="translate(27.8708 16.0808) rotate(-130.314) scale(2.81488 2.71541)">
<stop stop-color="#A0D9FF" stop-opacity="0"/>
<stop offset="0.493221" stop-color="#A0D9FF" stop-opacity="0.0663814"/>
<stop offset="0.735331" stop-color="#A0D9FF" stop-opacity="0.47"/>
<stop offset="0.798816" stop-color="#A0D9FF" stop-opacity="0.5"/>
<stop offset="0.83338" stop-color="#A0D9FF" stop-opacity="0.52"/>
<stop offset="0.8682" stop-color="#A0D9FF" stop-opacity="0.46"/>
<stop offset="0.941594" stop-color="#A0D9FF" stop-opacity="0.203845"/>
<stop offset="1" stop-color="#A0D9FF" stop-opacity="0"/>
</radialGradient>
<radialGradient id="paint46_radial_68_3080" cx="0" cy="0" r="1" gradientUnits="userSpaceOnUse" gradientTransform="translate(26.4228 15.8382) rotate(-158.86) scale(0.508232 0.957121)">
<stop stop-color="#00A6ED"/>
<stop offset="0.56047" stop-color="#00A6ED" stop-opacity="0.610887"/>
<stop offset="1" stop-color="#00A6ED" stop-opacity="0"/>
</radialGradient>
<radialGradient id="paint47_radial_68_3080" cx="0" cy="0" r="1" gradientUnits="userSpaceOnUse" gradientTransform="translate(20.9502 15.1007) rotate(6.46289) scale(4.15884 4.76534)">
<stop offset="0.328125" stop-color="#1B6AD1"/>
<stop offset="1" stop-color="#2A80F0" stop-opacity="0"/>
</radialGradient>
<radialGradient id="paint48_radial_68_3080" cx="0" cy="0" r="1" gradientUnits="userSpaceOnUse" gradientTransform="translate(26.6569 19.1078) rotate(-94.3549) scale(2.59149 15.9583)">
<stop stop-color="#1B6AD1"/>
<stop offset="0.601914" stop-color="#2A80F0" stop-opacity="0"/>
</radialGradient>
<radialGradient id="paint49_radial_68_3080" cx="0" cy="0" r="1" gradientUnits="userSpaceOnUse" gradientTransform="translate(27.5857 15.2504) rotate(31.5169) scale(0.785892 2.49055)">
<stop stop-color="#1B6AD1"/>
<stop offset="1" stop-color="#2A80F0" stop-opacity="0"/>
</radialGradient>
<radialGradient id="paint50_radial_68_3080" cx="0" cy="0" r="1" gradientUnits="userSpaceOnUse" gradientTransform="translate(26.9523 15.9193) rotate(96.2035) scale(2.01533 1.79789)">
<stop stop-color="#A0D9FF" stop-opacity="0"/>
<stop offset="0.418873" stop-color="#A0D9FF" stop-opacity="0.0663814"/>
<stop offset="0.505564" stop-color="#A0D9FF" stop-opacity="0.244587"/>
<stop offset="0.583785" stop-color="#A0D9FF" stop-opacity="0.44"/>
<stop offset="0.682644" stop-color="#A0D9FF" stop-opacity="0.54"/>
<stop offset="0.725141" stop-color="#A0D9FF" stop-opacity="0.54"/>
<stop offset="0.772791" stop-color="#A0D9FF" stop-opacity="0.52"/>
<stop offset="0.816441" stop-color="#A0D9FF" stop-opacity="0.46"/>
<stop offset="0.91367" stop-color="#A0D9FF" stop-opacity="0.203845"/>
<stop offset="1" stop-color="#A0D9FF" stop-opacity="0"/>
</radialGradient>
<radialGradient id="paint51_radial_68_3080" cx="0" cy="0" r="1" gradientUnits="userSpaceOnUse" gradientTransform="translate(28.4736 15.7232) rotate(90) scale(0.500579 1.05224)">
<stop stop-color="#00A6ED"/>
<stop offset="1" stop-color="#00A6ED" stop-opacity="0"/>
</radialGradient>
<radialGradient id="paint52_radial_68_3080" cx="0" cy="0" r="1" gradientUnits="userSpaceOnUse" gradientTransform="translate(28.3771 15.8661) rotate(135) scale(0.418685 0.414861)">
<stop stop-color="#A0D9FF" stop-opacity="0.5"/>
<stop offset="0.369792" stop-color="#A0D9FF" stop-opacity="0.38"/>
<stop offset="0.640625" stop-color="#A0D9FF" stop-opacity="0.22"/>
<stop offset="0.796875" stop-color="#A0D9FF" stop-opacity="0.0988406"/>
<stop offset="1" stop-color="#A0D9FF" stop-opacity="0"/>
</radialGradient>
<radialGradient id="paint53_radial_68_3080" cx="0" cy="0" r="1" gradientUnits="userSpaceOnUse" gradientTransform="translate(18 19.8309) scale(5.92629 6.45766)">
<stop stop-color="#3E3537"/>
<stop offset="0.399715" stop-color="#442932"/>
<stop offset="0.675586" stop-color="#6A5662"/>
</radialGradient>
</defs>
</svg>
