<svg width="33" height="32" viewBox="0 0 33 32" fill="none" xmlns="http://www.w3.org/2000/svg">
<path d="M16.7489 29.9978C26.0833 29.9978 30.7478 23.7303 30.7478 15.9989C30.7478 8.26751 26.0833 2 16.7489 2C7.41443 2 2.75 8.26751 2.75 15.9989C2.75 23.7303 7.41443 29.9978 16.7489 29.9978Z" fill="url(#paint0_radial_68_3081)"/>
<path d="M16.7489 29.9978C26.0833 29.9978 30.7478 23.7303 30.7478 15.9989C30.7478 8.26751 26.0833 2 16.7489 2C7.41443 2 2.75 8.26751 2.75 15.9989C2.75 23.7303 7.41443 29.9978 16.7489 29.9978Z" fill="url(#paint1_radial_68_3081)"/>
<path d="M16.7489 29.9978C26.0833 29.9978 30.7478 23.7303 30.7478 15.9989C30.7478 8.26751 26.0833 2 16.7489 2C7.41443 2 2.75 8.26751 2.75 15.9989C2.75 23.7303 7.41443 29.9978 16.7489 29.9978Z" fill="url(#paint2_radial_68_3081)" fill-opacity="0.6"/>
<path d="M16.7489 29.9978C26.0833 29.9978 30.7478 23.7303 30.7478 15.9989C30.7478 8.26751 26.0833 2 16.7489 2C7.41443 2 2.75 8.26751 2.75 15.9989C2.75 23.7303 7.41443 29.9978 16.7489 29.9978Z" fill="url(#paint3_radial_68_3081)"/>
<path d="M16.7489 29.9978C26.0833 29.9978 30.7478 23.7303 30.7478 15.9989C30.7478 8.26751 26.0833 2 16.7489 2C7.41443 2 2.75 8.26751 2.75 15.9989C2.75 23.7303 7.41443 29.9978 16.7489 29.9978Z" fill="url(#paint4_radial_68_3081)"/>
<path d="M16.7489 29.9978C26.0833 29.9978 30.7478 23.7303 30.7478 15.9989C30.7478 8.26751 26.0833 2 16.7489 2C7.41443 2 2.75 8.26751 2.75 15.9989C2.75 23.7303 7.41443 29.9978 16.7489 29.9978Z" fill="url(#paint5_radial_68_3081)"/>
<path d="M16.7489 29.9978C26.0833 29.9978 30.7478 23.7303 30.7478 15.9989C30.7478 8.26751 26.0833 2 16.7489 2C7.41443 2 2.75 8.26751 2.75 15.9989C2.75 23.7303 7.41443 29.9978 16.7489 29.9978Z" fill="url(#paint6_radial_68_3081)"/>
<path d="M16.7489 29.9978C26.0833 29.9978 30.7478 23.7303 30.7478 15.9989C30.7478 8.26751 26.0833 2 16.7489 2C7.41443 2 2.75 8.26751 2.75 15.9989C2.75 23.7303 7.41443 29.9978 16.7489 29.9978Z" fill="url(#paint7_radial_68_3081)"/>
<path d="M16.7489 29.9978C26.0833 29.9978 30.7478 23.7303 30.7478 15.9989C30.7478 8.26751 26.0833 2 16.7489 2C7.41443 2 2.75 8.26751 2.75 15.9989C2.75 23.7303 7.41443 29.9978 16.7489 29.9978Z" fill="url(#paint8_radial_68_3081)"/>
<path d="M16.7489 29.9978C26.0833 29.9978 30.7478 23.7303 30.7478 15.9989C30.7478 8.26751 26.0833 2 16.7489 2C7.41443 2 2.75 8.26751 2.75 15.9989C2.75 23.7303 7.41443 29.9978 16.7489 29.9978Z" fill="url(#paint9_radial_68_3081)"/>
<path d="M16.7489 29.9978C26.0833 29.9978 30.7478 23.7303 30.7478 15.9989C30.7478 8.26751 26.0833 2 16.7489 2C7.41443 2 2.75 8.26751 2.75 15.9989C2.75 23.7303 7.41443 29.9978 16.7489 29.9978Z" fill="url(#paint10_radial_68_3081)"/>
<path d="M16.7489 29.9978C26.0833 29.9978 30.7478 23.7303 30.7478 15.9989C30.7478 8.26751 26.0833 2 16.7489 2C7.41443 2 2.75 8.26751 2.75 15.9989C2.75 23.7303 7.41443 29.9978 16.7489 29.9978Z" fill="url(#paint11_radial_68_3081)"/>
<path d="M16.7489 29.9978C26.0833 29.9978 30.7478 23.7303 30.7478 15.9989C30.7478 8.26751 26.0833 2 16.7489 2C7.41443 2 2.75 8.26751 2.75 15.9989C2.75 23.7303 7.41443 29.9978 16.7489 29.9978Z" fill="url(#paint12_radial_68_3081)"/>
<path d="M16.7489 29.9978C26.0833 29.9978 30.7478 23.7303 30.7478 15.9989C30.7478 8.26751 26.0833 2 16.7489 2C7.41443 2 2.75 8.26751 2.75 15.9989C2.75 23.7303 7.41443 29.9978 16.7489 29.9978Z" fill="url(#paint13_radial_68_3081)"/>
<path fill-rule="evenodd" clip-rule="evenodd" d="M14.4541 19.7142C14.4341 19.7311 14.4142 19.748 14.3942 19.7648C13.9717 20.1206 13.3409 20.0665 12.9851 19.6441C12.6294 19.2217 12.6834 18.5908 13.1059 18.235C13.124 18.2197 13.1441 18.2027 13.1659 18.184C13.3957 17.9878 13.8274 17.6192 14.4416 17.3436C15.1338 17.0329 16.0222 16.8506 17.141 17.01C18.278 17.1719 19.0845 17.6287 19.6522 18.1672C20.1916 18.6788 20.4788 19.2328 20.6274 19.5195C20.6309 19.5263 20.6343 19.5329 20.6376 19.5394C20.892 20.0296 20.7008 20.6332 20.2106 20.8876C19.7204 21.1419 19.1168 20.9507 18.8624 20.4605C18.7224 20.1906 18.5633 19.8909 18.2758 19.6183C18.004 19.3604 17.5782 19.0924 16.859 18.99C16.1217 18.885 15.6145 19.0094 15.2604 19.1683C14.9168 19.3225 14.6834 19.52 14.4541 19.7142Z" fill="url(#paint14_radial_68_3081)"/>
<path fill-rule="evenodd" clip-rule="evenodd" d="M14.4541 19.7142C14.4341 19.7311 14.4142 19.748 14.3942 19.7648C13.9717 20.1206 13.3409 20.0665 12.9851 19.6441C12.6294 19.2217 12.6834 18.5908 13.1059 18.235C13.124 18.2197 13.1441 18.2027 13.1659 18.184C13.3957 17.9878 13.8274 17.6192 14.4416 17.3436C15.1338 17.0329 16.0222 16.8506 17.141 17.01C18.278 17.1719 19.0845 17.6287 19.6522 18.1672C20.1916 18.6788 20.4788 19.2328 20.6274 19.5195C20.6309 19.5263 20.6343 19.5329 20.6376 19.5394C20.892 20.0296 20.7008 20.6332 20.2106 20.8876C19.7204 21.1419 19.1168 20.9507 18.8624 20.4605C18.7224 20.1906 18.5633 19.8909 18.2758 19.6183C18.004 19.3604 17.5782 19.0924 16.859 18.99C16.1217 18.885 15.6145 19.0094 15.2604 19.1683C14.9168 19.3225 14.6834 19.52 14.4541 19.7142Z" fill="url(#paint15_radial_68_3081)"/>
<path fill-rule="evenodd" clip-rule="evenodd" d="M14.4541 19.7142C14.4341 19.7311 14.4142 19.748 14.3942 19.7648C13.9717 20.1206 13.3409 20.0665 12.9851 19.6441C12.6294 19.2217 12.6834 18.5908 13.1059 18.235C13.124 18.2197 13.1441 18.2027 13.1659 18.184C13.3957 17.9878 13.8274 17.6192 14.4416 17.3436C15.1338 17.0329 16.0222 16.8506 17.141 17.01C18.278 17.1719 19.0845 17.6287 19.6522 18.1672C20.1916 18.6788 20.4788 19.2328 20.6274 19.5195C20.6309 19.5263 20.6343 19.5329 20.6376 19.5394C20.892 20.0296 20.7008 20.6332 20.2106 20.8876C19.7204 21.1419 19.1168 20.9507 18.8624 20.4605C18.7224 20.1906 18.5633 19.8909 18.2758 19.6183C18.004 19.3604 17.5782 19.0924 16.859 18.99C16.1217 18.885 15.6145 19.0094 15.2604 19.1683C14.9168 19.3225 14.6834 19.52 14.4541 19.7142Z" fill="url(#paint16_radial_68_3081)"/>
<path d="M11.1691 16.2244C13.492 16.2244 15.3751 14.3414 15.3751 12.0185C15.3751 9.69557 13.492 7.8125 11.1691 7.8125C8.84621 7.8125 6.96313 9.69557 6.96313 12.0185C6.96313 14.3414 8.84621 16.2244 11.1691 16.2244Z" fill="white"/>
<path d="M22.3183 16.3011C24.6623 16.3011 26.5626 14.4009 26.5626 12.0568C26.5626 9.71274 24.6623 7.8125 22.3183 7.8125C19.9742 7.8125 18.074 9.71274 18.074 12.0568C18.074 14.4009 19.9742 16.3011 22.3183 16.3011Z" fill="white"/>
<path d="M10.75 9.5C11.8546 9.5 12.75 10.3954 12.75 11.5C12.75 12.6046 11.8546 13.5 10.75 13.5C9.64543 13.5 8.75 12.6046 8.75 11.5C8.75 10.3954 9.64543 9.5 10.75 9.5ZM21.75 9.5C22.8546 9.5 23.75 10.3954 23.75 11.5C23.75 12.6046 22.8546 13.5 21.75 13.5C20.6454 13.5 19.75 12.6046 19.75 11.5C19.75 10.3954 20.6454 9.5 21.75 9.5Z" fill="url(#paint17_linear_68_3081)"/>
<path d="M9.26855 17.0498C10.044 17.0498 10.661 17.7014 10.6182 18.4756L10.5049 20.5186C10.4738 21.0784 10.9188 21.5496 11.4795 21.5498H16.5C17.1627 21.5498 17.7002 22.0873 17.7002 22.75C17.7002 23.4127 17.1627 23.9502 16.5 23.9502H14.5381L15.0439 24.2031C15.4457 24.404 15.7001 24.8145 15.7002 25.2637C15.7002 25.9187 15.1687 26.4502 14.5137 26.4502H13.8438L14.2383 26.5488H14.2402C14.2419 26.5493 14.2448 26.5498 14.248 26.5508C14.2548 26.5527 14.2646 26.5564 14.2773 26.5605C14.3035 26.5689 14.3414 26.5817 14.3867 26.6006C14.4777 26.6385 14.5989 26.6995 14.7197 26.79C14.9606 26.9707 15.2002 27.2696 15.2002 27.75C15.2002 28.0516 15.1098 28.2749 14.9766 28.4414C14.8427 28.6087 14.6628 28.7219 14.4805 28.7979C14.2983 28.8737 14.1154 28.9115 13.9775 28.9307C13.9088 28.9402 13.8514 28.9449 13.8115 28.9473C13.7917 28.9484 13.7761 28.9499 13.7656 28.9502H13.75V29.0498C14.2746 29.0498 14.7002 29.4753 14.7002 30C14.7002 30.5247 14.2746 30.9502 13.75 30.9502H10.75C9.24826 30.9502 7.26587 31.0486 5.28125 29.4609C4.04946 28.4755 3.67669 26.8711 3.98633 25.3848C4.29609 23.8984 5.28628 22.5411 6.76562 22.0479C6.99211 21.9724 7.17 21.7935 7.30957 21.5547C7.4492 21.3157 7.55357 21.0117 7.63086 20.6768C7.78546 20.0068 7.83541 19.2018 7.84375 18.5176C7.85361 17.7243 8.48049 17.0501 9.26855 17.0498Z" fill="url(#paint18_radial_68_3081)"/>
<path d="M9.26855 17.0498C10.044 17.0498 10.661 17.7014 10.6182 18.4756L10.5049 20.5186C10.4738 21.0784 10.9188 21.5496 11.4795 21.5498H16.5C17.1627 21.5498 17.7002 22.0873 17.7002 22.75C17.7002 23.4127 17.1627 23.9502 16.5 23.9502H14.5381L15.0439 24.2031C15.4457 24.404 15.7001 24.8145 15.7002 25.2637C15.7002 25.9187 15.1687 26.4502 14.5137 26.4502H13.8438L14.2383 26.5488H14.2402C14.2419 26.5493 14.2448 26.5498 14.248 26.5508C14.2548 26.5527 14.2646 26.5564 14.2773 26.5605C14.3035 26.5689 14.3414 26.5817 14.3867 26.6006C14.4777 26.6385 14.5989 26.6995 14.7197 26.79C14.9606 26.9707 15.2002 27.2696 15.2002 27.75C15.2002 28.0516 15.1098 28.2749 14.9766 28.4414C14.8427 28.6087 14.6628 28.7219 14.4805 28.7979C14.2983 28.8737 14.1154 28.9115 13.9775 28.9307C13.9088 28.9402 13.8514 28.9449 13.8115 28.9473C13.7917 28.9484 13.7761 28.9499 13.7656 28.9502H13.75V29.0498C14.2746 29.0498 14.7002 29.4753 14.7002 30C14.7002 30.5247 14.2746 30.9502 13.75 30.9502H10.75C9.24826 30.9502 7.26587 31.0486 5.28125 29.4609C4.04946 28.4755 3.67669 26.8711 3.98633 25.3848C4.29609 23.8984 5.28628 22.5411 6.76562 22.0479C6.99211 21.9724 7.17 21.7935 7.30957 21.5547C7.4492 21.3157 7.55357 21.0117 7.63086 20.6768C7.78546 20.0068 7.83541 19.2018 7.84375 18.5176C7.85361 17.7243 8.48049 17.0501 9.26855 17.0498Z" fill="url(#paint19_radial_68_3081)"/>
<path d="M9.26855 17.0498C10.044 17.0498 10.661 17.7014 10.6182 18.4756L10.5049 20.5186C10.4738 21.0784 10.9188 21.5496 11.4795 21.5498H16.5C17.1627 21.5498 17.7002 22.0873 17.7002 22.75C17.7002 23.4127 17.1627 23.9502 16.5 23.9502H14.5381L15.0439 24.2031C15.4457 24.404 15.7001 24.8145 15.7002 25.2637C15.7002 25.9187 15.1687 26.4502 14.5137 26.4502H13.8438L14.2383 26.5488H14.2402C14.2419 26.5493 14.2448 26.5498 14.248 26.5508C14.2548 26.5527 14.2646 26.5564 14.2773 26.5605C14.3035 26.5689 14.3414 26.5817 14.3867 26.6006C14.4777 26.6385 14.5989 26.6995 14.7197 26.79C14.9606 26.9707 15.2002 27.2696 15.2002 27.75C15.2002 28.0516 15.1098 28.2749 14.9766 28.4414C14.8427 28.6087 14.6628 28.7219 14.4805 28.7979C14.2983 28.8737 14.1154 28.9115 13.9775 28.9307C13.9088 28.9402 13.8514 28.9449 13.8115 28.9473C13.7917 28.9484 13.7761 28.9499 13.7656 28.9502H13.75V29.0498C14.2746 29.0498 14.7002 29.4753 14.7002 30C14.7002 30.5247 14.2746 30.9502 13.75 30.9502H10.75C9.24826 30.9502 7.26587 31.0486 5.28125 29.4609C4.04946 28.4755 3.67669 26.8711 3.98633 25.3848C4.29609 23.8984 5.28628 22.5411 6.76562 22.0479C6.99211 21.9724 7.17 21.7935 7.30957 21.5547C7.4492 21.3157 7.55357 21.0117 7.63086 20.6768C7.78546 20.0068 7.83541 19.2018 7.84375 18.5176C7.85361 17.7243 8.48049 17.0501 9.26855 17.0498Z" fill="url(#paint20_radial_68_3081)"/>
<path d="M9.26855 17.0498C10.044 17.0498 10.661 17.7014 10.6182 18.4756L10.5049 20.5186C10.4738 21.0784 10.9188 21.5496 11.4795 21.5498H16.5C17.1627 21.5498 17.7002 22.0873 17.7002 22.75C17.7002 23.4127 17.1627 23.9502 16.5 23.9502H14.5381L15.0439 24.2031C15.4457 24.404 15.7001 24.8145 15.7002 25.2637C15.7002 25.9187 15.1687 26.4502 14.5137 26.4502H13.8438L14.2383 26.5488H14.2402C14.2419 26.5493 14.2448 26.5498 14.248 26.5508C14.2548 26.5527 14.2646 26.5564 14.2773 26.5605C14.3035 26.5689 14.3414 26.5817 14.3867 26.6006C14.4777 26.6385 14.5989 26.6995 14.7197 26.79C14.9606 26.9707 15.2002 27.2696 15.2002 27.75C15.2002 28.0516 15.1098 28.2749 14.9766 28.4414C14.8427 28.6087 14.6628 28.7219 14.4805 28.7979C14.2983 28.8737 14.1154 28.9115 13.9775 28.9307C13.9088 28.9402 13.8514 28.9449 13.8115 28.9473C13.7917 28.9484 13.7761 28.9499 13.7656 28.9502H13.75V29.0498C14.2746 29.0498 14.7002 29.4753 14.7002 30C14.7002 30.5247 14.2746 30.9502 13.75 30.9502H10.75C9.24826 30.9502 7.26587 31.0486 5.28125 29.4609C4.04946 28.4755 3.67669 26.8711 3.98633 25.3848C4.29609 23.8984 5.28628 22.5411 6.76562 22.0479C6.99211 21.9724 7.17 21.7935 7.30957 21.5547C7.4492 21.3157 7.55357 21.0117 7.63086 20.6768C7.78546 20.0068 7.83541 19.2018 7.84375 18.5176C7.85361 17.7243 8.48049 17.0501 9.26855 17.0498Z" fill="url(#paint21_radial_68_3081)"/>
<path d="M9.26855 17.0498C10.044 17.0498 10.661 17.7014 10.6182 18.4756L10.5049 20.5186C10.4738 21.0784 10.9188 21.5496 11.4795 21.5498H16.5C17.1627 21.5498 17.7002 22.0873 17.7002 22.75C17.7002 23.4127 17.1627 23.9502 16.5 23.9502H14.5381L15.0439 24.2031C15.4457 24.404 15.7001 24.8145 15.7002 25.2637C15.7002 25.9187 15.1687 26.4502 14.5137 26.4502H13.8438L14.2383 26.5488H14.2402C14.2419 26.5493 14.2448 26.5498 14.248 26.5508C14.2548 26.5527 14.2646 26.5564 14.2773 26.5605C14.3035 26.5689 14.3414 26.5817 14.3867 26.6006C14.4777 26.6385 14.5989 26.6995 14.7197 26.79C14.9606 26.9707 15.2002 27.2696 15.2002 27.75C15.2002 28.0516 15.1098 28.2749 14.9766 28.4414C14.8427 28.6087 14.6628 28.7219 14.4805 28.7979C14.2983 28.8737 14.1154 28.9115 13.9775 28.9307C13.9088 28.9402 13.8514 28.9449 13.8115 28.9473C13.7917 28.9484 13.7761 28.9499 13.7656 28.9502H13.75V29.0498C14.2746 29.0498 14.7002 29.4753 14.7002 30C14.7002 30.5247 14.2746 30.9502 13.75 30.9502H10.75C9.24826 30.9502 7.26587 31.0486 5.28125 29.4609C4.04946 28.4755 3.67669 26.8711 3.98633 25.3848C4.29609 23.8984 5.28628 22.5411 6.76562 22.0479C6.99211 21.9724 7.17 21.7935 7.30957 21.5547C7.4492 21.3157 7.55357 21.0117 7.63086 20.6768C7.78546 20.0068 7.83541 19.2018 7.84375 18.5176C7.85361 17.7243 8.48049 17.0501 9.26855 17.0498Z" fill="url(#paint22_radial_68_3081)"/>
<path d="M9.26855 17.0498C10.044 17.0498 10.661 17.7014 10.6182 18.4756L10.5049 20.5186C10.4738 21.0784 10.9188 21.5496 11.4795 21.5498H16.5C17.1627 21.5498 17.7002 22.0873 17.7002 22.75C17.7002 23.4127 17.1627 23.9502 16.5 23.9502H14.5381L15.0439 24.2031C15.4457 24.404 15.7001 24.8145 15.7002 25.2637C15.7002 25.9187 15.1687 26.4502 14.5137 26.4502H13.8438L14.2383 26.5488H14.2402C14.2419 26.5493 14.2448 26.5498 14.248 26.5508C14.2548 26.5527 14.2646 26.5564 14.2773 26.5605C14.3035 26.5689 14.3414 26.5817 14.3867 26.6006C14.4777 26.6385 14.5989 26.6995 14.7197 26.79C14.9606 26.9707 15.2002 27.2696 15.2002 27.75C15.2002 28.0516 15.1098 28.2749 14.9766 28.4414C14.8427 28.6087 14.6628 28.7219 14.4805 28.7979C14.2983 28.8737 14.1154 28.9115 13.9775 28.9307C13.9088 28.9402 13.8514 28.9449 13.8115 28.9473C13.7917 28.9484 13.7761 28.9499 13.7656 28.9502H13.75V29.0498C14.2746 29.0498 14.7002 29.4753 14.7002 30C14.7002 30.5247 14.2746 30.9502 13.75 30.9502H10.75C9.24826 30.9502 7.26587 31.0486 5.28125 29.4609C4.04946 28.4755 3.67669 26.8711 3.98633 25.3848C4.29609 23.8984 5.28628 22.5411 6.76562 22.0479C6.99211 21.9724 7.17 21.7935 7.30957 21.5547C7.4492 21.3157 7.55357 21.0117 7.63086 20.6768C7.78546 20.0068 7.83541 19.2018 7.84375 18.5176C7.85361 17.7243 8.48049 17.0501 9.26855 17.0498Z" fill="url(#paint23_radial_68_3081)"/>
<path d="M9.26855 17.0498C10.044 17.0498 10.661 17.7014 10.6182 18.4756L10.5049 20.5186C10.4738 21.0784 10.9188 21.5496 11.4795 21.5498H16.5C17.1627 21.5498 17.7002 22.0873 17.7002 22.75C17.7002 23.4127 17.1627 23.9502 16.5 23.9502H14.5381L15.0439 24.2031C15.4457 24.404 15.7001 24.8145 15.7002 25.2637C15.7002 25.9187 15.1687 26.4502 14.5137 26.4502H13.8438L14.2383 26.5488H14.2402C14.2419 26.5493 14.2448 26.5498 14.248 26.5508C14.2548 26.5527 14.2646 26.5564 14.2773 26.5605C14.3035 26.5689 14.3414 26.5817 14.3867 26.6006C14.4777 26.6385 14.5989 26.6995 14.7197 26.79C14.9606 26.9707 15.2002 27.2696 15.2002 27.75C15.2002 28.0516 15.1098 28.2749 14.9766 28.4414C14.8427 28.6087 14.6628 28.7219 14.4805 28.7979C14.2983 28.8737 14.1154 28.9115 13.9775 28.9307C13.9088 28.9402 13.8514 28.9449 13.8115 28.9473C13.7917 28.9484 13.7761 28.9499 13.7656 28.9502H13.75V29.0498C14.2746 29.0498 14.7002 29.4753 14.7002 30C14.7002 30.5247 14.2746 30.9502 13.75 30.9502H10.75C9.24826 30.9502 7.26587 31.0486 5.28125 29.4609C4.04946 28.4755 3.67669 26.8711 3.98633 25.3848C4.29609 23.8984 5.28628 22.5411 6.76562 22.0479C6.99211 21.9724 7.17 21.7935 7.30957 21.5547C7.4492 21.3157 7.55357 21.0117 7.63086 20.6768C7.78546 20.0068 7.83541 19.2018 7.84375 18.5176C7.85361 17.7243 8.48049 17.0501 9.26855 17.0498Z" fill="url(#paint24_radial_68_3081)"/>
<path d="M9.26855 17.0498C10.044 17.0498 10.661 17.7014 10.6182 18.4756L10.5049 20.5186C10.4738 21.0784 10.9188 21.5496 11.4795 21.5498H16.5C17.1627 21.5498 17.7002 22.0873 17.7002 22.75C17.7002 23.4127 17.1627 23.9502 16.5 23.9502H14.5381L15.0439 24.2031C15.4457 24.404 15.7001 24.8145 15.7002 25.2637C15.7002 25.9187 15.1687 26.4502 14.5137 26.4502H13.8438L14.2383 26.5488H14.2402C14.2419 26.5493 14.2448 26.5498 14.248 26.5508C14.2548 26.5527 14.2646 26.5564 14.2773 26.5605C14.3035 26.5689 14.3414 26.5817 14.3867 26.6006C14.4777 26.6385 14.5989 26.6995 14.7197 26.79C14.9606 26.9707 15.2002 27.2696 15.2002 27.75C15.2002 28.0516 15.1098 28.2749 14.9766 28.4414C14.8427 28.6087 14.6628 28.7219 14.4805 28.7979C14.2983 28.8737 14.1154 28.9115 13.9775 28.9307C13.9088 28.9402 13.8514 28.9449 13.8115 28.9473C13.7917 28.9484 13.7761 28.9499 13.7656 28.9502H13.75V29.0498C14.2746 29.0498 14.7002 29.4753 14.7002 30C14.7002 30.5247 14.2746 30.9502 13.75 30.9502H10.75C9.24826 30.9502 7.26587 31.0486 5.28125 29.4609C4.04946 28.4755 3.67669 26.8711 3.98633 25.3848C4.29609 23.8984 5.28628 22.5411 6.76562 22.0479C6.99211 21.9724 7.17 21.7935 7.30957 21.5547C7.4492 21.3157 7.55357 21.0117 7.63086 20.6768C7.78546 20.0068 7.83541 19.2018 7.84375 18.5176C7.85361 17.7243 8.48049 17.0501 9.26855 17.0498Z" stroke="url(#paint25_linear_68_3081)" stroke-width="0.1" stroke-miterlimit="10"/>
<path d="M15.0667 24.1584L14.75 24H9.25V26.5H14.5139C15.1966 26.5 15.75 25.9466 15.75 25.2639C15.75 24.7957 15.4855 24.3677 15.0667 24.1584Z" fill="url(#paint26_radial_68_3081)"/>
<path d="M15.0667 24.1584L14.75 24H9.25V26.5H14.5139C15.1966 26.5 15.75 25.9466 15.75 25.2639C15.75 24.7957 15.4855 24.3677 15.0667 24.1584Z" fill="url(#paint27_radial_68_3081)"/>
<path d="M15.0667 24.1584L14.75 24H9.25V26.5H14.5139C15.1966 26.5 15.75 25.9466 15.75 25.2639C15.75 24.7957 15.4855 24.3677 15.0667 24.1584Z" fill="url(#paint28_linear_68_3081)"/>
<path d="M14.25 26.5H9.25V29H13.75C13.75 29 15.25 29 15.25 27.75C15.25 26.7536 14.25 26.5 14.25 26.5Z" fill="url(#paint29_radial_68_3081)"/>
<path d="M14.25 26.5H9.25V29H13.75C13.75 29 15.25 29 15.25 27.75C15.25 26.7536 14.25 26.5 14.25 26.5Z" fill="url(#paint30_radial_68_3081)"/>
<path d="M14.25 26.5H9.25V29H13.75C13.75 29 15.25 29 15.25 27.75C15.25 26.7536 14.25 26.5 14.25 26.5Z" fill="url(#paint31_linear_68_3081)"/>
<path d="M13.75 29H9.25V31H13.75C14.3023 31 14.75 30.5523 14.75 30C14.75 29.4477 14.3023 29 13.75 29Z" fill="url(#paint32_radial_68_3081)"/>
<path d="M13.75 29H9.25V31H13.75C14.3023 31 14.75 30.5523 14.75 30C14.75 29.4477 14.3023 29 13.75 29Z" fill="url(#paint33_linear_68_3081)"/>
<path d="M13.75 29H9.25V31H13.75C14.3023 31 14.75 30.5523 14.75 30C14.75 29.4477 14.3023 29 13.75 29Z" fill="url(#paint34_radial_68_3081)"/>
<path d="M16.5 21.5H8.75V24H16.5C17.1904 24 17.75 23.4404 17.75 22.75C17.75 22.0596 17.1904 21.5 16.5 21.5Z" fill="url(#paint35_linear_68_3081)"/>
<path d="M16.5 21.5H8.75V24H16.5C17.1904 24 17.75 23.4404 17.75 22.75C17.75 22.0596 17.1904 21.5 16.5 21.5Z" fill="url(#paint36_radial_68_3081)"/>
<path d="M16.5 21.5H8.75V24H16.5C17.1904 24 17.75 23.4404 17.75 22.75C17.75 22.0596 17.1904 21.5 16.5 21.5Z" fill="url(#paint37_radial_68_3081)"/>
<path d="M16.5 21.5H8.75V24H16.5C17.1904 24 17.75 23.4404 17.75 22.75C17.75 22.0596 17.1904 21.5 16.5 21.5Z" fill="url(#paint38_radial_68_3081)"/>
<path fill-rule="evenodd" clip-rule="evenodd" d="M7.89645 4.14645C8.29338 3.74951 9.38008 3 10.75 3C12.1199 3 13.2066 3.74951 13.6036 4.14645C13.7988 4.34171 13.7988 4.65829 13.6036 4.85355C13.4083 5.04882 13.0917 5.04882 12.8964 4.85355C12.6267 4.58382 11.7801 4 10.75 4C9.71992 4 8.87329 4.58382 8.60355 4.85355C8.40829 5.04882 8.09171 5.04882 7.89645 4.85355C7.70118 4.65829 7.70118 4.34171 7.89645 4.14645Z" fill="url(#paint39_radial_68_3081)"/>
<path fill-rule="evenodd" clip-rule="evenodd" d="M7.89645 4.14645C8.29338 3.74951 9.38008 3 10.75 3C12.1199 3 13.2066 3.74951 13.6036 4.14645C13.7988 4.34171 13.7988 4.65829 13.6036 4.85355C13.4083 5.04882 13.0917 5.04882 12.8964 4.85355C12.6267 4.58382 11.7801 4 10.75 4C9.71992 4 8.87329 4.58382 8.60355 4.85355C8.40829 5.04882 8.09171 5.04882 7.89645 4.85355C7.70118 4.65829 7.70118 4.34171 7.89645 4.14645Z" fill="url(#paint40_radial_68_3081)"/>
<path fill-rule="evenodd" clip-rule="evenodd" d="M18.8964 8.14645C18.7012 8.34172 18.7012 8.65829 18.8964 8.85355C19.0909 9.04798 19.4056 9.04881 19.601 8.85606L19.6037 8.85354C19.6075 8.85 19.6149 8.84311 19.6261 8.83332C19.6485 8.81373 19.6856 8.78264 19.7375 8.74375C19.8413 8.66592 20.0034 8.55734 20.2236 8.44721C20.6625 8.22779 21.3364 8 22.25 8C23.1636 8 23.8375 8.22779 24.2764 8.44721C24.4966 8.55734 24.6587 8.66592 24.7625 8.74375C24.8143 8.78264 24.8515 8.81373 24.8739 8.83332C24.8851 8.84311 24.8925 8.85 24.8963 8.85354L24.899 8.85606C25.0944 9.04881 25.4091 9.04798 25.6036 8.85355C25.7988 8.65829 25.7988 8.34171 25.6036 8.14645L25.6028 8.14571L25.602 8.14488L25.6 8.14295L25.595 8.13801L25.5802 8.124C25.5684 8.11289 25.5524 8.0983 25.5324 8.08074C25.4923 8.04564 25.4356 7.99861 25.3625 7.94375C25.2163 7.83408 25.0034 7.69266 24.7236 7.55279C24.1625 7.27221 23.3364 7 22.25 7C21.1636 7 20.3375 7.27221 19.7764 7.55279C19.4966 7.69266 19.2837 7.83408 19.1375 7.94375C19.0643 7.99861 19.0077 8.04564 18.9676 8.08074C18.9476 8.0983 18.9316 8.11289 18.9197 8.124L18.905 8.13801L18.9 8.14295L18.898 8.14488L18.8972 8.14571L18.8964 8.14645Z" fill="url(#paint41_radial_68_3081)"/>
<path fill-rule="evenodd" clip-rule="evenodd" d="M18.8964 8.14645C18.7012 8.34172 18.7012 8.65829 18.8964 8.85355C19.0909 9.04798 19.4056 9.04881 19.601 8.85606L19.6037 8.85354C19.6075 8.85 19.6149 8.84311 19.6261 8.83332C19.6485 8.81373 19.6856 8.78264 19.7375 8.74375C19.8413 8.66592 20.0034 8.55734 20.2236 8.44721C20.6625 8.22779 21.3364 8 22.25 8C23.1636 8 23.8375 8.22779 24.2764 8.44721C24.4966 8.55734 24.6587 8.66592 24.7625 8.74375C24.8143 8.78264 24.8515 8.81373 24.8739 8.83332C24.8851 8.84311 24.8925 8.85 24.8963 8.85354L24.899 8.85606C25.0944 9.04881 25.4091 9.04798 25.6036 8.85355C25.7988 8.65829 25.7988 8.34171 25.6036 8.14645L25.6028 8.14571L25.602 8.14488L25.6 8.14295L25.595 8.13801L25.5802 8.124C25.5684 8.11289 25.5524 8.0983 25.5324 8.08074C25.4923 8.04564 25.4356 7.99861 25.3625 7.94375C25.2163 7.83408 25.0034 7.69266 24.7236 7.55279C24.1625 7.27221 23.3364 7 22.25 7C21.1636 7 20.3375 7.27221 19.7764 7.55279C19.4966 7.69266 19.2837 7.83408 19.1375 7.94375C19.0643 7.99861 19.0077 8.04564 18.9676 8.08074C18.9476 8.0983 18.9316 8.11289 18.9197 8.124L18.905 8.13801L18.9 8.14295L18.898 8.14488L18.8972 8.14571L18.8964 8.14645Z" fill="url(#paint42_radial_68_3081)"/>
<defs>
<radialGradient id="paint0_radial_68_3081" cx="0" cy="0" r="1" gradientUnits="userSpaceOnUse" gradientTransform="translate(26.25 9) rotate(131.878) scale(38.9487)">
<stop stop-color="#FFF478"/>
<stop offset="0.474827" stop-color="#FFB02E"/>
<stop offset="1" stop-color="#F70A8D"/>
</radialGradient>
<radialGradient id="paint1_radial_68_3081" cx="0" cy="0" r="1" gradientUnits="userSpaceOnUse" gradientTransform="translate(16.75 12.5) rotate(101.31) scale(17.8466 22.8581)">
<stop offset="0.787821" stop-color="#F59639" stop-opacity="0"/>
<stop offset="0.972509" stop-color="#FF7DCE"/>
</radialGradient>
<radialGradient id="paint2_radial_68_3081" cx="0" cy="0" r="1" gradientUnits="userSpaceOnUse" gradientTransform="translate(18.75 14) rotate(135) scale(41.0122)">
<stop offset="0.314853" stop-opacity="0"/>
<stop offset="1"/>
</radialGradient>
<radialGradient id="paint3_radial_68_3081" cx="0" cy="0" r="1" gradientUnits="userSpaceOnUse" gradientTransform="translate(16.75 17) rotate(77.692) scale(28.1469)">
<stop offset="0.507903" stop-color="#7D6133" stop-opacity="0"/>
<stop offset="1" stop-color="#715B32"/>
</radialGradient>
<radialGradient id="paint4_radial_68_3081" cx="0" cy="0" r="1" gradientUnits="userSpaceOnUse" gradientTransform="translate(17.25 16.5) rotate(55.7131) scale(13.3135 9.65032)">
<stop stop-color="#FFB849"/>
<stop offset="1" stop-color="#FFB847" stop-opacity="0"/>
</radialGradient>
<radialGradient id="paint5_radial_68_3081" cx="0" cy="0" r="1" gradientUnits="userSpaceOnUse" gradientTransform="translate(21.25 18) rotate(9.86581) scale(11.6726)">
<stop stop-color="#FFA64B"/>
<stop offset="0.900412" stop-color="#FFAE46" stop-opacity="0"/>
</radialGradient>
<radialGradient id="paint6_radial_68_3081" cx="0" cy="0" r="1" gradientUnits="userSpaceOnUse" gradientTransform="translate(18.25 15) rotate(43.9708) scale(59.0529)">
<stop offset="0.185425" stop-opacity="0"/>
<stop offset="1" stop-opacity="0.4"/>
</radialGradient>
<radialGradient id="paint7_radial_68_3081" cx="0" cy="0" r="1" gradientUnits="userSpaceOnUse" gradientTransform="translate(15.0245 28.0955) rotate(21.6444) scale(10.593)">
<stop stop-color="#F47360"/>
<stop offset="1" stop-color="#F47360" stop-opacity="0"/>
</radialGradient>
<radialGradient id="paint8_radial_68_3081" cx="0" cy="0" r="1" gradientUnits="userSpaceOnUse" gradientTransform="translate(10.5837 12.9539) rotate(111.744) scale(5.0686)">
<stop offset="0.220588" stop-color="#392108"/>
<stop offset="1" stop-color="#C87928" stop-opacity="0"/>
</radialGradient>
<radialGradient id="paint9_radial_68_3081" cx="0" cy="0" r="1" gradientUnits="userSpaceOnUse" gradientTransform="translate(21.4492 12.9272) rotate(114.702) scale(4.71403)">
<stop offset="0.301089" stop-color="#392108"/>
<stop offset="1" stop-color="#E87F14" stop-opacity="0"/>
</radialGradient>
<radialGradient id="paint10_radial_68_3081" cx="0" cy="0" r="1" gradientUnits="userSpaceOnUse" gradientTransform="translate(10.0363 8.61715) rotate(43.6594) scale(4.08376 5.17219)">
<stop stop-color="#D59A13"/>
<stop offset="1" stop-color="#D59A13" stop-opacity="0"/>
</radialGradient>
<radialGradient id="paint11_radial_68_3081" cx="0" cy="0" r="1" gradientUnits="userSpaceOnUse" gradientTransform="translate(10.1665 23.411) rotate(88.698) scale(4.89223 9.47732)">
<stop stop-color="#B06223"/>
<stop offset="1" stop-color="#C67C10" stop-opacity="0"/>
</radialGradient>
<radialGradient id="paint12_radial_68_3081" cx="0" cy="0" r="1" gradientUnits="userSpaceOnUse" gradientTransform="translate(8.27177 20.6122) rotate(92.4408) scale(4.8918 3.92799)">
<stop stop-color="#B06223"/>
<stop offset="1" stop-color="#C67C10" stop-opacity="0"/>
</radialGradient>
<radialGradient id="paint13_radial_68_3081" cx="0" cy="0" r="1" gradientUnits="userSpaceOnUse" gradientTransform="translate(9.13431 18.5109) rotate(144.605) scale(2.51765 3.05683)">
<stop stop-color="#D78E2C"/>
<stop offset="1" stop-color="#D78E2C" stop-opacity="0"/>
</radialGradient>
<radialGradient id="paint14_radial_68_3081" cx="0" cy="0" r="1" gradientUnits="userSpaceOnUse" gradientTransform="translate(16.7501 20.5512) rotate(90) scale(8.8159 12.1147)">
<stop offset="0.205066" stop-color="#482641"/>
<stop offset="0.298574" stop-color="#503A4A"/>
<stop offset="0.408068" stop-color="#483637"/>
</radialGradient>
<radialGradient id="paint15_radial_68_3081" cx="0" cy="0" r="1" gradientUnits="userSpaceOnUse" gradientTransform="translate(17.1378 17.1908) rotate(95.8118) scale(3.82898 6.02983)">
<stop offset="0.588241" stop-color="#4F302E" stop-opacity="0"/>
<stop offset="1" stop-color="#4F302E"/>
</radialGradient>
<radialGradient id="paint16_radial_68_3081" cx="0" cy="0" r="1" gradientUnits="userSpaceOnUse" gradientTransform="translate(20.0831 19.7572) rotate(63.4349) scale(1.81014 0.876913)">
<stop stop-color="#5B4A50"/>
<stop offset="1" stop-color="#5B4A50" stop-opacity="0"/>
</radialGradient>
<linearGradient id="paint17_linear_68_3081" x1="17.1324" y1="8.5" x2="16.6243" y2="13.2071" gradientUnits="userSpaceOnUse">
<stop stop-color="#553B3E"/>
<stop offset="1" stop-color="#3D2432"/>
</linearGradient>
<radialGradient id="paint18_radial_68_3081" cx="0" cy="0" r="1" gradientUnits="userSpaceOnUse" gradientTransform="translate(14.2874 21.2686) rotate(108.591) scale(20.1516 21.032)">
<stop offset="0.104167" stop-color="#FFCC42"/>
<stop offset="0.537866" stop-color="#FFB02E"/>
<stop offset="1" stop-color="#F70A8D"/>
</radialGradient>
<radialGradient id="paint19_radial_68_3081" cx="0" cy="0" r="1" gradientUnits="userSpaceOnUse" gradientTransform="translate(11.3725 22.6497) rotate(96.4582) scale(9.32199 9.6694)">
<stop offset="0.65203" stop-color="#FFB745" stop-opacity="0"/>
<stop offset="0.892907" stop-color="#F69044"/>
<stop offset="1" stop-color="#DE6A63"/>
</radialGradient>
<radialGradient id="paint20_radial_68_3081" cx="0" cy="0" r="1" gradientUnits="userSpaceOnUse" gradientTransform="translate(10.0946 18.1683) rotate(90) scale(1.44833)">
<stop stop-color="#FFE646"/>
<stop offset="1" stop-color="#FFE646" stop-opacity="0"/>
</radialGradient>
<radialGradient id="paint21_radial_68_3081" cx="0" cy="0" r="1" gradientUnits="userSpaceOnUse" gradientTransform="translate(10.4247 20.1716) rotate(79.0116) scale(2.79608 1.65249)">
<stop stop-color="#FFE646"/>
<stop offset="1" stop-color="#FFE646" stop-opacity="0"/>
</radialGradient>
<radialGradient id="paint22_radial_68_3081" cx="0" cy="0" r="1" gradientUnits="userSpaceOnUse" gradientTransform="translate(11.1869 18.1641) rotate(62.0434) scale(2.24555 0.773895)">
<stop stop-color="#F6AB23"/>
<stop offset="1" stop-color="#F6AB23" stop-opacity="0"/>
</radialGradient>
<radialGradient id="paint23_radial_68_3081" cx="0" cy="0" r="1" gradientUnits="userSpaceOnUse" gradientTransform="translate(11.2749 19.1094) rotate(93.1302) scale(2.81835 0.971302)">
<stop stop-color="#F6AB23"/>
<stop offset="1" stop-color="#F6AB23" stop-opacity="0"/>
</radialGradient>
<radialGradient id="paint24_radial_68_3081" cx="0" cy="0" r="1" gradientUnits="userSpaceOnUse" gradientTransform="translate(12.6802 26.3335) rotate(89.1311) scale(4.66823 4.64012)">
<stop stop-color="#FFD24A"/>
<stop offset="1" stop-color="#FFD24A" stop-opacity="0"/>
</radialGradient>
<linearGradient id="paint25_linear_68_3081" x1="4.64066" y1="31.5086" x2="11.2864" y2="23.7617" gradientUnits="userSpaceOnUse">
<stop stop-color="#AD583D"/>
<stop offset="1" stop-color="#CE6D4E" stop-opacity="0"/>
</linearGradient>
<radialGradient id="paint26_radial_68_3081" cx="0" cy="0" r="1" gradientUnits="userSpaceOnUse" gradientTransform="translate(12.5 24.7001) rotate(2.62159) scale(2.89492 1.10719)">
<stop stop-color="#FFD339"/>
<stop offset="0.708333" stop-color="#FFC438" stop-opacity="0.291667"/>
<stop offset="1" stop-color="#FFBE38" stop-opacity="0"/>
</radialGradient>
<radialGradient id="paint27_radial_68_3081" cx="0" cy="0" r="1" gradientUnits="userSpaceOnUse" gradientTransform="translate(14.3159 24) rotate(2.96689) scale(3.77343 1.26776)">
<stop stop-color="#A03B04"/>
<stop offset="1" stop-color="#FA9428" stop-opacity="0"/>
</radialGradient>
<linearGradient id="paint28_linear_68_3081" x1="12.5" y1="26.8754" x2="12.2734" y2="25.8899" gradientUnits="userSpaceOnUse">
<stop stop-color="#FF9F3A"/>
<stop offset="0.879558" stop-color="#FF9F3A" stop-opacity="0"/>
</linearGradient>
<radialGradient id="paint29_radial_68_3081" cx="0" cy="0" r="1" gradientUnits="userSpaceOnUse" gradientTransform="translate(12.2271 27.1681) rotate(-0.0381116) scale(3.16477 1.33186)">
<stop stop-color="#FFD339"/>
<stop offset="1" stop-color="#FFBE38" stop-opacity="0"/>
</radialGradient>
<radialGradient id="paint30_radial_68_3081" cx="0" cy="0" r="1" gradientUnits="userSpaceOnUse" gradientTransform="translate(13.6661 26.353) rotate(2.66449) scale(3.1618 0.850636)">
<stop stop-color="#A03B04"/>
<stop offset="1" stop-color="#FA9428" stop-opacity="0"/>
</radialGradient>
<linearGradient id="paint31_linear_68_3081" x1="12.4283" y1="29.2516" x2="12.1678" y2="28.2482" gradientUnits="userSpaceOnUse">
<stop stop-color="#FF9F3A"/>
<stop offset="0.879558" stop-color="#FF9F3A" stop-opacity="0"/>
</linearGradient>
<radialGradient id="paint32_radial_68_3081" cx="0" cy="0" r="1" gradientUnits="userSpaceOnUse" gradientTransform="translate(13.4044 28.7776) rotate(4.63476) scale(2.75265 1.03464)">
<stop stop-color="#A03B04"/>
<stop offset="1" stop-color="#FA9428" stop-opacity="0"/>
</radialGradient>
<linearGradient id="paint33_linear_68_3081" x1="12.3619" y1="32.7446" x2="11.997" y2="31.4971" gradientUnits="userSpaceOnUse">
<stop stop-color="#FF9F3A"/>
<stop offset="0.879558" stop-color="#FF9F3A" stop-opacity="0"/>
</linearGradient>
<radialGradient id="paint34_radial_68_3081" cx="0" cy="0" r="1" gradientUnits="userSpaceOnUse" gradientTransform="translate(12.1958 29.7165) scale(2.5542 0.957282)">
<stop stop-color="#FFD339"/>
<stop offset="1" stop-color="#FFBE38" stop-opacity="0"/>
</radialGradient>
<linearGradient id="paint35_linear_68_3081" x1="13.073" y1="24.2764" x2="12.9027" y2="23.2738" gradientUnits="userSpaceOnUse">
<stop stop-color="#FF9F3A"/>
<stop offset="0.879558" stop-color="#FF9F3A" stop-opacity="0"/>
</linearGradient>
<radialGradient id="paint36_radial_68_3081" cx="0" cy="0" r="1" gradientUnits="userSpaceOnUse" gradientTransform="translate(14.4094 21.2238) rotate(88.6361) scale(0.843965 3.24731)">
<stop stop-color="#FF9F3A"/>
<stop offset="0.879558" stop-color="#FF9F3A" stop-opacity="0"/>
</radialGradient>
<radialGradient id="paint37_radial_68_3081" cx="0" cy="0" r="1" gradientUnits="userSpaceOnUse" gradientTransform="translate(17.0723 22.5479) rotate(90) scale(1.45212 1.06948)">
<stop stop-color="#FFE646"/>
<stop offset="1" stop-color="#FFE646" stop-opacity="0"/>
</radialGradient>
<radialGradient id="paint38_radial_68_3081" cx="0" cy="0" r="1" gradientUnits="userSpaceOnUse" gradientTransform="translate(13.5181 22.4431) rotate(0.227362) scale(3.52873 0.868332)">
<stop stop-color="#FFE646"/>
<stop offset="1" stop-color="#FFE646" stop-opacity="0"/>
</radialGradient>
<radialGradient id="paint39_radial_68_3081" cx="0" cy="0" r="1" gradientUnits="userSpaceOnUse" gradientTransform="translate(12.3778 4.90776) rotate(-149.007) scale(2.72073 3.22241)">
<stop offset="0.552138" stop-color="#4A2F37"/>
<stop offset="0.822285" stop-color="#51394C"/>
<stop offset="0.881253" stop-color="#50394C"/>
<stop offset="1" stop-color="#4D3635"/>
</radialGradient>
<radialGradient id="paint40_radial_68_3081" cx="0" cy="0" r="1" gradientUnits="userSpaceOnUse" gradientTransform="translate(13.4532 3.31186) rotate(-178.4) scale(0.495845 0.389993)">
<stop stop-color="#5A4950"/>
<stop offset="1" stop-color="#5D4C4F" stop-opacity="0"/>
</radialGradient>
<radialGradient id="paint41_radial_68_3081" cx="0" cy="0" r="1" gradientUnits="userSpaceOnUse" gradientTransform="translate(22.25 9.55451) scale(4.39857 2.61692)">
<stop offset="0.641397" stop-color="#2F1F2A"/>
<stop offset="0.822285" stop-color="#51394C"/>
<stop offset="0.881253" stop-color="#50394C"/>
<stop offset="1" stop-color="#442E3E"/>
</radialGradient>
<radialGradient id="paint42_radial_68_3081" cx="0" cy="0" r="1" gradientUnits="userSpaceOnUse" gradientTransform="translate(22.25 8) scale(3.69608 3.36735)">
<stop offset="0.645531" stop-color="#362530" stop-opacity="0"/>
<stop offset="1" stop-color="#342330"/>
</radialGradient>
</defs>
</svg>
