<svg width="33" height="32" viewBox="0 0 33 32" fill="none" xmlns="http://www.w3.org/2000/svg">
<g clip-path="url(#clip0_68_3079)">
<path d="M16.7489 29.9978C26.0833 29.9978 30.7478 23.7303 30.7478 15.9989C30.7478 8.26751 26.0833 2 16.7489 2C7.41443 2 2.75 8.26751 2.75 15.9989C2.75 23.7303 7.41443 29.9978 16.7489 29.9978Z" fill="url(#paint0_radial_68_3079)"/>
<path d="M16.7489 29.9978C26.0833 29.9978 30.7478 23.7303 30.7478 15.9989C30.7478 8.26751 26.0833 2 16.7489 2C7.41443 2 2.75 8.26751 2.75 15.9989C2.75 23.7303 7.41443 29.9978 16.7489 29.9978Z" fill="url(#paint1_radial_68_3079)"/>
<path d="M16.7489 29.9978C26.0833 29.9978 30.7478 23.7303 30.7478 15.9989C30.7478 8.26751 26.0833 2 16.7489 2C7.41443 2 2.75 8.26751 2.75 15.9989C2.75 23.7303 7.41443 29.9978 16.7489 29.9978Z" fill="url(#paint2_radial_68_3079)" fill-opacity="0.6"/>
<path d="M16.7489 29.9978C26.0833 29.9978 30.7478 23.7303 30.7478 15.9989C30.7478 8.26751 26.0833 2 16.7489 2C7.41443 2 2.75 8.26751 2.75 15.9989C2.75 23.7303 7.41443 29.9978 16.7489 29.9978Z" fill="url(#paint3_radial_68_3079)"/>
<path d="M16.7489 29.9978C26.0833 29.9978 30.7478 23.7303 30.7478 15.9989C30.7478 8.26751 26.0833 2 16.7489 2C7.41443 2 2.75 8.26751 2.75 15.9989C2.75 23.7303 7.41443 29.9978 16.7489 29.9978Z" fill="url(#paint4_radial_68_3079)"/>
<path d="M16.7489 29.9978C26.0833 29.9978 30.7478 23.7303 30.7478 15.9989C30.7478 8.26751 26.0833 2 16.7489 2C7.41443 2 2.75 8.26751 2.75 15.9989C2.75 23.7303 7.41443 29.9978 16.7489 29.9978Z" fill="url(#paint5_radial_68_3079)"/>
<path d="M16.7489 29.9978C26.0833 29.9978 30.7478 23.7303 30.7478 15.9989C30.7478 8.26751 26.0833 2 16.7489 2C7.41443 2 2.75 8.26751 2.75 15.9989C2.75 23.7303 7.41443 29.9978 16.7489 29.9978Z" fill="url(#paint6_radial_68_3079)"/>
<path fill-rule="evenodd" clip-rule="evenodd" d="M11.8438 14.1562C12.9401 14.1562 13.2923 14.8535 13.342 15.0536C13.4752 15.5896 14.0176 15.9162 14.5536 15.783C15.0896 15.6498 15.4162 15.1074 15.283 14.5714C15.0584 13.6673 14.0391 12.1562 11.8438 12.1562C9.64839 12.1562 8.62911 13.6673 8.40451 14.5714C8.27135 15.1074 8.59792 15.6498 9.13391 15.783C9.6699 15.9162 10.2124 15.5896 10.3455 15.0536C10.3952 14.8535 10.7475 14.1562 11.8438 14.1562Z" fill="url(#paint7_radial_68_3079)"/>
<path d="M19.5562 17.1706C20.4462 16.8406 21.4062 16.6406 22.4162 16.6406C23.4262 16.6406 24.3863 16.8306 25.2663 17.1706C26.1163 16.3906 26.6562 15.2906 26.6562 14.0406C26.6562 11.6906 24.7562 9.79065 22.4062 9.79065C20.0563 9.79065 18.1562 11.6906 18.1562 14.0406C18.1662 15.2906 18.7062 16.4006 19.5562 17.1706Z" fill="white"/>
<path d="M21.9587 16C23.0633 16 23.9587 15.1046 23.9587 14C23.9587 12.8954 23.0633 12 21.9587 12C20.8542 12 19.9587 12.8954 19.9587 14C19.9587 15.1046 20.8542 16 21.9587 16Z" fill="url(#paint8_linear_68_3079)"/>
<path fill-rule="evenodd" clip-rule="evenodd" d="M11.75 8.5C11.75 8.22386 11.5261 8 11.25 8C10.4757 8 9.5075 8.2843 8.6654 8.83052C7.8171 9.38077 7.05302 10.2264 6.76493 11.3787C6.69795 11.6466 6.86083 11.9181 7.12873 11.9851C7.39663 12.052 7.6681 11.8892 7.73507 11.6213C7.94698 10.7736 8.51623 10.1192 9.2096 9.66948C9.90917 9.2157 10.6909 9 11.25 9C11.5261 9 11.75 8.77614 11.75 8.5Z" fill="url(#paint9_linear_68_3079)"/>
<path fill-rule="evenodd" clip-rule="evenodd" d="M24.6807 7.98761C25.2736 8.55049 25.6322 9.22774 25.7756 9.65811C25.863 9.92009 26.1461 10.0617 26.4081 9.97434C26.6701 9.88702 26.8117 9.60386 26.7243 9.34189C26.5345 8.77226 26.093 7.94951 25.3692 7.26239C24.637 6.5672 23.6021 6 22.25 6C21.9738 6 21.75 6.22386 21.75 6.5C21.75 6.77614 21.9738 7 22.25 7C23.2979 7 24.0963 7.4328 24.6807 7.98761Z" fill="url(#paint10_linear_68_3079)"/>
<path d="M16.7488 26C9.74878 26 9.74878 19 9.74878 19H23.7488C23.7488 19 23.7488 26 16.7488 26Z" fill="url(#paint11_radial_68_3079)"/>
<path d="M16.7655 29C20.9655 29 21.6355 24.8 21.7655 23.75C21.8655 22.9 21.4155 22.47 20.9255 22.18C20.4355 21.89 18.9655 21.62 16.7655 21.62C14.5655 21.62 13.1055 21.89 12.6055 22.18C12.1055 22.47 11.6555 22.9 11.7655 23.75C11.8955 24.8 12.5655 29 16.7655 29Z" fill="url(#paint12_radial_68_3079)"/>
<g opacity="0.5" filter="url(#filter0_f_68_3079)">
<path d="M18.75 26.5C19.75 26 20.75 25 20.75 23.5" stroke="white"/>
</g>
<path d="M23.6088 20.43C23.6988 19.97 23.7488 19.49 23.7488 19C19.0888 19 12.5888 19 9.74878 19C9.74878 19.49 9.79878 19.96 9.88878 20.43H23.6088Z" fill="url(#paint13_linear_68_3079)"/>
</g>
<defs>
<filter id="filter0_f_68_3079" x="17.5264" y="22.5" width="4.72363" height="5.44727" filterUnits="userSpaceOnUse" color-interpolation-filters="sRGB">
<feFlood flood-opacity="0" result="BackgroundImageFix"/>
<feBlend mode="normal" in="SourceGraphic" in2="BackgroundImageFix" result="shape"/>
<feGaussianBlur stdDeviation="0.5" result="effect1_foregroundBlur_68_3079"/>
</filter>
<radialGradient id="paint0_radial_68_3079" cx="0" cy="0" r="1" gradientUnits="userSpaceOnUse" gradientTransform="translate(26.25 9) rotate(131.878) scale(38.9487)">
<stop stop-color="#FFF478"/>
<stop offset="0.474827" stop-color="#FFB02E"/>
<stop offset="1" stop-color="#F70A8D"/>
</radialGradient>
<radialGradient id="paint1_radial_68_3079" cx="0" cy="0" r="1" gradientUnits="userSpaceOnUse" gradientTransform="translate(16.75 12.5) rotate(101.31) scale(17.8466 22.8581)">
<stop offset="0.787821" stop-color="#F59639" stop-opacity="0"/>
<stop offset="0.972509" stop-color="#FF7DCE"/>
</radialGradient>
<radialGradient id="paint2_radial_68_3079" cx="0" cy="0" r="1" gradientUnits="userSpaceOnUse" gradientTransform="translate(18.75 14) rotate(135) scale(41.0122)">
<stop offset="0.314853" stop-opacity="0"/>
<stop offset="1"/>
</radialGradient>
<radialGradient id="paint3_radial_68_3079" cx="0" cy="0" r="1" gradientUnits="userSpaceOnUse" gradientTransform="translate(16.75 17) rotate(77.692) scale(28.1469)">
<stop offset="0.507903" stop-color="#7D6133" stop-opacity="0"/>
<stop offset="1" stop-color="#715B32"/>
</radialGradient>
<radialGradient id="paint4_radial_68_3079" cx="0" cy="0" r="1" gradientUnits="userSpaceOnUse" gradientTransform="translate(17.25 16.5) rotate(55.7131) scale(13.3135 9.65032)">
<stop stop-color="#FFB849"/>
<stop offset="1" stop-color="#FFB847" stop-opacity="0"/>
</radialGradient>
<radialGradient id="paint5_radial_68_3079" cx="0" cy="0" r="1" gradientUnits="userSpaceOnUse" gradientTransform="translate(21.25 18) rotate(9.86581) scale(11.6726)">
<stop stop-color="#FFA64B"/>
<stop offset="0.900412" stop-color="#FFAE46" stop-opacity="0"/>
</radialGradient>
<radialGradient id="paint6_radial_68_3079" cx="0" cy="0" r="1" gradientUnits="userSpaceOnUse" gradientTransform="translate(18.25 15) rotate(43.9708) scale(59.0529)">
<stop offset="0.185425" stop-opacity="0"/>
<stop offset="1" stop-opacity="0.4"/>
</radialGradient>
<radialGradient id="paint7_radial_68_3079" cx="0" cy="0" r="1" gradientUnits="userSpaceOnUse" gradientTransform="translate(11.8438 14.8125) rotate(90) scale(3.3125 4.82169)">
<stop offset="0.337213" stop-color="#4D274B"/>
<stop offset="0.628228" stop-color="#514047"/>
<stop offset="1" stop-color="#4E2553"/>
<stop offset="1" stop-color="#4A342F"/>
</radialGradient>
<linearGradient id="paint8_linear_68_3079" x1="23.4972" y1="12" x2="21.813" y2="15.2842" gradientUnits="userSpaceOnUse">
<stop stop-color="#553B3E"/>
<stop offset="1" stop-color="#3D2432"/>
</linearGradient>
<linearGradient id="paint9_linear_68_3079" x1="10.9167" y1="12.4" x2="10.9167" y2="10.6" gradientUnits="userSpaceOnUse">
<stop offset="0.0299084" stop-color="#524049"/>
<stop offset="1" stop-color="#4A2C42"/>
</linearGradient>
<linearGradient id="paint10_linear_68_3079" x1="25.9167" y1="10.4" x2="25.9167" y2="8.6" gradientUnits="userSpaceOnUse">
<stop offset="0.0299084" stop-color="#524049"/>
<stop offset="1" stop-color="#4A2C42"/>
</linearGradient>
<radialGradient id="paint11_radial_68_3079" cx="0" cy="0" r="1" gradientUnits="userSpaceOnUse" gradientTransform="translate(16.7488 27.5556) rotate(-90) scale(8.55556 17.1111)">
<stop stop-color="#F70A8D"/>
<stop offset="1" stop-color="#89029C"/>
</radialGradient>
<radialGradient id="paint12_radial_68_3079" cx="0" cy="0" r="1" gradientUnits="userSpaceOnUse" gradientTransform="translate(17.25 30) rotate(-93.0128) scale(9.51315 16.5379)">
<stop stop-color="#FF1C4A"/>
<stop offset="0.765733" stop-color="#FF2B8F"/>
<stop offset="0.864496" stop-color="#BB0773"/>
<stop offset="0.886239" stop-color="#9F0762"/>
</radialGradient>
<linearGradient id="paint13_linear_68_3079" x1="16.7488" y1="19" x2="16.7488" y2="20.43" gradientUnits="userSpaceOnUse">
<stop stop-color="#ECCDFF"/>
<stop offset="1" stop-color="white"/>
</linearGradient>
<clipPath id="clip0_68_3079">
<rect width="32" height="32" fill="white" transform="translate(0.75)"/>
</clipPath>
</defs>
</svg>
