<svg width="33" height="32" viewBox="0 0 33 32" fill="none" xmlns="http://www.w3.org/2000/svg">
<path d="M16.4989 29.9978C25.8333 29.9978 30.4978 23.7303 30.4978 15.9989C30.4978 8.26751 25.8333 2 16.4989 2C7.16443 2 2.5 8.26751 2.5 15.9989C2.5 23.7303 7.16443 29.9978 16.4989 29.9978Z" fill="url(#paint0_radial_68_3415)"/>
<path d="M16.4989 29.9978C25.8333 29.9978 30.4978 23.7303 30.4978 15.9989C30.4978 8.26751 25.8333 2 16.4989 2C7.16443 2 2.5 8.26751 2.5 15.9989C2.5 23.7303 7.16443 29.9978 16.4989 29.9978Z" fill="url(#paint1_radial_68_3415)"/>
<path d="M16.4989 29.9978C25.8333 29.9978 30.4978 23.7303 30.4978 15.9989C30.4978 8.26751 25.8333 2 16.4989 2C7.16443 2 2.5 8.26751 2.5 15.9989C2.5 23.7303 7.16443 29.9978 16.4989 29.9978Z" fill="url(#paint2_radial_68_3415)" fill-opacity="0.6"/>
<path d="M16.4989 29.9978C25.8333 29.9978 30.4978 23.7303 30.4978 15.9989C30.4978 8.26751 25.8333 2 16.4989 2C7.16443 2 2.5 8.26751 2.5 15.9989C2.5 23.7303 7.16443 29.9978 16.4989 29.9978Z" fill="url(#paint3_radial_68_3415)" fill-opacity="0.67"/>
<path d="M16.4989 29.9978C25.8333 29.9978 30.4978 23.7303 30.4978 15.9989C30.4978 8.26751 25.8333 2 16.4989 2C7.16443 2 2.5 8.26751 2.5 15.9989C2.5 23.7303 7.16443 29.9978 16.4989 29.9978Z" fill="url(#paint4_radial_68_3415)" style="mix-blend-mode:multiply"/>
<path d="M16.4989 29.9978C25.8333 29.9978 30.4978 23.7303 30.4978 15.9989C30.4978 8.26751 25.8333 2 16.4989 2C7.16443 2 2.5 8.26751 2.5 15.9989C2.5 23.7303 7.16443 29.9978 16.4989 29.9978Z" fill="url(#paint5_radial_68_3415)" fill-opacity="0.45"/>
<path d="M16.4989 29.9978C25.8333 29.9978 30.4978 23.7303 30.4978 15.9989C30.4978 8.26751 25.8333 2 16.4989 2C7.16443 2 2.5 8.26751 2.5 15.9989C2.5 23.7303 7.16443 29.9978 16.4989 29.9978Z" fill="url(#paint6_radial_68_3415)" fill-opacity="0.45"/>
<path d="M16.4989 29.9978C25.8333 29.9978 30.4978 23.7303 30.4978 15.9989C30.4978 8.26751 25.8333 2 16.4989 2C7.16443 2 2.5 8.26751 2.5 15.9989C2.5 23.7303 7.16443 29.9978 16.4989 29.9978Z" fill="url(#paint7_radial_68_3415)" fill-opacity="0.45"/>
<path d="M16.4989 29.9978C25.8333 29.9978 30.4978 23.7303 30.4978 15.9989C30.4978 8.26751 25.8333 2 16.4989 2C7.16443 2 2.5 8.26751 2.5 15.9989C2.5 23.7303 7.16443 29.9978 16.4989 29.9978Z" fill="url(#paint8_radial_68_3415)" fill-opacity="0.45"/>
<path d="M16.4989 29.9978C25.8333 29.9978 30.4978 23.7303 30.4978 15.9989C30.4978 8.26751 25.8333 2 16.4989 2C7.16443 2 2.5 8.26751 2.5 15.9989C2.5 23.7303 7.16443 29.9978 16.4989 29.9978Z" fill="url(#paint9_radial_68_3415)" fill-opacity="0.45"/>
<path d="M16.4989 29.9978C25.8333 29.9978 30.4978 23.7303 30.4978 15.9989C30.4978 8.26751 25.8333 2 16.4989 2C7.16443 2 2.5 8.26751 2.5 15.9989C2.5 23.7303 7.16443 29.9978 16.4989 29.9978Z" fill="url(#paint10_radial_68_3415)" fill-opacity="0.45"/>
<path d="M16.4989 29.9978C25.8333 29.9978 30.4978 23.7303 30.4978 15.9989C30.4978 8.26751 25.8333 2 16.4989 2C7.16443 2 2.5 8.26751 2.5 15.9989C2.5 23.7303 7.16443 29.9978 16.4989 29.9978Z" fill="url(#paint11_radial_68_3415)" fill-opacity="0.45"/>
<path d="M16.4989 29.9978C25.8333 29.9978 30.4978 23.7303 30.4978 15.9989C30.4978 8.26751 25.8333 2 16.4989 2C7.16443 2 2.5 8.26751 2.5 15.9989C2.5 23.7303 7.16443 29.9978 16.4989 29.9978Z" fill="url(#paint12_radial_68_3415)" fill-opacity="0.45"/>
<path d="M16.4989 29.9978C25.8333 29.9978 30.4978 23.7303 30.4978 15.9989C30.4978 8.26751 25.8333 2 16.4989 2C7.16443 2 2.5 8.26751 2.5 15.9989C2.5 23.7303 7.16443 29.9978 16.4989 29.9978Z" fill="url(#paint13_radial_68_3415)" fill-opacity="0.45"/>
<path d="M16.4989 29.9978C25.8333 29.9978 30.4978 23.7303 30.4978 15.9989C30.4978 8.26751 25.8333 2 16.4989 2C7.16443 2 2.5 8.26751 2.5 15.9989C2.5 23.7303 7.16443 29.9978 16.4989 29.9978Z" fill="url(#paint14_radial_68_3415)" fill-opacity="0.3"/>
<path d="M16.4989 29.9978C25.8333 29.9978 30.4978 23.7303 30.4978 15.9989C30.4978 8.26751 25.8333 2 16.4989 2C7.16443 2 2.5 8.26751 2.5 15.9989C2.5 23.7303 7.16443 29.9978 16.4989 29.9978Z" fill="url(#paint15_radial_68_3415)" fill-opacity="0.45"/>
<path d="M16.4989 29.9978C25.8333 29.9978 30.4978 23.7303 30.4978 15.9989C30.4978 8.26751 25.8333 2 16.4989 2C7.16443 2 2.5 8.26751 2.5 15.9989C2.5 23.7303 7.16443 29.9978 16.4989 29.9978Z" fill="url(#paint16_radial_68_3415)" fill-opacity="0.45"/>
<path d="M16.4989 29.9978C25.8333 29.9978 30.4978 23.7303 30.4978 15.9989C30.4978 8.26751 25.8333 2 16.4989 2C7.16443 2 2.5 8.26751 2.5 15.9989C2.5 23.7303 7.16443 29.9978 16.4989 29.9978Z" fill="url(#paint17_radial_68_3415)" fill-opacity="0.45"/>
<path d="M16.4989 29.9978C25.8333 29.9978 30.4978 23.7303 30.4978 15.9989C30.4978 8.26751 25.8333 2 16.4989 2C7.16443 2 2.5 8.26751 2.5 15.9989C2.5 23.7303 7.16443 29.9978 16.4989 29.9978Z" fill="url(#paint18_radial_68_3415)" fill-opacity="0.35"/>
<path d="M16.4989 29.9978C25.8333 29.9978 30.4978 23.7303 30.4978 15.9989C30.4978 8.26751 25.8333 2 16.4989 2C7.16443 2 2.5 8.26751 2.5 15.9989C2.5 23.7303 7.16443 29.9978 16.4989 29.9978Z" fill="url(#paint19_radial_68_3415)" fill-opacity="0.35"/>
<path d="M3.50021 1.09997C4.7129 0.740272 6.00009 1.49998 6.50009 1.99998C6.99997 1.50001 8.66818 0.168183 10.25 1.75001C11.5248 3.02476 11.0002 4.99997 10.0002 6.49997C9.41141 7.38308 7.88383 8.7717 6.6531 9.70922C6.00894 10.1999 5.11341 10.0545 4.5674 9.45654C3.64284 8.44398 2.47268 7.14513 1.9001 5.99997C0.900103 3.99997 1.9003 1.57453 3.50021 1.09997Z" fill="url(#paint20_linear_68_3415)"/>
<path d="M3.50021 1.09997C4.7129 0.740272 6.00009 1.49998 6.50009 1.99998C6.99997 1.50001 8.66818 0.168183 10.25 1.75001C11.5248 3.02476 11.0002 4.99997 10.0002 6.49997C9.41141 7.38308 7.88383 8.7717 6.6531 9.70922C6.00894 10.1999 5.11341 10.0545 4.5674 9.45654C3.64284 8.44398 2.47268 7.14513 1.9001 5.99997C0.900103 3.99997 1.9003 1.57453 3.50021 1.09997Z" fill="url(#paint21_radial_68_3415)" fill-opacity="0.48"/>
<path d="M3.50021 1.09997C4.7129 0.740272 6.00009 1.49998 6.50009 1.99998C6.99997 1.50001 8.66818 0.168183 10.25 1.75001C11.5248 3.02476 11.0002 4.99997 10.0002 6.49997C9.41141 7.38308 7.88383 8.7717 6.6531 9.70922C6.00894 10.1999 5.11341 10.0545 4.5674 9.45654C3.64284 8.44398 2.47268 7.14513 1.9001 5.99997C0.900103 3.99997 1.9003 1.57453 3.50021 1.09997Z" fill="url(#paint22_radial_68_3415)"/>
<path d="M13.6241 11.9923C13.0803 12.0603 12.584 11.678 12.5094 11.1367C12.4754 10.9347 12.385 10.7341 12.2698 10.5665C12.0953 10.3127 11.7663 10 11.0001 10C10.2338 10 9.90486 10.3127 9.73035 10.5665C9.62898 10.714 9.56582 10.8672 9.52876 10.9858C9.52789 10.9886 9.49211 11.1258 9.4922 11.1251C9.4232 11.6725 8.92369 12.0607 8.37602 11.9923C7.81442 11.9221 7.427 11.3671 7.51636 10.8171C7.52082 10.7897 7.52707 10.7546 7.53564 10.7129C7.58646 10.4654 7.71732 9.9643 8.08227 9.43347C8.59526 8.6873 9.51633 8 11.0001 8C12.4838 8 13.4049 8.6873 13.9179 9.43347C14.3443 10.0537 14.4528 10.6269 14.4838 10.8171C14.5721 11.3611 14.1797 11.9228 13.6241 11.9923Z" fill="#583F51"/>
<path d="M13.6241 11.9923C13.0803 12.0603 12.584 11.678 12.5094 11.1367C12.4754 10.9347 12.385 10.7341 12.2698 10.5665C12.0953 10.3127 11.7663 10 11.0001 10C10.2338 10 9.90486 10.3127 9.73035 10.5665C9.62898 10.714 9.56582 10.8672 9.52876 10.9858C9.52789 10.9886 9.49211 11.1258 9.4922 11.1251C9.4232 11.6725 8.92369 12.0607 8.37602 11.9923C7.81442 11.9221 7.427 11.3671 7.51636 10.8171C7.52082 10.7897 7.52707 10.7546 7.53564 10.7129C7.58646 10.4654 7.71732 9.9643 8.08227 9.43347C8.59526 8.6873 9.51633 8 11.0001 8C12.4838 8 13.4049 8.6873 13.9179 9.43347C14.3443 10.0537 14.4528 10.6269 14.4838 10.8171C14.5721 11.3611 14.1797 11.9228 13.6241 11.9923Z" fill="url(#paint23_radial_68_3415)"/>
<path d="M13.6241 11.9923C13.0803 12.0603 12.584 11.678 12.5094 11.1367C12.4754 10.9347 12.385 10.7341 12.2698 10.5665C12.0953 10.3127 11.7663 10 11.0001 10C10.2338 10 9.90486 10.3127 9.73035 10.5665C9.62898 10.714 9.56582 10.8672 9.52876 10.9858C9.52789 10.9886 9.49211 11.1258 9.4922 11.1251C9.4232 11.6725 8.92369 12.0607 8.37602 11.9923C7.81442 11.9221 7.427 11.3671 7.51636 10.8171C7.52082 10.7897 7.52707 10.7546 7.53564 10.7129C7.58646 10.4654 7.71732 9.9643 8.08227 9.43347C8.59526 8.6873 9.51633 8 11.0001 8C12.4838 8 13.4049 8.6873 13.9179 9.43347C14.3443 10.0537 14.4528 10.6269 14.4838 10.8171C14.5721 11.3611 14.1797 11.9228 13.6241 11.9923Z" fill="url(#paint24_radial_68_3415)"/>
<path d="M13.6241 11.9923C13.0803 12.0603 12.584 11.678 12.5094 11.1367C12.4754 10.9347 12.385 10.7341 12.2698 10.5665C12.0953 10.3127 11.7663 10 11.0001 10C10.2338 10 9.90486 10.3127 9.73035 10.5665C9.62898 10.714 9.56582 10.8672 9.52876 10.9858C9.52789 10.9886 9.49211 11.1258 9.4922 11.1251C9.4232 11.6725 8.92369 12.0607 8.37602 11.9923C7.81442 11.9221 7.427 11.3671 7.51636 10.8171C7.52082 10.7897 7.52707 10.7546 7.53564 10.7129C7.58646 10.4654 7.71732 9.9643 8.08227 9.43347C8.59526 8.6873 9.51633 8 11.0001 8C12.4838 8 13.4049 8.6873 13.9179 9.43347C14.3443 10.0537 14.4528 10.6269 14.4838 10.8171C14.5721 11.3611 14.1797 11.9228 13.6241 11.9923Z" fill="url(#paint25_radial_68_3415)"/>
<path d="M20.4816 11.1909C20.5296 10.9436 20.6397 10.6405 20.849 10.4125C21.0283 10.2171 21.347 10 21.9999 10C22.6417 10 22.9685 10.2216 23.1572 10.4288C23.3753 10.6683 23.4804 10.9737 23.5147 11.1711C23.6092 11.7152 24.1269 12.0797 24.671 11.9853C25.2152 11.8908 25.5797 11.373 25.4852 10.8289C25.4062 10.374 25.1799 9.6794 24.6357 9.08196C24.062 8.45218 23.1955 8 21.9999 8C20.8156 8 19.9527 8.4313 19.3755 9.06013C18.8283 9.65637 18.607 10.3533 18.5183 10.8091C18.4129 11.3513 18.7669 11.8762 19.3091 11.9816C19.8512 12.087 20.3761 11.733 20.4816 11.1909Z" fill="#583F51"/>
<path d="M20.4816 11.1909C20.5296 10.9436 20.6397 10.6405 20.849 10.4125C21.0283 10.2171 21.347 10 21.9999 10C22.6417 10 22.9685 10.2216 23.1572 10.4288C23.3753 10.6683 23.4804 10.9737 23.5147 11.1711C23.6092 11.7152 24.1269 12.0797 24.671 11.9853C25.2152 11.8908 25.5797 11.373 25.4852 10.8289C25.4062 10.374 25.1799 9.6794 24.6357 9.08196C24.062 8.45218 23.1955 8 21.9999 8C20.8156 8 19.9527 8.4313 19.3755 9.06013C18.8283 9.65637 18.607 10.3533 18.5183 10.8091C18.4129 11.3513 18.7669 11.8762 19.3091 11.9816C19.8512 12.087 20.3761 11.733 20.4816 11.1909Z" fill="url(#paint26_radial_68_3415)"/>
<path d="M20.4816 11.1909C20.5296 10.9436 20.6397 10.6405 20.849 10.4125C21.0283 10.2171 21.347 10 21.9999 10C22.6417 10 22.9685 10.2216 23.1572 10.4288C23.3753 10.6683 23.4804 10.9737 23.5147 11.1711C23.6092 11.7152 24.1269 12.0797 24.671 11.9853C25.2152 11.8908 25.5797 11.373 25.4852 10.8289C25.4062 10.374 25.1799 9.6794 24.6357 9.08196C24.062 8.45218 23.1955 8 21.9999 8C20.8156 8 19.9527 8.4313 19.3755 9.06013C18.8283 9.65637 18.607 10.3533 18.5183 10.8091C18.4129 11.3513 18.7669 11.8762 19.3091 11.9816C19.8512 12.087 20.3761 11.733 20.4816 11.1909Z" fill="url(#paint27_radial_68_3415)"/>
<path d="M20.4816 11.1909C20.5296 10.9436 20.6397 10.6405 20.849 10.4125C21.0283 10.2171 21.347 10 21.9999 10C22.6417 10 22.9685 10.2216 23.1572 10.4288C23.3753 10.6683 23.4804 10.9737 23.5147 11.1711C23.6092 11.7152 24.1269 12.0797 24.671 11.9853C25.2152 11.8908 25.5797 11.373 25.4852 10.8289C25.4062 10.374 25.1799 9.6794 24.6357 9.08196C24.062 8.45218 23.1955 8 21.9999 8C20.8156 8 19.9527 8.4313 19.3755 9.06013C18.8283 9.65637 18.607 10.3533 18.5183 10.8091C18.4129 11.3513 18.7669 11.8762 19.3091 11.9816C19.8512 12.087 20.3761 11.733 20.4816 11.1909Z" fill="url(#paint28_radial_68_3415)"/>
<path d="M4.49991 28C3.38181 26.882 2.99988 25 3.99988 24C4.99987 23 6.99983 23.5 6.99983 23.5C6.99983 23.5 7.49991 22.25 8.99991 22.5C10.9999 22.75 11.2499 25 10.7499 26.5C10.3679 27.6462 9.44248 28.8686 8.77046 29.6561C8.33837 30.1624 7.60237 30.2351 7.05248 29.86C6.12792 29.2293 4.81565 28.3157 4.49991 28Z" fill="url(#paint29_linear_68_3415)"/>
<path d="M4.49991 28C3.38181 26.882 2.99988 25 3.99988 24C4.99987 23 6.99983 23.5 6.99983 23.5C6.99983 23.5 7.49991 22.25 8.99991 22.5C10.9999 22.75 11.2499 25 10.7499 26.5C10.3679 27.6462 9.44248 28.8686 8.77046 29.6561C8.33837 30.1624 7.60237 30.2351 7.05248 29.86C6.12792 29.2293 4.81565 28.3157 4.49991 28Z" fill="url(#paint30_radial_68_3415)"/>
<path d="M4.49991 28C3.38181 26.882 2.99988 25 3.99988 24C4.99987 23 6.99983 23.5 6.99983 23.5C6.99983 23.5 7.49991 22.25 8.99991 22.5C10.9999 22.75 11.2499 25 10.7499 26.5C10.3679 27.6462 9.44248 28.8686 8.77046 29.6561C8.33837 30.1624 7.60237 30.2351 7.05248 29.86C6.12792 29.2293 4.81565 28.3157 4.49991 28Z" fill="url(#paint31_radial_68_3415)" fill-opacity="0.51"/>
<path d="M23.5 17.1C25 16.6 26.6667 18 27 18.5C27.1667 18 27.9 17 29.5 17C31.5 17 32.0571 19.1073 31.5 20.5C30.7698 22.3255 28.44 24.6362 27.236 25.7502C26.8333 26.1228 26.2111 26.0769 25.8546 25.6599C24.8916 24.5336 23.1252 22.4378 22.5 21.5C21.5 20 21.6026 17.7325 23.5 17.1Z" fill="url(#paint32_linear_68_3415)"/>
<path d="M23.5 17.1C25 16.6 26.6667 18 27 18.5C27.1667 18 27.9 17 29.5 17C31.5 17 32.0571 19.1073 31.5 20.5C30.7698 22.3255 28.44 24.6362 27.236 25.7502C26.8333 26.1228 26.2111 26.0769 25.8546 25.6599C24.8916 24.5336 23.1252 22.4378 22.5 21.5C21.5 20 21.6026 17.7325 23.5 17.1Z" fill="url(#paint33_radial_68_3415)"/>
<path d="M23.5 17.1C25 16.6 26.6667 18 27 18.5C27.1667 18 27.9 17 29.5 17C31.5 17 32.0571 19.1073 31.5 20.5C30.7698 22.3255 28.44 24.6362 27.236 25.7502C26.8333 26.1228 26.2111 26.0769 25.8546 25.6599C24.8916 24.5336 23.1252 22.4378 22.5 21.5C21.5 20 21.6026 17.7325 23.5 17.1Z" fill="url(#paint34_radial_68_3415)" style="mix-blend-mode:screen"/>
<path d="M23.5 17.1C25 16.6 26.6667 18 27 18.5C27.1667 18 27.9 17 29.5 17C31.5 17 32.0571 19.1073 31.5 20.5C30.7698 22.3255 28.44 24.6362 27.236 25.7502C26.8333 26.1228 26.2111 26.0769 25.8546 25.6599C24.8916 24.5336 23.1252 22.4378 22.5 21.5C21.5 20 21.6026 17.7325 23.5 17.1Z" fill="url(#paint35_radial_68_3415)" style="mix-blend-mode:screen"/>
<path d="M23.5 17.1C25 16.6 26.6667 18 27 18.5C27.1667 18 27.9 17 29.5 17C31.5 17 32.0571 19.1073 31.5 20.5C30.7698 22.3255 28.44 24.6362 27.236 25.7502C26.8333 26.1228 26.2111 26.0769 25.8546 25.6599C24.8916 24.5336 23.1252 22.4378 22.5 21.5C21.5 20 21.6026 17.7325 23.5 17.1Z" fill="url(#paint36_radial_68_3415)" fill-opacity="0.5" style="mix-blend-mode:screen"/>
<path d="M23.5 17.1C25 16.6 26.6667 18 27 18.5C27.1667 18 27.9 17 29.5 17C31.5 17 32.0571 19.1073 31.5 20.5C30.7698 22.3255 28.44 24.6362 27.236 25.7502C26.8333 26.1228 26.2111 26.0769 25.8546 25.6599C24.8916 24.5336 23.1252 22.4378 22.5 21.5C21.5 20 21.6026 17.7325 23.5 17.1Z" fill="url(#paint37_radial_68_3415)" fill-opacity="0.4" style="mix-blend-mode:screen"/>
<path fill-rule="evenodd" clip-rule="evenodd" d="M12.5 15C13.0523 15 13.5 15.4477 13.5 16C13.5 16.5066 13.6602 17.2889 14.1115 17.9157C14.5261 18.4915 15.2259 19 16.5 19C17.7741 19 18.4739 18.4915 18.8885 17.9157C19.3398 17.2889 19.5 16.5066 19.5 16C19.5 15.4477 19.9477 15 20.5 15C21.0523 15 21.5 15.4477 21.5 16C21.5 16.8267 21.2602 18.0445 20.5115 19.0843C19.7261 20.1751 18.4259 21 16.5 21C14.5741 21 13.2739 20.1751 12.4885 19.0843C11.7398 18.0445 11.5 16.8267 11.5 16C11.5 15.4477 11.9477 15 12.5 15Z" fill="url(#paint38_radial_68_3415)"/>
<defs>
<radialGradient id="paint0_radial_68_3415" cx="0" cy="0" r="1" gradientUnits="userSpaceOnUse" gradientTransform="translate(26 9) rotate(132.839) scale(37.5033)">
<stop stop-color="#FFF478"/>
<stop offset="0.474827" stop-color="#FFB02E"/>
<stop offset="1" stop-color="#F70A8D"/>
</radialGradient>
<radialGradient id="paint1_radial_68_3415" cx="0" cy="0" r="1" gradientUnits="userSpaceOnUse" gradientTransform="translate(16.5 12.5) rotate(101.31) scale(17.8466 22.8581)">
<stop offset="0.787821" stop-color="#F59639" stop-opacity="0"/>
<stop offset="0.972509" stop-color="#FF7DCE"/>
</radialGradient>
<radialGradient id="paint2_radial_68_3415" cx="0" cy="0" r="1" gradientUnits="userSpaceOnUse" gradientTransform="translate(18.5 14) rotate(135) scale(41.0122)">
<stop offset="0.314853" stop-opacity="0"/>
<stop offset="1"/>
</radialGradient>
<radialGradient id="paint3_radial_68_3415" cx="0" cy="0" r="1" gradientUnits="userSpaceOnUse" gradientTransform="translate(25.1891 23.9568) rotate(139.121) scale(4.32052 14.0847)">
<stop stop-color="#E4694E"/>
<stop offset="0.559747" stop-color="#E4694E" stop-opacity="0"/>
</radialGradient>
<radialGradient id="paint4_radial_68_3415" cx="0" cy="0" r="1" gradientUnits="userSpaceOnUse" gradientTransform="translate(23.5405 21.1828) rotate(59.6707) scale(6.29978 3.1932)">
<stop stop-color="#E4694E"/>
<stop offset="0.512033" stop-color="#E4694E" stop-opacity="0.407125"/>
<stop offset="0.787356" stop-color="#E4694E" stop-opacity="0.15781"/>
<stop offset="1" stop-color="#E4694E" stop-opacity="0"/>
</radialGradient>
<radialGradient id="paint5_radial_68_3415" cx="0" cy="0" r="1" gradientUnits="userSpaceOnUse" gradientTransform="translate(24.0578 11.231) rotate(111.939) scale(20.2318)">
<stop stop-color="#9A4609"/>
<stop offset="0.0783513" stop-color="#9A4609" stop-opacity="0"/>
</radialGradient>
<radialGradient id="paint6_radial_68_3415" cx="0" cy="0" r="1" gradientUnits="userSpaceOnUse" gradientTransform="translate(23.6515 10.2818) rotate(34.0321) scale(1.73396 1.26055)">
<stop stop-color="#9A4609"/>
<stop offset="1" stop-color="#9A4609" stop-opacity="0"/>
</radialGradient>
<radialGradient id="paint7_radial_68_3415" cx="0" cy="0" r="1" gradientUnits="userSpaceOnUse" gradientTransform="translate(13.1642 11.0627) rotate(59.8227) scale(2.13655 1.96495)">
<stop stop-color="#9A4609"/>
<stop offset="0.603875" stop-color="#9A4609" stop-opacity="0.338014"/>
<stop offset="0.812249" stop-color="#9A4609" stop-opacity="0"/>
</radialGradient>
<radialGradient id="paint8_radial_68_3415" cx="0" cy="0" r="1" gradientUnits="userSpaceOnUse" gradientTransform="translate(8.11431 11.2925) rotate(14.7926) scale(6.33376 5.82508)">
<stop stop-color="#9A4609"/>
<stop offset="0.153015" stop-color="#9A4609" stop-opacity="0.338014"/>
<stop offset="0.278557" stop-color="#9A4609" stop-opacity="0"/>
</radialGradient>
<radialGradient id="paint9_radial_68_3415" cx="0" cy="0" r="1" gradientUnits="userSpaceOnUse" gradientTransform="translate(8.59345 10.4088) rotate(23.896) scale(6.1739 8.3635)">
<stop stop-color="#9A4609"/>
<stop offset="0.163944" stop-color="#9A4609" stop-opacity="0.338014"/>
<stop offset="0.284327" stop-color="#9A4609" stop-opacity="0"/>
</radialGradient>
<radialGradient id="paint10_radial_68_3415" cx="0" cy="0" r="1" gradientUnits="userSpaceOnUse" gradientTransform="translate(9.91616 9.45094) rotate(38.6691) scale(5.53555 7.49876)">
<stop stop-color="#9A4609"/>
<stop offset="0.163944" stop-color="#9A4609" stop-opacity="0.338014"/>
<stop offset="0.284327" stop-color="#9A4609" stop-opacity="0"/>
</radialGradient>
<radialGradient id="paint11_radial_68_3415" cx="0" cy="0" r="1" gradientUnits="userSpaceOnUse" gradientTransform="translate(11.3757 9.35972) rotate(51.1196) scale(4.56023 6.17754)">
<stop stop-color="#9A4609"/>
<stop offset="0.163944" stop-color="#9A4609" stop-opacity="0.338014"/>
<stop offset="0.284327" stop-color="#9A4609" stop-opacity="0"/>
</radialGradient>
<radialGradient id="paint12_radial_68_3415" cx="0" cy="0" r="1" gradientUnits="userSpaceOnUse" gradientTransform="translate(12.4019 9.79302) rotate(59.4951) scale(3.61734 4.90025)">
<stop stop-color="#9A4609"/>
<stop offset="0.163944" stop-color="#9A4609" stop-opacity="0.338014"/>
<stop offset="0.34084" stop-color="#9A4609" stop-opacity="0"/>
</radialGradient>
<radialGradient id="paint13_radial_68_3415" cx="0" cy="0" r="1" gradientUnits="userSpaceOnUse" gradientTransform="translate(22.6251 9.47936) rotate(106.624) scale(21.4134)">
<stop stop-color="#9A4609"/>
<stop offset="0.064017" stop-color="#9A4609" stop-opacity="0"/>
</radialGradient>
<radialGradient id="paint14_radial_68_3415" cx="0" cy="0" r="1" gradientUnits="userSpaceOnUse" gradientTransform="translate(22.9957 9.63595) rotate(117.304) scale(1.24468 2.32844)">
<stop stop-color="#9A4609"/>
<stop offset="1" stop-color="#9A4609" stop-opacity="0"/>
</radialGradient>
<radialGradient id="paint15_radial_68_3415" cx="0" cy="0" r="1" gradientUnits="userSpaceOnUse" gradientTransform="translate(21.3755 9.24165) rotate(103.222) scale(21.3213)">
<stop offset="0.0060053" stop-color="#9A4609"/>
<stop offset="0.0685509" stop-color="#9A4609" stop-opacity="0"/>
</radialGradient>
<radialGradient id="paint16_radial_68_3415" cx="0" cy="0" r="1" gradientUnits="userSpaceOnUse" gradientTransform="translate(19.1849 11.164) rotate(98.1166) scale(19.0244)">
<stop stop-color="#9A4609"/>
<stop offset="0.0762812" stop-color="#9A4609" stop-opacity="0.13"/>
<stop offset="0.0938815" stop-color="#9A4609" stop-opacity="0"/>
</radialGradient>
<radialGradient id="paint17_radial_68_3415" cx="0" cy="0" r="1" gradientUnits="userSpaceOnUse" gradientTransform="translate(19.6765 10.3005) rotate(99.1641) scale(19.9519 16.1492)">
<stop stop-color="#9A4609"/>
<stop offset="0.0944858" stop-color="#9A4609" stop-opacity="0"/>
</radialGradient>
<radialGradient id="paint18_radial_68_3415" cx="0" cy="0" r="1" gradientUnits="userSpaceOnUse" gradientTransform="translate(20.6093 9.43645) rotate(58.5359) scale(1.52587 1.96335)">
<stop stop-color="#9A4609"/>
<stop offset="1" stop-color="#9A4609" stop-opacity="0"/>
</radialGradient>
<radialGradient id="paint19_radial_68_3415" cx="0" cy="0" r="1" gradientUnits="userSpaceOnUse" gradientTransform="translate(21.5076 9.52666) rotate(75.9637) scale(1.53565 2.88789)">
<stop stop-color="#9A4609"/>
<stop offset="1" stop-color="#9A4609" stop-opacity="0"/>
</radialGradient>
<linearGradient id="paint20_linear_68_3415" x1="5" y1="3.5" x2="8.63606" y2="8.27701" gradientUnits="userSpaceOnUse">
<stop stop-color="#DC2E50"/>
<stop offset="1" stop-color="#F70A8D"/>
</linearGradient>
<radialGradient id="paint21_radial_68_3415" cx="0" cy="0" r="1" gradientUnits="userSpaceOnUse" gradientTransform="translate(9.00208 3.79775) rotate(125.784) scale(4.97797 3.09003)">
<stop stop-color="white" stop-opacity="0.75"/>
<stop offset="0.125206" stop-color="white" stop-opacity="0.701862"/>
<stop offset="0.281504" stop-color="white" stop-opacity="0.479537"/>
<stop offset="0.690887" stop-color="#DC2E50" stop-opacity="0"/>
</radialGradient>
<radialGradient id="paint22_radial_68_3415" cx="0" cy="0" r="1" gradientUnits="userSpaceOnUse" gradientTransform="translate(7.75449 8.58773) rotate(-129.472) scale(3.27861 6.30974)">
<stop stop-color="#F944A5"/>
<stop offset="1" stop-color="#F944A5" stop-opacity="0"/>
</radialGradient>
<radialGradient id="paint23_radial_68_3415" cx="0" cy="0" r="1" gradientUnits="userSpaceOnUse" gradientTransform="translate(11 11.2281) rotate(90) scale(2.78812)">
<stop offset="0.188596" stop-color="#1D1019"/>
<stop offset="1" stop-color="#462B3F" stop-opacity="0"/>
</radialGradient>
<radialGradient id="paint24_radial_68_3415" cx="0" cy="0" r="1" gradientUnits="userSpaceOnUse" gradientTransform="translate(11 11.2281) rotate(90) scale(3.60744 4.09431)">
<stop offset="0.718644" stop-color="#462B3F" stop-opacity="0"/>
<stop offset="1" stop-color="#1D1019"/>
</radialGradient>
<radialGradient id="paint25_radial_68_3415" cx="0" cy="0" r="1" gradientUnits="userSpaceOnUse" gradientTransform="translate(11 9.37497) rotate(90) scale(3.31243 6.95821)">
<stop offset="0.429103" stop-color="#462B3F" stop-opacity="0"/>
<stop offset="1" stop-color="#1D1019"/>
</radialGradient>
<radialGradient id="paint26_radial_68_3415" cx="0" cy="0" r="1" gradientUnits="userSpaceOnUse" gradientTransform="translate(21.9999 11.2282) rotate(90) scale(2.78818)">
<stop offset="0.188596" stop-color="#1D1019"/>
<stop offset="1" stop-color="#462B3F" stop-opacity="0"/>
</radialGradient>
<radialGradient id="paint27_radial_68_3415" cx="0" cy="0" r="1" gradientUnits="userSpaceOnUse" gradientTransform="translate(21.9999 11.2282) rotate(90) scale(3.60751 4.0944)">
<stop offset="0.718644" stop-color="#462B3F" stop-opacity="0"/>
<stop offset="1" stop-color="#1D1019"/>
</radialGradient>
<radialGradient id="paint28_radial_68_3415" cx="0" cy="0" r="1" gradientUnits="userSpaceOnUse" gradientTransform="translate(21.9999 9.375) rotate(90) scale(3.3125 6.95835)">
<stop offset="0.429103" stop-color="#462B3F" stop-opacity="0"/>
<stop offset="1" stop-color="#1D1019"/>
</radialGradient>
<linearGradient id="paint29_linear_68_3415" x1="6.49976" y1="24.5" x2="9.84193" y2="29.9066" gradientUnits="userSpaceOnUse">
<stop stop-color="#CA0B4A"/>
<stop offset="1" stop-color="#F70A8D"/>
</linearGradient>
<radialGradient id="paint30_radial_68_3415" cx="0" cy="0" r="1" gradientUnits="userSpaceOnUse" gradientTransform="translate(8.96407 27.5814) rotate(121.197) scale(3.41197 2.2423)">
<stop stop-color="#F944A5"/>
<stop offset="0.753331" stop-color="#F944A5" stop-opacity="0"/>
</radialGradient>
<radialGradient id="paint31_radial_68_3415" cx="0" cy="0" r="1" gradientUnits="userSpaceOnUse" gradientTransform="translate(8.95216 24.6205) rotate(129.857) scale(2.88516 2.86209)">
<stop stop-color="white" stop-opacity="0.83"/>
<stop offset="0.0639679" stop-color="white" stop-opacity="0.83"/>
<stop offset="0.150472" stop-color="white" stop-opacity="0.76"/>
<stop offset="0.270833" stop-color="white" stop-opacity="0.57"/>
<stop offset="0.590756" stop-color="white" stop-opacity="0"/>
</radialGradient>
<linearGradient id="paint32_linear_68_3415" x1="29.5995" y1="18.0367" x2="26.3756" y2="25.428" gradientUnits="userSpaceOnUse">
<stop stop-color="#CA0B4A"/>
<stop offset="1" stop-color="#F70A8D"/>
</linearGradient>
<radialGradient id="paint33_radial_68_3415" cx="0" cy="0" r="1" gradientUnits="userSpaceOnUse" gradientTransform="translate(24.7038 22.4586) rotate(53.8543) scale(4.30019 1.78063)">
<stop stop-color="#F944A5" stop-opacity="0.69"/>
<stop offset="1" stop-color="#F944A5" stop-opacity="0"/>
</radialGradient>
<radialGradient id="paint34_radial_68_3415" cx="0" cy="0" r="1" gradientUnits="userSpaceOnUse" gradientTransform="translate(28.5488 20.0434) rotate(-51.1573) scale(2.39774 1.25578)">
<stop stop-color="white" stop-opacity="0.3"/>
<stop offset="0.480213" stop-color="white" stop-opacity="0.22"/>
<stop offset="1" stop-color="white" stop-opacity="0.03"/>
</radialGradient>
<radialGradient id="paint35_radial_68_3415" cx="0" cy="0" r="1" gradientUnits="userSpaceOnUse" gradientTransform="translate(25.5947 20.1549) rotate(-134.091) scale(3.72489 1.69666)">
<stop stop-color="white" stop-opacity="0.35"/>
<stop offset="0.334831" stop-color="white" stop-opacity="0.26163"/>
<stop offset="1" stop-color="white" stop-opacity="0"/>
</radialGradient>
<radialGradient id="paint36_radial_68_3415" cx="0" cy="0" r="1" gradientUnits="userSpaceOnUse" gradientTransform="translate(26.2639 20.7987) rotate(-134.493) scale(4.65306 3.14828)">
<stop stop-color="white" stop-opacity="0.35"/>
<stop offset="0.143176" stop-color="white" stop-opacity="0.26163"/>
<stop offset="0.358835" stop-color="white" stop-opacity="0"/>
</radialGradient>
<radialGradient id="paint37_radial_68_3415" cx="0" cy="0" r="1" gradientUnits="userSpaceOnUse" gradientTransform="translate(27.8745 20.6913) rotate(-46.0512) scale(3.31076 1.54799)">
<stop stop-color="white" stop-opacity="0.58"/>
<stop offset="0.555297" stop-color="white" stop-opacity="0.26163"/>
<stop offset="1" stop-color="white" stop-opacity="0"/>
</radialGradient>
<radialGradient id="paint38_radial_68_3415" cx="0" cy="0" r="1" gradientUnits="userSpaceOnUse" gradientTransform="translate(16.5 12) rotate(90) scale(10.5 6.42871)">
<stop offset="0.555727" stop-color="#584343"/>
<stop offset="0.740289" stop-color="#66525E"/>
<stop offset="1" stop-color="#4E2553"/>
<stop offset="1" stop-color="#522C57"/>
</radialGradient>
</defs>
</svg>
