<svg width="33" height="32" viewBox="0 0 33 32" fill="none" xmlns="http://www.w3.org/2000/svg">
<g clip-path="url(#clip0_68_3379)">
<path d="M16.6645 29.9978C25.999 29.9978 30.6634 23.7303 30.6634 15.9989C30.6634 8.26751 25.999 2 16.6645 2C7.33008 2 2.66565 8.26751 2.66565 15.9989C2.66565 23.7303 7.33008 29.9978 16.6645 29.9978Z" fill="url(#paint0_radial_68_3379)"/>
<path d="M16.6645 29.9978C25.999 29.9978 30.6634 23.7303 30.6634 15.9989C30.6634 8.26751 25.999 2 16.6645 2C7.33008 2 2.66565 8.26751 2.66565 15.9989C2.66565 23.7303 7.33008 29.9978 16.6645 29.9978Z" fill="url(#paint1_radial_68_3379)"/>
<path d="M16.6645 29.9978C25.999 29.9978 30.6634 23.7303 30.6634 15.9989C30.6634 8.26751 25.999 2 16.6645 2C7.33008 2 2.66565 8.26751 2.66565 15.9989C2.66565 23.7303 7.33008 29.9978 16.6645 29.9978Z" fill="url(#paint2_radial_68_3379)" fill-opacity="0.6"/>
<path d="M16.6645 29.9978C25.999 29.9978 30.6634 23.7303 30.6634 15.9989C30.6634 8.26751 25.999 2 16.6645 2C7.33008 2 2.66565 8.26751 2.66565 15.9989C2.66565 23.7303 7.33008 29.9978 16.6645 29.9978Z" fill="url(#paint3_radial_68_3379)"/>
<path d="M16.6645 29.9978C25.999 29.9978 30.6634 23.7303 30.6634 15.9989C30.6634 8.26751 25.999 2 16.6645 2C7.33008 2 2.66565 8.26751 2.66565 15.9989C2.66565 23.7303 7.33008 29.9978 16.6645 29.9978Z" fill="url(#paint4_radial_68_3379)"/>
<path d="M16.6645 29.9978C25.999 29.9978 30.6634 23.7303 30.6634 15.9989C30.6634 8.26751 25.999 2 16.6645 2C7.33008 2 2.66565 8.26751 2.66565 15.9989C2.66565 23.7303 7.33008 29.9978 16.6645 29.9978Z" fill="url(#paint5_radial_68_3379)"/>
<path d="M16.6645 29.9978C25.999 29.9978 30.6634 23.7303 30.6634 15.9989C30.6634 8.26751 25.999 2 16.6645 2C7.33008 2 2.66565 8.26751 2.66565 15.9989C2.66565 23.7303 7.33008 29.9978 16.6645 29.9978Z" fill="url(#paint6_radial_68_3379)"/>
<path d="M16.6645 29.9978C25.999 29.9978 30.6634 23.7303 30.6634 15.9989C30.6634 8.26751 25.999 2 16.6645 2C7.33008 2 2.66565 8.26751 2.66565 15.9989C2.66565 23.7303 7.33008 29.9978 16.6645 29.9978Z" fill="url(#paint7_radial_68_3379)"/>
<path d="M16.6645 29.9978C25.999 29.9978 30.6634 23.7303 30.6634 15.9989C30.6634 8.26751 25.999 2 16.6645 2C7.33008 2 2.66565 8.26751 2.66565 15.9989C2.66565 23.7303 7.33008 29.9978 16.6645 29.9978Z" fill="url(#paint8_radial_68_3379)"/>
<path d="M16.6645 29.9978C25.999 29.9978 30.6634 23.7303 30.6634 15.9989C30.6634 8.26751 25.999 2 16.6645 2C7.33008 2 2.66565 8.26751 2.66565 15.9989C2.66565 23.7303 7.33008 29.9978 16.6645 29.9978Z" fill="url(#paint9_radial_68_3379)"/>
<path d="M16.6645 29.9978C25.999 29.9978 30.6634 23.7303 30.6634 15.9989C30.6634 8.26751 25.999 2 16.6645 2C7.33008 2 2.66565 8.26751 2.66565 15.9989C2.66565 23.7303 7.33008 29.9978 16.6645 29.9978Z" fill="url(#paint10_radial_68_3379)"/>
<path d="M16.6645 29.9978C25.999 29.9978 30.6634 23.7303 30.6634 15.9989C30.6634 8.26751 25.999 2 16.6645 2C7.33008 2 2.66565 8.26751 2.66565 15.9989C2.66565 23.7303 7.33008 29.9978 16.6645 29.9978Z" fill="url(#paint11_radial_68_3379)"/>
<path d="M16.6645 29.9978C25.999 29.9978 30.6634 23.7303 30.6634 15.9989C30.6634 8.26751 25.999 2 16.6645 2C7.33008 2 2.66565 8.26751 2.66565 15.9989C2.66565 23.7303 7.33008 29.9978 16.6645 29.9978Z" fill="url(#paint12_radial_68_3379)"/>
<path d="M16.6645 29.9978C25.999 29.9978 30.6634 23.7303 30.6634 15.9989C30.6634 8.26751 25.999 2 16.6645 2C7.33008 2 2.66565 8.26751 2.66565 15.9989C2.66565 23.7303 7.33008 29.9978 16.6645 29.9978Z" fill="url(#paint13_radial_68_3379)"/>
<path d="M16.6645 29.9978C25.999 29.9978 30.6634 23.7303 30.6634 15.9989C30.6634 8.26751 25.999 2 16.6645 2C7.33008 2 2.66565 8.26751 2.66565 15.9989C2.66565 23.7303 7.33008 29.9978 16.6645 29.9978Z" fill="url(#paint14_radial_68_3379)"/>
<path d="M16.6645 29.9978C25.999 29.9978 30.6634 23.7303 30.6634 15.9989C30.6634 8.26751 25.999 2 16.6645 2C7.33008 2 2.66565 8.26751 2.66565 15.9989C2.66565 23.7303 7.33008 29.9978 16.6645 29.9978Z" fill="url(#paint15_radial_68_3379)"/>
<path fill-rule="evenodd" clip-rule="evenodd" d="M10.5493 7.3966L10.5497 7.39411L10.547 7.40785C10.5442 7.42172 10.539 7.44534 10.531 7.47732C10.515 7.54143 10.4877 7.63813 10.445 7.75647C10.359 7.99466 10.2136 8.31106 9.97817 8.625C9.52391 9.23069 8.70317 9.875 7.16567 9.875C6.8205 9.875 6.54067 10.1548 6.54067 10.5C6.54067 10.8452 6.8205 11.125 7.16567 11.125C9.12818 11.125 10.3074 10.2693 10.9782 9.375C11.3052 8.93894 11.5036 8.50534 11.6207 8.18103C11.6795 8.01812 11.7187 7.88044 11.7437 7.78049C11.7562 7.73044 11.7652 7.68961 11.7714 7.65953C11.7745 7.64449 11.7769 7.63211 11.7787 7.62259L11.7808 7.61047L11.7816 7.60605L11.7819 7.60426C11.7823 7.60198 11.7822 7.60275 11.7822 7.60275C11.8389 7.26227 11.6089 6.94025 11.2684 6.8835C10.929 6.82693 10.6079 7.05537 10.5497 7.39411" fill="url(#paint16_linear_68_3379)"/>
<path fill-rule="evenodd" clip-rule="evenodd" d="M10.5493 7.3966L10.5497 7.39411L10.547 7.40785C10.5442 7.42172 10.539 7.44534 10.531 7.47732C10.515 7.54143 10.4877 7.63813 10.445 7.75647C10.359 7.99466 10.2136 8.31106 9.97817 8.625C9.52391 9.23069 8.70317 9.875 7.16567 9.875C6.8205 9.875 6.54067 10.1548 6.54067 10.5C6.54067 10.8452 6.8205 11.125 7.16567 11.125C9.12818 11.125 10.3074 10.2693 10.9782 9.375C11.3052 8.93894 11.5036 8.50534 11.6207 8.18103C11.6795 8.01812 11.7187 7.88044 11.7437 7.78049C11.7562 7.73044 11.7652 7.68961 11.7714 7.65953C11.7745 7.64449 11.7769 7.63211 11.7787 7.62259L11.7808 7.61047L11.7816 7.60605L11.7819 7.60426C11.7823 7.60198 11.7822 7.60275 11.7822 7.60275C11.8389 7.26227 11.6089 6.94025 11.2684 6.8835C10.929 6.82693 10.6079 7.05537 10.5497 7.39411" fill="url(#paint17_radial_68_3379)"/>
<path fill-rule="evenodd" clip-rule="evenodd" d="M22.782 7.3966L22.7816 7.39411L22.7843 7.40785C22.7871 7.42172 22.7923 7.44534 22.8003 7.47732C22.8163 7.54143 22.8435 7.63813 22.8863 7.75647C22.9723 7.99466 23.1177 8.31106 23.3531 8.625C23.8074 9.23069 24.6281 9.875 26.1656 9.875C26.5108 9.875 26.7906 10.1548 26.7906 10.5C26.7906 10.8452 26.5108 11.125 26.1656 11.125C24.2031 11.125 23.0239 10.2693 22.3531 9.375C22.0261 8.93894 21.8277 8.50534 21.7106 8.18103C21.6518 8.01812 21.6126 7.88044 21.5876 7.78049C21.5751 7.73044 21.5661 7.68961 21.5599 7.65953C21.5568 7.64449 21.5544 7.63211 21.5526 7.62259L21.5505 7.61047L21.5497 7.60605L21.5494 7.60426C21.549 7.60198 21.5491 7.60275 21.5491 7.60275C21.4924 7.26227 21.7224 6.94025 22.0629 6.8835C22.4023 6.82693 22.7234 7.05537 22.7816 7.39411" fill="url(#paint18_radial_68_3379)"/>
<path fill-rule="evenodd" clip-rule="evenodd" d="M14.3626 23.7171C13.9714 24.0976 13.3457 24.0943 12.9585 23.7071C12.568 23.3166 12.568 22.6834 12.9585 22.2929L12.96 22.2915L12.9615 22.2899L12.9649 22.2866L12.9728 22.2789L12.9934 22.2592C13.0093 22.2443 13.0295 22.2259 13.054 22.2045C13.103 22.1616 13.1693 22.1066 13.2531 22.0438C13.4206 21.9182 13.6589 21.7603 13.9684 21.6056C14.5907 21.2944 15.4929 21 16.6656 21C17.8384 21 18.7406 21.2944 19.3629 21.6056C19.6724 21.7603 19.9107 21.9182 20.0781 22.0438C20.1619 22.1066 20.2283 22.1616 20.2773 22.2045C20.3018 22.2259 20.322 22.2443 20.3379 22.2592L20.3585 22.2789L20.3664 22.2866L20.3698 22.2899L20.3713 22.2915L20.3721 22.2922C20.7626 22.6827 20.7633 23.3166 20.3728 23.7071C19.9856 24.0943 19.3599 24.0976 18.9687 23.7171C18.9671 23.7157 18.9643 23.7132 18.9603 23.7096C18.9467 23.6978 18.9193 23.6747 18.8781 23.6437C18.7956 23.5818 18.6589 23.4897 18.4684 23.3944C18.0907 23.2056 17.4929 23 16.6656 23C15.8384 23 15.2406 23.2056 14.8629 23.3944C14.6724 23.4897 14.5357 23.5818 14.4531 23.6437C14.4119 23.6747 14.3846 23.6978 14.371 23.7096C14.367 23.7132 14.3642 23.7157 14.3626 23.7171Z" fill="url(#paint19_linear_68_3379)"/>
<path d="M10.1131 18.8898C9.61913 19.1368 9.01846 18.9366 8.77147 18.4426C8.52448 17.9486 8.72471 17.3479 9.21868 17.101L11.4252 15.9977L13.1656 15.4999L14.6659 15.9977C14.665 16.3756 14.4512 16.7208 14.1131 16.8898L10.1131 18.8898Z" fill="url(#paint20_linear_68_3379)"/>
<path d="M10.1131 18.8898C9.61913 19.1368 9.01846 18.9366 8.77147 18.4426C8.52448 17.9486 8.72471 17.3479 9.21868 17.101L11.4252 15.9977L13.1656 15.4999L14.6659 15.9977C14.665 16.3756 14.4512 16.7208 14.1131 16.8898L10.1131 18.8898Z" fill="url(#paint21_linear_68_3379)"/>
<path d="M10.1131 18.8898C9.61913 19.1368 9.01846 18.9366 8.77147 18.4426C8.52448 17.9486 8.72471 17.3479 9.21868 17.101L11.4252 15.9977L13.1656 15.4999L14.6659 15.9977C14.665 16.3756 14.4512 16.7208 14.1131 16.8898L10.1131 18.8898Z" fill="url(#paint22_radial_68_3379)"/>
<path d="M10.1131 13.1058C9.61913 12.8588 9.01846 13.059 8.77147 13.553C8.52448 14.047 8.72471 14.6477 9.21868 14.8946L11.4252 15.9979H14.6659C14.665 15.62 14.4512 15.2748 14.1131 15.1058L10.1131 13.1058Z" fill="url(#paint23_linear_68_3379)"/>
<path d="M10.1131 13.1058C9.61913 12.8588 9.01846 13.059 8.77147 13.553C8.52448 14.047 8.72471 14.6477 9.21868 14.8946L11.4252 15.9979H14.6659C14.665 15.62 14.4512 15.2748 14.1131 15.1058L10.1131 13.1058Z" fill="url(#paint24_linear_68_3379)"/>
<path d="M10.1131 13.1058C9.61913 12.8588 9.01846 13.059 8.77147 13.553C8.52448 14.047 8.72471 14.6477 9.21868 14.8946L11.4252 15.9979H14.6659C14.665 15.62 14.4512 15.2748 14.1131 15.1058L10.1131 13.1058Z" fill="url(#paint25_radial_68_3379)"/>
<path d="M23.2028 18.8898C23.6968 19.1368 24.2975 18.9366 24.5444 18.4426C24.7914 17.9486 24.5912 17.3479 24.0972 17.101L21.8907 15.9977L20.1656 15.4999L18.65 15.9977C18.6509 16.3756 18.8647 16.7208 19.2028 16.8898L23.2028 18.8898Z" fill="url(#paint26_linear_68_3379)"/>
<path d="M23.2028 18.8898C23.6968 19.1368 24.2975 18.9366 24.5444 18.4426C24.7914 17.9486 24.5912 17.3479 24.0972 17.101L21.8907 15.9977L20.1656 15.4999L18.65 15.9977C18.6509 16.3756 18.8647 16.7208 19.2028 16.8898L23.2028 18.8898Z" fill="url(#paint27_linear_68_3379)"/>
<path d="M23.2028 13.1058C23.6968 12.8588 24.2975 13.059 24.5444 13.553C24.7914 14.047 24.5912 14.6477 24.0972 14.8946L21.8907 15.9979H18.65C18.6509 15.62 18.8647 15.2748 19.2028 15.1058L23.2028 13.1058Z" fill="url(#paint28_linear_68_3379)"/>
<path d="M23.2028 13.1058C23.6968 12.8588 24.2975 13.059 24.5444 13.553C24.7914 14.047 24.5912 14.6477 24.0972 14.8946L21.8907 15.9979H18.65C18.6509 15.62 18.8647 15.2748 19.2028 15.1058L23.2028 13.1058Z" fill="url(#paint29_radial_68_3379)"/>
<path d="M23.2028 13.1058C23.6968 12.8588 24.2975 13.059 24.5444 13.553C24.7914 14.047 24.5912 14.6477 24.0972 14.8946L21.8907 15.9979H18.65C18.6509 15.62 18.8647 15.2748 19.2028 15.1058L23.2028 13.1058Z" fill="url(#paint30_radial_68_3379)"/>
<path d="M23.2028 13.1058C23.6968 12.8588 24.2975 13.059 24.5444 13.553C24.7914 14.047 24.5912 14.6477 24.0972 14.8946L21.8907 15.9979H18.65C18.6509 15.62 18.8647 15.2748 19.2028 15.1058L23.2028 13.1058Z" fill="url(#paint31_linear_68_3379)"/>
</g>
<defs>
<radialGradient id="paint0_radial_68_3379" cx="0" cy="0" r="1" gradientUnits="userSpaceOnUse" gradientTransform="translate(26.1656 9) rotate(132.839) scale(37.5033)">
<stop stop-color="#FFF478"/>
<stop offset="0.474827" stop-color="#FFB02E"/>
<stop offset="1" stop-color="#F70A8D"/>
</radialGradient>
<radialGradient id="paint1_radial_68_3379" cx="0" cy="0" r="1" gradientUnits="userSpaceOnUse" gradientTransform="translate(16.6657 12.5) rotate(101.31) scale(17.8466 22.8581)">
<stop offset="0.787821" stop-color="#F59639" stop-opacity="0"/>
<stop offset="0.972509" stop-color="#FF7DCE"/>
</radialGradient>
<radialGradient id="paint2_radial_68_3379" cx="0" cy="0" r="1" gradientUnits="userSpaceOnUse" gradientTransform="translate(18.6657 14) rotate(135) scale(41.0122)">
<stop offset="0.314853" stop-opacity="0"/>
<stop offset="1"/>
</radialGradient>
<radialGradient id="paint3_radial_68_3379" cx="0" cy="0" r="1" gradientUnits="userSpaceOnUse" gradientTransform="translate(16.6657 17) rotate(77.692) scale(28.1469)">
<stop offset="0.507903" stop-color="#7D6133" stop-opacity="0"/>
<stop offset="1" stop-color="#715B32"/>
</radialGradient>
<radialGradient id="paint4_radial_68_3379" cx="0" cy="0" r="1" gradientUnits="userSpaceOnUse" gradientTransform="translate(17.1656 16.5) rotate(55.7131) scale(13.3135 9.65032)">
<stop stop-color="#FFB849"/>
<stop offset="1" stop-color="#FFB847" stop-opacity="0"/>
</radialGradient>
<radialGradient id="paint5_radial_68_3379" cx="0" cy="0" r="1" gradientUnits="userSpaceOnUse" gradientTransform="translate(21.1656 18) rotate(9.86581) scale(11.6726)">
<stop stop-color="#FFA64B"/>
<stop offset="0.900412" stop-color="#FFAE46" stop-opacity="0"/>
</radialGradient>
<radialGradient id="paint6_radial_68_3379" cx="0" cy="0" r="1" gradientUnits="userSpaceOnUse" gradientTransform="translate(18.1656 15) rotate(43.9708) scale(59.0529)">
<stop offset="0.185425" stop-opacity="0"/>
<stop offset="1" stop-opacity="0.4"/>
</radialGradient>
<radialGradient id="paint7_radial_68_3379" cx="0" cy="0" r="1" gradientUnits="userSpaceOnUse" gradientTransform="translate(10.6656 15) rotate(108.435) scale(1.58114 2.45077)">
<stop stop-color="#D07E2D"/>
<stop offset="1" stop-color="#D98833" stop-opacity="0"/>
</radialGradient>
<radialGradient id="paint8_radial_68_3379" cx="0" cy="0" r="1" gradientUnits="userSpaceOnUse" gradientTransform="translate(10.5738 17.1266) rotate(63.435) scale(1.69146 3.17531)">
<stop stop-color="#D07E2D"/>
<stop offset="1" stop-color="#D98833" stop-opacity="0"/>
</radialGradient>
<radialGradient id="paint9_radial_68_3379" cx="0" cy="0" r="1" gradientUnits="userSpaceOnUse" gradientTransform="translate(22.0488 17.6803) rotate(115.278) scale(1.88459 3.59154)">
<stop stop-color="#D07E2D"/>
<stop offset="1" stop-color="#D98833" stop-opacity="0"/>
</radialGradient>
<radialGradient id="paint10_radial_68_3379" cx="0" cy="0" r="1" gradientUnits="userSpaceOnUse" gradientTransform="translate(25.2837 11.015) rotate(1.27304) scale(1.69194 1.25002)">
<stop stop-color="#E7982E"/>
<stop offset="1" stop-color="#E39632" stop-opacity="0"/>
</radialGradient>
<radialGradient id="paint11_radial_68_3379" cx="0" cy="0" r="1" gradientUnits="userSpaceOnUse" gradientTransform="translate(23.4975 10.3019) rotate(33.4248) scale(1.8454 1.14071)">
<stop stop-color="#E7982E"/>
<stop offset="1" stop-color="#E39632" stop-opacity="0"/>
</radialGradient>
<radialGradient id="paint12_radial_68_3379" cx="0" cy="0" r="1" gradientUnits="userSpaceOnUse" gradientTransform="translate(22.3116 8.86954) rotate(72.5651) scale(1.95336 1.20745)">
<stop stop-color="#E7982E"/>
<stop offset="1" stop-color="#E39632" stop-opacity="0"/>
</radialGradient>
<radialGradient id="paint13_radial_68_3379" cx="0" cy="0" r="1" gradientUnits="userSpaceOnUse" gradientTransform="translate(8.67804 9.63099) rotate(-26.5651) scale(4.45994)">
<stop stop-color="#D99621"/>
<stop offset="1" stop-color="#E4A228" stop-opacity="0"/>
</radialGradient>
<radialGradient id="paint14_radial_68_3379" cx="0" cy="0" r="1" gradientUnits="userSpaceOnUse" gradientTransform="translate(7.87664 10.8938) rotate(-18.2576) scale(2.39684 1.16267)">
<stop stop-color="#DB8A21"/>
<stop offset="1" stop-color="#DB8A21" stop-opacity="0"/>
</radialGradient>
<radialGradient id="paint15_radial_68_3379" cx="0" cy="0" r="1" gradientUnits="userSpaceOnUse" gradientTransform="translate(10.1055 9.84322) rotate(-42.0391) scale(1.83311 0.889216)">
<stop stop-color="#DB8A21"/>
<stop offset="1" stop-color="#DB8A21" stop-opacity="0"/>
</radialGradient>
<linearGradient id="paint16_linear_68_3379" x1="10.1657" y1="7" x2="10.1657" y2="8.5" gradientUnits="userSpaceOnUse">
<stop offset="0.0299084" stop-color="#524049"/>
<stop offset="1" stop-color="#4A2C42"/>
</linearGradient>
<radialGradient id="paint17_radial_68_3379" cx="0" cy="0" r="1" gradientUnits="userSpaceOnUse" gradientTransform="translate(7.66567 7) rotate(54.4623) scale(4.30116)">
<stop offset="0.541667" stop-color="#493032"/>
<stop offset="0.806723" stop-color="#5E445A"/>
<stop offset="0.955326" stop-color="#4A2C42"/>
</radialGradient>
<radialGradient id="paint18_radial_68_3379" cx="0" cy="0" r="1" gradientUnits="userSpaceOnUse" gradientTransform="translate(25.6656 7) rotate(125.538) scale(4.30116)">
<stop stop-color="#C2B4B5"/>
<stop offset="0.887405" stop-color="#462B45"/>
<stop offset="1" stop-color="#4A2C42"/>
</radialGradient>
<linearGradient id="paint19_linear_68_3379" x1="16.6656" y1="20" x2="16.6657" y2="22" gradientUnits="userSpaceOnUse">
<stop stop-color="#4F3C43"/>
<stop offset="1" stop-color="#512756"/>
</linearGradient>
<linearGradient id="paint20_linear_68_3379" x1="11.1378" y1="19.7651" x2="8.66565" y2="14.8505" gradientUnits="userSpaceOnUse">
<stop offset="0.21392" stop-color="#492741"/>
<stop offset="0.331485" stop-color="#503A4A"/>
<stop offset="0.511203" stop-color="#482641"/>
</linearGradient>
<linearGradient id="paint21_linear_68_3379" x1="10.9661" y1="15.9977" x2="11.082" y2="16.473" gradientUnits="userSpaceOnUse">
<stop stop-color="#2D1721"/>
<stop offset="1" stop-color="#2D1721" stop-opacity="0"/>
</linearGradient>
<radialGradient id="paint22_radial_68_3379" cx="0" cy="0" r="1" gradientUnits="userSpaceOnUse" gradientTransform="translate(12.9837 16.2903) rotate(-148.405) scale(5.68231)">
<stop offset="0.631717" stop-color="#492741" stop-opacity="0"/>
<stop offset="0.798224" stop-color="#492741"/>
</radialGradient>
<linearGradient id="paint23_linear_68_3379" x1="9.52527" y1="16.1385" x2="11.3545" y2="12.9124" gradientUnits="userSpaceOnUse">
<stop offset="0.162863" stop-color="#22161C"/>
<stop offset="0.435713" stop-color="#482641"/>
<stop offset="0.631598" stop-color="#503A4A"/>
</linearGradient>
<linearGradient id="paint24_linear_68_3379" x1="10.9661" y1="15.9979" x2="11.082" y2="15.5226" gradientUnits="userSpaceOnUse">
<stop stop-color="#2D1721"/>
<stop offset="1" stop-color="#2D1721" stop-opacity="0"/>
</linearGradient>
<radialGradient id="paint25_radial_68_3379" cx="0" cy="0" r="1" gradientUnits="userSpaceOnUse" gradientTransform="translate(12.9837 15.7053) rotate(148.405) scale(5.68231)">
<stop offset="0.631717" stop-color="#492741" stop-opacity="0"/>
<stop offset="0.798224" stop-color="#492741"/>
</radialGradient>
<linearGradient id="paint26_linear_68_3379" x1="22.0719" y1="19.7321" x2="24.6502" y2="14.3883" gradientUnits="userSpaceOnUse">
<stop offset="0.207167" stop-color="#381B32"/>
<stop offset="0.277026" stop-color="#482641"/>
<stop offset="0.390091" stop-color="#503A4A"/>
<stop offset="0.516907" stop-color="#503A4A"/>
<stop offset="0.651166" stop-color="#482641"/>
</linearGradient>
<linearGradient id="paint27_linear_68_3379" x1="22.3498" y1="15.9977" x2="22.2339" y2="16.473" gradientUnits="userSpaceOnUse">
<stop stop-color="#2D1721"/>
<stop offset="1" stop-color="#2D1721" stop-opacity="0"/>
</linearGradient>
<linearGradient id="paint28_linear_68_3379" x1="23.7906" y1="16.1385" x2="21.4" y2="11.451" gradientUnits="userSpaceOnUse">
<stop offset="0.162402" stop-color="#482641"/>
<stop offset="0.296966" stop-color="#503A4A"/>
<stop offset="0.39491" stop-color="#503A4A"/>
<stop offset="0.511203" stop-color="#482641"/>
</linearGradient>
<radialGradient id="paint29_radial_68_3379" cx="0" cy="0" r="1" gradientUnits="userSpaceOnUse" gradientTransform="translate(19.9691 15.7783) rotate(29.1673) scale(5.95871)">
<stop offset="0.631717" stop-color="#492741" stop-opacity="0"/>
<stop offset="0.798224" stop-color="#492741"/>
</radialGradient>
<radialGradient id="paint30_radial_68_3379" cx="0" cy="0" r="1" gradientUnits="userSpaceOnUse" gradientTransform="translate(24.1861 13.6566) rotate(134.019) scale(0.898479 1.62536)">
<stop stop-color="#5E5051"/>
<stop offset="1" stop-color="#5E5051" stop-opacity="0"/>
</radialGradient>
<linearGradient id="paint31_linear_68_3379" x1="22.3498" y1="15.9979" x2="22.2339" y2="15.5226" gradientUnits="userSpaceOnUse">
<stop stop-color="#2D1721"/>
<stop offset="1" stop-color="#2D1721" stop-opacity="0"/>
</linearGradient>
<clipPath id="clip0_68_3379">
<rect width="32" height="32" fill="white" transform="translate(0.5)"/>
</clipPath>
</defs>
</svg>
