<svg width="32" height="32" viewBox="0 0 32 32" fill="none" xmlns="http://www.w3.org/2000/svg">
<path d="M16.1645 29.9978C25.499 29.9978 30.1634 23.7303 30.1634 15.9989C30.1634 8.26751 25.499 2 16.1645 2C6.83008 2 2.16565 8.26751 2.16565 15.9989C2.16565 23.7303 6.83008 29.9978 16.1645 29.9978Z" fill="url(#paint0_radial_68_3200)"/>
<path d="M16.1645 29.9978C25.499 29.9978 30.1634 23.7303 30.1634 15.9989C30.1634 8.26751 25.499 2 16.1645 2C6.83008 2 2.16565 8.26751 2.16565 15.9989C2.16565 23.7303 6.83008 29.9978 16.1645 29.9978Z" fill="url(#paint1_radial_68_3200)"/>
<path d="M16.1645 29.9978C25.499 29.9978 30.1634 23.7303 30.1634 15.9989C30.1634 8.26751 25.499 2 16.1645 2C6.83008 2 2.16565 8.26751 2.16565 15.9989C2.16565 23.7303 6.83008 29.9978 16.1645 29.9978Z" fill="url(#paint2_radial_68_3200)" fill-opacity="0.6"/>
<path d="M16.1645 29.9978C25.499 29.9978 30.1634 23.7303 30.1634 15.9989C30.1634 8.26751 25.499 2 16.1645 2C6.83008 2 2.16565 8.26751 2.16565 15.9989C2.16565 23.7303 6.83008 29.9978 16.1645 29.9978Z" fill="url(#paint3_radial_68_3200)"/>
<path d="M16.1645 29.9978C25.499 29.9978 30.1634 23.7303 30.1634 15.9989C30.1634 8.26751 25.499 2 16.1645 2C6.83008 2 2.16565 8.26751 2.16565 15.9989C2.16565 23.7303 6.83008 29.9978 16.1645 29.9978Z" fill="url(#paint4_radial_68_3200)"/>
<path d="M16.1645 29.9978C25.499 29.9978 30.1634 23.7303 30.1634 15.9989C30.1634 8.26751 25.499 2 16.1645 2C6.83008 2 2.16565 8.26751 2.16565 15.9989C2.16565 23.7303 6.83008 29.9978 16.1645 29.9978Z" fill="url(#paint5_radial_68_3200)"/>
<path d="M16.1645 29.9978C25.499 29.9978 30.1634 23.7303 30.1634 15.9989C30.1634 8.26751 25.499 2 16.1645 2C6.83008 2 2.16565 8.26751 2.16565 15.9989C2.16565 23.7303 6.83008 29.9978 16.1645 29.9978Z" fill="url(#paint6_radial_68_3200)"/>
<path d="M16.1645 29.9978C25.499 29.9978 30.1634 23.7303 30.1634 15.9989C30.1634 8.26751 25.499 2 16.1645 2C6.83008 2 2.16565 8.26751 2.16565 15.9989C2.16565 23.7303 6.83008 29.9978 16.1645 29.9978Z" fill="url(#paint7_radial_68_3200)"/>
<path d="M16.1645 29.9978C25.499 29.9978 30.1634 23.7303 30.1634 15.9989C30.1634 8.26751 25.499 2 16.1645 2C6.83008 2 2.16565 8.26751 2.16565 15.9989C2.16565 23.7303 6.83008 29.9978 16.1645 29.9978Z" fill="url(#paint8_radial_68_3200)"/>
<path d="M16.1645 29.9978C25.499 29.9978 30.1634 23.7303 30.1634 15.9989C30.1634 8.26751 25.499 2 16.1645 2C6.83008 2 2.16565 8.26751 2.16565 15.9989C2.16565 23.7303 6.83008 29.9978 16.1645 29.9978Z" fill="url(#paint9_radial_68_3200)"/>
<path d="M16.1645 29.9978C25.499 29.9978 30.1634 23.7303 30.1634 15.9989C30.1634 8.26751 25.499 2 16.1645 2C6.83008 2 2.16565 8.26751 2.16565 15.9989C2.16565 23.7303 6.83008 29.9978 16.1645 29.9978Z" fill="url(#paint10_radial_68_3200)"/>
<path d="M16.1645 29.9978C25.499 29.9978 30.1634 23.7303 30.1634 15.9989C30.1634 8.26751 25.499 2 16.1645 2C6.83008 2 2.16565 8.26751 2.16565 15.9989C2.16565 23.7303 6.83008 29.9978 16.1645 29.9978Z" fill="url(#paint11_radial_68_3200)"/>
<path d="M16.1645 29.9978C25.499 29.9978 30.1634 23.7303 30.1634 15.9989C30.1634 8.26751 25.499 2 16.1645 2C6.83008 2 2.16565 8.26751 2.16565 15.9989C2.16565 23.7303 6.83008 29.9978 16.1645 29.9978Z" fill="url(#paint12_radial_68_3200)"/>
<path fill-rule="evenodd" clip-rule="evenodd" d="M12.6494 21.2822C13.0208 20.9714 13.5615 20.9714 13.9329 21.2822L16.1667 23.1514L18.4005 21.2822C18.7719 20.9714 19.3127 20.9714 19.6841 21.2822L21.9179 23.1514L23.6724 21.6832C24.096 21.3288 24.7267 21.3848 25.0811 21.8084C25.4355 22.2319 25.3795 22.8626 24.9559 23.217L22.5596 25.2222C22.1882 25.533 21.6475 25.533 21.2761 25.2222L19.0423 23.353L16.8085 25.2222C16.4371 25.533 15.8964 25.533 15.525 25.2222L13.2912 23.353L11.0574 25.2222C10.686 25.533 10.1453 25.533 9.77386 25.2222L7.37756 23.217C6.95401 22.8626 6.89797 22.2319 7.2524 21.8084C7.60683 21.3848 8.23751 21.3288 8.66106 21.6832L10.4156 23.1514L12.6494 21.2822Z" fill="#4A2942"/>
<path fill-rule="evenodd" clip-rule="evenodd" d="M12.6494 21.2822C13.0208 20.9714 13.5615 20.9714 13.9329 21.2822L16.1667 23.1514L18.4005 21.2822C18.7719 20.9714 19.3127 20.9714 19.6841 21.2822L21.9179 23.1514L23.6724 21.6832C24.096 21.3288 24.7267 21.3848 25.0811 21.8084C25.4355 22.2319 25.3795 22.8626 24.9559 23.217L22.5596 25.2222C22.1882 25.533 21.6475 25.533 21.2761 25.2222L19.0423 23.353L16.8085 25.2222C16.4371 25.533 15.8964 25.533 15.525 25.2222L13.2912 23.353L11.0574 25.2222C10.686 25.533 10.1453 25.533 9.77386 25.2222L7.37756 23.217C6.95401 22.8626 6.89797 22.2319 7.2524 21.8084C7.60683 21.3848 8.23751 21.3288 8.66106 21.6832L10.4156 23.1514L12.6494 21.2822Z" fill="url(#paint13_linear_68_3200)"/>
<path fill-rule="evenodd" clip-rule="evenodd" d="M12.6494 21.2822C13.0208 20.9714 13.5615 20.9714 13.9329 21.2822L16.1667 23.1514L18.4005 21.2822C18.7719 20.9714 19.3127 20.9714 19.6841 21.2822L21.9179 23.1514L23.6724 21.6832C24.096 21.3288 24.7267 21.3848 25.0811 21.8084C25.4355 22.2319 25.3795 22.8626 24.9559 23.217L22.5596 25.2222C22.1882 25.533 21.6475 25.533 21.2761 25.2222L19.0423 23.353L16.8085 25.2222C16.4371 25.533 15.8964 25.533 15.525 25.2222L13.2912 23.353L11.0574 25.2222C10.686 25.533 10.1453 25.533 9.77386 25.2222L7.37756 23.217C6.95401 22.8626 6.89797 22.2319 7.2524 21.8084C7.60683 21.3848 8.23751 21.3288 8.66106 21.6832L10.4156 23.1514L12.6494 21.2822Z" fill="url(#paint14_linear_68_3200)"/>
<path fill-rule="evenodd" clip-rule="evenodd" d="M12.6494 21.2822C13.0208 20.9714 13.5615 20.9714 13.9329 21.2822L16.1667 23.1514L18.4005 21.2822C18.7719 20.9714 19.3127 20.9714 19.6841 21.2822L21.9179 23.1514L23.6724 21.6832C24.096 21.3288 24.7267 21.3848 25.0811 21.8084C25.4355 22.2319 25.3795 22.8626 24.9559 23.217L22.5596 25.2222C22.1882 25.533 21.6475 25.533 21.2761 25.2222L19.0423 23.353L16.8085 25.2222C16.4371 25.533 15.8964 25.533 15.525 25.2222L13.2912 23.353L11.0574 25.2222C10.686 25.533 10.1453 25.533 9.77386 25.2222L7.37756 23.217C6.95401 22.8626 6.89797 22.2319 7.2524 21.8084C7.60683 21.3848 8.23751 21.3288 8.66106 21.6832L10.4156 23.1514L12.6494 21.2822Z" fill="url(#paint15_linear_68_3200)"/>
<path fill-rule="evenodd" clip-rule="evenodd" d="M12.6494 21.2822C13.0208 20.9714 13.5615 20.9714 13.9329 21.2822L16.1667 23.1514L18.4005 21.2822C18.7719 20.9714 19.3127 20.9714 19.6841 21.2822L21.9179 23.1514L23.6724 21.6832C24.096 21.3288 24.7267 21.3848 25.0811 21.8084C25.4355 22.2319 25.3795 22.8626 24.9559 23.217L22.5596 25.2222C22.1882 25.533 21.6475 25.533 21.2761 25.2222L19.0423 23.353L16.8085 25.2222C16.4371 25.533 15.8964 25.533 15.525 25.2222L13.2912 23.353L11.0574 25.2222C10.686 25.533 10.1453 25.533 9.77386 25.2222L7.37756 23.217C6.95401 22.8626 6.89797 22.2319 7.2524 21.8084C7.60683 21.3848 8.23751 21.3288 8.66106 21.6832L10.4156 23.1514L12.6494 21.2822Z" fill="url(#paint16_linear_68_3200)"/>
<path fill-rule="evenodd" clip-rule="evenodd" d="M12.6494 21.2822C13.0208 20.9714 13.5615 20.9714 13.9329 21.2822L16.1667 23.1514L18.4005 21.2822C18.7719 20.9714 19.3127 20.9714 19.6841 21.2822L21.9179 23.1514L23.6724 21.6832C24.096 21.3288 24.7267 21.3848 25.0811 21.8084C25.4355 22.2319 25.3795 22.8626 24.9559 23.217L22.5596 25.2222C22.1882 25.533 21.6475 25.533 21.2761 25.2222L19.0423 23.353L16.8085 25.2222C16.4371 25.533 15.8964 25.533 15.525 25.2222L13.2912 23.353L11.0574 25.2222C10.686 25.533 10.1453 25.533 9.77386 25.2222L7.37756 23.217C6.95401 22.8626 6.89797 22.2319 7.2524 21.8084C7.60683 21.3848 8.23751 21.3288 8.66106 21.6832L10.4156 23.1514L12.6494 21.2822Z" fill="url(#paint17_linear_68_3200)"/>
<path fill-rule="evenodd" clip-rule="evenodd" d="M12.6494 21.2822C13.0208 20.9714 13.5615 20.9714 13.9329 21.2822L16.1667 23.1514L18.4005 21.2822C18.7719 20.9714 19.3127 20.9714 19.6841 21.2822L21.9179 23.1514L23.6724 21.6832C24.096 21.3288 24.7267 21.3848 25.0811 21.8084C25.4355 22.2319 25.3795 22.8626 24.9559 23.217L22.5596 25.2222C22.1882 25.533 21.6475 25.533 21.2761 25.2222L19.0423 23.353L16.8085 25.2222C16.4371 25.533 15.8964 25.533 15.525 25.2222L13.2912 23.353L11.0574 25.2222C10.686 25.533 10.1453 25.533 9.77386 25.2222L7.37756 23.217C6.95401 22.8626 6.89797 22.2319 7.2524 21.8084C7.60683 21.3848 8.23751 21.3288 8.66106 21.6832L10.4156 23.1514L12.6494 21.2822Z" fill="url(#paint18_linear_68_3200)"/>
<path fill-rule="evenodd" clip-rule="evenodd" d="M12.6494 21.2822C13.0208 20.9714 13.5615 20.9714 13.9329 21.2822L16.1667 23.1514L18.4005 21.2822C18.7719 20.9714 19.3127 20.9714 19.6841 21.2822L21.9179 23.1514L23.6724 21.6832C24.096 21.3288 24.7267 21.3848 25.0811 21.8084C25.4355 22.2319 25.3795 22.8626 24.9559 23.217L22.5596 25.2222C22.1882 25.533 21.6475 25.533 21.2761 25.2222L19.0423 23.353L16.8085 25.2222C16.4371 25.533 15.8964 25.533 15.525 25.2222L13.2912 23.353L11.0574 25.2222C10.686 25.533 10.1453 25.533 9.77386 25.2222L7.37756 23.217C6.95401 22.8626 6.89797 22.2319 7.2524 21.8084C7.60683 21.3848 8.23751 21.3288 8.66106 21.6832L10.4156 23.1514L12.6494 21.2822Z" fill="url(#paint19_radial_68_3200)"/>
<path fill-rule="evenodd" clip-rule="evenodd" d="M12.6494 21.2822C13.0208 20.9714 13.5615 20.9714 13.9329 21.2822L16.1667 23.1514L18.4005 21.2822C18.7719 20.9714 19.3127 20.9714 19.6841 21.2822L21.9179 23.1514L23.6724 21.6832C24.096 21.3288 24.7267 21.3848 25.0811 21.8084C25.4355 22.2319 25.3795 22.8626 24.9559 23.217L22.5596 25.2222C22.1882 25.533 21.6475 25.533 21.2761 25.2222L19.0423 23.353L16.8085 25.2222C16.4371 25.533 15.8964 25.533 15.525 25.2222L13.2912 23.353L11.0574 25.2222C10.686 25.533 10.1453 25.533 9.77386 25.2222L7.37756 23.217C6.95401 22.8626 6.89797 22.2319 7.2524 21.8084C7.60683 21.3848 8.23751 21.3288 8.66106 21.6832L10.4156 23.1514L12.6494 21.2822Z" fill="url(#paint20_radial_68_3200)"/>
<path fill-rule="evenodd" clip-rule="evenodd" d="M12.6494 21.2822C13.0208 20.9714 13.5615 20.9714 13.9329 21.2822L16.1667 23.1514L18.4005 21.2822C18.7719 20.9714 19.3127 20.9714 19.6841 21.2822L21.9179 23.1514L23.6724 21.6832C24.096 21.3288 24.7267 21.3848 25.0811 21.8084C25.4355 22.2319 25.3795 22.8626 24.9559 23.217L22.5596 25.2222C22.1882 25.533 21.6475 25.533 21.2761 25.2222L19.0423 23.353L16.8085 25.2222C16.4371 25.533 15.8964 25.533 15.525 25.2222L13.2912 23.353L11.0574 25.2222C10.686 25.533 10.1453 25.533 9.77386 25.2222L7.37756 23.217C6.95401 22.8626 6.89797 22.2319 7.2524 21.8084C7.60683 21.3848 8.23751 21.3288 8.66106 21.6832L10.4156 23.1514L12.6494 21.2822Z" fill="url(#paint21_radial_68_3200)"/>
<path fill-rule="evenodd" clip-rule="evenodd" d="M12.6494 21.2822C13.0208 20.9714 13.5615 20.9714 13.9329 21.2822L16.1667 23.1514L18.4005 21.2822C18.7719 20.9714 19.3127 20.9714 19.6841 21.2822L21.9179 23.1514L23.6724 21.6832C24.096 21.3288 24.7267 21.3848 25.0811 21.8084C25.4355 22.2319 25.3795 22.8626 24.9559 23.217L22.5596 25.2222C22.1882 25.533 21.6475 25.533 21.2761 25.2222L19.0423 23.353L16.8085 25.2222C16.4371 25.533 15.8964 25.533 15.525 25.2222L13.2912 23.353L11.0574 25.2222C10.686 25.533 10.1453 25.533 9.77386 25.2222L7.37756 23.217C6.95401 22.8626 6.89797 22.2319 7.2524 21.8084C7.60683 21.3848 8.23751 21.3288 8.66106 21.6832L10.4156 23.1514L12.6494 21.2822Z" fill="url(#paint22_radial_68_3200)"/>
<path fill-rule="evenodd" clip-rule="evenodd" d="M12.6494 21.2822C13.0208 20.9714 13.5615 20.9714 13.9329 21.2822L16.1667 23.1514L18.4005 21.2822C18.7719 20.9714 19.3127 20.9714 19.6841 21.2822L21.9179 23.1514L23.6724 21.6832C24.096 21.3288 24.7267 21.3848 25.0811 21.8084C25.4355 22.2319 25.3795 22.8626 24.9559 23.217L22.5596 25.2222C22.1882 25.533 21.6475 25.533 21.2761 25.2222L19.0423 23.353L16.8085 25.2222C16.4371 25.533 15.8964 25.533 15.525 25.2222L13.2912 23.353L11.0574 25.2222C10.686 25.533 10.1453 25.533 9.77386 25.2222L7.37756 23.217C6.95401 22.8626 6.89797 22.2319 7.2524 21.8084C7.60683 21.3848 8.23751 21.3288 8.66106 21.6832L10.4156 23.1514L12.6494 21.2822Z" fill="url(#paint23_radial_68_3200)"/>
<path fill-rule="evenodd" clip-rule="evenodd" d="M12.6494 21.2822C13.0208 20.9714 13.5615 20.9714 13.9329 21.2822L16.1667 23.1514L18.4005 21.2822C18.7719 20.9714 19.3127 20.9714 19.6841 21.2822L21.9179 23.1514L23.6724 21.6832C24.096 21.3288 24.7267 21.3848 25.0811 21.8084C25.4355 22.2319 25.3795 22.8626 24.9559 23.217L22.5596 25.2222C22.1882 25.533 21.6475 25.533 21.2761 25.2222L19.0423 23.353L16.8085 25.2222C16.4371 25.533 15.8964 25.533 15.525 25.2222L13.2912 23.353L11.0574 25.2222C10.686 25.533 10.1453 25.533 9.77386 25.2222L7.37756 23.217C6.95401 22.8626 6.89797 22.2319 7.2524 21.8084C7.60683 21.3848 8.23751 21.3288 8.66106 21.6832L10.4156 23.1514L12.6494 21.2822Z" fill="url(#paint24_radial_68_3200)"/>
<path fill-rule="evenodd" clip-rule="evenodd" d="M12.6494 21.2822C13.0208 20.9714 13.5615 20.9714 13.9329 21.2822L16.1667 23.1514L18.4005 21.2822C18.7719 20.9714 19.3127 20.9714 19.6841 21.2822L21.9179 23.1514L23.6724 21.6832C24.096 21.3288 24.7267 21.3848 25.0811 21.8084C25.4355 22.2319 25.3795 22.8626 24.9559 23.217L22.5596 25.2222C22.1882 25.533 21.6475 25.533 21.2761 25.2222L19.0423 23.353L16.8085 25.2222C16.4371 25.533 15.8964 25.533 15.525 25.2222L13.2912 23.353L11.0574 25.2222C10.686 25.533 10.1453 25.533 9.77386 25.2222L7.37756 23.217C6.95401 22.8626 6.89797 22.2319 7.2524 21.8084C7.60683 21.3848 8.23751 21.3288 8.66106 21.6832L10.4156 23.1514L12.6494 21.2822Z" fill="url(#paint25_radial_68_3200)"/>
<path d="M9.61311 18.8898C9.11913 19.1368 8.51846 18.9366 8.27147 18.4426C8.02448 17.9486 8.22471 17.3479 8.71868 17.101L10.9252 15.9977L12.6656 15.4999L14.1659 15.9977C14.165 16.3756 13.9512 16.7208 13.6131 16.8898L9.61311 18.8898Z" fill="url(#paint26_linear_68_3200)"/>
<path d="M9.61311 18.8898C9.11913 19.1368 8.51846 18.9366 8.27147 18.4426C8.02448 17.9486 8.22471 17.3479 8.71868 17.101L10.9252 15.9977L12.6656 15.4999L14.1659 15.9977C14.165 16.3756 13.9512 16.7208 13.6131 16.8898L9.61311 18.8898Z" fill="url(#paint27_linear_68_3200)"/>
<path d="M9.61311 18.8898C9.11913 19.1368 8.51846 18.9366 8.27147 18.4426C8.02448 17.9486 8.22471 17.3479 8.71868 17.101L10.9252 15.9977L12.6656 15.4999L14.1659 15.9977C14.165 16.3756 13.9512 16.7208 13.6131 16.8898L9.61311 18.8898Z" fill="url(#paint28_radial_68_3200)"/>
<path d="M9.61311 13.1058C9.11913 12.8588 8.51846 13.059 8.27147 13.553C8.02448 14.047 8.22471 14.6477 8.71868 14.8946L10.9252 15.9979H14.1659C14.165 15.62 13.9512 15.2748 13.6131 15.1058L9.61311 13.1058Z" fill="url(#paint29_linear_68_3200)"/>
<path d="M9.61311 13.1058C9.11913 12.8588 8.51846 13.059 8.27147 13.553C8.02448 14.047 8.22471 14.6477 8.71868 14.8946L10.9252 15.9979H14.1659C14.165 15.62 13.9512 15.2748 13.6131 15.1058L9.61311 13.1058Z" fill="url(#paint30_linear_68_3200)"/>
<path d="M9.61311 13.1058C9.11913 12.8588 8.51846 13.059 8.27147 13.553C8.02448 14.047 8.22471 14.6477 8.71868 14.8946L10.9252 15.9979H14.1659C14.165 15.62 13.9512 15.2748 13.6131 15.1058L9.61311 13.1058Z" fill="url(#paint31_radial_68_3200)"/>
<path d="M22.7028 18.8898C23.1968 19.1368 23.7975 18.9366 24.0444 18.4426C24.2914 17.9486 24.0912 17.3479 23.5972 17.101L21.3907 15.9977L19.6656 15.4999L18.15 15.9977C18.1509 16.3756 18.3647 16.7208 18.7028 16.8898L22.7028 18.8898Z" fill="url(#paint32_linear_68_3200)"/>
<path d="M22.7028 18.8898C23.1968 19.1368 23.7975 18.9366 24.0444 18.4426C24.2914 17.9486 24.0912 17.3479 23.5972 17.101L21.3907 15.9977L19.6656 15.4999L18.15 15.9977C18.1509 16.3756 18.3647 16.7208 18.7028 16.8898L22.7028 18.8898Z" fill="url(#paint33_linear_68_3200)"/>
<path d="M22.7028 13.1058C23.1968 12.8588 23.7975 13.059 24.0444 13.553C24.2914 14.047 24.0912 14.6477 23.5972 14.8946L21.3907 15.9979H18.15C18.1509 15.62 18.3647 15.2748 18.7028 15.1058L22.7028 13.1058Z" fill="url(#paint34_linear_68_3200)"/>
<path d="M22.7028 13.1058C23.1968 12.8588 23.7975 13.059 24.0444 13.553C24.2914 14.047 24.0912 14.6477 23.5972 14.8946L21.3907 15.9979H18.15C18.1509 15.62 18.3647 15.2748 18.7028 15.1058L22.7028 13.1058Z" fill="url(#paint35_radial_68_3200)"/>
<path d="M22.7028 13.1058C23.1968 12.8588 23.7975 13.059 24.0444 13.553C24.2914 14.047 24.0912 14.6477 23.5972 14.8946L21.3907 15.9979H18.15C18.1509 15.62 18.3647 15.2748 18.7028 15.1058L22.7028 13.1058Z" fill="url(#paint36_radial_68_3200)"/>
<path d="M22.7028 13.1058C23.1968 12.8588 23.7975 13.059 24.0444 13.553C24.2914 14.047 24.0912 14.6477 23.5972 14.8946L21.3907 15.9979H18.15C18.1509 15.62 18.3647 15.2748 18.7028 15.1058L22.7028 13.1058Z" fill="url(#paint37_linear_68_3200)"/>
<defs>
<radialGradient id="paint0_radial_68_3200" cx="0" cy="0" r="1" gradientUnits="userSpaceOnUse" gradientTransform="translate(25.6656 9) rotate(132.839) scale(37.5033)">
<stop stop-color="#FFF478"/>
<stop offset="0.474827" stop-color="#FFB02E"/>
<stop offset="1" stop-color="#F70A8D"/>
</radialGradient>
<radialGradient id="paint1_radial_68_3200" cx="0" cy="0" r="1" gradientUnits="userSpaceOnUse" gradientTransform="translate(16.1657 12.5) rotate(101.31) scale(17.8466 22.8581)">
<stop offset="0.787821" stop-color="#F59639" stop-opacity="0"/>
<stop offset="0.972509" stop-color="#FF7DCE"/>
</radialGradient>
<radialGradient id="paint2_radial_68_3200" cx="0" cy="0" r="1" gradientUnits="userSpaceOnUse" gradientTransform="translate(18.1657 14) rotate(135) scale(41.0122)">
<stop offset="0.314853" stop-opacity="0"/>
<stop offset="1"/>
</radialGradient>
<radialGradient id="paint3_radial_68_3200" cx="0" cy="0" r="1" gradientUnits="userSpaceOnUse" gradientTransform="translate(16.1657 17) rotate(77.692) scale(28.1469)">
<stop offset="0.507903" stop-color="#7D6133" stop-opacity="0"/>
<stop offset="1" stop-color="#715B32"/>
</radialGradient>
<radialGradient id="paint4_radial_68_3200" cx="0" cy="0" r="1" gradientUnits="userSpaceOnUse" gradientTransform="translate(16.6656 16.5) rotate(55.7131) scale(13.3135 9.65032)">
<stop stop-color="#FFB849"/>
<stop offset="1" stop-color="#FFB847" stop-opacity="0"/>
</radialGradient>
<radialGradient id="paint5_radial_68_3200" cx="0" cy="0" r="1" gradientUnits="userSpaceOnUse" gradientTransform="translate(20.6656 18) rotate(9.86581) scale(11.6726)">
<stop stop-color="#FFA64B"/>
<stop offset="0.900412" stop-color="#FFAE46" stop-opacity="0"/>
</radialGradient>
<radialGradient id="paint6_radial_68_3200" cx="0" cy="0" r="1" gradientUnits="userSpaceOnUse" gradientTransform="translate(17.6656 15) rotate(43.9708) scale(59.0529)">
<stop offset="0.185425" stop-opacity="0"/>
<stop offset="1" stop-opacity="0.4"/>
</radialGradient>
<radialGradient id="paint7_radial_68_3200" cx="0" cy="0" r="1" gradientUnits="userSpaceOnUse" gradientTransform="translate(10.1656 15) rotate(108.435) scale(1.58114 2.45077)">
<stop stop-color="#D07E2D"/>
<stop offset="1" stop-color="#D98833" stop-opacity="0"/>
</radialGradient>
<radialGradient id="paint8_radial_68_3200" cx="0" cy="0" r="1" gradientUnits="userSpaceOnUse" gradientTransform="translate(10.0738 17.1266) rotate(63.435) scale(1.69146 3.17531)">
<stop stop-color="#D07E2D"/>
<stop offset="1" stop-color="#D98833" stop-opacity="0"/>
</radialGradient>
<radialGradient id="paint9_radial_68_3200" cx="0" cy="0" r="1" gradientUnits="userSpaceOnUse" gradientTransform="translate(21.5488 17.6803) rotate(115.278) scale(1.88459 3.59154)">
<stop stop-color="#D07E2D"/>
<stop offset="1" stop-color="#D98833" stop-opacity="0"/>
</radialGradient>
<radialGradient id="paint10_radial_68_3200" cx="0" cy="0" r="1" gradientUnits="userSpaceOnUse" gradientTransform="translate(16.1646 23.7526) rotate(-0.80247) scale(10.6144 3.89632)">
<stop stop-color="#C37F30"/>
<stop offset="1" stop-color="#C37F30" stop-opacity="0"/>
</radialGradient>
<radialGradient id="paint11_radial_68_3200" cx="0" cy="0" r="1" gradientUnits="userSpaceOnUse" gradientTransform="translate(19.6619 23.6165) rotate(38.9275) scale(3.08886 1.54971)">
<stop stop-color="#CD6256"/>
<stop offset="1" stop-color="#CD6256" stop-opacity="0"/>
</radialGradient>
<radialGradient id="paint12_radial_68_3200" cx="0" cy="0" r="1" gradientUnits="userSpaceOnUse" gradientTransform="translate(13.8086 23.6473) rotate(43.1524) scale(2.70261 1.33012)">
<stop stop-color="#CD6256"/>
<stop offset="1" stop-color="#CD6256" stop-opacity="0"/>
</radialGradient>
<linearGradient id="paint13_linear_68_3200" x1="9.45084" y1="22.3281" x2="8.16568" y2="23.8984" gradientUnits="userSpaceOnUse">
<stop stop-color="#57434E" stop-opacity="0"/>
<stop offset="0.302083" stop-color="#57434E"/>
<stop offset="1" stop-color="#57434E" stop-opacity="0"/>
</linearGradient>
<linearGradient id="paint14_linear_68_3200" x1="15.1735" y1="22.2969" x2="13.8688" y2="23.8516" gradientUnits="userSpaceOnUse">
<stop stop-color="#57434E" stop-opacity="0"/>
<stop offset="0.302083" stop-color="#57434E"/>
<stop offset="1" stop-color="#57434E" stop-opacity="0"/>
</linearGradient>
<linearGradient id="paint15_linear_68_3200" x1="20.8454" y1="22.2422" x2="19.5172" y2="23.7734" gradientUnits="userSpaceOnUse">
<stop stop-color="#57434E" stop-opacity="0"/>
<stop offset="0.302083" stop-color="#57434E"/>
<stop offset="1" stop-color="#57434E" stop-opacity="0"/>
</linearGradient>
<linearGradient id="paint16_linear_68_3200" x1="22.8688" y1="22.3594" x2="24.2126" y2="23.8906" gradientUnits="userSpaceOnUse">
<stop stop-color="#57434E" stop-opacity="0"/>
<stop offset="0.302083" stop-color="#57434E"/>
<stop offset="1" stop-color="#57434E" stop-opacity="0"/>
</linearGradient>
<linearGradient id="paint17_linear_68_3200" x1="17.1657" y1="22.1875" x2="18.5055" y2="23.9297" gradientUnits="userSpaceOnUse">
<stop stop-color="#57434E" stop-opacity="0"/>
<stop offset="0.302083" stop-color="#57434E"/>
<stop offset="1" stop-color="#57434E" stop-opacity="0"/>
</linearGradient>
<linearGradient id="paint18_linear_68_3200" x1="11.4313" y1="22.2344" x2="12.7594" y2="23.8125" gradientUnits="userSpaceOnUse">
<stop stop-color="#57434E" stop-opacity="0"/>
<stop offset="0.302083" stop-color="#57434E"/>
<stop offset="1" stop-color="#57434E" stop-opacity="0"/>
</linearGradient>
<radialGradient id="paint19_radial_68_3200" cx="0" cy="0" r="1" gradientUnits="userSpaceOnUse" gradientTransform="translate(21.0094 25.1875) rotate(133.716) scale(1.23222)">
<stop stop-color="#4A2942"/>
<stop offset="1" stop-color="#4A2942" stop-opacity="0"/>
</radialGradient>
<radialGradient id="paint20_radial_68_3200" cx="0" cy="0" r="1" gradientUnits="userSpaceOnUse" gradientTransform="translate(22.8844 25.1875) rotate(40.4622) scale(1.04737)">
<stop stop-color="#4A2942"/>
<stop offset="1" stop-color="#4A2942" stop-opacity="0"/>
</radialGradient>
<radialGradient id="paint21_radial_68_3200" cx="0" cy="0" r="1" gradientUnits="userSpaceOnUse" gradientTransform="translate(17.1657 25.1406) rotate(48.2981) scale(1.63236)">
<stop stop-color="#4A2942"/>
<stop offset="1" stop-color="#4A2942" stop-opacity="0"/>
</radialGradient>
<radialGradient id="paint22_radial_68_3200" cx="0" cy="0" r="1" gradientUnits="userSpaceOnUse" gradientTransform="translate(15.0311 25.017) rotate(135.405) scale(1.72904)">
<stop stop-color="#4A2942"/>
<stop stop-color="#4A2942" stop-opacity="0.937649"/>
<stop offset="1" stop-color="#4A2942" stop-opacity="0"/>
</radialGradient>
<radialGradient id="paint23_radial_68_3200" cx="0" cy="0" r="1" gradientUnits="userSpaceOnUse" gradientTransform="translate(11.4001 25.0938) rotate(35.5679) scale(1.71919)">
<stop stop-color="#4A2942"/>
<stop stop-color="#4A2942" stop-opacity="0.937649"/>
<stop offset="1" stop-color="#4A2942" stop-opacity="0"/>
</radialGradient>
<radialGradient id="paint24_radial_68_3200" cx="0" cy="0" r="1" gradientUnits="userSpaceOnUse" gradientTransform="translate(9.14224 24.9609) rotate(136.005) scale(1.57466)">
<stop stop-color="#4A2942"/>
<stop stop-color="#4A2942" stop-opacity="0.937649"/>
<stop offset="1" stop-color="#4A2942" stop-opacity="0"/>
</radialGradient>
<radialGradient id="paint25_radial_68_3200" cx="0" cy="0" r="1" gradientUnits="userSpaceOnUse" gradientTransform="translate(16.1667 23.8438) rotate(90) scale(3.15625 10.6815)">
<stop offset="0.745174" stop-color="#4A2942" stop-opacity="0"/>
<stop offset="1" stop-color="#4A2942"/>
</radialGradient>
<linearGradient id="paint26_linear_68_3200" x1="10.6378" y1="19.7651" x2="8.16565" y2="14.8505" gradientUnits="userSpaceOnUse">
<stop offset="0.21392" stop-color="#492741"/>
<stop offset="0.331485" stop-color="#503A4A"/>
<stop offset="0.511203" stop-color="#482641"/>
</linearGradient>
<linearGradient id="paint27_linear_68_3200" x1="10.4661" y1="15.9977" x2="10.582" y2="16.473" gradientUnits="userSpaceOnUse">
<stop stop-color="#2D1721"/>
<stop offset="1" stop-color="#2D1721" stop-opacity="0"/>
</linearGradient>
<radialGradient id="paint28_radial_68_3200" cx="0" cy="0" r="1" gradientUnits="userSpaceOnUse" gradientTransform="translate(12.4837 16.2903) rotate(-148.405) scale(5.68231)">
<stop offset="0.631717" stop-color="#492741" stop-opacity="0"/>
<stop offset="0.798224" stop-color="#492741"/>
</radialGradient>
<linearGradient id="paint29_linear_68_3200" x1="9.02527" y1="16.1385" x2="10.8545" y2="12.9124" gradientUnits="userSpaceOnUse">
<stop offset="0.162863" stop-color="#22161C"/>
<stop offset="0.435713" stop-color="#482641"/>
<stop offset="0.631598" stop-color="#503A4A"/>
</linearGradient>
<linearGradient id="paint30_linear_68_3200" x1="10.4661" y1="15.9979" x2="10.582" y2="15.5226" gradientUnits="userSpaceOnUse">
<stop stop-color="#2D1721"/>
<stop offset="1" stop-color="#2D1721" stop-opacity="0"/>
</linearGradient>
<radialGradient id="paint31_radial_68_3200" cx="0" cy="0" r="1" gradientUnits="userSpaceOnUse" gradientTransform="translate(12.4837 15.7053) rotate(148.405) scale(5.68231)">
<stop offset="0.631717" stop-color="#492741" stop-opacity="0"/>
<stop offset="0.798224" stop-color="#492741"/>
</radialGradient>
<linearGradient id="paint32_linear_68_3200" x1="21.5719" y1="19.7321" x2="24.1502" y2="14.3883" gradientUnits="userSpaceOnUse">
<stop offset="0.207167" stop-color="#381B32"/>
<stop offset="0.277026" stop-color="#482641"/>
<stop offset="0.390091" stop-color="#503A4A"/>
<stop offset="0.516907" stop-color="#503A4A"/>
<stop offset="0.651166" stop-color="#482641"/>
</linearGradient>
<linearGradient id="paint33_linear_68_3200" x1="21.8498" y1="15.9977" x2="21.7339" y2="16.473" gradientUnits="userSpaceOnUse">
<stop stop-color="#2D1721"/>
<stop offset="1" stop-color="#2D1721" stop-opacity="0"/>
</linearGradient>
<linearGradient id="paint34_linear_68_3200" x1="23.2906" y1="16.1385" x2="20.9" y2="11.451" gradientUnits="userSpaceOnUse">
<stop offset="0.162402" stop-color="#482641"/>
<stop offset="0.296966" stop-color="#503A4A"/>
<stop offset="0.39491" stop-color="#503A4A"/>
<stop offset="0.511203" stop-color="#482641"/>
</linearGradient>
<radialGradient id="paint35_radial_68_3200" cx="0" cy="0" r="1" gradientUnits="userSpaceOnUse" gradientTransform="translate(19.4691 15.7783) rotate(29.1673) scale(5.95871)">
<stop offset="0.631717" stop-color="#492741" stop-opacity="0"/>
<stop offset="0.798224" stop-color="#492741"/>
</radialGradient>
<radialGradient id="paint36_radial_68_3200" cx="0" cy="0" r="1" gradientUnits="userSpaceOnUse" gradientTransform="translate(23.6861 13.6566) rotate(134.019) scale(0.898479 1.62536)">
<stop stop-color="#5E5051"/>
<stop offset="1" stop-color="#5E5051" stop-opacity="0"/>
</radialGradient>
<linearGradient id="paint37_linear_68_3200" x1="21.8498" y1="15.9979" x2="21.7339" y2="15.5226" gradientUnits="userSpaceOnUse">
<stop stop-color="#2D1721"/>
<stop offset="1" stop-color="#2D1721" stop-opacity="0"/>
</linearGradient>
</defs>
</svg>
