<svg width="32" height="32" viewBox="0 0 32 32" fill="none" xmlns="http://www.w3.org/2000/svg">
<path d="M15.9989 29.9978C25.3333 29.9978 29.9978 23.7303 29.9978 15.9989C29.9978 8.26751 25.3333 2 15.9989 2C6.66443 2 2 8.26751 2 15.9989C2 23.7303 6.66443 29.9978 15.9989 29.9978Z" fill="url(#paint0_radial_68_3197)"/>
<path d="M15.9989 29.9978C25.3333 29.9978 29.9978 23.7303 29.9978 15.9989C29.9978 8.26751 25.3333 2 15.9989 2C6.66443 2 2 8.26751 2 15.9989C2 23.7303 6.66443 29.9978 15.9989 29.9978Z" fill="url(#paint1_radial_68_3197)"/>
<path d="M15.9989 29.9978C25.3333 29.9978 29.9978 23.7303 29.9978 15.9989C29.9978 8.26751 25.3333 2 15.9989 2C6.66443 2 2 8.26751 2 15.9989C2 23.7303 6.66443 29.9978 15.9989 29.9978Z" fill="url(#paint2_radial_68_3197)" fill-opacity="0.6"/>
<path d="M15.9989 29.9978C25.3333 29.9978 29.9978 23.7303 29.9978 15.9989C29.9978 8.26751 25.3333 2 15.9989 2C6.66443 2 2 8.26751 2 15.9989C2 23.7303 6.66443 29.9978 15.9989 29.9978Z" fill="url(#paint3_radial_68_3197)"/>
<path d="M15.9989 29.9978C25.3333 29.9978 29.9978 23.7303 29.9978 15.9989C29.9978 8.26751 25.3333 2 15.9989 2C6.66443 2 2 8.26751 2 15.9989C2 23.7303 6.66443 29.9978 15.9989 29.9978Z" fill="url(#paint4_radial_68_3197)"/>
<path d="M15.9989 29.9978C25.3333 29.9978 29.9978 23.7303 29.9978 15.9989C29.9978 8.26751 25.3333 2 15.9989 2C6.66443 2 2 8.26751 2 15.9989C2 23.7303 6.66443 29.9978 15.9989 29.9978Z" fill="url(#paint5_radial_68_3197)"/>
<path d="M15.9989 29.9978C25.3333 29.9978 29.9978 23.7303 29.9978 15.9989C29.9978 8.26751 25.3333 2 15.9989 2C6.66443 2 2 8.26751 2 15.9989C2 23.7303 6.66443 29.9978 15.9989 29.9978Z" fill="url(#paint6_radial_68_3197)"/>
<path fill-rule="evenodd" clip-rule="evenodd" d="M7.697 16.2829C7.30573 15.9024 6.68007 15.9057 6.29289 16.2929C5.90237 16.6834 5.90237 17.3166 6.29289 17.7071L6.29432 17.7085L6.29585 17.7101L6.29922 17.7134L6.30713 17.7211L6.32778 17.7408C6.34367 17.7557 6.36387 17.7741 6.38837 17.7955C6.43735 17.8384 6.5037 17.8934 6.5875 17.9562C6.75496 18.0818 6.99328 18.2397 7.30279 18.3944C7.92507 18.7056 8.82724 19 10 19C11.1728 19 12.0749 18.7056 12.6972 18.3944C13.0067 18.2397 13.245 18.0818 13.4125 17.9562C13.4963 17.8934 13.5627 17.8384 13.6116 17.7955C14.055 17.4076 14.1453 16.731 13.7071 16.2929C13.3199 15.9057 12.6943 15.9024 12.303 16.2829C12.3015 16.2843 12.2987 16.2868 12.2946 16.2904C12.2811 16.3022 12.2537 16.3253 12.2125 16.3562C12.13 16.4182 11.9933 16.5103 11.8028 16.6056C11.4251 16.7944 10.8272 17 10 17C9.17276 17 8.57493 16.7944 8.19721 16.6056C8.00672 16.5103 7.87004 16.4182 7.7875 16.3562C7.7463 16.3253 7.7189 16.3022 7.70538 16.2904C7.70132 16.2868 7.69852 16.2843 7.697 16.2829Z" fill="url(#paint7_linear_68_3197)"/>
<path fill-rule="evenodd" clip-rule="evenodd" d="M19.697 16.2829C19.3057 15.9024 18.6801 15.9057 18.2929 16.2929C17.9024 16.6834 17.9024 17.3166 18.2929 17.7071L18.2943 17.7085L18.2959 17.7101L18.2992 17.7134L18.3071 17.7211L18.3278 17.7408C18.3437 17.7557 18.3639 17.7741 18.3884 17.7955C18.4373 17.8384 18.5037 17.8934 18.5875 17.9562C18.755 18.0818 18.9933 18.2397 19.3028 18.3944C19.9251 18.7056 20.8272 19 22 19C23.1728 19 24.0749 18.7056 24.6972 18.3944C25.0067 18.2397 25.245 18.0818 25.4125 17.9562C25.4963 17.8934 25.5627 17.8384 25.6116 17.7955C25.6393 17.7713 25.6663 17.7464 25.6929 17.7211L25.7008 17.7134L25.7041 17.7101L25.7057 17.7085L25.7064 17.7078C26.0969 17.3173 26.0976 16.6834 25.7071 16.2929C25.3199 15.9057 24.6943 15.9024 24.303 16.2829C24.3015 16.2843 24.2987 16.2868 24.2946 16.2904C24.2811 16.3022 24.2537 16.3253 24.2125 16.3562C24.13 16.4182 23.9933 16.5103 23.8028 16.6056C23.4251 16.7944 22.8272 17 22 17C21.1728 17 20.5749 16.7944 20.1972 16.6056C20.0067 16.5103 19.87 16.4182 19.7875 16.3562C19.7463 16.3253 19.7189 16.3022 19.7054 16.2904C19.7013 16.2868 19.6985 16.2843 19.697 16.2829Z" fill="url(#paint8_linear_68_3197)"/>
<path fill-rule="evenodd" clip-rule="evenodd" d="M12 25C12 24.4477 12.4477 24 13 24H19C19.5523 24 20 24.4477 20 25C20 25.5523 19.5523 26 19 26H13C12.4477 26 12 25.5523 12 25Z" fill="url(#paint9_linear_68_3197)"/>
<path d="M9.88394 8.3946L9.88404 8.39408L9.88404 8.39406C9.94225 8.05532 10.2633 7.82691 10.6028 7.88348C10.9402 7.93972 11.1692 8.25656 11.1179 8.59369C11.1173 8.59831 11.1165 8.6029 11.1157 8.60746L11.1152 8.61044L11.113 8.62256C11.1112 8.63209 11.1088 8.64446 11.1057 8.65951C11.0995 8.68958 11.0905 8.73041 11.078 8.78047C11.053 8.88042 11.0139 9.0181 10.955 9.181C10.8379 9.50531 10.6395 9.93891 10.3125 10.375C9.64177 11.2693 8.46251 12.125 6.5 12.125C6.15482 12.125 5.875 11.8452 5.875 11.5C5.875 11.1548 6.15482 10.875 6.5 10.875C8.03749 10.875 8.85823 10.2307 9.3125 9.62498C9.54795 9.31104 9.69333 8.99464 9.77934 8.75645C9.82208 8.63811 9.84931 8.54141 9.86534 8.4773C9.87334 8.44532 9.87848 8.4217 9.88133 8.40783L9.88394 8.3946Z" fill="url(#paint10_linear_68_3197)"/>
<path d="M9.88394 8.3946L9.88404 8.39408L9.88404 8.39406C9.94225 8.05532 10.2633 7.82691 10.6028 7.88348C10.9402 7.93972 11.1692 8.25656 11.1179 8.59369C11.1173 8.59831 11.1165 8.6029 11.1157 8.60746L11.1152 8.61044L11.113 8.62256C11.1112 8.63209 11.1088 8.64446 11.1057 8.65951C11.0995 8.68958 11.0905 8.73041 11.078 8.78047C11.053 8.88042 11.0139 9.0181 10.955 9.181C10.8379 9.50531 10.6395 9.93891 10.3125 10.375C9.64177 11.2693 8.46251 12.125 6.5 12.125C6.15482 12.125 5.875 11.8452 5.875 11.5C5.875 11.1548 6.15482 10.875 6.5 10.875C8.03749 10.875 8.85823 10.2307 9.3125 9.62498C9.54795 9.31104 9.69333 8.99464 9.77934 8.75645C9.82208 8.63811 9.84931 8.54141 9.86534 8.4773C9.87334 8.44532 9.87848 8.4217 9.88133 8.40783L9.88394 8.3946Z" fill="url(#paint11_radial_68_3197)"/>
<path d="M22.1161 8.39408C22.0579 8.05534 21.7368 7.82691 21.3973 7.88348C21.0599 7.93972 20.8309 8.25656 20.8822 8.59369C20.8828 8.5983 20.8836 8.6029 20.8844 8.60746L20.8849 8.61044L20.8871 8.62256C20.8889 8.63208 20.8913 8.64446 20.8944 8.65951C20.9005 8.68958 20.9096 8.73041 20.9221 8.78047C20.9471 8.88042 20.9862 9.01809 21.0451 9.181C21.1622 9.50531 21.3606 9.93891 21.6876 10.375C22.3583 11.2693 23.5376 12.125 25.5001 12.125C25.8453 12.125 26.1251 11.8452 26.1251 11.5C26.1251 11.1548 25.8453 10.875 25.5001 10.875C23.9626 10.875 23.1419 10.2307 22.6876 9.62498C22.4521 9.31104 22.3068 8.99464 22.2208 8.75645C22.178 8.63811 22.1508 8.54141 22.1348 8.4773C22.1268 8.44532 22.1216 8.4217 22.1188 8.40783L22.1161 8.39408Z" fill="url(#paint12_radial_68_3197)"/>
<defs>
<radialGradient id="paint0_radial_68_3197" cx="0" cy="0" r="1" gradientUnits="userSpaceOnUse" gradientTransform="translate(25.5 9) rotate(131.878) scale(38.9487)">
<stop stop-color="#FFF478"/>
<stop offset="0.474827" stop-color="#FFB02E"/>
<stop offset="1" stop-color="#F70A8D"/>
</radialGradient>
<radialGradient id="paint1_radial_68_3197" cx="0" cy="0" r="1" gradientUnits="userSpaceOnUse" gradientTransform="translate(16 12.5) rotate(101.31) scale(17.8466 22.8581)">
<stop offset="0.787821" stop-color="#F59639" stop-opacity="0"/>
<stop offset="0.972509" stop-color="#FF7DCE"/>
</radialGradient>
<radialGradient id="paint2_radial_68_3197" cx="0" cy="0" r="1" gradientUnits="userSpaceOnUse" gradientTransform="translate(18 14) rotate(135) scale(41.0122)">
<stop offset="0.314853" stop-opacity="0"/>
<stop offset="1"/>
</radialGradient>
<radialGradient id="paint3_radial_68_3197" cx="0" cy="0" r="1" gradientUnits="userSpaceOnUse" gradientTransform="translate(16 17) rotate(77.692) scale(28.1469)">
<stop offset="0.507903" stop-color="#7D6133" stop-opacity="0"/>
<stop offset="1" stop-color="#715B32"/>
</radialGradient>
<radialGradient id="paint4_radial_68_3197" cx="0" cy="0" r="1" gradientUnits="userSpaceOnUse" gradientTransform="translate(16.5 16.5) rotate(55.7131) scale(13.3135 9.65032)">
<stop stop-color="#FFB849"/>
<stop offset="1" stop-color="#FFB847" stop-opacity="0"/>
</radialGradient>
<radialGradient id="paint5_radial_68_3197" cx="0" cy="0" r="1" gradientUnits="userSpaceOnUse" gradientTransform="translate(20.5 18) rotate(9.86581) scale(11.6726)">
<stop stop-color="#FFA64B"/>
<stop offset="0.900412" stop-color="#FFAE46" stop-opacity="0"/>
</radialGradient>
<radialGradient id="paint6_radial_68_3197" cx="0" cy="0" r="1" gradientUnits="userSpaceOnUse" gradientTransform="translate(17.5 15) rotate(43.9708) scale(59.0529)">
<stop offset="0.185425" stop-opacity="0"/>
<stop offset="1" stop-opacity="0.4"/>
</radialGradient>
<linearGradient id="paint7_linear_68_3197" x1="11.2" y1="16.75" x2="10.9649" y2="18.1608" gradientUnits="userSpaceOnUse">
<stop stop-color="#52383E"/>
<stop offset="1" stop-color="#432A35"/>
</linearGradient>
<linearGradient id="paint8_linear_68_3197" x1="23.2" y1="16.75" x2="22.9649" y2="18.1608" gradientUnits="userSpaceOnUse">
<stop stop-color="#52383E"/>
<stop offset="1" stop-color="#432A35"/>
</linearGradient>
<linearGradient id="paint9_linear_68_3197" x1="16" y1="24.5" x2="16" y2="25.5" gradientUnits="userSpaceOnUse">
<stop stop-color="#4F3C43"/>
<stop offset="1" stop-color="#512756"/>
</linearGradient>
<linearGradient id="paint10_linear_68_3197" x1="9.5" y1="8" x2="9.5" y2="9.5" gradientUnits="userSpaceOnUse">
<stop offset="0.0299084" stop-color="#524049"/>
<stop offset="1" stop-color="#4A2C42"/>
</linearGradient>
<radialGradient id="paint11_radial_68_3197" cx="0" cy="0" r="1" gradientUnits="userSpaceOnUse" gradientTransform="translate(7 8) rotate(54.4623) scale(4.30116)">
<stop offset="0.541667" stop-color="#493032"/>
<stop offset="0.806723" stop-color="#5E445A"/>
<stop offset="0.955326" stop-color="#4A2C42"/>
</radialGradient>
<radialGradient id="paint12_radial_68_3197" cx="0" cy="0" r="1" gradientUnits="userSpaceOnUse" gradientTransform="translate(25.0001 8) rotate(125.538) scale(4.30116)">
<stop stop-color="#C2B4B5"/>
<stop offset="0.887405" stop-color="#462B45"/>
<stop offset="1" stop-color="#4A2C42"/>
</radialGradient>
</defs>
</svg>
