<svg width="32" height="32" viewBox="0 0 32 32" fill="none" xmlns="http://www.w3.org/2000/svg">
<path d="M15.9989 29.9978C25.3333 29.9978 29.9978 23.7303 29.9978 15.9989C29.9978 8.26751 25.3333 2 15.9989 2C6.66443 2 2 8.26751 2 15.9989C2 23.7303 6.66443 29.9978 15.9989 29.9978Z" fill="url(#paint0_radial_68_3201)"/>
<path d="M15.9989 29.9978C25.3333 29.9978 29.9978 23.7303 29.9978 15.9989C29.9978 8.26751 25.3333 2 15.9989 2C6.66443 2 2 8.26751 2 15.9989C2 23.7303 6.66443 29.9978 15.9989 29.9978Z" fill="url(#paint1_linear_68_3201)"/>
<path d="M15.9989 29.9978C25.3333 29.9978 29.9978 23.7303 29.9978 15.9989C29.9978 8.26751 25.3333 2 15.9989 2C6.66443 2 2 8.26751 2 15.9989C2 23.7303 6.66443 29.9978 15.9989 29.9978Z" fill="url(#paint2_radial_68_3201)" fill-opacity="0.6"/>
<path d="M15.9989 29.9978C25.3333 29.9978 29.9978 23.7303 29.9978 15.9989C29.9978 8.26751 25.3333 2 15.9989 2C6.66443 2 2 8.26751 2 15.9989C2 23.7303 6.66443 29.9978 15.9989 29.9978Z" fill="url(#paint3_radial_68_3201)" fill-opacity="0.5"/>
<path d="M15.9989 29.9978C25.3333 29.9978 29.9978 23.7303 29.9978 15.9989C29.9978 8.26751 25.3333 2 15.9989 2C6.66443 2 2 8.26751 2 15.9989C2 23.7303 6.66443 29.9978 15.9989 29.9978Z" fill="url(#paint4_radial_68_3201)"/>
<path d="M15.9989 29.9978C25.3333 29.9978 29.9978 23.7303 29.9978 15.9989C29.9978 8.26751 25.3333 2 15.9989 2C6.66443 2 2 8.26751 2 15.9989C2 23.7303 6.66443 29.9978 15.9989 29.9978Z" fill="url(#paint5_radial_68_3201)"/>
<path d="M15.9989 29.9978C25.3333 29.9978 29.9978 23.7303 29.9978 15.9989C29.9978 8.26751 25.3333 2 15.9989 2C6.66443 2 2 8.26751 2 15.9989C2 23.7303 6.66443 29.9978 15.9989 29.9978Z" fill="url(#paint6_radial_68_3201)"/>
<path d="M15.9989 29.9978C25.3333 29.9978 29.9978 23.7303 29.9978 15.9989C29.9978 8.26751 25.3333 2 15.9989 2C6.66443 2 2 8.26751 2 15.9989C2 23.7303 6.66443 29.9978 15.9989 29.9978Z" fill="url(#paint7_radial_68_3201)"/>
<path d="M15.9989 29.9978C25.3333 29.9978 29.9978 23.7303 29.9978 15.9989C29.9978 8.26751 25.3333 2 15.9989 2C6.66443 2 2 8.26751 2 15.9989C2 23.7303 6.66443 29.9978 15.9989 29.9978Z" fill="url(#paint8_radial_68_3201)"/>
<path d="M15.9989 29.9978C25.3333 29.9978 29.9978 23.7303 29.9978 15.9989C29.9978 8.26751 25.3333 2 15.9989 2C6.66443 2 2 8.26751 2 15.9989C2 23.7303 6.66443 29.9978 15.9989 29.9978Z" fill="url(#paint9_radial_68_3201)"/>
<path d="M15.9989 29.9978C25.3333 29.9978 29.9978 23.7303 29.9978 15.9989C29.9978 8.26751 25.3333 2 15.9989 2C6.66443 2 2 8.26751 2 15.9989C2 23.7303 6.66443 29.9978 15.9989 29.9978Z" fill="url(#paint10_radial_68_3201)"/>
<path d="M10.5 21C12.9853 21 15 18.9853 15 16.5C15 14.0147 12.9853 12 10.5 12C8.01472 12 6 14.0147 6 16.5C6 18.9853 8.01472 21 10.5 21Z" fill="white"/>
<path d="M21.5 21C23.9853 21 26 18.9853 26 16.5C26 14.0147 23.9853 12 21.5 12C19.0147 12 17 14.0147 17 16.5C17 18.9853 19.0147 21 21.5 21Z" fill="white"/>
<path d="M12 19C13.1046 19 14 18.1046 14 17C14 15.8954 13.1046 15 12 15C10.8954 15 10 15.8954 10 17C10 18.1046 10.8954 19 12 19Z" fill="url(#paint11_linear_68_3201)"/>
<path d="M20 19C21.1046 19 22 18.1046 22 17C22 15.8954 21.1046 15 20 15C18.8954 15 18 15.8954 18 17C18 18.1046 18.8954 19 20 19Z" fill="url(#paint12_linear_68_3201)"/>
<path fill-rule="evenodd" clip-rule="evenodd" d="M10.9775 10.0674L10.9768 10.0646L10.9803 10.0774C10.9842 10.0908 10.9911 10.114 11.0014 10.1456C11.0221 10.2088 11.0563 10.3047 11.1069 10.4222C11.2088 10.6589 11.3729 10.9732 11.6193 11.2845C12.0991 11.8905 12.8962 12.5 14.2501 12.5C14.6643 12.5 15.0001 12.8358 15.0001 13.25C15.0001 13.6642 14.6643 14 14.2501 14C12.3539 14 11.151 13.1095 10.4433 12.2155C10.096 11.7768 9.86941 11.3411 9.72916 11.0153C9.65866 10.8516 9.60886 10.7131 9.57585 10.6123C9.55933 10.5618 9.54693 10.5205 9.5382 10.49C9.53384 10.4747 9.53038 10.4621 9.52778 10.4524L9.5245 10.4399L9.52332 10.4354L9.52285 10.4335L9.52245 10.4319C9.42199 10.0301 9.66631 9.62285 10.0682 9.52239C10.4688 9.42223 10.8748 9.66483 10.9768 10.0646L10.9771 10.0657L10.9775 10.0674Z" fill="url(#paint13_radial_68_3201)"/>
<path fill-rule="evenodd" clip-rule="evenodd" d="M10.9775 10.0674L10.9768 10.0646L10.9803 10.0774C10.9842 10.0908 10.9911 10.114 11.0014 10.1456C11.0221 10.2088 11.0563 10.3047 11.1069 10.4222C11.2088 10.6589 11.3729 10.9732 11.6193 11.2845C12.0991 11.8905 12.8962 12.5 14.2501 12.5C14.6643 12.5 15.0001 12.8358 15.0001 13.25C15.0001 13.6642 14.6643 14 14.2501 14C12.3539 14 11.151 13.1095 10.4433 12.2155C10.096 11.7768 9.86941 11.3411 9.72916 11.0153C9.65866 10.8516 9.60886 10.7131 9.57585 10.6123C9.55933 10.5618 9.54693 10.5205 9.5382 10.49C9.53384 10.4747 9.53038 10.4621 9.52778 10.4524L9.5245 10.4399L9.52332 10.4354L9.52285 10.4335L9.52245 10.4319C9.42199 10.0301 9.66631 9.62285 10.0682 9.52239C10.4688 9.42223 10.8748 9.66483 10.9768 10.0646L10.9771 10.0657L10.9775 10.0674Z" fill="url(#paint14_radial_68_3201)"/>
<path fill-rule="evenodd" clip-rule="evenodd" d="M10.9775 10.0674L10.9768 10.0646L10.9803 10.0774C10.9842 10.0908 10.9911 10.114 11.0014 10.1456C11.0221 10.2088 11.0563 10.3047 11.1069 10.4222C11.2088 10.6589 11.3729 10.9732 11.6193 11.2845C12.0991 11.8905 12.8962 12.5 14.2501 12.5C14.6643 12.5 15.0001 12.8358 15.0001 13.25C15.0001 13.6642 14.6643 14 14.2501 14C12.3539 14 11.151 13.1095 10.4433 12.2155C10.096 11.7768 9.86941 11.3411 9.72916 11.0153C9.65866 10.8516 9.60886 10.7131 9.57585 10.6123C9.55933 10.5618 9.54693 10.5205 9.5382 10.49C9.53384 10.4747 9.53038 10.4621 9.52778 10.4524L9.5245 10.4399L9.52332 10.4354L9.52285 10.4335L9.52245 10.4319C9.42199 10.0301 9.66631 9.62285 10.0682 9.52239C10.4688 9.42223 10.8748 9.66483 10.9768 10.0646L10.9771 10.0657L10.9775 10.0674Z" fill="url(#paint15_radial_68_3201)"/>
<path fill-rule="evenodd" clip-rule="evenodd" d="M21.0225 10.0674L21.0232 10.0646L21.0197 10.0774C21.0158 10.0908 21.0089 10.114 20.9986 10.1456C20.9779 10.2088 20.9437 10.3047 20.8931 10.4222C20.7912 10.6589 20.6271 10.9732 20.3807 11.2845C19.9009 11.8905 19.1038 12.5 17.7499 12.5C17.3357 12.5 16.9999 12.8358 16.9999 13.25C16.9999 13.6642 17.3357 14 17.7499 14C19.6461 14 20.849 13.1095 21.5567 12.2155C21.904 11.7768 22.1306 11.3411 22.2708 11.0153C22.3413 10.8516 22.3911 10.7131 22.4241 10.6123C22.4407 10.5618 22.4531 10.5205 22.4618 10.49C22.4662 10.4747 22.4696 10.4621 22.4722 10.4524L22.4755 10.4399L22.4767 10.4354L22.4772 10.4335L22.4776 10.4319C22.578 10.0301 22.3337 9.62285 21.9318 9.52239C21.5312 9.42223 21.1252 9.66483 21.0232 10.0646L21.0229 10.0657L21.0225 10.0674Z" fill="url(#paint16_linear_68_3201)"/>
<path fill-rule="evenodd" clip-rule="evenodd" d="M21.0225 10.0674L21.0232 10.0646L21.0197 10.0774C21.0158 10.0908 21.0089 10.114 20.9986 10.1456C20.9779 10.2088 20.9437 10.3047 20.8931 10.4222C20.7912 10.6589 20.6271 10.9732 20.3807 11.2845C19.9009 11.8905 19.1038 12.5 17.7499 12.5C17.3357 12.5 16.9999 12.8358 16.9999 13.25C16.9999 13.6642 17.3357 14 17.7499 14C19.6461 14 20.849 13.1095 21.5567 12.2155C21.904 11.7768 22.1306 11.3411 22.2708 11.0153C22.3413 10.8516 22.3911 10.7131 22.4241 10.6123C22.4407 10.5618 22.4531 10.5205 22.4618 10.49C22.4662 10.4747 22.4696 10.4621 22.4722 10.4524L22.4755 10.4399L22.4767 10.4354L22.4772 10.4335L22.4776 10.4319C22.578 10.0301 22.3337 9.62285 21.9318 9.52239C21.5312 9.42223 21.1252 9.66483 21.0232 10.0646L21.0229 10.0657L21.0225 10.0674Z" fill="url(#paint17_radial_68_3201)"/>
<path fill-rule="evenodd" clip-rule="evenodd" d="M21.0225 10.0674L21.0232 10.0646L21.0197 10.0774C21.0158 10.0908 21.0089 10.114 20.9986 10.1456C20.9779 10.2088 20.9437 10.3047 20.8931 10.4222C20.7912 10.6589 20.6271 10.9732 20.3807 11.2845C19.9009 11.8905 19.1038 12.5 17.7499 12.5C17.3357 12.5 16.9999 12.8358 16.9999 13.25C16.9999 13.6642 17.3357 14 17.7499 14C19.6461 14 20.849 13.1095 21.5567 12.2155C21.904 11.7768 22.1306 11.3411 22.2708 11.0153C22.3413 10.8516 22.3911 10.7131 22.4241 10.6123C22.4407 10.5618 22.4531 10.5205 22.4618 10.49C22.4662 10.4747 22.4696 10.4621 22.4722 10.4524L22.4755 10.4399L22.4767 10.4354L22.4772 10.4335L22.4776 10.4319C22.578 10.0301 22.3337 9.62285 21.9318 9.52239C21.5312 9.42223 21.1252 9.66483 21.0232 10.0646L21.0229 10.0657L21.0225 10.0674Z" fill="url(#paint18_radial_68_3201)"/>
<path fill-rule="evenodd" clip-rule="evenodd" d="M21.0225 10.0674L21.0232 10.0646L21.0197 10.0774C21.0158 10.0908 21.0089 10.114 20.9986 10.1456C20.9779 10.2088 20.9437 10.3047 20.8931 10.4222C20.7912 10.6589 20.6271 10.9732 20.3807 11.2845C19.9009 11.8905 19.1038 12.5 17.7499 12.5C17.3357 12.5 16.9999 12.8358 16.9999 13.25C16.9999 13.6642 17.3357 14 17.7499 14C19.6461 14 20.849 13.1095 21.5567 12.2155C21.904 11.7768 22.1306 11.3411 22.2708 11.0153C22.3413 10.8516 22.3911 10.7131 22.4241 10.6123C22.4407 10.5618 22.4531 10.5205 22.4618 10.49C22.4662 10.4747 22.4696 10.4621 22.4722 10.4524L22.4755 10.4399L22.4767 10.4354L22.4772 10.4335L22.4776 10.4319C22.578 10.0301 22.3337 9.62285 21.9318 9.52239C21.5312 9.42223 21.1252 9.66483 21.0232 10.0646L21.0229 10.0657L21.0225 10.0674Z" fill="url(#paint19_radial_68_3201)" fill-opacity="0.6"/>
<path fill-rule="evenodd" clip-rule="evenodd" d="M16 24C13.9954 24 13.0659 25.1042 12.8944 25.4472C12.6474 25.9412 12.0467 26.1414 11.5528 25.8944C11.0588 25.6474 10.8586 25.0468 11.1055 24.5528C11.6007 23.5625 13.2046 22 16 22C18.7954 22 20.3992 23.5625 20.8944 24.5528C21.1414 25.0468 20.9412 25.6474 20.4472 25.8944C19.9532 26.1414 19.3525 25.9412 19.1055 25.4472C18.934 25.1042 18.0046 24 16 24Z" fill="url(#paint20_radial_68_3201)"/>
<path fill-rule="evenodd" clip-rule="evenodd" d="M16 24C13.9954 24 13.0659 25.1042 12.8944 25.4472C12.6474 25.9412 12.0467 26.1414 11.5528 25.8944C11.0588 25.6474 10.8586 25.0468 11.1055 24.5528C11.6007 23.5625 13.2046 22 16 22C18.7954 22 20.3992 23.5625 20.8944 24.5528C21.1414 25.0468 20.9412 25.6474 20.4472 25.8944C19.9532 26.1414 19.3525 25.9412 19.1055 25.4472C18.934 25.1042 18.0046 24 16 24Z" fill="url(#paint21_radial_68_3201)"/>
<path fill-rule="evenodd" clip-rule="evenodd" d="M16 24C13.9954 24 13.0659 25.1042 12.8944 25.4472C12.6474 25.9412 12.0467 26.1414 11.5528 25.8944C11.0588 25.6474 10.8586 25.0468 11.1055 24.5528C11.6007 23.5625 13.2046 22 16 22C18.7954 22 20.3992 23.5625 20.8944 24.5528C21.1414 25.0468 20.9412 25.6474 20.4472 25.8944C19.9532 26.1414 19.3525 25.9412 19.1055 25.4472C18.934 25.1042 18.0046 24 16 24Z" fill="url(#paint22_radial_68_3201)"/>
<defs>
<radialGradient id="paint0_radial_68_3201" cx="0" cy="0" r="1" gradientUnits="userSpaceOnUse" gradientTransform="translate(21.5 10) rotate(94.5739) scale(25.0799)">
<stop stop-color="#FF7961"/>
<stop offset="0.514303" stop-color="#F23E53"/>
<stop offset="0.71368" stop-color="#E33248"/>
<stop offset="0.888763" stop-color="#E72D5C"/>
</radialGradient>
<linearGradient id="paint1_linear_68_3201" x1="14.5" y1="1.5" x2="19" y2="17" gradientUnits="userSpaceOnUse">
<stop stop-color="#DA502D"/>
<stop offset="1" stop-color="#DA502D" stop-opacity="0"/>
</linearGradient>
<radialGradient id="paint2_radial_68_3201" cx="0" cy="0" r="1" gradientUnits="userSpaceOnUse" gradientTransform="translate(18 14) rotate(135) scale(41.0122)">
<stop offset="0.314853" stop-opacity="0"/>
<stop offset="1"/>
</radialGradient>
<radialGradient id="paint3_radial_68_3201" cx="0" cy="0" r="1" gradientUnits="userSpaceOnUse" gradientTransform="translate(23 11) rotate(52.125) scale(17.1026 13.4126)">
<stop stop-color="#FF7961"/>
<stop offset="0.514303" stop-color="#FF7961" stop-opacity="0"/>
</radialGradient>
<radialGradient id="paint4_radial_68_3201" cx="0" cy="0" r="1" gradientUnits="userSpaceOnUse" gradientTransform="translate(16 12.5) rotate(90) scale(18)">
<stop offset="0.88336" stop-color="#F70A8D" stop-opacity="0"/>
<stop offset="1" stop-color="#FF73CA"/>
</radialGradient>
<radialGradient id="paint5_radial_68_3201" cx="0" cy="0" r="1" gradientUnits="userSpaceOnUse" gradientTransform="translate(17.5 15) rotate(43.9708) scale(59.0529)">
<stop offset="0.185425" stop-opacity="0"/>
<stop offset="1" stop-opacity="0.4"/>
</radialGradient>
<radialGradient id="paint6_radial_68_3201" cx="0" cy="0" r="1" gradientUnits="userSpaceOnUse" gradientTransform="translate(9.79249 16.586) rotate(91.8476) scale(5.00735)">
<stop offset="0.342352" stop-color="#A62A1D"/>
<stop offset="1" stop-color="#B73325" stop-opacity="0"/>
</radialGradient>
<radialGradient id="paint7_radial_68_3201" cx="0" cy="0" r="1" gradientUnits="userSpaceOnUse" gradientTransform="translate(21.1985 17.0122) rotate(110.225) scale(4.66196)">
<stop offset="0.405346" stop-color="#A62A1D"/>
<stop offset="1" stop-color="#A62A1D" stop-opacity="0"/>
</radialGradient>
<radialGradient id="paint8_radial_68_3201" cx="0" cy="0" r="1" gradientUnits="userSpaceOnUse" gradientTransform="translate(20.0429 12.0488) rotate(44.6338) scale(1.22421 2.56881)">
<stop stop-color="#CB3D2D"/>
<stop offset="1" stop-color="#CB3D2D" stop-opacity="0"/>
</radialGradient>
<radialGradient id="paint9_radial_68_3201" cx="0" cy="0" r="1" gradientUnits="userSpaceOnUse" gradientTransform="translate(21.1197 10.8875) rotate(87.2737) scale(1.33168)">
<stop stop-color="#CB3D2D"/>
<stop offset="1" stop-color="#CB3D2D" stop-opacity="0"/>
</radialGradient>
<radialGradient id="paint10_radial_68_3201" cx="0" cy="0" r="1" gradientUnits="userSpaceOnUse" gradientTransform="translate(11.1523 13.27) rotate(-46.7899) scale(2.48876 5.22228)">
<stop stop-color="#BB3B2B"/>
<stop offset="1" stop-color="#BB3B2B" stop-opacity="0"/>
</radialGradient>
<linearGradient id="paint11_linear_68_3201" x1="20.6154" y1="15" x2="19.9265" y2="19.0302" gradientUnits="userSpaceOnUse">
<stop stop-color="#553B3E"/>
<stop offset="1" stop-color="#3D2432"/>
</linearGradient>
<linearGradient id="paint12_linear_68_3201" x1="20.6154" y1="15" x2="19.9265" y2="19.0302" gradientUnits="userSpaceOnUse">
<stop stop-color="#553B3E"/>
<stop offset="1" stop-color="#3D2432"/>
</linearGradient>
<radialGradient id="paint13_radial_68_3201" cx="0" cy="0" r="1" gradientUnits="userSpaceOnUse" gradientTransform="translate(13.2789 10.3173) rotate(-49.1446) scale(4.06762 5.81684)">
<stop offset="0.423728" stop-color="#3B2A3A"/>
<stop offset="0.556723" stop-color="#4D414B"/>
<stop offset="0.64586" stop-color="#4D414B"/>
<stop offset="0.791667" stop-color="#481E58"/>
<stop offset="0.833333" stop-color="#49404A"/>
</radialGradient>
<radialGradient id="paint14_radial_68_3201" cx="0" cy="0" r="1" gradientUnits="userSpaceOnUse" gradientTransform="translate(10.7366 13.3096) rotate(-53.441) scale(7.03062 6.42911)">
<stop offset="0.484115" stop-color="#362839" stop-opacity="0"/>
<stop offset="0.591432" stop-color="#362839"/>
</radialGradient>
<radialGradient id="paint15_radial_68_3201" cx="0" cy="0" r="1" gradientUnits="userSpaceOnUse" gradientTransform="translate(14.5499 13.1177) rotate(-135) scale(0.789533)">
<stop stop-color="#645560"/>
<stop offset="1" stop-color="#4F434C" stop-opacity="0"/>
</radialGradient>
<linearGradient id="paint16_linear_68_3201" x1="20.4999" y1="10" x2="20.4999" y2="11.5" gradientUnits="userSpaceOnUse">
<stop offset="0.0299084" stop-color="#524049"/>
<stop offset="1" stop-color="#4A2C42"/>
</linearGradient>
<radialGradient id="paint17_radial_68_3201" cx="0" cy="0" r="1" gradientUnits="userSpaceOnUse" gradientTransform="translate(18.7211 10.3173) rotate(-130.855) scale(4.06762 5.81684)">
<stop offset="0.423728" stop-color="#3B2A3A"/>
<stop offset="0.556723" stop-color="#4D414B"/>
<stop offset="0.64586" stop-color="#4D414B"/>
<stop offset="0.791667" stop-color="#481E58"/>
<stop offset="0.833333" stop-color="#49404A"/>
</radialGradient>
<radialGradient id="paint18_radial_68_3201" cx="0" cy="0" r="1" gradientUnits="userSpaceOnUse" gradientTransform="translate(21.2634 13.3096) rotate(-126.559) scale(7.03062 6.42911)">
<stop offset="0.484115" stop-color="#362839" stop-opacity="0"/>
<stop offset="0.591432" stop-color="#362839"/>
</radialGradient>
<radialGradient id="paint19_radial_68_3201" cx="0" cy="0" r="1" gradientUnits="userSpaceOnUse" gradientTransform="translate(21.905 9.97917) rotate(123.071) scale(0.563326 0.947149)">
<stop stop-color="#645560"/>
<stop offset="1" stop-color="#4F434C" stop-opacity="0"/>
</radialGradient>
<radialGradient id="paint20_radial_68_3201" cx="0" cy="0" r="1" gradientUnits="userSpaceOnUse" gradientTransform="translate(16 25.6125) rotate(90) scale(9.68717 14.866)">
<stop offset="0.180838" stop-color="#49235A"/>
<stop offset="0.278352" stop-color="#4F3F50"/>
<stop offset="0.31308" stop-color="#4F3F50"/>
<stop offset="0.412151" stop-color="#362338"/>
</radialGradient>
<radialGradient id="paint21_radial_68_3201" cx="0" cy="0" r="1" gradientUnits="userSpaceOnUse" gradientTransform="translate(16 23.3067) rotate(90) scale(7.89043 6.9461)">
<stop offset="0.483976" stop-color="#3C2846" stop-opacity="0"/>
<stop offset="0.734375" stop-color="#3C2846"/>
</radialGradient>
<radialGradient id="paint22_radial_68_3201" cx="0" cy="0" r="1" gradientUnits="userSpaceOnUse" gradientTransform="translate(20.3241 24.6654) rotate(-45) scale(1.06423)">
<stop stop-color="#52484E"/>
<stop offset="1" stop-color="#51474D" stop-opacity="0"/>
</radialGradient>
</defs>
</svg>
