<svg width="32" height="32" viewBox="0 0 32 32" fill="none" xmlns="http://www.w3.org/2000/svg">
<g clip-path="url(#clip0_68_3198)">
<path d="M16.1645 29.9978C25.499 29.9978 30.1634 23.7303 30.1634 15.9989C30.1634 8.26751 25.499 2 16.1645 2C6.83008 2 2.16565 8.26751 2.16565 15.9989C2.16565 23.7303 6.83008 29.9978 16.1645 29.9978Z" fill="url(#paint0_radial_68_3198)"/>
<path d="M16.1645 29.9978C25.499 29.9978 30.1634 23.7303 30.1634 15.9989C30.1634 8.26751 25.499 2 16.1645 2C6.83008 2 2.16565 8.26751 2.16565 15.9989C2.16565 23.7303 6.83008 29.9978 16.1645 29.9978Z" fill="url(#paint1_radial_68_3198)"/>
<path d="M16.1645 29.9978C25.499 29.9978 30.1634 23.7303 30.1634 15.9989C30.1634 8.26751 25.499 2 16.1645 2C6.83008 2 2.16565 8.26751 2.16565 15.9989C2.16565 23.7303 6.83008 29.9978 16.1645 29.9978Z" fill="url(#paint2_radial_68_3198)" fill-opacity="0.6"/>
<path d="M16.1645 29.9978C25.499 29.9978 30.1634 23.7303 30.1634 15.9989C30.1634 8.26751 25.499 2 16.1645 2C6.83008 2 2.16565 8.26751 2.16565 15.9989C2.16565 23.7303 6.83008 29.9978 16.1645 29.9978Z" fill="url(#paint3_radial_68_3198)"/>
<path d="M16.1645 29.9978C25.499 29.9978 30.1634 23.7303 30.1634 15.9989C30.1634 8.26751 25.499 2 16.1645 2C6.83008 2 2.16565 8.26751 2.16565 15.9989C2.16565 23.7303 6.83008 29.9978 16.1645 29.9978Z" fill="url(#paint4_radial_68_3198)"/>
<path d="M16.1645 29.9978C25.499 29.9978 30.1634 23.7303 30.1634 15.9989C30.1634 8.26751 25.499 2 16.1645 2C6.83008 2 2.16565 8.26751 2.16565 15.9989C2.16565 23.7303 6.83008 29.9978 16.1645 29.9978Z" fill="url(#paint5_radial_68_3198)"/>
<path d="M16.1645 29.9978C25.499 29.9978 30.1634 23.7303 30.1634 15.9989C30.1634 8.26751 25.499 2 16.1645 2C6.83008 2 2.16565 8.26751 2.16565 15.9989C2.16565 23.7303 6.83008 29.9978 16.1645 29.9978Z" fill="url(#paint6_radial_68_3198)"/>
<path d="M13.6156 12.03L9.61563 10.03C9.11563 9.78 8.51563 9.98 8.26563 10.47C8.01563 10.96 8.22563 11.57 8.71563 11.81L10.9256 12.92L8.71563 14.03C8.22563 14.28 8.02563 14.88 8.26563 15.37C8.50563 15.86 9.11563 16.06 9.60563 15.82L13.6056 13.82C13.9456 13.64 14.1656 13.3 14.1656 12.92C14.1656 12.54 13.9456 12.19 13.6156 12.03Z" fill="#533566"/>
<path d="M23.6157 14.03L21.4056 12.92L23.6157 11.81C24.1056 11.56 24.3056 10.96 24.0656 10.47C23.8256 9.98004 23.2156 9.78004 22.7256 10.02L18.7256 12.02C18.3756 12.19 18.1656 12.54 18.1656 12.92C18.1656 13.3 18.3756 13.65 18.7156 13.81L22.7156 15.81C23.2056 16.06 23.8056 15.86 24.0556 15.36C24.3056 14.86 24.1056 14.27 23.6157 14.03Z" fill="#533566"/>
<path d="M10.5857 4.53003C10.5857 6.68003 8.84568 8.42003 6.69568 8.42003" stroke="#533468" stroke-miterlimit="10" stroke-linecap="round"/>
<path d="M21.6957 4.53003C21.6957 6.68003 23.4357 8.42003 25.5857 8.42003" stroke="#533468" stroke-miterlimit="10" stroke-linecap="round"/>
<path d="M8.30561 24.92C7.66561 24.92 7.16561 24.36 7.24561 23.73C7.82561 19.32 11.5956 15.92 16.1656 15.92C20.7356 15.92 24.5056 19.32 25.0856 23.73C25.1656 24.36 24.6656 24.92 24.0256 24.92H16.1656H8.30561Z" fill="url(#paint7_linear_68_3198)"/>
<path d="M10.4457 17.97C11.9957 16.69 13.9957 15.92 16.1657 15.92C18.3357 15.92 20.3257 16.69 21.8857 17.97" fill="white"/>
<path d="M16.1645 29.9978C25.499 29.9978 30.1634 23.7303 30.1634 15.9989C30.1634 8.26751 25.499 2 16.1645 2C6.83008 2 2.16565 8.26751 2.16565 15.9989C2.16565 23.7303 6.83008 29.9978 16.1645 29.9978Z" fill="url(#paint8_radial_68_3198)"/>
<path d="M16.1645 29.9978C25.499 29.9978 30.1634 23.7303 30.1634 15.9989C30.1634 8.26751 25.499 2 16.1645 2C6.83008 2 2.16565 8.26751 2.16565 15.9989C2.16565 23.7303 6.83008 29.9978 16.1645 29.9978Z" fill="url(#paint9_radial_68_3198)"/>
<path d="M16.1645 29.9978C25.499 29.9978 30.1634 23.7303 30.1634 15.9989C30.1634 8.26751 25.499 2 16.1645 2C6.83008 2 2.16565 8.26751 2.16565 15.9989C2.16565 23.7303 6.83008 29.9978 16.1645 29.9978Z" fill="url(#paint10_radial_68_3198)" fill-opacity="0.6"/>
<path d="M16.1645 29.9978C25.499 29.9978 30.1634 23.7303 30.1634 15.9989C30.1634 8.26751 25.499 2 16.1645 2C6.83008 2 2.16565 8.26751 2.16565 15.9989C2.16565 23.7303 6.83008 29.9978 16.1645 29.9978Z" fill="url(#paint11_radial_68_3198)"/>
<path d="M16.1645 29.9978C25.499 29.9978 30.1634 23.7303 30.1634 15.9989C30.1634 8.26751 25.499 2 16.1645 2C6.83008 2 2.16565 8.26751 2.16565 15.9989C2.16565 23.7303 6.83008 29.9978 16.1645 29.9978Z" fill="url(#paint12_radial_68_3198)"/>
<path d="M16.1645 29.9978C25.499 29.9978 30.1634 23.7303 30.1634 15.9989C30.1634 8.26751 25.499 2 16.1645 2C6.83008 2 2.16565 8.26751 2.16565 15.9989C2.16565 23.7303 6.83008 29.9978 16.1645 29.9978Z" fill="url(#paint13_radial_68_3198)"/>
<path d="M16.1645 29.9978C25.499 29.9978 30.1634 23.7303 30.1634 15.9989C30.1634 8.26751 25.499 2 16.1645 2C6.83008 2 2.16565 8.26751 2.16565 15.9989C2.16565 23.7303 6.83008 29.9978 16.1645 29.9978Z" fill="url(#paint14_radial_68_3198)"/>
<path d="M16.1645 29.9978C25.499 29.9978 30.1634 23.7303 30.1634 15.9989C30.1634 8.26751 25.499 2 16.1645 2C6.83008 2 2.16565 8.26751 2.16565 15.9989C2.16565 23.7303 6.83008 29.9978 16.1645 29.9978Z" fill="url(#paint15_radial_68_3198)"/>
<path d="M16.1645 29.9978C25.499 29.9978 30.1634 23.7303 30.1634 15.9989C30.1634 8.26751 25.499 2 16.1645 2C6.83008 2 2.16565 8.26751 2.16565 15.9989C2.16565 23.7303 6.83008 29.9978 16.1645 29.9978Z" fill="url(#paint16_radial_68_3198)"/>
<path d="M16.1645 29.9978C25.499 29.9978 30.1634 23.7303 30.1634 15.9989C30.1634 8.26751 25.499 2 16.1645 2C6.83008 2 2.16565 8.26751 2.16565 15.9989C2.16565 23.7303 6.83008 29.9978 16.1645 29.9978Z" fill="url(#paint17_radial_68_3198)"/>
<path d="M16.1645 29.9978C25.499 29.9978 30.1634 23.7303 30.1634 15.9989C30.1634 8.26751 25.499 2 16.1645 2C6.83008 2 2.16565 8.26751 2.16565 15.9989C2.16565 23.7303 6.83008 29.9978 16.1645 29.9978Z" fill="url(#paint18_radial_68_3198)"/>
<path d="M16.1645 29.9978C25.499 29.9978 30.1634 23.7303 30.1634 15.9989C30.1634 8.26751 25.499 2 16.1645 2C6.83008 2 2.16565 8.26751 2.16565 15.9989C2.16565 23.7303 6.83008 29.9978 16.1645 29.9978Z" fill="url(#paint19_radial_68_3198)"/>
<path d="M16.1645 29.9978C25.499 29.9978 30.1634 23.7303 30.1634 15.9989C30.1634 8.26751 25.499 2 16.1645 2C6.83008 2 2.16565 8.26751 2.16565 15.9989C2.16565 23.7303 6.83008 29.9978 16.1645 29.9978Z" fill="url(#paint20_radial_68_3198)"/>
<path d="M16.1645 29.9978C25.499 29.9978 30.1634 23.7303 30.1634 15.9989C30.1634 8.26751 25.499 2 16.1645 2C6.83008 2 2.16565 8.26751 2.16565 15.9989C2.16565 23.7303 6.83008 29.9978 16.1645 29.9978Z" fill="url(#paint21_radial_68_3198)"/>
<path d="M16.1645 29.9978C25.499 29.9978 30.1634 23.7303 30.1634 15.9989C30.1634 8.26751 25.499 2 16.1645 2C6.83008 2 2.16565 8.26751 2.16565 15.9989C2.16565 23.7303 6.83008 29.9978 16.1645 29.9978Z" fill="url(#paint22_radial_68_3198)"/>
<path fill-rule="evenodd" clip-rule="evenodd" d="M10.0493 5.3966L10.0497 5.39411L10.047 5.40785C10.0442 5.42172 10.039 5.44534 10.031 5.47732C10.015 5.54143 9.98775 5.63813 9.94502 5.75647C9.859 5.99466 9.71363 6.31106 9.47817 6.625C9.02391 7.23069 8.20317 7.875 6.66567 7.875C6.3205 7.875 6.04067 8.15482 6.04067 8.5C6.04067 8.84518 6.3205 9.125 6.66567 9.125C8.62818 9.125 9.80744 8.26931 10.4782 7.375C10.8052 6.93894 11.0036 6.50534 11.1207 6.18103C11.1795 6.01812 11.2187 5.88044 11.2437 5.78049C11.2562 5.73044 11.2652 5.68961 11.2714 5.65953C11.2745 5.64449 11.2769 5.63211 11.2787 5.62259L11.2808 5.61047L11.2816 5.60605L11.2819 5.60426C11.2823 5.60198 11.2822 5.60275 11.2822 5.60275C11.3389 5.26227 11.1089 4.94025 10.7684 4.8835C10.429 4.82693 10.1079 5.05537 10.0497 5.39411" fill="url(#paint23_linear_68_3198)"/>
<path fill-rule="evenodd" clip-rule="evenodd" d="M10.0493 5.3966L10.0497 5.39411L10.047 5.40785C10.0442 5.42172 10.039 5.44534 10.031 5.47732C10.015 5.54143 9.98775 5.63813 9.94502 5.75647C9.859 5.99466 9.71363 6.31106 9.47817 6.625C9.02391 7.23069 8.20317 7.875 6.66567 7.875C6.3205 7.875 6.04067 8.15482 6.04067 8.5C6.04067 8.84518 6.3205 9.125 6.66567 9.125C8.62818 9.125 9.80744 8.26931 10.4782 7.375C10.8052 6.93894 11.0036 6.50534 11.1207 6.18103C11.1795 6.01812 11.2187 5.88044 11.2437 5.78049C11.2562 5.73044 11.2652 5.68961 11.2714 5.65953C11.2745 5.64449 11.2769 5.63211 11.2787 5.62259L11.2808 5.61047L11.2816 5.60605L11.2819 5.60426C11.2823 5.60198 11.2822 5.60275 11.2822 5.60275C11.3389 5.26227 11.1089 4.94025 10.7684 4.8835C10.429 4.82693 10.1079 5.05537 10.0497 5.39411" fill="url(#paint24_radial_68_3198)"/>
<path fill-rule="evenodd" clip-rule="evenodd" d="M22.282 5.3966L22.2816 5.39411L22.2843 5.40785C22.2871 5.42172 22.2923 5.44534 22.3003 5.47732C22.3163 5.54143 22.3435 5.63813 22.3863 5.75647C22.4723 5.99466 22.6177 6.31106 22.8531 6.625C23.3074 7.23069 24.1281 7.875 25.6656 7.875C26.0108 7.875 26.2906 8.15482 26.2906 8.5C26.2906 8.84518 26.0108 9.125 25.6656 9.125C23.7031 9.125 22.5239 8.26931 21.8531 7.375C21.5261 6.93894 21.3277 6.50534 21.2106 6.18103C21.1518 6.01812 21.1126 5.88044 21.0876 5.78049C21.0751 5.73044 21.0661 5.68961 21.0599 5.65953C21.0568 5.64449 21.0544 5.63211 21.0526 5.62259L21.0505 5.61047L21.0497 5.60605L21.0494 5.60426C21.049 5.60198 21.0491 5.60275 21.0491 5.60275C20.9924 5.26227 21.2224 4.94025 21.5629 4.8835C21.9023 4.82693 22.2234 5.05537 22.2816 5.39411" fill="url(#paint25_radial_68_3198)"/>
<path d="M24.8228 22.5311C25.2008 23.8591 24.0466 25 22.6659 25C18.2998 25 13.7837 25 9.6652 25C8.28448 25 7.13051 23.8591 7.5085 22.5311C8.58165 18.7609 12.0512 16 16.1656 16C20.2801 16 23.7496 18.7609 24.8228 22.5311Z" fill="url(#paint26_radial_68_3198)"/>
<path d="M16.1655 16C18.3079 16 20.2744 16.7501 21.8198 18H10.5122C12.0576 16.7504 14.0234 16 16.1655 16Z" fill="url(#paint27_radial_68_3198)"/>
<path d="M9.61311 15.8898C9.11913 16.1368 8.51846 15.9366 8.27147 15.4426C8.02448 14.9486 8.22471 14.3479 8.71868 14.101L10.9252 12.9977L12.6656 12.4999L14.1659 12.9977C14.165 13.3756 13.9512 13.7208 13.6131 13.8898L9.61311 15.8898Z" fill="url(#paint28_linear_68_3198)"/>
<path d="M9.61311 15.8898C9.11913 16.1368 8.51846 15.9366 8.27147 15.4426C8.02448 14.9486 8.22471 14.3479 8.71868 14.101L10.9252 12.9977L12.6656 12.4999L14.1659 12.9977C14.165 13.3756 13.9512 13.7208 13.6131 13.8898L9.61311 15.8898Z" fill="url(#paint29_linear_68_3198)"/>
<path d="M9.61311 15.8898C9.11913 16.1368 8.51846 15.9366 8.27147 15.4426C8.02448 14.9486 8.22471 14.3479 8.71868 14.101L10.9252 12.9977L12.6656 12.4999L14.1659 12.9977C14.165 13.3756 13.9512 13.7208 13.6131 13.8898L9.61311 15.8898Z" fill="url(#paint30_radial_68_3198)"/>
<path d="M9.61311 10.1058C9.11913 9.8588 8.51846 10.059 8.27147 10.553C8.02448 11.047 8.22471 11.6477 8.71868 11.8946L10.9252 12.9979H14.1659C14.165 12.62 13.9512 12.2748 13.6131 12.1058L9.61311 10.1058Z" fill="url(#paint31_linear_68_3198)"/>
<path d="M9.61311 10.1058C9.11913 9.8588 8.51846 10.059 8.27147 10.553C8.02448 11.047 8.22471 11.6477 8.71868 11.8946L10.9252 12.9979H14.1659C14.165 12.62 13.9512 12.2748 13.6131 12.1058L9.61311 10.1058Z" fill="url(#paint32_linear_68_3198)"/>
<path d="M9.61311 10.1058C9.11913 9.8588 8.51846 10.059 8.27147 10.553C8.02448 11.047 8.22471 11.6477 8.71868 11.8946L10.9252 12.9979H14.1659C14.165 12.62 13.9512 12.2748 13.6131 12.1058L9.61311 10.1058Z" fill="url(#paint33_radial_68_3198)"/>
<path d="M22.7028 15.8898C23.1968 16.1368 23.7975 15.9366 24.0444 15.4426C24.2914 14.9486 24.0912 14.3479 23.5972 14.101L21.3907 12.9977L19.6656 12.4999L18.15 12.9977C18.1509 13.3756 18.3647 13.7208 18.7028 13.8898L22.7028 15.8898Z" fill="url(#paint34_linear_68_3198)"/>
<path d="M22.7028 15.8898C23.1968 16.1368 23.7975 15.9366 24.0444 15.4426C24.2914 14.9486 24.0912 14.3479 23.5972 14.101L21.3907 12.9977L19.6656 12.4999L18.15 12.9977C18.1509 13.3756 18.3647 13.7208 18.7028 13.8898L22.7028 15.8898Z" fill="url(#paint35_linear_68_3198)"/>
<path d="M22.7028 10.1058C23.1968 9.8588 23.7975 10.059 24.0444 10.553C24.2914 11.047 24.0912 11.6477 23.5972 11.8946L21.3907 12.9979H18.15C18.1509 12.62 18.3647 12.2748 18.7028 12.1058L22.7028 10.1058Z" fill="url(#paint36_linear_68_3198)"/>
<path d="M22.7028 10.1058C23.1968 9.8588 23.7975 10.059 24.0444 10.553C24.2914 11.047 24.0912 11.6477 23.5972 11.8946L21.3907 12.9979H18.15C18.1509 12.62 18.3647 12.2748 18.7028 12.1058L22.7028 10.1058Z" fill="url(#paint37_radial_68_3198)"/>
<path d="M22.7028 10.1058C23.1968 9.8588 23.7975 10.059 24.0444 10.553C24.2914 11.047 24.0912 11.6477 23.5972 11.8946L21.3907 12.9979H18.15C18.1509 12.62 18.3647 12.2748 18.7028 12.1058L22.7028 10.1058Z" fill="url(#paint38_radial_68_3198)"/>
<path d="M22.7028 10.1058C23.1968 9.8588 23.7975 10.059 24.0444 10.553C24.2914 11.047 24.0912 11.6477 23.5972 11.8946L21.3907 12.9979H18.15C18.1509 12.62 18.3647 12.2748 18.7028 12.1058L22.7028 10.1058Z" fill="url(#paint39_linear_68_3198)"/>
</g>
<defs>
<radialGradient id="paint0_radial_68_3198" cx="0" cy="0" r="1" gradientUnits="userSpaceOnUse" gradientTransform="translate(25.6657 9) rotate(131.878) scale(38.9487)">
<stop stop-color="#FFF478"/>
<stop offset="0.474827" stop-color="#FFB02E"/>
<stop offset="1" stop-color="#F70A8D"/>
</radialGradient>
<radialGradient id="paint1_radial_68_3198" cx="0" cy="0" r="1" gradientUnits="userSpaceOnUse" gradientTransform="translate(16.1657 12.5) rotate(101.31) scale(17.8466 22.8581)">
<stop offset="0.787821" stop-color="#F59639" stop-opacity="0"/>
<stop offset="0.972509" stop-color="#FF7DCE"/>
</radialGradient>
<radialGradient id="paint2_radial_68_3198" cx="0" cy="0" r="1" gradientUnits="userSpaceOnUse" gradientTransform="translate(18.1657 14) rotate(135) scale(41.0122)">
<stop offset="0.314853" stop-opacity="0"/>
<stop offset="1"/>
</radialGradient>
<radialGradient id="paint3_radial_68_3198" cx="0" cy="0" r="1" gradientUnits="userSpaceOnUse" gradientTransform="translate(16.1657 17) rotate(77.692) scale(28.1469)">
<stop offset="0.507903" stop-color="#7D6133" stop-opacity="0"/>
<stop offset="1" stop-color="#715B32"/>
</radialGradient>
<radialGradient id="paint4_radial_68_3198" cx="0" cy="0" r="1" gradientUnits="userSpaceOnUse" gradientTransform="translate(16.6656 16.5) rotate(55.7131) scale(13.3135 9.65032)">
<stop stop-color="#FFB849"/>
<stop offset="1" stop-color="#FFB847" stop-opacity="0"/>
</radialGradient>
<radialGradient id="paint5_radial_68_3198" cx="0" cy="0" r="1" gradientUnits="userSpaceOnUse" gradientTransform="translate(20.6656 18) rotate(9.86581) scale(11.6726)">
<stop stop-color="#FFA64B"/>
<stop offset="0.900412" stop-color="#FFAE46" stop-opacity="0"/>
</radialGradient>
<radialGradient id="paint6_radial_68_3198" cx="0" cy="0" r="1" gradientUnits="userSpaceOnUse" gradientTransform="translate(17.6656 15) rotate(43.9708) scale(59.0529)">
<stop offset="0.185425" stop-opacity="0"/>
<stop offset="1" stop-opacity="0.4"/>
</radialGradient>
<linearGradient id="paint7_linear_68_3198" x1="16.1645" y1="28.9174" x2="16.1645" y2="4.37364" gradientUnits="userSpaceOnUse">
<stop stop-color="#E81123"/>
<stop offset="1" stop-color="#68217A"/>
</linearGradient>
<radialGradient id="paint8_radial_68_3198" cx="0" cy="0" r="1" gradientUnits="userSpaceOnUse" gradientTransform="translate(25.6656 9) rotate(132.839) scale(37.5033)">
<stop stop-color="#FFF478"/>
<stop offset="0.474827" stop-color="#FFB02E"/>
<stop offset="1" stop-color="#F70A8D"/>
</radialGradient>
<radialGradient id="paint9_radial_68_3198" cx="0" cy="0" r="1" gradientUnits="userSpaceOnUse" gradientTransform="translate(16.1657 12.5) rotate(101.31) scale(17.8466 22.8581)">
<stop offset="0.787821" stop-color="#F59639" stop-opacity="0"/>
<stop offset="0.972509" stop-color="#FF7DCE"/>
</radialGradient>
<radialGradient id="paint10_radial_68_3198" cx="0" cy="0" r="1" gradientUnits="userSpaceOnUse" gradientTransform="translate(18.1657 14) rotate(135) scale(41.0122)">
<stop offset="0.314853" stop-opacity="0"/>
<stop offset="1"/>
</radialGradient>
<radialGradient id="paint11_radial_68_3198" cx="0" cy="0" r="1" gradientUnits="userSpaceOnUse" gradientTransform="translate(16.1657 17) rotate(77.692) scale(28.1469)">
<stop offset="0.507903" stop-color="#7D6133" stop-opacity="0"/>
<stop offset="1" stop-color="#715B32"/>
</radialGradient>
<radialGradient id="paint12_radial_68_3198" cx="0" cy="0" r="1" gradientUnits="userSpaceOnUse" gradientTransform="translate(16.6656 16.5) rotate(55.7131) scale(13.3135 9.65032)">
<stop stop-color="#FFB849"/>
<stop offset="1" stop-color="#FFB847" stop-opacity="0"/>
</radialGradient>
<radialGradient id="paint13_radial_68_3198" cx="0" cy="0" r="1" gradientUnits="userSpaceOnUse" gradientTransform="translate(20.6656 18) rotate(9.86581) scale(11.6726)">
<stop stop-color="#FFA64B"/>
<stop offset="0.900412" stop-color="#FFAE46" stop-opacity="0"/>
</radialGradient>
<radialGradient id="paint14_radial_68_3198" cx="0" cy="0" r="1" gradientUnits="userSpaceOnUse" gradientTransform="translate(17.6656 15) rotate(43.9708) scale(59.0529)">
<stop offset="0.185425" stop-opacity="0"/>
<stop offset="1" stop-opacity="0.4"/>
</radialGradient>
<radialGradient id="paint15_radial_68_3198" cx="0" cy="0" r="1" gradientUnits="userSpaceOnUse" gradientTransform="translate(10.2627 12.572) rotate(110.266) scale(1.57775 2.64383)">
<stop stop-color="#D07E2D"/>
<stop offset="1" stop-color="#D98833" stop-opacity="0"/>
</radialGradient>
<radialGradient id="paint16_radial_68_3198" cx="0" cy="0" r="1" gradientUnits="userSpaceOnUse" gradientTransform="translate(9.89569 14.1998) rotate(67.2703) scale(1.73758 2.76896)">
<stop stop-color="#D07E2D"/>
<stop offset="1" stop-color="#D98833" stop-opacity="0"/>
</radialGradient>
<radialGradient id="paint17_radial_68_3198" cx="0" cy="0" r="1" gradientUnits="userSpaceOnUse" gradientTransform="translate(21.2128 14.4791) rotate(116.962) scale(1.70513 3.24953)">
<stop stop-color="#D07E2D"/>
<stop offset="1" stop-color="#D98833" stop-opacity="0"/>
</radialGradient>
<radialGradient id="paint18_radial_68_3198" cx="0" cy="0" r="1" gradientUnits="userSpaceOnUse" gradientTransform="translate(24.0424 8.89905) rotate(11.6894) scale(2.31745 1.5038)">
<stop stop-color="#E3A120"/>
<stop offset="1" stop-color="#E3A120" stop-opacity="0"/>
</radialGradient>
<radialGradient id="paint19_radial_68_3198" cx="0" cy="0" r="1" gradientUnits="userSpaceOnUse" gradientTransform="translate(22.0521 7.54498) rotate(54.3611) scale(2.52782 1.31925)">
<stop stop-color="#E3A120"/>
<stop offset="1" stop-color="#E3A120" stop-opacity="0"/>
</radialGradient>
<radialGradient id="paint20_radial_68_3198" cx="0" cy="0" r="1" gradientUnits="userSpaceOnUse" gradientTransform="translate(8.17804 9.63099) rotate(-26.5651) scale(4.45994)">
<stop stop-color="#D99621"/>
<stop offset="1" stop-color="#E4A228" stop-opacity="0"/>
</radialGradient>
<radialGradient id="paint21_radial_68_3198" cx="0" cy="0" r="1" gradientUnits="userSpaceOnUse" gradientTransform="translate(7.54163 8.8479) rotate(-23.3049) scale(2.24349 1.08829)">
<stop stop-color="#DB8A21"/>
<stop offset="1" stop-color="#DB8A21" stop-opacity="0"/>
</radialGradient>
<radialGradient id="paint22_radial_68_3198" cx="0" cy="0" r="1" gradientUnits="userSpaceOnUse" gradientTransform="translate(9.38019 8.18222) rotate(-50.4923) scale(2.34189 1.13602)">
<stop stop-color="#DB8A21"/>
<stop offset="1" stop-color="#DB8A21" stop-opacity="0"/>
</radialGradient>
<linearGradient id="paint23_linear_68_3198" x1="9.66567" y1="5" x2="9.66567" y2="6.5" gradientUnits="userSpaceOnUse">
<stop offset="0.0299084" stop-color="#524049"/>
<stop offset="1" stop-color="#4A2C42"/>
</linearGradient>
<radialGradient id="paint24_radial_68_3198" cx="0" cy="0" r="1" gradientUnits="userSpaceOnUse" gradientTransform="translate(7.16567 5) rotate(54.4623) scale(4.30116)">
<stop offset="0.541667" stop-color="#493032"/>
<stop offset="0.806723" stop-color="#5E445A"/>
<stop offset="0.955326" stop-color="#4A2C42"/>
</radialGradient>
<radialGradient id="paint25_radial_68_3198" cx="0" cy="0" r="1" gradientUnits="userSpaceOnUse" gradientTransform="translate(25.1656 5) rotate(125.538) scale(4.30116)">
<stop stop-color="#C2B4B5"/>
<stop offset="0.887405" stop-color="#462B45"/>
<stop offset="1" stop-color="#4A2C42"/>
</radialGradient>
<radialGradient id="paint26_radial_68_3198" cx="0" cy="0" r="1" gradientUnits="userSpaceOnUse" gradientTransform="translate(16.1657 27) rotate(-90) scale(10.5 28.4095)">
<stop stop-color="#F70A8D"/>
<stop offset="1" stop-color="#89029C"/>
</radialGradient>
<radialGradient id="paint27_radial_68_3198" cx="0" cy="0" r="1" gradientUnits="userSpaceOnUse" gradientTransform="translate(15.167 19.5) rotate(-49.4226) scale(4.60812 6.28792)">
<stop offset="0.454233" stop-color="white"/>
<stop offset="0.839648" stop-color="#ECCDFF"/>
<stop offset="1" stop-color="#D590FF"/>
</radialGradient>
<linearGradient id="paint28_linear_68_3198" x1="10.6378" y1="16.7651" x2="8.16565" y2="11.8505" gradientUnits="userSpaceOnUse">
<stop offset="0.21392" stop-color="#492741"/>
<stop offset="0.331485" stop-color="#503A4A"/>
<stop offset="0.511203" stop-color="#482641"/>
</linearGradient>
<linearGradient id="paint29_linear_68_3198" x1="10.4661" y1="12.9977" x2="10.582" y2="13.473" gradientUnits="userSpaceOnUse">
<stop stop-color="#2D1721"/>
<stop offset="1" stop-color="#2D1721" stop-opacity="0"/>
</linearGradient>
<radialGradient id="paint30_radial_68_3198" cx="0" cy="0" r="1" gradientUnits="userSpaceOnUse" gradientTransform="translate(12.4837 13.2903) rotate(-148.405) scale(5.68231)">
<stop offset="0.631717" stop-color="#492741" stop-opacity="0"/>
<stop offset="0.798224" stop-color="#492741"/>
</radialGradient>
<linearGradient id="paint31_linear_68_3198" x1="9.02527" y1="13.1385" x2="10.8545" y2="9.91235" gradientUnits="userSpaceOnUse">
<stop offset="0.162863" stop-color="#22161C"/>
<stop offset="0.435713" stop-color="#482641"/>
<stop offset="0.631598" stop-color="#503A4A"/>
</linearGradient>
<linearGradient id="paint32_linear_68_3198" x1="10.4661" y1="12.9979" x2="10.582" y2="12.5226" gradientUnits="userSpaceOnUse">
<stop stop-color="#2D1721"/>
<stop offset="1" stop-color="#2D1721" stop-opacity="0"/>
</linearGradient>
<radialGradient id="paint33_radial_68_3198" cx="0" cy="0" r="1" gradientUnits="userSpaceOnUse" gradientTransform="translate(12.4837 12.7053) rotate(148.405) scale(5.68231)">
<stop offset="0.631717" stop-color="#492741" stop-opacity="0"/>
<stop offset="0.798224" stop-color="#492741"/>
</radialGradient>
<linearGradient id="paint34_linear_68_3198" x1="21.5719" y1="16.7321" x2="24.1502" y2="11.3883" gradientUnits="userSpaceOnUse">
<stop offset="0.207167" stop-color="#381B32"/>
<stop offset="0.277026" stop-color="#482641"/>
<stop offset="0.390091" stop-color="#503A4A"/>
<stop offset="0.516907" stop-color="#503A4A"/>
<stop offset="0.651166" stop-color="#482641"/>
</linearGradient>
<linearGradient id="paint35_linear_68_3198" x1="21.8498" y1="12.9977" x2="21.7339" y2="13.473" gradientUnits="userSpaceOnUse">
<stop stop-color="#2D1721"/>
<stop offset="1" stop-color="#2D1721" stop-opacity="0"/>
</linearGradient>
<linearGradient id="paint36_linear_68_3198" x1="23.2906" y1="13.1385" x2="20.9" y2="8.45102" gradientUnits="userSpaceOnUse">
<stop offset="0.162402" stop-color="#482641"/>
<stop offset="0.296966" stop-color="#503A4A"/>
<stop offset="0.39491" stop-color="#503A4A"/>
<stop offset="0.511203" stop-color="#482641"/>
</linearGradient>
<radialGradient id="paint37_radial_68_3198" cx="0" cy="0" r="1" gradientUnits="userSpaceOnUse" gradientTransform="translate(19.4691 12.7783) rotate(29.1673) scale(5.95871)">
<stop offset="0.631717" stop-color="#492741" stop-opacity="0"/>
<stop offset="0.798224" stop-color="#492741"/>
</radialGradient>
<radialGradient id="paint38_radial_68_3198" cx="0" cy="0" r="1" gradientUnits="userSpaceOnUse" gradientTransform="translate(23.6861 10.6566) rotate(134.019) scale(0.898479 1.62536)">
<stop stop-color="#5E5051"/>
<stop offset="1" stop-color="#5E5051" stop-opacity="0"/>
</radialGradient>
<linearGradient id="paint39_linear_68_3198" x1="21.8498" y1="12.9979" x2="21.7339" y2="12.5226" gradientUnits="userSpaceOnUse">
<stop stop-color="#2D1721"/>
<stop offset="1" stop-color="#2D1721" stop-opacity="0"/>
</linearGradient>
<clipPath id="clip0_68_3198">
<rect width="32" height="32" fill="white"/>
</clipPath>
</defs>
</svg>
