<svg width="32" height="32" viewBox="0 0 32 32" fill="none" xmlns="http://www.w3.org/2000/svg">
<path d="M15.9989 29.9978C25.3333 29.9978 29.9978 23.7303 29.9978 15.9989C29.9978 8.26751 25.3333 2 15.9989 2C6.66443 2 2 8.26751 2 15.9989C2 23.7303 6.66443 29.9978 15.9989 29.9978Z" fill="url(#paint0_radial_68_3199)"/>
<path d="M15.9989 29.9978C25.3333 29.9978 29.9978 23.7303 29.9978 15.9989C29.9978 8.26751 25.3333 2 15.9989 2C6.66443 2 2 8.26751 2 15.9989C2 23.7303 6.66443 29.9978 15.9989 29.9978Z" fill="url(#paint1_radial_68_3199)"/>
<path d="M15.9989 29.9978C25.3333 29.9978 29.9978 23.7303 29.9978 15.9989C29.9978 8.26751 25.3333 2 15.9989 2C6.66443 2 2 8.26751 2 15.9989C2 23.7303 6.66443 29.9978 15.9989 29.9978Z" fill="url(#paint2_radial_68_3199)" fill-opacity="0.6"/>
<path d="M15.9989 29.9978C25.3333 29.9978 29.9978 23.7303 29.9978 15.9989C29.9978 8.26751 25.3333 2 15.9989 2C6.66443 2 2 8.26751 2 15.9989C2 23.7303 6.66443 29.9978 15.9989 29.9978Z" fill="url(#paint3_radial_68_3199)"/>
<path d="M15.9989 29.9978C25.3333 29.9978 29.9978 23.7303 29.9978 15.9989C29.9978 8.26751 25.3333 2 15.9989 2C6.66443 2 2 8.26751 2 15.9989C2 23.7303 6.66443 29.9978 15.9989 29.9978Z" fill="url(#paint4_radial_68_3199)"/>
<path d="M15.9989 29.9978C25.3333 29.9978 29.9978 23.7303 29.9978 15.9989C29.9978 8.26751 25.3333 2 15.9989 2C6.66443 2 2 8.26751 2 15.9989C2 23.7303 6.66443 29.9978 15.9989 29.9978Z" fill="url(#paint5_radial_68_3199)"/>
<path d="M15.9989 29.9978C25.3333 29.9978 29.9978 23.7303 29.9978 15.9989C29.9978 8.26751 25.3333 2 15.9989 2C6.66443 2 2 8.26751 2 15.9989C2 23.7303 6.66443 29.9978 15.9989 29.9978Z" fill="url(#paint6_radial_68_3199)"/>
<path d="M14.9717 15C14.9898 15.1642 15 15.331 15 15.5C15 17.9853 12.9853 20 10.5 20C8.01472 20 6 17.9853 6 15.5C6 15.331 6.01017 15.1642 6.02832 15H14.9717ZM25.9717 15C25.9898 15.1642 26 15.331 26 15.5C26 17.9853 23.9853 20 21.5 20C19.0147 20 17 17.9853 17 15.5C17 15.331 17.0102 15.1642 17.0283 15H25.9717Z" fill="white"/>
<path d="M14.5 15.25C14.5 16.4945 13.4945 17.5 12.25 17.5C11.0055 17.49 10 16.4845 10 15.25C10 15.1654 10.0056 15.0821 10.0146 15H14.4854C14.4944 15.0821 14.5 15.1654 14.5 15.25ZM25.5 15.25C25.5 16.4945 24.4945 17.5 23.25 17.5C22.0055 17.49 21 16.4845 21 15.25C21 15.1654 21.0056 15.0821 21.0146 15H25.4854C25.4944 15.0821 25.5 15.1654 25.5 15.25Z" fill="url(#paint7_linear_68_3199)"/>
<path fill-rule="evenodd" clip-rule="evenodd" d="M8.06915 9.98761C7.47625 10.5505 7.11769 11.2277 6.97423 11.6581C6.88691 11.9201 6.60375 12.0617 6.34178 11.9743C6.07981 11.887 5.93823 11.6039 6.02555 11.3419C6.21542 10.7723 6.65687 9.94951 7.38064 9.26239C8.1129 8.5672 9.1478 8 10.4999 8C10.776 8 10.9999 8.22386 10.9999 8.5C10.9999 8.77614 10.776 9 10.4999 9C9.45198 9 8.65355 9.4328 8.06915 9.98761Z" fill="url(#paint8_linear_68_3199)"/>
<path fill-rule="evenodd" clip-rule="evenodd" d="M23.9309 9.98761C24.5238 10.5505 24.8823 11.2277 25.0258 11.6581C25.1131 11.9201 25.3963 12.0617 25.6582 11.9743C25.9202 11.887 26.0618 11.6039 25.9745 11.3419C25.7846 10.7723 25.3431 9.94951 24.6194 9.26239C23.8871 8.5672 22.8522 8 21.5001 8C21.224 8 21.0001 8.22386 21.0001 8.5C21.0001 8.77614 21.224 9 21.5001 9C22.548 9 23.3465 9.4328 23.9309 9.98761Z" fill="url(#paint9_linear_68_3199)"/>
<path fill-rule="evenodd" clip-rule="evenodd" d="M16 24C13.9954 24 13.0659 25.1042 12.8944 25.4472C12.6474 25.9412 12.0467 26.1414 11.5528 25.8944C11.0588 25.6474 10.8586 25.0468 11.1055 24.5528C11.6007 23.5625 13.2046 22 16 22C18.7954 22 20.3992 23.5625 20.8944 24.5528C21.1414 25.0468 20.9412 25.6474 20.4472 25.8944C19.9532 26.1414 19.3525 25.9412 19.1055 25.4472C18.934 25.1042 18.0046 24 16 24Z" fill="url(#paint10_linear_68_3199)"/>
<defs>
<radialGradient id="paint0_radial_68_3199" cx="0" cy="0" r="1" gradientUnits="userSpaceOnUse" gradientTransform="translate(25.5 9) rotate(131.878) scale(38.9487)">
<stop stop-color="#FFF478"/>
<stop offset="0.474827" stop-color="#FFB02E"/>
<stop offset="1" stop-color="#F70A8D"/>
</radialGradient>
<radialGradient id="paint1_radial_68_3199" cx="0" cy="0" r="1" gradientUnits="userSpaceOnUse" gradientTransform="translate(16 12.5) rotate(101.31) scale(17.8466 22.8581)">
<stop offset="0.787821" stop-color="#F59639" stop-opacity="0"/>
<stop offset="0.972509" stop-color="#FF7DCE"/>
</radialGradient>
<radialGradient id="paint2_radial_68_3199" cx="0" cy="0" r="1" gradientUnits="userSpaceOnUse" gradientTransform="translate(18 14) rotate(135) scale(41.0122)">
<stop offset="0.314853" stop-opacity="0"/>
<stop offset="1"/>
</radialGradient>
<radialGradient id="paint3_radial_68_3199" cx="0" cy="0" r="1" gradientUnits="userSpaceOnUse" gradientTransform="translate(16 17) rotate(77.692) scale(28.1469)">
<stop offset="0.507903" stop-color="#7D6133" stop-opacity="0"/>
<stop offset="1" stop-color="#715B32"/>
</radialGradient>
<radialGradient id="paint4_radial_68_3199" cx="0" cy="0" r="1" gradientUnits="userSpaceOnUse" gradientTransform="translate(16.5 16.5) rotate(55.7131) scale(13.3135 9.65032)">
<stop stop-color="#FFB849"/>
<stop offset="1" stop-color="#FFB847" stop-opacity="0"/>
</radialGradient>
<radialGradient id="paint5_radial_68_3199" cx="0" cy="0" r="1" gradientUnits="userSpaceOnUse" gradientTransform="translate(20.5 18) rotate(9.86581) scale(11.6726)">
<stop stop-color="#FFA64B"/>
<stop offset="0.900412" stop-color="#FFAE46" stop-opacity="0"/>
</radialGradient>
<radialGradient id="paint6_radial_68_3199" cx="0" cy="0" r="1" gradientUnits="userSpaceOnUse" gradientTransform="translate(17.5 15) rotate(43.9708) scale(59.0529)">
<stop offset="0.185425" stop-opacity="0"/>
<stop offset="1" stop-opacity="0.4"/>
</radialGradient>
<linearGradient id="paint7_linear_68_3199" x1="23.7115" y1="15" x2="23.4986" y2="17.5748" gradientUnits="userSpaceOnUse">
<stop stop-color="#553B3E"/>
<stop offset="1" stop-color="#3D2432"/>
</linearGradient>
<linearGradient id="paint8_linear_68_3199" x1="6.83322" y1="12.4" x2="6.83322" y2="10.6" gradientUnits="userSpaceOnUse">
<stop offset="0.0299084" stop-color="#524049"/>
<stop offset="1" stop-color="#4A2C42"/>
</linearGradient>
<linearGradient id="paint9_linear_68_3199" x1="25.1668" y1="12.4" x2="25.1668" y2="10.6" gradientUnits="userSpaceOnUse">
<stop offset="0.0299084" stop-color="#524049"/>
<stop offset="1" stop-color="#4A2C42"/>
</linearGradient>
<linearGradient id="paint10_linear_68_3199" x1="16" y1="22" x2="16" y2="24" gradientUnits="userSpaceOnUse">
<stop stop-color="#4F3C43"/>
<stop offset="1" stop-color="#512756"/>
</linearGradient>
</defs>
</svg>
