<svg width="99" height="110" viewBox="0 0 99 110" fill="none" xmlns="http://www.w3.org/2000/svg">
<path d="M28.2925 55.5635C21.3537 51.5869 14.0903 47.9653 6.28926 46.2408C5.20663 45.9446 4.07906 45.8484 2.96189 45.9567C2.40462 46.0208 1.87048 46.216 1.40321 46.5264C0.935934 46.8367 0.54883 47.2534 0.273634 47.7422C-0.395896 49.1319 0.273632 50.7855 1.09533 52.0738C2.97204 54.9142 5.78205 56.9736 8.61234 58.8503C16.3728 63.9935 24.7014 68.1831 32.9589 72.3626C31.9445 66.4383 29.8344 61.3559 28.2418 55.5635" fill="#7D7DDE"/>
<path d="M81.4895 70.8511C83.7618 78.5203 86.4907 86.1489 90.9339 92.7935C91.5137 93.7585 92.2669 94.608 93.1556 95.2991C93.6001 95.6423 94.1208 95.8732 94.6736 95.9721C95.2264 96.071 95.7949 96.035 96.3308 95.8672C97.7713 95.3296 98.4611 93.6862 98.7248 92.1747C99.3335 88.827 98.7248 85.3881 97.9843 82.081C95.9554 72.951 92.8107 64.2167 89.6963 55.4519C86.3588 60.4531 84.3401 65.5963 81.4895 70.8511Z" fill="#7D7DDE"/>
<path d="M28.1904 55.4012C28.1904 55.4012 28.7281 108.507 58.5323 109.552C88.3366 110.597 89.5844 55.7866 89.5844 55.4012C89.5844 55.4012 86.0643 47.4885 58.8874 47.7929C31.7105 48.0972 28.1904 55.4012 28.1904 55.4012Z" fill="#7D7DDE"/>
<path d="M67.7743 76.4914C67.6264 78.5187 66.8805 80.4566 65.6311 82.06C64.3816 83.6633 62.6847 84.8601 60.755 85.499C58.8253 86.1378 56.7495 86.1901 54.7901 85.649C52.8307 85.108 51.0758 83.998 49.7473 82.4595C48.4189 80.9209 47.5765 79.023 47.3268 77.0057C47.0772 74.9883 47.4314 72.9423 48.3447 71.1263C49.258 69.3103 50.6893 67.806 52.4577 66.8036C54.226 65.8012 56.2519 65.3457 58.2792 65.4948C60.9962 65.6947 63.5228 66.9653 65.3033 69.0274C67.0838 71.0895 67.9726 73.7742 67.7743 76.4914Z" fill="#263238"/>
<path d="M64.9946 76.2885C64.8863 77.7652 64.3425 79.1767 63.432 80.3444C62.5215 81.5121 61.2852 82.3836 59.8794 82.8486C58.4736 83.3137 56.9615 83.3514 55.5342 82.9571C54.107 82.5627 52.8287 81.754 51.8611 80.6331C50.8935 79.5123 50.28 78.1297 50.0982 76.6602C49.9163 75.1907 50.1744 73.7002 50.8396 72.3774C51.5049 71.0545 52.5475 69.9586 53.8356 69.2283C55.1237 68.498 56.5994 68.166 58.0761 68.2744C60.0552 68.4224 61.895 69.3491 63.1919 70.8514C64.4888 72.3537 65.1371 74.3089 64.9946 76.2885Z" fill="white"/>
<path d="M61.3835 77.658C61.3265 77.248 61.3027 76.8341 61.3124 76.4203C61.3124 75.6392 61.3124 74.5436 61.3124 73.1944L61.3936 73.3364L57.5083 71.0945H57.7213L53.836 73.2756C53.7346 73.4582 53.978 73.0423 53.9577 73.0828V74.2291C53.9577 74.6045 53.9577 74.99 53.9577 75.3653C53.9577 76.1059 53.9577 76.8261 53.9577 77.5261L53.8563 77.3333L57.6605 79.6564H57.488C58.6749 79.0173 59.6589 78.5101 60.3487 78.155C60.7057 77.9519 61.0789 77.7788 61.4646 77.6377C61.1453 77.8792 60.8059 78.0931 60.4502 78.2768C59.8009 78.6724 58.8271 79.2912 57.6097 79.9506L57.5286 80.0013L57.4474 79.9506L53.5926 77.7087L53.481 77.6478V77.5159C53.481 76.816 53.481 76.0957 53.481 75.3552C53.481 74.9798 53.481 74.6045 53.481 74.219V73.1234C53.481 73.1234 53.7041 72.7481 53.5926 72.9205L57.4982 70.7598L57.6097 70.6989L57.7112 70.7598L61.5153 73.093H61.6066V73.1843C61.6066 74.5842 61.5255 75.7102 61.4849 76.4812C61.4877 76.8758 61.4537 77.2697 61.3835 77.658Z" fill="#7D7DDE"/>
<path d="M28.0593 55.3606C28.0593 55.3606 28.1202 55.3606 28.2216 55.3606L28.668 55.5128L30.4027 56.1214L31.6403 56.5678L33.1518 57.0344C34.2271 57.3591 35.4445 57.775 36.8343 58.0489L38.995 58.5967C39.7457 58.7894 40.537 58.9314 41.3587 59.1039C42.9818 59.4792 44.757 59.7329 46.6033 60.0372C54.6773 61.1985 62.8759 61.1985 70.9499 60.0372C72.8063 59.743 74.5714 59.4894 76.1945 59.1141C77.0162 58.9315 77.8075 58.7894 78.5582 58.6068L80.7189 58.0489C82.1087 57.7243 83.326 57.3083 84.4115 57.0344C84.9492 56.8721 85.4259 56.7301 85.9128 56.5779L87.1606 56.1316L88.8852 55.5229L89.3315 55.3708L89.4938 55.32C89.4938 55.32 89.4431 55.32 89.3417 55.391L88.8953 55.5635L87.1809 56.2026L85.9433 56.6692C85.4868 56.8316 84.9289 56.9736 84.4419 57.1562C83.3666 57.4808 82.1493 57.9069 80.7595 58.2416L78.5987 58.8097C77.8481 59.0025 77.0568 59.1546 76.2351 59.3372C74.6019 59.7126 72.8367 59.9763 70.9803 60.2807C62.8846 61.4709 54.6584 61.4709 46.5627 60.2807C44.6962 59.9763 42.931 59.7126 41.2978 59.3271C40.4862 59.1546 39.6848 59.0025 38.9341 58.8097L36.7734 58.2416C35.3836 57.9069 34.1764 57.4808 33.091 57.146L31.5896 56.6692L30.352 56.2026L28.6376 55.5534L28.1912 55.3809L28.0593 55.3606Z" fill="#263238"/>
<g opacity="0.3">
<path d="M28.1904 55.4012C28.1904 55.4012 31.7105 48.1073 58.8874 47.7929C86.0643 47.4784 89.5844 55.4012 89.5844 55.4012C89.5844 55.4012 62.1742 68.9237 28.1904 55.4012Z" fill="black"/>
</g>
<path d="M37.5338 93.1992C37.5132 93.1746 37.4961 93.1473 37.4831 93.118L37.3512 92.8847L36.8541 91.9514L36.5092 91.2819L36.1237 90.4602C35.8498 89.8718 35.5455 89.2023 35.2412 88.4313L34.7542 87.2444L34.2775 85.9459C33.9224 85.0532 33.6282 84.0692 33.263 83.0446C32.6239 81.0158 32.0051 78.6927 31.4573 76.258C30.9095 73.8234 30.5139 71.4902 30.1893 69.3497C29.8646 67.2092 29.6516 65.2919 29.5299 63.6587C29.4487 62.8471 29.398 62.1167 29.3574 61.4675C29.3168 60.8183 29.2864 60.2603 29.2661 59.8038V58.7894V58.414C29.2661 58.414 29.2661 58.414 29.2661 58.5155V58.7792C29.2661 59.043 29.2661 59.3879 29.3473 59.7937C29.4284 60.1995 29.4081 60.8081 29.469 61.4472C29.5299 62.0863 29.5806 62.8269 29.6618 63.6384C29.8139 65.2615 30.0675 67.1788 30.3718 69.3193C30.6762 71.4597 31.1225 73.7727 31.6501 76.2073C32.1776 78.642 32.8167 80.9143 33.4355 82.9736C33.7804 83.9881 34.0644 85.0025 34.4499 85.8749L34.9166 87.1836L35.3933 88.3705C35.6774 89.1313 35.9817 89.8008 36.2455 90.3993L36.6107 91.2312L36.9454 91.9109L37.4019 92.8543L37.5135 93.0978L37.5338 93.1992Z" fill="white"/>
<path d="M51.8986 105.971C51.7381 105.965 51.5785 105.945 51.4218 105.91C50.9919 105.842 50.5679 105.74 50.1538 105.606C49.5356 105.421 48.9321 105.19 48.3481 104.916C47.6415 104.571 46.9631 104.17 46.3192 103.719C45.6742 103.261 45.067 102.752 44.5034 102.197C44.0434 101.74 43.6194 101.249 43.2353 100.726C42.9717 100.383 42.7343 100.02 42.5252 99.6409C42.4362 99.507 42.3614 99.3642 42.302 99.2148C42.302 99.2148 42.6773 99.7829 43.3164 100.635C43.712 101.135 44.1389 101.609 44.5946 102.055C45.1599 102.595 45.7633 103.094 46.4003 103.546C47.045 103.994 47.7233 104.391 48.4292 104.733C49.0015 105.014 49.591 105.258 50.1943 105.464C51.2291 105.809 51.8986 105.93 51.8986 105.971Z" fill="white"/>
<path d="M58.1068 87.2343H57.8227C57.6401 87.2343 57.356 87.2343 57.001 87.2343C55.9959 87.2172 54.9985 87.0566 54.0388 86.7575C52.6029 86.3222 51.2634 85.6164 50.0927 84.6779C48.6328 83.5497 47.4816 82.0712 46.7456 80.3794C46.0096 78.6875 45.7128 76.8373 45.8827 75.0002C45.9499 74.2006 46.0926 73.4092 46.3088 72.6365C46.5082 71.9721 46.7592 71.3242 47.0595 70.6989C47.5005 69.7889 48.0674 68.9454 48.7435 68.1933C48.9228 67.9909 49.1124 67.7979 49.3115 67.615C49.4536 67.4832 49.5246 67.4223 49.5347 67.4324C49.5449 67.4426 49.2608 67.7165 48.8043 68.2541C48.1574 69.0117 47.6181 69.8548 47.2015 70.7598C46.9075 71.3808 46.6665 72.0256 46.4812 72.6872C46.2763 73.4474 46.1439 74.2252 46.0856 75.0103C45.9232 76.8151 46.216 78.6319 46.9373 80.2942C47.6586 81.9566 48.7853 83.4115 50.2144 84.5257C50.8303 85.0165 51.4889 85.451 52.1824 85.8242C52.795 86.1331 53.429 86.3975 54.0794 86.6155C55.0297 86.9191 56.015 87.0998 57.0111 87.1531C57.7111 87.2343 58.1068 87.214 58.1068 87.2343Z" fill="white"/>
<path d="M56.8187 0.18519C56.8187 0.18519 30.8287 -0.129285 26.7709 22.4014C22.7132 44.9321 44.6352 45.3176 50.9552 45.7336C53.8261 45.9263 59.9533 45.9466 65.3603 45.8451C77.3408 45.6423 85.8012 43.3192 88.6924 32.2111C89.0367 30.9062 89.2541 29.571 89.3416 28.2243C90.0416 16.051 81.7942 -0.41333 56.8187 0.18519Z" fill="#7D7DDE"/>
<path d="M75.6665 34.4631L37.9192 35.0515C36.9744 35.0662 36.0361 34.8939 35.1582 34.5444C34.2803 34.1949 33.4803 33.6751 32.8042 33.0151C32.1281 32.355 31.5893 31.5677 31.2188 30.6984C30.8484 29.8292 30.6536 28.8953 30.6457 27.9504C30.6158 26.0499 31.3416 24.2153 32.6636 22.8496C33.9855 21.4839 35.7955 20.6988 37.696 20.6667L75.4636 20.1291C76.4085 20.1157 77.3468 20.2889 78.2246 20.6387C79.1024 20.9886 79.9026 21.5082 80.5793 22.1679C81.2559 22.8276 81.7957 23.6143 82.1677 24.483C82.5398 25.3517 82.7367 26.2852 82.7473 27.2302C82.7635 29.1271 82.0276 30.9532 80.7005 32.3088C79.3735 33.6644 77.5634 34.439 75.6665 34.4631Z" fill="#263238"/>
<path d="M45.7509 27.22C45.6636 27.6676 45.4454 28.0792 45.1238 28.4026C44.8023 28.726 44.392 28.9467 43.9449 29.0367C43.4979 29.1266 43.0342 29.0818 42.6126 28.9079C42.191 28.7339 41.8306 28.4388 41.5769 28.0598C41.3233 27.6808 41.188 27.235 41.188 26.779C41.188 26.3229 41.3234 25.8772 41.5771 25.4982C41.8308 25.1192 42.1912 24.8241 42.6128 24.6502C43.0344 24.4764 43.4982 24.4316 43.9452 24.5216C44.5416 24.6417 45.0662 24.9928 45.4046 25.4984C45.7429 26.004 45.8674 26.6229 45.7509 27.22Z" fill="white"/>
<path d="M72.1266 26.794C72.0397 27.2413 71.8221 27.6528 71.5012 27.9764C71.1803 28.3 70.7707 28.5211 70.3241 28.6117C69.8775 28.7024 69.4141 28.6585 68.9924 28.4856C68.5708 28.3128 68.2099 28.0187 67.9555 27.6406C67.7011 27.2625 67.5646 26.8175 67.5632 26.3618C67.5619 25.9061 67.6958 25.4603 67.9479 25.0807C68.2001 24.7011 68.5592 24.4049 68.9798 24.2295C69.4004 24.0542 69.8636 24.0075 70.3107 24.0955C70.909 24.2133 71.4361 24.5635 71.7765 25.0693C72.1169 25.5752 72.2428 26.1954 72.1266 26.794Z" fill="white"/>
<path d="M52.365 26.1549C52.5374 26.1549 52.4461 26.9766 52.9533 28.0519C53.2441 28.6645 53.6586 29.2102 54.1707 29.6547C54.7777 30.184 55.5312 30.5165 56.3314 30.6082C57.1371 30.6669 57.9412 30.4756 58.6342 30.0605C59.2204 29.7159 59.7283 29.253 60.1254 28.7011C60.8152 27.7374 60.8761 26.936 61.0486 26.9461C61.221 26.9563 61.1805 27.149 61.1805 27.5345C61.1574 28.0761 61.0154 28.606 60.7645 29.0866C60.3879 29.8122 59.8328 30.4302 59.1516 30.8821C58.2962 31.4617 57.2707 31.7369 56.2401 31.6633C55.2121 31.5537 54.2527 31.0955 53.5214 30.3648C52.9321 29.8081 52.4955 29.1095 52.2534 28.3359C52.0881 27.8186 52.043 27.2704 52.1215 26.7331C52.1925 26.3273 52.294 26.1447 52.365 26.1549Z" fill="white"/>
<path d="M53.5315 1.86917H53.4402H53.1663C52.9228 1.86917 52.5678 1.86917 52.1518 1.95032C50.861 2.07858 49.58 2.29208 48.3173 2.58942C46.4456 3.03265 44.6238 3.66485 42.8799 4.47628C40.7401 5.47704 38.7358 6.74506 36.915 8.25C33.6187 11.0051 30.9927 14.4741 29.2356 18.3944C28.7027 19.5759 28.2519 20.7927 27.8865 22.0362C27.7444 22.4826 27.6734 22.8275 27.6024 23.0507L27.5212 23.3144V23.4057C27.5212 23.4057 27.5212 23.4057 27.5212 23.3144L27.5821 23.0405C27.6328 22.8072 27.6937 22.4522 27.8256 22.0261C28.1453 20.7694 28.559 19.5384 29.0632 18.3437C29.8296 16.556 30.7852 14.8556 31.9138 13.2715C35.8399 7.78648 41.6519 3.94312 48.2361 2.47783C49.5187 2.19203 50.8208 2.00215 52.1316 1.90975C52.5881 1.90975 52.9533 1.90975 53.146 1.90975H53.5112L53.5315 1.86917Z" fill="white"/>
<path d="M28.1096 33.0429C27.9428 32.7938 27.8161 32.5199 27.7343 32.2314C27.4986 31.5721 27.322 30.8931 27.2068 30.2025C27.0999 29.4943 27.0558 28.778 27.0749 28.062C27.0692 27.7647 27.1033 27.4678 27.1763 27.1795C27.2473 27.1795 27.1764 28.5388 27.4198 30.2228C27.6633 31.9068 28.1705 33.0227 28.1096 33.0429Z" fill="white"/>
<path d="M69.4278 18.8103C69.4278 18.8712 64.457 18.9219 58.3298 18.9219C52.2026 18.9219 47.2217 18.9219 47.2217 18.8103C47.2217 18.6987 52.1924 18.7088 58.3298 18.7088C64.4671 18.7088 69.4278 18.7596 69.4278 18.8103Z" fill="white"/>
<path d="M50.478 44.1307C50.478 44.1307 50.4172 44.1307 50.2955 44.1307H49.7578C49.5143 44.1307 49.2303 44.1307 48.8955 44.1307C48.5608 44.1307 48.1753 44.1307 47.7492 44.1307C46.7593 44.1224 45.7705 44.0614 44.7871 43.9481C43.5829 43.8081 42.3874 43.6015 41.2061 43.3293C40.027 43.0612 38.865 42.7224 37.7265 42.3149C36.7969 41.9784 35.886 41.5924 34.9977 41.1584C34.6122 40.9758 34.2774 40.7932 33.9832 40.6309C33.6891 40.4686 33.4355 40.3367 33.2326 40.215L32.7659 39.9309L32.6138 39.8194C32.6138 39.8194 32.6746 39.8194 32.7862 39.8904L33.2731 40.1338C33.476 40.2454 33.7296 40.3874 34.034 40.5295C34.3383 40.6715 34.6731 40.8541 35.0484 41.0164C35.8092 41.3714 36.7324 41.7569 37.7773 42.1323C38.9158 42.5291 40.0737 42.8677 41.2466 43.1467C42.4218 43.4179 43.6103 43.6279 44.8073 43.7757C45.9029 43.9075 46.9072 43.9786 47.7492 43.9988C48.1651 43.9988 48.5506 43.9988 48.8854 43.9988H50.4679L50.478 44.1307Z" fill="white"/>
<path d="M82.2503 58.6474H82.159L81.8648 58.759L80.7387 59.1647C80.2518 59.3372 79.6533 59.5401 78.9432 59.7531C78.2331 59.9662 77.4317 60.2299 76.539 60.4531L75.1289 60.8284L73.5869 61.1835C72.5725 61.4371 71.3755 61.64 70.1683 61.8733C67.538 62.3179 64.8869 62.6294 62.2252 62.8066C59.5657 62.9427 56.901 62.9427 54.2415 62.8066C53.0141 62.7254 51.8475 62.6646 50.762 62.5428L49.1897 62.3805L47.739 62.1776C46.8159 62.066 45.9942 61.9037 45.2638 61.782C44.5334 61.6603 43.9146 61.5284 43.4073 61.4168L42.2407 61.153L41.9364 61.082H41.835C41.835 61.082 41.8349 61.082 41.9465 61.082L42.2509 61.1327L43.4276 61.3559C43.9349 61.4574 44.5537 61.5791 45.2841 61.6805C46.0144 61.782 46.8361 61.9544 47.7593 62.0559L49.2099 62.2385C49.707 62.2994 50.2244 62.3399 50.7722 62.3907C51.8576 62.5022 53.0242 62.5631 54.2415 62.6341C56.6965 62.7356 59.3949 62.7356 62.2151 62.5733C65.0352 62.411 67.7133 62.0559 70.1277 61.6603C71.3349 61.4371 72.4812 61.2443 73.5463 60.9907C74.0738 60.869 74.5608 60.7675 75.0883 60.6458L76.4984 60.2908C77.4012 60.0777 78.2026 59.8241 78.9026 59.6212C79.6026 59.4183 80.2214 59.2256 80.7184 59.0633L81.8546 58.6981L82.1488 58.6068L82.2503 58.6474Z" fill="white"/>
</svg>
