<svg width="185" height="185" viewBox="0 0 185 185" fill="none" xmlns="http://www.w3.org/2000/svg">
<path d="M14.3956 153.062C64.5322 152.837 120.773 152.833 170.91 153.062C120.773 153.291 64.5322 153.287 14.3956 153.062Z" fill="#263238"/>
<path d="M147.904 90.7157C148.324 92.5084 148.77 94.2716 148.859 96.1122C148.811 96.2008 148.818 96.5364 148.874 96.4442C148.885 96.7393 149.335 96.6877 149.335 96.3926C149.331 96.2008 149.324 96.0126 149.316 95.8245C150.371 94.515 151.902 93.6851 153.142 92.549C154.141 91.6268 154.857 90.5313 155.237 89.2144C156.262 85.677 155.299 81.9256 156.535 78.3992C157.597 75.356 159.508 72.7112 161.124 69.9558C162.828 67.0417 164.086 63.9764 164.215 60.5607C164.315 57.9455 164.005 54.4633 162.013 52.501C159.903 50.4206 157.284 51.9809 155.668 53.8326C150.984 59.2107 148.815 66.0089 147.937 72.9584C147.454 76.8057 146.952 80.6751 147.066 84.5593C147.133 86.6471 147.431 88.6869 147.904 90.712V90.7157Z" fill="#8C8CEB"/>
<path d="M148.837 97.525C148.594 93.8917 148.608 90.2472 148.966 86.6286C148.959 86.6139 148.948 86.6065 148.948 86.5881C148.889 83.6408 148.656 80.7083 148.771 77.7611C148.896 74.5556 149.364 71.4165 150.069 68.2922C150.076 68.2553 150.132 68.2664 150.124 68.3033C149.545 71.3501 149.21 74.4634 149.099 77.5656C149.04 79.2291 149.051 80.8964 149.139 82.5563C149.169 83.0986 149.217 83.6408 149.254 84.1867C150.442 75.8909 153.499 68.0266 158.018 60.9886C158.081 60.8927 158.251 60.996 158.188 61.0919C154.934 66.4036 152.537 72.2354 151.054 78.2885C153.308 74.113 156.712 70.6788 159.235 66.6692C159.25 66.6471 159.287 66.6692 159.272 66.6913C157.004 71.1583 153.256 74.681 150.866 79.0816C150.453 80.8743 150.113 82.6854 149.859 84.5077C149.512 87.0086 149.35 89.5243 149.317 92.0436C150.689 89.4763 152.113 87.0233 153.238 84.3085C153.267 84.2347 153.37 84.2863 153.348 84.3564C152.393 87.1746 151.109 90.2103 149.313 92.6154C149.302 94.4007 149.357 96.186 149.46 97.9676C149.741 102.726 150.552 107.418 150.928 112.162C150.94 112.306 150.74 112.32 150.711 112.184C149.722 107.396 149.158 102.398 148.833 97.5213L148.837 97.525Z" fill="#263238"/>
<path d="M153.887 60.8374C153.901 60.8042 153.953 60.8263 153.938 60.8595C153.068 63.2609 152.577 65.6954 151.95 68.1594C151.921 68.2701 151.758 68.248 151.769 68.1299C152.024 65.6327 152.917 63.1391 153.883 60.8337L153.887 60.8374Z" fill="#263238"/>
<path d="M131.821 70.9075C132.385 72.3203 133.083 73.6851 133.82 75.013C135.384 77.8533 137.018 80.4575 137.313 83.7662C137.446 85.2417 137.491 86.7282 137.944 88.1521C138.332 89.3841 138.966 90.5202 139.693 91.5862C141.389 94.0576 143.507 96.186 145.078 98.7496C146.712 101.413 147.918 104.345 148.656 107.381C148.697 107.547 148.959 107.503 148.918 107.337C148.911 107.322 148.911 107.311 148.907 107.3C148.914 107.293 148.922 107.282 148.922 107.267C149.169 100.173 148.605 93.0211 146.439 86.2266C145.491 83.2535 144.326 80.2989 143.001 77.4734C141.843 75.0093 140.397 72.6412 138.361 70.7968C137.041 69.6091 134.178 67.3516 132.297 68.5467C131.393 69.1222 131.463 70.0259 131.817 70.9112L131.821 70.9075Z" fill="#8C8CEB"/>
<path d="M138.951 86.9901C140.169 89.0705 141.611 91.0071 143.075 92.9178C143.761 93.8142 144.458 94.7031 145.145 95.6032C145.469 96.0274 145.831 96.4516 146.129 96.9053C145.941 96.1602 145.761 95.4114 145.569 94.6662C144.654 91.0809 143.772 87.4659 142.411 84.0207C141.08 80.6529 139.305 77.4881 137.487 74.3638C137.439 74.2826 137.572 74.2236 137.62 74.301C139.117 76.7651 140.641 79.2291 141.902 81.8259C142.607 83.2793 143.197 84.7732 143.721 86.2929C143.108 83.0358 142.374 79.9041 141.301 76.7503C141.29 76.7208 141.33 76.7024 141.345 76.7319C142.651 79.8267 143.595 83.3051 143.857 86.6581C143.857 86.6655 143.857 86.6692 143.854 86.6729C144.16 87.595 144.444 88.5246 144.706 89.4615C145.823 93.4305 146.804 97.4401 147.716 101.464C147.701 98.8086 147.535 96.197 147.029 93.5744C147.018 93.5154 147.107 93.5006 147.122 93.5596C147.782 96.2598 148.081 99.1 147.808 101.878C148.151 103.408 148.486 104.939 148.815 106.474C149.512 109.746 150.368 113.073 150.777 116.393C150.788 116.477 150.666 116.496 150.644 116.415C150.157 114.626 149.862 112.77 149.468 110.955C149.069 109.137 148.656 107.322 148.236 105.511C147.62 102.87 146.974 100.24 146.318 97.6098C145.879 96.6471 145.03 95.7913 144.392 94.9798C143.695 94.0908 142.994 93.2055 142.315 92.3018C141.05 90.6234 139.888 88.8787 138.903 87.0196C138.881 86.979 138.944 86.9532 138.966 86.9901H138.951Z" fill="#263238"/>
<path d="M138.649 83.958C140.187 85.9315 141.585 88.1188 142.684 90.3689C142.699 90.3984 142.655 90.428 142.636 90.3984C141.279 88.2701 139.943 86.127 138.59 83.9949C138.568 83.958 138.627 83.9211 138.652 83.9543L138.649 83.958Z" fill="#263238"/>
<path d="M168.852 77.6356C167.933 79.2181 166.882 81.1214 167.277 83.0211C167.527 84.2236 168.409 85.2011 168.568 86.4295C168.926 89.1406 166.222 90.9296 164.27 92.2096C159.398 95.404 152.717 98.2554 151.832 104.784C151.799 105.017 151.401 104.958 151.426 104.733C151.426 104.718 151.43 104.703 151.437 104.688C151.426 104.674 151.412 104.67 151.412 104.652C150.781 101.343 150.796 97.975 151.504 94.681C152.231 91.317 153.699 88.2922 155.432 85.3376C158.365 80.3358 161.467 75.2159 165.901 71.3833C167.129 70.3247 169.641 68.4176 170.619 70.8116C171.567 73.1355 169.977 75.7065 168.852 77.6356Z" fill="#8C8CEB"/>
<path d="M164.392 88.2369C161.161 91.7338 156.026 93.6925 153.249 97.6099C154.897 91.6084 157.623 86.2082 161.814 81.5199C161.921 81.3981 161.755 81.2285 161.637 81.3428C158.568 84.2937 156.295 87.739 154.636 91.4793C155.381 88.8087 156.425 86.2819 157.649 83.77C157.697 83.674 157.561 83.5929 157.505 83.6851C155.945 86.3483 154.905 89.3362 154.256 92.3498C150.593 101.217 150.253 111.619 151.021 120.967C151.032 121.099 151.235 121.103 151.231 120.967C151.021 113.6 151.139 106.105 152.906 98.912C152.942 98.7607 152.983 98.6132 153.02 98.4657C156.045 94.2495 161.157 92.2945 164.444 88.2923C164.477 88.2554 164.422 88.2001 164.388 88.2369H164.392Z" fill="#263238"/>
<path d="M165.141 85.2343C163.444 86.791 161.777 88.3808 160.076 89.9337C160.058 89.9485 160.08 89.978 160.102 89.9669C161.95 88.7164 163.828 87.0639 165.241 85.3339C165.3 85.2638 165.207 85.1679 165.141 85.2343Z" fill="#263238"/>
<path d="M165.41 78.4951C163.872 80.9628 162.256 83.2793 160.338 85.4741C160.312 85.5036 160.353 85.5442 160.383 85.5184C162.441 83.5339 164.27 81.1362 165.502 78.5505C165.532 78.4914 165.447 78.4398 165.41 78.4988V78.4951Z" fill="#263238"/>
<path d="M140.615 125.898H159.586V105.902H140.615V125.898Z" fill="#455A64"/>
<path d="M160.895 112.973H159.925V153.058H160.895V112.973Z" fill="#263238"/>
<path d="M140.382 112.973H139.412V153.058H140.382V112.973Z" fill="#263238"/>
<path d="M150.121 112.973H149.15V153.058H150.121V112.973Z" fill="#263238"/>
<path d="M139.899 127.381H160.408V124.611H139.899V127.381Z" fill="#263238"/>
<path d="M168.652 167.614H16.6493L35.1406 153.062H150.161L168.652 167.614Z" fill="#8C8CEB"/>
<g opacity="0.5">
<path d="M168.652 167.614H16.6493L35.1406 153.062H150.161L168.652 167.614Z" fill="white"/>
</g>
<path d="M168.656 167.614H16.6493V170.085H168.656V167.614Z" fill="#8C8CEB"/>
<path d="M87.059 116.551H113.669L118.191 121.73C127.302 121.313 137.786 121.151 147.557 123.268C165.48 127.152 171.936 150.808 149.626 159.956C131.452 167.407 61.7694 152.579 61.7694 152.579L77.509 126.931C77.509 126.931 96.4651 126.212 119.136 126.463L87.2729 129.701L87.059 116.555V116.551Z" fill="#37474F"/>
<path d="M68.4717 151.767C68.8295 151.029 73.0088 144.666 73.942 143.209C75.8269 140.258 77.6381 137.263 79.3976 134.238C80.3972 132.516 81.4042 130.801 82.3412 129.041C82.3633 129.001 82.308 128.964 82.2821 129.004C80.305 131.933 78.4275 134.932 76.5057 137.901C74.606 140.841 68.6082 150.823 68.2873 151.679C68.2209 151.859 68.3869 151.951 68.4717 151.771V151.767Z" fill="#263238"/>
<path d="M146.369 126.4C144.123 126.238 141.873 126.182 139.623 126.09C138.7 126.053 137.782 126.02 136.86 125.987C138.324 125.751 139.792 125.563 141.283 125.478C141.389 125.47 141.386 125.312 141.283 125.312C139.508 125.352 137.723 125.548 135.989 125.957C134.953 125.924 133.916 125.895 132.88 125.869C128.383 125.758 123.883 125.747 119.383 125.769C110.43 125.817 101.478 125.998 92.5292 126.249C90.0062 126.319 87.4794 126.396 84.9564 126.492C82.437 126.588 79.8955 126.699 77.3872 126.983C77.3429 126.986 77.3429 127.049 77.3872 127.053C79.6336 127.178 81.8874 127.138 84.1375 127.134C86.3876 127.134 88.6377 127.06 90.8841 127.009C95.3843 126.909 99.8808 126.809 104.381 126.732C113.333 126.581 122.282 126.544 131.235 126.551C133.758 126.551 136.281 126.548 138.807 126.559C141.33 126.573 143.854 126.643 146.377 126.632C146.528 126.632 146.52 126.411 146.377 126.4H146.369Z" fill="#263238"/>
<path d="M165.694 127.599C165.229 127.407 120.084 125.315 120.084 125.315C118.568 126.09 117.937 131.324 117.937 131.324C118.114 132.121 102.536 135.526 102.536 135.526L120.537 155.526L145.539 140.764C145.539 140.764 163.134 134.08 163.805 133.615C165.547 132.401 167.158 128.189 165.698 127.599H165.694Z" fill="#FFC4C0"/>
<path d="M88.2282 130.41V131.553L28.6118 129.454C41.4447 129.023 67.7893 129.72 88.2282 130.413V130.41Z" fill="#37474F"/>
<path d="M31.6919 129.454C33.2743 129.399 35.0486 129.344 36.9815 129.273C37.2692 129.41 37.5569 129.543 37.8409 129.683L31.6919 129.454Z" fill="#37474F"/>
<path d="M130.825 156.489C130.825 156.489 56.2363 166.5 32.9866 158.381C14.462 151.907 15.8453 132.674 28.6118 125.249C28.8257 125.124 29.047 124.998 29.2721 124.88C29.4712 124.773 29.6704 124.67 29.8733 124.57C29.9139 124.548 29.9581 124.526 29.9987 124.508C30.1573 124.43 30.3196 124.356 30.4783 124.283C30.5778 124.235 30.6811 124.187 30.7844 124.146C30.9541 124.069 31.1275 123.999 31.3008 123.925C31.3451 123.906 31.3857 123.888 31.4299 123.877C31.6476 123.788 31.8652 123.707 32.0902 123.626C32.1123 123.619 32.1345 123.608 32.1566 123.604C32.3632 123.527 32.5734 123.456 32.7874 123.394C32.898 123.353 33.0124 123.316 33.1304 123.287C33.2964 123.231 33.4624 123.183 33.6321 123.139C33.894 123.062 34.1596 122.995 34.4214 122.933C49.9729 119.192 69.7627 122.073 69.7627 122.073L76.0371 116.555H88.2245V130.413C67.7856 129.72 41.441 129.023 28.6081 129.454L88.2245 131.553V130.41C103.876 130.93 116.063 131.454 116.063 131.454L130.821 156.492L130.825 156.489Z" fill="#37474F"/>
<path d="M79.5635 130.129C62.3448 129.594 43.0788 129.155 31.4742 129.373C31.334 128.514 31.4557 127.813 31.9906 127.599C32.4554 127.407 77.6011 125.315 77.6011 125.315C78.6524 125.854 79.2795 128.539 79.5598 130.129H79.5635Z" fill="#37474F"/>
<path d="M118.641 125.773C118.951 125.773 119.261 125.769 119.571 125.769C119.401 125.99 119.246 126.267 119.102 126.577C113.946 126.599 108.796 126.651 103.64 126.736C99.1393 126.813 94.6391 126.913 90.1426 127.009C87.8962 127.064 85.6424 127.134 83.396 127.134C81.1496 127.138 78.8922 127.178 76.6457 127.053C76.6015 127.053 76.6015 126.99 76.6457 126.986C79.154 126.702 81.6919 126.592 84.2149 126.496C86.738 126.396 89.2647 126.319 91.7878 126.252C100.733 126.002 109.685 125.821 118.641 125.773Z" fill="#263238"/>
<path d="M145.746 126.533C140.995 126.304 136.074 126.064 131.828 125.869C131.932 125.869 132.031 125.869 132.135 125.872C133.171 125.895 134.208 125.928 135.244 125.961C136.974 125.552 138.763 125.352 140.534 125.315C140.641 125.315 140.641 125.478 140.537 125.481C139.051 125.566 137.579 125.754 136.115 125.991C137.037 126.027 137.959 126.057 138.877 126.094C141.131 126.19 143.381 126.241 145.624 126.404C145.705 126.407 145.746 126.474 145.742 126.533H145.746Z" fill="#263238"/>
<path d="M79.5635 130.129C62.3448 129.594 43.0788 129.155 31.4742 129.373C31.334 128.514 31.4557 127.813 31.9906 127.599C32.4554 127.407 77.6011 125.315 77.6011 125.315C78.6524 125.854 79.2795 128.539 79.5598 130.129H79.5635Z" fill="#FFC4C0"/>
<path d="M116.705 132.243C116.668 132.158 116.196 131.096 116.118 131.088C102.304 130.288 92.0386 130.015 80.3086 129.698C68.5786 129.38 56.8486 129.185 45.1149 129.144C38.6855 129.122 32.1566 129.119 25.8231 130.339C25.7383 130.354 25.7604 130.502 25.8489 130.491C31.6106 129.842 37.4056 129.764 43.2005 129.864C49.0286 129.963 54.8567 130.033 60.6811 130.144C72.3521 130.362 84.0231 130.657 95.6904 131.062C102.245 131.291 109.46 131.453 116.015 131.686C116.019 131.708 116.413 132.453 116.506 132.483C116.69 132.538 116.786 132.427 116.705 132.239V132.243Z" fill="#263238"/>
<path d="M131.364 156.625C130.84 155.806 130.323 154.984 129.811 154.157C129.313 153.357 128.811 152.531 128.213 151.804C128.088 151.653 127.9 151.856 127.966 152.003C128.361 152.863 128.892 153.678 129.398 154.478C129.829 155.164 130.261 155.854 130.685 156.548C128.995 156.743 127.299 156.909 125.606 157.097C123.798 157.296 121.994 157.499 120.187 157.698C116.535 158.097 112.876 158.436 109.22 158.809C107.151 159.019 105.074 159.181 103.012 159.451C102.953 159.458 102.953 159.546 103.012 159.546C104.864 159.558 106.716 159.458 108.568 159.362C110.382 159.27 112.194 159.148 114.001 159.004C117.66 158.713 121.316 158.37 124.956 157.912C127.022 157.654 129.077 157.341 131.135 157.038C131.323 157.009 131.474 156.821 131.356 156.632L131.364 156.625Z" fill="#263238"/>
<path d="M122.511 155.522C122.002 154.88 118.095 148.344 117.188 146.872C115.355 143.892 113.448 140.956 111.489 138.056C110.375 136.404 109.268 134.751 108.092 133.143C108.066 133.106 108.011 133.143 108.033 133.18C109.807 136.238 111.688 139.233 113.525 142.254C115.344 145.242 121.718 154.991 122.348 155.651C122.481 155.791 122.636 155.681 122.514 155.526L122.511 155.522Z" fill="#263238"/>
<path d="M102.581 68.8455C103.842 69.1553 105.24 68.768 106.093 67.7536C106.926 66.7577 107.081 65.3339 106.579 64.1572C107.952 64.4006 109.39 63.9838 110.076 62.6264C110.788 61.2247 110.231 59.6791 109.003 58.8012C108.995 58.7939 108.981 58.8086 108.988 58.816C110.021 59.7345 110.53 61.2173 109.855 62.501C109.28 63.6002 108.25 63.9728 107.159 63.9432C108.136 63.6113 109.018 62.9768 109.453 62.0178C109.929 60.9628 109.752 59.6644 108.951 58.8381C109.918 57.9491 110.641 56.6618 110.486 55.3117C110.353 54.1756 109.578 53.1539 108.483 52.8366C109.254 51.7817 109.372 50.2878 108.671 49.159C108.014 48.0967 106.775 47.5249 105.554 47.6245C106.594 45.9499 105.532 43.7182 103.547 43.4895C103.817 42.8329 103.621 42.0694 103.131 41.5493C102.562 40.9443 101.718 40.7673 100.91 40.7451C100.759 40.0295 100.275 39.384 99.5709 39.1221C98.6266 38.7717 97.6307 39.1996 97.1512 40.0295C96.1073 39.2328 94.8642 38.5135 93.5104 38.6205C92.3964 38.709 91.2972 39.384 90.9579 40.4759C88.8996 39.2992 86.2954 40.1734 85.3584 42.3571C84.4031 42.1247 83.3924 42.4678 82.71 43.1834C82.0239 43.9027 81.7731 44.5592 81.6845 44.8802C80.8103 44.7363 79.9361 45.2084 79.5266 45.9978C79.1246 46.7761 79.2315 47.5876 79.5377 48.3475C79.4971 48.5651 79.4197 48.768 79.2611 48.9893C78.5528 49.9963 78.3684 51.2136 78.7926 52.3719C77.6196 53.2276 77.5016 55.0609 78.5491 56.0605C77.6712 57.252 77.9885 59.0594 79.2057 59.8931C78.6229 60.9001 78.4754 62.1247 78.8627 63.2313C79.1578 64.0797 79.8549 64.9023 80.7771 64.9392C80.4746 65.581 80.9357 66.3335 81.5407 66.6618C81.7694 66.7872 82.0202 66.8684 82.271 66.9385C82.5698 67.0196 82.9719 67.0454 83.2264 67.2299C83.492 67.418 83.5731 67.7868 83.7244 68.0598C83.835 68.2516 83.9641 68.4361 84.1117 68.602C85.233 69.8599 87.2139 70.1697 88.6451 69.2992C89.2352 70.3394 90.5152 70.6124 91.6476 70.4943C92.0202 70.4538 92.3706 70.3579 92.7284 70.2546C93.0604 70.1587 93.3518 70.096 93.6985 70.2029C93.9051 70.2656 94.0969 70.3763 94.3072 70.4427C95.0117 70.664 95.672 70.4021 96.2917 70.0701C97.9811 72.7924 101.725 71.6489 102.581 68.8455ZM79.6152 46.4737C79.925 45.5589 80.7107 45.0166 81.6587 44.9724C81.6439 45.0388 81.6366 45.083 81.6366 45.083C81.6366 45.083 81.3489 45.1752 81.2124 45.2343C80.9689 45.3486 80.7402 45.4962 80.5373 45.6769C80.1168 46.0495 79.8033 46.5474 79.6631 47.0897C79.6004 47.3331 79.582 47.584 79.5783 47.8348C79.5783 47.868 79.5783 47.8975 79.5783 47.927C79.475 47.4512 79.4455 46.9679 79.6152 46.47V46.4737ZM99.7074 39.8488C98.9328 39.4394 97.9442 39.5463 97.3061 40.1439C97.2876 40.1291 97.2692 40.1144 97.2507 40.0996C97.8188 39.3951 98.5344 38.9119 99.5082 39.2918C100.191 39.5574 100.515 40.1107 100.644 40.7378C100.641 40.7378 100.637 40.7378 100.63 40.7378C100.412 40.3689 100.106 40.0554 99.7074 39.8488ZM96.4134 70.0037C96.4134 70.0037 96.4319 69.9927 96.4429 69.989C98.0143 71.4423 100.357 71.2911 101.751 69.8783C100.32 71.5456 98.1176 72.1542 96.4134 70.0037Z" fill="#263238"/>
<path d="M88.6414 80.096C85.6056 87.9897 72.6657 114.135 65.4248 115.201C58.0917 116.278 58.3942 109.941 60.6258 103.408C63.4735 95.0646 75.2441 83.5191 80.6185 78.7348C85.7347 74.1793 91.6255 72.3387 88.6414 80.096Z" fill="#FFC4C0"/>
<path d="M81.4189 99.978L72.8833 84.5556C72.8833 84.5556 79.3828 78.5357 83.4514 75.7138C88.8331 71.9772 92.2009 73.1539 90.2496 80.9444C88.9438 86.1565 81.4226 99.978 81.4226 99.978H81.4189Z" fill="#8C8CEB"/>
<path d="M82.6472 94.4892C81.6586 92.56 76.5166 84.3232 75.9412 83.4121C75.908 83.3604 75.8268 83.4195 75.8526 83.4748C76.4318 84.681 80.0909 91.1436 82.5587 94.5519C82.5955 94.5999 82.6767 94.5408 82.6472 94.4892Z" fill="#263238"/>
<path opacity="0.1" d="M90.2459 80.9444C88.9401 86.1565 81.4189 99.978 81.4189 99.978L76.8154 91.6674L88.4827 73.6777C90.6074 73.7957 91.4632 76.079 90.2459 80.9444Z" fill="black"/>
<path d="M98.2947 80.096C101.33 87.9897 114.27 114.135 121.511 115.201C128.844 116.278 128.542 109.941 126.31 103.408C123.463 95.0646 111.692 83.5191 106.318 78.7348C101.201 74.1793 95.3105 72.3387 98.2947 80.096Z" fill="#FFC4C0"/>
<path d="M105.517 99.978L114.053 84.5556C114.053 84.5556 107.553 78.5357 103.485 75.7138C98.1028 71.9772 94.735 73.1539 96.6863 80.9444C97.9921 86.1565 105.513 99.978 105.513 99.978H105.517Z" fill="#8C8CEB"/>
<path d="M104.285 94.4892C105.274 92.56 110.416 84.3232 110.991 83.4121C111.024 83.3604 111.105 83.4195 111.08 83.4748C110.5 84.681 106.841 91.1436 104.374 94.5519C104.337 94.5999 104.256 94.5408 104.285 94.4892Z" fill="#263238"/>
<path opacity="0.1" d="M96.6863 80.9444C97.9921 86.1565 105.513 99.978 105.513 99.978L110.117 91.6674L98.4495 73.6777C96.3248 73.7957 95.4691 76.079 96.6863 80.9444Z" fill="black"/>
<path d="M71.3009 120.325H117.771C117.771 120.325 109.029 88.3291 99.807 75.2122C96.9262 71.1141 89.6299 70.7563 86.8155 75.2122C79.5488 86.7172 71.3009 120.325 71.3009 120.325Z" fill="#8C8CEB"/>
<path opacity="0.1" d="M99.4123 74.7105H87.1733C87.3135 74.5224 87.4647 74.349 87.6307 74.183H98.9107C99.0877 74.349 99.2574 74.5261 99.4123 74.7105ZM102.157 78.9599H84.7683C84.6834 79.1333 84.6023 79.3103 84.5138 79.4874H102.452C102.356 79.3103 102.256 79.1333 102.157 78.9599ZM104.643 83.7367H82.651C82.5809 83.9101 82.5108 84.0871 82.437 84.2642H104.897C104.813 84.0871 104.731 83.9101 104.643 83.7367ZM106.819 88.5173H80.8066C80.7439 88.6906 80.6812 88.8677 80.6148 89.0447H107.044C106.967 88.8677 106.893 88.6906 106.819 88.5173ZM108.782 93.2941H79.132C79.073 93.4711 79.0139 93.6445 78.9586 93.8216H108.988C108.922 93.6445 108.855 93.4711 108.782 93.2941ZM110.604 98.0746H77.5754C77.52 98.2517 77.461 98.425 77.4094 98.6021H110.799C110.733 98.425 110.67 98.248 110.604 98.0746ZM112.304 102.851H76.1036C76.0519 103.029 76.0003 103.206 75.945 103.379H112.489C112.43 103.206 112.367 103.029 112.304 102.851ZM113.909 107.628H74.7092C74.6576 107.805 74.606 107.982 74.558 108.156H114.082C114.027 107.982 113.968 107.805 113.909 107.628ZM115.432 112.409H73.3739C73.326 112.586 73.278 112.763 73.2301 112.936H115.598C115.543 112.763 115.488 112.59 115.432 112.409ZM116.875 117.186H72.0977C72.0534 117.37 72.0054 117.543 71.9612 117.713H117.026C116.982 117.547 116.93 117.37 116.875 117.186Z" fill="#030402"/>
<path d="M92.0423 80.225C94.4621 80.225 97.0331 78.1557 98.0918 75.1015C98.1655 74.8875 98.1287 72.785 98.1397 70.1918C98.1508 68.6168 98.2024 66.8683 98.3647 65.2711C98.3979 64.9428 88.1139 66.6839 88.1139 66.6839C88.1139 66.6839 88.7557 70.1254 88.4569 72.9067C88.4274 73.1391 88.3832 73.353 88.3205 73.5559C88.3131 73.5854 88.302 73.6223 88.2946 73.6629C87.9663 74.8838 88.8738 80.225 92.0386 80.225H92.0423Z" fill="#FFC4C0"/>
<path d="M97.7487 65.2527C97.011 67.9011 94.6724 74.2457 89.3201 73.8215C88.9475 73.792 88.6082 73.7403 88.302 73.6628C88.302 73.6186 88.3168 73.5854 88.3241 73.5559C88.3832 73.353 88.4311 73.1427 88.4606 72.9104C88.7594 70.1254 88.1139 66.6839 88.1139 66.6839C88.1139 66.6839 95.5318 65.4297 97.745 65.2527H97.7487Z" fill="#263238"/>
<path d="M99.5044 52.4641C100.722 55.9868 99.213 66.3483 96.7637 68.7348C93.2116 72.1948 87.2101 72.7297 84.2222 68.4176C81.3266 64.2383 83.5325 50.771 86.2879 48.5836C90.3454 45.3597 97.7117 47.263 99.5081 52.4678L99.5044 52.4641Z" fill="#FFC4C0"/>
<path d="M93.7465 56.7982C93.444 56.695 93.1821 56.5511 92.8944 56.4183C92.5698 56.2671 92.2931 56.1822 92.0976 55.865C91.9943 55.6953 92.0644 55.4076 92.223 55.2896C92.5882 55.0166 93.0309 55.1015 93.4329 55.2638C93.8682 55.4408 94.1559 55.6916 94.3772 56.1011C94.5949 56.4995 94.1485 56.9347 93.7502 56.7982H93.7465Z" fill="#263238"/>
<path d="M86.2031 56.0568C86.5241 56.0384 86.8118 55.9683 87.1253 55.9166C87.4794 55.8576 87.7671 55.8466 88.0401 55.592C88.1876 55.4556 88.1913 55.1605 88.0733 55.0055C87.793 54.644 87.3429 54.6108 86.9151 54.6625C86.4503 54.7215 86.1072 54.8838 85.7826 55.2195C85.4691 55.5478 85.7826 56.0826 86.2068 56.0568H86.2031Z" fill="#263238"/>
<path d="M90.8103 66.0163C90.6185 66.1527 90.4193 66.3556 90.1611 66.3372C89.9139 66.3224 89.6483 66.1675 89.4381 66.0495C89.416 66.0384 89.3901 66.0568 89.4012 66.079C89.5414 66.3741 89.8992 66.5991 90.2275 66.5917C90.5521 66.5843 90.7476 66.3335 90.8693 66.0568C90.8877 66.0163 90.8361 65.9941 90.8066 66.0163H90.8103Z" fill="#263238"/>
<path d="M87.4278 58.6131C87.4278 58.5836 87.3687 58.6389 87.3651 58.6684C87.2876 59.3877 87.0773 60.1992 86.3986 60.3505C86.3765 60.3541 86.3728 60.391 86.3986 60.391C87.2064 60.391 87.472 59.3102 87.4315 58.6131H87.4278Z" fill="#263238"/>
<path d="M87.3393 59.3951C87.2839 59.5721 87.1806 59.7455 87.022 59.8893C86.8634 60.0332 86.62 60.0849 86.4097 60.059C86.1921 60.0295 85.9818 59.8672 85.8896 59.6791C85.7974 59.491 85.7605 59.2992 85.7605 59.1147C85.7605 58.9967 85.7716 58.8823 85.79 58.768C85.8306 58.5245 85.908 58.2958 86.0482 58.0966C86.0113 58.27 85.9929 58.4471 85.9966 58.6168C85.9966 58.7791 86.0076 58.934 86.0298 59.0889C86.0814 59.4061 86.2216 59.6865 86.465 59.7086C86.7196 59.7529 86.9409 59.5758 87.0884 59.2844C87.236 59.0004 87.3356 58.6721 87.4278 58.3364C87.4757 58.6831 87.4573 59.0409 87.3393 59.3914V59.3951Z" fill="#263238"/>
<path d="M91.7877 59.0336C91.7988 59.0078 91.8357 59.0779 91.832 59.1074C91.6697 59.8156 91.607 60.6493 92.2046 61.0108C92.223 61.0218 92.2156 61.0587 92.1898 61.0476C91.4262 60.7857 91.5222 59.6755 91.7877 59.0336Z" fill="#263238"/>
<path d="M91.618 59.8009C91.6143 59.9853 91.6549 60.1845 91.7582 60.369C91.8652 60.5571 92.0754 60.6862 92.282 60.7268C92.4996 60.771 92.7505 60.6825 92.898 60.5349C93.0455 60.3874 93.1415 60.2177 93.2042 60.0443C93.241 59.9337 93.2669 59.8193 93.289 59.705C93.3296 59.4615 93.3296 59.2181 93.2595 58.9857C93.2374 59.1628 93.1968 59.3361 93.1415 59.4947C93.0898 59.6497 93.0271 59.7935 92.957 59.93C92.8058 60.214 92.5845 60.4353 92.3447 60.3763C92.0902 60.3357 91.9389 60.096 91.8947 59.7714C91.8504 59.4542 91.8615 59.1111 91.8799 58.7644C91.7213 59.0779 91.6217 59.4247 91.6217 59.7935L91.618 59.8009Z" fill="#263238"/>
<path d="M90.5115 64.2015C89.9766 64.0096 88.9807 63.9949 88.2429 64.0244C88.1618 64.006 87.9847 63.9322 87.9773 63.8547C87.9773 63.8252 88.1507 62.3571 88.1507 62.3571C87.9441 62.4383 86.9039 62.8034 86.9445 62.5231C87.2839 60.2066 87.6601 57.6282 88.4901 55.3966C88.5122 55.3228 88.6302 55.3486 88.6155 55.4261C88.3757 57.6651 87.745 59.8488 87.472 62.0952C87.804 61.9993 88.3425 61.8223 88.6266 61.8518C88.7003 61.8813 88.4311 63.3199 88.4347 63.567C88.4347 63.567 89.7774 63.342 90.7033 64.1351C90.9762 64.3674 90.8803 64.3379 90.5115 64.2088V64.2015Z" fill="#263238"/>
<path d="M89.2832 63.5928C89.8549 63.5854 91.1054 64.124 91.4632 65.024C91.7767 65.8134 90.2054 65.0461 89.925 65.1199C89.6889 65.1826 88.7151 63.5965 89.2869 63.5928H89.2832Z" fill="#263238"/>
<path d="M91.3304 65.3744C91.2935 65.3818 91.2529 65.3855 91.2049 65.3781C90.825 65.3633 90.1869 65.1088 89.9655 65.1125C89.9508 65.1125 89.936 65.1125 89.925 65.1125C89.8955 65.1199 89.8512 65.1014 89.7996 65.0609C89.8807 64.6662 90.2643 64.2752 90.9873 64.3526C91.05 64.4116 91.1127 64.4744 91.1681 64.5408C91.1902 64.5666 91.2123 64.5924 91.2381 64.6256C91.275 64.6662 91.3045 64.7141 91.3304 64.7621C91.3562 64.7953 91.3746 64.8285 91.3931 64.8654C91.4226 64.917 91.4447 64.9686 91.4668 65.0166C91.5591 65.249 91.489 65.3449 91.334 65.3707L91.3304 65.3744Z" fill="#FF9ABB"/>
<path d="M83.7981 65.8281C83.9715 66.2265 83.7908 66.6913 83.3924 66.8683C82.994 67.0454 82.5292 66.861 82.3522 66.4626C82.1751 66.0642 82.3596 65.5994 82.7579 65.4224C83.1563 65.249 83.6211 65.4298 83.7981 65.8281Z" fill="white"/>
<path d="M85.6646 63.3789C85.838 63.7773 85.6572 64.242 85.2589 64.4191C84.8605 64.5961 84.3957 64.4117 84.2186 64.0133C84.0453 63.6149 84.226 63.1502 84.6244 62.9731C85.0228 62.7961 85.4876 62.9805 85.6646 63.3789Z" fill="white"/>
<path d="M84.7166 64.0613C84.9932 64.692 84.7055 65.4298 84.0747 65.7064C83.444 65.9831 82.7062 65.6954 82.4296 65.0646C82.1529 64.4338 82.4406 63.6961 83.0714 63.4194C83.7022 63.1428 84.4399 63.4305 84.7166 64.0613Z" fill="white"/>
<path d="M86.1442 64.3896C86.4208 65.0203 86.1331 65.7581 85.5023 66.0347C84.8716 66.3114 84.1338 66.0237 83.8572 65.3929C83.5805 64.7621 83.8682 64.0244 84.499 63.7477C85.1298 63.4711 85.8675 63.7588 86.1442 64.3896Z" fill="white"/>
<path d="M85.683 65.5958C85.9596 66.2265 85.6719 66.9643 85.0411 67.2409C84.4104 67.5176 83.6727 67.2299 83.396 66.5991C83.1194 65.9683 83.4071 65.2306 84.0378 64.954C84.6686 64.6773 85.4063 64.965 85.683 65.5958Z" fill="white"/>
<path d="M85.7642 65.1162C85.7642 65.1162 86.6827 66.09 87.9405 65.356C87.9405 65.356 87.1769 66.5253 85.4396 66.149L85.7642 65.1162Z" fill="white"/>
<path d="M83.7649 54.419C84.1596 54.4338 85.6425 53.6038 85.9781 51.35C86.7159 51.5861 88.3241 50.5643 88.8811 49.9557C89.2131 52.4714 91.9169 53.7034 93.8793 52.4862C93.8793 53.5005 94.0674 54.5444 94.6539 55.308C95.6129 56.5548 96.7786 56.8388 96.7786 56.8388C96.7786 56.8425 96.7786 56.8499 96.7786 56.8536C96.1995 58.7016 97.7266 60.4279 99.2869 60.1807C99.4307 60.1734 99.5746 60.1549 99.7185 60.1143C100.482 59.9115 101.238 59.5389 101.603 58.6905C102.076 57.5987 101.762 56.2043 100.895 55.5736C101.566 54.8912 101.799 53.7809 101.382 52.8513C101.124 52.2759 100.43 51.9587 100.408 51.2947C100.39 50.7451 100.29 50.2324 100.065 49.7528C99.6742 48.9229 99.0213 48.3475 98.2319 48.1077C97.863 47.997 97.6048 47.8864 97.3356 47.5765C97.1733 47.3847 97.0146 47.2003 96.8339 47.038C96.5204 46.7576 96.1662 46.5363 95.7937 46.3814C95.3437 46.1896 94.8568 46.09 94.3699 46.0974C93.8461 46.1047 93.3075 46.3666 92.8022 46.1601C92.3632 45.9793 90.9468 45.9941 90.4783 46.0789C88.4385 46.4441 87.5347 47.4474 87.5347 47.4474C87.5347 47.4474 86.4687 47.6245 85.4765 49.0114C84.5285 50.3393 84.5285 51.3795 84.5285 51.3795C84.5285 51.3795 84.1116 51.564 83.8018 52.4419C83.444 53.4526 83.7096 54.419 83.7649 54.419ZM96.797 56.9531C96.9482 58.3659 97.2876 59.0372 97.7339 59.5094C97.022 58.9561 96.572 58.0265 96.797 56.9531ZM89.0655 50.0221C89.5229 51.3427 90.482 52.2611 91.6034 52.5821C90.4045 52.3607 89.4123 51.564 89.0655 50.0221Z" fill="#263238"/>
<path d="M97.6084 60.9295C97.6084 60.9295 99.8843 57.5618 101.408 58.3696C102.931 59.1737 101.26 64.0317 99.497 64.7178C97.7338 65.4076 97.0625 63.7883 97.0625 63.7883L97.6084 60.9295Z" fill="#FFC4C0"/>
<path d="M100.891 59.7492C100.921 59.7492 100.925 59.7861 100.902 59.7972C99.6668 60.3209 99.0323 61.4866 98.5934 62.6891C98.9548 62.2243 99.4565 61.9624 100.08 62.394C100.113 62.4161 100.08 62.4678 100.047 62.4604C99.534 62.3608 99.1688 62.453 98.8331 62.8661C98.5934 63.1575 98.4347 63.5264 98.2651 63.8621C98.2097 63.9727 98.0069 63.9174 98.0474 63.7883C98.0474 63.7772 98.0548 63.7699 98.0585 63.7588C98.0032 62.1727 99.1983 59.9336 100.899 59.7455L100.891 59.7492Z" fill="#263238"/>
<path d="M127.42 110.494C127.83 115.002 123.433 117.529 119.818 116.086C111.917 112.936 110.239 110.753 104.484 105.175C102.585 103.335 109.191 88.7644 111.522 90.38C113.466 91.7264 123.119 98.1558 126.203 104.574C127.358 106.972 127.184 107.898 127.42 110.494Z" fill="#FFC4C0"/>
<path d="M126.878 106.673C126.115 105.017 125.428 103.294 124.326 101.833C120.777 97.6061 116.074 94.5482 112.087 90.7673C115.063 92.951 118.059 95.1052 120.84 97.5434C122.219 98.7754 123.58 100.048 124.687 101.571C125.76 103.117 126.329 104.906 126.886 106.677L126.878 106.673Z" fill="#263238"/>
<path d="M99.8107 89.2328C100.81 89.1959 100.799 88.6721 99.3607 87.6209C97.9073 86.5548 94.3256 83.4342 95.7236 80.4021C96.6606 78.3733 100.703 83.5854 105.263 85.415C108.022 86.5216 111.913 90.6456 111.913 90.6456C109.951 90.1734 103.676 90.1033 99.8107 89.2291V89.2328Z" fill="#FFC4C0"/>
<path d="M105.484 105.256C101.825 104.806 97.2101 103.305 92.7837 101.922C89.7221 100.967 87.3724 100.424 85.6756 98.6648C85.2404 98.2111 84.9084 97.1857 85.458 96.802C86.5166 96.0643 92.3337 98.1779 92.3337 98.1779C92.1161 97.9603 85.5613 95.2897 83.6579 93.8474C81.5037 92.217 82.6288 90.6899 82.6288 90.6899C80.8066 89.2587 81.4853 87.418 82.6288 87.1967C84.0711 86.9164 90.493 89.1406 90.493 89.1406C90.493 89.1406 83.5251 87.4992 84.3366 84.5925C84.8457 82.774 88.2577 84.6036 91.3156 85.227C98.6598 86.7283 109.903 90.1587 111.917 90.653L105.488 105.26L105.484 105.256Z" fill="#FFC4C0"/>
<path d="M94.4031 90.7305C91.5296 89.539 90.2312 89.1185 87.8225 88.2222C87.8077 88.2185 87.7893 88.248 87.804 88.2554C90.5668 89.6829 91.714 90.0149 94.392 90.8485C94.4842 90.878 94.499 90.7711 94.4031 90.7305Z" fill="#263238"/>
<path d="M93.7133 94.8028C88.8074 93.0432 87.7709 92.8699 82.6657 90.7083C82.6399 90.6972 82.6215 90.7194 82.651 90.7341C87.0774 92.8699 88.8922 93.5929 93.7318 94.9023C93.8867 94.9429 93.8793 94.8618 93.717 94.8028H93.7133Z" fill="#263238"/>
<path d="M63.0899 105.094C58.9475 106.924 58.1766 112.704 61.3525 114.954C68.811 120.236 71.2013 120.247 78.8664 122.571C81.3968 123.338 90.9357 110.498 88.3906 109.24C86.2696 108.193 75.9634 102.87 68.8553 103.287C66.1995 103.442 65.4728 104.039 63.0862 105.094H63.0899Z" fill="#FFC4C0"/>
<path d="M92.4777 110.845C91.6035 110.358 91.8543 109.893 93.6101 109.613C95.388 109.325 100.423 109.672 100.556 106.337C100.644 104.106 94.2482 105.408 89.3534 104.965C86.3914 104.696 81.0538 106.603 81.0538 106.603C83.0162 107.075 88.6378 109.864 92.4777 110.841V110.845Z" fill="#FFC4C0"/>
<path d="M77.8336 122.265C81.1756 123.822 85.886 124.995 90.3714 126.168C93.4736 126.979 95.6868 127.481 98.0586 126.887C98.671 126.736 99.4935 126.038 99.2316 125.422C98.7263 124.235 92.7433 123.231 92.7433 123.231C93.042 123.161 100.017 124.371 102.397 124.157C105.089 123.917 104.945 122.025 104.945 122.025C107.251 121.774 107.649 119.856 106.797 119.063C105.724 118.06 99.0989 116.544 99.0989 116.544C99.0989 116.544 106.078 118.027 106.93 115.131C107.461 113.32 102.618 113.324 99.5821 112.324C92.4592 109.985 82.0977 107.119 80.128 106.474L77.841 122.269L77.8336 122.265Z" fill="#FFC4C0"/>
<path d="M94.9342 115.456C97.1327 115.906 98.0696 116.216 99.8623 116.68C99.8734 116.68 99.8697 116.721 99.8549 116.717C97.6085 116.518 96.8007 116.219 94.8826 115.563C94.8162 115.54 94.8567 115.441 94.9305 115.456H94.9342Z" fill="#263238"/>
<path d="M93.3518 119.639C98.4458 120.745 99.4159 121.147 104.89 122.021C104.916 122.025 104.919 122.055 104.89 122.051C100.006 121.516 98.0843 121.169 93.2854 119.712C93.1304 119.664 93.1858 119.598 93.3518 119.635V119.639Z" fill="#263238"/>
<path d="M66.6974 103.715C68.5823 103.386 70.5225 102.947 72.448 103.165C75.624 103.644 78.693 104.711 81.5849 106.09C78.6893 105.304 75.2957 104.209 72.378 103.641C70.5041 103.316 68.5897 103.63 66.6974 103.715Z" fill="#263238"/>
<path d="M76.9594 72.0585C76.5905 73.2056 76.1773 74.3491 75.7126 75.4742C75.2367 76.5955 74.6908 77.6948 74.0637 78.7608C73.444 79.8342 72.7026 80.8486 71.8468 81.7892C70.9948 82.7335 70.0099 83.5893 68.8811 84.2717C67.7487 84.943 66.4872 85.4299 65.1814 85.6771C63.8793 85.9168 62.5551 85.9574 61.2788 85.832C60.9579 85.8062 60.6443 85.7619 60.3271 85.7213C60.0099 85.6697 59.7148 85.6291 59.357 85.5553C58.6709 85.4078 57.9922 85.168 57.354 84.8287C56.0777 84.15 54.9785 83.0655 54.3477 81.697C54.0379 81.0109 53.8313 80.2547 53.835 79.4248C53.8387 79.0079 53.894 78.5764 54.0453 78.1337C54.1928 77.6948 54.451 77.2411 54.8346 76.8759C55.2109 76.507 55.7089 76.2488 56.1884 76.1344C56.4282 76.0754 56.6642 76.0422 56.8892 76.0385C57.0036 76.0349 57.1143 76.0385 57.2212 76.0385C57.3282 76.0459 57.4315 76.0496 57.5606 76.0717C58.0512 76.1418 58.5381 76.3373 58.9254 76.614C59.3164 76.8906 59.6226 77.23 59.8586 77.5804C60.3271 78.2923 60.541 79.0522 60.6296 79.7862C60.7107 80.524 60.6738 81.258 60.5115 81.9552C60.2017 83.3532 59.4529 84.6295 58.4237 85.5664C57.402 86.5107 56.1626 87.1341 54.9047 87.4698C53.6395 87.7981 52.3632 87.8866 51.1202 87.8349C48.6303 87.6837 46.2622 87.0345 44.049 86.0902C46.4208 86.4628 48.8 86.7505 51.098 86.5365C52.2415 86.4517 53.3629 86.2267 54.3736 85.8246C55.3879 85.4373 56.2991 84.8692 56.9741 84.1167C57.6454 83.3716 58.0954 82.4605 58.2467 81.5089C58.3241 81.0367 58.3241 80.5572 58.2541 80.1108C58.184 79.6682 58.0217 79.2551 57.8151 78.9784C57.6048 78.6944 57.402 78.5837 57.2175 78.569C57.1991 78.5653 57.1548 78.5616 57.1143 78.5616C57.0737 78.5616 57.0331 78.5616 56.9999 78.5616C56.9261 78.5616 56.8671 78.58 56.8155 78.5911C56.7122 78.6206 56.6679 78.6575 56.6163 78.7018C56.5204 78.7829 56.4023 79.0522 56.406 79.4248C56.406 79.7936 56.513 80.2178 56.6974 80.6162C57.0663 81.424 57.7376 82.1249 58.5676 82.5712C58.9844 82.7962 59.4344 82.9696 59.9176 83.0839C60.1427 83.1393 60.4414 83.1872 60.7107 83.2388C60.9874 83.2794 61.2603 83.3237 61.537 83.3532C63.7317 83.6262 65.9007 83.3753 67.804 82.3573C69.7295 81.3798 71.3267 79.7051 72.6952 77.8534C73.3813 76.9238 74.001 75.9279 74.5765 74.9061C75.163 73.888 75.7015 72.8331 76.2142 71.7597L76.9594 72.0511V72.0585Z" fill="#8C8CEB"/>
<path d="M78.1175 67.4955C76.6162 69.2993 74.3956 71.4129 72.4443 72.5158L76.3617 72.4826L79.3938 74.9614C78.5639 72.8773 78.1581 69.8379 78.1175 67.4919V67.4955Z" fill="#8C8CEB"/>
<path d="M107.184 67.4955C108.125 69.705 109.088 71.8887 110.205 73.9728C110.77 75.0093 111.36 76.0237 112.005 76.9938C112.651 77.9603 113.363 78.8714 114.123 79.7087C115.65 81.3833 117.509 82.6449 119.571 83.1576C120.084 83.2904 120.615 83.3679 121.146 83.4232C121.681 83.4675 122.223 83.4711 122.765 83.4453C123.311 83.4084 123.861 83.3642 124.41 83.272C124.68 83.2314 124.971 83.1761 125.226 83.1244C125.469 83.0728 125.705 83.0101 125.934 82.9289C126.849 82.6154 127.645 82.0621 128.188 81.3243C128.457 80.9592 128.664 80.5534 128.785 80.144C128.907 79.7382 128.925 79.3251 128.855 79.041C128.818 78.9009 128.767 78.8013 128.719 78.7386C128.667 78.6796 128.627 78.6464 128.545 78.6095C128.464 78.5763 128.339 78.5504 128.169 78.5578C128.018 78.5615 127.963 78.58 127.856 78.6279C127.66 78.7201 127.428 78.982 127.265 79.3546C127.1 79.7234 127.007 80.1772 126.996 80.6419C126.967 81.5788 127.243 82.5563 127.775 83.3863C128.295 84.2273 129.088 84.9208 130.028 85.4114C130.969 85.902 132.039 86.2413 133.164 86.411C134.285 86.5807 135.451 86.636 136.624 86.5918L136.731 87.5029C135.532 87.7279 134.296 87.8902 133.035 87.8348C131.78 87.7869 130.482 87.5988 129.254 87.075C128.029 86.5659 126.867 85.7434 126.019 84.6183C125.178 83.4933 124.661 82.099 124.632 80.6419C124.621 79.9153 124.72 79.1665 125.004 78.425C125.288 77.6947 125.786 76.9311 126.646 76.4368C126.856 76.3114 127.092 76.2229 127.328 76.1491C127.45 76.1196 127.572 76.0864 127.693 76.068L127.878 76.0421L128.04 76.0311C128.468 76.0053 128.948 76.0458 129.431 76.2192C129.91 76.3889 130.375 76.7135 130.7 77.1155C131.028 77.5176 131.227 77.975 131.341 78.414C131.555 79.2956 131.467 80.1108 131.26 80.8522C131.046 81.5936 130.696 82.2649 130.253 82.8588C129.364 84.0466 128.095 84.8987 126.742 85.3339C126.402 85.4446 126.059 85.5294 125.716 85.5958C125.384 85.6548 125.085 85.7028 124.765 85.7434C124.134 85.8319 123.488 85.8798 122.843 85.8983C121.544 85.9167 120.216 85.7729 118.94 85.3856C118.306 85.1864 117.682 84.9466 117.099 84.6405C116.801 84.5003 116.52 84.3232 116.236 84.1572C115.963 83.9765 115.687 83.7957 115.429 83.6002C114.388 82.8146 113.488 81.8924 112.706 80.9038C111.917 79.9226 111.271 78.8529 110.692 77.7684C110.121 76.6803 109.6 75.5737 109.18 74.4339C108.756 73.2978 108.354 72.158 108.036 70.9923C107.701 69.8341 107.428 68.6648 107.184 67.4881V67.4955Z" fill="#455A64"/>
<path d="M141.249 86.0938C139.254 87.3295 136.856 89.2329 135.488 91.0145L136.067 87.1414L134.031 83.7958C135.982 84.9061 138.933 85.7323 141.249 86.0975V86.0938Z" fill="#455A64"/>
</svg>
