<svg width="186" height="185" viewBox="0 0 186 185" fill="none" xmlns="http://www.w3.org/2000/svg">
<g clip-path="url(#clip0_65_2571)">
<path d="M45.4518 60.1992C40.8011 62.3534 37.2398 66.0421 34.6772 70.1366C32.1146 74.231 30.464 78.6906 28.8257 83.1355L27.3896 106.057C32.7996 97.8348 37.1408 88.1668 38.3127 78.6832L34.7144 78.3992C37.1243 78.0672 39.1504 76.5069 40.4421 74.6515C41.7337 72.7961 42.3939 70.664 43.0377 68.5615L38.647 69.1443C42.1184 67.0563 44.5556 63.8525 45.4518 60.1992Z" fill="#455A64"/>
<g opacity="0.3">
<path d="M45.4518 60.1992C40.8011 62.3534 37.2398 66.0421 34.6772 70.1366C32.1146 74.231 30.464 78.6906 28.8257 83.1355L27.3896 106.057C32.7996 97.8348 37.1408 88.1668 38.3127 78.6832L34.7144 78.3992C37.1243 78.0672 39.1504 76.5069 40.4421 74.6515C41.7337 72.7961 42.3939 70.664 43.0377 68.5615L38.647 69.1443C42.1184 67.0563 44.5556 63.8525 45.4518 60.1992Z" fill="black"/>
</g>
<path d="M26.593 111.413C26.593 111.413 14.857 98.8713 15.0097 86.8794H19.7346C19.7346 86.8794 14.597 83.8547 15.0097 82.1579C15.4223 80.4611 15.5503 74.0428 15.5503 74.0428L19.8873 75.013C19.8873 75.013 16.6356 73.5596 16.227 71.2579C15.8185 68.9562 17.1596 58.2959 17.1596 58.2959C17.1596 58.2959 22.4375 63.2682 24.0882 68.3549C25.7388 73.4416 29.981 79.373 28.7306 94.8728C27.4802 110.373 26.593 111.413 26.593 111.413Z" fill="#455A64"/>
<path d="M32.5437 112.612C32.5437 112.612 45.2619 105.039 48.0886 95.3745L44.2756 94.4449C44.2756 94.4449 49.1574 93.0174 49.2275 91.5751C49.2977 90.1329 50.775 84.9355 50.775 84.9355L47.0611 84.8654C47.0611 84.8654 50.0322 84.3343 50.9235 82.5637C51.8149 80.7931 53.3293 71.9587 53.3293 71.9587C53.3293 71.9587 47.8699 74.9097 45.3155 78.6906C42.7611 82.4715 37.8876 86.3962 35.0939 99.1037C32.3002 111.811 32.5437 112.612 32.5437 112.612Z" fill="#455A64"/>
<path d="M20.3745 69.2513C20.3921 69.2932 20.4059 69.3364 20.4157 69.3804C20.4405 69.48 20.4776 69.6054 20.5189 69.7492C20.6056 70.1181 20.7294 70.6013 20.8903 71.2247C21.0512 71.8481 21.241 72.667 21.4474 73.5891C21.6537 74.5113 21.9013 75.5626 22.1365 76.7282C22.64 79.0595 23.1682 81.8407 23.717 84.9392C24.2658 88.0377 24.7734 91.4534 25.2438 95.0462C25.7143 98.639 26.0692 102.077 26.3374 105.201C26.6056 108.325 26.7913 111.147 26.8945 113.519C26.9605 114.703 26.9935 115.773 27.0265 116.717C27.0595 117.661 27.0802 118.469 27.0843 119.13C27.0884 119.79 27.0843 120.295 27.1049 120.657V121.055C27.1084 121.101 27.1084 121.146 27.1049 121.192C27.1007 121.146 27.1007 121.1 27.1049 121.055C27.1049 120.955 27.1049 120.826 27.1049 120.657L26.977 119.159C26.9564 118.495 26.9275 117.684 26.878 116.747C26.8285 115.81 26.7954 114.733 26.717 113.549C26.5932 111.184 26.3828 108.366 26.1146 105.242C25.8463 102.117 25.4667 98.6869 25.0045 95.0941C24.5423 91.5014 24.0141 88.0856 23.4942 84.9908C22.9742 81.896 22.446 79.1111 21.9632 76.7798C21.7362 75.6142 21.501 74.5666 21.3029 73.6371C21.1049 72.7075 20.9357 71.9145 20.783 71.2653C20.6303 70.6161 20.5313 70.1218 20.4529 69.7677L20.3703 69.3804C20.3675 69.3373 20.3689 69.2941 20.3745 69.2513Z" fill="#263238"/>
<path d="M24.9672 119.119C24.9672 119.119 14.2257 108.222 10.8832 101.638L13.4004 100.675C11.5764 100.944 9.68645 100.244 8.28754 99.1775C6.88862 98.1115 5.83634 96.7135 4.81707 95.3339L8.11835 94.8323C5.07097 94.0536 2.47512 92.2575 0.86792 89.8157C4.78406 90.3911 8.32467 92.3129 11.2422 94.7142C13.5612 96.7032 15.6654 98.883 17.527 101.225C18.4652 102.349 19.2831 103.549 19.9699 104.81C21.798 108.148 24.9714 115.102 24.9672 119.119Z" fill="#455A64"/>
<path d="M48.2578 78.3143L48.2083 78.4287C48.1629 78.5061 48.1092 78.6131 48.0391 78.7422C47.8864 79.0299 47.6677 79.4357 47.3871 79.9521C46.8093 80.9997 45.9964 82.5342 45.006 84.408C44.0156 86.2819 42.8767 88.5578 41.6511 91.0845C40.4255 93.6113 39.1463 96.4184 37.8588 99.3804C36.5713 102.342 35.4282 105.201 34.4213 107.805C33.4144 110.41 32.5643 112.77 31.8752 114.762C31.1861 116.754 30.6372 118.37 30.2823 119.491C30.1008 120.041 29.9605 120.472 29.8697 120.778C29.8243 120.915 29.783 121.026 29.7541 121.11C29.744 121.15 29.7287 121.188 29.7087 121.225C29.7112 121.185 29.7195 121.145 29.7335 121.107L29.8284 120.767C29.9233 120.457 30.0512 120.03 30.2163 119.469C30.5506 118.362 31.0705 116.721 31.7432 114.725C32.4158 112.73 33.2576 110.362 34.2439 107.746C35.2301 105.131 36.3897 102.283 37.6689 99.314C38.9482 96.3446 40.2563 93.5449 41.4819 91.0145C42.7075 88.484 43.8753 86.2192 44.8822 84.349C45.8891 82.4789 46.7268 80.9554 47.3252 79.9226L48.0143 78.7311L48.2 78.4213C48.2141 78.3836 48.2336 78.3477 48.2578 78.3143Z" fill="#263238"/>
<path d="M25.8792 123.785C25.852 123.721 25.8339 123.654 25.8255 123.585C25.8007 123.431 25.7636 123.242 25.7223 123.006C25.6811 122.77 25.6274 122.449 25.5532 122.092C25.4789 121.734 25.4128 121.332 25.3056 120.889C25.1116 119.996 24.8351 118.941 24.4802 117.783C24.1254 116.625 23.6549 115.371 23.1267 114.072C22.5985 112.774 21.9795 111.571 21.3977 110.491C20.8158 109.41 20.234 108.458 19.7182 107.676C19.4747 107.278 19.223 106.938 19.0166 106.625C18.8103 106.311 18.604 106.053 18.4678 105.839C18.3316 105.625 18.2119 105.47 18.117 105.341C18.0735 105.286 18.0362 105.226 18.0056 105.164C18.0056 105.164 18.0634 105.212 18.1542 105.323L18.5379 105.799C18.703 106.005 18.9011 106.26 19.1157 106.566C19.3302 106.872 19.5944 107.211 19.8502 107.606C20.3825 108.384 20.9726 109.332 21.5751 110.41C22.1776 111.487 22.776 112.704 23.3289 114.006C23.8819 115.308 24.3152 116.588 24.6701 117.739C25.025 118.89 25.2767 119.952 25.45 120.863C25.549 121.31 25.6068 121.719 25.6687 122.077C25.7306 122.435 25.7719 122.744 25.8008 122.995C25.8296 123.246 25.8503 123.427 25.8668 123.582C25.8782 123.649 25.8824 123.717 25.8792 123.785Z" fill="#263238"/>
<path d="M40.05 121.225H16.5408V125.511H40.05V121.225Z" fill="#8C8CEB"/>
<path d="M18.7815 125.511L21.3235 139.93H35.5313L37.9 125.511H18.7815Z" fill="#8C8CEB"/>
<path d="M38.6098 125.511C38.6098 125.563 34.1613 125.607 28.6771 125.607C23.1929 125.607 18.7444 125.563 18.7444 125.511C18.7444 125.459 23.1887 125.43 28.6771 125.43C34.1655 125.43 38.6098 125.456 38.6098 125.511Z" fill="#263238"/>
<path d="M185.302 139.926C185.302 139.982 144.531 140.026 94.2444 140.026C43.9577 140.026 3.17871 139.982 3.17871 139.926C3.17871 139.871 43.9412 139.816 94.2403 139.816C144.539 139.816 185.302 139.875 185.302 139.926Z" fill="#263238"/>
<path d="M114.151 74.9355C112.926 71.3681 111.911 67.7457 111.11 64.0834C110.747 60.3609 110.107 56.664 109.195 53.0174C109.166 50.4191 108.548 47.8531 107.379 45.474C106.141 43.0616 105.036 40.4058 102.448 39.0963C100.562 38.1446 98.1194 37.2519 95.9529 37.1671C91.554 37.0048 87.6048 37.6798 84.1385 40.118C79.4713 43.3936 78.972 49.2365 77.6721 54.2383C77.0867 56.4571 76.9373 58.7499 77.2305 61.0144C77.2966 61.5087 77.3791 61.9624 77.4823 62.3829L74.8454 62.7887L72.9678 86.2155L115.645 88.6242C115.645 88.6242 121.142 88.3586 123.774 85.2121C123.758 85.2232 117.069 83.2166 114.151 74.9355Z" fill="#263238"/>
<path d="M78.716 116.145C78.716 116.145 71.3831 122.958 69.7737 132.542L94.3682 146.455L119.128 131.885C119.128 131.885 117.163 122.995 110.99 116.164L78.716 116.145Z" fill="#263238"/>
<path d="M86.8125 152.815C87.1756 152.792 107.586 152.815 107.586 152.815L120.337 153.586C124.785 153.707 126.069 151.741 125.966 150.439C125.829 148.783 123.952 146.905 123.952 146.905C123.952 146.905 113.483 144.899 113.223 145.061C112.963 145.223 87.7864 146.931 87.7864 146.931L86.8125 152.815Z" fill="#AE7461"/>
<path d="M114.952 128.082C115.137 128.432 135.481 133.438 135.481 133.438L94.1452 146.559C94.1452 146.559 88.2153 140.081 88.401 140.081C88.5867 140.081 114.952 128.082 114.952 128.082Z" fill="#263238"/>
<path d="M96.8647 141.317V152.958C96.8647 152.958 123.192 153.508 131.908 151.778C140.623 150.048 145.641 141.583 142.513 137.204C138.849 132.062 129.865 132.597 126.91 132.885C123.956 133.172 96.8647 141.317 96.8647 141.317Z" fill="#263238"/>
<path d="M76.5496 129.233C76.5496 129.233 50.8492 130.299 47.0444 132.372L89.2306 145.028C89.2306 145.028 95.1605 138.55 94.9748 138.55C94.7891 138.55 76.5496 129.233 76.5496 129.233Z" fill="#263238"/>
<path d="M92.8578 145.743C92.8578 145.743 64.6154 135.256 61.3967 134.117C54.1091 131.535 43.0292 129.355 42.5629 138.517C42.0966 147.68 55.4874 153.161 64.8465 153.733H90.5882L92.8578 145.743Z" fill="#263238"/>
<path d="M96.8648 139.602L89.0243 140.247C89.0243 140.247 87.6295 138.543 86.4287 138.13C85.2278 137.717 83.0077 138.13 81.5469 137.602C80.0861 137.075 76.3639 134.415 74.9443 133.545C73.6975 132.797 72.2598 132.341 70.7641 132.221C70.7641 132.221 67.4628 131.631 65.4573 133.327C64.5371 134.098 64.4463 135.854 64.4463 135.854C64.4463 135.854 87.6336 146.902 87.8895 146.784C88.1453 146.666 96.8607 148.259 96.8607 148.259L96.8648 139.602Z" fill="#AE7461"/>
<path d="M87.8935 146.769C87.7743 146.736 87.6594 146.691 87.551 146.636C87.3034 146.533 86.9856 146.393 86.5895 146.219L83.0736 144.644L77.8741 142.276C75.9222 141.372 73.7475 140.432 71.5357 139.325C69.3238 138.218 67.1986 137.186 65.2302 136.322C63.5006 135.545 61.7186 134.863 59.8946 134.283C58.6647 133.901 57.4091 133.589 56.1352 133.349C55.6854 133.261 55.3305 133.217 55.0912 133.172C54.9683 133.16 54.8476 133.134 54.7322 133.095C54.8552 133.093 54.9783 133.101 55.0994 133.121C55.3429 133.15 55.6978 133.18 56.1559 133.253C57.4432 133.458 58.7121 133.747 59.9523 134.117C61.8011 134.678 63.6057 135.35 65.354 136.127C67.3348 136.986 69.4517 138.03 71.676 139.118C73.9002 140.207 76.0584 141.169 78.002 142.069L83.1727 144.486L86.6514 146.134L87.5881 146.592C87.6962 146.642 87.7985 146.701 87.8935 146.769Z" fill="#455A64"/>
<path d="M96.8648 148.237C96.8648 148.307 94.8551 148.034 92.408 147.625C89.961 147.215 87.9843 146.835 88.0008 146.769C88.0173 146.702 90.0064 146.975 92.4576 147.381C94.9087 147.787 96.8771 148.171 96.8648 148.237Z" fill="#6F4439"/>
<path d="M96.8646 150.439C96.8489 150.367 96.8419 150.294 96.844 150.221C96.844 150.059 96.844 149.853 96.844 149.591C96.844 149.012 96.844 148.211 96.8069 147.204C96.8069 145.135 96.778 142.232 96.7615 138.798V138.709L96.8646 138.691L106.166 137.016L121.472 134.323L126.093 133.545L127.356 133.342C127.502 133.311 127.652 133.294 127.802 133.29C127.66 133.333 127.515 133.368 127.368 133.394L126.13 133.641L121.476 134.493L106.207 137.259L96.9018 138.908L97.0008 138.798C96.9802 142.232 96.9637 145.135 96.9513 147.204C96.9513 148.211 96.9224 149.012 96.9142 149.591C96.9142 149.849 96.9142 150.059 96.9142 150.221C96.9068 150.295 96.8902 150.368 96.8646 150.439Z" fill="#455A64"/>
<path d="M86.441 136.691C86.4039 136.725 85.7602 136.131 84.6212 135.282C83.14 134.183 81.5311 133.23 79.822 132.438C78.1126 131.667 76.3136 131.066 74.4574 130.646C73.0379 130.325 72.1341 130.218 72.1424 130.173C72.3551 130.163 72.5685 130.175 72.7779 130.21C73.3561 130.272 73.9304 130.359 74.4987 130.472C76.3819 130.847 78.2051 131.432 79.9251 132.213C81.663 133.008 83.2835 133.993 84.7491 135.146C85.1959 135.494 85.6215 135.864 86.0243 136.252C86.1795 136.386 86.3191 136.533 86.441 136.691Z" fill="#455A64"/>
<path d="M121.591 129.948C121.365 129.973 121.138 129.983 120.91 129.978C120.291 130.019 119.675 130.096 119.066 130.207C117.048 130.571 115.069 131.092 113.152 131.763C111.219 132.414 109.362 133.232 107.606 134.205C106.265 134.969 105.543 135.577 105.502 135.537C105.651 135.377 105.817 135.23 105.997 135.098C106.196 134.928 106.407 134.771 106.628 134.626C106.884 134.46 107.165 134.257 107.503 134.054C109.244 133.03 111.107 132.182 113.058 131.527C114.988 130.849 116.99 130.347 119.033 130.03C119.652 129.935 120.278 129.885 120.906 129.878C121.137 129.872 121.368 129.896 121.591 129.948Z" fill="#455A64"/>
<path d="M84.5386 75.0941C84.5386 75.0941 86.7793 82.9953 95.3214 82.1616C101.511 81.5567 100.686 74.8765 100.686 74.8765L84.5386 75.0941Z" fill="#AE7461"/>
<path d="M73.079 78.7164C72.9882 79.1369 74.2179 96.4663 74.2179 96.4663L76.0502 104.581L78.9388 112.228L74.8122 120.528C87.8481 124.781 102.782 125.751 114.3 120.579L110.639 111.726C110.639 111.726 112.492 99.1849 112.855 94.2236C113.218 89.2623 108.172 76.7392 108.172 76.7392L100.707 75.0941H84.6706L73.079 78.7164Z" fill="#8C8CEB"/>
<path d="M54.0184 115.913C54.0184 115.913 47.5686 113.962 49.57 108.993C51.5714 104.024 58.9126 94.7916 61.0914 91.4202C63.2703 88.0487 66.2786 81.0919 71.4079 79.2734C76.5373 77.4548 77.6762 77.7684 77.6762 77.7684C77.6762 77.7684 80.8207 89.6902 74.5813 96.2118L73.269 95.8429L62.1272 107.647L79.6116 111.56L78.8647 118.938L54.0184 115.913Z" fill="#AE7461"/>
<path d="M107.421 87.2815C107.421 87.2815 104.771 83.1207 104.412 82.1173C104.053 81.114 103.331 78.5504 102.762 78.3254C102.192 78.1004 101.722 78.9967 101.524 79.9632C101.326 80.9296 102.848 83.01 102.349 83.3457C101.85 83.6813 93.2045 81.5013 91.7643 81.1509C90.3241 80.8005 86.2677 80.1107 86.148 81.8591C86.148 81.8591 84.1838 81.7854 84.0641 82.5268C83.9803 82.8695 83.9803 83.2243 84.0641 83.567C84.0641 83.567 83.7051 84.906 84.9472 85.3523C85.6305 85.6072 86.3432 85.794 87.0724 85.9093C87.0724 85.9093 86.0696 86.3556 86.9527 87.2852C87.8358 88.2147 93.287 90.1107 93.287 90.1107C93.287 90.1107 95.763 92.2686 97.9377 92.7518C100.112 93.235 103.789 93.235 103.789 93.235L107.421 87.2815Z" fill="#AE7461"/>
<path d="M108.171 76.7393L113.635 78.2885C113.635 78.2885 117.266 79.0594 119.561 81.3169C121.855 83.5744 124.43 88.6057 126.576 89.8968C128.722 91.1878 135.617 96.7983 136.175 99.1849C136.732 101.571 136.587 107.44 132.906 107.765C132.906 107.765 113.474 89.5685 113.255 89.6386C113.037 89.7087 111.192 92.2502 111.192 92.2502C111.192 92.2502 109.059 87.5397 108.085 85.024C107.111 82.5083 108.171 76.7393 108.171 76.7393Z" fill="#AE7461"/>
<path d="M107.421 87.2815C107.421 87.2815 117.688 92.5674 121.93 93.2313C126.172 93.8953 130.208 94.0244 132.155 95.8946C134.103 97.7647 132.923 107.765 132.923 107.765C132.923 107.765 130.695 108.602 126.106 106.732C121.517 104.862 103.769 93.2313 103.769 93.2313L107.421 87.2815Z" fill="#AE7461"/>
<path d="M79.3309 111.962C79.3309 111.962 81.5221 110.1 83.6762 109.436C85.8303 108.772 87.093 107.827 88.1577 107.396C89.4535 106.872 90.906 106.584 90.5429 108.097C90.3366 108.956 89.2141 109.572 88.0422 110.291C86.8702 111.011 85.6446 111.228 86.536 111.457C87.4273 111.686 91.7809 112.49 93.9638 112.383C93.9638 112.383 99.0726 112.361 99.1303 113.534C99.1881 114.707 93.4439 114.331 92.5484 114.456C92.033 114.527 91.5241 114.632 91.0257 114.77C91.0257 114.77 96.9804 115.19 98.6764 115.507C100.372 115.824 100.24 116.765 99.5966 117.038C99.2693 117.178 98.9331 117.301 98.5897 117.407C98.5897 117.407 99.0725 118.222 98.1317 118.514C97.1908 118.805 89.2967 118.569 89.2967 118.569C89.2967 118.569 94.7768 119.03 95.1647 119.421C95.2435 119.521 95.2931 119.638 95.3091 119.759C95.325 119.881 95.3068 120.004 95.256 120.118C95.2052 120.232 95.1235 120.333 95.0182 120.411C94.9129 120.49 94.7874 120.544 94.653 120.568C94.0505 120.668 88.5374 120.291 88.2361 120.362C86.2689 120.644 84.2554 120.518 82.3516 119.993C79.3144 119.189 78.5469 118.362 78.5469 118.362L79.3309 111.962Z" fill="#AE7461"/>
<path d="M131.479 95.3597C131.393 95.339 131.309 95.3093 131.231 95.2712L130.55 94.9761C129.718 94.6128 128.863 94.295 127.988 94.0244C126.694 93.621 125.347 93.3729 123.981 93.2867C122.45 93.1613 120.679 93.1797 118.975 92.5969C117.395 92.065 115.851 91.4492 114.353 90.7526C112.963 90.1255 111.729 89.5279 110.701 89.0189C109.674 88.5098 108.848 88.082 108.283 87.7832L107.635 87.4327C107.558 87.3948 107.486 87.349 107.421 87.2963C107.503 87.3253 107.583 87.3598 107.66 87.3995L108.324 87.7168L110.776 88.9008C111.811 89.3951 113.049 89.9742 114.44 90.5939C115.936 91.2864 117.475 91.9022 119.049 92.4383C120.7 93.01 122.454 92.999 124.001 93.1318C125.384 93.2313 126.744 93.4994 128.045 93.9285C128.919 94.2144 129.77 94.5533 130.591 94.9429L131.256 95.2675C131.332 95.2937 131.407 95.3245 131.479 95.3597Z" fill="#6F4439"/>
<path d="M95.8496 83.3088C95.3687 83.2318 94.8933 83.1296 94.4259 83.0026C93.5511 82.8034 92.3378 82.5563 90.9802 82.3571C89.6225 82.1579 88.3804 82.0436 87.4808 81.9882C86.9918 81.9737 86.5041 81.9343 86.02 81.8702C86.1557 81.8451 86.2945 81.8364 86.4327 81.8444C86.6844 81.8444 87.0517 81.8444 87.5056 81.8444C89.8703 81.928 92.2142 82.2737 94.4837 82.8735C94.8963 82.9879 95.2677 83.0911 95.5071 83.1686C95.6272 83.2025 95.7423 83.2496 95.8496 83.3088Z" fill="#6F4439"/>
<path d="M96.7493 85.3929C96.7493 85.4445 93.8606 85.024 90.353 84.4117C86.8454 83.7994 83.9857 83.3051 83.9981 83.2424C84.0105 83.1797 86.8867 83.6297 90.3943 84.2236C93.9019 84.8174 96.7575 85.3412 96.7493 85.3929Z" fill="#6F4439"/>
<path d="M94.7149 87.1967C94.3269 87.1553 93.9433 87.0862 93.5677 86.9901C92.862 86.8463 91.8882 86.6508 90.8111 86.4553C89.7341 86.2598 88.7478 86.0864 88.0381 85.9905C87.6503 85.9463 87.2668 85.876 86.8909 85.7802C87.2835 85.7683 87.6764 85.7943 88.0628 85.8577C88.7808 85.9352 89.7712 86.0716 90.8524 86.2671C91.9336 86.4626 92.9157 86.6803 93.6048 86.861C93.9869 86.938 94.359 87.0505 94.7149 87.1967Z" fill="#6F4439"/>
<path d="M90.6377 116.828C91.955 116.84 93.2706 116.916 94.5786 117.057C95.8942 117.132 97.2042 117.271 98.503 117.473C97.1857 117.461 95.8701 117.385 94.5621 117.245C93.2466 117.169 91.9365 117.029 90.6377 116.828Z" fill="#6F4439"/>
<path d="M62.7255 107.551C61.6144 107.68 60.5123 107.865 59.4242 108.104C58.3522 108.406 57.2997 108.761 56.2715 109.166C56.5274 108.975 56.8122 108.818 57.1174 108.698C57.8372 108.374 58.5904 108.114 59.3664 107.92C60.141 107.73 60.9342 107.606 61.7351 107.551C62.0635 107.509 62.397 107.509 62.7255 107.551Z" fill="#6F4439"/>
<path d="M69.5798 90.0406C69.8359 90.2755 70.0615 90.5353 70.2525 90.8153C70.6404 91.3132 71.1479 92.0178 71.6596 92.8219C72.1713 93.626 72.5881 94.3785 72.8687 94.9318C73.0408 95.2221 73.1791 95.5274 73.2814 95.8429C73.0715 95.5755 72.8918 95.2901 72.7449 94.9909C72.4313 94.456 71.9939 93.7183 71.507 92.9178C71.02 92.1174 70.5124 91.4055 70.1576 90.889C69.9383 90.6214 69.7451 90.3376 69.5798 90.0406Z" fill="#6F4439"/>
<path d="M92.5442 108.561L93.1962 99.4652H91.5249L94.5621 94.7806L97.9046 99.3951H96.0807L96.7368 108.502L92.5442 108.561Z" fill="#E0E0E0"/>
<path d="M89.1233 35.6842C88.6352 34.8878 87.8493 34.2702 86.9032 33.9395C85.8581 33.5075 84.7204 33.2837 83.5689 33.2837C82.4174 33.2837 81.2797 33.5075 80.2346 33.9395C79.1973 34.3871 78.2986 35.0553 77.6173 35.8856C76.936 36.7158 76.4929 37.6827 76.3267 38.7016C76.1864 39.7246 76.3612 40.7624 76.8325 41.7031C77.3038 42.6437 78.0535 43.4515 79.0008 44.0391C77.774 44.074 76.5755 44.3767 75.5097 44.9207C75.3446 44.9868 75.1958 45.0814 75.0718 45.1992C74.9479 45.3169 74.8513 45.4555 74.7875 45.6068C74.6513 46.1047 75.2373 46.5695 75.8068 46.5917C76.234 46.5895 76.6523 46.4823 77.0159 46.2818C76.8022 46.3763 76.6127 46.5094 76.4593 46.6725C76.3059 46.8357 76.192 47.0254 76.1245 47.2298C75.9512 47.9675 76.8054 48.6167 77.6349 48.6462C78.4643 48.6758 79.236 48.2774 79.9499 47.9085L88.591 38.1409C89.4039 37.595 89.5525 36.4957 89.1233 35.6842Z" fill="#263238"/>
<path d="M84.3818 44.1092L98.5938 40.3615C103.174 39.7639 106.434 44.7178 106.925 48.8455C107.449 53.4157 107.887 59.0152 107.433 62.4567C106.513 69.3767 100.657 70.4574 100.657 70.4574C100.657 70.4574 100.657 70.5607 100.69 72.6043V76.813C100.752 78.152 100.488 78.602 99.5718 79.6644C97.4755 82.0915 93.6543 82.4161 89.148 80.9259C86.5359 80.0628 84.7202 78.3254 84.5221 75.961L84.5469 47.9565C84.4809 46.6876 82.9912 44.2789 84.3818 44.1092Z" fill="#AE7461"/>
<path d="M101.99 55.1015C102.118 54.9871 102.853 55.4962 103.913 55.5146C104.974 55.533 105.766 55.072 105.877 55.19C105.935 55.2416 105.803 55.4482 105.465 55.6621C104.998 55.9384 104.448 56.0788 103.888 56.0642C103.336 56.056 102.801 55.8906 102.361 55.5921C102.035 55.3449 101.928 55.1494 101.99 55.1015Z" fill="#263238"/>
<path d="M92.565 55.3449C92.6805 55.2269 93.4522 55.6953 94.5127 55.6548C95.5733 55.6142 96.3326 55.1125 96.4522 55.2269C96.51 55.2748 96.3945 55.4851 96.0643 55.7212C95.618 56.0208 95.0789 56.1896 94.521 56.2044C93.9704 56.2324 93.4242 56.1032 92.9611 55.8355C92.6269 55.6105 92.5072 55.4076 92.565 55.3449Z" fill="#263238"/>
<path d="M99.679 59.2402C99.679 59.1885 100.327 59.0631 101.387 58.9008C101.66 58.8676 101.911 58.8086 101.953 58.6426C101.963 58.3914 101.888 58.1433 101.738 57.9307L100.843 56.1159C99.6047 53.5338 98.7134 51.3943 98.833 51.3538C98.9527 51.3132 100.038 53.3715 101.268 55.9572C101.565 56.5991 101.85 57.204 102.118 57.8016C102.302 58.0884 102.366 58.4243 102.299 58.7496C102.266 58.8348 102.212 58.9122 102.14 58.9761C102.069 59.04 101.982 59.0886 101.887 59.1184C101.738 59.1612 101.584 59.1861 101.429 59.1922C100.352 59.266 99.6831 59.2955 99.679 59.2402Z" fill="#263238"/>
<path d="M100.686 70.4427C97.0669 70.6188 93.4641 69.8935 90.2788 68.3475C90.2788 68.3475 93.0354 73.069 100.707 72.1579L100.686 70.4427Z" fill="#6F4439"/>
<path d="M97.9541 63.6186C97.6646 63.694 97.3565 63.6901 97.0696 63.6072C96.7826 63.5243 96.5302 63.3664 96.3448 63.1538C96.186 62.9597 96.09 62.7303 96.0671 62.4907C96.0442 62.2511 96.0954 62.0104 96.215 61.7951C96.3346 61.5797 96.5181 61.3978 96.7455 61.2692C96.9729 61.1407 97.2353 61.0704 97.5043 61.066C97.8279 61.0342 98.153 61.1132 98.4141 61.2871C98.6752 61.4609 98.8529 61.7167 98.9115 62.003C99.1921 63.3456 97.9541 63.6186 97.9541 63.6186Z" fill="#6F4439"/>
<path d="M95.9445 49.6164C95.8661 49.882 94.7973 49.8525 93.5717 50.0922C92.3461 50.332 91.3764 50.723 91.1866 50.509C91.0999 50.4058 91.2485 50.1402 91.6281 49.8635C92.1339 49.5106 92.7235 49.2658 93.3515 49.1482C93.9796 49.0305 94.6295 49.0431 95.2513 49.1848C95.7258 49.3065 95.9775 49.491 95.9445 49.6164Z" fill="#263238"/>
<path d="M105.898 50.4242C105.655 50.6086 104.883 50.284 103.909 50.1475C102.935 50.0111 102.089 50.059 101.937 49.8119C101.87 49.6901 102.036 49.4946 102.428 49.3397C102.96 49.1525 103.541 49.1039 104.103 49.1995C104.666 49.276 105.192 49.4964 105.617 49.834C105.927 50.0959 106.005 50.332 105.898 50.4242Z" fill="#263238"/>
<path d="M98.6433 39.6201L98.6804 39.7676H98.6516L98.6433 39.6201Z" fill="#263238"/>
<path d="M84.0229 75.1273C87.8648 74.9281 88.393 70.1513 88.1495 68.3475C87.879 66.3413 87.446 64.3553 86.8538 62.4051C85.9459 59.4541 87.1921 56.2782 87.6502 53.2092C89.6141 52.9231 91.393 52.0047 92.6516 50.6271C94.195 49.0189 95.1276 47.027 96.0396 45.0683C95.979 47.0013 95.2463 48.8695 93.9433 50.4132C94.3757 50.4736 94.818 50.4423 95.2345 50.3218C95.6509 50.2013 96.0299 49.9951 96.3408 49.7197C96.9582 49.1635 97.4376 48.4974 97.748 47.7647C98.5815 46.0232 99.0447 44.1581 99.1139 42.2649C99.3989 44.975 99.0561 47.7086 98.107 50.2951C98.6621 50.2044 99.2329 50.2245 99.7783 50.3542C100.335 50.4242 100.975 50.4095 101.371 50.0517C101.611 49.7889 101.761 49.4701 101.804 49.1332C102.338 46.8274 102.425 44.4567 102.06 42.1247C102.792 43.3612 103.383 44.6599 103.826 46.0015C104.268 47.3514 104.28 48.7848 103.859 50.1402C103.986 50.2526 104.158 50.3157 104.336 50.3157C104.515 50.3157 104.686 50.2526 104.813 50.1402C105.052 49.9003 105.197 49.5973 105.225 49.2771C105.428 48.1188 105.201 46.9421 104.97 45.7913C105.741 47.0122 105.997 48.425 106.422 49.7713C106.847 51.1177 107.524 52.4973 108.832 53.2682C109.054 51.5097 108.99 49.7318 108.642 47.9897C108.382 46.5474 107.615 45.1162 106.909 43.7994C106.16 42.3377 105.1 41.0199 103.789 39.9189C101.524 38.1446 100.579 38.9082 99.1304 39.5869L98.9571 39.6496C98.9588 39.6177 98.9588 39.5856 98.9571 39.5537L98.8952 39.2807C95.1046 38.5217 91.1556 38.686 87.4604 39.7566C84.7327 40.5533 84.481 45.8023 83.8166 43.3088C83.4039 41.8001 81.221 43.176 81.1962 43.2202C77.9775 48.4102 74.5648 56.6397 74.408 69.6459L84.0229 75.1273Z" fill="#263238"/>
<path d="M81.2291 43.021C81.6872 43.2128 82.9871 41.4312 85.3145 40.0295C87.6419 38.6278 89.928 38.1262 89.8867 37.6724C89.8867 37.4659 89.2141 37.3036 88.1536 37.3995C86.7742 37.5657 85.4579 38.0196 84.311 38.7244C83.164 39.4293 82.2186 40.3653 81.551 41.457C81.0765 42.3239 81.0352 42.9325 81.2291 43.021Z" fill="#455A64"/>
<path d="M98.8331 61.8444C98.8331 61.8444 98.796 61.7706 98.7175 61.6526C98.5985 61.4916 98.4312 61.3638 98.2347 61.2837C97.9495 61.1584 97.6256 61.1221 97.3145 61.1804C97.1265 61.197 96.9464 61.2561 96.7911 61.3523C96.6359 61.4485 96.5106 61.5785 96.4273 61.73C96.2583 62.0379 96.2145 62.3887 96.3035 62.7223C96.3431 62.8573 96.4124 62.9839 96.5073 63.0948C96.6023 63.2056 96.721 63.2984 96.8565 63.3678C97.1235 63.4782 97.3993 63.5707 97.6818 63.6444C97.6818 63.6444 97.591 63.6629 97.4301 63.6444C97.1971 63.6296 96.9697 63.5731 96.7615 63.4785C96.6014 63.4071 96.4595 63.3071 96.3445 63.1846C96.2295 63.0622 96.1439 62.9198 96.093 62.7665C95.9738 62.388 96.0149 61.9835 96.2086 61.6304C96.3052 61.4398 96.4632 61.2792 96.6625 61.1693C96.9073 61.0419 97.1848 60.9729 97.4681 60.969C97.7514 60.9651 98.031 61.0265 98.2801 61.1472C98.5012 61.2482 98.6773 61.4134 98.7794 61.6157C98.8537 61.7595 98.8455 61.8444 98.8331 61.8444Z" fill="#263238"/>
<path d="M104.664 64.1977C104.645 64.019 104.694 63.8399 104.803 63.6888C104.911 63.5377 105.073 63.4234 105.262 63.3641C105.421 63.3004 105.593 63.269 105.766 63.2722C105.94 63.2754 106.11 63.3131 106.265 63.3825C106.386 63.2184 106.554 63.0862 106.752 62.9994C106.949 62.9126 107.169 62.8743 107.388 62.8886C107.608 62.9029 107.819 62.9692 108 63.0806C108.181 63.1921 108.326 63.3447 108.419 63.5227C108.681 63.4101 108.972 63.3614 109.262 63.3815C109.552 63.4016 109.83 63.4897 110.07 63.6371C110.299 63.7846 110.465 63.9979 110.541 64.2415C110.616 64.4851 110.595 64.7443 110.483 64.976C111.308 65.3449 110.726 66.3925 109.868 66.1454C110.08 66.2906 110.225 66.4997 110.278 66.7338C110.33 66.9679 110.286 67.211 110.152 67.418C110.009 67.6201 109.818 67.7913 109.592 67.9189C109.365 68.0465 109.11 68.1274 108.844 68.1557C108.309 68.2264 107.763 68.153 107.275 67.9447C106.787 67.7364 106.379 67.4027 106.104 66.9864C105.807 67.1476 105.455 67.207 105.113 67.1538C104.771 67.1006 104.461 66.9383 104.243 66.6969C104.024 66.4556 103.911 66.1516 103.924 65.8413C103.937 65.531 104.075 65.2353 104.313 65.0092C103.616 64.9589 102.945 64.7511 102.363 64.4052C101.78 64.0594 101.305 63.5869 100.983 63.0321C102.083 63.6826 103.344 64.0827 104.656 64.1977" fill="white"/>
<path d="M142.014 45.688C141.632 45.6396 141.243 45.6855 140.889 45.8208C140.535 45.956 140.229 46.1755 140.004 46.4552C139.631 47.0016 139.462 47.6397 139.521 48.2774C139.502 48.8837 139.697 49.4798 140.078 49.9816C140.661 50.6018 141.489 50.998 142.389 51.0882C143.235 51.1795 144.092 51.0832 144.886 50.8079C145.084 50.0701 144.886 49.1443 144.692 48.3475C144.564 47.7447 144.281 47.1765 143.867 46.6876C143.407 46.1629 142.747 45.8072 142.014 45.688Z" fill="#455A64"/>
<path d="M160.266 43.9617C160.249 44.0486 160.223 44.1338 160.188 44.2162C160.122 44.4007 160.031 44.6404 159.919 44.954C159.68 45.5773 159.35 46.4848 158.962 47.6098C158.574 48.7349 158.137 50.0849 157.724 51.5936C157.311 53.1022 156.874 54.7732 156.486 56.5364C156.098 58.2996 155.83 59.9964 155.607 61.5419C155.384 63.0875 155.244 64.4929 155.149 65.6585C155.054 66.8241 154.988 67.7869 154.955 68.4435C154.955 68.757 154.922 69.0115 154.91 69.2033C154.91 69.2913 154.9 69.379 154.881 69.4652C154.87 69.377 154.87 69.2879 154.881 69.1996C154.881 69.0078 154.881 68.757 154.881 68.4435C154.881 67.7832 154.926 66.8278 155.005 65.6511C155.083 64.4744 155.219 63.0691 155.417 61.5198C155.615 59.9706 155.908 58.2738 156.28 56.5032C156.651 54.7326 157.105 53.058 157.518 51.5493C157.93 50.0406 158.405 48.6906 158.813 47.5692C159.222 46.4479 159.573 45.5441 159.837 44.9281C159.965 44.633 160.064 44.397 160.142 44.2199C160.176 44.1312 160.218 44.0449 160.266 43.9617Z" fill="#263238"/>
<path d="M143.76 49.2144C143.822 49.2771 143.876 49.3465 143.92 49.4209L144.333 50.0259C144.7 50.5533 145.2 51.3353 145.79 52.3128C146.38 53.2903 147.028 54.4744 147.725 55.8097C148.423 57.145 149.091 58.6389 149.739 60.2361C150.387 61.8333 150.915 63.3752 151.357 64.7916C151.798 66.2081 152.124 67.4954 152.368 68.5873C152.611 69.6791 152.78 70.5607 152.883 71.1694L152.995 71.8776C153.009 71.9607 153.017 72.0444 153.02 72.1284C152.986 72.0499 152.962 71.9682 152.949 71.885C152.912 71.7042 152.863 71.4718 152.801 71.1841C152.681 70.5718 152.483 69.7087 152.219 68.6021C151.955 67.4955 151.6 66.245 151.187 64.8359C150.775 63.4268 150.201 61.885 149.562 60.2988C148.922 58.7127 148.229 57.2188 147.568 55.8724C146.908 54.526 146.252 53.3494 145.678 52.3682C145.105 51.387 144.63 50.5976 144.288 50.0591L143.9 49.432C143.846 49.3631 143.799 49.2903 143.76 49.2144Z" fill="#263238"/>
<path d="M158.661 67.3479H149.689C149.441 67.3479 149.24 67.5279 149.24 67.7499V67.7758C149.24 67.9978 149.441 68.1778 149.689 68.1778H158.661C158.909 68.1778 159.11 67.9978 159.11 67.7758V67.7499C159.11 67.5279 158.909 67.3479 158.661 67.3479Z" fill="#8C8CEB"/>
<path d="M162.329 76.6618C162.003 73.4342 159.156 72.9916 158.615 72.6486C158.497 72.5738 158.392 72.4843 158.302 72.383C157.965 71.9963 157.787 71.5189 157.794 71.0292V67.7647H150.643V71.0292C150.652 71.5192 150.473 71.9971 150.135 72.383C150.046 72.4852 149.94 72.5748 149.821 72.6486C149.277 72.9916 146.429 73.4342 146.108 76.6618C145.786 79.8894 144.577 87.2299 146.71 89.5722C148.678 91.7375 150.597 91.8666 153.8 91.8739H154.65C157.848 91.8739 159.771 91.7375 161.735 89.5722C163.864 87.2299 162.659 79.8931 162.329 76.6618Z" fill="#8C8CEB"/>
<path d="M158.879 68.2037C158.879 68.2553 156.775 68.2996 154.175 68.2996C151.575 68.2996 149.466 68.2553 149.466 68.2037C149.466 68.152 151.575 68.1078 154.175 68.1078C156.775 68.1078 158.879 68.1483 158.879 68.2037Z" fill="#263238"/>
<path d="M164.607 41.4792C164.421 41.1191 164.133 40.809 163.771 40.5798C163.408 40.3507 162.985 40.2105 162.544 40.1734C161.661 40.1062 160.775 40.2434 159.969 40.5718C159.23 40.7913 158.582 41.2038 158.108 41.7558C157.871 42.1098 157.731 42.5086 157.698 42.9201C157.666 43.3315 157.743 43.7439 157.922 44.124C158.293 44.882 158.879 45.5405 159.622 46.0347C160.67 45.8761 161.731 45.297 162.639 44.8137C163.309 44.4794 163.882 44.008 164.31 43.4379C164.524 43.1537 164.663 42.8292 164.714 42.4895C164.766 42.1498 164.729 41.8041 164.607 41.4792Z" fill="#455A64"/>
<path d="M141.564 57.5139C141.393 57.244 141.302 56.939 141.302 56.6286C141.302 56.3183 141.393 56.0132 141.564 55.7433C141.912 55.2053 142.41 54.7568 143.008 54.4412C143.5 54.1159 144.089 53.9296 144.7 53.9064C145.063 53.9289 145.414 54.0279 145.725 54.1953C146.037 54.3626 146.299 54.5936 146.491 54.8691C146.872 55.4254 147.083 56.0615 147.102 56.7135C146.441 57.225 145.682 57.6261 144.861 57.8975C144.317 58.1315 143.719 58.249 143.116 58.2406C142.812 58.2342 142.514 58.1653 142.245 58.0393C141.976 57.9132 141.743 57.7335 141.564 57.5139Z" fill="#455A64"/>
<path d="M151.27 53.5006C151.097 53.2316 151.007 52.9271 151.007 52.6172C151.007 52.3072 151.097 52.0027 151.27 51.7337C151.618 51.1949 152.117 50.7462 152.718 50.4316C153.209 50.1046 153.798 49.9169 154.41 49.8931C154.772 49.9168 155.122 50.0163 155.432 50.1836C155.743 50.3508 156.005 50.5811 156.197 50.8558C156.578 51.4121 156.788 52.0482 156.808 52.7002C156.148 53.2124 155.39 53.6136 154.571 53.8842C154.028 54.1208 153.43 54.2384 152.825 54.2273C152.521 54.2226 152.222 54.1544 151.952 54.0283C151.681 53.9022 151.448 53.7215 151.27 53.5006Z" fill="#455A64"/>
<path d="M164.091 52.8883C164.307 52.6402 164.447 52.3458 164.496 52.0346C164.545 51.7233 164.502 51.4059 164.372 51.114C164.101 50.5337 163.667 50.0255 163.113 49.6385C162.668 49.2537 162.105 48.9968 161.495 48.9008C161.129 48.8793 160.763 48.9348 160.425 49.0629C160.088 49.1911 159.789 49.3882 159.552 49.6385C159.088 50.1505 158.782 50.7622 158.665 51.4128C159.247 52.0122 159.946 52.5121 160.728 52.8883C161.238 53.19 161.82 53.3796 162.428 53.4416C162.734 53.4707 163.044 53.4359 163.332 53.3399C163.621 53.2439 163.881 53.0893 164.091 52.8883Z" fill="#455A64"/>
<path d="M150.7 48.3807C150.66 48.0755 150.525 47.7862 150.312 47.5453C150.099 47.3043 149.814 47.121 149.491 47.0159C148.905 46.9062 148.295 46.9956 147.779 47.2667C147.225 47.4837 146.763 47.8517 146.458 48.318C146.071 49.026 145.95 49.8267 146.112 50.6013C146.256 51.2988 146.572 51.9589 147.036 52.5342C147.729 52.4346 148.476 51.9366 149.099 51.505C149.604 51.1775 150.02 50.7527 150.317 50.2619C150.662 49.6864 150.796 49.0283 150.7 48.3807Z" fill="#455A64"/>
<path d="M155.017 43.8141C154.636 43.7641 154.246 43.8088 153.892 43.9435C153.537 44.0782 153.231 44.2976 153.007 44.5777C152.634 45.124 152.465 45.7621 152.524 46.3999C152.505 47.0062 152.7 47.6025 153.081 48.1041C153.664 48.7263 154.494 49.1228 155.396 49.2107C156.242 49.3015 157.099 49.2052 157.893 48.9303C158.087 48.1926 157.893 47.2667 157.695 46.4737C157.567 45.8696 157.285 45.3003 156.87 44.8101C156.411 44.2843 155.751 43.9294 155.017 43.8141Z" fill="#455A64"/>
<path d="M147.267 49.4984C147.275 49.8165 147.256 50.1346 147.209 50.4501C147.143 51.2109 147.129 51.9747 147.168 52.737C147.211 53.4992 147.317 54.2575 147.486 55.0056C147.576 55.3125 147.645 55.6242 147.692 55.9388C147.527 55.6537 147.408 55.3496 147.337 55.0351C147.121 54.2867 146.992 53.5203 146.953 52.7481C146.912 51.9772 146.946 51.2045 147.057 50.439C147.081 50.1186 147.151 49.8024 147.267 49.4984Z" fill="#263238"/>
<path d="M149.215 59.1148C148.861 58.634 148.478 58.171 148.068 57.7279C147.763 57.4304 147.424 57.1621 147.057 56.9274C146.772 56.7504 146.57 56.684 146.578 56.6581C146.586 56.6323 146.817 56.6581 147.135 56.8131C147.545 57.0196 147.915 57.2851 148.229 57.5988C148.704 58.0152 149.045 58.5391 149.215 59.1148Z" fill="#263238"/>
<path d="M156.601 52.5157C157.005 53.357 157.065 54.2985 156.77 55.1753C156.704 55.1753 156.77 54.574 156.733 53.8436C156.696 53.1133 156.552 52.5342 156.601 52.5157Z" fill="#263238"/>
<path d="M159.135 50.7968C158.897 51.2724 158.593 51.7197 158.231 52.1284C157.928 52.5733 157.565 52.9833 157.15 53.3494C157.388 52.8733 157.691 52.4259 158.054 52.0178C158.359 51.5739 158.722 51.164 159.135 50.7968Z" fill="#263238"/>
<path d="M157.79 50.6603C157.705 50.2814 157.69 49.8927 157.744 49.5094C157.73 49.1235 157.788 48.7381 157.918 48.3696C158.002 48.7485 158.018 49.1372 157.963 49.5205C157.977 49.9064 157.918 50.2917 157.79 50.6603Z" fill="#263238"/>
<path d="M146.846 82.3498C146.755 81.9516 146.708 81.5463 146.706 81.1399C146.65 80.1569 146.65 79.172 146.706 78.1889C146.739 77.6172 146.768 77.0823 146.85 76.5696C146.91 76.1206 147.076 75.6881 147.337 75.3007C147.516 75.0397 147.764 74.8219 148.059 74.6663C148.27 74.5593 148.402 74.5408 148.406 74.5519C148.016 74.7452 147.692 75.0279 147.465 75.3708C147.238 75.7506 147.098 76.1669 147.052 76.5954C146.982 77.0823 146.958 77.6283 146.925 78.2C146.867 79.3398 146.863 80.3763 146.871 81.1251C146.89 81.5334 146.882 81.9424 146.846 82.3498Z" fill="#263238"/>
<path d="M137.012 139.535C136.886 139.534 136.761 139.517 136.641 139.484C136.384 139.416 136.16 139.276 136 139.084C135.84 138.893 135.753 138.66 135.754 138.421V125.43H136.076V138.41C136.076 138.588 136.14 138.76 136.259 138.902C136.378 139.044 136.545 139.147 136.735 139.197C136.925 139.248 137.129 139.241 137.315 139.18C137.501 139.119 137.659 139.005 137.767 138.857L147.626 125.352L147.898 125.511L138.04 139.015C137.931 139.172 137.779 139.301 137.6 139.392C137.42 139.483 137.218 139.532 137.012 139.535Z" fill="#263238"/>
<path d="M176.165 139.535C175.96 139.533 175.759 139.486 175.58 139.397C175.401 139.308 175.249 139.181 175.138 139.026L165.28 125.522L165.552 125.363L175.41 138.868C175.517 139.017 175.676 139.132 175.862 139.194C176.048 139.256 176.251 139.262 176.442 139.212C176.632 139.161 176.799 139.057 176.918 138.914C177.036 138.772 177.099 138.599 177.098 138.421V125.43H177.424V138.41C177.424 138.65 177.337 138.883 177.177 139.074C177.016 139.266 176.79 139.406 176.533 139.473C176.415 139.51 176.291 139.531 176.165 139.535Z" fill="#263238"/>
<path d="M180.936 91.6416H130.307V126.791H180.936V91.6416Z" fill="#6F4439"/>
<path d="M178.01 107.503C178.01 107.503 178.01 107.425 178.01 107.278C178.01 107.13 178.01 106.909 178.01 106.621C178.01 106.042 178.01 105.194 178.01 104.095C178.01 101.881 178.01 98.7017 177.977 94.6921L178.035 94.7437L133.175 94.7695L133.261 94.6921C133.261 99.1443 133.261 103.464 133.261 107.503L133.179 107.429L165.275 107.462L174.647 107.484H177.16H177.816H177.181H174.684L165.333 107.503L133.179 107.54H133.03V107.466C133.03 103.427 133.03 99.1074 133.03 94.6552V94.5814H133.121L177.981 94.6072H178.039V94.6552C178.039 98.6759 178.014 101.881 178.01 104.087C178.01 105.194 178.01 106.027 178.01 106.603C178.01 106.887 178.01 107.101 178.01 107.248C178.01 107.396 178.01 107.503 178.01 107.503Z" fill="#263238"/>
<path d="M178.01 122.693C178.01 122.693 178.01 122.615 178.01 122.468C178.01 122.32 178.01 122.099 178.01 121.811C178.01 121.232 178.01 120.384 178.01 119.288C178.01 117.075 178.01 113.892 177.977 109.886L178.035 109.934L133.175 109.96L133.261 109.886C133.261 114.338 133.261 118.654 133.261 122.693L133.179 122.619L165.275 122.656H174.647H177.16H177.824H177.181H174.684L165.333 122.678L133.179 122.711H133.03V122.638C133.03 118.598 133.03 114.283 133.03 109.83V109.753H133.121L177.981 109.779H178.039V109.83C178.039 113.851 178.014 117.057 178.01 119.262C178.01 120.369 178.01 121.199 178.01 121.774C178.01 122.058 178.01 122.272 178.01 122.424C178.01 122.575 178.01 122.693 178.01 122.693Z" fill="#263238"/>
<path d="M146.367 94.6183L147.828 95.9389H164.532L166.195 94.6183H146.367Z" fill="#263238"/>
<path d="M146.433 109.808L147.89 111.129H164.594L166.257 109.808H146.433Z" fill="#263238"/>
<path d="M51.8521 0H11.0442V48.8787H51.8521V0Z" fill="#455A64"/>
<path d="M51.852 0.0147705C51.8212 0.0629634 51.7837 0.107565 51.7406 0.147563L51.3899 0.516431C51.0639 0.852101 50.6017 1.31687 50.0116 1.91813H49.9868C46.4421 1.95133 39.4681 1.97346 31.4667 1.97346C23.4652 1.97346 16.4748 1.95133 12.9465 1.91813H12.9218L11.5435 0.516431L11.1927 0.147563C11.1531 0.105039 11.1159 0.0607157 11.0813 0.0147705C11.1296 0.0500286 11.1751 0.0882371 11.2175 0.12912L11.5889 0.475855C11.9273 0.800459 12.4142 1.25786 13.0084 1.84067H12.963C16.5119 1.80747 23.4817 1.78534 31.4873 1.78534C39.4929 1.78534 46.4627 1.80747 50.0075 1.84067H49.9662L51.3857 0.475855L51.7571 0.12912C51.7857 0.0890636 51.8175 0.0508526 51.852 0.0147705Z" fill="#263238"/>
<path d="M11.0442 48.8824L11.1556 48.7496L11.5064 48.3807C11.8365 48.0487 12.2959 47.5815 12.8847 46.979H12.9465C16.4954 46.9421 23.4652 46.92 31.4708 46.92C39.4764 46.92 46.4462 46.9421 49.991 46.979H50.0157L51.394 48.3807L51.7448 48.7496C51.7879 48.7896 51.8253 48.8342 51.8562 48.8824C51.808 48.8497 51.7638 48.8126 51.7242 48.7717L51.3528 48.4028L49.9332 47.038H49.9745C46.4297 47.0749 39.4558 47.097 31.4543 47.097C23.4529 47.097 16.4789 47.0749 12.93 47.038H12.9754L11.5559 48.4028L11.1845 48.7717C11.1417 48.8124 11.0947 48.8495 11.0442 48.8824Z" fill="#263238"/>
<path d="M49.9702 1.86273H12.9258V47.0195H49.9702V1.86273Z" fill="white"/>
<path d="M18.7239 33.8141C19.8257 32.8403 21.4516 32.5637 22.9743 32.6005C24.497 32.6374 26.0032 32.9325 27.5135 32.9178C29.9441 32.8883 32.3705 32.0546 34.7681 32.4382C35.5356 32.56 36.3114 32.8071 37.0707 32.6596C37.7392 32.5268 38.3087 32.1063 38.9483 31.9218C40.6402 31.4534 42.5384 32.6596 44.1643 32.0399V42.1173H18.7239V33.8141Z" fill="#8C8CEB"/>
<path d="M19.2354 34.2199C19.1735 34.2199 19.1199 28.2479 19.1199 20.8853C19.1199 13.5227 19.1735 7.55072 19.2354 7.55072C19.2973 7.55072 19.3551 13.519 19.3551 20.8853C19.3551 28.2516 19.3014 34.2199 19.2354 34.2199Z" fill="#263238"/>
<path d="M20.3951 34.2199C20.329 34.2199 20.2754 28.2479 20.2754 20.8853C20.2754 13.5227 20.329 7.55072 20.3951 7.55072C20.4611 7.55072 20.5147 13.519 20.5147 20.8853C20.5147 28.2516 20.4611 34.2199 20.3951 34.2199Z" fill="#263238"/>
<path d="M21.5545 34.2199C21.4885 34.2199 21.4348 28.2479 21.4348 20.8853C21.4348 13.5227 21.4885 7.55072 21.5545 7.55072C21.6205 7.55072 21.6742 13.519 21.6742 20.8853C21.6742 28.2516 21.6123 34.2199 21.5545 34.2199Z" fill="#263238"/>
<path d="M22.7142 34.2199C22.6481 34.2199 22.5945 28.2479 22.5945 20.8853C22.5945 13.5227 22.6481 7.55072 22.7142 7.55072C22.7802 7.55072 22.8503 13.519 22.8503 20.8853C22.8503 28.2516 22.7802 34.2199 22.7142 34.2199Z" fill="#263238"/>
<path d="M23.8738 34.2199C23.8078 34.2199 23.7542 28.2479 23.7542 20.8853C23.7542 13.5227 23.8078 7.55072 23.8738 7.55072C23.9398 7.55072 23.9894 13.519 23.9894 20.8853C23.9894 28.2516 23.9357 34.2199 23.8738 34.2199Z" fill="#263238"/>
<path d="M25.0291 34.2199C24.9631 34.2199 24.9136 28.2479 24.9136 20.8853C24.9136 13.5227 24.9631 7.55072 25.0291 7.55072C25.0951 7.55072 25.1488 13.519 25.1488 20.8853C25.1488 28.2516 25.0951 34.2199 25.0291 34.2199Z" fill="#263238"/>
<path d="M26.1888 34.2199C26.1227 34.2199 26.0691 28.2479 26.0691 20.8853C26.0691 13.5227 26.1227 7.55072 26.1888 7.55072C26.2548 7.55072 26.3084 13.519 26.3084 20.8853C26.3084 28.2516 26.2548 34.2199 26.1888 34.2199Z" fill="#263238"/>
<path d="M27.3482 34.2199C27.2822 34.2199 27.2285 28.2479 27.2285 20.8853C27.2285 13.5227 27.2822 7.55072 27.3482 7.55072C27.4142 7.55072 27.4679 13.519 27.4679 20.8853C27.4679 28.2516 27.4142 34.2199 27.3482 34.2199Z" fill="#263238"/>
<path d="M28.5079 34.2199C28.4418 34.2199 28.3882 28.2479 28.3882 20.8853C28.3882 13.5227 28.4418 7.55072 28.5079 7.55072C28.5739 7.55072 28.6275 13.519 28.6275 20.8853C28.6275 28.2516 28.5739 34.2199 28.5079 34.2199Z" fill="#263238"/>
<path d="M29.6634 34.2199C29.6015 34.2199 29.5479 28.2479 29.5479 20.8853C29.5479 13.5227 29.6015 7.55072 29.6634 7.55072C29.7253 7.55072 29.7831 13.519 29.7831 20.8853C29.7831 28.2516 29.7294 34.2199 29.6634 34.2199Z" fill="#263238"/>
<path d="M30.8228 34.2199C30.7568 34.2199 30.7073 28.2479 30.7073 20.8853C30.7073 13.5227 30.7568 7.55072 30.8228 7.55072C30.8888 7.55072 30.9425 13.519 30.9425 20.8853C30.9425 28.2516 30.8888 34.2199 30.8228 34.2199Z" fill="#263238"/>
<path d="M31.9825 34.2199C31.9164 34.2199 31.8628 28.2479 31.8628 20.8853C31.8628 13.5227 31.9164 7.55072 31.9825 7.55072C32.0485 7.55072 32.1021 13.519 32.1021 20.8853C32.1021 28.2516 32.0485 34.2199 31.9825 34.2199Z" fill="#263238"/>
<path d="M33.1419 34.2199C33.0759 34.2199 33.0222 28.2479 33.0222 20.8853C33.0222 13.5227 33.0759 7.55072 33.1419 7.55072C33.2079 7.55072 33.2616 13.519 33.2616 20.8853C33.2616 28.2516 33.2079 34.2199 33.1419 34.2199Z" fill="#263238"/>
<path d="M34.3016 34.2199C34.2355 34.2199 34.1819 28.2479 34.1819 20.8853C34.1819 13.5227 34.2355 7.55072 34.3016 7.55072C34.3676 7.55072 34.4171 13.519 34.4171 20.8853C34.4171 28.2516 34.3635 34.2199 34.3016 34.2199Z" fill="#263238"/>
<path d="M35.4569 34.2199C35.395 34.2199 35.3413 28.2479 35.3413 20.8853C35.3413 13.5227 35.395 7.55072 35.4569 7.55072C35.5188 7.55072 35.5765 13.519 35.5765 20.8853C35.5765 28.2516 35.5229 34.2199 35.4569 34.2199Z" fill="#263238"/>
<path d="M36.6165 34.2199C36.5505 34.2199 36.501 28.2479 36.501 20.8853C36.501 13.5227 36.5505 7.55072 36.6165 7.55072C36.6825 7.55072 36.7362 13.519 36.7362 20.8853C36.7362 28.2516 36.6825 34.2199 36.6165 34.2199Z" fill="#263238"/>
<path d="M37.7762 34.2199C37.7101 34.2199 37.6565 28.2479 37.6565 20.8853C37.6565 13.5227 37.7101 7.55072 37.7762 7.55072C37.8422 7.55072 37.8958 13.519 37.8958 20.8853C37.8958 28.2516 37.8422 34.2199 37.7762 34.2199Z" fill="#263238"/>
<path d="M38.9441 34.2199C38.8781 34.2199 38.8245 28.2479 38.8245 20.8853C38.8245 13.5227 38.8781 7.55072 38.9441 7.55072C39.0102 7.55072 39.0597 13.519 39.0597 20.8853C39.0597 28.2516 39.0019 34.2199 38.9441 34.2199Z" fill="#263238"/>
<path d="M40.0955 34.2199C40.0295 34.2199 39.9758 28.2479 39.9758 20.8853C39.9758 13.5227 40.0295 7.55072 40.0955 7.55072C40.1615 7.55072 40.211 13.519 40.211 20.8853C40.211 28.2516 40.1574 34.2199 40.0955 34.2199Z" fill="#263238"/>
<path d="M41.2508 34.2199C41.1889 34.2199 41.1353 28.2479 41.1353 20.8853C41.1353 13.5227 41.1889 7.55072 41.2508 7.55072C41.3127 7.55072 41.3705 13.519 41.3705 20.8853C41.3705 28.2516 41.3168 34.2199 41.2508 34.2199Z" fill="#263238"/>
<path d="M42.4105 34.2199C42.3444 34.2199 42.2949 28.2479 42.2949 20.8853C42.2949 13.5227 42.3444 7.55072 42.4105 7.55072C42.4765 7.55072 42.5301 13.519 42.5301 20.8853C42.5301 28.2516 42.4765 34.2199 42.4105 34.2199Z" fill="#263238"/>
<path d="M43.5699 34.2199C43.5038 34.2199 43.4502 28.2479 43.4502 20.8853C43.4502 13.5227 43.5038 7.55072 43.5699 7.55072C43.6359 7.55072 43.6895 13.519 43.6895 20.8853C43.6895 28.2516 43.6359 34.2199 43.5699 34.2199Z" fill="#263238"/>
</g>
<defs>
<clipPath id="clip0_65_2571">
<rect width="184.434" height="184.434" fill="white" transform="translate(0.86792)"/>
</clipPath>
</defs>
</svg>
