<svg width="200" height="201" viewBox="0 0 200 201" fill="none" xmlns="http://www.w3.org/2000/svg">
<path d="M86.028 157.564H14.536L23.804 134.776L28.7 132.092L36.408 114.272L42.64 110.612L48.568 99.892H54.416L67.416 121.84L74.032 125.256L86.028 157.564Z" fill="#EBEBEB"/>
<path d="M14.536 157.564H45.372V139.78L53.284 127.332L49.516 114.272L54.416 99.892H48.568L42.64 110.612L36.408 114.272L28.7 132.092L23.804 134.776L14.536 157.564Z" fill="#DBDBDB"/>
<path d="M54.416 157.564L57.404 148.2L62.236 143.44L64.396 137.828L65.9 139.048V144.416L62.236 148.688V157.596L54.416 157.564Z" fill="#DBDBDB"/>
<path d="M60.1599 128.728L60.9599 124.972L63.1159 122.816L64.1239 124.096L62.7799 125.772L63.3839 129.344L60.1599 128.728Z" fill="#DBDBDB"/>
<path d="M80.884 157.544H185.464L165.732 116.336L156.24 112.264L146.164 92.576L139.52 85.432L133.664 72.396L126.808 73.508L115.084 100.82L108.536 105.704L97.904 133.836L87.432 144.008L80.884 157.544Z" fill="#EBEBEB"/>
<path d="M133.664 72.396L134.468 92.932L126.748 103.72L130.368 111.972L123.2 130.172L129.448 145.228L125.748 157.544H80.884L87.432 144.008L97.904 133.836L108.536 105.704L115.084 100.82L126.808 73.508L133.664 72.396Z" fill="#DBDBDB"/>
<path d="M131.736 124.88L137.12 115.52L136.696 111.552L138.704 108.704L141.132 116.792L133.848 124.88H131.736Z" fill="#DBDBDB"/>
<path d="M127.512 56.076L127.892 56.852L128.748 56.976L128.128 57.576L128.276 58.4279L127.512 58.0279L126.748 58.4279L126.892 57.576L126.276 56.976L127.128 56.852L127.512 56.076Z" fill="#DBDBDB"/>
<path d="M55.7079 94.7919L56.0919 95.5639L56.9439 95.6879L56.3279 96.2919L56.4719 97.1439L55.7079 96.7399L54.9439 97.1439L55.0879 96.2919L54.4719 95.6879L55.3239 95.5639L55.7079 94.7919Z" fill="#DBDBDB"/>
<path d="M155.468 27.6999L155.852 28.4719L156.704 28.5959L156.088 29.1999L156.232 30.0479L155.468 29.6479L154.704 30.0479L154.852 29.1999L154.232 28.5959L155.088 28.4719L155.468 27.6999Z" fill="#DBDBDB"/>
<path d="M69.672 28.8759L70.056 29.6479L70.908 29.7719L70.292 30.3759L70.436 31.2239L69.672 30.8239L68.908 31.2239L69.056 30.3759L68.436 29.7719L69.292 29.6479L69.672 28.8759Z" fill="#DBDBDB"/>
<path d="M178.46 92.4399L178.844 93.212L179.7 93.336L179.08 93.9399L179.224 94.792L178.46 94.388L177.696 94.792L177.844 93.9399L177.224 93.336L178.08 93.212L178.46 92.4399Z" fill="#DBDBDB"/>
<path d="M94.2839 54.7439L94.6639 55.52L95.5199 55.6439L94.8999 56.2439L95.0479 57.096L94.2839 56.696L93.5159 57.096L93.6639 56.2439L93.0439 55.6439L93.8999 55.52L94.2839 54.7439Z" fill="#DBDBDB"/>
<path d="M18.176 38.8039L18.556 39.5759L19.408 39.6999L18.792 40.3039L18.936 41.1559L18.176 40.7519L17.408 41.1559L17.556 40.3039L16.936 39.6999L17.792 39.5759L18.176 38.8039Z" fill="#DBDBDB"/>
<path d="M34.66 85.0239L35.04 85.796L35.896 85.92L35.276 86.5239L35.424 87.376L34.66 86.9719L33.896 87.376L34.04 86.5239L33.424 85.92L34.276 85.796L34.66 85.0239Z" fill="#DBDBDB"/>
<path d="M18.176 98.2L18.408 98.6799L18.936 98.756L18.556 99.1279L18.648 99.656L18.176 99.4039L17.7 99.656L17.792 99.1279L17.408 98.756L17.936 98.6799L18.176 98.2Z" fill="#DBDBDB"/>
<path d="M71.888 49.6359L72.124 50.1159L72.652 50.1919L72.272 50.5639L72.364 51.0919L71.888 50.8439L71.416 51.0919L71.508 50.5639L71.124 50.1919L71.652 50.1159L71.888 49.6359Z" fill="#DBDBDB"/>
<path d="M111.576 92.16L111.812 92.6399L112.34 92.716L111.96 93.088L112.048 93.6159L111.576 93.368L111.104 93.6159L111.196 93.088L110.812 92.716L111.34 92.6399L111.576 92.16Z" fill="#DBDBDB"/>
<path d="M22.3201 42.9479L22.5601 43.4279L23.0881 43.5039L22.7041 43.8759L22.7961 44.4039L22.3201 44.1559L21.8481 44.4039L21.9401 43.8759L21.5601 43.5039L22.0881 43.4279L22.3201 42.9479Z" fill="#DBDBDB"/>
<path d="M156.704 85.4719L156.94 85.952L157.468 86.0279L157.088 86.3999L157.176 86.9279L156.704 86.6799L156.232 86.9279L156.324 86.3999L155.94 86.0279L156.468 85.952L156.704 85.4719Z" fill="#DBDBDB"/>
<path d="M37.848 107.976L38.084 108.456L38.612 108.532L38.232 108.904L38.32 109.432L37.848 109.184L37.376 109.432L37.468 108.904L37.084 108.532L37.612 108.456L37.848 107.976Z" fill="#DBDBDB"/>
<path d="M28.68 82.444L28.916 82.92L29.444 83L29.064 83.3719L29.152 83.896L28.68 83.6479L28.208 83.896L28.3 83.3719L27.916 83L28.444 82.92L28.68 82.444Z" fill="#DBDBDB"/>
<path d="M106.192 45.932L106.428 46.408L106.956 46.484L106.572 46.856L106.664 47.384L106.192 47.136L105.72 47.384L105.808 46.856L105.424 46.484L105.952 46.408L106.192 45.932Z" fill="#DBDBDB"/>
<path d="M158.576 107.976L158.812 108.456L159.34 108.532L158.956 108.904L159.048 109.432L158.576 109.184L158.104 109.432L158.196 108.904L157.812 108.532L158.34 108.456L158.576 107.976Z" fill="#DBDBDB"/>
<path d="M182.3 62.3159L182.536 62.796L183.064 62.8719L182.68 63.244L182.772 63.7719L182.3 63.524L181.828 63.7719L181.916 63.244L181.536 62.8719L182.064 62.796L182.3 62.3159Z" fill="#DBDBDB"/>
<path d="M161.448 61.5919L161.684 62.068L162.212 62.144L161.828 62.52L161.92 63.044L161.448 62.796L160.976 63.044L161.064 62.52L160.684 62.144L161.212 62.068L161.448 61.5919Z" fill="#DBDBDB"/>
<path d="M146.14 40.628C145.269 42.1471 144.034 43.4254 142.545 44.3471C141.056 45.2689 139.361 45.805 137.613 45.9072C135.865 46.0093 134.119 45.6741 132.533 44.932C130.947 44.1899 129.571 43.0642 128.53 41.6567C127.488 40.2493 126.814 38.6044 126.567 36.8708C126.321 35.1372 126.511 33.3696 127.119 31.7277C127.728 30.0858 128.736 28.6215 130.053 27.4671C131.369 26.3127 132.953 25.5046 134.66 25.116C133.33 25.729 132.153 26.6308 131.215 27.7559C130.277 28.881 129.601 30.201 129.237 31.6199C128.874 33.0388 128.831 34.521 129.112 35.9586C129.393 37.3962 129.991 38.753 130.862 39.9304C131.734 41.1079 132.857 42.0763 134.149 42.7652C135.442 43.4541 136.872 43.8462 138.335 43.913C139.799 43.9798 141.258 43.7197 142.608 43.1514C143.958 42.5831 145.165 41.7211 146.14 40.628Z" fill="#DBDBDB"/>
<path d="M14.46 157.56L35.844 157.46L57.228 157.428L100 157.36L142.772 157.424L164.156 157.46L185.54 157.56L164.156 157.656L142.772 157.692L100 157.76L57.228 157.692L35.844 157.656L14.46 157.56Z" fill="#263238"/>
<path d="M187.748 161.144H12.252C11.7767 161.144 11.3209 160.955 10.9848 160.619C10.6488 160.283 10.46 159.827 10.46 159.352C10.4594 159.116 10.5054 158.883 10.5953 158.666C10.6852 158.448 10.8171 158.25 10.9837 158.084C11.1502 157.917 11.3479 157.785 11.5656 157.695C11.7832 157.605 12.0165 157.559 12.252 157.56H187.748C188.223 157.56 188.679 157.749 189.015 158.085C189.351 158.421 189.54 158.877 189.54 159.352C189.539 159.827 189.35 160.282 189.014 160.618C188.678 160.954 188.223 161.143 187.748 161.144Z" fill="#455A64"/>
<path d="M152.06 164.688H41.432C40.4423 164.688 39.64 165.49 39.64 166.48C39.64 167.47 40.4423 168.272 41.432 168.272H152.06C153.05 168.272 153.852 167.47 153.852 166.48C153.852 165.49 153.05 164.688 152.06 164.688Z" fill="#455A64"/>
<path d="M142.124 175.36H61.528C61.2925 175.36 61.0592 175.314 60.8416 175.225C60.6239 175.135 60.4262 175.003 60.2597 174.836C60.0931 174.67 59.9612 174.472 59.8713 174.254C59.7814 174.037 59.7354 173.803 59.736 173.568C59.736 173.093 59.9248 172.637 60.2608 172.301C60.5969 171.965 61.0527 171.776 61.528 171.776H142.124C142.359 171.776 142.592 171.822 142.81 171.912C143.027 172.002 143.225 172.134 143.391 172.301C143.558 172.467 143.689 172.665 143.78 172.882C143.87 173.1 143.916 173.333 143.916 173.568C143.916 173.803 143.87 174.037 143.781 174.254C143.691 174.472 143.559 174.67 143.392 174.836C143.226 175.003 143.028 175.135 142.81 175.225C142.593 175.314 142.359 175.36 142.124 175.36Z" fill="#455A64"/>
<path d="M33.964 164.688H25.544C24.5543 164.688 23.752 165.49 23.752 166.48C23.752 167.47 24.5543 168.272 25.544 168.272H33.964C34.9536 168.272 35.756 167.47 35.756 166.48C35.756 165.49 34.9536 164.688 33.964 164.688Z" fill="#455A64"/>
<path d="M156.052 175.36H151.84C151.605 175.36 151.372 175.314 151.154 175.224C150.937 175.133 150.739 175.001 150.573 174.835C150.407 174.669 150.275 174.471 150.185 174.254C150.094 174.036 150.048 173.803 150.048 173.568C150.049 173.093 150.238 172.638 150.574 172.302C150.91 171.966 151.365 171.777 151.84 171.776H156.052C156.527 171.777 156.982 171.966 157.318 172.302C157.654 172.638 157.843 173.093 157.844 173.568C157.844 173.803 157.798 174.036 157.708 174.254C157.618 174.471 157.486 174.669 157.319 174.835C157.153 175.001 156.955 175.133 156.738 175.224C156.52 175.314 156.287 175.36 156.052 175.36Z" fill="#455A64"/>
<path d="M93.392 164.724H47.036C47.5134 164.724 47.9712 164.534 48.3088 164.197C48.6464 163.859 48.836 163.401 48.836 162.924C48.836 162.447 48.6464 161.989 48.3088 161.651C47.9712 161.314 47.5134 161.124 47.036 161.124H93.392C92.9146 161.124 92.4568 161.314 92.1192 161.651C91.7817 161.989 91.592 162.447 91.592 162.924C91.592 163.401 91.7817 163.859 92.1192 164.197C92.4568 164.534 92.9146 164.724 93.392 164.724Z" fill="#455A64"/>
<path d="M141.532 164.724H111.132C111.609 164.724 112.067 164.534 112.405 164.197C112.742 163.859 112.932 163.401 112.932 162.924C112.932 162.447 112.742 161.989 112.405 161.651C112.067 161.314 111.609 161.124 111.132 161.124H141.532C141.055 161.124 140.597 161.314 140.259 161.651C139.922 161.989 139.732 162.447 139.732 162.924C139.732 163.401 139.922 163.859 140.259 164.197C140.597 164.534 141.055 164.724 141.532 164.724Z" fill="#455A64"/>
<path d="M118.536 171.816H71.892C72.3694 171.816 72.8272 171.626 73.1648 171.289C73.5023 170.951 73.692 170.493 73.692 170.016C73.692 169.539 73.5023 169.081 73.1648 168.743C72.8272 168.406 72.3694 168.216 71.892 168.216H118.536C118.059 168.216 117.601 168.406 117.263 168.743C116.926 169.081 116.736 169.539 116.736 170.016C116.736 170.493 116.926 170.951 117.263 171.289C117.601 171.626 118.059 171.816 118.536 171.816Z" fill="#455A64"/>
<path d="M26.452 157.528H138.056L117.684 107.304L107.884 102.344L97.484 78.352L90.62 69.644L84.576 53.756L77.496 55.112L65.392 88.396L58.636 94.3479L44.024 128.632L33.212 141.028L26.452 157.528Z" fill="#455A64"/>
<path d="M84.576 53.756L85.404 78.7839L77.436 91.9279L81.172 101.988L73.772 124.168L80.224 142.52L76.404 157.528H26.452L33.212 141.028L44.024 128.632L58.636 94.3479L65.392 88.396L77.496 55.112L84.576 53.756Z" fill="#37474F"/>
<path d="M82.584 117.72L88.144 106.312L87.708 101.476L89.78 98.0039L92.288 107.864L84.764 117.72H82.584Z" fill="#37474F"/>
<path d="M173.548 157.536H90.912L101.824 130.724L109.54 124.536L117.496 101.448L123.932 96.7039L130.048 82.8159H136.088L149.508 111.252L156.34 115.68L173.548 157.536Z" fill="#37474F"/>
<path d="M90.912 157.536H126.752V134.496L134.92 118.368L131.028 101.448L136.088 82.8159H130.048L123.932 96.7039L117.496 101.448L109.54 124.536L101.824 130.724L90.912 157.536Z" fill="#263238"/>
<path d="M136.088 157.536L139.172 145.408L144.164 139.24L146.388 131.968L147.944 133.548V140.504L144.164 146.04V157.58L136.088 157.536Z" fill="#263238"/>
<path d="M142.016 120.176L142.844 115.308L145.068 112.516L146.112 114.176L144.72 116.344L145.348 120.976L142.016 120.176Z" fill="#263238"/>
<path d="M136.892 155.932H136.3V157.6H136.892V155.932Z" fill="#263238"/>
<path d="M108.248 155.932H107.656V157.6H108.248V155.932Z" fill="#263238"/>
<path d="M107.656 157.596L116.016 145.168L124.596 157.596H107.656Z" fill="#B8B8FF"/>
<path opacity="0.1" d="M107.656 157.596L116.016 145.168L124.596 157.596H107.656Z" fill="black"/>
<path d="M116.016 145.168H128.272L136.788 157.596H124.596L116.016 145.168Z" fill="#B8B8FF"/>
<path d="M121.24 147.428H126.84L128.544 149.916H122.956L121.24 147.428Z" fill="white"/>
<path opacity="0.3" d="M113.268 157.596H118.54L116.016 145.168L113.268 157.596Z" fill="black"/>
<path d="M124.888 155.932H124.296V157.6H124.888V155.932Z" fill="#263238"/>
<path d="M116 145.168C113.976 149.204 111.628 153.644 109.436 157.596C111.464 153.556 113.804 149.116 116 145.168Z" fill="white"/>
<path d="M116 145.168C118.172 149.096 120.488 153.512 122.496 157.528C120.324 153.596 118.004 149.184 116 145.168Z" fill="white"/>
<path d="M113.268 157.596C112.887 156.294 112.12 155.139 111.068 154.284L116 145.168L113.268 157.596Z" fill="#B8B8FF"/>
<path d="M118.54 157.596L116 145.168L121.152 154.768C120.469 154.892 119.844 155.235 119.373 155.745C118.902 156.255 118.61 156.905 118.54 157.596Z" fill="#B8B8FF"/>
<path d="M31.472 157.436C31.016 157.896 25.672 158.1 23.728 158.1C21.784 158.1 16.44 157.896 16 157.436C15.56 156.976 22 121.436 23.748 121.436C25.496 121.436 31.932 156.976 31.472 157.436Z" fill="#263238"/>
<path d="M31.6 148.384C30.28 148.888 25.388 150.88 24.332 151.46C24.332 151.236 24.332 151.016 24.332 150.792C25.512 150.096 26.7 149.412 27.88 148.72C29.1851 148.039 30.4523 147.287 31.676 146.468C31.732 146.424 31.7 146.308 31.62 146.34C30.3307 146.943 29.0838 147.632 27.888 148.404C26.688 149.108 25.488 149.836 24.308 150.568C24.308 148.864 24.3013 147.161 24.288 145.46C26.2164 144.66 28.0806 143.713 29.864 142.628C29.924 142.592 29.864 142.48 29.812 142.508C27.9031 143.275 26.0552 144.186 24.284 145.232C24.284 144.348 24.284 143.46 24.284 142.576C24.232 138.016 24.224 133.456 24.108 128.896C25.268 128.312 26.464 127.796 27.624 127.208C27.7 127.168 27.624 127.036 27.564 127.068C26.388 127.524 25.256 128.072 24.1 128.576C24.036 126.224 23.948 123.876 23.804 121.524C23.804 121.508 23.7977 121.493 23.7864 121.482C23.7751 121.47 23.7599 121.464 23.744 121.464C23.7281 121.464 23.7128 121.47 23.7015 121.482C23.6903 121.493 23.684 121.508 23.684 121.524C23.52 125.892 23.532 130.264 23.588 134.636C22.388 133.676 21.104 132.828 19.884 131.896C19.836 131.86 19.788 131.94 19.836 131.976C21.116 132.948 22.312 134.028 23.592 134.996V135.736C22.288 135.14 20.964 134.588 19.648 134.024C19.544 133.98 19.452 134.128 19.56 134.176C20.9 134.82 22.236 135.476 23.596 136.084C23.624 138.248 23.664 140.412 23.692 142.576C23.74 146.356 23.824 150.136 23.904 153.916C21.4453 152.673 18.968 151.463 16.472 150.284C16.376 150.24 16.292 150.372 16.388 150.428C18.8246 151.822 21.3349 153.082 23.908 154.204C23.976 157.344 24.04 154.488 24.08 157.628C24.0858 157.664 24.1041 157.696 24.1316 157.719C24.159 157.743 24.1939 157.755 24.23 157.755C24.266 157.755 24.3009 157.743 24.3284 157.719C24.3559 157.696 24.3741 157.664 24.38 157.628C24.336 153.628 24.328 155.628 24.316 151.628C25.612 151.308 30.512 149.208 31.676 148.632C31.792 148.544 31.708 148.336 31.6 148.384Z" fill="#37474F"/>
<path d="M71.468 157.408C71.068 157.808 66.488 157.976 64.82 157.976C63.152 157.976 58.564 157.8 58.172 157.408C57.78 157.016 63.332 126.528 64.82 126.528C66.308 126.528 71.86 157.012 71.468 157.408Z" fill="#263238"/>
<path d="M71.56 149.64C70.428 150.072 66.228 151.78 65.324 152.28C65.324 152.088 65.324 151.88 65.324 151.704C66.336 151.108 67.352 150.504 68.368 149.928C69.4946 149.339 70.5882 148.688 71.644 147.98C71.696 147.944 71.668 147.844 71.6 147.872C70.4944 148.389 69.4253 148.981 68.4 149.644C67.368 150.248 66.348 150.872 65.332 151.5C65.332 150.04 65.332 148.576 65.312 147.1C66.9726 146.415 68.5774 145.602 70.112 144.668C70.164 144.64 70.112 144.54 70.068 144.568C68.4317 145.227 66.8472 146.008 65.328 146.904C65.328 146.144 65.328 145.384 65.328 144.624C65.284 140.712 65.276 136.796 65.176 132.884C66.172 132.384 67.2 131.94 68.192 131.436C68.26 131.404 68.192 131.288 68.144 131.316C67.132 131.716 66.144 132.176 65.168 132.612C65.116 130.612 65.04 128.576 64.916 126.56C64.916 126.546 64.9105 126.533 64.9008 126.523C64.891 126.513 64.8778 126.508 64.864 126.508C64.8502 126.508 64.837 126.513 64.8272 126.523C64.8175 126.533 64.812 126.546 64.812 126.56C64.672 130.308 64.684 134.06 64.732 137.808C63.7 136.988 62.6 136.26 61.552 135.46C61.512 135.428 61.472 135.5 61.512 135.528C62.608 136.364 63.636 137.288 64.736 138.12C64.736 138.332 64.736 138.544 64.736 138.756C63.616 138.244 62.484 137.768 61.352 137.284C61.264 137.248 61.184 137.376 61.276 137.416C62.428 137.972 63.572 138.532 64.74 139.052C64.764 140.912 64.796 142.768 64.82 144.624C64.864 147.868 64.936 151.112 65.004 154.356C62.892 153.289 60.7667 152.251 58.628 151.24C58.544 151.204 58.472 151.316 58.556 151.364C60.6456 152.561 62.7996 153.643 65.008 154.604C65.068 157.3 65.124 155.264 65.156 157.96C65.156 157.994 65.1695 158.026 65.1935 158.05C65.2175 158.074 65.2501 158.088 65.284 158.088C65.3179 158.088 65.3505 158.074 65.3745 158.05C65.3985 158.026 65.412 157.994 65.412 157.96C65.372 154.524 65.368 155.816 65.36 152.38C66.472 152.104 70.676 150.304 71.676 149.808C71.74 149.776 71.668 149.596 71.56 149.64Z" fill="#37474F"/>
<path d="M28.144 157.568C28.476 157.9 32.336 158.048 33.744 158.048C35.152 158.048 39.012 157.9 39.344 157.568C39.676 157.236 35 131.568 33.744 131.568C32.488 131.568 27.812 157.236 28.144 157.568Z" fill="#263238"/>
<path d="M28.064 151.024C29.02 151.388 32.556 152.828 33.32 153.248V152.768C32.468 152.264 31.612 151.768 30.756 151.272C29.8086 150.773 28.8874 150.225 27.996 149.632C27.956 149.6 27.996 149.512 28.036 149.536C28.9679 149.973 29.8699 150.472 30.736 151.028C31.604 151.54 32.464 152.064 33.32 152.592C33.32 151.364 33.32 150.132 33.32 148.904C31.9336 148.327 30.5925 147.646 29.308 146.868C29.264 146.84 29.308 146.76 29.344 146.78C30.7249 147.334 32.0621 147.992 33.344 148.748C33.344 148.108 33.344 147.468 33.344 146.828C33.38 143.536 33.384 140.236 33.468 136.944C32.632 136.52 31.768 136.144 30.932 135.724C30.876 135.696 30.932 135.6 30.972 135.62C31.824 135.952 32.64 136.348 33.476 136.712C33.5214 135.013 33.592 133.315 33.688 131.616C33.688 131.604 33.6927 131.593 33.7009 131.585C33.7092 131.577 33.7204 131.572 33.732 131.572C33.7437 131.572 33.7549 131.577 33.7631 131.585C33.7714 131.593 33.776 131.604 33.776 131.616C33.896 134.772 33.884 137.932 33.844 141.092C34.712 140.396 35.64 139.784 36.524 139.112C36.556 139.084 36.592 139.144 36.556 139.168C35.632 139.872 34.768 140.652 33.844 141.352C33.844 141.532 33.844 141.708 33.844 141.888C34.784 141.456 35.74 141.056 36.692 140.648C36.768 140.616 36.832 140.724 36.756 140.76C35.788 141.224 34.82 141.7 33.84 142.136C33.816 143.7 33.792 145.268 33.772 146.828C33.736 149.56 33.676 152.292 33.616 155.024C35.392 154.124 37.188 153.248 38.988 152.4C39.056 152.368 39.116 152.464 39.048 152.504C37.2834 153.509 35.4646 154.416 33.6 155.22C33.552 157.492 33.504 155.724 33.476 157.996C33.4712 158.021 33.458 158.043 33.4387 158.059C33.4194 158.075 33.3951 158.083 33.37 158.083C33.345 158.083 33.3207 158.075 33.3014 158.059C33.282 158.043 33.2688 158.021 33.264 157.996C33.292 155.1 33.3 156.24 33.308 153.348C31.5009 152.723 29.7289 152.001 28 151.184C27.912 151.14 27.972 150.992 28.064 151.024Z" fill="#455A64"/>
<path d="M169.908 157.356C169.484 157.78 164.552 157.968 162.76 157.968C160.968 157.968 156.032 157.78 155.608 157.356C155.184 156.932 161.16 124.156 162.76 124.156C164.36 124.156 170.332 156.932 169.908 157.356Z" fill="#263238"/>
<path d="M170 149C168.8 149.464 164.268 151.304 163.292 151.84C163.292 151.636 163.292 151.44 163.292 151.224L166.568 149.312C167.779 148.679 168.956 147.98 170.092 147.22C170.144 147.18 170.116 147.072 170.04 147.1C168.85 147.659 167.699 148.295 166.592 149.004C165.484 149.656 164.388 150.328 163.292 151.004C163.292 149.432 163.292 147.86 163.272 146.288C165.053 145.549 166.774 144.673 168.42 143.668C168.476 143.632 168.44 143.528 168.376 143.556C166.615 144.264 164.91 145.103 163.276 146.068C163.276 145.268 163.276 144.436 163.256 143.62C163.212 139.412 163.204 135.22 163.096 130.992C164.168 130.452 165.272 129.976 166.34 129.436C166.408 129.4 166.34 129.276 166.284 129.304C165.2 129.728 164.156 130.232 163.084 130.7C163.028 128.528 162.944 126.36 162.812 124.192C162.812 124.177 162.806 124.163 162.796 124.152C162.785 124.142 162.771 124.136 162.756 124.136C162.741 124.136 162.727 124.142 162.716 124.152C162.706 124.163 162.7 124.177 162.7 124.192C162.548 128.224 162.564 132.256 162.612 136.288C161.504 135.404 160.32 134.62 159.192 133.764C159.148 133.728 159.108 133.804 159.152 133.836C160.328 134.736 161.432 135.728 162.616 136.636C162.616 136.864 162.616 137.092 162.616 137.32C161.416 136.772 160.196 136.26 158.98 135.74C158.884 135.696 158.8 135.832 158.896 135.88C160.136 136.472 161.368 137.08 162.624 137.64C162.653 139.637 162.683 141.637 162.712 143.64C162.756 147.128 162.832 150.616 162.908 154.104C160.636 152.955 158.349 151.837 156.048 150.752C155.96 150.712 155.884 150.836 155.972 150.884C158.221 152.17 160.538 153.335 162.912 154.372C162.976 157.268 163.036 155.08 163.072 157.972C163.072 158.008 163.086 158.043 163.112 158.068C163.137 158.094 163.172 158.108 163.208 158.108C163.244 158.108 163.279 158.094 163.304 158.068C163.33 158.043 163.344 158.008 163.344 157.972C163.304 154.276 163.3 155.664 163.288 151.972C164.488 151.676 169.008 149.74 170.088 149.212C170.204 149.148 170.124 148.956 170 149Z" fill="#455A64"/>
<path d="M149.508 157.356C149.084 157.78 144.152 157.968 142.356 157.968C140.56 157.968 135.632 157.78 135.208 157.356C134.784 156.932 140.756 124.156 142.356 124.156C143.956 124.156 149.928 156.932 149.508 157.356Z" fill="#263238"/>
<path d="M149.6 149C148.4 149.464 143.868 151.304 142.892 151.84V151.224C143.98 150.584 145.071 149.947 146.164 149.312C147.375 148.679 148.552 147.98 149.688 147.22C149.74 147.18 149.712 147.072 149.64 147.1C148.45 147.658 147.298 148.294 146.192 149.004C145.08 149.656 143.984 150.328 142.888 151.004C142.888 149.432 142.888 147.86 142.868 146.288C144.65 145.548 146.372 144.672 148.02 143.668C148.076 143.632 148.02 143.528 147.972 143.556C146.212 144.264 144.507 145.104 142.872 146.068C142.872 145.252 142.872 144.436 142.872 143.62C142.824 139.412 142.816 135.22 142.712 130.992C143.78 130.452 144.884 129.976 145.952 129.436C146.024 129.4 145.976 129.276 145.9 129.304C144.812 129.728 143.768 130.232 142.7 130.7C142.64 128.528 142.556 126.36 142.424 124.192C142.424 124.177 142.418 124.163 142.408 124.152C142.397 124.142 142.383 124.136 142.368 124.136C142.353 124.136 142.339 124.142 142.328 124.152C142.318 124.163 142.312 124.177 142.312 124.192C142.164 128.224 142.176 132.256 142.228 136.288C141.116 135.404 139.936 134.62 138.808 133.764C138.764 133.728 138.72 133.804 138.764 133.836C139.944 134.736 141.048 135.728 142.232 136.636C142.232 136.864 142.232 137.092 142.232 137.32C141.032 136.772 139.808 136.26 138.592 135.74C138.5 135.696 138.412 135.832 138.512 135.88C139.748 136.472 140.984 137.08 142.236 137.64C142.264 139.64 142.3 141.64 142.324 143.64C142.368 147.128 142.448 150.616 142.52 154.104C140.251 152.955 137.964 151.837 135.66 150.752C135.572 150.712 135.496 150.836 135.584 150.884C137.834 152.17 140.152 153.335 142.528 154.372C142.588 157.268 142.648 155.08 142.684 157.972C142.69 158.005 142.706 158.034 142.732 158.055C142.757 158.077 142.789 158.088 142.822 158.088C142.855 158.088 142.887 158.077 142.912 158.055C142.938 158.034 142.954 158.005 142.96 157.972C142.92 154.276 142.912 155.664 142.9 151.972C144.1 151.676 148.62 149.74 149.7 149.212C149.8 149.148 149.724 148.956 149.6 149Z" fill="#455A64"/>
<path d="M146.876 157.668C147.172 157.964 150.62 158.096 151.872 158.096C153.124 158.096 156.576 157.964 156.872 157.668C157.168 157.372 152.992 134.468 151.872 134.468C150.752 134.468 146.58 157.376 146.876 157.668Z" fill="#263238"/>
<path d="M146.8 151.832C147.652 152.156 150.8 153.432 151.488 153.832V153.4C150.728 152.952 149.964 152.512 149.2 152.068C148.355 151.623 147.534 151.134 146.74 150.604C146.7 150.576 146.74 150.5 146.772 150.52C147.6 150.911 148.402 151.356 149.172 151.852C149.948 152.308 150.712 152.776 151.48 153.248C151.48 152.148 151.48 151.052 151.48 149.952C150.235 149.436 149.031 148.825 147.88 148.124C147.84 148.104 147.88 148.028 147.912 148.048C149.142 148.543 150.333 149.13 151.476 149.804V148.092C151.508 145.152 151.516 142.208 151.588 139.268C150.84 138.892 150.072 138.56 149.324 138.18C149.276 138.156 149.324 138.068 149.36 138.088C150.12 138.384 150.852 138.736 151.596 139.064C151.636 137.548 151.692 136.032 151.788 134.516C151.791 134.508 151.796 134.501 151.802 134.496C151.809 134.491 151.818 134.488 151.826 134.488C151.834 134.488 151.843 134.491 151.849 134.496C151.856 134.501 151.861 134.508 151.864 134.516C151.968 137.316 151.96 140.152 151.924 142.972C152.7 142.352 153.524 141.804 154.324 141.204C154.352 141.18 154.384 141.232 154.352 141.256C153.528 141.884 152.752 142.58 151.932 143.204C151.932 143.364 151.932 143.524 151.932 143.68C152.772 143.28 153.624 142.94 154.476 142.576C154.54 142.548 154.6 142.644 154.532 142.676C153.668 143.076 152.804 143.512 151.928 143.904C151.928 145.3 151.884 146.704 151.868 148.092C151.836 150.532 151.784 152.968 151.728 155.404C153.328 154.604 154.928 153.804 156.528 153.064C156.588 153.036 156.644 153.124 156.58 153.156C155.01 154.057 153.392 154.87 151.732 155.592C151.688 157.62 151.644 155.992 151.62 158.024C151.62 158.049 151.61 158.074 151.592 158.092C151.574 158.11 151.549 158.12 151.524 158.12C151.498 158.12 151.474 158.11 151.456 158.092C151.438 158.074 151.428 158.049 151.428 158.024C151.456 155.44 151.46 156.504 151.468 153.92C149.852 153.361 148.267 152.716 146.72 151.988C146.672 151.936 146.724 151.8 146.8 151.832Z" fill="#37474F"/>
<path d="M51.008 157.624C51.304 157.92 54.752 158.052 56.008 158.052C57.264 158.052 60.708 157.92 61.004 157.624C61.3 157.328 57.124 134.424 56.008 134.424C54.892 134.424 50.712 157.328 51.008 157.624Z" fill="#263238"/>
<path d="M50.94 151.788C51.792 152.112 54.94 153.388 55.628 153.788C55.628 153.644 55.628 153.5 55.628 153.356L53.34 152.02C52.4926 151.577 51.6701 151.088 50.876 150.556C50.84 150.528 50.876 150.452 50.912 150.476C51.7412 150.864 52.543 151.307 53.312 151.804C54.088 152.26 54.856 152.728 55.62 153.2C55.62 152.104 55.62 151.004 55.62 149.908C54.3754 149.391 53.172 148.779 52.02 148.08C51.98 148.056 52.02 147.984 52.052 148.004C53.2822 148.499 54.4735 149.086 55.616 149.76C55.616 149.188 55.616 148.616 55.616 148.048C55.644 145.108 55.652 142.164 55.728 139.224C54.98 138.824 54.208 138.512 53.46 138.132C53.412 138.108 53.46 138.024 53.496 138.044C54.256 138.34 54.988 138.692 55.732 139.02C55.772 137.5 55.832 135.984 55.924 134.472C55.922 134.466 55.9215 134.46 55.9225 134.453C55.9234 134.447 55.9259 134.441 55.9296 134.436C55.9333 134.431 55.9382 134.427 55.9438 134.424C55.9494 134.421 55.9556 134.419 55.962 134.419C55.9683 134.419 55.9745 134.421 55.9802 134.424C55.9858 134.427 55.9907 134.431 55.9944 134.436C55.9981 134.441 56.0005 134.447 56.0015 134.453C56.0025 134.46 56.0019 134.466 56 134.472C56.108 137.272 56.096 140.104 56.064 142.924C56.836 142.304 57.664 141.76 58.464 141.16C58.496 141.136 58.524 141.188 58.492 141.208C57.668 141.836 56.892 142.532 56.072 143.16C56.072 143.316 56.072 143.476 56.072 143.636C56.912 143.236 57.764 142.896 58.616 142.532C58.68 142.5 58.74 142.596 58.672 142.628C57.808 143.028 56.944 143.468 56.068 143.86L56.008 148.048C55.976 150.484 55.924 152.92 55.872 155.36C57.456 154.56 59.056 153.78 60.672 153.02C60.732 152.988 60.788 153.076 60.728 153.112C59.1547 154.009 57.5351 154.822 55.876 155.548C55.832 157.572 55.788 155.996 55.764 158.024C55.764 158.049 55.7539 158.074 55.7359 158.092C55.7179 158.11 55.6934 158.12 55.668 158.12C55.6425 158.12 55.6181 158.11 55.6001 158.092C55.5821 158.074 55.572 158.049 55.572 158.024C55.6 155.44 55.604 156.456 55.612 153.872C53.9959 153.315 52.411 152.671 50.864 151.944C50.8 151.888 50.86 151.756 50.94 151.788Z" fill="#37474F"/>
<path d="M80.6881 157.58C80.9841 157.876 84.4321 158.008 85.6841 158.008C86.9361 158.008 90.3881 157.876 90.6841 157.58C90.9801 157.284 86.8041 134.38 85.6841 134.38C84.5641 134.38 80.4001 157.268 80.6881 157.58Z" fill="#263238"/>
<path d="M80.6199 151.74C81.4719 152.064 84.6199 153.34 85.3079 153.74V153.308C84.5479 152.86 83.7839 152.42 83.0199 151.976C82.2559 151.532 81.3239 151.072 80.5599 150.512C80.5199 150.484 80.5599 150.408 80.5919 150.428C81.4204 150.819 82.2221 151.264 82.9919 151.76C83.7679 152.216 84.5319 152.684 85.2999 153.156C85.2999 152.056 85.2999 150.96 85.2999 149.86C84.0547 149.344 82.8511 148.733 81.6999 148.032C81.6599 148.008 81.6999 147.936 81.7319 147.956C82.9622 148.451 84.1535 149.038 85.2959 149.712V148C85.3279 145.06 85.3359 142.116 85.4079 139.176C84.6599 138.8 83.8919 138.468 83.1439 138.088C83.0959 138.064 83.1439 137.976 83.1799 137.996C83.9399 138.292 84.6719 138.644 85.4159 138.972C85.4559 137.456 85.5159 135.94 85.6079 134.424C85.6106 134.416 85.6157 134.409 85.6225 134.404C85.6293 134.399 85.6375 134.396 85.6459 134.396C85.6544 134.396 85.6626 134.399 85.6694 134.404C85.6762 134.409 85.6813 134.416 85.6839 134.424C85.7879 137.224 85.7799 140.06 85.7439 142.88C86.5199 142.26 87.3439 141.712 88.1439 141.112C88.1759 141.088 88.2039 141.14 88.1719 141.164C87.3479 141.792 86.5719 142.488 85.7719 143.112C85.7719 143.272 85.7719 143.432 85.7719 143.588C86.6119 143.188 87.4639 142.848 88.3159 142.484C88.3799 142.456 88.4399 142.552 88.3719 142.584C87.5079 142.984 86.6439 143.42 85.7679 143.812C85.7479 145.208 85.7239 146.612 85.7079 148C85.6759 150.44 85.6239 152.876 85.5719 155.312C87.1719 154.512 88.7719 153.712 90.3719 152.972C90.4319 152.944 90.4879 153.028 90.4239 153.064C88.8533 153.963 87.2349 154.776 85.5759 155.5C85.5319 157.528 85.4879 155.996 85.4639 158.024C85.4639 158.049 85.4538 158.074 85.4358 158.092C85.4178 158.11 85.3934 158.12 85.3679 158.12C85.3425 158.12 85.3181 158.11 85.3001 158.092C85.2821 158.074 85.2719 158.049 85.2719 158.024C85.2999 155.44 85.3039 156.424 85.3119 153.828C83.6958 153.269 82.1109 152.625 80.5639 151.896C80.4839 151.844 80.5359 151.708 80.6199 151.74Z" fill="#37474F"/>
<path d="M174.036 157.58C174.332 157.876 177.78 158.008 179.032 158.008C180.284 158.008 183.732 157.876 184.028 157.58C184.324 157.284 180.148 134.38 179.032 134.38C177.916 134.38 173.74 157.268 174.036 157.58Z" fill="#263238"/>
<path d="M173.968 151.74C174.816 152.064 177.968 153.34 178.656 153.74V153.308C177.896 152.86 177.132 152.42 176.368 151.976C175.522 151.53 174.7 151.041 173.904 150.512C173.868 150.484 173.904 150.408 173.94 150.428C174.769 150.818 175.571 151.263 176.34 151.76C177.116 152.216 177.884 152.684 178.648 153.156C178.648 152.056 178.648 150.96 178.648 149.86C177.402 149.346 176.198 148.735 175.048 148.032C175.008 148.008 175.048 147.936 175.08 147.956C176.31 148.451 177.502 149.038 178.644 149.712C178.644 149.144 178.644 148.572 178.644 148C178.676 145.06 178.68 142.116 178.756 139.176C178.008 138.8 177.236 138.468 176.488 138.088C176.44 138.064 176.488 137.976 176.528 137.996C177.288 138.292 178.016 138.644 178.76 138.972C178.804 137.456 178.86 135.94 178.952 134.424C178.952 134.413 178.956 134.403 178.964 134.396C178.971 134.388 178.982 134.384 178.992 134.384C179.003 134.384 179.013 134.388 179.02 134.396C179.028 134.403 179.032 134.413 179.032 134.424C179.136 137.224 179.128 140.06 179.092 142.88C179.868 142.26 180.692 141.712 181.492 141.112C181.524 141.088 181.552 141.14 181.524 141.164C180.7 141.792 179.924 142.488 179.1 143.112C179.1 143.272 179.1 143.432 179.1 143.588C179.94 143.188 180.792 142.848 181.64 142.484C181.708 142.456 181.768 142.552 181.7 142.584C180.832 142.984 179.972 143.42 179.096 143.812C179.076 145.208 179.052 146.612 179.032 148C179.004 150.44 178.948 152.876 178.896 155.312C180.496 154.512 182.096 153.712 183.696 152.972C183.708 152.965 183.723 152.963 183.736 152.967C183.75 152.971 183.761 152.98 183.768 152.992C183.775 153.004 183.777 153.019 183.773 153.032C183.769 153.046 183.76 153.057 183.748 153.064C182.176 153.963 180.556 154.776 178.896 155.5C178.852 157.528 178.812 155.996 178.784 158.024C178.784 158.144 178.592 158.144 178.596 158.024C178.624 155.44 178.628 156.424 178.636 153.828C177.019 153.271 175.434 152.626 173.888 151.896C173.828 151.844 173.884 151.708 173.968 151.74Z" fill="#37474F"/>
<path d="M70.824 70.1879C70.7247 70.0767 70.6192 69.9712 70.508 69.8719C70.4101 69.762 70.3059 69.6579 70.196 69.5599C70.0978 69.4477 69.9922 69.3422 69.88 69.2439C69.7818 69.1317 69.6762 69.0261 69.564 68.9279C69.4661 68.818 69.3619 68.7139 69.252 68.6159C69.1527 68.5047 69.0472 68.3992 68.936 68.2999C68.8381 68.19 68.7339 68.0859 68.624 67.9879C68.5247 67.8767 68.4192 67.7712 68.308 67.6719C68.2101 67.562 68.1059 67.4579 67.996 67.3599C67.6734 67.0044 67.2968 66.7021 66.88 66.4639V34.9839C66.88 34.8199 66.796 34.7359 66.796 34.5839C66.8167 34.4127 66.7875 34.239 66.712 34.0839C66.712 33.9999 66.632 33.8319 66.632 33.7479C66.5889 33.5772 66.5327 33.41 66.464 33.2479C66.3739 33.1565 66.3151 33.0389 66.296 32.9119C66.2013 32.7649 66.0884 32.6305 65.96 32.5119C65.876 32.4279 65.796 32.2639 65.712 32.1759L65.376 31.8439C65.376 31.7919 65.312 31.7399 65.24 31.7079L65.076 31.5399H65.056C65.056 31.4879 64.992 31.4399 64.92 31.4039L64.756 31.2399C64.756 31.1879 64.692 31.1359 64.62 31.1039L64.4 30.8679C64.4 30.8159 64.336 30.7639 64.264 30.7319L64.1 30.5679C64.1 30.5199 64.036 30.4679 63.964 30.4319L63.796 30.2679C63.796 30.2159 63.732 30.1639 63.66 30.1319L63.496 29.9639C63.496 29.9159 63.432 29.8639 63.36 29.8279L63.192 29.6639C63.192 29.6119 63.128 29.5599 63.056 29.5279L62.8 29.2679C62.8 29.2159 62.736 29.1679 62.664 29.1319L62.5 28.9679C62.5 28.9159 62.436 28.8639 62.364 28.8319L62.18 28.6479C62.18 28.5679 62.016 28.4839 61.932 28.4839C61.9331 28.4728 61.9319 28.4615 61.9284 28.4509C61.9248 28.4402 61.9191 28.4304 61.9116 28.4221C61.904 28.4138 61.8948 28.4072 61.8846 28.4027C61.8743 28.3982 61.8632 28.3959 61.852 28.3959C61.68 28.3159 61.596 28.2319 61.428 28.1479C61.344 28.0639 61.18 27.9799 61.028 27.8119C60.94 27.8119 60.776 27.7319 60.692 27.7319C60.524 27.6479 60.292 27.6479 60.192 27.5599C60.046 27.5726 59.8993 27.5449 59.768 27.4799H58.352C58.2524 27.5441 58.1338 27.5723 58.016 27.5599C57.768 27.6479 57.616 27.6479 57.516 27.7319C57.352 27.7319 57.268 27.8119 57.18 27.9799C57.0004 27.9852 56.8264 28.0437 56.68 28.1479C56.6 28.2319 56.432 28.3159 56.344 28.3959C56.2391 28.5183 56.0997 28.6062 55.944 28.6479C55.8838 28.7749 55.7996 28.889 55.696 28.9839C55.612 29.0679 55.612 29.1479 55.528 29.1479L24.572 67.5519C23.8371 68.4316 23.4688 69.5602 23.5433 70.7039C23.6177 71.8477 24.1293 72.919 24.972 73.6959C25.0681 73.8114 25.1738 73.9184 25.288 74.0159C25.3866 74.1292 25.4935 74.2348 25.608 74.3319C25.7051 74.4464 25.8108 74.5534 25.924 74.6519C26.0226 74.7652 26.1295 74.8708 26.244 74.9679C26.3401 75.0833 26.4458 75.1904 26.56 75.2879C26.6585 75.4025 26.7655 75.5094 26.88 75.6079C26.9775 75.7221 27.0846 75.8278 27.2 75.9239C27.2961 76.0394 27.4018 76.1464 27.516 76.2439C27.6146 76.3572 27.7215 76.4628 27.836 76.5599C28.0328 76.7823 28.2512 76.9847 28.488 77.1639C29.2732 77.8461 30.2886 78.2037 31.328 78.1639H54.456V81.3319C54.4483 81.9763 54.5774 82.615 54.8345 83.2059C55.0917 83.7968 55.4712 84.3264 55.948 84.7599C56.044 84.8679 56.144 84.9679 56.252 85.0679C56.352 85.1759 56.456 85.2799 56.564 85.3759C56.66 85.4839 56.764 85.5839 56.868 85.6839C56.968 85.7919 57.072 85.8959 57.18 85.9919C57.276 86.0999 57.38 86.1999 57.484 86.2999C57.5819 86.4086 57.6861 86.5114 57.796 86.6079C57.892 86.7119 57.996 86.8159 58.1 86.9119C58.1965 87.0218 58.2994 87.126 58.408 87.2239C58.508 87.3279 58.608 87.4319 58.716 87.5279C59.3458 88.2068 60.1652 88.6806 61.0679 88.8877C61.9705 89.0947 62.9145 89.0256 63.7772 88.6891C64.64 88.3526 65.3816 87.7644 65.9057 87.0009C66.4298 86.2374 66.7121 85.334 66.716 84.4079V78.1639H67.552C68.4866 78.186 69.4055 77.9207 70.1846 77.404C70.9637 76.8872 71.5655 76.1438 71.9087 75.2742C72.2519 74.4046 72.3201 73.4506 72.1039 72.5411C71.8878 71.6315 71.3977 70.8102 70.7 70.1879H70.824ZM54.472 52.2999V65.7999H43.6L54.472 52.2999Z" fill="#B8B8FF"/>
<path opacity="0.1" d="M70.824 70.1879C70.7247 70.0767 70.6192 69.9712 70.508 69.8719C70.4101 69.762 70.3059 69.6579 70.196 69.5599C70.0978 69.4477 69.9922 69.3422 69.88 69.2439C69.7818 69.1317 69.6762 69.0261 69.564 68.9279C69.4661 68.818 69.3619 68.7139 69.252 68.6159C69.1527 68.5047 69.0472 68.3992 68.936 68.2999C68.8381 68.19 68.7339 68.0859 68.624 67.9879C68.5247 67.8767 68.4192 67.7712 68.308 67.6719C68.2101 67.562 68.1059 67.4579 67.996 67.3599C67.6734 67.0044 67.2968 66.7021 66.88 66.4639V34.9839C66.88 34.8199 66.796 34.7359 66.796 34.5839C66.8167 34.4127 66.7875 34.239 66.712 34.0839C66.712 33.9999 66.632 33.8319 66.632 33.7479C66.5889 33.5772 66.5327 33.41 66.464 33.2479C66.3739 33.1565 66.3151 33.0389 66.296 32.9119C66.2013 32.7649 66.0884 32.6305 65.96 32.5119C65.876 32.4279 65.796 32.2639 65.712 32.1759L65.376 31.8439C65.376 31.7919 65.312 31.7399 65.24 31.7079L65.076 31.5399H65.056C65.056 31.4879 64.992 31.4399 64.92 31.4039L64.756 31.2399C64.756 31.1879 64.692 31.1359 64.62 31.1039L64.4 30.8679C64.4 30.8159 64.336 30.7639 64.264 30.7319L64.1 30.5679C64.1 30.5199 64.036 30.4679 63.964 30.4319L63.796 30.2679C63.796 30.2159 63.732 30.1639 63.66 30.1319L63.496 29.9639C63.496 29.9159 63.432 29.8639 63.36 29.8279L63.192 29.6639C63.192 29.6119 63.128 29.5599 63.056 29.5279L62.8 29.2679C62.8 29.2159 62.736 29.1679 62.664 29.1319L62.5 28.9679C62.5 28.9159 62.436 28.8639 62.364 28.8319L62.18 28.6479C62.18 28.5679 62.016 28.4839 61.932 28.4839C61.9331 28.4728 61.9319 28.4615 61.9284 28.4509C61.9248 28.4402 61.9191 28.4304 61.9116 28.4221C61.904 28.4138 61.8948 28.4072 61.8846 28.4027C61.8743 28.3982 61.8632 28.3959 61.852 28.3959C61.68 28.3159 61.596 28.2319 61.428 28.1479C61.344 28.0639 61.18 27.9799 61.028 27.8119C60.94 27.8119 60.776 27.7319 60.692 27.7319C60.524 27.6479 60.292 27.6479 60.192 27.5599C60.046 27.5726 59.8993 27.5449 59.768 27.4799H58.352C58.2524 27.5441 58.1338 27.5723 58.016 27.5599C57.768 27.6479 57.616 27.6479 57.516 27.7319C57.352 27.7319 57.268 27.8119 57.18 27.9799C57.0004 27.9852 56.8264 28.0437 56.68 28.1479C56.6 28.2319 56.432 28.3159 56.344 28.3959C56.2391 28.5183 56.0997 28.6062 55.944 28.6479C55.8838 28.7749 55.7996 28.889 55.696 28.9839C55.612 29.0679 55.612 29.1479 55.528 29.1479L24.572 67.5519C23.8371 68.4316 23.4688 69.5602 23.5433 70.7039C23.6177 71.8477 24.1293 72.919 24.972 73.6959C25.0681 73.8114 25.1738 73.9184 25.288 74.0159C25.3866 74.1292 25.4935 74.2348 25.608 74.3319C25.7051 74.4464 25.8108 74.5534 25.924 74.6519C26.0226 74.7652 26.1295 74.8708 26.244 74.9679C26.3401 75.0833 26.4458 75.1904 26.56 75.2879C26.6585 75.4025 26.7655 75.5094 26.88 75.6079C26.9775 75.7221 27.0846 75.8278 27.2 75.9239C27.2961 76.0394 27.4018 76.1464 27.516 76.2439C27.6146 76.3572 27.7215 76.4628 27.836 76.5599C28.0328 76.7823 28.2512 76.9847 28.488 77.1639C29.2732 77.8461 30.2886 78.2037 31.328 78.1639H54.456V81.3319C54.4483 81.9763 54.5774 82.615 54.8345 83.2059C55.0917 83.7968 55.4712 84.3264 55.948 84.7599C56.044 84.8679 56.144 84.9679 56.252 85.0679C56.352 85.1759 56.456 85.2799 56.564 85.3759C56.66 85.4839 56.764 85.5839 56.868 85.6839C56.968 85.7919 57.072 85.8959 57.18 85.9919C57.276 86.0999 57.38 86.1999 57.484 86.2999C57.5819 86.4086 57.6861 86.5114 57.796 86.6079C57.892 86.7119 57.996 86.8159 58.1 86.9119C58.1965 87.0218 58.2994 87.126 58.408 87.2239C58.508 87.3279 58.608 87.4319 58.716 87.5279C59.3458 88.2068 60.1652 88.6806 61.0679 88.8877C61.9705 89.0947 62.9145 89.0256 63.7772 88.6891C64.64 88.3526 65.3816 87.7644 65.9057 87.0009C66.4298 86.2374 66.7121 85.334 66.716 84.4079V78.1639H67.552C68.4866 78.186 69.4055 77.9207 70.1846 77.404C70.9637 76.8872 71.5655 76.1438 71.9087 75.2742C72.2519 74.4046 72.3201 73.4506 72.1039 72.5411C71.8878 71.6315 71.3977 70.8102 70.7 70.1879H70.824ZM54.472 52.2999V65.7999H43.6L54.472 52.2999Z" fill="black"/>
<path d="M69.168 70.3919C69.167 71.0018 69.0448 71.6054 68.8084 72.1676C68.572 72.7297 68.2262 73.2393 67.7911 73.6666C67.3559 74.0939 66.8402 74.4304 66.2738 74.6566C65.7075 74.8827 65.1018 74.994 64.492 74.9839H63.656V81.3319C63.656 82.5519 63.1713 83.722 62.3087 84.5846C61.446 85.4473 60.276 85.9319 59.056 85.9319C57.836 85.9319 56.666 85.4473 55.8033 84.5846C54.9406 83.722 54.456 82.5519 54.456 81.3319V74.9839H28.16C27.1202 75.0222 26.1048 74.6632 25.32 73.9799C24.8362 73.6164 24.4312 73.1583 24.1298 72.6336C23.8283 72.1088 23.6366 71.5282 23.5663 70.9271C23.496 70.326 23.5485 69.7169 23.7207 69.1367C23.8929 68.5565 24.1811 68.0174 24.568 67.5519L55.472 29.1279C55.556 29.1279 55.556 29.0479 55.64 28.9639C55.7437 28.8682 55.8291 28.7543 55.892 28.6279C56.0449 28.582 56.1829 28.4965 56.292 28.3799C56.376 28.2959 56.544 28.2119 56.624 28.1279C56.7713 28.0225 56.9469 27.964 57.128 27.9599C57.208 27.7919 57.292 27.7119 57.46 27.7119C57.544 27.6279 57.712 27.6279 57.964 27.5439C58.0811 27.5559 58.1987 27.5262 58.296 27.4599H59.716C59.839 27.5243 59.9775 27.5534 60.116 27.5439C60.2 27.6279 60.452 27.6279 60.62 27.7119C60.704 27.7119 60.868 27.7919 60.952 27.7919C61.12 27.9599 61.288 28.0439 61.352 28.1279C61.52 28.2119 61.604 28.2959 61.772 28.3799C61.7943 28.3799 61.8156 28.3888 61.8314 28.4045C61.8471 28.4203 61.856 28.4417 61.856 28.4639C61.94 28.4639 62.108 28.5439 62.108 28.6279L62.44 28.9639C62.524 29.0479 62.608 29.2119 62.692 29.2959C62.8184 29.4228 62.9298 29.5637 63.024 29.7159C63.0452 29.841 63.1037 29.9568 63.192 30.0479C63.2607 30.2114 63.3168 30.3799 63.36 30.5519C63.36 30.6319 63.44 30.7999 63.44 30.8839C63.5153 31.0391 63.5445 31.2127 63.524 31.3839C63.524 31.5519 63.608 31.6359 63.608 31.7839V65.7839H64.444C65.0572 65.7744 65.6663 65.8863 66.2362 66.113C66.8061 66.3398 67.3255 66.677 67.7645 67.1053C68.2036 67.5336 68.5536 68.0444 68.7944 68.6085C69.0353 69.1725 69.1623 69.7786 69.168 70.3919ZM54.472 45.1679L37.848 65.7959H54.472V45.1679Z" fill="#B8B8FF"/>
<path d="M118.028 39.9119C117.087 38.4714 115.991 37.1382 114.76 35.9359C114.716 35.8853 114.668 35.8385 114.616 35.7959C114.603 35.7793 114.589 35.7645 114.572 35.7519C114.535 35.71 114.497 35.67 114.456 35.6319C114.348 35.5159 114.236 35.4079 114.124 35.2999L114.096 35.2719L113.98 35.1599C113.967 35.1433 113.953 35.1285 113.936 35.1159L113.82 34.9919C113.712 34.8799 113.596 34.7719 113.488 34.6639C113.48 34.6516 113.469 34.6418 113.456 34.6359L113.344 34.5239C113.331 34.5073 113.317 34.4925 113.3 34.4799C113.263 34.4357 113.223 34.3943 113.18 34.3559C113.076 34.2439 112.96 34.1359 112.852 34.0239L112.82 33.9999L112.708 33.8839L112.664 33.8439C112.624 33.7999 112.588 33.7599 112.544 33.7199C112.44 33.6039 112.324 33.4999 112.216 33.3879L112.184 33.3639C112.149 33.3214 112.111 33.2825 112.068 33.2479C112.056 33.2336 112.042 33.2203 112.028 33.2079C108.676 29.7479 104.3 27.4599 99.3921 27.4599C92.7961 27.4599 87.3681 31.3879 83.8561 36.7279C80.1841 42.0759 78.2561 49.0119 78.1801 56.6919C78.2641 64.2919 80.1801 71.3079 83.8561 76.6559C84.7976 78.07 85.882 79.3836 87.0921 80.576L87.2561 80.7359C87.2608 80.7384 87.2651 80.7418 87.2685 80.7459C87.2719 80.75 87.2745 80.7548 87.2761 80.7599L87.5761 81.0559C87.6241 81.1119 87.6761 81.16 87.7281 81.2119L87.8921 81.3719L87.9161 81.3959L88.2121 81.6919L88.3641 81.8479C88.4201 81.9039 88.4761 81.9559 88.5281 82.0119C88.5359 82.0095 88.5442 82.0095 88.5521 82.0119L88.8481 82.3079C88.9001 82.3639 88.9481 82.416 89.0001 82.464L89.1681 82.6279C89.1766 82.6324 89.1835 82.6394 89.1881 82.6479L89.4841 82.9439L89.6361 83.0999L89.8041 83.264C89.8126 83.2685 89.8195 83.2754 89.8241 83.2839C89.9201 83.3879 90.0241 83.4839 90.1201 83.5799C93.4241 86.8799 97.6801 89.0879 102.576 89.0879C109.004 89.0879 114.52 85.0879 118.028 79.8159C121.628 74.4719 123.628 67.4559 123.628 59.8559C123.624 52.1919 121.62 45.2679 118.028 39.9119ZM107.16 71.4759C104.736 75.0759 101.984 76.6559 99.3921 76.6559C97.8037 76.6189 96.2661 76.0891 94.9921 75.1399C94.8761 74.9879 94.7601 74.8239 94.6441 74.6599C92.3081 71.1519 90.6441 65.8079 90.6441 59.8599C90.6441 53.8599 92.3161 48.5839 94.6441 44.9919C97.1521 41.4839 99.9921 39.8159 102.58 39.8959C104.088 39.8884 105.557 40.3698 106.768 41.2679C106.9 41.4439 107.032 41.6239 107.168 41.8079C109.508 45.4079 111.168 50.6639 111.168 56.6759C111.172 62.6239 109.5 67.9679 107.16 71.4759Z" fill="#B8B8FF"/>
<path opacity="0.1" d="M118.028 39.9119C117.087 38.4714 115.991 37.1382 114.76 35.9359C114.716 35.8853 114.668 35.8385 114.616 35.7959C114.603 35.7793 114.589 35.7645 114.572 35.7519C114.535 35.71 114.497 35.67 114.456 35.6319C114.348 35.5159 114.236 35.4079 114.124 35.2999L114.096 35.2719L113.98 35.1599C113.967 35.1433 113.953 35.1285 113.936 35.1159L113.82 34.9919C113.712 34.8799 113.596 34.7719 113.488 34.6639C113.48 34.6516 113.469 34.6418 113.456 34.6359L113.344 34.5239C113.331 34.5073 113.317 34.4925 113.3 34.4799C113.263 34.4357 113.223 34.3943 113.18 34.3559C113.076 34.2439 112.96 34.1359 112.852 34.0239L112.82 33.9999L112.708 33.8839L112.664 33.8439C112.624 33.7999 112.588 33.7599 112.544 33.7199C112.44 33.6039 112.324 33.4999 112.216 33.3879L112.184 33.3639C112.149 33.3214 112.111 33.2825 112.068 33.2479C112.056 33.2336 112.042 33.2203 112.028 33.2079C108.676 29.7479 104.3 27.4599 99.3921 27.4599C92.7961 27.4599 87.3681 31.3879 83.8561 36.7279C80.1841 42.0759 78.2561 49.0119 78.1801 56.6919C78.2641 64.2919 80.1801 71.3079 83.8561 76.6559C84.7976 78.07 85.882 79.3836 87.0921 80.576L87.2561 80.7359C87.2608 80.7384 87.2651 80.7418 87.2685 80.7459C87.2719 80.75 87.2745 80.7548 87.2761 80.7599L87.5761 81.0559C87.6241 81.1119 87.6761 81.16 87.7281 81.2119L87.8921 81.3719L87.9161 81.3959L88.2121 81.6919L88.3641 81.8479C88.4201 81.9039 88.4761 81.9559 88.5281 82.0119C88.5359 82.0095 88.5442 82.0095 88.5521 82.0119L88.8481 82.3079C88.9001 82.3639 88.9481 82.416 89.0001 82.464L89.1681 82.6279C89.1766 82.6324 89.1835 82.6394 89.1881 82.6479L89.4841 82.9439L89.6361 83.0999L89.8041 83.264C89.8126 83.2685 89.8195 83.2754 89.8241 83.2839C89.9201 83.3879 90.0241 83.4839 90.1201 83.5799C93.4241 86.8799 97.6801 89.0879 102.576 89.0879C109.004 89.0879 114.52 85.0879 118.028 79.8159C121.628 74.4719 123.628 67.4559 123.628 59.8559C123.624 52.1919 121.62 45.2679 118.028 39.9119ZM107.16 71.4759C104.736 75.0759 101.984 76.6559 99.3921 76.6559C97.8037 76.6189 96.2661 76.0891 94.9921 75.1399C94.8761 74.9879 94.7601 74.8239 94.6441 74.6599C92.3081 71.1519 90.6441 65.8079 90.6441 59.8599C90.6441 53.8599 92.3161 48.5839 94.6441 44.9919C97.1521 41.4839 99.9921 39.8159 102.58 39.8959C104.088 39.8884 105.557 40.3698 106.768 41.2679C106.9 41.4439 107.032 41.6239 107.168 41.8079C109.508 45.4079 111.168 50.6639 111.168 56.6759C111.172 62.6239 109.5 67.9679 107.16 71.4759Z" fill="black"/>
<path d="M78.1801 56.6919C78.2641 49.0079 80.1801 42.0759 83.8601 36.7319C87.3641 31.3839 92.7961 27.4599 99.3921 27.4599C105.824 27.4599 111.336 31.3839 114.848 36.7319C118.448 42.0759 120.448 49.0079 120.448 56.6919C120.448 64.2919 118.448 71.3079 114.848 76.6559C111.336 81.9159 105.824 85.9239 99.3921 85.9239C92.7961 85.9239 87.3641 81.9239 83.8601 76.6559C80.1841 71.3079 78.2641 64.2919 78.1801 56.6919ZM111.168 56.6919C111.168 50.6919 109.5 45.4159 107.168 41.8239C104.768 38.3159 101.992 36.6479 99.4001 36.7319C96.8121 36.6479 93.9721 38.3319 91.4681 41.8239C89.1281 45.4239 87.4681 50.6799 87.4681 56.6919C87.4681 62.6239 89.1401 67.9679 91.4681 71.4919C93.9721 75.0919 96.8121 76.6719 99.4001 76.6719C101.988 76.6719 104.748 75.0719 107.168 71.4919C109.5 67.9679 111.168 62.6239 111.168 56.6919Z" fill="#B8B8FF"/>
<path d="M174.932 70.1879C174.828 70.0759 174.724 69.9719 174.616 69.8719C174.516 69.7639 174.408 69.6559 174.304 69.5599C174.2 69.4479 174.096 69.3399 173.988 69.2439C173.888 69.1319 173.78 69.0279 173.676 68.9279C173.572 68.8199 173.468 68.7119 173.36 68.6159C173.256 68.5039 173.152 68.3999 173.044 68.2999C172.944 68.1919 172.836 68.0839 172.732 67.9879C172.628 67.8759 172.524 67.7719 172.416 67.6719C172.316 67.5639 172.208 67.4559 172.104 67.3599C171.781 67.0032 171.403 66.7007 170.984 66.4639V34.9839C170.984 34.8199 170.9 34.7359 170.9 34.5839C170.921 34.4127 170.892 34.239 170.816 34.0839C170.816 33.9999 170.736 33.8319 170.736 33.7479C170.693 33.5772 170.637 33.41 170.568 33.2479C170.479 33.1554 170.421 33.0383 170.4 32.9119C170.307 32.764 170.194 32.6294 170.064 32.5119C169.98 32.4279 169.9 32.2639 169.816 32.1759L169.48 31.8439C169.48 31.7919 169.416 31.7399 169.344 31.7079L169.18 31.5399H169.16C169.16 31.4879 169.1 31.4399 169.024 31.4039L168.86 31.2399C168.86 31.1879 168.796 31.1359 168.724 31.1039L168.56 30.9359H168.54C168.54 30.8839 168.476 30.8319 168.404 30.7999L168.24 30.6359C168.24 30.5879 168.176 30.5359 168.104 30.4999L167.936 30.3359C167.936 30.2839 167.872 30.2319 167.8 30.1999L167.636 30.0319C167.636 29.9839 167.572 29.9319 167.5 29.8959L167.332 29.7319C167.332 29.6799 167.268 29.6279 167.196 29.5959L167.032 29.4279C167.032 29.3759 166.972 29.3279 166.896 29.2919L166.732 29.1279C166.732 29.0759 166.668 29.0239 166.596 28.9919L166.412 28.8079C166.412 28.7279 166.248 28.6439 166.164 28.6439C166.164 28.6206 166.155 28.5982 166.138 28.5817C166.122 28.5652 166.099 28.5559 166.076 28.5559C165.912 28.4759 165.828 28.3919 165.676 28.3079C165.537 28.2026 165.404 28.0905 165.276 27.9719C165.188 27.9719 165.024 27.8919 164.94 27.8919C164.772 27.8079 164.54 27.8079 164.44 27.7199C164.294 27.7326 164.147 27.7049 164.016 27.6399H162.4C162.3 27.7041 162.182 27.7323 162.064 27.7199C161.816 27.8079 161.664 27.8079 161.564 27.8919C161.4 27.8919 161.316 27.9719 161.228 28.1399C161.049 28.1459 160.875 28.2043 160.728 28.3079C160.648 28.3919 160.48 28.4759 160.396 28.5559C160.29 28.6767 160.151 28.7642 159.996 28.8079C159.934 28.9341 159.85 29.0479 159.748 29.1439C159.664 29.2279 159.664 29.3079 159.58 29.3079L128.68 67.7319C127.945 68.6116 127.577 69.7402 127.651 70.8839C127.726 72.0277 128.237 73.099 129.08 73.8759C129.399 74.1926 129.717 74.5113 130.032 74.8319C130.131 74.9452 130.238 75.0508 130.352 75.1479C130.448 75.2633 130.554 75.3704 130.668 75.4679C130.767 75.5825 130.873 75.6894 130.988 75.7879C131.086 75.9021 131.193 76.0078 131.308 76.1039C131.517 76.3186 131.729 76.5306 131.944 76.7399C132.141 76.9623 132.359 77.1647 132.596 77.3439C133.381 78.0261 134.397 78.3837 135.436 78.3439H158.564V81.5119C158.557 82.1562 158.686 82.7948 158.943 83.3856C159.2 83.9764 159.58 84.5061 160.056 84.9399C160.153 85.0498 160.255 85.154 160.364 85.2519C160.464 85.3559 160.564 85.4599 160.672 85.5559C160.768 85.6679 160.876 85.7679 160.98 85.8679C161.08 85.9719 161.18 86.0759 161.288 86.1719C161.384 86.2839 161.492 86.3839 161.596 86.4839C161.696 86.5919 161.796 86.6919 161.904 86.7879C162 86.8959 162.108 86.9999 162.212 87.0959C162.308 87.2039 162.408 87.3039 162.516 87.4039C162.616 87.5119 162.72 87.6159 162.828 87.7119C163.458 88.3911 164.278 88.8649 165.181 89.0719C166.084 89.2788 167.028 89.2093 167.891 88.8723C168.754 88.5354 169.496 87.9465 170.019 87.1824C170.543 86.4183 170.825 85.5143 170.828 84.5879V78.1639H171.664C172.599 78.1868 173.518 77.9222 174.298 77.4057C175.078 76.8893 175.68 76.146 176.024 75.2762C176.368 74.4064 176.436 73.452 176.22 72.5421C176.004 71.6321 175.514 70.8104 174.816 70.1879H174.932ZM158.576 52.2999V65.7999H147.7L158.576 52.2999Z" fill="#B8B8FF"/>
<path opacity="0.1" d="M174.932 70.1879C174.828 70.0759 174.724 69.9719 174.616 69.8719C174.516 69.7639 174.408 69.6559 174.304 69.5599C174.2 69.4479 174.096 69.3399 173.988 69.2439C173.888 69.1319 173.78 69.0279 173.676 68.9279C173.572 68.8199 173.468 68.7119 173.36 68.6159C173.256 68.5039 173.152 68.3999 173.044 68.2999C172.944 68.1919 172.836 68.0839 172.732 67.9879C172.628 67.8759 172.524 67.7719 172.416 67.6719C172.316 67.5639 172.208 67.4559 172.104 67.3599C171.781 67.0032 171.403 66.7007 170.984 66.4639V34.9839C170.984 34.8199 170.9 34.7359 170.9 34.5839C170.921 34.4127 170.892 34.239 170.816 34.0839C170.816 33.9999 170.736 33.8319 170.736 33.7479C170.693 33.5772 170.637 33.41 170.568 33.2479C170.479 33.1554 170.421 33.0383 170.4 32.9119C170.307 32.764 170.194 32.6294 170.064 32.5119C169.98 32.4279 169.9 32.2639 169.816 32.1759L169.48 31.8439C169.48 31.7919 169.416 31.7399 169.344 31.7079L169.18 31.5399H169.16C169.16 31.4879 169.1 31.4399 169.024 31.4039L168.86 31.2399C168.86 31.1879 168.796 31.1359 168.724 31.1039L168.56 30.9359H168.54C168.54 30.8839 168.476 30.8319 168.404 30.7999L168.24 30.6359C168.24 30.5879 168.176 30.5359 168.104 30.4999L167.936 30.3359C167.936 30.2839 167.872 30.2319 167.8 30.1999L167.636 30.0319C167.636 29.9839 167.572 29.9319 167.5 29.8959L167.332 29.7319C167.332 29.6799 167.268 29.6279 167.196 29.5959L167.032 29.4279C167.032 29.3759 166.972 29.3279 166.896 29.2919L166.732 29.1279C166.732 29.0759 166.668 29.0239 166.596 28.9919L166.412 28.8079C166.412 28.7279 166.248 28.6439 166.164 28.6439C166.164 28.6206 166.155 28.5982 166.138 28.5817C166.122 28.5652 166.099 28.5559 166.076 28.5559C165.912 28.4759 165.828 28.3919 165.676 28.3079C165.537 28.2026 165.404 28.0905 165.276 27.9719C165.188 27.9719 165.024 27.8919 164.94 27.8919C164.772 27.8079 164.54 27.8079 164.44 27.7199C164.294 27.7326 164.147 27.7049 164.016 27.6399H162.4C162.3 27.7041 162.182 27.7323 162.064 27.7199C161.816 27.8079 161.664 27.8079 161.564 27.8919C161.4 27.8919 161.316 27.9719 161.228 28.1399C161.049 28.1459 160.875 28.2043 160.728 28.3079C160.648 28.3919 160.48 28.4759 160.396 28.5559C160.29 28.6767 160.151 28.7642 159.996 28.8079C159.934 28.9341 159.85 29.0479 159.748 29.1439C159.664 29.2279 159.664 29.3079 159.58 29.3079L128.68 67.7319C127.945 68.6116 127.577 69.7402 127.651 70.8839C127.726 72.0277 128.237 73.099 129.08 73.8759C129.399 74.1926 129.717 74.5113 130.032 74.8319C130.131 74.9452 130.238 75.0508 130.352 75.1479C130.448 75.2633 130.554 75.3704 130.668 75.4679C130.767 75.5825 130.873 75.6894 130.988 75.7879C131.086 75.9021 131.193 76.0078 131.308 76.1039C131.517 76.3186 131.729 76.5306 131.944 76.7399C132.141 76.9623 132.359 77.1647 132.596 77.3439C133.381 78.0261 134.397 78.3837 135.436 78.3439H158.564V81.5119C158.557 82.1562 158.686 82.7948 158.943 83.3856C159.2 83.9764 159.58 84.5061 160.056 84.9399C160.153 85.0498 160.255 85.154 160.364 85.2519C160.464 85.3559 160.564 85.4599 160.672 85.5559C160.768 85.6679 160.876 85.7679 160.98 85.8679C161.08 85.9719 161.18 86.0759 161.288 86.1719C161.384 86.2839 161.492 86.3839 161.596 86.4839C161.696 86.5919 161.796 86.6919 161.904 86.7879C162 86.8959 162.108 86.9999 162.212 87.0959C162.308 87.2039 162.408 87.3039 162.516 87.4039C162.616 87.5119 162.72 87.6159 162.828 87.7119C163.458 88.3911 164.278 88.8649 165.181 89.0719C166.084 89.2788 167.028 89.2093 167.891 88.8723C168.754 88.5354 169.496 87.9465 170.019 87.1824C170.543 86.4183 170.825 85.5143 170.828 84.5879V78.1639H171.664C172.599 78.1868 173.518 77.9222 174.298 77.4057C175.078 76.8893 175.68 76.146 176.024 75.2762C176.368 74.4064 176.436 73.452 176.22 72.5421C176.004 71.6321 175.514 70.8104 174.816 70.1879H174.932ZM158.576 52.2999V65.7999H147.7L158.576 52.2999Z" fill="black"/>
<path d="M173.276 70.3919C173.275 71.0021 173.153 71.6061 172.916 72.1685C172.679 72.7309 172.333 73.2407 171.898 73.6681C171.462 74.0954 170.946 74.4319 170.379 74.6578C169.812 74.8837 169.206 74.9946 168.596 74.9839H167.76V81.3319C167.76 82.5519 167.275 83.722 166.413 84.5846C165.55 85.4473 164.38 85.9319 163.16 85.9319C161.94 85.9319 160.77 85.4473 159.907 84.5846C159.045 83.722 158.56 82.5519 158.56 81.3319V74.9839H132.264C131.224 75.0222 130.209 74.6632 129.424 73.9799C128.94 73.6164 128.535 73.1583 128.234 72.6336C127.932 72.1088 127.741 71.5282 127.67 70.9271C127.6 70.326 127.652 69.7169 127.825 69.1367C127.997 68.5565 128.285 68.0174 128.672 67.5519L159.576 29.1279C159.66 29.1279 159.66 29.0479 159.744 28.9639C159.848 28.8682 159.933 28.7543 159.996 28.6279C160.149 28.582 160.287 28.4965 160.396 28.3799C160.48 28.2959 160.648 28.2119 160.732 28.1279C160.877 28.0219 161.052 27.9632 161.232 27.9599C161.312 27.7919 161.396 27.7119 161.564 27.7119C161.648 27.6279 161.816 27.6279 162.068 27.5439C162.185 27.5559 162.303 27.5262 162.4 27.4599H163.82C163.943 27.5243 164.081 27.5534 164.22 27.5439C164.304 27.6279 164.556 27.6279 164.724 27.7119C164.808 27.7119 164.976 27.7919 165.056 27.7919C165.224 27.9599 165.392 28.0439 165.456 28.1279C165.624 28.2119 165.708 28.2959 165.876 28.3799C165.89 28.3721 165.906 28.3684 165.922 28.3692C165.938 28.37 165.953 28.3753 165.966 28.3846C165.979 28.3938 165.989 28.4065 165.995 28.4213C166.001 28.4361 166.003 28.4522 166 28.4679C166.084 28.4679 166.252 28.5479 166.252 28.6319L166.584 28.9679C166.668 29.0519 166.752 29.2159 166.836 29.2999C166.964 29.4257 167.075 29.5668 167.168 29.7199C167.189 29.845 167.248 29.9608 167.336 30.0519C167.405 30.2155 167.461 30.3839 167.504 30.5559C167.504 30.6359 167.584 30.8039 167.584 30.8879C167.659 31.0431 167.689 31.2167 167.668 31.3879C167.668 31.5559 167.752 31.6399 167.752 31.7879V65.7879H168.588C169.82 65.7783 171.005 66.2577 171.884 67.1207C172.763 67.9838 173.263 69.1602 173.276 70.3919ZM158.576 45.1679L141.952 65.7959H158.576V45.1679Z" fill="#B8B8FF"/>
<path opacity="0.2" d="M102.652 156.916C105 156.916 106.904 155.012 106.904 152.664C106.904 150.316 105 148.412 102.652 148.412C100.304 148.412 98.4 150.316 98.4 152.664C98.4 155.012 100.304 156.916 102.652 156.916Z" fill="#B8B8FF"/>
<path opacity="0.2" d="M102.652 156.896C104.455 156.896 105.916 155.435 105.916 153.632C105.916 151.829 104.455 150.368 102.652 150.368C100.849 150.368 99.3879 151.829 99.3879 153.632C99.3879 155.435 100.849 156.896 102.652 156.896Z" fill="#B8B8FF"/>
<path d="M102.944 156.888C102.944 156.888 100.348 156.508 100.196 156.608C100.044 156.708 99.896 157.464 100.196 157.648C100.496 157.832 102.884 157.5 102.884 157.5C102.964 157.421 103.014 157.317 103.025 157.205C103.036 157.093 103.007 156.981 102.944 156.888Z" fill="#B8B8FF"/>
<path opacity="0.49" d="M102.944 156.888C102.944 156.888 100.348 156.508 100.196 156.608C100.044 156.708 99.896 157.464 100.196 157.648C100.496 157.832 102.884 157.5 102.884 157.5C102.964 157.421 103.014 157.317 103.025 157.205C103.036 157.093 103.007 156.981 102.944 156.888Z" fill="black"/>
<path opacity="0.2" d="M100.208 156.64C100.284 156.62 100.412 156.88 100.384 157.168C100.356 157.456 100.252 157.628 100.208 157.624C100.164 157.62 100.02 157.456 100.044 157.1C100.064 156.844 100.14 156.652 100.208 156.64Z" fill="white"/>
<g opacity="0.2">
<path d="M100.48 156.712C100.629 156.702 100.779 156.702 100.928 156.712L101.152 156.732L101.264 156.752C101.299 156.764 101.335 156.772 101.372 156.776C101.516 156.8 101.662 156.816 101.808 156.824L102.256 156.864C102.107 156.872 101.957 156.872 101.808 156.864C101.657 156.865 101.506 156.855 101.356 156.832C101.319 156.827 101.283 156.817 101.248 156.804L101.14 156.784L100.924 156.752L100.48 156.712Z" fill="black"/>
<path d="M100.772 156.868L101.088 156.92C101.192 156.94 101.296 156.964 101.396 156.976C101.5 156.982 101.604 156.982 101.708 156.976H102.024C101.921 157.003 101.817 157.025 101.712 157.04C101.604 157.052 101.496 157.052 101.388 157.04C101.283 157.023 101.178 156.999 101.076 156.968C100.972 156.942 100.871 156.909 100.772 156.868Z" fill="black"/>
<path d="M102.048 157.092C102.184 156.991 102.347 156.931 102.516 156.92C102.602 156.915 102.689 156.93 102.768 156.964C102.812 156.98 102.852 157.006 102.884 157.04C102.901 157.058 102.915 157.08 102.924 157.104C102.926 157.113 102.926 157.123 102.924 157.132C102.918 157.144 102.91 157.155 102.9 157.164C102.837 157.23 102.754 157.273 102.664 157.288C102.619 157.3 102.573 157.3 102.528 157.288L102.4 157.268C102.364 157.24 102.324 157.22 102.304 157.168C102.3 157.161 102.298 157.152 102.298 157.144C102.298 157.136 102.3 157.127 102.304 157.12C102.307 157.113 102.311 157.107 102.317 157.103C102.322 157.098 102.329 157.094 102.336 157.092H102.4C102.442 157.086 102.486 157.086 102.528 157.092C102.569 157.095 102.61 157.109 102.644 157.132C102.567 157.106 102.485 157.106 102.408 157.132H102.352C102.352 157.132 102.352 157.132 102.352 157.156C102.352 157.18 102.4 157.204 102.432 157.22C102.466 157.238 102.503 157.253 102.54 157.264C102.575 157.274 102.613 157.274 102.648 157.264C102.722 157.247 102.79 157.21 102.844 157.156C102.838 157.143 102.83 157.131 102.82 157.12C102.794 157.092 102.763 157.07 102.728 157.056C102.657 157.026 102.581 157.01 102.504 157.008C102.423 157.007 102.342 157.018 102.264 157.04C102.191 157.051 102.118 157.069 102.048 157.092Z" fill="black"/>
<path d="M102.912 157.344C102.811 157.397 102.701 157.432 102.588 157.448C102.531 157.454 102.473 157.454 102.416 157.448C102.357 157.439 102.3 157.425 102.244 157.404C102.14 157.364 102.039 157.314 101.944 157.256C101.845 157.206 101.74 157.169 101.632 157.148C101.746 157.14 101.86 157.16 101.964 157.208C102.072 157.248 102.168 157.3 102.268 157.336C102.369 157.374 102.476 157.392 102.584 157.388C102.695 157.385 102.804 157.37 102.912 157.344Z" fill="black"/>
<path d="M100.4 157.564H100.8C100.933 157.572 101.067 157.572 101.2 157.564C101.332 157.54 101.466 157.532 101.6 157.54C101.732 157.54 101.864 157.564 102 157.584H101.6C101.466 157.585 101.332 157.597 101.2 157.62C101.067 157.635 100.933 157.635 100.8 157.62C100.666 157.609 100.532 157.591 100.4 157.564Z" fill="black"/>
<path d="M102.184 157.48L101.852 157.4L101.684 157.368C101.631 157.358 101.577 157.358 101.524 157.368L101.188 157.436L101.016 157.456C100.956 157.466 100.896 157.466 100.836 157.456C100.779 157.444 100.723 157.428 100.668 157.408C100.609 157.388 100.554 157.355 100.508 157.312C100.498 157.296 100.49 157.278 100.484 157.26C100.476 157.239 100.476 157.217 100.484 157.196C100.503 157.164 100.533 157.142 100.568 157.132C100.625 157.112 100.684 157.101 100.744 157.1C100.803 157.096 100.861 157.096 100.92 157.1C100.98 157.107 101.037 157.128 101.088 157.16C101.096 157.164 101.103 157.171 101.109 157.178C101.114 157.186 101.118 157.195 101.12 157.204C101.12 157.232 101.092 157.24 101.08 157.248H100.996C100.939 157.254 100.881 157.254 100.824 157.248L100.992 157.228C101.04 157.228 101.128 157.192 101.068 157.168C101.02 157.142 100.967 157.128 100.912 157.128C100.858 157.122 100.803 157.122 100.748 157.128C100.694 157.132 100.64 157.143 100.588 157.16C100.568 157.16 100.548 157.184 100.544 157.196C100.539 157.202 100.537 157.21 100.537 157.218C100.537 157.226 100.539 157.234 100.544 157.24C100.582 157.273 100.627 157.298 100.676 157.312C100.728 157.332 100.782 157.348 100.836 157.36C100.945 157.376 101.055 157.376 101.164 157.36C101.276 157.36 101.384 157.32 101.5 157.308H101.588C101.617 157.306 101.647 157.306 101.676 157.308L101.844 157.352C101.968 157.4 102.076 157.436 102.184 157.48Z" fill="black"/>
<path d="M101.452 157.16C101.296 157.132 101.152 157.092 101.004 157.052L100.788 156.996C100.715 156.973 100.64 156.959 100.564 156.956C100.64 156.938 100.72 156.938 100.796 156.956C100.873 156.964 100.949 156.979 101.024 157C101.173 157.036 101.316 157.09 101.452 157.16Z" fill="black"/>
</g>
<path d="M102.584 156.868C102.584 156.868 105.184 156.516 105.34 156.62C105.496 156.724 105.624 157.48 105.312 157.66C105 157.84 102.62 157.48 102.62 157.48C102.544 157.398 102.498 157.292 102.492 157.18C102.485 157.069 102.518 156.958 102.584 156.868Z" fill="#B8B8FF"/>
<path opacity="0.49" d="M102.584 156.868C102.584 156.868 105.184 156.516 105.34 156.62C105.496 156.724 105.624 157.48 105.312 157.66C105 157.84 102.62 157.48 102.62 157.48C102.544 157.398 102.498 157.292 102.492 157.18C102.485 157.069 102.518 156.958 102.584 156.868Z" fill="black"/>
<path opacity="0.2" d="M105.324 156.652C105.248 156.652 105.116 156.892 105.144 157.18C105.172 157.468 105.268 157.64 105.312 157.636C105.356 157.632 105.5 157.472 105.48 157.116C105.468 156.868 105.392 156.668 105.324 156.652Z" fill="white"/>
<g opacity="0.2">
<path d="M102.68 157.408L103.124 157.432C103.197 157.436 103.271 157.436 103.344 157.432H103.452H103.568C103.718 157.435 103.868 157.449 104.016 157.476C104.163 157.498 104.308 157.529 104.452 157.568L104.008 157.532C103.86 157.532 103.712 157.504 103.568 157.504H103.46C103.421 157.508 103.382 157.508 103.344 157.504C103.269 157.508 103.195 157.508 103.12 157.504C102.972 157.468 102.824 157.44 102.68 157.408Z" fill="black"/>
<path d="M102.948 157.4C103.048 157.365 103.151 157.336 103.256 157.316C103.361 157.292 103.468 157.276 103.576 157.268C103.684 157.268 103.791 157.28 103.896 157.304C104 157.327 104.103 157.357 104.204 157.392L103.888 157.36C103.786 157.347 103.683 157.341 103.58 157.34L103.268 157.372L102.948 157.4Z" fill="black"/>
<path d="M104.236 157.268C104.308 157.308 104.383 157.343 104.46 157.372C104.536 157.398 104.616 157.414 104.696 157.42C104.773 157.426 104.851 157.415 104.924 157.388C104.96 157.377 104.993 157.358 105.02 157.332C105.033 157.323 105.042 157.31 105.048 157.296V157.276C104.998 157.219 104.933 157.177 104.86 157.156C104.826 157.148 104.79 157.148 104.756 157.156L104.64 157.188C104.607 157.2 104.578 157.221 104.556 157.248C104.556 157.248 104.556 157.248 104.556 157.272H104.608C104.685 157.3 104.77 157.3 104.848 157.272C104.812 157.295 104.771 157.308 104.728 157.308C104.686 157.314 104.642 157.314 104.6 157.308L104.536 157.288C104.536 157.288 104.512 157.288 104.504 157.256C104.5 157.249 104.498 157.242 104.498 157.234C104.498 157.226 104.5 157.219 104.504 157.212C104.526 157.168 104.563 157.134 104.608 157.116L104.728 157.072C104.774 157.06 104.822 157.06 104.868 157.072C104.955 157.096 105.033 157.144 105.092 157.212V157.248C105.095 157.257 105.095 157.267 105.092 157.276C105.082 157.299 105.067 157.319 105.048 157.336C105.013 157.367 104.972 157.39 104.928 157.404C104.846 157.432 104.758 157.44 104.672 157.428C104.515 157.412 104.366 157.357 104.236 157.268Z" fill="black"/>
<path d="M105.116 157.072C105.012 157.036 104.905 157.012 104.796 157C104.69 156.986 104.583 156.994 104.48 157.024C104.376 157.052 104.276 157.096 104.164 157.132C104.056 157.168 103.941 157.179 103.828 157.164C103.938 157.153 104.046 157.124 104.148 157.08C104.248 157.03 104.353 156.988 104.46 156.956C104.516 156.939 104.574 156.929 104.632 156.928C104.689 156.922 104.747 156.922 104.804 156.928C104.916 156.956 105.022 157.005 105.116 157.072Z" fill="black"/>
<path d="M103.564 156.824C103.696 156.796 103.83 156.776 103.964 156.764C104.097 156.749 104.231 156.749 104.364 156.764C104.496 156.787 104.63 156.799 104.764 156.8H105.164C105.032 156.824 104.898 156.84 104.764 156.848C104.631 156.864 104.497 156.864 104.364 156.848C104.231 156.837 104.097 156.837 103.964 156.848L103.564 156.824Z" fill="black"/>
<path d="M104.4 156.868L104.068 156.956L103.9 156.984C103.869 156.988 103.839 156.988 103.808 156.984H103.72L103.388 156.904C103.282 156.876 103.173 156.864 103.064 156.868L102.904 156.9C102.854 156.912 102.806 156.934 102.764 156.964C102.76 156.971 102.759 156.978 102.759 156.986C102.759 156.994 102.76 157.001 102.764 157.008C102.774 157.025 102.79 157.037 102.808 157.044C102.858 157.067 102.91 157.083 102.964 157.092C103.019 157.096 103.073 157.096 103.128 157.092C103.181 157.095 103.235 157.085 103.284 157.064C103.344 157.064 103.26 157.016 103.212 157C103.158 156.984 103.103 156.972 103.048 156.964H103.216C103.246 156.97 103.276 156.979 103.304 156.992C103.313 156.995 103.322 157 103.328 157.008C103.333 157.016 103.336 157.026 103.336 157.036C103.334 157.045 103.33 157.054 103.325 157.062C103.319 157.069 103.312 157.075 103.304 157.08C103.249 157.106 103.189 157.121 103.128 157.124C103.071 157.13 103.013 157.13 102.956 157.124C102.896 157.12 102.836 157.107 102.78 157.084C102.745 157.069 102.717 157.042 102.7 157.008C102.694 156.988 102.694 156.968 102.7 156.948C102.705 156.929 102.715 156.911 102.728 156.896C102.777 156.856 102.835 156.828 102.896 156.812C102.952 156.796 103.01 156.784 103.068 156.776C103.128 156.768 103.188 156.768 103.248 156.776C103.305 156.784 103.361 156.796 103.416 156.812L103.744 156.904C103.798 156.914 103.854 156.914 103.908 156.904H104.076C104.18 156.92 104.292 156.9 104.4 156.868Z" fill="black"/>
<path d="M103.648 157.144C103.508 157.209 103.36 157.256 103.208 157.284C103.132 157.297 103.056 157.307 102.98 157.312C102.901 157.318 102.821 157.306 102.748 157.276C102.822 157.284 102.897 157.284 102.972 157.276L103.196 157.232C103.345 157.194 103.496 157.165 103.648 157.144Z" fill="black"/>
<path d="M104.34 157.424C104.46 157.464 104.568 157.5 104.684 157.528L104.856 157.56H105.036C104.98 157.587 104.918 157.602 104.856 157.604C104.793 157.605 104.73 157.599 104.668 157.584C104.607 157.569 104.548 157.547 104.492 157.52C104.437 157.496 104.385 157.464 104.34 157.424Z" fill="black"/>
</g>
<path d="M104.748 151.368C104.748 151.379 104.75 151.39 104.754 151.4C104.759 151.409 104.765 151.419 104.773 151.426C104.781 151.433 104.79 151.439 104.8 151.443C104.81 151.447 104.821 151.448 104.832 151.448C104.853 151.448 104.874 151.44 104.889 151.425C104.904 151.41 104.912 151.389 104.912 151.368C104.913 151.357 104.911 151.346 104.907 151.336C104.903 151.326 104.898 151.317 104.89 151.309C104.883 151.301 104.874 151.295 104.864 151.29C104.854 151.286 104.843 151.284 104.832 151.284C104.81 151.284 104.788 151.293 104.773 151.309C104.757 151.324 104.748 151.346 104.748 151.368Z" fill="#B8B8FF"/>
<path d="M103.888 147.908C103.888 147.924 103.893 147.939 103.901 147.952C103.91 147.966 103.923 147.976 103.937 147.982C103.952 147.988 103.968 147.989 103.984 147.986C103.999 147.983 104.013 147.976 104.025 147.965C104.036 147.953 104.043 147.939 104.046 147.924C104.049 147.908 104.048 147.892 104.042 147.877C104.036 147.863 104.026 147.85 104.012 147.841C103.999 147.833 103.984 147.828 103.968 147.828C103.947 147.828 103.926 147.836 103.911 147.851C103.896 147.866 103.888 147.887 103.888 147.908Z" fill="#B8B8FF"/>
<path d="M100.8 150.84C100.815 150.855 100.835 150.863 100.856 150.863C100.877 150.863 100.897 150.855 100.912 150.84C100.927 150.824 100.935 150.804 100.935 150.782C100.935 150.76 100.927 150.74 100.912 150.724C100.897 150.709 100.877 150.701 100.856 150.701C100.835 150.701 100.815 150.709 100.8 150.724C100.792 150.731 100.785 150.74 100.78 150.75C100.775 150.76 100.773 150.771 100.773 150.782C100.773 150.793 100.775 150.804 100.78 150.814C100.785 150.824 100.792 150.833 100.8 150.84Z" fill="#B8B8FF"/>
<path d="M100.088 155.76C100.088 155.781 100.096 155.802 100.111 155.817C100.126 155.832 100.147 155.84 100.168 155.84C100.189 155.84 100.21 155.832 100.225 155.817C100.24 155.802 100.248 155.781 100.248 155.76C100.248 155.739 100.24 155.718 100.225 155.703C100.21 155.688 100.189 155.68 100.168 155.68C100.147 155.68 100.126 155.688 100.111 155.703C100.096 155.718 100.088 155.739 100.088 155.76Z" fill="#B8B8FF"/>
<path d="M105.12 155.212C105.12 155.228 105.125 155.243 105.133 155.256C105.142 155.27 105.155 155.28 105.169 155.286C105.184 155.292 105.2 155.293 105.216 155.29C105.231 155.287 105.245 155.28 105.257 155.269C105.268 155.257 105.275 155.243 105.278 155.228C105.282 155.212 105.28 155.196 105.274 155.181C105.268 155.167 105.258 155.154 105.244 155.145C105.231 155.137 105.216 155.132 105.2 155.132C105.179 155.132 105.158 155.14 105.143 155.155C105.128 155.17 105.12 155.191 105.12 155.212Z" fill="#B8B8FF"/>
<path d="M104.64 151.892C104.64 151.921 104.651 151.948 104.672 151.968C104.692 151.989 104.719 152 104.748 152C104.777 152 104.804 151.989 104.824 151.968C104.845 151.948 104.856 151.921 104.856 151.892C104.856 151.863 104.845 151.836 104.824 151.816C104.804 151.795 104.777 151.784 104.748 151.784C104.734 151.784 104.72 151.787 104.707 151.792C104.694 151.798 104.682 151.806 104.672 151.816C104.662 151.826 104.654 151.838 104.648 151.851C104.643 151.864 104.64 151.878 104.64 151.892Z" fill="#B8B8FF"/>
<path d="M101.248 149.94C101.265 149.952 101.285 149.959 101.306 149.96C101.327 149.961 101.348 149.956 101.366 149.945C101.385 149.935 101.399 149.919 101.408 149.9C101.418 149.881 101.421 149.86 101.418 149.839C101.416 149.818 101.407 149.798 101.393 149.782C101.38 149.766 101.362 149.755 101.341 149.749C101.321 149.743 101.299 149.743 101.279 149.749C101.259 149.756 101.241 149.768 101.228 149.784C101.219 149.795 101.212 149.809 101.208 149.823C101.204 149.837 101.202 149.852 101.204 149.866C101.206 149.881 101.211 149.895 101.218 149.908C101.226 149.92 101.236 149.931 101.248 149.94Z" fill="#B8B8FF"/>
<path d="M100.292 153.972C100.293 154.001 100.305 154.028 100.326 154.049C100.347 154.069 100.375 154.08 100.404 154.08C100.433 154.08 100.46 154.069 100.48 154.048C100.501 154.028 100.512 154.001 100.512 153.972C100.512 153.943 100.501 153.915 100.481 153.894C100.46 153.873 100.433 153.861 100.404 153.86C100.375 153.861 100.347 153.873 100.326 153.894C100.305 153.915 100.293 153.943 100.292 153.972Z" fill="#B8B8FF"/>
<path d="M104.468 151.736C104.468 151.742 104.469 151.748 104.472 151.754C104.474 151.76 104.478 151.765 104.482 151.77C104.487 151.774 104.492 151.778 104.498 151.78C104.503 151.783 104.51 151.784 104.516 151.784C104.522 151.784 104.529 151.783 104.534 151.78C104.54 151.778 104.545 151.774 104.55 151.77C104.554 151.765 104.558 151.76 104.56 151.754C104.563 151.748 104.564 151.742 104.564 151.736C104.563 151.724 104.558 151.712 104.549 151.703C104.54 151.694 104.528 151.689 104.516 151.688C104.503 151.688 104.491 151.693 104.482 151.702C104.473 151.711 104.468 151.723 104.468 151.736Z" fill="#B8B8FF"/>
<path d="M104.916 153.312C104.943 153.312 104.964 153.29 104.964 153.264C104.964 153.237 104.943 153.216 104.916 153.216C104.89 153.216 104.868 153.237 104.868 153.264C104.868 153.29 104.89 153.312 104.916 153.312Z" fill="#B8B8FF"/>
<path d="M105.484 154.78C105.484 154.793 105.489 154.805 105.498 154.814C105.507 154.823 105.519 154.828 105.532 154.828C105.545 154.828 105.557 154.823 105.566 154.814C105.575 154.805 105.58 154.793 105.58 154.78C105.58 154.767 105.575 154.755 105.566 154.746C105.557 154.737 105.545 154.732 105.532 154.732C105.52 154.733 105.508 154.738 105.499 154.747C105.49 154.756 105.485 154.768 105.484 154.78Z" fill="#B8B8FF"/>
<path d="M100.136 153.632C100.136 153.645 100.141 153.657 100.15 153.666C100.159 153.675 100.171 153.68 100.184 153.68C100.197 153.68 100.209 153.675 100.218 153.666C100.227 153.657 100.232 153.645 100.232 153.632C100.231 153.62 100.226 153.608 100.217 153.599C100.208 153.59 100.196 153.585 100.184 153.584C100.171 153.584 100.159 153.589 100.15 153.598C100.141 153.607 100.136 153.619 100.136 153.632Z" fill="#B8B8FF"/>
<path d="M105.108 150.244C105.108 150.256 105.113 150.267 105.121 150.275C105.129 150.283 105.14 150.288 105.152 150.288C105.158 150.289 105.164 150.288 105.17 150.286C105.176 150.284 105.181 150.281 105.186 150.277C105.19 150.272 105.194 150.267 105.196 150.262C105.199 150.256 105.2 150.25 105.2 150.244C105.2 150.231 105.195 150.219 105.186 150.21C105.177 150.201 105.165 150.196 105.152 150.196C105.146 150.196 105.14 150.197 105.134 150.2C105.129 150.202 105.124 150.206 105.119 150.21C105.115 150.215 105.112 150.22 105.11 150.226C105.108 150.232 105.107 150.238 105.108 150.244Z" fill="#B8B8FF"/>
<path d="M102.98 149.852C103.007 149.852 103.028 149.83 103.028 149.804C103.028 149.777 103.007 149.756 102.98 149.756C102.954 149.756 102.932 149.777 102.932 149.804C102.932 149.83 102.954 149.852 102.98 149.852Z" fill="#B8B8FF"/>
<path d="M102.624 149.14C102.65 149.14 102.672 149.118 102.672 149.092C102.672 149.065 102.65 149.044 102.624 149.044C102.597 149.044 102.576 149.065 102.576 149.092C102.576 149.118 102.597 149.14 102.624 149.14Z" fill="#B8B8FF"/>
<path d="M101 157C101.497 157.189 102.016 157.314 102.544 157.372H102.86C102.86 157.372 103.66 157.184 103.768 157.144C103.876 157.104 104.168 157.228 104.28 157.144C104.575 156.919 104.832 156.649 105.044 156.344C105.005 156.055 104.935 155.77 104.836 155.496C104.836 155.38 104.996 154.696 105.012 154.464C105.028 154.232 104.352 153.108 104.288 152.924C104.303 152.631 104.37 152.342 104.484 152.072C104.484 152.072 103.928 152.656 103.944 152.796C103.96 152.936 104.216 153.248 104.232 153.348C104.248 153.448 103.884 154.148 103.896 154.252C103.97 154.435 104.024 154.625 104.056 154.82C104.017 154.651 103.928 154.497 103.8 154.38C103.656 154.301 103.515 154.214 103.38 154.12C103.252 153.9 103.164 153.659 103.12 153.408C103.214 153.264 103.267 153.096 103.272 152.924C103.138 152.556 102.962 152.204 102.748 151.876C102.748 151.876 102.836 152.324 102.748 152.432C102.66 152.54 102.348 152.704 102.312 152.788C102.276 152.872 102.6 153.236 102.56 153.324C102.52 153.412 101.804 153.56 101.732 153.66C101.593 153.972 101.519 154.31 101.516 154.652C101.568 154.796 101.74 155.344 101.644 155.452C101.548 155.56 101.332 155.604 101.324 155.56C101.382 155.366 101.408 155.163 101.4 154.96C101.348 154.748 101.12 154.284 101.104 154.16C101.136 153.878 101.205 153.601 101.308 153.336C101.116 153.627 100.958 153.94 100.84 154.268C100.864 154.589 100.905 154.908 100.964 155.224C100.964 155.224 100.86 155.156 100.836 155.108C100.825 154.975 100.825 154.841 100.836 154.708C100.706 154.853 100.599 155.016 100.516 155.192C100.484 155.336 100.648 155.696 100.624 155.82C100.6 155.944 100.472 156.22 100.456 156.38C100.44 156.54 100.876 156.924 101 157ZM104.432 155.916C104.395 156.086 104.332 156.25 104.244 156.4C104.244 156.4 104.28 156.164 104.28 156.068C104.259 155.943 104.224 155.821 104.176 155.704C104.162 155.551 104.205 155.399 104.296 155.276C104.37 155.482 104.415 155.698 104.432 155.916ZM103.76 157.028L104.052 156.772C104.148 156.684 104.432 156.556 104.484 156.472C104.543 156.309 104.588 156.142 104.62 155.972C104.655 156.154 104.667 156.339 104.656 156.524C104.539 156.719 104.379 156.884 104.188 157.008C104.048 157.041 103.903 157.048 103.76 157.028ZM101.644 155.768C101.566 155.902 101.51 156.048 101.48 156.2C101.489 156.343 101.536 156.481 101.616 156.6C101.669 156.707 101.71 156.82 101.74 156.936C101.74 156.936 101.404 156.78 101.34 156.536C101.276 156.292 101.624 155.796 101.644 155.768Z" fill="#B8B8FF"/>
<path d="M103.92 152.232C103.92 152.232 104.268 151.984 104.276 151.8C104.284 151.616 104.06 151.22 104.084 151.072C104.103 150.969 104.137 150.869 104.184 150.776C104.184 150.776 103.816 151.028 103.816 151.236C103.816 151.444 104.036 151.772 104.016 151.876C103.996 151.98 103.92 152.232 103.92 152.232Z" fill="#B8B8FF"/>
<path d="M101.84 153.372C101.878 153.261 101.901 153.145 101.908 153.028C101.885 152.943 101.841 152.864 101.78 152.8C101.752 152.836 101.733 152.878 101.725 152.922C101.718 152.967 101.721 153.013 101.736 153.056C101.78 153.216 101.84 153.372 101.84 153.372Z" fill="#B8B8FF"/>
<path d="M100.98 153.328C101.082 153.167 101.15 152.988 101.18 152.8C101.183 152.586 101.133 152.375 101.036 152.184C100.972 152.109 100.895 152.047 100.808 152C100.866 152.088 100.91 152.185 100.936 152.288C100.936 152.376 100.872 152.652 100.864 152.76C100.888 152.952 100.927 153.142 100.98 153.328Z" fill="#B8B8FF"/>
<path d="M103.24 151.892C103.24 151.892 103.5 151.536 103.452 151.304C103.389 151.079 103.275 150.871 103.12 150.696C102.994 150.572 102.877 150.438 102.772 150.296C102.69 150.071 102.69 149.825 102.772 149.6C102.834 149.525 102.912 149.463 103 149.42C102.886 149.42 102.773 149.447 102.672 149.499C102.57 149.551 102.482 149.627 102.416 149.72C102.188 150.036 101.896 151.272 102.016 151.556C102.151 151.774 102.328 151.963 102.536 152.112C102.49 151.911 102.467 151.706 102.468 151.5C102.504 151.38 102.868 151.5 102.956 151.576C103.06 151.673 103.155 151.779 103.24 151.892Z" fill="#B8B8FF"/>
<path d="M103.84 153.64C103.84 153.64 104 153.472 103.968 153.328C103.936 153.184 103.728 152.968 103.716 152.9C103.721 152.784 103.737 152.669 103.764 152.556C103.764 152.556 103.556 152.956 103.604 153.068C103.652 153.18 103.692 153.372 103.692 153.372C103.692 153.372 103.6 153.312 103.58 153.26C103.565 153.217 103.553 153.173 103.544 153.128C103.544 153.128 103.388 153.324 103.436 153.46C103.522 153.608 103.63 153.743 103.756 153.86C103.753 153.819 103.753 153.777 103.756 153.736C103.756 153.688 103.784 153.712 103.84 153.64Z" fill="#B8B8FF"/>
<g opacity="0.4">
<path d="M102.728 157.372C102.728 157.372 103.676 157.028 103.888 156.544C104.02 156.24 103.664 155.616 103.632 155.52C103.6 155.424 103.632 155.04 103.592 154.888C103.552 154.736 102.872 154.34 102.792 154.236C102.712 154.132 102.908 153.716 102.908 153.716C102.908 153.716 102.4 154.116 102.324 154.36C102.248 154.604 102.548 155.048 102.548 155.132C102.505 155.251 102.444 155.363 102.368 155.464C102.293 155.368 102.244 155.253 102.228 155.132C102.228 154.972 102.304 154.892 102.288 154.78C102.234 154.659 102.158 154.549 102.064 154.456C102.121 154.554 102.141 154.669 102.12 154.78C102.064 154.912 101.808 155.18 101.844 155.376C101.88 155.572 102.188 156.052 102.16 156.176C102.142 156.255 102.11 156.329 102.064 156.396C102.019 156.293 101.983 156.186 101.956 156.076C101.928 155.948 101.9 155.776 101.9 155.776C101.9 155.776 101.744 156.62 101.9 156.856C102.141 157.079 102.422 157.254 102.728 157.372Z" fill="white"/>
<path d="M102.98 151.504C103.037 151.388 103.074 151.264 103.092 151.136C103.092 151.012 102.872 150.844 102.768 150.736C102.607 150.588 102.5 150.391 102.464 150.176C102.464 150.016 102.508 149.896 102.508 149.896C102.364 150.284 102.265 150.686 102.212 151.096C102.221 151.268 102.286 151.432 102.396 151.564C102.396 151.564 102.456 151.292 102.588 151.3C102.735 151.332 102.87 151.402 102.98 151.504Z" fill="white"/>
<path d="M104 152.108C104 152.108 104.204 151.92 104.2 151.792C104.156 151.625 104.089 151.464 104 151.316C104 151.316 104.088 151.716 104.1 151.808C104.087 151.914 104.053 152.016 104 152.108Z" fill="white"/>
<path d="M101.66 157.072C101.66 157.072 101.26 156.816 101.172 156.752C101.077 156.599 101.015 156.427 100.992 156.248C100.992 156.176 101.132 155.848 101.132 155.768C101.132 155.688 100.864 155.368 100.864 155.368C100.903 155.489 100.927 155.614 100.936 155.74C100.936 155.812 100.568 156.228 100.592 156.384C100.616 156.54 100.948 156.82 101.044 156.884C101.244 156.962 101.45 157.025 101.66 157.072Z" fill="white"/>
<path d="M104.564 155.416C104.682 155.128 104.766 154.828 104.812 154.52C104.717 154.214 104.602 153.915 104.468 153.624C104.468 153.624 104.492 154.228 104.516 154.324C104.522 154.459 104.506 154.594 104.468 154.724C104.425 154.631 104.386 154.537 104.352 154.44C104.354 154.315 104.37 154.19 104.4 154.068C104.305 154.298 104.253 154.543 104.248 154.792C104.331 155.01 104.437 155.22 104.564 155.416Z" fill="white"/>
</g>
</svg>
