<svg width="24" height="24" viewBox="0 0 24 24" fill="none" xmlns="http://www.w3.org/2000/svg">
<g filter="url(#filter0_dd_540_8059)">
<path d="M5.24066 5.47461C5.60009 5.05528 6.23149 5.00679 6.65082 5.36621L13.6508 11.3662C13.8723 11.5562 14.0004 11.8332 14.0004 12.125C14.0004 12.4168 13.8723 12.6938 13.6508 12.8838L6.65082 18.8838C6.23149 19.2432 5.60009 19.1947 5.24066 18.7754C4.8816 18.3562 4.93013 17.7256 5.34906 17.3662L11.4633 12.125L5.34906 6.88379C4.93014 6.52439 4.88159 5.89382 5.24066 5.47461ZM18.0004 5.125C18.5525 5.12523 19.0004 5.57286 19.0004 6.125V18.125C19.0004 18.6771 18.5525 19.1248 18.0004 19.125C17.4481 19.125 17.0004 18.6773 17.0004 18.125V6.125C17.0004 5.57272 17.4481 5.125 18.0004 5.125Z" fill="#5B616D"/>
</g>
<defs>
<filter id="filter0_dd_540_8059" x="-1.5" y="0" width="27" height="28.5" filterUnits="userSpaceOnUse" color-interpolation-filters="sRGB">
<feFlood flood-opacity="0" result="BackgroundImageFix"/>
<feColorMatrix in="SourceAlpha" type="matrix" values="0 0 0 0 0 0 0 0 0 0 0 0 0 0 0 0 0 0 127 0" result="hardAlpha"/>
<feMorphology radius="1.5" operator="erode" in="SourceAlpha" result="effect1_dropShadow_540_8059"/>
<feOffset dy="3"/>
<feGaussianBlur stdDeviation="1.5"/>
<feComposite in2="hardAlpha" operator="out"/>
<feColorMatrix type="matrix" values="0 0 0 0 0 0 0 0 0 0 0 0 0 0 0 0 0 0 0.04 0"/>
<feBlend mode="normal" in2="BackgroundImageFix" result="effect1_dropShadow_540_8059"/>
<feColorMatrix in="SourceAlpha" type="matrix" values="0 0 0 0 0 0 0 0 0 0 0 0 0 0 0 0 0 0 127 0" result="hardAlpha"/>
<feMorphology radius="0.5" operator="erode" in="SourceAlpha" result="effect2_dropShadow_540_8059"/>
<feOffset dy="1"/>
<feGaussianBlur stdDeviation="0.5"/>
<feComposite in2="hardAlpha" operator="out"/>
<feColorMatrix type="matrix" values="0 0 0 0 0 0 0 0 0 0 0 0 0 0 0 0 0 0 0.04 0"/>
<feBlend mode="normal" in2="effect1_dropShadow_540_8059" result="effect2_dropShadow_540_8059"/>
<feBlend mode="normal" in="SourceGraphic" in2="effect2_dropShadow_540_8059" result="shape"/>
</filter>
</defs>
</svg>
