<svg width="200" height="201" viewBox="0 0 200 201" fill="none" xmlns="http://www.w3.org/2000/svg">
<path d="M29.5359 99.9679C29.7575 99.8348 30.0094 99.7605 30.2677 99.7521C30.526 99.7437 30.7822 99.8014 31.0119 99.9199C31.2399 100.044 31.4559 100.184 31.6879 100.292C31.9263 100.39 32.1477 100.525 32.3439 100.692C32.5302 100.87 32.6679 101.093 32.7439 101.34C32.801 101.592 32.8266 101.85 32.8199 102.108L32.8799 103.668L39.1679 103.452L39.1319 103.488L39.0599 101.464C39.067 101.111 39.1972 100.771 39.4279 100.504C39.6762 100.266 39.9562 100.065 40.2599 99.9039L40.6839 99.6359C40.8311 99.5383 40.9933 99.4654 41.1639 99.4199C41.5088 99.3225 41.8769 99.3494 42.2039 99.4959L43.9999 100.436L43.8759 100.476L46.7999 94.8679L46.8559 95.0519L45.0599 94.0999C44.7416 93.9002 44.5005 93.5985 44.3759 93.2439C44.3156 93.0675 44.2846 92.8824 44.2839 92.6959V92.1959L44.2599 91.6919C44.2414 91.4096 44.2948 91.1272 44.4151 90.8712C44.5354 90.6151 44.7188 90.3938 44.9479 90.2279L46.6719 89.1479L46.6119 89.3959L43.2559 84.0679L43.5239 84.1279L41.7959 85.2039C41.4548 85.3879 41.0602 85.4473 40.6799 85.3719C40.4921 85.3332 40.3122 85.2629 40.1479 85.1639L39.7159 84.9159L39.2719 84.6919C39.1 84.6077 38.9431 84.4955 38.8079 84.3599C38.5371 84.0866 38.3701 83.7272 38.3359 83.3439L38.2759 81.3079L38.4639 81.4879L32.1719 81.6679L32.3319 81.4999L32.3799 83.5359C32.365 83.9088 32.224 84.2656 31.9799 84.5479C31.8558 84.6871 31.7082 84.8036 31.5439 84.8919L31.1199 85.1519L30.6919 85.4119C30.4633 85.5672 30.1983 85.6607 29.9228 85.6831C29.6473 85.7055 29.3707 85.6562 29.1199 85.5399L27.3359 84.5679L27.4799 84.5239L24.4679 90.0519L24.4399 89.9679L26.2159 90.9399C26.5103 91.1273 26.7318 91.4095 26.8439 91.7399C26.9214 92.0728 26.9537 92.4145 26.9399 92.7559C26.9734 93.095 26.9586 93.4371 26.8959 93.7719C26.8078 94.1073 26.6037 94.4006 26.3199 94.5999L24.5919 95.6679V95.6399L27.8959 100.996L29.5359 99.9679ZM29.5359 99.9679L27.8999 100.992L24.5639 95.6679L26.2799 94.5959C26.5518 94.402 26.7472 94.1189 26.8319 93.7959C26.8875 93.4655 26.8969 93.129 26.8599 92.7959C26.8684 92.4635 26.8335 92.1313 26.7559 91.8079C26.6475 91.4962 26.4358 91.2309 26.1559 91.0559L24.3759 90.0679L24.3199 90.0359L24.3479 89.9799L27.2879 84.4119L27.3359 84.3159L27.4319 84.3679L29.1999 85.3039C29.486 85.4291 29.8058 85.4544 30.1079 85.3759C30.2505 85.3313 30.3854 85.2652 30.5079 85.1799L30.9399 84.9039L31.3759 84.6319C31.5087 84.5564 31.6277 84.4591 31.7279 84.3439C31.9273 84.1102 32.0403 83.815 32.0479 83.5079L31.9719 81.5079V81.3439H32.1359L38.4239 81.1279H38.6079V81.3119L38.6759 83.3119C38.7005 83.6136 38.8308 83.897 39.0439 84.1119C39.1491 84.2153 39.2708 84.3005 39.4039 84.3639L39.8639 84.5919L40.3119 84.8479C40.4362 84.9207 40.5712 84.9733 40.7119 85.0039C41.0014 85.0595 41.3011 85.0128 41.5599 84.8719L43.2759 83.8199L43.4439 83.7159L43.5439 83.8839L46.8479 89.2399L46.9399 89.3919L46.7879 89.4839L45.0759 90.5439C44.83 90.7161 44.6529 90.9697 44.5759 91.2599C44.5359 91.4057 44.5197 91.557 44.5279 91.7079V92.2159V92.7239C44.5291 92.8764 44.5548 93.0276 44.6039 93.1719C44.6973 93.4619 44.8881 93.7106 45.1439 93.8759L46.9119 94.8439L47.0319 94.9079L46.9679 95.0279L43.9559 100.556L43.9079 100.636L43.8279 100.592L42.0559 99.6279C41.7606 99.4959 41.4293 99.4677 41.1159 99.5479C40.8057 99.659 40.5122 99.8125 40.2439 100.004C39.9531 100.157 39.684 100.348 39.4439 100.572C39.225 100.817 39.099 101.131 39.0879 101.46L39.1319 103.46V103.496H39.0919L32.8639 103.668L32.7999 102.108C32.8064 101.853 32.7822 101.597 32.7279 101.348C32.651 101.103 32.5134 100.881 32.3279 100.704C32.1332 100.537 31.9131 100.402 31.6759 100.304C31.4439 100.192 31.2279 100.052 31.0039 99.9279C30.7765 99.8078 30.5219 99.7484 30.2647 99.7554C30.0076 99.7624 29.7566 99.8356 29.5359 99.9679Z" fill="#EBEBEB"/>
<path d="M30.836 90.6479C31.2023 89.6828 31.8447 88.8469 32.683 88.2446C33.5214 87.6422 34.5185 87.3001 35.5501 87.2608C36.5817 87.2216 37.6019 87.487 38.4836 88.0239C39.3653 88.5608 40.0694 89.3454 40.508 90.2799C40.8068 90.9151 40.9751 91.6038 41.0026 92.3052C41.0302 93.0066 40.9166 93.7064 40.6684 94.3631C40.4203 95.0197 40.0428 95.6198 39.5583 96.1278C39.0738 96.6357 38.4922 97.0411 37.848 97.3199C37.2113 97.5963 36.5263 97.7442 35.8324 97.7552C35.1384 97.7661 34.4491 97.64 33.804 97.3839C33.1676 97.1235 32.5856 96.7464 32.088 96.2719C31.3561 95.5571 30.848 94.6447 30.6257 93.6461C30.4034 92.6475 30.4765 91.6058 30.836 90.6479ZM30.836 90.6479C30.3659 91.9263 30.422 93.3389 30.992 94.5759C31.414 95.4748 32.0915 96.2295 32.9398 96.7458C33.788 97.2622 34.7696 97.5173 35.7619 97.4793C36.7542 97.4413 37.7134 97.112 38.5197 96.5323C39.326 95.9527 39.9438 95.1484 40.296 94.2199C40.76 92.9824 40.7214 91.6124 40.1885 90.4029C39.6555 89.1935 38.6704 88.2405 37.444 87.7479C36.1905 87.25 34.7906 87.2701 33.552 87.8039C32.3093 88.3599 31.3341 89.381 30.836 90.6479Z" fill="#EBEBEB"/>
<path d="M176.568 95.3159L174.364 91.4959L173.2 92.1719C173.031 92.2676 172.839 92.3149 172.645 92.3086C172.451 92.3022 172.262 92.2425 172.1 92.1359C171.915 92.0153 171.724 91.9044 171.528 91.8039C171.355 91.717 171.209 91.584 171.107 91.4196C171.005 91.2551 170.95 91.0656 170.948 90.8719V89.5239H166.548V90.8679C166.547 91.0616 166.492 91.2511 166.389 91.4156C166.287 91.58 166.141 91.713 165.968 91.7999C165.772 91.9004 165.581 92.0113 165.396 92.1319C165.234 92.2385 165.045 92.2982 164.851 92.3046C164.657 92.3109 164.465 92.2636 164.296 92.1679L163.128 91.4919L160.924 95.3119L162.1 95.9879C162.267 96.0867 162.403 96.2299 162.494 96.4015C162.584 96.5731 162.625 96.7664 162.612 96.9599C162.612 97.0679 162.612 97.1759 162.612 97.2839C162.612 97.3919 162.612 97.4999 162.612 97.6079C162.625 97.8005 162.585 97.9929 162.495 98.1637C162.405 98.3346 162.27 98.4773 162.104 98.5759L160.904 99.2559L163.108 103.076L164.28 102.4C164.449 102.303 164.641 102.255 164.836 102.262C165.03 102.27 165.219 102.331 165.38 102.44C165.564 102.556 165.752 102.668 165.948 102.768C166.121 102.855 166.267 102.988 166.369 103.152C166.472 103.317 166.527 103.506 166.528 103.7V105.048H170.928V103.7C170.93 103.506 170.985 103.317 171.087 103.152C171.189 102.988 171.335 102.855 171.508 102.768C171.704 102.668 171.908 102.556 172.076 102.44C172.237 102.331 172.426 102.27 172.62 102.262C172.815 102.255 173.007 102.303 173.176 102.4L174.348 103.076L176.552 99.2559L175.38 98.5799C175.213 98.4818 175.077 98.3394 174.987 98.1685C174.897 97.9975 174.855 97.8049 174.868 97.6119C174.868 97.5039 174.868 97.3919 174.868 97.2839C174.868 97.1759 174.868 97.0679 174.868 96.9599C174.855 96.7664 174.896 96.5731 174.986 96.4015C175.077 96.2299 175.213 96.0867 175.38 95.9879L176.568 95.3159ZM172.352 97.2879C172.352 98 172.141 98.696 171.745 99.288C171.35 99.88 170.788 100.341 170.13 100.614C169.472 100.886 168.748 100.958 168.05 100.819C167.351 100.68 166.71 100.337 166.206 99.8335C165.703 99.3301 165.36 98.6886 165.221 97.9903C165.082 97.2919 165.154 96.5681 165.426 95.9103C165.699 95.2525 166.16 94.6902 166.752 94.2947C167.344 93.8991 168.04 93.6879 168.752 93.6879C169.707 93.6879 170.623 94.0672 171.298 94.7424C171.973 95.4175 172.352 96.3332 172.352 97.2879Z" fill="#EBEBEB"/>
<path d="M61.6001 61.4359L59.3961 57.6199L58.2281 58.2959C58.059 58.3919 57.8666 58.439 57.6724 58.432C57.4781 58.4249 57.2897 58.364 57.1281 58.2559C56.9433 58.1366 56.7524 58.0271 56.5561 57.9279C56.3829 57.841 56.2372 57.708 56.1349 57.5436C56.0325 57.3791 55.9776 57.1896 55.9761 56.9959V55.6679H51.6001V57.0159C51.5985 57.2096 51.5436 57.3991 51.4413 57.5636C51.3389 57.728 51.1932 57.861 51.0201 57.9479C50.8237 58.0471 50.6328 58.1566 50.4481 58.2759C50.2865 58.384 50.098 58.4449 49.9037 58.452C49.7095 58.459 49.5171 58.4119 49.3481 58.3159L48.1801 57.6399L45.9761 61.4559L47.1521 62.1319C47.3193 62.2314 47.4557 62.3752 47.5461 62.5475C47.6365 62.7198 47.6773 62.9138 47.6641 63.1079C47.6641 63.2159 47.6641 63.3239 47.6641 63.4319C47.6641 63.5399 47.6641 63.6479 47.6641 63.7559C47.6771 63.9485 47.6366 64.1409 47.5469 64.3117C47.4572 64.4826 47.3219 64.6253 47.1561 64.7239L45.9561 65.4039L48.1601 69.2239L49.3321 68.5479C49.5007 68.4513 49.6929 68.4036 49.8872 68.4099C50.0814 68.4163 50.2701 68.4765 50.4321 68.5839C50.6154 68.7046 50.805 68.8154 51.0001 68.9159C51.1728 69.0022 51.3185 69.1345 51.4208 69.2982C51.5231 69.462 51.5783 69.6508 51.5801 69.8439V71.1959H55.9801V69.8439C55.9818 69.6508 56.037 69.462 56.1393 69.2982C56.2417 69.1345 56.3873 69.0022 56.5601 68.9159C56.7551 68.8154 56.9447 68.7046 57.1281 68.5839C57.29 68.4765 57.4787 68.4163 57.6729 68.4099C57.8672 68.4036 58.0594 68.4513 58.2281 68.5479L59.4001 69.2239L61.6041 65.4039L60.4281 64.7279C60.2625 64.628 60.1276 64.4845 60.038 64.3131C59.9484 64.1417 59.9076 63.9489 59.9201 63.7559C59.9201 63.6479 59.9201 63.5399 59.9201 63.4319C59.9201 63.3239 59.9201 63.2159 59.9201 63.1079C59.9068 62.9138 59.9476 62.7198 60.038 62.5475C60.1284 62.3752 60.2648 62.2314 60.4321 62.1319L61.6001 61.4359ZM57.3841 63.4119C57.3841 64.1239 57.1729 64.82 56.7773 65.412C56.3818 66.004 55.8195 66.4654 55.1617 66.7379C54.5039 67.0104 53.7801 67.0817 53.0817 66.9428C52.3834 66.8039 51.7419 66.461 51.2385 65.9575C50.735 65.4541 50.3921 64.8126 50.2532 64.1143C50.1143 63.4159 50.1856 62.6921 50.4581 62.0343C50.7306 61.3765 51.192 60.8142 51.784 60.4186C52.376 60.0231 53.072 59.8119 53.7841 59.8119C54.2578 59.8104 54.7272 59.9023 55.1654 60.0825C55.6036 60.2627 56.0018 60.5277 56.3374 60.8621C56.673 61.1965 56.9392 61.5939 57.1209 62.0315C57.3025 62.4691 57.3961 62.9382 57.3961 63.4119H57.3841Z" fill="#EBEBEB"/>
<path d="M155.812 31.6679H117.268C117.268 31.6679 121.088 21.2319 126.972 21.2319C132.856 21.2319 134.696 28.4319 134.696 28.4319C134.696 28.4319 138.664 24.5159 141.924 24.5159C145.184 24.5159 148 29.6679 148 29.6679C148 29.6679 152.624 26.8959 155.812 31.6679Z" fill="#EBEBEB"/>
<path d="M93.904 94.2359H55.356C55.356 94.2359 59.18 83.7999 65.06 83.7999C70.94 83.7999 72.784 90.9999 72.784 90.9999C72.784 90.9999 76.752 87.0839 80.012 87.0839C83.272 87.0839 86.108 92.2599 86.108 92.2599C86.108 92.2599 90.712 89.4799 93.904 94.2359Z" fill="#EBEBEB"/>
<path opacity="0.5" d="M179.456 66.3279H161.456C161.456 66.3279 165.48 60.4959 168.656 60.4959C171.832 60.4959 172.764 64.3839 172.764 64.3839C172.764 64.3839 175.004 62.5679 177.076 62.8919C179.148 63.2159 179.456 66.3279 179.456 66.3279Z" fill="#EBEBEB"/>
<path opacity="0.5" d="M129.468 77.1639H111.468C111.468 77.1639 115.496 71.3319 118.668 71.3319C121.84 71.3319 122.776 75.2199 122.776 75.2199C122.776 75.2199 125.016 73.4079 127.088 73.7319C129.16 74.0559 129.468 77.1639 129.468 77.1639Z" fill="#EBEBEB"/>
<path d="M50.172 77.0519H15.088C15.088 77.0519 19.888 66.3239 25.032 65.6519C30.176 64.9799 32.632 73.6239 32.632 73.6239C32.632 73.6239 35.948 70.5679 38.556 70.5679C41.164 70.5679 43.176 74.5919 43.176 74.5919C43.176 74.5919 48.4 71.8359 50.172 77.0519Z" fill="#EBEBEB"/>
<path opacity="0.5" d="M74.632 48.3999H50.928C50.928 48.3999 55 40.6319 59.416 40.5159C63.832 40.3999 66.156 46.3999 66.156 46.3999C66.156 46.3999 73.024 40.8679 74.632 48.3999Z" fill="#EBEBEB"/>
<path d="M56.12 149.88H25.792V180.008H56.12V149.88Z" fill="#7D7DDE"/>
<path opacity="0.1" d="M34.728 149.88H25.792V180.008H34.728V149.88Z" fill="black"/>
<path d="M95.484 136.02H65.156V180.008H95.484V136.02Z" fill="#7D7DDE"/>
<path opacity="0.1" d="M74.092 136.02H65.156V180.008H74.092V136.02Z" fill="black"/>
<path d="M134.844 122.156H104.516V180.004H134.844V122.156Z" fill="#7D7DDE"/>
<path opacity="0.1" d="M113.452 122.156H104.516V180.004H113.452V122.156Z" fill="black"/>
<path d="M174.208 108.296H143.88V180.008H174.208V108.296Z" fill="#7D7DDE"/>
<path opacity="0.1" d="M152.816 108.296H143.88V180.008H152.816V108.296Z" fill="black"/>
<path d="M25.748 111.192C26.488 111.192 27.348 111.172 28.148 111.152C28.948 111.132 29.784 111.1 30.604 111.06C32.248 110.992 33.892 110.896 35.54 110.784C38.836 110.572 42.132 110.264 45.424 109.916C52.0107 109.204 58.5734 108.253 65.112 107.064C71.6507 105.875 78.1334 104.444 84.56 102.772C90.984 101.076 97.3334 99.1173 103.608 96.8959C109.88 94.677 116.034 92.1404 122.048 89.2959C128.084 86.4689 133.945 83.2832 139.6 79.7559L143.816 77.0679L147.912 74.1919C149.296 73.2599 150.6 72.2159 151.912 71.1959L153.888 69.6599L154.88 68.8919L155.832 68.0919L159.632 64.8239C160.28 64.2959 160.864 63.6959 161.472 63.1239L163.288 61.3919L165.104 59.6559C165.704 59.0719 166.256 58.4559 166.832 57.8359L170.268 54.1679L170.496 54.3599L167.232 58.1999C166.68 58.8359 166.156 59.4959 165.58 60.1079L163.84 61.9359L162.1 63.7679C161.516 64.3719 160.956 65.0039 160.332 65.5679L156.66 69.0439L155.74 69.9119L154.78 70.7319L152.856 72.3759C151.572 73.4719 150.308 74.5879 148.952 75.5959L144.952 78.7039L140.8 81.6119C135.24 85.4665 129.454 88.9835 123.472 92.1439C117.488 95.3279 111.347 98.2076 105.072 100.772C98.8 103.337 92.4267 105.641 85.9521 107.684C79.4774 109.727 72.9334 111.503 66.32 113.012C59.7094 114.545 53.0427 115.839 46.32 116.892C42.96 117.408 39.592 117.888 36.204 118.272C34.508 118.468 32.812 118.648 31.104 118.804C30.252 118.884 29.396 118.952 28.54 119.02C27.684 119.088 26.836 119.144 25.9 119.192L25.748 111.192Z" fill="#7D7DDE"/>
<path d="M171.508 58.9239L169.544 55.2279L165.52 54.0799L174.252 49.3999L171.508 58.9239Z" fill="#7D7DDE"/>
<path d="M161.78 106.032H156.052C156.052 106.032 155.608 104.74 157.252 99.7639C158.896 94.7879 159.924 90.0919 157.712 85.2079C155.5 80.3239 154.056 74.2559 156.444 68.1359C159.144 61.2239 159.888 61.3359 156.376 51.4879C156.068 50.6279 156.376 50.5919 156.776 51.1439C157.176 51.6959 159.788 58.2079 160.096 59.9919C160.096 59.9919 162.612 55.8119 163.536 55.7519C164.46 55.6919 164.14 55.8519 163.536 56.5519C159.216 61.5359 156.84 69.6359 156.716 73.6279C156.592 77.6199 158.684 81.9199 158.684 81.9199C158.684 81.9199 161.508 77.6199 163.352 75.8399C165.196 74.0599 166.424 71.3559 165.44 68.9599C164.456 66.5639 168.532 70.1279 165.788 74.0559C165.788 74.0559 169.924 73.2559 170.908 74.9159C171.892 76.5759 168.204 72.9519 164.58 76.2079C162.419 78.1383 160.789 80.5913 159.848 83.3319C159.848 83.3319 163.38 91.3679 162.248 95.8639C160.432 103.176 161.78 106.032 161.78 106.032Z" fill="#7D7DDE"/>
<path opacity="0.5" d="M161.78 106.032H156.052C156.052 106.032 155.608 104.74 157.252 99.7639C158.896 94.7879 159.924 90.0919 157.712 85.2079C155.5 80.3239 154.056 74.2559 156.444 68.1359C159.144 61.2239 159.888 61.3359 156.376 51.4879C156.068 50.6279 156.376 50.5919 156.776 51.1439C157.176 51.6959 159.788 58.2079 160.096 59.9919C160.096 59.9919 162.612 55.8119 163.536 55.7519C164.46 55.6919 164.14 55.8519 163.536 56.5519C159.216 61.5359 156.84 69.6359 156.716 73.6279C156.592 77.6199 158.684 81.9199 158.684 81.9199C158.684 81.9199 161.508 77.6199 163.352 75.8399C165.196 74.0599 166.424 71.3559 165.44 68.9599C164.456 66.5639 168.532 70.1279 165.788 74.0559C165.788 74.0559 169.924 73.2559 170.908 74.9159C171.892 76.5759 168.204 72.9519 164.58 76.2079C162.419 78.1383 160.789 80.5913 159.848 83.3319C159.848 83.3319 163.38 91.3679 162.248 95.8639C160.432 103.176 161.78 106.032 161.78 106.032Z" fill="black"/>
<path d="M160.66 82.3319C160.66 82.3319 165.8 80.9119 168.588 85.9319C168.588 85.9479 163.348 86.9079 160.66 82.3319Z" fill="#37474F"/>
<path d="M148.052 54.8039C148.052 54.8039 152.764 52.3039 156.576 56.6159C156.576 56.6159 151.664 58.6879 148.052 54.8039Z" fill="#37474F"/>
<path d="M161.968 80.9479C162.753 80.1865 163.77 79.7098 164.858 79.5938C165.945 79.4778 167.04 79.7292 167.968 80.3079C167.968 80.3079 165.176 82.7239 161.968 80.9479Z" fill="#37474F"/>
<path d="M159.648 55.1919C159.804 54.1116 160.318 53.1146 161.106 52.36C161.895 51.6053 162.914 51.1364 164 51.0279C164 51.0279 163.272 54.6399 159.648 55.1919Z" fill="#37474F"/>
<path d="M149.248 67.7399C150.323 67.5526 151.43 67.7299 152.392 68.2438C153.355 68.7577 154.118 69.5785 154.56 70.5759C154.56 70.5759 150.904 71.0079 149.248 67.7399Z" fill="#37474F"/>
<path d="M152.392 92.6839L152.716 96.5399L153.712 108.296H164.376L165.372 96.5399L165.696 92.6839H152.392Z" fill="#455A64"/>
<path d="M152.392 92.6839L152.716 96.5399H165.372L165.696 92.6839H152.392Z" fill="#263238"/>
<path d="M151.344 94.8359H166.744V91.1359H151.344V94.8359Z" fill="#455A64"/>
<path d="M116.504 118.868H123.128C123.128 118.868 118.9 112.976 117.928 109.816C116.512 105.14 118.984 100.616 122.348 98.1199C123.876 96.9839 125.448 98.6439 127.66 98.1199C130.384 97.4639 130.32 95.1839 130.212 94.9599C130.104 94.7359 129.724 96.9599 128.42 97.3839C125.428 98.3879 124.42 96.1239 121.732 97.0399C121.836 96.0874 121.851 95.1272 121.776 94.1719C121.652 92.5719 123.324 87.9159 127.776 88.3919C128.348 88.4559 128 88.0639 126.952 87.9919C126.212 87.9752 125.477 88.1114 124.792 88.3919C125.353 87.7334 125.71 86.9259 125.82 86.0679C125.924 84.7719 126.704 83.9679 126.62 83.7639C126.536 83.5599 125.876 84.0119 125.588 85.3639C125.588 85.3639 124.932 87.4839 124.148 88.1639C123.364 88.8439 121.748 90.7199 121.348 92.5639C121.348 92.5639 121.232 91.4159 121.036 89.2079C120.892 87.5879 119.904 86.2839 119.656 86.3879C119.408 86.4919 120.604 87.9119 120.664 89.4319C120.724 90.9519 120.436 92.5999 120.732 93.8639C121.212 95.8839 120.704 98.0919 119.74 99.2039C118.776 100.316 116.264 102.584 116.14 106.656C116.016 110.728 117.532 117.168 116.504 118.868Z" fill="#7D7DDE"/>
<g opacity="0.5">
<path d="M116.504 118.868H123.128C123.128 118.868 118.9 112.976 117.928 109.816C116.512 105.14 118.984 100.616 122.348 98.1199C123.876 96.9839 125.448 98.6439 127.66 98.1199C130.384 97.4639 130.32 95.1839 130.212 94.9599C130.104 94.7359 129.724 96.9599 128.42 97.3839C125.428 98.3879 124.42 96.1239 121.732 97.0399C121.836 96.0874 121.851 95.1272 121.776 94.1719C121.652 92.5719 123.324 87.9159 127.776 88.3919C128.348 88.4559 128 88.0639 126.952 87.9919C126.212 87.9752 125.477 88.1114 124.792 88.3919C125.353 87.7334 125.71 86.9259 125.82 86.0679C125.924 84.7719 126.704 83.9679 126.62 83.7639C126.536 83.5599 125.876 84.0119 125.588 85.3639C125.588 85.3639 124.932 87.4839 124.148 88.1639C123.364 88.8439 121.748 90.7199 121.348 92.5639C121.348 92.5639 121.232 91.4159 121.036 89.2079C120.892 87.5879 119.904 86.2839 119.656 86.3879C119.408 86.4919 120.604 87.9119 120.664 89.4319C120.724 90.9519 120.436 92.5999 120.732 93.8639C121.212 95.8839 120.704 98.0919 119.74 99.2039C118.776 100.316 116.264 102.584 116.14 106.656C116.016 110.728 117.532 117.168 116.504 118.868Z" fill="black"/>
</g>
<path d="M120.5 96.3199C120.5 96.3199 115.948 97.0519 114.032 92.4599C114.032 92.4679 118.628 92.1359 120.5 96.3199Z" fill="#37474F"/>
<path d="M120.224 97.3839C119.696 98.1652 118.921 98.7471 118.024 99.0371C117.126 99.3271 116.158 99.3084 115.272 98.9839C115.272 98.9839 117.2 96.4679 120.224 97.3839Z" fill="#37474F"/>
<path d="M134.28 99.7839C133.362 99.9983 132.399 99.8993 131.543 99.5028C130.688 99.1063 129.99 98.4351 129.56 97.5959C129.56 97.5959 132.692 97.0439 134.28 99.7839Z" fill="#37474F"/>
<path d="M124.684 86.7799C123.757 86.6077 122.913 86.1302 122.289 85.4235C121.664 84.7168 121.293 83.8215 121.236 82.8799C121.236 82.8799 124.328 83.6319 124.684 86.7799Z" fill="#37474F"/>
<path d="M113.572 106.6L113.896 110.456L114.892 122.212H125.56L126.552 110.456L126.88 106.6H113.572Z" fill="#455A64"/>
<path d="M113.572 106.6L113.896 110.456H126.552L126.88 106.6H113.572Z" fill="#263238"/>
<path d="M112.524 108.752H127.924V105.052H112.524V108.752Z" fill="#455A64"/>
<path d="M75.708 131.668H81.076C81.076 131.668 77.648 126.892 76.876 124.332C75.728 120.544 77.732 116.88 80.456 114.856C81.696 113.936 82.968 115.28 84.76 114.856C86.968 114.32 86.916 112.456 86.828 112.292C86.74 112.128 86.428 113.892 85.376 114.26C82.952 115.06 82.128 113.236 79.956 113.98C79.9204 113.209 79.9351 112.437 80 111.668C80.22 108.94 82.452 106.968 82.452 106.968C82.9053 106.433 83.1943 105.779 83.284 105.084C83.368 104.032 84 103.384 83.932 103.216C83.864 103.048 83.332 103.416 83.1 104.516C83.1 104.516 82.568 106.232 81.932 106.784C81.296 107.336 79.988 108.856 79.656 110.34C79.656 110.34 79.132 114.816 78.348 115.72C77.564 116.624 75.548 118.456 75.432 121.756C75.316 125.056 76.54 130.308 75.708 131.668Z" fill="#7D7DDE"/>
<g opacity="0.5">
<path d="M75.708 131.668H81.076C81.076 131.668 77.648 126.892 76.876 124.332C75.728 120.544 77.732 116.88 80.456 114.856C81.696 113.936 82.968 115.28 84.76 114.856C86.968 114.32 86.916 112.456 86.828 112.292C86.74 112.128 86.428 113.892 85.376 114.26C82.952 115.06 82.128 113.236 79.956 113.98C79.9204 113.209 79.9351 112.437 80 111.668C80.22 108.94 82.452 106.968 82.452 106.968C82.9053 106.433 83.1943 105.779 83.284 105.084C83.368 104.032 84 103.384 83.932 103.216C83.864 103.048 83.332 103.416 83.1 104.516C83.1 104.516 82.568 106.232 81.932 106.784C81.296 107.336 79.988 108.856 79.656 110.34C79.656 110.34 79.132 114.816 78.348 115.72C77.564 116.624 75.548 118.456 75.432 121.756C75.316 125.056 76.54 130.308 75.708 131.668Z" fill="black"/>
</g>
<path d="M79.052 111.716C78.1073 111.686 77.1997 111.341 76.4745 110.735C75.7493 110.128 75.2485 109.297 75.052 108.372C75.052 108.372 78.232 108.656 79.052 111.716Z" fill="#37474F"/>
<path d="M91.312 110.068C90.9763 110.949 90.356 111.693 89.5494 112.181C88.7429 112.67 87.7963 112.875 86.86 112.764C86.86 112.764 88.148 109.84 91.312 110.068Z" fill="#37474F"/>
<path d="M83.468 103.288C82.6247 102.865 81.9472 102.172 81.5434 101.32C81.1396 100.467 81.0328 99.5042 81.24 98.5839C81.24 98.5839 84 100.164 83.468 103.288Z" fill="#37474F"/>
<path d="M71.46 120.408L71.784 124.264L72.78 136.02H83.444L84.44 124.264L84.764 120.408H71.46Z" fill="#455A64"/>
<path d="M71.46 120.408L71.784 124.264H84.44L84.764 120.408H71.46Z" fill="#263238"/>
<path d="M70.412 122.56H85.812V118.86H70.412V122.56Z" fill="#455A64"/>
<path d="M39.244 140.624H43.484C43.484 140.624 40.776 136.848 40.164 134.824C39.26 131.832 41.196 128.496 42.84 127.452C43.872 126.804 44.98 127.672 46.396 127.328C48.14 126.928 48.1 125.448 48.032 125.304C47.964 125.16 47.72 126.576 46.884 126.856C44.968 127.5 44.316 126.056 42.6 126.636C42.6 126.636 42.664 124.324 40.88 123.256C40.56 123.064 41.616 124.164 41.896 125.464C42.0211 125.901 42.0342 126.362 41.9343 126.805C41.8343 127.248 41.6244 127.659 41.324 128C40.712 128.72 39.1 130.164 39.02 132.776C38.94 135.388 39.9 139.544 39.244 140.624Z" fill="#7D7DDE"/>
<g opacity="0.5">
<path d="M39.244 140.624H43.484C43.484 140.624 40.776 136.848 40.164 134.824C39.26 131.832 41.196 128.496 42.84 127.452C43.872 126.804 44.98 127.672 46.396 127.328C48.14 126.928 48.1 125.448 48.032 125.304C47.964 125.16 47.72 126.576 46.884 126.856C44.968 127.5 44.316 126.056 42.6 126.636C42.6 126.636 42.664 124.324 40.88 123.256C40.56 123.064 41.616 124.164 41.896 125.464C42.0211 125.901 42.0342 126.362 41.9343 126.805C41.8343 127.248 41.6244 127.659 41.324 128C40.712 128.72 39.1 130.164 39.02 132.776C38.94 135.388 39.9 139.544 39.244 140.624Z" fill="black"/>
</g>
<path d="M34.304 134.268L34.628 138.124L35.624 149.88H46.288L47.284 138.124L47.608 134.268H34.304Z" fill="#455A64"/>
<path d="M34.304 134.268L34.628 138.124H47.284L47.608 134.268H34.304Z" fill="#263238"/>
<path d="M33.256 136.42H48.656V132.72H33.256V136.42Z" fill="#455A64"/>
<path d="M16.1479 180.008L37.1119 179.908L58.0719 179.876L100 179.808L141.928 179.872L162.892 179.908L183.852 180.008L162.892 180.104L141.928 180.14L100 180.208L58.0719 180.14L37.1119 180.104L16.1479 180.008Z" fill="#263238"/>
<path d="M105.372 39.5359C105.372 39.576 105.432 39.572 105.432 39.5359C105.488 37.648 107.348 36.392 107.288 34.468C107.236 33.6185 106.943 32.8014 106.444 32.112C106.114 31.668 105.756 31.2458 105.372 30.8479L105.22 30.64C104.89 30.2091 104.598 29.75 104.348 29.268C104.093 28.7004 103.94 28.0925 103.896 27.472C103.772 26.272 103.732 25.072 102.904 24.144C102.179 23.3897 101.241 22.8735 100.216 22.664C97.952 22.112 95.256 22.508 93.756 24.448C93.4928 24.7906 93.2824 25.1709 93.132 25.576C92.3165 26.2088 91.7182 27.0797 91.42 28.068C91.068 29.428 91.976 30.54 91.892 31.22C91.82 31.816 91.452 32.328 91.212 32.864C90.9535 33.3174 90.7289 33.7894 90.54 34.276C90.3169 34.9598 90.2988 35.694 90.488 36.388C90.627 37.0248 90.9195 37.618 91.34 38.116C91.7627 38.563 92.3037 38.8807 92.9 39.032C93.04 39.076 93.184 39.1159 93.328 39.152C93.824 39.424 94.364 39.628 94.84 39.952C95.3598 40.3002 95.734 40.8267 95.892 41.432C96.056 41.992 96.112 42.576 96.236 43.144C96.3455 43.6733 96.5575 44.176 96.86 44.624C97.4814 45.4999 98.3741 46.1465 99.4 46.4639C100.598 46.816 101.865 46.86 103.084 46.5919C103.629 46.5203 104.153 46.3365 104.623 46.0522C105.093 45.7679 105.5 45.3892 105.816 44.94C106.079 44.5221 106.25 44.0534 106.319 43.5647C106.388 43.076 106.353 42.5782 106.216 42.1039C106.002 41.5458 105.734 41.0099 105.416 40.504C105.123 39.9896 104.999 39.3966 105.06 38.808C105.332 36.868 107.2 35.352 106.716 33.268C106.575 32.7384 106.345 32.2367 106.036 31.784C106.613 32.4562 106.992 33.2764 107.128 34.152C107.2 35.1001 106.949 36.0447 106.416 36.832C105.932 37.668 105.36 38.5319 105.372 39.5359ZM92.972 38.952C92.1531 38.7342 91.454 38.2005 91.028 37.468C90.5611 36.6472 90.3756 35.6961 90.5 34.76C90.5929 34.3177 90.7478 33.8909 90.96 33.492C90.9593 33.4813 90.9593 33.4706 90.96 33.46C90.8806 33.7452 90.827 34.0371 90.8 34.332C90.7284 35.2799 90.915 36.2296 91.34 37.08C91.715 37.8426 92.2849 38.4926 92.992 38.9639L92.972 38.952Z" fill="#263238"/>
<path d="M97.288 39.992C98.856 47.888 102.848 54.816 105.192 55.356C108.552 56.124 117.516 55.1 121.592 53.892C122.792 53.536 119.844 44.292 118.564 44.656C117.02 45.112 108.04 47.2079 107.88 47.2039C107.532 47.2039 102.136 40.0319 100.844 38.176C98.472 34.776 96.436 35.696 97.288 39.992Z" fill="#F7A9A0"/>
<path d="M126.612 52.404C124.908 53.436 120.612 54.188 119.496 53.968C118.38 53.748 116.868 46.472 117.62 45.592C118.372 44.712 124.372 41.668 126.4 41.94C128.428 42.212 128.372 51.336 126.612 52.404Z" fill="#F7A9A0"/>
<path d="M146.584 46.0359L145.816 49.5999L148.836 51.4319L146.584 46.0359Z" fill="#37474F"/>
<path d="M138.164 51.9119L135.908 56.5599L146.7 50.1439L145.964 48.9759L138.164 51.9119Z" fill="#455A64"/>
<path d="M131.056 46.9039C131.056 46.9039 129.2 40.1959 127.4 39.7959C125.6 39.3959 122.076 50.0959 125.4 53.4479C126.46 54.5279 128.576 54.1159 128.576 54.1159L131.056 46.9039ZM126 52.5599C123.42 49.9519 126.064 41.0039 127.468 41.3119C128.872 41.6199 130.4 47.4639 130.4 47.4639L128.46 53.0639C128.46 53.0639 126.824 53.3959 126 52.5599Z" fill="#455A64"/>
<path d="M138.636 59.596L126.724 57.364L131.972 40.096L139.6 41.596L138.636 59.596Z" fill="#37474F"/>
<path d="M131.972 40.096L130.992 38.584L140.78 40.308L139.6 41.596L131.972 40.096Z" fill="#455A64"/>
<path d="M148.052 46.6919C148.052 46.6919 149.092 45.3039 149.432 45.8919C149.772 46.4799 148.052 46.6919 148.052 46.6919Z" fill="#455A64"/>
<path d="M148.4 48.9079C148.4 48.9079 149.656 47.7079 149.892 48.3559C150.128 49.0039 148.4 48.9079 148.4 48.9079Z" fill="#455A64"/>
<path d="M150.448 47.412C150.448 47.412 152.02 46.688 152.048 47.368C152.076 48.048 150.448 47.412 150.448 47.412Z" fill="#455A64"/>
<path d="M151.328 49.132C151.328 49.132 152.956 48.54 152.928 49.224C152.9 49.908 151.328 49.132 151.328 49.132Z" fill="#455A64"/>
<path d="M151.284 45.948C151.284 45.948 152.7 44.948 152.844 45.616C152.988 46.284 151.284 45.948 151.284 45.948Z" fill="#455A64"/>
<path d="M153.24 47.3439C153.24 47.3439 154.896 46.8279 154.84 47.5079C154.784 48.1879 153.24 47.3439 153.24 47.3439Z" fill="#455A64"/>
<path d="M149.2 51.268C149.2 51.268 150.916 51.524 150.556 52.104C150.196 52.684 149.2 51.268 149.2 51.268Z" fill="#455A64"/>
<path d="M152.848 54.148C152.848 54.148 154.156 55.288 153.54 55.584C152.924 55.88 152.848 54.148 152.848 54.148Z" fill="#455A64"/>
<path d="M150.892 53.0599C150.892 53.0599 152.396 53.9239 151.848 54.3319C151.3 54.7399 150.892 53.0599 150.892 53.0599Z" fill="#455A64"/>
<path d="M149.816 50.3039C149.816 50.3039 151.524 50.0239 151.36 50.7039C151.196 51.3839 149.816 50.3039 149.816 50.3039Z" fill="#455A64"/>
<path d="M152 51.6879C152 51.6879 153.6 52.3119 153.14 52.7999C152.68 53.2879 152 51.6879 152 51.6879Z" fill="#455A64"/>
<path d="M123.2 42.16C122.712 43.092 124.092 43.132 124.092 43.132C124.092 43.132 122.092 43.532 121.96 44.732C121.828 45.932 123.504 45.84 123.624 45.84C123.52 45.864 121.692 46.296 121.68 47.476C121.668 48.656 123.344 48.4 123.452 48.38C123.356 48.436 122.14 49.18 122.336 50.056C122.668 51.596 125.832 49.828 127.044 50.228C127.044 50.228 126.604 52.36 126.604 52.424C126.604 52.424 129.648 50.824 130.092 49.14C130.161 48.8992 130.145 48.642 130.048 48.4113C129.95 48.1806 129.777 47.9902 129.556 47.872C129.556 47.872 130.596 47.472 130.636 46.532C130.636 46.056 129.908 45.6 129.908 45.6C130.139 45.4932 130.336 45.3246 130.477 45.1128C130.618 44.901 130.698 44.6543 130.708 44.4C130.708 43.74 129.948 43.392 129.948 43.392C129.948 43.392 130.572 42.676 130.348 42.004C129.892 40.64 124.256 40.16 123.2 42.16Z" fill="#F7A9A0"/>
<path d="M129.948 45.572C129.968 45.572 129.976 45.54 129.948 45.532C127.863 44.845 125.602 44.9258 123.572 45.76C123.504 45.792 123.472 45.892 123.572 45.86C124.964 45.36 128.144 45.268 129.948 45.572Z" fill="#263238"/>
<path d="M123.336 48.4679C125.336 47.6679 127.376 47.5959 129.488 47.8159C129.516 47.8159 129.52 47.7799 129.488 47.7719C128.484 47.3719 127.12 47.3719 126.06 47.4679C125.075 47.5348 124.124 47.856 123.3 48.3999C123.276 48.4279 123.296 48.4919 123.336 48.4679Z" fill="#263238"/>
<path d="M124.1 43.132C123.724 43.2494 123.36 43.4006 123.012 43.5839C122.666 43.7466 122.369 43.9977 122.152 44.3119C122.061 44.4631 122.028 44.6424 122.06 44.816C122.097 44.9889 122.177 45.1498 122.292 45.2839C122.418 45.4081 122.568 45.5043 122.734 45.5664C122.899 45.6284 123.076 45.6548 123.252 45.6439H124.116L123.316 45.96C122.956 46.0964 122.621 46.2909 122.324 46.5359C122.181 46.6422 122.062 46.7772 121.975 46.9322C121.887 47.0872 121.833 47.2588 121.816 47.4359C121.802 47.6011 121.845 47.7661 121.938 47.9031C122.031 48.0401 122.169 48.1407 122.328 48.188C122.684 48.2881 123.06 48.2964 123.42 48.2119L124.424 48.0079L123.548 48.5239C123.304 48.6697 123.078 48.8443 122.876 49.044C122.678 49.2278 122.539 49.4657 122.476 49.7279C122.452 49.8468 122.463 49.9699 122.506 50.0831C122.549 50.1963 122.623 50.295 122.72 50.3679C122.963 50.5055 123.241 50.5682 123.52 50.5479C124.113 50.5213 124.703 50.4477 125.284 50.3279C125.58 50.2799 125.876 50.2279 126.176 50.1919C126.474 50.1404 126.779 50.1513 127.072 50.2239C126.777 50.1852 126.477 50.2028 126.188 50.2759C125.896 50.3319 125.604 50.4039 125.312 50.4759C124.727 50.6382 124.129 50.7453 123.524 50.7959C123.197 50.8266 122.868 50.7628 122.576 50.6119C122.425 50.5119 122.307 50.37 122.236 50.2037C122.165 50.0374 122.144 49.854 122.176 49.6759C122.247 49.3488 122.412 49.0498 122.652 48.8159C122.872 48.5897 123.119 48.3922 123.388 48.2279L123.516 48.544C123.091 48.6558 122.645 48.6558 122.22 48.544C121.987 48.4704 121.787 48.3193 121.652 48.116C121.528 47.9115 121.468 47.6747 121.48 47.4359C121.501 47.212 121.57 46.995 121.681 46.7993C121.792 46.6035 121.943 46.4334 122.124 46.2999C122.446 46.032 122.809 45.8185 123.2 45.6679L123.26 45.9679C123.04 45.9736 122.821 45.9311 122.62 45.8433C122.418 45.7556 122.238 45.6247 122.092 45.46C121.958 45.2862 121.871 45.081 121.84 44.8639C121.808 44.6427 121.859 44.4174 121.984 44.232C122.233 43.9026 122.57 43.6502 122.956 43.5039C123.322 43.3361 123.706 43.2113 124.1 43.132Z" fill="#263238"/>
<path d="M118.552 44.896C118.552 44.896 123.468 38.028 125.2 41.268C125.72 42.228 126.7 46.796 125.784 47.008C124.584 47.284 123.84 45.456 123.544 44.232C123.544 44.232 122.2 46.804 120.132 46.4C119.756 46.3193 119.409 46.1361 119.13 45.8707C118.851 45.6053 118.651 45.2679 118.552 44.896Z" fill="#F7A9A0"/>
<path d="M125.048 41.004C125.294 41.3569 125.488 41.7436 125.624 42.152C125.772 42.5575 125.891 42.9733 125.98 43.396C126.177 44.2381 126.297 45.0962 126.34 45.96C126.353 46.1897 126.333 46.42 126.28 46.644C126.248 46.7727 126.188 46.8928 126.104 46.996C126.058 47.0518 126.004 47.1003 125.944 47.14C125.881 47.1751 125.814 47.202 125.744 47.22C125.491 47.2728 125.228 47.2345 125 47.112C124.793 46.9966 124.608 46.8464 124.452 46.668C124.167 46.3231 123.942 45.9322 123.788 45.512C123.624 45.1065 123.49 44.6893 123.388 44.264L123.664 44.292C123.502 44.5769 123.312 44.8449 123.096 45.092C122.889 45.3475 122.656 45.5807 122.4 45.788C122.139 45.9885 121.851 46.1501 121.544 46.268C121.241 46.3862 120.918 46.4446 120.592 46.44C120.909 46.4021 121.217 46.3115 121.504 46.172C121.784 46.0321 122.044 45.8544 122.276 45.644C122.511 45.4359 122.725 45.204 122.912 44.952C123.102 44.7019 123.266 44.434 123.404 44.152L123.576 43.808L123.684 44.184C123.792 44.5921 123.925 44.9929 124.084 45.384C124.236 45.7643 124.445 46.1191 124.704 46.436C124.81 46.5837 124.952 46.7018 125.117 46.7789C125.281 46.8559 125.463 46.8894 125.644 46.876C125.932 46.832 125.988 46.364 125.988 45.964C125.982 45.5428 125.954 45.1222 125.904 44.704C125.864 44.304 125.816 43.86 125.744 43.44C125.64 42.5967 125.405 41.7749 125.048 41.004Z" fill="#263238"/>
<path d="M111.752 46.196L112.4 55.984C112.4 55.984 105.952 56.852 104.172 55.376C102.392 53.9 98.284 46.644 97.284 40.9C96.284 35.156 98.348 34.28 101.712 39.16C105.076 44.04 107.76 47.036 107.92 47.028C108.08 47.02 111.752 46.196 111.752 46.196Z" fill="#7D7DDE"/>
<path d="M110 46.9799C110 46.9725 109.997 46.9654 109.992 46.9602C109.987 46.9549 109.979 46.952 109.972 46.952C109.965 46.952 109.957 46.9549 109.952 46.9602C109.947 46.9654 109.944 46.9725 109.944 46.9799C109.939 49.8609 110.093 52.7399 110.404 55.6039C110.404 55.6359 110.46 55.6319 110.46 55.6039C110.463 52.7231 110.309 49.8442 110 46.9799Z" fill="#263238"/>
<path opacity="0.1" d="M107.108 56.192C105.884 56.104 104.772 55.868 104.176 55.392C102.396 53.912 98.288 46.664 97.284 40.916C96.556 36.764 97.436 35.156 99.248 36.428L107.108 56.192Z" fill="black"/>
<path d="M91.632 136.988C90.864 137.076 70.34 132.7 69.664 132.036C69.404 131.792 69.868 128.764 70.532 125.12C70.5339 125.083 70.5339 125.045 70.532 125.008C70.668 124.256 74.284 111.692 74.284 111.692L87.66 114.844L83.828 127.668L83.772 127.892C83.772 127.892 90.88 133.092 91.548 133.892C92.216 134.692 92.4 136.9 91.632 136.988Z" fill="#F7A9A0"/>
<path d="M70.208 126.932C69.728 129.732 69.448 131.832 69.664 132.036C70.34 132.704 90.864 137.076 91.636 136.988C92.408 136.9 92.208 134.704 91.548 133.9C91.148 133.408 88.348 131.292 86.22 129.708C87.644 130.86 89.692 133.616 80.908 130.796C75.488 129.052 72.1 127.732 70.208 126.932Z" fill="#263238"/>
<path d="M99.4 52.868C99.4 52.868 100.548 62.676 98.524 64.912C98.524 64.912 95.408 87.144 94.124 93.652C92.432 102.236 85.6 124.112 85.6 124.112L70.964 120.572C70.964 120.572 80.212 92.704 80.284 92.144C80.684 88.968 83.084 66.9159 82.892 66.3719C80.4 59.3399 83.712 52.868 83.712 52.868H99.4Z" fill="#37474F"/>
<path d="M85.32 120.176C83.28 119.616 83.876 119.736 81.828 119.204C80.828 118.944 74.228 117.236 73.256 117.204C73.232 117.204 73.224 117.252 73.256 117.26C74.144 117.696 80.764 119.26 81.772 119.488C83.832 119.968 83.248 119.8 85.316 120.252C85.336 120.264 85.356 120.188 85.32 120.176Z" fill="#263238"/>
<path d="M83.752 117.756L88.184 102.156L89.28 98.2519L89.8159 96.2959C90.0011 95.651 90.1454 94.995 90.2479 94.3319C90.6479 91.6599 90.9839 88.9759 91.3359 86.2959L93.492 70.2199L94.032 66.1999L94.308 64.1999C94.36 63.8599 94.396 63.5359 94.456 63.1839C94.4892 63.0245 94.5093 62.8627 94.5159 62.6999V62.1959C94.5719 59.4959 94.556 56.7879 94.544 54.0839C94.604 56.7879 94.672 59.4919 94.664 62.1959C94.664 62.3679 94.664 62.5359 94.664 62.7079C94.6545 62.8823 94.6345 63.056 94.6039 63.2279C94.5519 63.5399 94.512 63.8919 94.464 64.2199L94.2 66.2199L93.684 70.2399L91.628 86.3319C91.26 89.0119 90.9 91.6879 90.488 94.3639C90.3823 95.0396 90.2326 95.7077 90.04 96.3639L89.4919 98.3199L88.3719 102.216L86.0919 110L83.752 117.756Z" fill="#263238"/>
<path d="M98.52 64.9039C98.52 64.9039 97.296 73.644 96.068 81.764L83.708 52.868H99.4C99.4 52.868 100.544 62.6679 98.52 64.9039Z" fill="#263238"/>
<path d="M123.6 122.216C122.868 122.456 101.88 122.292 101.088 121.776C100.784 121.588 103.04 102.944 103.04 102.944L116.448 103.52L114.08 114.896C114.08 114.896 122.08 118.552 122.88 119.208C123.68 119.864 124.328 121.976 123.6 122.216Z" fill="#F7A9A0"/>
<path d="M123.6 122.212C123.276 122.32 119.044 122.348 114.332 122.304H113.396L110.976 122.272L110.04 122.252L109.12 122.232L107.744 122.2L106.884 122.176L106.06 122.152C105.66 122.152 105.26 122.128 104.904 122.108L104.176 122.08C103.72 122.06 103.304 122.036 102.936 122.012C102.748 122.012 102.572 121.988 102.412 121.976C102.012 121.944 101.688 121.912 101.468 121.876C101.349 121.865 101.233 121.835 101.124 121.788C101.016 121.724 101.084 119.452 101.216 116.5C103.24 116.976 106.948 117.72 112.616 118.536C121.936 119.876 119.156 117.368 117.576 116.516L117.528 116.492L117.824 116.632L117.876 116.652L118.416 116.912L119.008 117.192C119.332 117.348 119.66 117.504 119.972 117.66C120.284 117.816 120.592 117.96 120.876 118.104L121.372 118.348L121.6 118.468L121.9 118.624C122.108 118.732 122.3 118.832 122.452 118.924C122.491 118.94 122.529 118.96 122.564 118.984C122.692 119.055 122.814 119.133 122.932 119.22C123.696 119.86 124.328 121.976 123.6 122.212Z" fill="#263238"/>
<path d="M115.832 109.668L101.784 109.84C101.784 109.84 105.264 84.36 104.9 83.152C104.76 82.68 87.7 67.2239 87.7 67.2239C81.588 61.1999 83.7 52.8559 83.7 52.8559H99.4C99.4 52.8559 99.612 55.304 100.436 56.232C105.156 61.528 117.2 72.4679 119.028 77.3479C121.34 83.4559 115.832 109.668 115.832 109.668Z" fill="#37474F"/>
<path d="M83.7521 58.2639C83.8004 59.1989 83.9739 60.1232 84.2681 61.0119C84.5482 61.8974 84.9167 62.7523 85.3681 63.5639C86.275 65.1899 87.3971 66.686 88.7041 68.0119C89.9841 69.3679 91.3801 70.6159 92.7681 71.8719C93.4641 72.5013 94.1654 73.1226 94.8721 73.7359L96.9881 75.5879C96.2281 75.0399 95.4881 74.4599 94.7441 73.8879C94.0001 73.3159 93.2881 72.6879 92.5641 72.1079C91.1321 70.9079 89.7321 69.6359 88.4161 68.2839C87.0955 66.9268 85.9785 65.3855 85.1001 63.7079C84.2007 62.0353 83.7371 60.163 83.7521 58.2639Z" fill="#263238"/>
<path d="M95.7561 54.068C95.7237 54.6711 95.7681 55.276 95.8881 55.868C95.9416 56.162 96.0387 56.4465 96.1761 56.712C96.3481 56.956 96.5521 57.184 96.7481 57.412C97.5481 58.316 98.3481 59.196 99.1921 60.08L104.136 65.376C105.789 67.1386 107.425 68.916 109.044 70.708C110.668 72.5 112.284 74.308 113.844 76.156C114.244 76.624 114.608 77.096 114.968 77.588C115.144 77.836 115.32 78.084 115.48 78.356C115.566 78.4939 115.632 78.6434 115.676 78.8C115.719 78.9497 115.752 79.102 115.776 79.256C115.912 80.4671 115.939 81.688 115.856 82.9039C115.736 85.3039 115.488 87.728 115.192 90.124C114.596 94.924 113.844 99.696 112.996 104.448C113.372 102.064 113.721 99.6746 114.044 97.28C114.38 94.88 114.692 92.4799 114.96 90.08C115.228 87.68 115.476 85.28 115.584 82.88C115.66 81.6796 115.63 80.4748 115.492 79.28C115.469 79.1357 115.439 78.9928 115.4 78.852C115.36 78.7193 115.302 78.5928 115.228 78.476C115.08 78.224 114.908 77.9799 114.732 77.736C114.376 77.256 113.996 76.788 113.616 76.324C110.532 72.616 107.216 69.084 103.984 65.524L99.1001 60.1719C98.3001 59.2719 97.5001 58.372 96.7001 57.448C96.5081 57.216 96.3001 56.988 96.1401 56.736C96.0027 56.4627 95.9082 56.17 95.8601 55.868C95.7501 55.2747 95.7152 54.6699 95.7561 54.068Z" fill="#263238"/>
<path d="M114.736 106.336C112.772 106.276 113.336 106.256 111.372 106.228C110.412 106.228 104.092 106.136 103.196 106.348C103.176 106.348 103.176 106.4 103.196 106.404C104.096 106.612 110.396 106.536 111.372 106.524C113.336 106.496 112.772 106.472 114.736 106.416C114.776 106.416 114.776 106.336 114.736 106.336Z" fill="#263238"/>
<path d="M100.272 50.388L99.496 52.868C99.496 52.868 88.904 53.992 83.752 52.868C83.752 52.868 87.388 40.28 93.352 36.8C96.328 35.06 98.8959 36.048 100.048 38.256C100.34 38.816 102.448 44.188 102.448 46.444C102.444 48.836 100.272 50.388 100.272 50.388Z" fill="#7D7DDE"/>
<path d="M100.152 49.2879C99.45 49.222 98.745 49.194 98.04 49.2039C97.684 49.2039 97.336 49.2399 96.984 49.2759L96.48 49.3399C96.3 49.3639 96.116 49.4119 95.932 49.4359C95.932 49.4359 95.932 49.4679 95.932 49.4639C96.104 49.4639 96.284 49.4639 96.456 49.4639H96.984L98.04 49.4279C98.744 49.3999 99.444 49.3759 100.148 49.3679C100.192 49.3439 100.188 49.2919 100.152 49.2879Z" fill="#263238"/>
<path d="M92.8 37.168C85.572 41.404 78.92 46.824 78.8 49.384C78.66 52.832 82.06 60.236 84.18 63.916C84.804 65 93.12 59.9839 92.456 58.8239C91.656 57.4279 87.384 50.2599 87.348 50.1039C87.276 49.7639 92.868 41.9159 94.252 40.0759C96.588 36.9999 96 35.288 92.8 37.168Z" fill="#F7A9A0"/>
<path d="M98.5599 69.192C98.3678 69.4266 98.1083 69.5966 97.8164 69.6788C97.5245 69.7611 97.2143 69.7517 96.928 69.652C96.8797 70.1649 96.6532 70.6446 96.288 71.008C95.616 71.62 94.364 70.832 94.364 70.832C94.2031 71.3522 93.8895 71.8121 93.464 72.152C92.76 72.672 91.384 72.056 91.384 72.056C90.9702 72.4526 90.4282 72.6882 89.856 72.72C88.328 72.744 87.056 70.776 86.256 69.52C85.456 68.264 84.28 63.992 83.976 63.196L91.9 57.88C91.9 57.88 97.152 62.404 97.9 64C98.528 65.36 99.2639 68.268 98.5599 69.192Z" fill="#F7A9A0"/>
<path d="M97.0199 69.5119C96.6879 67.9119 95.9039 66.5119 95.1999 65.0639C95.1999 65.0319 95.1319 65.0639 95.1479 65.0919C95.8639 66.5239 96.2879 68.0799 96.9479 69.5359C96.953 69.5427 96.96 69.5476 96.968 69.5501C96.976 69.5526 96.9846 69.5525 96.9926 69.5499C97.0006 69.5472 97.0075 69.5421 97.0124 69.5353C97.0173 69.5285 97.0199 69.5203 97.0199 69.5119Z" fill="#263238"/>
<path d="M94.452 70.7359C94.3419 70.3812 94.1859 70.0423 93.988 69.7279C93.796 69.3839 93.588 69.0439 93.4 68.7079C93 68.0279 92.6 67.3639 92.148 66.7079C92.128 66.6799 92.08 66.7079 92.1 66.7319C92.5 67.4079 92.9 68.0879 93.256 68.7799C93.44 69.1239 93.624 69.4719 93.804 69.8199C93.9517 70.1608 94.1368 70.4841 94.356 70.7839C94.3642 70.7927 94.3751 70.7986 94.387 70.8008C94.3989 70.8029 94.4111 70.8011 94.4219 70.7957C94.4327 70.7903 94.4414 70.7816 94.4468 70.7708C94.4523 70.7601 94.4541 70.7478 94.452 70.7359Z" fill="#263238"/>
<path d="M91.3679 72.0279C91.2628 71.709 91.1046 71.4102 90.8999 71.1439C90.7119 70.8399 90.5239 70.5359 90.3399 70.2279C89.9679 69.6159 89.5959 69.0039 89.2439 68.3759C89.2439 68.3439 89.1799 68.3759 89.1959 68.3999C89.5479 69.0399 89.8919 69.6799 90.2479 70.3159L90.7999 71.2679C90.9387 71.5651 91.1282 71.8358 91.3599 72.0679C91.3599 72.0679 91.3719 72.0439 91.3679 72.0279Z" fill="#263238"/>
<path d="M89.636 53.668L80.288 57.604C80.288 57.604 78.068 50.86 78.888 48.692C79.708 46.524 86.34 40.492 91.44 37.668C96.54 34.844 97.168 36.58 93.656 41.352C90.144 46.124 87.656 49.912 87.732 50.06C87.808 50.208 89.636 53.668 89.636 53.668Z" fill="#7D7DDE"/>
<path d="M88.1479 51.8839C88.1759 51.8839 88.1479 51.82 88.1239 51.832C85.4066 52.7921 82.7439 53.9004 80.1479 55.152C80.1199 55.152 80.1479 55.2119 80.1719 55.2039C82.8886 54.2421 85.5512 53.1338 88.1479 51.8839Z" fill="#263238"/>
<path d="M89.636 53.6679C89.288 53.0839 88.952 52.4959 88.616 51.9079L87.62 50.132L87.6 50.0679L87.644 50.0039L89.032 47.9199C89.496 47.2239 89.976 46.5399 90.448 45.8519C90.92 45.1639 91.404 44.4799 91.888 43.8039C92.372 43.1279 92.868 42.4479 93.368 41.8039C92.932 42.5159 92.492 43.2279 92.04 43.9279C91.588 44.6279 91.136 45.3319 90.668 46.0239C90.2 46.7159 89.752 47.4159 89.276 48.1039L87.856 50.1639V50.0359L88.768 51.8519C89.052 52.4319 89.352 53.0439 89.636 53.6679Z" fill="#263238"/>
<path d="M92 43.7879C92.1781 43.5344 92.3833 43.301 92.612 43.0919C92.8371 42.8792 93.0793 42.6852 93.336 42.5119C93.2629 42.6555 93.1729 42.7897 93.068 42.9119C92.9689 43.0297 92.8634 43.1418 92.752 43.2479C92.5243 43.458 92.2718 43.6393 92 43.7879Z" fill="#263238"/>
<path d="M96.0599 36.372C96.0999 36.724 97.4599 39.14 99.0279 39.256C99.5399 39.292 99.8679 36.512 99.8679 36.512L99.9399 36.312L100.932 33.512L97.8199 30.932L97.3639 30.584C97.3639 30.584 97.1439 31.384 96.8759 32.348L96.8399 32.488C96.8399 32.544 96.8079 32.592 96.7919 32.644L96.6719 33.088C96.6399 33.204 96.6119 33.312 96.5839 33.432L96.4999 33.792C96.2962 34.6412 96.1492 35.5031 96.0599 36.372Z" fill="#F7A9A0"/>
<path d="M96.876 32.348C97.0709 33.1905 97.4456 33.9809 97.9744 34.6651C98.5033 35.3493 99.1738 35.911 99.94 36.312L100.932 33.512L97.82 30.932L97.364 30.584C97.364 30.584 97.144 31.368 96.876 32.348Z" fill="#263238"/>
<path d="M105.26 28.5559C106.06 33.7039 103.068 34.7679 101.956 34.9559C100.948 35.1119 97.496 35.5119 96.164 30.4759C94.832 25.4399 96.964 23.4359 99.26 22.9559C101.556 22.4759 104.456 23.4039 105.26 28.5559Z" fill="#F7A9A0"/>
<path d="M104.092 27.2679C103.968 27.2679 103.852 27.2679 103.732 27.2679C103.604 27.2767 103.477 27.2445 103.368 27.1759C103.338 27.1476 103.319 27.1104 103.312 27.07C103.306 27.0296 103.313 26.9881 103.332 26.9519C103.382 26.8874 103.449 26.8372 103.525 26.8063C103.6 26.7754 103.683 26.7649 103.764 26.7759C103.932 26.775 104.095 26.8362 104.22 26.9479C104.243 26.9751 104.257 27.0078 104.263 27.0427C104.268 27.0776 104.264 27.1133 104.251 27.1461C104.238 27.1788 104.216 27.2075 104.188 27.2289C104.16 27.2504 104.127 27.2639 104.092 27.2679Z" fill="#263238"/>
<path d="M100.764 28.256C100.884 28.2527 101.005 28.2434 101.124 28.228C101.251 28.2373 101.378 28.2035 101.484 28.132C101.513 28.1032 101.532 28.0657 101.537 28.0253C101.543 27.9849 101.536 27.9437 101.516 27.9079C101.465 27.8432 101.398 27.7934 101.321 27.7639C101.244 27.7343 101.161 27.726 101.08 27.7399C100.912 27.7422 100.751 27.8063 100.628 27.9199C100.602 27.9478 100.585 27.9825 100.578 28.0199C100.571 28.0574 100.575 28.096 100.589 28.1313C100.603 28.1665 100.627 28.197 100.658 28.2191C100.689 28.2412 100.726 28.254 100.764 28.256Z" fill="#263238"/>
<path d="M101.7 29.2879C101.7 29.2879 101.676 29.3119 101.68 29.3239C101.752 29.6719 101.78 30.0799 101.484 30.2559C101.868 30.1479 101.824 29.6039 101.7 29.2879Z" fill="#263238"/>
<path d="M101.324 28.98C100.752 29.04 100.924 30.18 101.44 30.12C101.956 30.06 101.8 28.932 101.324 28.98Z" fill="#263238"/>
<path d="M101.108 29.072C101.016 29.148 100.936 29.276 100.82 29.304C100.704 29.332 100.56 29.236 100.456 29.132C100.484 29.352 100.6 29.56 100.836 29.56C101.072 29.56 101.18 29.348 101.204 29.12C101.2 29.096 101.144 29.04 101.108 29.072Z" fill="#263238"/>
<path d="M103.6 28.896C103.6 28.896 103.628 28.8959 103.628 28.9199C103.664 29.2759 103.764 29.6719 104.1 29.7479C103.72 29.7639 103.6 29.236 103.6 28.896Z" fill="#263238"/>
<path d="M103.88 28.4679C104.44 28.3519 104.636 29.4799 104.116 29.5879C103.596 29.6959 103.408 28.5839 103.88 28.4679Z" fill="#263238"/>
<path d="M104.128 28.5199C104.228 28.5639 104.336 28.6559 104.44 28.6439C104.544 28.6319 104.636 28.4919 104.696 28.3639C104.696 28.3639 104.696 28.3639 104.716 28.3639C104.76 28.5799 104.716 28.8159 104.524 28.8919C104.332 28.9679 104.172 28.8039 104.084 28.5959C104.068 28.5679 104.088 28.4999 104.128 28.5199Z" fill="#263238"/>
<path d="M102.108 32.0679C102.2 32.1399 102.292 32.2479 102.424 32.2479C102.555 32.2309 102.682 32.1873 102.796 32.1199C102.796 32.1199 102.816 32.1199 102.796 32.1199C102.752 32.1939 102.688 32.2544 102.612 32.2953C102.536 32.3361 102.45 32.3557 102.364 32.3519C102.291 32.3377 102.224 32.3036 102.17 32.2535C102.116 32.2034 102.076 32.1391 102.056 32.0679C102.056 32.0611 102.059 32.0544 102.064 32.0496C102.069 32.0447 102.075 32.0419 102.082 32.0419C102.089 32.0419 102.096 32.0447 102.1 32.0496C102.105 32.0544 102.108 32.0611 102.108 32.0679Z" fill="#263238"/>
<path d="M103.38 30.5719C103.38 30.5719 103.532 31.0839 103.568 31.3319C103.568 31.3559 103.516 31.3759 103.432 31.3919C103.227 31.4602 103.007 31.4717 102.796 31.4252C102.584 31.3787 102.39 31.276 102.232 31.1279C102.212 31.1079 102.232 31.0759 102.264 31.0879C102.612 31.2562 103.005 31.3068 103.384 31.2319C103.384 31.1599 103.096 30.3639 103.132 30.3559C103.328 30.3424 103.524 30.3558 103.716 30.3959C103.428 29.3199 102.972 28.2959 102.7 27.2199C102.7 27.1799 102.748 27.1599 102.764 27.1919C103.288 28.2732 103.702 29.4042 104 30.5679C104.02 30.7039 103.484 30.5959 103.38 30.5719Z" fill="#263238"/>
<path d="M96.168 30.8679C97.056 30.8359 97.052 28.9639 97.052 28.9639C97.052 28.9639 98.844 28.7679 99.14 26.1279C99.1781 26.9048 98.9861 27.6757 98.588 28.3439C98.588 28.3439 101.708 27.6519 102.74 24.8599C102.74 24.8599 102.34 26.2679 101.92 26.7999C102.693 26.4661 103.329 25.8793 103.724 25.1359C103.724 25.1359 104.452 26.5959 104.924 26.9679C104.924 26.9679 104.168 21.4599 99.116 22.6279C99.116 22.6279 95.936 23.1999 95.072 25.8679C94.208 28.5359 96.168 30.8679 96.168 30.8679Z" fill="#263238"/>
<path d="M97.2 30.644C97.2 30.644 96.028 29.044 95.3 29.444C94.572 29.844 95.472 32.2039 96.344 32.5079C96.4533 32.5546 96.5708 32.5787 96.6896 32.5788C96.8084 32.579 96.926 32.5552 97.0354 32.5089C97.1448 32.4626 97.2437 32.3948 97.3263 32.3094C97.4089 32.224 97.4734 32.1228 97.516 32.0119L97.2 30.644Z" fill="#F7A9A0"/>
<path d="M95.6 30.1279C95.6 30.1279 95.6 30.1279 95.6 30.1519C95.8857 30.2816 96.1405 30.4707 96.3475 30.7066C96.5544 30.9425 96.7086 31.2197 96.8 31.5199C96.7635 31.4601 96.7145 31.4088 96.6562 31.3698C96.598 31.3307 96.532 31.3048 96.4628 31.2937C96.3935 31.2827 96.3227 31.2869 96.2553 31.3059C96.1878 31.3249 96.1252 31.3584 96.072 31.4039C96.072 31.4039 96.072 31.4399 96.072 31.4359C96.1779 31.3994 96.2925 31.3967 96.4 31.4283C96.5075 31.4598 96.6026 31.524 96.672 31.6119C96.7863 31.7603 96.8855 31.9198 96.968 32.0879C96.996 32.1439 97.096 32.1119 97.072 32.0479C97.044 31.2679 96.42 30.1879 95.6 30.1279Z" fill="#263238"/>
<path d="M99.868 36.56L98.688 38.7519L96.164 35.5519L95.252 36.3919C95.252 36.3919 97.524 41.3119 97.564 41.1079L98.732 39.2359L99.932 40.7639L100.212 37.2999L99.868 36.56Z" fill="white"/>
<path d="M100.176 39.04C100.2 38.464 100.244 37.888 100.244 37.316C100.244 37.296 100.212 37.28 100.208 37.316C100.032 37.856 99.94 40.048 99.88 40.568C99.828 40.5 98.748 39.216 98.736 39.232C98.496 39.524 97.64 40.884 97.58 41.012C97.22 40.212 95.828 37.376 95.384 36.612C95.384 36.588 95.34 36.612 95.348 36.612C95.652 37.412 97.484 41.264 97.52 41.256C97.9623 40.6109 98.3709 39.9433 98.744 39.256C99.1267 39.8263 99.549 40.369 100.008 40.88C100.095 40.2698 100.151 39.6557 100.176 39.04Z" fill="#263238"/>
</svg>
