<svg width="314" height="314" viewBox="0 0 314 314" fill="none" xmlns="http://www.w3.org/2000/svg">
<path d="M40.4075 96.0839L41.4967 93.5799C50.6864 72.3585 70.5494 57.5975 93.3984 55.9135C96.3386 55.6944 99.2911 55.6944 102.231 55.9135C123.44 57.466 143.503 70.612 153.676 89.511C159.66 100.641 162.74 113.981 172.312 122.151C184.769 132.793 203.136 130.645 219.174 127.929C235.212 125.212 253.604 123.115 266.012 133.8C273.787 140.499 277.417 151.04 278.275 161.344C280.56 188.557 265.06 215.306 242.768 230.611C220.476 245.917 192.438 250.862 165.507 249.191C127.778 246.837 90.0743 231.325 64.7714 202.823C39.4685 174.321 28.2756 132.267 40.4075 96.0839Z" fill="#F5F5F5"/>
<path d="M93.3796 299.634C90.7629 294.1 86.7577 289.339 81.7541 285.813C76.7505 282.287 70.9191 280.117 64.8278 279.514C67.7797 284.875 71.9188 289.489 76.9284 293.003C81.938 296.518 87.6852 298.839 93.7302 299.791L93.3796 299.634Z" fill="#4F836D"/>
<path d="M67.0501 244.014L67.2379 244.089L67.7888 244.339L69.8734 245.322L71.3758 246.036C71.9266 246.299 72.5213 246.587 73.1473 246.937L77.3979 249.235C78.9191 250.174 80.6218 251.157 82.4059 252.302L85.1039 254.136C85.5672 254.462 86.0429 254.762 86.5062 255.113L87.9022 256.177C92.0302 259.26 95.8519 262.734 99.3141 266.55L100.691 268.052C101.161 268.547 101.549 269.092 101.981 269.605L103.233 271.151C103.646 271.658 104.059 272.159 104.416 272.697L106.607 275.827L108.485 278.926C110.625 282.544 112.431 286.349 113.881 290.294C114.188 291.133 114.507 291.928 114.751 292.692C114.995 293.455 115.202 294.194 115.377 294.876C115.553 295.559 115.772 296.191 115.947 296.754C116.122 297.318 116.216 297.888 116.329 298.376C116.548 299.334 116.723 300.091 116.842 300.623C116.892 300.867 116.936 301.061 116.967 301.212C116.985 301.277 116.995 301.344 116.999 301.412C116.971 301.35 116.95 301.285 116.936 301.218C116.892 301.068 116.842 300.88 116.78 300.636C116.642 300.11 116.454 299.384 116.21 298.407L115.797 296.792C115.615 296.21 115.415 295.584 115.171 294.914L114.495 292.742C114.238 291.978 113.912 291.189 113.599 290.357C112.127 286.447 110.308 282.676 108.166 279.089L106.288 276.003L104.097 272.923C103.74 272.384 103.327 271.883 102.914 271.376L101.662 269.843C101.236 269.336 100.842 268.791 100.378 268.297L99.0074 266.8C95.5497 263.017 91.7435 259.567 87.6392 256.496L86.2558 255.432C85.7925 255.082 85.3168 254.775 84.8598 254.456L82.1743 252.609C80.4152 251.457 78.725 250.468 77.2101 249.517L73.0597 247.144C72.4337 246.793 71.8515 246.518 71.3069 246.23L69.817 245.485L67.7575 244.446L67.2254 244.17C67.1596 244.127 67.1005 244.074 67.0501 244.014Z" fill="#263238"/>
<path d="M34.0411 231.932C34.5105 232.086 34.9686 232.272 35.412 232.489C36.2509 232.852 37.409 233.347 38.711 233.848C40.0131 234.349 41.215 234.762 42.0664 235.056C42.5432 235.192 43.0097 235.361 43.4624 235.563C42.9707 235.493 42.4867 235.378 42.0163 235.219C41.1337 234.968 39.9317 234.593 38.6234 234.073C37.3151 233.554 36.1632 233.053 35.3369 232.646C34.8812 232.454 34.4469 232.215 34.0411 231.932Z" fill="#263238"/>
<path d="M33.2899 232.965C33.5134 233.073 33.764 233.112 34.0098 233.078C34.2556 233.043 34.4856 232.936 34.6705 232.77C34.8554 232.605 34.9868 232.388 35.0482 232.147C35.1095 231.907 35.0979 231.653 35.0149 231.419C34.9319 231.185 34.7813 230.981 34.5821 230.833C34.3829 230.685 34.1441 230.6 33.8962 230.587C33.6482 230.575 33.4022 230.637 33.1895 230.765C32.9768 230.893 32.8069 231.081 32.7015 231.306C32.5615 231.604 32.5448 231.946 32.655 232.256C32.7652 232.567 32.9933 232.822 33.2899 232.965Z" fill="#3F3F6F"/>
<path d="M41.6721 218.461C41.9895 218.839 42.2783 219.241 42.536 219.663C43.0556 220.414 43.788 221.447 44.6143 222.561C45.4406 223.675 46.2357 224.658 46.8178 225.372C47.1473 225.738 47.4506 226.127 47.7255 226.536C47.3437 226.22 46.9954 225.866 46.6864 225.478C46.0604 224.802 45.2591 223.826 44.4203 222.711C43.5814 221.597 42.874 220.539 42.392 219.757C42.1078 219.351 41.8666 218.916 41.6721 218.461Z" fill="#263238"/>
<path d="M46.198 219.6C46.7354 218.27 47.7376 217.181 49.0181 216.535C50.2987 215.889 51.7703 215.73 53.1591 216.088C55.131 216.67 56.6459 218.273 57.7039 220.038C60.8339 225.297 60.7462 232.289 64.8465 236.853L63.2878 241.51L51.6505 231.024C49.979 229.516 48.2826 227.976 47.1245 226.016C45.9664 224.057 45.403 221.685 46.198 219.6Z" fill="#3F3F6F"/>
<path d="M37.1524 235.588C36.2099 236.671 35.6945 238.061 35.7025 239.496C35.7106 240.932 36.2416 242.316 37.1962 243.388C38.6047 244.878 40.7268 245.504 42.7739 245.642C48.8899 246.061 55.0685 242.781 60.9967 244.352L64.4961 240.834L49.8477 235.25C47.738 234.449 45.5909 233.635 43.3435 233.485C41.0962 233.334 38.6861 233.935 37.1524 235.588Z" fill="#3F3F6F"/>
<path d="M31.8376 223.982C32.2882 224.188 32.7252 224.422 33.1459 224.683C33.9409 225.128 35.0239 225.735 36.2759 226.367C37.5279 226.999 38.6547 227.538 39.4873 227.913C39.946 228.09 40.3916 228.299 40.8207 228.539C40.339 228.421 39.8696 228.257 39.4184 228.051C38.5671 227.707 37.409 227.193 36.1632 226.561C34.9175 225.929 33.822 225.309 33.0332 224.802C32.6077 224.57 32.2071 224.295 31.8376 223.982Z" fill="#263238"/>
<path d="M30.9863 224.946C31.1978 225.076 31.4432 225.14 31.6913 225.13C31.9394 225.12 32.1789 225.037 32.3795 224.891C32.5801 224.744 32.7326 224.542 32.8177 224.308C32.9028 224.075 32.9167 223.822 32.8575 223.581C32.7983 223.34 32.6688 223.122 32.4854 222.954C32.302 222.787 32.0729 222.678 31.8274 222.641C31.5819 222.604 31.3309 222.641 31.1065 222.747C30.882 222.853 30.6942 223.024 30.5668 223.237C30.3979 223.52 30.3472 223.858 30.4257 224.178C30.5042 224.498 30.7056 224.774 30.9863 224.946Z" fill="#3F3F6F"/>
<path d="M40.4326 224.032C39.1439 224.663 38.129 225.742 37.5772 227.067C37.0254 228.391 36.9745 229.872 37.434 231.231C38.1602 233.153 39.8754 234.549 41.7096 235.469C47.1871 238.223 56.5896 238.95 61.4474 242.699L63.5946 239.45L52.2702 228.633C50.6364 227.074 48.9712 225.503 46.9555 224.489C44.9398 223.475 42.4858 223.099 40.4326 224.032Z" fill="#3F3F6F"/>
<path d="M73.1599 247.031C73.1599 247.031 67.7262 239.306 64.784 236.101C64.784 236.101 59.0749 238.993 59.6007 244.239L73.1599 247.05V247.031Z" fill="#4F836D"/>
<path d="M40.4889 218.936C40.6206 219.147 40.812 219.314 41.0387 219.415C41.2654 219.517 41.5172 219.549 41.7621 219.507C42.0069 219.465 42.2338 219.351 42.4137 219.179C42.5936 219.008 42.7185 218.787 42.7725 218.545C42.8265 218.302 42.8071 218.049 42.7168 217.818C42.6266 217.586 42.4695 217.387 42.2656 217.245C42.0617 217.103 41.8202 217.025 41.5718 217.021C41.3234 217.017 41.0794 217.086 40.8707 217.221C40.5946 217.4 40.3998 217.68 40.3283 218C40.2569 218.321 40.3146 218.658 40.4889 218.936Z" fill="#3F3F6F"/>
<path d="M49.1716 226.248C49.3672 226.372 49.5535 226.51 49.7287 226.661C50.0855 226.93 50.5863 227.344 51.1998 227.851C52.4518 228.877 54.0857 230.355 55.8573 232.001C57.6288 233.647 59.1876 235.244 60.2831 236.383C60.834 236.965 61.2722 237.441 61.5351 237.773C61.6972 237.938 61.8439 238.119 61.9733 238.311C61.7894 238.171 61.6195 238.014 61.4662 237.842L60.1579 236.502C59.0311 235.375 57.4661 233.829 55.6945 232.157C53.9229 230.486 52.2765 229.027 51.0871 227.963C50.5112 227.462 50.0355 227.037 49.6724 226.711C49.4888 226.576 49.3209 226.42 49.1716 226.248Z" fill="#263238"/>
<path d="M54.4863 236.809C55.6695 237.292 56.8196 237.852 57.9293 238.486C59.0761 239.041 60.1864 239.668 61.2533 240.364C60.0729 239.875 58.9232 239.315 57.8103 238.687C56.665 238.129 55.5549 237.502 54.4863 236.809Z" fill="#263238"/>
<path d="M61.5288 256.34C61.6178 256.296 61.7126 256.264 61.8105 256.246L62.6368 256.039C62.9936 255.946 63.4318 255.845 63.9514 255.752C64.471 255.658 65.0469 255.532 65.7042 255.445C67.2312 255.213 68.7689 255.058 70.3116 254.982C72.2039 254.897 74.0994 254.918 75.9894 255.044C77.8802 255.192 79.7612 255.447 81.6234 255.808C83.1399 256.106 84.6401 256.482 86.1181 256.935C86.7441 257.116 87.3137 257.323 87.8083 257.492C88.3028 257.661 88.7222 257.824 89.0603 257.968L89.8428 258.293C89.9358 258.325 90.0242 258.369 90.1057 258.425C90.0067 258.417 89.9095 258.394 89.8177 258.356L89.0164 258.087C88.6659 257.961 88.2465 257.817 87.7644 257.667C87.2824 257.517 86.7002 257.323 86.068 257.16C84.816 256.791 83.2823 256.428 81.5796 256.102C79.7278 255.762 77.8599 255.518 75.9831 255.37C74.1079 255.242 72.2274 255.213 70.3491 255.282C68.6214 255.357 67.0626 255.495 65.7605 255.676C65.1345 255.745 64.5085 255.858 64.0077 255.933C63.5069 256.008 63.0499 256.09 62.6869 256.165L61.8543 256.309C61.7483 256.337 61.6383 256.348 61.5288 256.34Z" fill="#263238"/>
<path d="M56.4081 260.916C56.8423 260.382 57.3925 259.954 58.0169 259.664C57.2167 259.741 56.4091 259.676 55.6318 259.47C55.2062 259.386 54.8174 259.171 54.5204 258.855C54.2235 258.539 54.0332 258.138 53.9765 257.707C53.9198 257.277 53.9995 256.84 54.2044 256.458C54.4093 256.076 54.729 255.767 55.1185 255.576C55.9002 255.131 56.7654 254.852 57.6601 254.756C62.1735 254.005 66.7496 253.767 71.1379 255.069C67.3819 258.493 63.3504 262.043 58.3737 263.12C58.0632 263.228 57.7319 263.262 57.4059 263.219C57.0799 263.177 56.7683 263.059 56.4957 262.875C56.2557 262.61 56.1156 262.269 56.0996 261.911C56.0836 261.554 56.1927 261.202 56.4081 260.916Z" fill="#3F3F6F"/>
<path d="M210.892 300.823C216.833 299.615 223.218 298.125 228.571 295.29C233.923 292.454 238.624 287.715 239.964 281.793C228.245 283.327 217.015 290.72 210.892 300.823Z" fill="#4F836D"/>
<path d="M227.932 241.235C218.167 249.091 204.676 280.047 206.323 291.002C213.083 282.2 230.693 257.079 227.932 241.235Z" fill="#4F836D"/>
<path d="M101.543 203.794C101.543 203.794 99.4518 221.979 113.061 231.062C113.4 225.934 112.535 220.797 110.535 216.062C108.535 211.328 105.455 207.126 101.543 203.794Z" fill="#4F836D"/>
<path d="M144.361 242.862C144.361 242.862 128.317 251.695 128.83 268.046C128.83 268.046 142.602 260.703 144.361 242.862Z" fill="#4F836D"/>
<path d="M73.041 218.911C73.041 218.911 87.7144 229.86 102.407 222.667C98.1434 219.796 93.2678 217.96 88.169 217.308C83.0703 216.656 77.8897 217.205 73.041 218.911Z" fill="#4F836D"/>
<path d="M102.957 238.023C102.957 238.023 110.244 254.825 126.57 255.883C126.57 255.908 120.554 241.466 102.957 238.023Z" fill="#4F836D"/>
<path d="M71.7075 183.918C71.7075 183.918 69.8295 202.135 83.5702 211.036C83.5702 211.018 85.3731 195.499 71.7075 183.918Z" fill="#4F836D"/>
<path d="M43.0242 194.742C43.0242 194.742 56.1013 207.562 71.6199 202.398C71.6199 202.398 60.596 191.305 43.0242 194.742Z" fill="#4F836D"/>
<path d="M35.8565 150.928C35.8565 150.928 35.7063 169.238 50.1982 176.825C50.1982 176.825 50.5424 161.207 35.8565 150.928Z" fill="#4F836D"/>
<path d="M53.4221 110.82C53.4221 110.82 43.0681 125.932 50.8805 140.311C50.8805 140.311 59.8824 127.54 53.4221 110.82Z" fill="#4F836D"/>
<path d="M60.4584 160.912C60.4584 160.912 50.4424 176.224 58.499 190.447C58.499 190.447 67.2442 177.501 60.4584 160.912Z" fill="#4F836D"/>
<path d="M63.7949 133.212C63.7949 133.212 47.5753 141.707 47.713 158.064C47.713 158.052 61.654 150.997 63.7949 133.212Z" fill="#4F836D"/>
<path d="M67.8451 115.596C67.8451 115.596 67.7011 115.728 67.4069 115.966L66.0986 117.036C65.5227 117.499 64.8466 118.144 64.0578 118.864C63.6572 119.227 63.2628 119.659 62.8058 120.116C62.3488 120.573 61.9044 121.036 61.4474 121.575C59.1704 124.127 57.1822 126.924 55.5192 129.913C53.3104 133.87 51.6029 138.086 50.4361 142.464C49.0079 147.776 48.2281 153.241 48.1136 158.74C48.0464 161.796 48.1761 164.853 48.5017 167.892C48.81 171.115 49.5359 174.284 50.6614 177.32C51.904 180.488 53.5045 183.504 55.4315 186.309C57.4538 189.226 59.74 191.95 62.2612 194.447C67.3631 199.593 73.5292 203.969 79.9833 208.094C86.4373 212.219 92.9853 215.975 98.9886 220.063C104.992 224.151 110.488 228.571 114.952 233.554C119.188 238.254 122.493 243.715 124.692 249.648C126.55 254.835 127.864 260.202 128.611 265.661C129.72 273.555 129.962 281.546 129.331 289.493C129.237 290.901 129.093 292.147 128.974 293.249C128.911 293.787 128.855 294.288 128.805 294.739C128.755 295.189 128.674 295.603 128.623 295.991C128.511 296.717 128.423 297.274 128.367 297.662C128.31 298.05 128.267 298.226 128.267 298.226C128.267 298.226 128.267 298.032 128.329 297.656C128.392 297.28 128.461 296.711 128.555 295.978L128.724 294.726C128.767 294.269 128.818 293.768 128.874 293.23C128.987 292.153 129.124 290.908 129.206 289.505C129.787 281.57 129.512 273.594 128.386 265.717C127.623 260.28 126.303 254.935 124.448 249.767C122.264 243.85 118.973 238.402 114.751 233.716C110.307 228.765 104.829 224.326 98.8321 220.289C92.835 216.251 86.3121 212.47 79.833 208.332C73.3539 204.194 67.1878 199.812 62.0609 194.635C59.5205 192.119 57.2155 189.376 55.1749 186.441C53.2394 183.614 51.6347 180.575 50.3922 177.383C49.2547 174.324 48.5264 171.129 48.2263 167.88C47.9016 164.828 47.7762 161.758 47.8507 158.69C47.9804 153.189 48.7771 147.724 50.2232 142.414C51.4057 138.022 53.1323 133.795 55.3627 129.832C57.0461 126.84 59.0575 124.045 61.3598 121.499C61.8167 120.961 62.2862 120.485 62.7307 120.047C63.1752 119.609 63.5758 119.177 63.9827 118.795C64.8028 118.075 65.4663 117.443 66.0485 116.986L67.3819 115.941L67.8451 115.596Z" fill="#263238"/>
<path d="M206.617 299.327C206.607 299.271 206.607 299.214 206.617 299.158L206.686 298.67L206.798 297.869L206.873 297.362C206.911 297.18 206.955 296.992 206.999 296.786C207.482 294.491 208.256 292.268 209.302 290.169C210.864 287.055 212.837 284.164 215.168 281.574C218.011 278.41 221.144 275.52 224.527 272.941C228.095 270.162 231.657 267.746 234.893 265.548C238.13 263.351 241.041 261.373 243.432 259.633C245.823 257.892 247.701 256.421 248.972 255.363C249.598 254.85 250.099 254.418 250.437 254.143L250.819 253.83C250.906 253.761 250.95 253.723 250.956 253.729L250.837 253.855L250.474 254.193C250.155 254.481 249.692 254.925 249.053 255.445C247.801 256.528 245.923 258.036 243.563 259.827C241.203 261.617 238.292 263.583 235.062 265.799C231.832 268.015 228.283 270.431 224.727 273.204C221.364 275.774 218.24 278.642 215.393 281.774C213.075 284.337 211.099 287.191 209.515 290.263C208.457 292.341 207.657 294.54 207.13 296.811L206.986 297.374C206.955 297.556 206.924 297.725 206.898 297.881C206.842 298.188 206.792 298.451 206.755 298.67L206.661 299.158C206.654 299.216 206.639 299.273 206.617 299.327Z" fill="#4F836D"/>
<path d="M257.022 253.542L254.75 252.246C253.603 253.161 252.366 253.956 251.057 254.618C249.946 255.041 248.937 255.694 248.096 256.534C247.681 256.958 247.387 257.485 247.245 258.061C247.103 258.637 247.118 259.24 247.288 259.808C247.695 260.653 248.351 261.354 249.166 261.817C251.348 263.27 253.728 264.4 256.234 265.173C256.956 265.481 257.765 265.519 258.512 265.279C258.81 265.129 259.07 264.914 259.275 264.651C259.479 264.388 259.623 264.083 259.695 263.758C259.84 263.109 259.864 262.438 259.764 261.78C259.468 258.865 258.531 256.053 257.022 253.542Z" fill="#3F3F6F"/>
<path d="M283.302 245.892C282.496 245.012 281.469 244.363 280.328 244.014C276.56 242.779 272.49 242.821 268.747 244.133C265.029 245.449 261.607 247.485 258.675 250.124L259.695 253.986C261.65 255.763 264.132 256.851 266.763 257.085C269.374 257.313 272.004 257.155 274.569 256.615C276.428 256.351 278.239 255.82 279.946 255.038C281.663 254.247 283.051 252.884 283.872 251.182C284.263 250.331 284.416 249.39 284.316 248.458C284.216 247.527 283.865 246.64 283.302 245.892Z" fill="#3F3F6F"/>
<path d="M270.7 227.807C269.392 227.15 267.802 227.369 266.437 227.901C262.681 229.372 260.077 233.021 258.882 236.896C257.686 240.771 257.511 245.535 257.511 249.585L262.75 251.269C265.316 248.769 267.602 245.996 269.567 243C271.596 239.945 273.48 236.408 273.267 232.746C273.161 230.799 272.434 228.677 270.7 227.807Z" fill="#3F3F6F"/>
<g opacity="0.3">
<path d="M270.7 227.807C269.392 227.15 267.802 227.369 266.437 227.901C262.681 229.372 260.077 233.021 258.882 236.896C257.686 240.771 257.511 245.535 257.511 249.585L260.058 251.226C262.293 250.13 267.539 246.055 269.567 243C271.596 239.945 273.48 236.408 273.267 232.746C273.161 230.799 272.434 228.677 270.7 227.807Z" fill="black"/>
</g>
<path d="M274.475 260.509C274.01 260.02 273.456 259.624 272.841 259.345C267.971 256.841 262.444 255.276 258.5 251.47L257.041 253.517C257.738 256.131 258.681 258.674 259.858 261.11C260.591 262.619 261.461 264.14 262.857 265.066C264.467 266.019 266.389 266.295 268.203 265.836C269.996 265.378 271.72 264.684 273.33 263.771C274.014 263.521 274.58 263.025 274.92 262.381C275.015 262.057 275.024 261.714 274.946 261.386C274.868 261.058 274.706 260.755 274.475 260.509Z" fill="#3F3F6F"/>
<g opacity="0.3">
<path d="M274.475 260.509C274.01 260.02 273.456 259.624 272.841 259.345C267.971 256.841 263.044 254.963 259.101 251.132L257.041 253.517C257.738 256.131 258.681 258.674 259.858 261.11C260.591 262.619 261.461 264.14 262.857 265.066C264.467 266.019 266.389 266.295 268.203 265.836C269.996 265.378 271.72 264.684 273.33 263.771C274.014 263.521 274.58 263.025 274.92 262.381C275.015 262.057 275.024 261.714 274.946 261.386C274.868 261.058 274.706 260.756 274.475 260.509Z" fill="black"/>
</g>
<path d="M255.207 252.446C251.852 255.126 246.7 255.213 242.887 253.235C240.992 252.213 239.424 250.677 238.364 248.803C237.304 246.929 236.796 244.794 236.896 242.643C236.953 241.729 237.184 240.721 237.942 240.214C239.012 239.501 240.446 240.145 241.491 240.878C246.092 244.07 250.255 247.995 255.388 250.268" fill="#3F3F6F"/>
<g opacity="0.3">
<path d="M255.207 252.446C251.852 255.126 246.7 255.213 242.887 253.235C240.992 252.213 239.424 250.677 238.364 248.803C237.304 246.929 236.796 244.794 236.896 242.643C236.953 241.729 237.184 240.721 237.942 240.214C239.012 239.501 240.446 240.145 241.491 240.878C246.092 244.07 250.255 247.995 255.388 250.268" fill="black"/>
</g>
<path d="M255.802 232.414C255.506 230.671 254.8 229.023 253.742 227.607C253.148 226.872 252.376 226.303 251.499 225.954C250.622 225.604 249.67 225.485 248.734 225.61C247.374 225.903 246.155 226.652 245.278 227.732C244.192 229.055 243.453 230.629 243.131 232.311C242.808 233.993 242.912 235.728 243.432 237.36C244.383 240.577 246.606 243.357 249.172 245.71C251.068 247.444 253.141 248.973 255.357 250.274L257.723 250.011C257.73 244.093 257.086 238.192 255.802 232.414Z" fill="#3F3F6F"/>
<path d="M257.592 244.327C257.457 245.048 257.442 245.786 257.548 246.512C257.585 247.247 257.746 247.971 258.024 248.653C258.087 248.653 257.88 247.682 257.767 246.493C257.655 245.304 257.661 244.333 257.592 244.327Z" fill="#263238"/>
<path d="M257.723 255.057C257.738 255.397 257.79 255.735 257.88 256.064C258.057 256.868 258.282 257.661 258.556 258.437C258.826 259.214 259.146 259.973 259.514 260.709C259.647 261.024 259.82 261.321 260.027 261.592C259.926 261.266 259.801 260.948 259.652 260.641C259.407 260.065 259.082 259.263 258.763 258.362C258.443 257.46 258.199 256.628 258.03 256.027C257.963 255.693 257.86 255.368 257.723 255.057Z" fill="#263238"/>
<path d="M269.599 257.842C269.15 257.608 268.688 257.399 268.215 257.216C267.1 256.724 266.015 256.166 264.966 255.545C263.921 254.922 262.912 254.24 261.943 253.504C261.198 252.934 260.753 252.559 260.734 252.584C260.716 252.609 260.822 252.703 261.01 252.884C261.198 253.066 261.486 253.323 261.849 253.623C263.744 255.192 265.871 256.459 268.153 257.379C268.591 257.554 268.954 257.679 269.204 257.755C269.331 257.8 269.464 257.83 269.599 257.842Z" fill="#263238"/>
<path d="M254.656 252.778C253.943 252.933 253.26 253.204 252.634 253.579C251.973 253.899 251.366 254.322 250.837 254.831C250.875 254.888 251.683 254.349 252.715 253.792C253.748 253.235 254.656 252.822 254.656 252.778Z" fill="#263238"/>
<path d="M252.002 240.959C252.051 241.385 252.146 241.805 252.283 242.211C252.573 243.215 252.942 244.195 253.385 245.141C253.83 246.087 254.347 246.997 254.931 247.864C255.158 248.232 255.425 248.574 255.726 248.884C255.526 248.503 255.305 248.133 255.063 247.776C254.519 246.895 254.026 245.984 253.586 245.047C253.146 244.109 252.759 243.148 252.427 242.167C252.311 241.756 252.168 241.353 252.002 240.959Z" fill="#263238"/>
<path d="M263.915 239.976C263.813 240.076 263.722 240.188 263.645 240.308C263.483 240.527 263.264 240.859 263.019 241.266C262.487 242.086 261.767 243.244 261.11 244.571C260.453 245.898 259.889 247.144 259.533 248.052C259.357 248.509 259.22 248.878 259.138 249.141C259.083 249.271 259.045 249.408 259.026 249.548C259.262 249.081 259.471 248.6 259.652 248.108C260.04 247.219 260.597 245.992 261.279 244.671C261.961 243.35 262.625 242.167 263.126 241.347C263.417 240.907 263.681 240.449 263.915 239.976Z" fill="#263238"/>
<path d="M270.663 250.011C270.528 249.996 270.391 249.996 270.256 250.011L269.148 250.086C268.215 250.168 266.932 250.312 265.517 250.531C264.102 250.75 262.838 250.994 261.924 251.2C261.467 251.301 261.104 251.395 260.847 251.463C260.714 251.491 260.584 251.533 260.459 251.589C260.963 251.544 261.463 251.465 261.955 251.351C262.876 251.188 264.146 250.963 265.555 250.725C266.963 250.487 268.24 250.343 269.167 250.224C269.67 250.185 270.169 250.114 270.663 250.011Z" fill="#263238"/>
<path d="M264.753 260.697C264.483 260.34 264.195 259.998 263.89 259.67C263.191 258.855 262.545 257.995 261.955 257.097C261.374 256.194 260.849 255.255 260.384 254.287C260.21 253.873 260.014 253.47 259.796 253.078C259.808 253.199 259.84 253.318 259.889 253.429C259.958 253.648 260.084 253.967 260.24 254.349C261.098 256.347 262.292 258.183 263.771 259.777C264.059 260.077 264.296 260.315 264.472 260.471C264.647 260.628 264.741 260.709 264.753 260.697Z" fill="#263238"/>
<path d="M253.229 260.29C253.335 259.924 253.418 259.552 253.479 259.176C253.674 258.282 253.938 257.406 254.268 256.553C254.601 255.701 254.996 254.874 255.451 254.08C255.658 253.761 255.848 253.431 256.021 253.091C255.745 253.361 255.509 253.669 255.32 254.005C254.82 254.783 254.401 255.609 254.068 256.471C253.735 257.336 253.49 258.231 253.335 259.144C253.251 259.52 253.216 259.905 253.229 260.29Z" fill="#263238"/>
<path d="M247.144 248.133C247.463 248.422 247.814 248.674 248.189 248.884C249.961 249.98 251.897 250.783 253.924 251.263C254.332 251.38 254.752 251.451 255.176 251.476C254.765 251.332 254.347 251.21 253.924 251.113C251.938 250.559 250.028 249.766 248.233 248.753C247.882 248.526 247.518 248.319 247.144 248.133Z" fill="#263238"/>
<path d="M260.916 251.194C261.017 251.844 260.923 252.509 260.646 253.105C260.37 253.701 259.922 254.201 259.361 254.544C258.8 254.886 258.15 255.053 257.493 255.026C256.837 254.999 256.203 254.777 255.672 254.39C255.141 254.003 254.737 253.466 254.511 252.849C254.284 252.232 254.246 251.562 254.401 250.923C254.555 250.284 254.896 249.706 255.379 249.26C255.862 248.815 256.467 248.523 257.116 248.421C257.548 248.353 257.989 248.371 258.413 248.474C258.838 248.577 259.238 248.762 259.591 249.02C259.944 249.278 260.243 249.602 260.47 249.975C260.697 250.348 260.849 250.763 260.916 251.194Z" fill="white"/>
<path d="M269.054 243.551C268.647 243.904 268.26 244.28 267.896 244.678C267.189 245.379 266.206 246.336 265.066 247.351C263.927 248.365 262.863 249.229 262.08 249.855C261.646 250.174 261.228 250.514 260.828 250.875C260.966 250.822 261.095 250.748 261.21 250.656C261.442 250.506 261.774 250.274 262.181 249.98C262.988 249.391 264.059 248.54 265.217 247.526C266.375 246.512 267.333 245.529 268.015 244.797C268.353 244.427 268.641 244.127 268.797 243.908C268.898 243.801 268.985 243.681 269.054 243.551Z" fill="#263238"/>
<path d="M73.3789 105.668L70.7372 104.416C69.5359 105.535 68.2227 106.527 66.8184 107.377C65.6193 107.946 64.553 108.761 63.6884 109.768C63.2546 110.279 62.9674 110.899 62.8572 111.56C62.7469 112.221 62.8179 112.9 63.0624 113.524C63.5976 114.438 64.4022 115.164 65.3661 115.603C67.9159 117.028 70.6562 118.082 73.5041 118.733C74.3376 119.01 75.2424 118.983 76.0582 118.657C76.3764 118.462 76.6479 118.2 76.8534 117.888C77.0589 117.577 77.1935 117.224 77.2476 116.855C77.353 116.117 77.3233 115.366 77.16 114.639C76.5769 111.406 75.2857 108.343 73.3789 105.668Z" fill="#3F3F6F"/>
<path d="M102.056 94.8695C101.082 93.9617 99.8822 93.3326 98.5817 93.0478C94.2707 91.9925 89.7321 92.3863 85.6673 94.1684C81.6296 95.9556 77.9836 98.521 74.9377 101.718L76.4088 105.937C78.7364 107.754 81.5945 108.758 84.5468 108.798C87.4815 108.827 90.4046 108.427 93.2232 107.609C95.2739 107.15 97.2489 106.401 99.0888 105.386C100.936 104.355 102.369 102.716 103.145 100.748C103.513 99.761 103.606 98.6931 103.414 97.6579C103.222 96.6226 102.753 95.6589 102.056 94.8695Z" fill="#3F3F6F"/>
<path d="M86.4499 75.7764C84.9349 75.1504 83.1821 75.5323 81.7048 76.2397C77.617 78.2053 75.0379 82.4997 74.0363 86.9255C73.0347 91.3513 73.2413 96.6849 73.5918 101.211L79.5826 102.638C82.2275 99.6282 84.5365 96.3389 86.4686 92.8287C88.4781 89.2417 90.2747 85.1351 89.7301 81.0661C89.4547 78.9064 88.4656 76.6028 86.4499 75.7764Z" fill="#3F3F6F"/>
<g opacity="0.3">
<path d="M86.4499 75.7764C84.9349 75.1504 83.1821 75.5323 81.7048 76.2397C77.617 78.2053 75.0379 82.4997 74.0363 86.9255C73.0347 91.3513 73.2413 96.6849 73.5918 101.211L76.5716 102.82C78.9754 101.405 84.478 96.4094 86.4812 92.8036C88.4844 89.1979 90.2872 85.1101 89.7426 81.0411C89.4547 78.9065 88.4656 76.6028 86.4499 75.7764Z" fill="black"/>
</g>
<path d="M93.4548 111.928C92.8951 111.423 92.2423 111.032 91.5329 110.776C85.8989 108.372 79.5763 107.12 74.8563 103.202L73.3977 105.612C74.4021 108.471 75.6743 111.23 77.1975 113.85C78.1365 115.471 79.2383 117.099 80.8784 118.006C82.7549 118.934 84.9226 119.08 86.9068 118.413C88.8698 117.752 90.7368 116.834 92.4594 115.684C93.2005 115.345 93.7894 114.742 94.1121 113.994C94.1924 113.622 94.1739 113.236 94.0586 112.873C93.9433 112.511 93.7351 112.185 93.4548 111.928Z" fill="#3F3F6F"/>
<g opacity="0.3">
<path d="M93.4548 111.928C92.8951 111.423 92.2423 111.032 91.5329 110.776C85.8989 108.372 80.2211 106.695 75.5011 102.776L73.3977 105.612C74.4021 108.471 75.6743 111.23 77.1975 113.85C78.1365 115.471 79.2383 117.099 80.8784 118.006C82.7549 118.934 84.9226 119.08 86.9068 118.413C88.8698 117.752 90.7368 116.834 92.4594 115.684C93.2005 115.345 93.7894 114.742 94.1121 113.994C94.1924 113.622 94.1739 113.236 94.0586 112.873C93.9433 112.511 93.7351 112.185 93.4548 111.928Z" fill="black"/>
</g>
<path d="M71.238 104.591C67.7199 107.872 61.9794 108.41 57.5599 106.526C55.3619 105.543 53.4858 103.96 52.147 101.959C50.8082 99.9585 50.0611 97.6204 49.9915 95.2138C49.9915 94.1872 50.148 93.0479 50.9556 92.4156C52.0824 91.5267 53.7288 92.1276 54.9682 92.8538C60.3769 96.0214 65.3786 100.047 71.2818 102.156" fill="#3F3F6F"/>
<g opacity="0.3">
<path d="M71.238 104.591C67.7199 107.872 61.9794 108.41 57.5599 106.526C55.3619 105.543 53.4858 103.96 52.147 101.959C50.8082 99.9585 50.0611 97.6204 49.9915 95.2138C49.9915 94.1872 50.148 93.0479 50.9556 92.4156C52.0824 91.5267 53.7288 92.1276 54.9682 92.8538C60.3769 96.0214 65.3786 100.047 71.2818 102.156" fill="black"/>
</g>
<path d="M70.224 82.193C69.6418 80.315 68.9156 78.437 67.5134 76.9972C66.7931 76.233 65.889 75.666 64.8874 75.3504C63.8858 75.0348 62.8201 74.981 61.7918 75.1943C60.2894 75.6295 58.9829 76.5691 58.0921 77.8548C55.7196 81.0474 55.513 85.2416 56.8401 88.7534C58.1672 92.2653 60.8903 95.1825 63.9515 97.5863C66.2174 99.3615 68.6639 100.893 71.2506 102.156L73.8673 101.655C73.3723 95.0536 72.1504 88.5267 70.224 82.193Z" fill="#3F3F6F"/>
<path d="M73.235 95.3327C73.1337 96.9734 73.4233 98.6147 74.0801 100.122C74.1489 100.122 73.8422 99.0512 73.6168 97.7303C73.3915 96.4095 73.3101 95.3265 73.235 95.3327Z" fill="#263238"/>
<path d="M74.2992 107.289C74.3371 107.67 74.4234 108.045 74.5559 108.404C74.8205 109.287 75.1404 110.152 75.5137 110.995C75.8812 111.838 76.2993 112.657 76.7657 113.449C76.9373 113.787 77.1474 114.104 77.3917 114.394C77.2613 114.035 77.0956 113.689 76.8971 113.362C76.5779 112.736 76.1397 111.872 75.7077 110.895C75.2758 109.919 74.9378 109.017 74.6936 108.354C74.5902 107.989 74.4583 107.633 74.2992 107.289Z" fill="#263238"/>
<path d="M87.7894 109.386C87.7894 109.349 87.1634 109.161 86.1869 108.811C84.9064 108.353 83.6525 107.824 82.4309 107.227C81.2122 106.615 80.0274 105.938 78.8815 105.199C78.0051 104.629 77.4792 104.247 77.4542 104.278C77.4291 104.31 77.5669 104.403 77.7922 104.591C78.0176 104.779 78.3556 105.036 78.7876 105.342C81.0352 106.929 83.517 108.154 86.1431 108.973C86.6501 109.13 87.057 109.242 87.345 109.311C87.4889 109.357 87.6385 109.382 87.7894 109.386Z" fill="#263238"/>
<path d="M70.6746 104.992C69.8928 105.232 69.1535 105.593 68.4836 106.062C67.7791 106.467 67.1449 106.982 66.6056 107.59C66.6494 107.646 67.507 106.964 68.6338 106.269C69.7606 105.574 70.7059 105.042 70.6746 104.992Z" fill="#263238"/>
<path d="M66.7121 92.0462C66.7955 92.5239 66.9341 92.9902 67.1252 93.4359C67.5352 94.5314 68.0313 95.5926 68.6088 96.6097C69.1827 97.6291 69.838 98.6005 70.5682 99.5144C70.8519 99.9072 71.1773 100.268 71.5385 100.591C71.2857 100.18 71.0076 99.7848 70.7059 99.408C70.0252 98.4719 69.3982 97.498 68.8279 96.4908C68.2595 95.4765 67.7475 94.4316 67.2942 93.3608C67.1224 92.9131 66.9281 92.4743 66.7121 92.0462Z" fill="#263238"/>
<path d="M79.9206 89.9366C79.8138 90.0555 79.7232 90.1882 79.6515 90.331C79.4887 90.5877 79.2633 90.957 79.0255 91.4516C78.4996 92.4093 77.8235 93.7678 77.1475 95.3077C76.4714 96.8477 76.0081 98.275 75.6889 99.3266C75.5324 99.8462 75.4134 100.272 75.3383 100.579C75.2844 100.729 75.2548 100.888 75.2507 101.048C75.4872 100.504 75.6961 99.9482 75.8767 99.383C76.2398 98.3564 76.7593 96.9416 77.3979 95.4079C78.0364 93.8742 78.6937 92.5158 79.182 91.5392C79.4565 91.0185 79.7031 90.4836 79.9206 89.9366Z" fill="#263238"/>
<path d="M88.3028 100.56C88.1511 100.54 87.9975 100.54 87.8458 100.56C87.5578 100.591 87.1384 100.654 86.5938 100.735C85.5609 100.904 84.1399 101.173 82.5811 101.536C81.0224 101.899 79.6327 102.288 78.6311 102.594C78.1303 102.745 77.7296 102.876 77.4479 102.976C77.3015 103.017 77.1607 103.076 77.0285 103.151C77.5852 103.058 78.1351 102.928 78.6749 102.763C79.689 102.494 81.085 102.137 82.6375 101.774C84.19 101.411 85.6047 101.117 86.6251 100.91C87.1918 100.833 87.7524 100.716 88.3028 100.56Z" fill="#263238"/>
<path d="M82.6187 112.992C82.2879 112.618 81.9368 112.263 81.567 111.928C80.7215 111.074 79.9292 110.169 79.1945 109.217C78.4657 108.259 77.7987 107.256 77.1975 106.213C76.9707 105.766 76.7177 105.333 76.4401 104.917C76.4646 105.05 76.5089 105.179 76.5715 105.299C76.6717 105.536 76.8344 105.881 77.0473 106.294C77.6098 107.37 78.2632 108.396 79.0004 109.361C79.7357 110.329 80.5547 111.229 81.4481 112.053C81.7924 112.366 82.0741 112.61 82.2869 112.767C82.3864 112.857 82.4981 112.933 82.6187 112.992Z" fill="#263238"/>
<path d="M69.7231 113.487C69.8107 113.074 69.8714 112.656 69.9047 112.235C70.1871 110.205 70.7848 108.233 71.6762 106.388C71.8798 106.013 72.0616 105.626 72.2209 105.23C71.94 105.556 71.7042 105.918 71.5197 106.307C71.0269 107.219 70.6283 108.18 70.3303 109.174C70.0206 110.164 69.8109 111.183 69.7043 112.216C69.6528 112.638 69.6591 113.066 69.7231 113.487Z" fill="#263238"/>
<path d="M61.9107 100.466C62.2982 100.763 62.7182 101.015 63.1627 101.217C65.2313 102.294 67.4622 103.026 69.767 103.383C70.2392 103.475 70.7195 103.519 71.2005 103.515C70.7379 103.385 70.2674 103.284 69.792 103.214C68.662 102.986 67.5459 102.693 66.4492 102.338C65.3556 101.982 64.2834 101.564 63.2378 101.086C62.8071 100.855 62.3641 100.648 61.9107 100.466Z" fill="#263238"/>
<path d="M77.0933 105.483C78.1614 103.725 77.6021 101.434 75.844 100.366C74.0859 99.298 71.7949 99.8574 70.7268 101.615C69.6587 103.374 70.218 105.665 71.9761 106.733C73.7342 107.801 76.0252 107.241 77.0933 105.483Z" fill="white"/>
<path d="M85.9678 93.486C85.543 93.9128 85.1437 94.3643 84.7721 94.8382C84.0459 95.6833 83.0193 96.8414 81.8424 98.0621C80.6656 99.2828 79.5388 100.347 78.7124 101.104C78.2507 101.496 77.8118 101.914 77.3978 102.356C77.5431 102.283 77.6778 102.19 77.7985 102.081C78.0489 101.887 78.4245 101.605 78.8251 101.242C79.6827 100.516 80.8221 99.4706 82.0115 98.2436C83.2009 97.0167 84.2025 95.8335 84.8973 94.9571C85.2479 94.5189 85.5233 94.1558 85.6986 93.8992C85.8035 93.772 85.8938 93.6334 85.9678 93.486Z" fill="#263238"/>
<path d="M219.688 135.966C219.688 135.966 201.427 134.602 192.901 148.561C192.901 148.561 208.463 149.939 219.688 135.966Z" fill="#4F836D"/>
<path d="M201.077 110.751C201.132 110.88 201.172 111.014 201.196 111.152C201.258 111.452 201.346 111.84 201.452 112.329C201.509 112.585 201.571 112.867 201.634 113.18C201.696 113.493 201.734 113.806 201.79 114.2C201.897 114.933 202.047 115.772 202.103 116.704C202.141 117.168 202.185 117.656 202.229 118.163C202.272 118.67 202.26 119.208 202.279 119.753C202.335 120.855 202.279 122.032 202.229 123.265C201.937 128.636 200.69 133.912 198.548 138.846C198.028 139.973 197.559 141.05 197.02 141.976C196.757 142.458 196.526 142.94 196.263 143.378C196 143.816 195.743 144.23 195.499 144.63C195.03 145.438 194.516 146.12 194.103 146.727C193.884 147.034 193.696 147.353 193.477 147.572L192.932 148.255L192.175 149.188C192.093 149.3 191.998 149.403 191.893 149.494C191.959 149.37 192.037 149.253 192.125 149.144L192.832 148.173L193.352 147.485C193.533 147.222 193.721 146.934 193.928 146.627C194.328 146.001 194.823 145.325 195.274 144.511L196.019 143.259C196.275 142.821 196.501 142.339 196.757 141.857C197.283 140.899 197.74 139.823 198.247 138.727C199.275 136.266 200.112 133.729 200.751 131.14C201.346 128.541 201.735 125.9 201.916 123.24C201.966 121.988 202.041 120.842 201.997 119.747C201.997 119.202 201.997 118.67 201.997 118.169C201.997 117.668 201.928 117.174 201.89 116.711C201.853 115.778 201.715 114.945 201.634 114.207C201.584 113.837 201.552 113.499 201.502 113.186C201.452 112.873 201.396 112.592 201.346 112.329C201.264 111.847 201.196 111.452 201.146 111.145C201.112 111.016 201.089 110.884 201.077 110.751Z" fill="#263238"/>
<path d="M219.519 119.628C219.442 119.69 219.358 119.743 219.268 119.784L218.523 120.185C218.191 120.348 217.797 120.554 217.34 120.811C216.883 121.068 216.357 121.343 215.8 121.687C214.667 122.351 213.359 123.202 211.944 124.191C210.422 125.297 208.96 126.482 207.562 127.741C206.175 129.014 204.855 130.358 203.606 131.766C202.473 133.074 201.496 134.301 200.732 135.365C200.332 135.885 200.006 136.386 199.706 136.812C199.405 137.237 199.161 137.619 198.967 137.926L198.498 138.633C198.391 138.796 198.328 138.877 198.316 138.871C198.303 138.865 198.347 138.771 198.441 138.602C198.535 138.433 198.692 138.151 198.861 137.863C199.03 137.575 199.267 137.15 199.555 136.711C199.843 136.273 200.15 135.766 200.545 135.228C201.289 134.145 202.247 132.899 203.38 131.566C205.854 128.692 208.671 126.134 211.769 123.947C213.031 123.045 214.339 122.209 215.687 121.443C216.257 121.105 216.789 120.849 217.259 120.604C217.728 120.36 218.129 120.166 218.467 120.016L219.243 119.678C219.332 119.648 219.425 119.631 219.519 119.628Z" fill="#263238"/>
<path d="M226.392 120.066C225.713 119.906 225.006 119.906 224.326 120.066C225.001 119.632 225.594 119.083 226.079 118.445C226.365 118.117 226.54 117.707 226.58 117.274C226.62 116.841 226.522 116.406 226.301 116.032C226.08 115.657 225.747 115.361 225.349 115.187C224.951 115.012 224.508 114.967 224.082 115.058C223.193 115.19 222.34 115.506 221.578 115.984C217.566 118.175 213.81 120.811 211.168 124.542C216.245 124.911 221.591 125.23 226.192 123.002C226.787 122.714 227.444 122.301 227.532 121.643C227.552 121.29 227.45 120.939 227.243 120.652C227.035 120.365 226.735 120.158 226.392 120.066Z" fill="#3F3F6F"/>
<path d="M264.634 131.641C266.068 123.146 263.051 64.8278 263.051 64.8278L242.493 60.139L235.876 126.833L191.868 175.379L194.303 185.057L199.568 212.088C199.568 212.088 226.035 184.794 233.597 173.902C242.192 161.488 262.268 145.619 264.634 131.641Z" fill="#FFBF9D"/>
<path d="M229.854 29.3899L234.962 50.6739L243.519 63.3254L263.051 64.8278L263.301 63.2878C263.619 61.2984 263.458 59.2618 262.831 57.347C261.661 53.7851 259.764 48.0009 259.207 46.2982C258.399 43.8568 256.258 37.9035 256.258 37.9035L240.784 31.4432L236.22 31.9815L229.854 29.3899Z" fill="#FFBF9D"/>
<path d="M253.636 44.946C253.142 44.6788 252.771 44.2298 252.603 43.694C252.292 42.7814 252.117 41.828 252.083 40.8645C251.983 39.5833 251.879 38.3 251.77 37.0146C251.63 36.3328 251.749 35.6235 252.102 35.0239C252.408 34.6756 252.831 34.4527 253.291 34.3979C253.75 34.3291 254.216 34.3291 254.675 34.3979L255.301 34.93C255.916 36.2664 256.277 37.7057 256.365 39.1743C256.622 40.4574 256.622 41.7786 256.365 43.0617C256.219 43.6704 255.889 44.2192 255.42 44.633C255.18 44.8452 254.887 44.9868 254.572 45.042C254.257 45.0973 253.933 45.0641 253.636 44.946Z" fill="#FFBF9D"/>
<path d="M253.636 44.946C253.932 45.0134 254.24 45.0134 254.537 44.946C254.882 44.8681 255.197 44.692 255.445 44.439C255.773 44.0991 256.014 43.6845 256.146 43.2308C256.455 42.0014 256.489 40.7189 256.246 39.4748C256.052 38.0538 255.92 36.4324 255.144 34.9676L255.182 35.0177L254.556 34.4856L254.643 34.5231H254.443C254.028 34.456 253.606 34.456 253.191 34.5231C252.798 34.6039 252.448 34.8268 252.208 35.1491C251.764 35.7751 251.92 36.6703 251.964 37.434C252.077 38.974 252.183 40.37 252.271 41.5656C252.295 42.4897 252.526 43.3966 252.947 44.2199C253.119 44.5105 253.355 44.7586 253.636 44.946C253.544 44.9323 253.458 44.8957 253.385 44.8396C253.164 44.7036 252.975 44.5196 252.834 44.3013C252.359 43.4774 252.084 42.5531 252.033 41.6032C251.927 40.4075 251.795 39.0115 251.657 37.4653C251.657 37.0772 251.576 36.6828 251.582 36.2571C251.577 35.814 251.701 35.3791 251.939 35.0051C252.225 34.6244 252.642 34.3634 253.11 34.2727C253.568 34.1947 254.035 34.1947 254.493 34.2727H254.694H254.744L254.781 34.304L255.407 34.8361C256.221 36.3823 256.334 38.0413 256.515 39.4623C256.74 40.739 256.678 42.0499 256.334 43.2997C256.177 43.7769 255.904 44.2073 255.539 44.5517C255.261 44.8134 254.913 44.9876 254.537 45.0524C254.302 45.0958 254.059 45.0829 253.83 45.0149C253.698 45.0024 253.629 44.946 253.636 44.946Z" fill="#FF9A6C"/>
<path d="M177.714 53.1842L221.973 32.5825L246.656 79.1507C232.176 89.2597 215.801 96.3356 198.516 99.9526L177.714 53.1842Z" fill="#3F3F6F"/>
<path d="M163.122 66.2676C163.122 66.2676 212.714 84.9287 212.714 85.3669C212.714 85.8051 202.642 95.1012 202.642 95.1012L161.132 71.0127L153.92 76.0708L162.24 58.1234L163.122 66.2676Z" fill="#3F3F6F"/>
<g opacity="0.2">
<path d="M227.563 43.2871C227.563 43.2871 217.659 81.1413 197.114 96.8101L197.665 98.0621C197.665 98.0621 218.26 86.7002 228.452 45.09L227.563 43.2871Z" fill="white"/>
</g>
<g opacity="0.2">
<path d="M231.25 50.0854C231.25 50.0854 221.403 82.5561 204.501 98.5316L216.395 95.1011C216.395 95.1011 228.458 83.2071 234.768 56.7023L231.25 50.0854Z" fill="white"/>
</g>
<path d="M188.118 51.7443C184.763 43.6564 180.606 33.0144 186.597 25.0705C187.683 23.5712 189.139 22.3792 190.823 21.6111C192.508 20.843 194.362 20.5251 196.206 20.6885C200.15 21.0516 203.718 23.4491 206.279 26.3663C209.572 30.1223 211.518 34.8799 213.39 39.4497C213.51 39.8457 213.776 40.1812 214.134 40.3882C214.492 40.5952 214.915 40.658 215.318 40.564C215.717 40.45 216.055 40.1842 216.26 39.8237C216.465 39.4632 216.52 39.0367 216.414 38.6359C214.536 34.0411 212.601 29.4087 209.528 25.4461C206.673 21.7589 202.642 18.7604 198.022 17.8402C195.801 17.3717 193.498 17.4653 191.323 18.1124C189.147 18.7596 187.168 19.9399 185.564 21.5461C182.028 25.0392 180.475 29.9846 180.463 34.8736C180.463 41.0961 182.741 46.9492 185.089 52.602C185.217 52.9963 185.492 53.3264 185.856 53.5243C186.221 53.7223 186.647 53.7731 187.048 53.6662C187.446 53.5536 187.783 53.2887 187.987 52.929C188.191 52.5692 188.245 52.1436 188.137 51.7443H188.118Z" fill="#3F3F6F"/>
<path d="M224.107 39.4184C224.94 36.495 227.732 34.7234 230.674 34.2226C233.954 33.6592 237.222 35.0739 239.651 37.3526C245.241 42.5985 247.1 51.3124 245.948 58.6867C245.281 63.127 243.564 67.3441 240.94 70.9876C240.739 71.3465 240.686 71.77 240.792 72.1677C240.898 72.5653 241.156 72.9057 241.51 73.116C241.871 73.3139 242.294 73.3659 242.693 73.261C243.091 73.1562 243.434 72.9027 243.651 72.5526C246.278 68.8468 248.064 64.6119 248.883 60.144C249.703 55.6761 249.536 51.0831 248.396 46.6862C246.343 38.8988 239.976 29.9846 230.868 31.0362C226.486 31.5496 222.354 34.1662 221.102 38.5482C220.551 40.4826 223.569 41.3152 224.12 39.3746L224.107 39.4184Z" fill="#3F3F6F"/>
<path d="M244.014 63.5382C244.014 63.5382 234.079 51.976 233.929 51.6442C233.779 51.3125 230.461 43.068 230.461 43.068L229.09 35.844C229.09 35.844 227.544 30.4792 230.405 30.8047C231.786 31.4749 233.02 32.4135 234.035 33.5657C235.049 34.7179 235.824 36.0605 236.314 37.5154C237.842 42.3607 238.493 43.0242 238.493 43.0242C238.493 43.0242 241.366 42.8427 245.135 47.112" fill="#FFBF9D"/>
<path d="M245.134 47.1307C245.134 47.1307 245.097 47.1307 245.028 47.0431L244.74 46.7551C244.496 46.4922 244.114 46.1291 243.607 45.6659C242.981 45.1141 242.306 44.6197 241.591 44.1885C241.144 43.9226 240.675 43.6943 240.189 43.5062C239.651 43.2902 239.079 43.1695 238.499 43.1494H238.442C238.148 42.7143 237.903 42.2483 237.71 41.7596C237.497 41.2714 237.297 40.758 237.084 40.2259C236.871 39.6938 236.696 39.1304 236.502 38.5608C236.308 37.9911 236.12 37.3964 235.876 36.808C234.79 34.2661 232.82 32.2043 230.33 31.005H230.373C230.156 30.9636 229.931 30.9838 229.724 31.0634C229.517 31.1431 229.336 31.2789 229.203 31.4557C228.956 31.8657 228.826 32.3355 228.827 32.8141C228.815 33.8384 228.952 34.8591 229.234 35.8439L229.509 37.2837C229.898 39.2494 230.242 41.19 230.617 43.068L232.527 47.8193L233.428 50.0604C233.578 50.4235 233.722 50.7866 233.86 51.1434C233.927 51.3202 234.002 51.4937 234.086 51.663C234.173 51.7819 234.298 51.9384 234.417 52.0824C236.295 54.3861 238.042 56.4143 239.469 58.1108L242.831 62.1046L243.72 63.1876C243.829 63.3079 243.928 63.4378 244.014 63.5757C243.894 63.4665 243.781 63.3494 243.676 63.2252L242.762 62.1422L239.331 58.2109C237.879 56.527 236.139 54.5238 234.217 52.2201C234.098 52.0761 233.979 51.9447 233.848 51.7569C233.763 51.5835 233.688 51.4059 233.622 51.2248L233.178 50.1418L232.27 47.907C231.644 46.3795 231.018 44.777 230.336 43.1494C229.979 41.2714 229.61 39.3433 229.234 37.3589L228.959 35.9253C228.667 34.9081 228.528 33.8533 228.545 32.7953C228.542 32.2536 228.692 31.7219 228.977 31.2616C229.141 31.0272 229.376 30.8516 229.647 30.7608C229.906 30.6782 230.179 30.6525 230.448 30.6857H230.492C233.054 31.9243 235.073 34.0575 236.17 36.6828C236.402 37.3088 236.59 37.8784 236.796 38.4544C237.003 39.0303 237.172 39.5812 237.359 40.1133C237.547 40.6454 237.748 41.1587 237.954 41.647C238.13 42.1096 238.355 42.5523 238.624 42.9678H238.536C239.145 42.9947 239.745 43.1282 240.308 43.3622C240.803 43.5577 241.279 43.7987 241.729 44.0821C242.446 44.5258 243.117 45.0395 243.732 45.6158C244.119 45.9742 244.487 46.3524 244.834 46.7489L245.103 47.0556C245.115 47.08 245.125 47.1051 245.134 47.1307Z" fill="#FF9A6C"/>
<path d="M233.134 32.5262C232.095 31.8563 231.344 30.9862 230.192 30.6043L229.985 29.922C229.83 29.3106 229.861 28.6669 230.072 28.0728C230.284 27.4786 230.668 26.9609 231.175 26.5854C231.682 26.2507 232.27 26.0569 232.877 26.0239C233.484 25.9909 234.089 26.1198 234.63 26.3976C235.756 26.9951 236.62 27.9904 237.053 29.1896C237.307 29.8078 237.416 30.4758 237.372 31.1427C237.314 31.7963 237.001 32.401 236.502 32.8266C235.563 33.5716 234.173 33.1897 233.134 32.5262Z" fill="#FFBF9D"/>
<path d="M237.522 34.2101C237.167 33.1707 237.124 32.0501 237.397 30.9862C237.54 30.4566 237.794 29.9636 238.143 29.5404C238.491 29.1171 238.927 28.7734 239.419 28.5323C239.916 28.2996 240.468 28.2114 241.013 28.2778C241.558 28.3442 242.073 28.5626 242.499 28.9079C243.045 29.4614 243.454 30.1344 243.695 30.8735C244.703 33.3024 245.717 35.7939 245.873 38.4231C245.984 39.4456 245.811 40.4788 245.372 41.4091C245.144 41.8699 244.791 42.258 244.355 42.5299C243.918 42.8019 243.414 42.947 242.9 42.9491C242.51 42.9055 242.133 42.7825 241.793 42.5876C241.453 42.3927 241.156 42.1301 240.922 41.816C240.366 41.1962 239.894 40.5058 239.519 39.7627C238.754 37.9449 238.088 36.0872 237.522 34.1976" fill="#FFBF9D"/>
<path d="M237.522 34.21C237.588 34.3173 237.639 34.4331 237.673 34.5543L238.029 35.5684C238.342 36.4511 238.762 37.7344 239.425 39.2618C239.776 40.098 240.27 40.8669 240.884 41.5342C241.175 41.9302 241.543 42.2626 241.967 42.5108C242.407 42.7666 242.924 42.8576 243.426 42.7674C243.96 42.6297 244.446 42.3451 244.828 41.9457C245.21 41.5464 245.472 41.0482 245.585 40.5076C245.838 39.3148 245.838 38.0821 245.585 36.8893C245.059 34.5658 244.284 32.3055 243.275 30.1473C243.069 29.6646 242.754 29.2361 242.355 28.8953C241.965 28.6066 241.504 28.4292 241.022 28.382C240.585 28.3412 240.144 28.3956 239.73 28.5415C239.316 28.6874 238.939 28.9213 238.624 29.2271C238.091 29.7393 237.709 30.3894 237.522 31.1051C237.375 31.645 237.322 32.2061 237.366 32.764C237.413 33.2433 237.487 33.7197 237.585 34.1912C237.527 34.078 237.483 33.9582 237.453 33.8344C237.169 32.9346 237.13 31.9749 237.341 31.055C237.505 30.3185 237.864 29.6397 238.38 29.0893C238.716 28.7521 239.121 28.4922 239.567 28.3278C240.014 28.1635 240.491 28.0986 240.965 28.1378C241.499 28.1842 242.009 28.3746 242.443 28.6887C242.88 29.0443 243.23 29.4964 243.463 30.0096C243.933 31.0299 244.358 32.1004 244.79 33.2335C245.245 34.3919 245.597 35.588 245.842 36.8079C246.107 38.0459 246.107 39.3259 245.842 40.5639C245.721 41.1646 245.432 41.7186 245.008 42.1618C244.585 42.605 244.045 42.9191 243.451 43.0679C242.881 43.1686 242.295 43.062 241.798 42.7674C241.343 42.4979 240.949 42.1378 240.64 41.7095C240.032 41.0131 239.549 40.2168 239.213 39.3557C238.587 37.8095 238.186 36.5074 237.91 35.5997C237.785 35.1824 237.685 34.8381 237.61 34.5668C237.566 34.4519 237.537 34.3321 237.522 34.21Z" fill="#FF9A6C"/>
<path d="M248.177 46.6988C247.48 46.3246 246.953 45.6972 246.706 44.946C246.262 43.6439 246.013 42.2833 245.967 40.9083C245.817 39.0741 245.673 37.2399 245.523 35.4058C245.441 34.4292 245.391 33.3525 245.992 32.57C246.42 32.0561 247.026 31.7229 247.689 31.6372C248.103 31.5724 248.523 31.5597 248.941 31.5997C249.418 31.6367 249.871 31.8278 250.23 32.1443C250.454 32.3357 250.637 32.5698 250.769 32.8329C251.502 34.6299 251.948 36.5312 252.089 38.4669C252.315 40.3449 252.54 42.2229 252.039 44.0133C251.832 44.8809 251.362 45.6635 250.693 46.2543C250.355 46.5518 249.941 46.7506 249.497 46.8289C249.054 46.9073 248.597 46.8623 248.177 46.6988Z" fill="#FFBF9D"/>
<path d="M248.177 46.6988C248.641 46.8332 249.134 46.8332 249.598 46.6988C250.135 46.5455 250.614 46.2361 250.975 45.8099C251.452 45.2365 251.781 44.5552 251.933 43.8254C252.365 42.2104 252.158 40.1946 251.858 37.9974C251.73 36.8489 251.521 35.7109 251.232 34.5919C251.072 34.0056 250.862 33.4339 250.606 32.883C250.474 32.6232 250.291 32.3931 250.067 32.2068C249.843 32.0206 249.583 31.8821 249.304 31.8C248.146 31.5684 246.725 31.7624 246.067 32.7077C245.766 33.1891 245.614 33.7488 245.629 34.3165C245.629 34.8799 245.686 35.4496 245.723 36.0067C245.892 38.2165 246.042 40.2072 246.174 41.9036C246.22 43.2143 246.56 44.4979 247.169 45.6596C247.419 46.0717 247.765 46.4174 248.177 46.6675C248.053 46.6382 247.936 46.5851 247.833 46.511C247.525 46.3064 247.262 46.0399 247.063 45.7285C246.393 44.5574 246.009 43.2448 245.942 41.8974C245.779 40.2197 245.617 38.2227 245.423 36.0067C245.36 35.4349 245.326 34.8604 245.322 34.2852C245.3 33.6555 245.468 33.0337 245.804 32.5011C246.199 31.9685 246.776 31.6006 247.426 31.4682C247.744 31.3954 248.07 31.3597 248.396 31.3618C248.731 31.3492 249.066 31.3829 249.391 31.4619C249.721 31.5631 250.026 31.7324 250.285 31.9589C250.545 32.1854 250.755 32.4639 250.9 32.7765C251.157 33.3444 251.367 33.9328 251.526 34.5356C251.822 35.67 252.031 36.8251 252.152 37.9911C252.44 40.1884 252.628 42.2542 252.152 43.9131C251.974 44.67 251.616 45.3725 251.107 45.9601C250.721 46.3976 250.213 46.7094 249.648 46.8553C249.286 46.9427 248.908 46.9427 248.546 46.8553C248.456 46.8299 248.368 46.7963 248.283 46.7551C248.202 46.7176 248.177 46.705 248.177 46.6988Z" fill="#FF9A6C"/>
<path d="M195.58 90.644C196.299 89.8573 196.902 88.972 197.371 88.0148C197.852 86.969 198.128 85.8406 198.184 84.6908C198.277 83.2877 198 81.8849 197.38 80.6227C196.761 79.3604 195.82 78.2829 194.654 77.498C193.71 76.8343 192.647 76.3583 191.524 76.0958C190.481 75.8768 189.412 75.8114 188.35 75.9017C188.35 75.9017 188.419 75.8641 188.569 75.8391C188.775 75.7895 188.984 75.756 189.195 75.7389C189.988 75.6609 190.788 75.7053 191.568 75.8704C192.729 76.1093 193.832 76.5775 194.81 77.2476C196.035 78.0509 197.02 79.1685 197.665 80.4835C198.309 81.7984 198.588 83.2623 198.472 84.722C198.4 85.9064 198.092 87.0643 197.565 88.1275C197.219 88.8435 196.765 89.5022 196.219 90.0806C196.075 90.2396 195.918 90.3862 195.749 90.5188C195.655 90.5877 195.593 90.644 195.58 90.644Z" fill="#263238"/>
<path d="M222.029 32.9769C221.913 33.0942 221.785 33.1991 221.647 33.2899L220.501 34.135C220.007 34.5043 219.393 34.9488 218.667 35.437C217.941 35.9253 217.127 36.5075 216.195 37.1022C214.348 38.3166 212.088 39.6876 209.584 41.1336C207.08 42.5797 204.194 44.0571 201.146 45.5156C198.097 46.9742 195.123 48.1824 192.382 49.2278C189.64 50.2732 187.154 51.1058 185.045 51.7318C183.993 52.0699 183.029 52.3578 182.184 52.5769C181.339 52.796 180.613 53.0089 180.012 53.1591L178.635 53.4971C178.474 53.5406 178.311 53.5741 178.146 53.5973C178.296 53.5259 178.454 53.4713 178.616 53.4345L179.98 53.0339C180.575 52.8711 181.301 52.6646 182.134 52.4079C182.967 52.1512 183.931 51.8695 184.976 51.519C187.048 50.8429 189.552 49.954 192.269 48.9273C194.986 47.9007 197.94 46.6299 200.989 45.1713C204.038 43.7128 206.867 42.2542 209.415 40.8394C211.963 39.4247 214.21 38.06 216.069 36.8768C217.008 36.2947 217.828 35.7313 218.573 35.2555C219.318 34.7797 219.932 34.3541 220.451 34.0035L221.628 33.2085C221.756 33.1217 221.89 33.0443 222.029 32.9769Z" fill="#263238"/>
<path d="M161.964 57.7852C162.734 58.1295 161.538 62.4677 159.291 67.4694C157.044 72.4712 154.602 76.2334 153.832 75.9079C153.062 75.5824 154.258 71.2254 156.505 66.2174C158.753 61.2094 161.194 57.466 161.964 57.7852Z" fill="#3F3F6F"/>
<path d="M161.682 57.804C161.704 58.0672 161.693 58.3321 161.651 58.5928C161.614 59.1061 161.52 59.8448 161.363 60.74C160.52 65.4492 158.598 69.8993 155.748 73.742C155.197 74.4744 154.728 75.0441 154.377 75.4197C154.215 75.6296 154.028 75.8189 153.82 75.9831C153.955 75.7608 154.11 75.5513 154.283 75.3571C154.596 74.9564 155.041 74.368 155.535 73.6293C158.282 69.7561 160.2 65.3574 161.169 60.7087C161.351 59.8197 161.482 59.0936 161.557 58.5928C161.573 58.3264 161.615 58.0623 161.682 57.804Z" fill="#263238"/>
<path d="M155.936 69.986C156.023 70.0236 156.017 70.2302 155.936 70.4493C155.854 70.6684 155.71 70.8186 155.623 70.7873C155.535 70.756 155.541 70.5494 155.623 70.3303C155.704 70.1112 155.854 69.986 155.936 69.986Z" fill="#263238"/>
<path d="M158.096 65.4413C158.177 65.4788 158.133 65.7292 158.002 65.9921C157.87 66.2551 157.695 66.4429 157.614 66.399C157.532 66.3552 157.576 66.1111 157.707 65.8482C157.839 65.5852 158.014 65.4037 158.096 65.4413Z" fill="#263238"/>
<path d="M159.21 62.1673C159.297 62.1673 159.297 62.449 159.21 62.7307C159.122 63.0124 158.978 63.2315 158.89 63.2064C158.803 63.1814 158.809 62.9247 158.89 62.6368C158.972 62.3488 159.128 62.1422 159.21 62.1673Z" fill="#263238"/>
<path d="M143.309 70.9438C143.021 71.526 142.909 72.6465 143.56 73.091C143.914 73.3533 144.357 73.4673 144.794 73.4089C145.231 73.3505 145.628 73.1242 145.901 72.778C146.427 72.152 146.408 71.2067 146.683 70.418C146.778 70.0119 146.972 69.6354 147.247 69.322C147.522 69.0086 147.871 68.768 148.261 68.6214C146.22 68.2645 144.311 68.9281 143.309 70.9438Z" fill="#E0E0E0"/>
<path d="M148.28 71.5886C147.992 72.1708 147.879 73.2913 148.53 73.7358C148.885 73.9965 149.327 74.1096 149.764 74.0513C150.201 73.9929 150.597 73.7676 150.871 73.4228C151.397 72.7968 151.379 71.8515 151.654 71.0628C151.749 70.6569 151.943 70.2807 152.218 69.9674C152.493 69.654 152.841 69.4132 153.231 69.2661C151.191 68.9093 149.281 69.5729 148.28 71.5886Z" fill="#E0E0E0"/>
<path d="M148.749 64.7965C148.461 65.3787 148.349 66.4992 149 66.9437C149.353 67.2056 149.795 67.3194 150.231 67.261C150.667 67.2026 151.063 66.9764 151.335 66.6307C151.867 66.0047 151.842 65.0594 152.117 64.2706C152.214 63.8643 152.409 63.4879 152.685 63.1746C152.961 62.8613 153.31 62.6207 153.701 62.474C151.66 62.1172 149.751 62.7808 148.749 64.7965Z" fill="#E0E0E0"/>
<path d="M250.418 150.051C248.496 154.502 247.288 162.158 246.618 166.953C250.567 163.565 253.803 159.425 256.138 154.775C258.474 150.125 259.861 145.057 260.221 139.866C255.676 141.544 252.334 145.601 250.418 150.051Z" fill="#4F836D"/>
<path d="M192.056 184.068C182.128 159.598 193.308 136.549 182.247 105.774C175.417 86.888 146.746 83.132 146.746 83.132C111.997 83.301 107.521 107.953 105.574 130.264C104.66 140.755 93.0541 180.206 92.4782 195.956C91.7708 211.687 95.2827 212.858 84.6094 227.024C82.4184 229.929 78.412 233.065 80.9598 239.037C82.337 242.261 88.5219 248.484 92.2278 249.254C89.0978 254.143 90.5939 260.728 94.8006 264.785C99.0074 268.841 105.399 270.607 111.565 270.506C117.731 270.406 123.747 268.628 129.494 266.538C149.275 259.27 167.354 247.451 179.818 231.619C192.281 215.788 202.786 205.102 192.056 184.068Z" fill="#263238"/>
<path d="M148.236 90.8318L145.788 89.104L124.016 101.912C122.41 102.235 120.984 103.15 120.02 104.476C119.057 105.801 118.626 107.44 118.814 109.067L128.473 153.707C129.206 158.834 137.156 194.485 137.156 194.485L140.267 201.446C149.144 210.147 164.299 207.08 168.575 195.399C168.841 194.734 169.02 194.038 169.107 193.327C169.169 192.747 169.201 192.164 169.201 191.58C168.988 185.402 169.57 185.283 169.57 185.283C168.994 178.547 167.398 170.634 167.404 170.697C167.41 170.759 181.364 166.941 182.497 148.161C183.06 138.808 180.851 126.389 178.491 114.188C175.229 97.2983 161.92 88.766 148.236 90.8318Z" fill="#FFBF9D"/>
<path d="M149.419 131.409C149.487 132.027 149.31 132.647 148.926 133.136C148.542 133.625 147.982 133.944 147.366 134.026C147.068 134.081 146.762 134.075 146.466 134.01C146.17 133.945 145.891 133.821 145.643 133.646C145.396 133.471 145.186 133.248 145.026 132.991C144.866 132.734 144.759 132.447 144.712 132.148C144.644 131.531 144.82 130.912 145.203 130.423C145.585 129.934 146.144 129.614 146.759 129.531C147.057 129.476 147.363 129.482 147.659 129.547C147.956 129.612 148.236 129.736 148.484 129.911C148.732 130.086 148.942 130.308 149.103 130.566C149.263 130.823 149.371 131.11 149.419 131.409Z" fill="#263238"/>
<path d="M172.951 127.985C173.018 128.603 172.841 129.223 172.457 129.712C172.073 130.201 171.514 130.52 170.897 130.602C170.599 130.655 170.293 130.649 169.997 130.584C169.701 130.518 169.421 130.394 169.174 130.22C168.926 130.045 168.716 129.823 168.555 129.566C168.394 129.309 168.286 129.023 168.237 128.724C168.172 128.105 168.35 127.487 168.734 126.997C169.117 126.508 169.675 126.186 170.29 126.101C170.589 126.047 170.895 126.053 171.191 126.119C171.488 126.185 171.768 126.309 172.015 126.485C172.263 126.66 172.473 126.883 172.634 127.141C172.794 127.398 172.902 127.685 172.951 127.985Z" fill="#263238"/>
<path d="M176.788 119.396C176.525 119.734 174.597 118.576 172.043 118.833C169.489 119.089 167.736 120.548 167.429 120.266C167.279 120.141 167.523 119.553 168.287 118.877C169.317 118.004 170.591 117.47 171.936 117.349C173.274 117.208 174.622 117.503 175.78 118.188C176.6 118.708 176.919 119.24 176.788 119.396Z" fill="#263238"/>
<path d="M151.091 123.478C150.79 123.784 148.987 122.439 146.421 122.432C143.854 122.426 141.97 123.684 141.688 123.384C141.557 123.24 141.857 122.683 142.683 122.088C143.799 121.327 145.121 120.927 146.471 120.942C147.807 120.943 149.107 121.371 150.183 122.163C150.965 122.777 151.235 123.34 151.091 123.478Z" fill="#263238"/>
<path d="M162.69 140.624C162.69 140.48 164.224 140.054 166.766 139.472C167.392 139.341 168.018 139.153 168.086 138.696C168.155 138.239 167.849 137.531 167.46 136.818L165.044 132.035C161.676 125.224 159.166 119.597 159.41 119.465C159.654 119.334 162.64 124.742 166.014 131.553L168.349 136.373C168.669 137.087 169.176 137.888 168.938 138.877C168.863 139.116 168.737 139.335 168.567 139.518C168.396 139.701 168.187 139.844 167.955 139.935C167.604 140.067 167.238 140.155 166.866 140.198C164.318 140.599 162.715 140.768 162.69 140.624Z" fill="#263238"/>
<path d="M167.404 170.684C158.704 171.668 149.901 170.218 141.976 166.496C141.976 166.496 149.87 178.678 168.23 175.135L167.404 170.684Z" fill="#FF9A6C"/>
<path d="M160.756 144.724C160.058 144.346 159.285 144.126 158.492 144.079C157.699 144.033 156.905 144.161 156.167 144.455L155.873 144.73C155.41 145.714 155.138 146.776 155.072 147.86C155.044 148.399 155.133 148.937 155.331 149.438C155.53 149.939 155.835 150.392 156.224 150.765C157.476 151.854 159.498 151.623 160.869 150.684C161.57 150.239 162.11 149.581 162.409 148.806C162.627 148.039 162.583 147.22 162.284 146.481C161.985 145.742 161.447 145.123 160.756 144.724Z" fill="#FF9A6C"/>
<path d="M155.341 143.128C155.754 143.059 156.03 145.832 158.596 147.572C161.163 149.313 164.086 148.712 164.149 149.1C164.199 149.269 163.523 149.726 162.271 149.857C160.649 150.043 159.014 149.645 157.657 148.737C156.35 147.865 155.434 146.517 155.103 144.981C154.909 143.854 155.153 143.128 155.341 143.128Z" fill="#263238"/>
<path d="M152.048 113.23C151.792 113.925 149.231 113.587 146.22 113.931C143.209 114.276 140.762 115.089 140.367 114.463C140.192 114.163 140.618 113.512 141.619 112.836C142.935 112.014 144.42 111.503 145.962 111.34C147.504 111.177 149.063 111.368 150.521 111.897C151.604 112.347 152.161 112.898 152.048 113.23Z" fill="#263238"/>
<path d="M174.803 108.554C174.409 109.18 172.594 108.748 170.472 108.923C168.349 109.098 166.603 109.693 166.133 109.13C165.921 108.854 166.133 108.241 166.878 107.615C167.867 106.857 169.058 106.408 170.301 106.325C171.545 106.243 172.784 106.53 173.864 107.152C174.672 107.677 174.973 108.247 174.803 108.554Z" fill="#263238"/>
<path d="M124.085 141.237C124.085 141.237 137.669 143.353 140.261 110.207C141.15 98.8697 152.944 89.6236 152.944 89.6236L145.688 87.8521C145.688 87.8521 121.143 98.8759 120.761 99.264C120.379 99.6522 116.266 113.468 116.266 113.468L124.085 141.237Z" fill="#263238"/>
<path d="M129.594 139.203C129.45 137.826 127.54 134.727 126.157 134.646C122.47 134.439 115.941 135.372 116.767 144.612C117.913 157.238 130.357 153.482 130.345 153.119C130.332 152.756 130.082 143.96 129.594 139.203Z" fill="#FFBF9D"/>
<path d="M126.069 148.68C126.013 148.649 125.869 148.856 125.512 149.062C125.007 149.331 124.418 149.396 123.866 149.244C122.489 148.874 121.174 146.859 120.905 144.586C120.776 143.507 120.887 142.413 121.23 141.381C121.315 140.977 121.496 140.598 121.757 140.278C122.019 139.957 122.353 139.705 122.733 139.541C122.981 139.452 123.252 139.452 123.5 139.541C123.748 139.63 123.957 139.802 124.091 140.029C124.292 140.367 124.235 140.655 124.304 140.655C124.373 140.655 124.554 140.423 124.404 139.91C124.305 139.604 124.104 139.341 123.835 139.165C123.462 138.932 123.012 138.855 122.583 138.952C121.612 139.109 120.817 140.085 120.46 141.118C120.024 142.262 119.873 143.496 120.022 144.712C120.335 147.216 121.85 149.513 123.728 149.876C124.076 149.943 124.434 149.932 124.776 149.842C125.119 149.752 125.437 149.586 125.706 149.356C126.076 148.987 126.119 148.699 126.069 148.68Z" fill="#FF9A6C"/>
<path d="M129.581 139.109C130.197 138.932 130.803 138.723 131.397 138.483C132.988 137.727 134.384 136.615 135.478 135.234C136.234 134.286 136.879 133.255 137.4 132.16C137.978 130.894 138.429 129.573 138.746 128.217C139.453 125.356 139.697 122.107 140.092 118.708C140.441 115.51 140.953 112.332 141.625 109.186C142.179 106.603 142.924 104.065 143.854 101.593C144.48 99.9344 145.22 98.3217 146.07 96.7663C146.364 96.2154 146.633 95.8085 146.802 95.5143C146.882 95.3655 146.976 95.225 147.084 95.0948C147.021 95.2517 146.948 95.4044 146.865 95.5518C146.715 95.846 146.464 96.2592 146.189 96.8038C145.385 98.3732 144.68 99.9914 144.079 101.649C143.192 104.113 142.479 106.635 141.945 109.199C141.319 112.084 140.843 115.302 140.448 118.695C140.054 122.088 139.822 125.343 139.065 128.235C138.735 129.608 138.267 130.944 137.669 132.223C137.13 133.34 136.462 134.391 135.678 135.353C134.553 136.746 133.111 137.849 131.472 138.571C130.87 138.838 130.234 139.02 129.581 139.109Z" fill="#263238"/>
<path d="M110.325 200.069L110.457 199.793L110.87 198.986C111.105 198.556 111.314 198.113 111.496 197.659C111.609 197.39 111.734 197.102 111.859 196.795L112.066 196.319C112.122 196.15 112.178 195.975 112.241 195.793C112.473 195.073 112.773 194.291 112.98 193.389C113.086 192.945 113.224 192.488 113.324 191.993C113.424 191.499 113.512 190.998 113.606 190.472C113.99 188.071 114.17 185.642 114.144 183.211C113.955 176.873 112.901 170.59 111.014 164.537C110.05 161.1 108.616 157.626 107.615 153.87C107.082 151.948 106.792 149.967 106.751 147.973C106.744 146.949 106.834 145.926 107.02 144.918C107.231 143.904 107.526 142.91 107.903 141.945C109.455 138.057 112.097 134.877 114.639 131.929C117.18 128.98 119.69 126.182 121.925 123.39C125.897 118.451 129.61 113.308 133.049 107.984C135.991 103.439 138.157 99.6334 139.628 96.9854C140.367 95.6645 140.924 94.6254 141.294 93.9243L141.726 93.1292C141.826 92.9477 141.882 92.86 141.882 92.86C141.882 92.86 141.844 92.954 141.757 93.1418L141.35 93.9493C140.993 94.6629 140.455 95.7084 139.735 97.0417C138.289 99.7022 136.148 103.533 133.231 108.097C129.812 113.445 126.109 118.607 122.138 123.559C119.909 126.364 117.443 129.193 114.858 132.123C112.272 135.052 109.712 138.22 108.172 142.026C107.798 142.971 107.507 143.947 107.302 144.943C107.118 145.93 107.03 146.932 107.039 147.936C107.073 149.907 107.36 151.865 107.89 153.764C108.873 157.52 110.325 161.006 111.289 164.462C113.168 170.539 114.2 176.846 114.357 183.204C114.371 185.647 114.176 188.087 113.775 190.497C113.668 191.029 113.568 191.536 113.474 192.031C113.38 192.525 113.23 192.982 113.117 193.427C112.904 194.328 112.591 195.117 112.354 195.837C112.285 196.012 112.228 196.188 112.166 196.357L111.959 196.832L111.577 197.696C111.384 198.148 111.163 198.587 110.914 199.011C110.726 199.355 110.576 199.637 110.469 199.806C110.363 199.975 110.325 200.069 110.325 200.069Z" fill="#4F836D"/>
<path d="M81.1663 299.578L93.5924 227.4L118.789 239.782L109.393 299.797L81.1663 299.578Z" fill="#FFBF9D"/>
<path d="M121.85 190.178C122.689 189.99 133.6 186.084 133.6 186.084L165.764 181.414L182.29 181.858L177.965 207.243L165.764 219.487L147.898 221.991C147.898 221.991 125.237 215.049 125.957 214.874C126.677 214.698 121.85 190.178 121.85 190.178Z" fill="#FFBF9D"/>
<path d="M199.937 179.98L174.271 181.283C174.271 181.283 179.173 214.892 156.499 213.597C133.825 212.301 125.825 188.694 125.825 188.694C125.825 188.694 114.275 192.043 104.234 195.58C94.1934 199.117 83.5013 236.715 83.5013 236.715L110.739 245.479C110.739 245.479 111.834 258.975 116.373 271.608C120.911 284.241 115.891 299.54 115.891 299.54L207.243 299.465C205.218 289.746 205.363 279.7 207.668 270.043C209.283 263.264 210.172 259.401 211.093 254.161C214.88 232.239 199.937 179.98 199.937 179.98Z" fill="#D4D4F4"/>
<path d="M109.28 228.99C109.368 228.99 109.837 233.322 110.332 238.68C110.826 244.039 111.164 248.383 111.077 248.396C110.989 248.409 110.519 244.064 110.025 238.706C109.53 233.347 109.192 228.99 109.28 228.99Z" fill="#263238"/>
<path d="M169.99 283.921C169.99 284.003 160.337 282.5 148.468 280.566C136.599 278.632 126.983 276.985 126.996 276.904C127.008 276.823 136.642 278.319 148.518 280.259C160.393 282.2 170.002 283.834 169.99 283.921Z" fill="#263238"/>
<g opacity="0.3">
<path d="M166.847 244.477C171.383 247.029 176.38 248.654 181.55 249.257C186.719 249.86 191.956 249.429 196.958 247.989C193.828 244.296 188.87 242.543 184.031 242.261C179.192 241.98 174.384 243.012 169.633 244.033" fill="black"/>
</g>
<g opacity="0.3">
<path d="M134.257 261.711C138.792 264.262 143.789 265.885 148.957 266.488C154.125 267.091 159.361 266.661 164.362 265.223C161.232 261.529 156.274 259.777 151.435 259.495C146.596 259.213 141.794 260.24 137.037 261.26" fill="black"/>
</g>
<g opacity="0.3">
<path d="M118.188 281.142C123.278 282.223 128.533 282.281 133.646 281.314C138.759 280.347 143.629 278.373 147.973 275.508C143.885 272.91 138.633 272.716 133.932 273.887C129.231 275.057 124.949 277.467 120.73 279.853" fill="black"/>
</g>
<g opacity="0.3">
<path d="M201.853 215.575C201.853 215.575 184.456 221.284 181.902 237.447C181.902 237.447 196.814 232.777 201.853 215.575Z" fill="black"/>
</g>
<g opacity="0.3">
<path d="M167.561 231.876C167.561 231.876 150.164 237.585 147.61 253.742C147.61 253.742 162.521 249.078 167.561 231.876Z" fill="black"/>
</g>
<g opacity="0.3">
<path d="M119.985 244.64C119.985 244.64 111.221 260.697 120.379 274.237C122.624 269.614 123.758 264.531 123.689 259.392C123.621 254.253 122.352 249.202 119.985 244.64Z" fill="black"/>
</g>
<g opacity="0.3">
<path d="M117.656 276.46L117.812 276.309L118.307 275.871L120.279 274.168C124.444 269.298 129.249 265.015 134.564 261.436C141.738 256.428 151.26 251.507 161.758 246.768C168.487 243.701 174.954 240.884 180.719 238.105C186.485 235.325 191.618 232.665 195.881 230.361C200.144 228.057 203.524 226.073 205.834 224.664L208.495 223.024L209.183 222.599L209.428 222.461L209.202 222.63L208.526 223.081C207.938 223.481 207.049 224.051 205.903 224.771C203.606 226.211 200.238 228.233 195.987 230.561C191.737 232.89 186.597 235.569 180.851 238.374C175.104 241.178 168.619 244.008 161.895 247.069C151.397 251.801 141.863 256.709 134.714 261.655C129.404 265.208 124.581 269.44 120.367 274.244L118.345 275.94L117.831 276.347C117.777 276.391 117.718 276.429 117.656 276.46Z" fill="black"/>
</g>
<path d="M179.254 180.231L180.312 179.605C181.977 177.558 182.941 176.106 185.458 176.913L205.878 158.521L233.898 186.284L205.878 219.406L179.254 180.231Z" fill="#D4D4F4"/>
<path d="M202.197 197.884C202.367 198.185 202.514 198.499 202.635 198.823C202.898 199.449 203.261 200.325 203.687 201.44C204.538 203.662 205.628 206.767 206.648 210.254C207.668 213.741 208.426 216.946 208.908 219.281C209.146 220.445 209.321 221.39 209.427 222.048C209.497 222.386 209.543 222.729 209.565 223.074C209.449 222.749 209.361 222.414 209.302 222.073C209.146 221.372 208.933 220.445 208.676 219.331C208.138 217.015 207.349 213.828 206.329 210.348C205.308 206.867 204.263 203.756 203.462 201.515L202.51 198.867C202.377 198.549 202.272 198.22 202.197 197.884Z" fill="#263238"/>
<path d="M247.388 159.122C247.388 159.122 247.388 159.304 247.388 159.648C247.388 159.992 247.326 160.506 247.275 161.169C247.138 162.503 246.956 164.481 246.506 166.997C245.966 170.054 245.217 173.07 244.264 176.024C243.011 179.942 241.393 183.733 239.432 187.349C235.112 195.405 228.001 203.919 218.567 211.456C209.133 218.993 197.577 225.704 185.158 231.964C178.954 235.131 172.75 237.936 166.766 240.621C160.781 243.307 155.003 245.917 149.619 248.628C138.859 254.018 129.587 259.896 123.133 266.362C122.727 266.763 122.301 267.126 121.925 267.539C121.55 267.952 121.187 268.359 120.817 268.76L119.74 269.943C119.384 270.331 119.033 270.719 118.726 271.126C117.52 272.629 116.549 274.307 115.847 276.103C115.244 277.669 114.883 279.317 114.776 280.992C114.683 282.4 114.755 283.814 114.989 285.205C115.328 287.14 115.886 289.03 116.654 290.839L117.28 292.222C117.424 292.535 117.487 292.698 117.487 292.698C117.487 292.698 117.399 292.542 117.249 292.235C117.099 291.928 116.861 291.471 116.579 290.864C115.778 289.062 115.196 287.17 114.845 285.23C114.595 283.83 114.515 282.405 114.607 280.986C114.701 279.293 115.056 277.625 115.659 276.04C116.357 274.222 117.33 272.523 118.545 271.001C118.86 270.584 119.199 270.185 119.559 269.805L120.642 268.61L121.744 267.358C122.119 266.944 122.545 266.575 122.952 266.174C129.431 259.689 138.696 253.748 149.469 248.333C154.859 245.61 160.631 243 166.615 240.302C172.6 237.604 178.791 234.812 184.988 231.644C197.408 225.384 208.964 218.761 218.361 211.199C227.757 203.637 234.881 195.23 239.213 187.211C241.18 183.615 242.806 179.842 244.07 175.943C245.037 173 245.802 169.994 246.362 166.947C246.831 164.443 247.031 162.471 247.194 161.138C247.257 160.474 247.301 159.967 247.332 159.617C247.363 159.266 247.388 159.122 247.388 159.122Z" fill="#263238"/>
<path d="M164.199 242.036C168.735 244.587 173.733 246.21 178.902 246.813C184.071 247.416 189.308 246.986 194.31 245.548C191.18 241.854 186.215 240.101 181.383 239.82C176.55 239.538 171.736 240.565 166.985 241.585" fill="#4F836D"/>
<path d="M131.196 259.27C135.73 261.822 140.727 263.448 145.895 264.053C151.063 264.659 156.299 264.23 161.301 262.794C158.171 259.101 153.213 257.348 148.374 257.066C143.535 256.785 138.733 257.811 133.976 258.832" fill="#4F836D"/>
<path d="M114.626 279.026C119.717 280.107 124.973 280.165 130.087 279.198C135.201 278.231 140.072 276.257 144.417 273.392C140.323 270.801 135.071 270.6 130.37 271.777C125.669 272.954 121.387 275.358 117.168 277.743" fill="#4F836D"/>
<path d="M202.072 222.373C206.609 224.917 211.605 226.535 216.771 227.134C221.938 227.732 227.172 227.299 232.17 225.86C229.04 222.16 224.082 220.408 219.243 220.132C214.404 219.857 209.603 220.877 204.845 221.897" fill="#4F836D"/>
<path d="M223.588 206.98C228.666 208.1 233.916 208.201 239.034 207.278C244.152 206.355 249.036 204.426 253.404 201.603C249.329 198.973 244.077 198.735 239.369 199.875C234.662 201.014 230.355 203.387 226.123 205.734" fill="#4F836D"/>
<path d="M247.075 180.632C243.225 183.567 238.411 189.646 235.488 193.508C240.589 192.486 245.437 190.46 249.75 187.549C254.062 184.638 257.753 180.899 260.609 176.55C255.827 175.78 250.9 177.689 247.075 180.632Z" fill="#4F836D"/>
<path d="M199.205 212.808C199.205 212.808 181.808 218.523 179.254 234.68C179.254 234.68 194.166 230.01 199.205 212.808Z" fill="#4F836D"/>
<path d="M226.486 186.848C226.486 186.848 212.019 198.072 215.049 214.154C215.043 214.154 227.513 204.745 226.486 186.848Z" fill="#4F836D"/>
<path d="M235.676 152.067C235.676 152.067 230.461 169.595 242.286 180.919C242.286 180.919 246.944 166.008 235.676 152.067Z" fill="#4F836D"/>
<path d="M164.362 229.434C164.362 229.434 146.965 235.144 144.411 251.301C144.411 251.301 159.322 246.637 164.362 229.434Z" fill="#4F836D"/>
<path d="M117.969 242.205C117.969 242.205 109.205 258.268 118.363 271.808C118.363 271.808 126.051 258.205 117.969 242.205Z" fill="#4F836D"/>
<path d="M105.574 130.282L105.424 130.42L104.967 130.814C104.547 131.14 103.984 131.678 103.258 132.379C101.264 134.406 99.5763 136.713 98.2499 139.228C97.3289 140.955 96.5864 142.771 96.0338 144.649C95.3968 146.801 95.0825 149.035 95.1011 151.278C95.1629 153.758 95.5954 156.214 96.3844 158.565C97.2477 161.084 98.4413 163.477 99.9338 165.683C102.844 169.94 106.591 173.561 110.945 176.325C114.498 178.584 118.274 180.472 122.213 181.959C125.569 183.254 128.354 184.125 130.276 184.719L132.498 185.389L133.074 185.564C133.14 185.581 133.203 185.606 133.262 185.64C133.194 185.635 133.127 185.623 133.062 185.602L132.48 185.452C131.966 185.32 131.228 185.114 130.238 184.826C128.304 184.269 125.506 183.436 122.132 182.159C118.161 180.684 114.357 178.796 110.782 176.525C106.383 173.743 102.599 170.089 99.6646 165.789C98.1597 163.558 96.9577 161.137 96.0902 158.59C95.3054 156.207 94.8833 153.719 94.8382 151.21C94.8261 148.936 95.1553 146.674 95.8147 144.499C96.3813 142.608 97.1407 140.781 98.0809 139.046C99.4264 136.55 101.14 134.271 103.164 132.286C103.72 131.747 104.305 131.239 104.917 130.764L105.399 130.395C105.507 130.316 105.566 130.278 105.574 130.282Z" fill="#4F836D"/>
<g opacity="0.3">
<path d="M114.513 157.363C114.513 157.363 115.509 175.649 130.451 182.309C130.451 182.309 129.813 166.703 114.513 157.363Z" fill="black"/>
</g>
<g opacity="0.3">
<path d="M98.156 164.424L96.4908 171.767C101.116 173.345 106.106 173.511 110.826 172.243C107.283 168.669 102.94 165.989 98.156 164.424Z" fill="black"/>
</g>
<path d="M112.003 159.873C112.003 159.873 112.998 178.159 127.941 184.819C127.941 184.819 127.309 169.213 112.003 159.873Z" fill="#4F836D"/>
<path d="M96.7663 130.276C96.7663 130.276 87.8521 146.27 96.9354 159.873C96.9354 159.873 104.729 146.358 96.7663 130.276Z" fill="#4F836D"/>
<path d="M80.1585 165.551C80.1585 165.551 92.5158 179.066 108.297 174.753C108.297 174.753 97.9119 163.078 80.1585 165.551Z" fill="#4F836D"/>
</svg>
