<svg width="186" height="185" viewBox="0 0 186 185" fill="none" xmlns="http://www.w3.org/2000/svg">
<path d="M24.3834 56.7564L25.0252 55.2809C30.4402 42.7763 42.1443 34.0784 55.608 33.0861C57.3405 32.957 59.0802 32.957 60.8128 33.0861C73.31 34.0009 85.1322 41.7472 91.1263 52.8833C94.6527 59.4418 96.4675 67.3023 102.108 72.1161C109.448 78.3868 120.271 77.1216 129.721 75.5207C139.171 73.9198 150.009 72.6841 157.32 78.9807C161.901 82.9276 164.04 89.1393 164.546 95.2109C165.892 111.246 156.759 127.007 143.624 136.026C130.488 145.045 113.967 147.959 98.0979 146.974C75.8663 145.587 53.6493 136.447 38.7397 119.652C23.8301 102.858 17.2347 78.077 24.3834 56.7564Z" fill="#F5F5F5"/>
<path d="M55.5968 176.697C54.0549 173.437 51.6948 170.631 48.7465 168.554C45.7981 166.476 42.362 165.197 38.7727 164.842C40.5121 168.001 42.9511 170.719 45.9029 172.79C48.8548 174.861 52.2413 176.229 55.8033 176.79L55.5968 176.697Z" fill="#455A64"/>
<path d="M40.0823 143.924L40.1929 143.968L40.5175 144.115L41.7459 144.695L42.6312 145.115C42.9558 145.27 43.3062 145.44 43.6751 145.646L46.1797 147C47.076 147.553 48.0793 148.132 49.1306 148.807L50.7204 149.888C50.9934 150.08 51.2737 150.257 51.5467 150.464L52.3693 151.091C54.8017 152.908 57.0536 154.954 59.0937 157.203L59.9052 158.088C60.1819 158.38 60.4106 158.7 60.6651 159.003L61.4028 159.914C61.6463 160.213 61.8897 160.508 62.1 160.825L63.391 162.669L64.4976 164.495C65.7586 166.627 66.8229 168.869 67.6773 171.194C67.858 171.688 68.0462 172.157 68.19 172.607C68.3339 173.057 68.4556 173.492 68.5589 173.894C68.6622 174.296 68.7913 174.669 68.8946 175.001C68.9978 175.333 69.0532 175.668 69.1196 175.956C69.2487 176.52 69.3519 176.967 69.422 177.28C69.4515 177.424 69.4774 177.539 69.4958 177.627C69.5061 177.666 69.5122 177.705 69.5143 177.745C69.4981 177.708 69.4857 177.67 69.4774 177.631C69.4515 177.542 69.422 177.432 69.3851 177.288C69.304 176.978 69.1933 176.55 69.0495 175.975L68.806 175.023C68.699 174.68 68.581 174.311 68.4372 173.916L68.0388 172.636C67.8875 172.186 67.6957 171.721 67.5113 171.231C66.6434 168.927 65.5719 166.705 64.3095 164.591L63.2029 162.773L61.9119 160.958C61.7016 160.641 61.4582 160.346 61.2147 160.047L60.477 159.143C60.2262 158.844 59.9938 158.523 59.7208 158.232L58.913 157.35C56.8755 155.121 54.6328 153.088 52.2143 151.279L51.3991 150.652C51.1262 150.445 50.8458 150.264 50.5766 150.076L48.9941 148.988C47.9576 148.309 46.9617 147.727 46.069 147.166L43.6234 145.768C43.2545 145.561 42.9115 145.399 42.5906 145.229L41.7127 144.79L40.4991 144.178L40.1856 144.016C40.1468 143.99 40.112 143.959 40.0823 143.924Z" fill="#263238"/>
<path d="M20.6318 136.804C20.9084 136.895 21.1784 137.005 21.4397 137.133C21.9339 137.347 22.6163 137.638 23.3836 137.933C24.1508 138.228 24.8591 138.472 25.3607 138.645C25.6417 138.725 25.9165 138.825 26.1833 138.944C25.8936 138.903 25.6084 138.835 25.3312 138.741C24.8111 138.593 24.1029 138.372 23.3319 138.066C22.561 137.76 21.8823 137.465 21.3954 137.225C21.1269 137.112 20.871 136.971 20.6318 136.804Z" fill="#263238"/>
<path d="M20.1893 137.413C20.321 137.477 20.4686 137.5 20.6135 137.479C20.7583 137.459 20.8938 137.396 21.0028 137.298C21.1117 137.201 21.1892 137.073 21.2253 136.931C21.2614 136.789 21.2546 136.64 21.2057 136.502C21.1568 136.364 21.068 136.244 20.9507 136.157C20.8333 136.07 20.6926 136.019 20.5465 136.012C20.4004 136.005 20.2555 136.041 20.1301 136.117C20.0048 136.192 19.9047 136.303 19.8426 136.436C19.7601 136.611 19.7502 136.813 19.8152 136.996C19.8801 137.179 20.0145 137.329 20.1893 137.413Z" fill="#7D7DDE"/>
<path d="M25.1284 128.866C25.3154 129.09 25.4856 129.326 25.6375 129.575C25.9436 130.017 26.3752 130.626 26.8621 131.282C27.349 131.939 27.8175 132.518 28.1605 132.939C28.3546 133.155 28.5334 133.384 28.6954 133.625C28.4704 133.439 28.2652 133.23 28.0831 133.001C27.7142 132.603 27.242 132.028 26.7478 131.371C26.2535 130.714 25.8366 130.091 25.5526 129.63C25.3852 129.391 25.243 129.135 25.1284 128.866Z" fill="#263238"/>
<path d="M27.7952 129.538C28.1119 128.754 28.7025 128.112 29.457 127.732C30.2115 127.351 31.0787 127.257 31.8971 127.468C33.059 127.811 33.9516 128.756 34.575 129.796C36.4194 132.894 36.3677 137.015 38.7838 139.704L37.8653 142.448L31.0081 136.27C30.0232 135.381 29.0236 134.473 28.3412 133.319C27.6588 132.164 27.3268 130.766 27.7952 129.538Z" fill="#7D7DDE"/>
<path d="M22.4652 138.959C21.9099 139.597 21.6061 140.416 21.6109 141.262C21.6156 142.108 21.9286 142.923 22.491 143.555C23.321 144.433 24.5715 144.801 25.7777 144.883C29.3815 145.13 33.0222 143.197 36.5154 144.123L38.5774 142.05L29.9459 138.759C28.7028 138.287 27.4376 137.808 26.1133 137.719C24.7891 137.631 23.3689 137.985 22.4652 138.959Z" fill="#7D7DDE"/>
<path d="M19.3335 132.12C19.599 132.241 19.8565 132.379 20.1044 132.533C20.5729 132.795 21.211 133.153 21.9488 133.525C22.6865 133.898 23.3505 134.215 23.8411 134.436C24.1114 134.54 24.3739 134.664 24.6268 134.805C24.343 134.735 24.0663 134.639 23.8005 134.517C23.2988 134.315 22.6164 134.012 21.8824 133.64C21.1483 133.267 20.5028 132.902 20.038 132.603C19.7873 132.466 19.5512 132.305 19.3335 132.12Z" fill="#263238"/>
<path d="M18.8318 132.688C18.9565 132.764 19.1011 132.802 19.2473 132.796C19.3934 132.791 19.5346 132.741 19.6528 132.655C19.771 132.569 19.8608 132.45 19.911 132.312C19.9611 132.175 19.9693 132.025 19.9344 131.883C19.8996 131.741 19.8232 131.613 19.7152 131.514C19.6071 131.416 19.4721 131.351 19.3275 131.33C19.1828 131.308 19.0349 131.33 18.9027 131.392C18.7704 131.455 18.6597 131.555 18.5847 131.681C18.4851 131.847 18.4552 132.047 18.5015 132.235C18.5477 132.424 18.6664 132.586 18.8318 132.688Z" fill="#7D7DDE"/>
<path d="M24.398 132.149C23.6386 132.521 23.0406 133.157 22.7154 133.937C22.3903 134.718 22.3603 135.59 22.6311 136.391C23.059 137.524 24.0697 138.346 25.1504 138.889C28.378 140.512 33.9184 140.939 36.7809 143.149L38.0461 141.235L31.3732 134.86C30.4105 133.942 29.4293 133.016 28.2416 132.419C27.0538 131.821 25.6078 131.6 24.398 132.149Z" fill="#7D7DDE"/>
<path d="M43.6824 145.702C43.6824 145.702 40.4807 141.15 38.747 139.261C38.747 139.261 35.3829 140.965 35.6928 144.056L43.6824 145.713V145.702Z" fill="#455A64"/>
<path d="M24.4311 129.147C24.5087 129.271 24.6215 129.369 24.7551 129.429C24.8887 129.489 25.037 129.507 25.1813 129.483C25.3256 129.458 25.4592 129.391 25.5653 129.29C25.6713 129.189 25.7449 129.059 25.7767 128.916C25.8085 128.773 25.7971 128.624 25.7439 128.488C25.6907 128.351 25.5981 128.234 25.478 128.15C25.3578 128.066 25.2155 128.02 25.0692 128.018C24.9228 128.015 24.779 128.057 24.6561 128.136C24.4934 128.241 24.3786 128.406 24.3365 128.595C24.2944 128.784 24.3284 128.982 24.4311 129.147Z" fill="#7D7DDE"/>
<path d="M29.5474 133.455C29.6627 133.528 29.7724 133.609 29.8757 133.699C30.0859 133.857 30.381 134.101 30.7425 134.399C31.4802 135.004 32.443 135.875 33.4869 136.845C34.5308 137.815 35.4493 138.756 36.0948 139.427C36.4194 139.77 36.6776 140.05 36.8325 140.246C36.928 140.344 37.0145 140.45 37.0907 140.563C36.9823 140.481 36.8823 140.388 36.7919 140.287L36.021 139.497C35.357 138.833 34.4349 137.922 33.391 136.937C32.3471 135.952 31.3769 135.093 30.6761 134.466C30.3367 134.171 30.0564 133.92 29.8425 133.728C29.7343 133.648 29.6353 133.557 29.5474 133.455Z" fill="#263238"/>
<path d="M32.6792 139.678C33.3764 139.963 34.0541 140.293 34.708 140.666C35.3837 140.993 36.038 141.363 36.6667 141.773C35.9711 141.485 35.2936 141.155 34.6379 140.785C33.963 140.456 33.3089 140.086 32.6792 139.678Z" fill="#263238"/>
<path d="M36.8289 151.187C36.8813 151.16 36.9372 151.142 36.9948 151.131L37.4818 151.01C37.692 150.954 37.9502 150.895 38.2564 150.84C38.5625 150.785 38.9019 150.711 39.2892 150.659C40.189 150.522 41.0951 150.431 42.0041 150.386C43.1191 150.336 44.236 150.349 45.3497 150.423C46.4639 150.51 47.5723 150.661 48.6695 150.873C49.5631 151.049 50.4471 151.27 51.318 151.537C51.6869 151.644 52.0225 151.766 52.3139 151.865C52.6053 151.965 52.8525 152.061 53.0517 152.146L53.5128 152.337C53.5676 152.356 53.6197 152.382 53.6677 152.415C53.6093 152.41 53.5521 152.397 53.498 152.374L53.0258 152.216C52.8193 152.142 52.5721 152.057 52.2881 151.969C52.0041 151.88 51.661 151.766 51.2885 151.67C50.5507 151.452 49.647 151.238 48.6437 151.046C47.5526 150.846 46.4519 150.702 45.346 150.615C44.2411 150.54 43.133 150.523 42.0262 150.563C41.0081 150.607 40.0897 150.689 39.3224 150.796C38.9535 150.836 38.5847 150.903 38.2896 150.947C37.9945 150.991 37.7252 151.039 37.5113 151.083L37.0207 151.168C36.9582 151.185 36.8934 151.191 36.8289 151.187Z" fill="#263238"/>
<path d="M33.8114 153.883C34.0673 153.568 34.3915 153.316 34.7594 153.145C34.2879 153.191 33.812 153.152 33.354 153.031C33.1032 152.982 32.8741 152.855 32.6991 152.669C32.5242 152.482 32.412 152.246 32.3786 151.992C32.3452 151.739 32.3922 151.481 32.5129 151.256C32.6337 151.031 32.8221 150.849 33.0516 150.737C33.5121 150.474 34.022 150.31 34.5492 150.253C37.2087 149.811 39.9051 149.671 42.4909 150.438C40.2777 152.455 37.9022 154.547 34.9697 155.181C34.7867 155.245 34.5915 155.265 34.3994 155.24C34.2073 155.215 34.0237 155.146 33.8631 155.038C33.7216 154.881 33.6391 154.68 33.6297 154.47C33.6203 154.259 33.6845 154.051 33.8114 153.883Z" fill="#7D7DDE"/>
<path d="M124.841 177.398C128.341 176.686 132.104 175.809 135.258 174.138C138.411 172.467 141.182 169.674 141.971 166.185C135.066 167.088 128.448 171.445 124.841 177.398Z" fill="#455A64"/>
<path d="M134.881 142.286C129.127 146.915 121.178 165.156 122.148 171.611C126.132 166.425 136.508 151.622 134.881 142.286Z" fill="#455A64"/>
<path d="M60.4069 120.224C60.4069 120.224 59.1749 130.939 67.1941 136.292C67.3937 133.27 66.8839 130.243 65.7055 127.453C64.527 124.663 62.7125 122.188 60.4069 120.224Z" fill="#455A64"/>
<path d="M85.6375 143.245C85.6375 143.245 76.1834 148.45 76.4859 158.084C76.4859 158.084 84.601 153.758 85.6375 143.245Z" fill="#455A64"/>
<path d="M43.6123 129.132C43.6123 129.132 52.2586 135.583 60.9159 131.345C58.4038 129.653 55.5309 128.572 52.5265 128.187C49.5221 127.803 46.4694 128.127 43.6123 129.132Z" fill="#455A64"/>
<path d="M61.2405 140.394C61.2405 140.394 65.5341 150.294 75.1542 150.917C75.1542 150.932 71.6094 142.422 61.2405 140.394Z" fill="#455A64"/>
<path d="M42.8266 108.512C42.8266 108.512 41.72 119.246 49.8167 124.492C49.8167 124.481 50.879 115.336 42.8266 108.512Z" fill="#455A64"/>
<path d="M25.925 114.89C25.925 114.89 33.6307 122.444 42.7749 119.401C42.7749 119.401 36.2792 112.865 25.925 114.89Z" fill="#455A64"/>
<path d="M21.7017 89.0729C21.7017 89.0729 21.6132 99.8623 30.1525 104.333C30.1525 104.333 30.3553 95.1297 21.7017 89.0729Z" fill="#455A64"/>
<path d="M32.0521 65.4395C32.0521 65.4395 25.951 74.344 30.5545 82.8169C30.5545 82.8169 35.8588 75.292 32.0521 65.4395Z" fill="#455A64"/>
<path d="M36.1981 94.9564C36.1981 94.9564 30.2962 103.979 35.0435 112.36C35.0435 112.36 40.1966 104.731 36.1981 94.9564Z" fill="#455A64"/>
<path d="M38.1642 78.634C38.1642 78.634 28.6069 83.6395 28.688 93.278C28.688 93.2707 36.9027 89.1135 38.1642 78.634Z" fill="#455A64"/>
<path d="M40.5508 68.254C40.5508 68.254 40.4659 68.3315 40.2925 68.4716L39.5216 69.1024C39.1823 69.3754 38.7839 69.7553 38.3191 70.1795C38.083 70.3934 37.8506 70.648 37.5814 70.9172C37.3121 71.1865 37.0502 71.4595 36.7809 71.7767C35.4392 73.2809 34.2677 74.9286 33.2877 76.69C31.9862 79.0214 30.9801 81.5058 30.2925 84.0858C29.451 87.2157 28.9915 90.436 28.924 93.6764C28.8844 95.477 28.9608 97.2784 29.1527 99.0692C29.3344 100.968 29.7621 102.836 30.4253 104.624C31.1575 106.491 32.1006 108.268 33.2361 109.921C34.4277 111.64 35.7748 113.245 37.2605 114.717C40.2667 117.749 43.9001 120.327 47.7031 122.758C51.5061 125.189 55.3645 127.402 58.9019 129.811C62.4394 132.219 65.678 134.824 68.3081 137.76C70.8041 140.529 72.7518 143.747 74.0476 147.243C75.1425 150.3 75.9164 153.462 76.3568 156.679C77.0104 161.33 77.1527 166.039 76.781 170.722C76.7256 171.552 76.6408 172.286 76.5707 172.935C76.5338 173.252 76.5006 173.547 76.4711 173.813C76.4416 174.079 76.3937 174.322 76.3641 174.551C76.2977 174.979 76.2461 175.307 76.2129 175.536C76.1797 175.764 76.1539 175.868 76.1539 175.868C76.1539 175.868 76.1539 175.753 76.1908 175.532C76.2277 175.311 76.2682 174.975 76.3236 174.543L76.4232 173.806C76.449 173.536 76.4785 173.241 76.5117 172.924C76.5781 172.29 76.6592 171.555 76.7072 170.729C77.0497 166.053 76.8877 161.354 76.224 156.712C75.7745 153.508 74.997 150.359 73.9038 147.313C72.6169 143.827 70.6778 140.617 68.19 137.856C65.5711 134.938 62.3435 132.323 58.8097 129.943C55.276 127.564 51.4324 125.336 47.6146 122.898C43.7968 120.46 40.1634 117.878 37.1424 114.827C35.6455 113.345 34.2873 111.729 33.0849 109.999C31.9444 108.333 30.9988 106.542 30.2667 104.661C29.5964 102.859 29.1673 100.976 28.9904 99.0619C28.7991 97.2636 28.7252 95.4548 28.7691 93.6469C28.8456 90.4052 29.315 87.1849 30.1671 84.0563C30.8639 81.4684 31.8813 78.9777 33.1955 76.6421C34.1874 74.8793 35.3727 73.2326 36.7293 71.7324C36.9986 71.4152 37.2752 71.1349 37.5371 70.8766C37.799 70.6184 38.0351 70.3639 38.2748 70.1389C38.7581 69.7147 39.1491 69.3422 39.4921 69.0729L40.2778 68.4569L40.5508 68.254Z" fill="#263238"/>
<path d="M122.321 176.517C122.316 176.484 122.316 176.45 122.321 176.417L122.362 176.129L122.428 175.657L122.473 175.359C122.495 175.252 122.521 175.141 122.546 175.019C122.831 173.667 123.287 172.357 123.904 171.12C124.824 169.285 125.987 167.582 127.36 166.056C129.035 164.191 130.881 162.488 132.875 160.969C134.977 159.331 137.076 157.907 138.983 156.613C140.89 155.318 142.605 154.152 144.015 153.127C145.424 152.101 146.53 151.235 147.279 150.611C147.648 150.309 147.943 150.054 148.142 149.892L148.367 149.707C148.419 149.667 148.445 149.645 148.448 149.648L148.378 149.722L148.164 149.921C147.976 150.091 147.703 150.353 147.327 150.659C146.589 151.297 145.483 152.186 144.092 153.241C142.701 154.296 140.986 155.454 139.083 156.76C137.179 158.066 135.088 159.49 132.993 161.124C131.011 162.638 129.17 164.328 127.493 166.174C126.127 167.684 124.962 169.365 124.029 171.176C123.406 172.4 122.934 173.696 122.624 175.034L122.539 175.366C122.521 175.473 122.502 175.572 122.487 175.665C122.454 175.845 122.425 176 122.403 176.129L122.347 176.417C122.343 176.451 122.335 176.485 122.321 176.517Z" fill="#455A64"/>
<path d="M152.023 149.538L150.684 148.774C150.008 149.313 149.279 149.782 148.507 150.172C147.853 150.421 147.258 150.806 146.763 151.301C146.518 151.551 146.345 151.861 146.261 152.201C146.178 152.54 146.186 152.895 146.287 153.23C146.527 153.728 146.913 154.141 147.393 154.414C148.679 155.27 150.082 155.936 151.558 156.391C151.983 156.573 152.46 156.595 152.9 156.454C153.076 156.365 153.229 156.239 153.35 156.084C153.47 155.929 153.555 155.749 153.598 155.558C153.683 155.175 153.697 154.78 153.638 154.392C153.463 152.675 152.912 151.017 152.023 149.538Z" fill="#7D7DDE"/>
<path d="M167.508 145.03C167.033 144.511 166.428 144.129 165.756 143.924C163.535 143.196 161.137 143.22 158.932 143.994C156.741 144.769 154.724 145.969 152.997 147.524L153.598 149.8C154.75 150.846 156.212 151.488 157.762 151.626C159.301 151.76 160.851 151.667 162.362 151.349C163.458 151.193 164.525 150.88 165.531 150.419C166.542 149.953 167.36 149.15 167.844 148.147C168.074 147.646 168.165 147.091 168.105 146.542C168.046 145.994 167.84 145.471 167.508 145.03Z" fill="#7D7DDE"/>
<path d="M160.082 134.374C159.311 133.986 158.374 134.115 157.57 134.429C155.357 135.296 153.823 137.446 153.118 139.73C152.414 142.013 152.31 144.82 152.31 147.207L155.398 148.199C156.91 146.725 158.257 145.091 159.415 143.326C160.61 141.526 161.72 139.442 161.595 137.284C161.532 136.137 161.104 134.886 160.082 134.374Z" fill="#7D7DDE"/>
<g opacity="0.3">
<path d="M160.082 134.374C159.311 133.986 158.374 134.115 157.57 134.429C155.357 135.296 153.823 137.446 153.118 139.73C152.414 142.013 152.31 144.82 152.31 147.207L153.812 148.173C155.128 147.527 158.22 145.126 159.415 143.326C160.61 141.526 161.72 139.442 161.595 137.284C161.532 136.137 161.104 134.886 160.082 134.374Z" fill="black"/>
</g>
<path d="M162.307 153.643C162.033 153.355 161.706 153.122 161.344 152.957C158.474 151.482 155.217 150.56 152.893 148.317L152.034 149.523C152.444 151.064 153 152.562 153.694 153.997C154.125 154.886 154.638 155.783 155.46 156.329C156.409 156.89 157.542 157.053 158.611 156.782C159.667 156.512 160.683 156.103 161.632 155.565C162.035 155.418 162.369 155.126 162.569 154.746C162.625 154.555 162.63 154.353 162.584 154.16C162.538 153.967 162.442 153.788 162.307 153.643Z" fill="#7D7DDE"/>
<g opacity="0.3">
<path d="M162.307 153.643C162.033 153.355 161.706 153.122 161.344 152.957C158.474 151.482 155.571 150.375 153.247 148.118L152.034 149.523C152.444 151.064 153 152.562 153.694 153.997C154.125 154.886 154.638 155.783 155.46 156.329C156.409 156.89 157.542 157.053 158.611 156.782C159.667 156.512 160.683 156.103 161.632 155.565C162.035 155.418 162.369 155.126 162.569 154.746C162.625 154.555 162.63 154.353 162.584 154.16C162.538 153.967 162.442 153.788 162.307 153.643Z" fill="black"/>
</g>
<path d="M150.953 148.892C148.976 150.471 145.94 150.523 143.694 149.357C142.577 148.755 141.653 147.85 141.029 146.745C140.404 145.641 140.104 144.383 140.164 143.116C140.197 142.577 140.333 141.983 140.78 141.685C141.41 141.264 142.255 141.644 142.871 142.076C145.582 143.957 148.035 146.27 151.06 147.609" fill="#7D7DDE"/>
<g opacity="0.3">
<path d="M150.953 148.892C148.976 150.471 145.94 150.523 143.694 149.357C142.577 148.755 141.653 147.85 141.029 146.745C140.404 145.641 140.104 144.383 140.164 143.116C140.197 142.577 140.333 141.983 140.78 141.685C141.41 141.264 142.255 141.644 142.871 142.076C145.582 143.957 148.035 146.27 151.06 147.609" fill="black"/>
</g>
<path d="M151.303 137.088C151.129 136.061 150.714 135.09 150.09 134.256C149.74 133.823 149.285 133.488 148.768 133.282C148.251 133.075 147.69 133.006 147.139 133.079C146.338 133.252 145.619 133.693 145.103 134.329C144.462 135.109 144.027 136.037 143.837 137.028C143.647 138.018 143.708 139.041 144.015 140.003C144.575 141.899 145.885 143.536 147.397 144.923C148.514 145.945 149.736 146.846 151.041 147.612L152.436 147.457C152.44 143.97 152.06 140.493 151.303 137.088Z" fill="#7D7DDE"/>
<path d="M152.358 144.108C152.279 144.533 152.27 144.968 152.333 145.395C152.354 145.829 152.449 146.255 152.613 146.657C152.65 146.657 152.528 146.085 152.462 145.384C152.395 144.683 152.399 144.112 152.358 144.108Z" fill="#263238"/>
<path d="M152.436 150.43C152.444 150.631 152.475 150.83 152.528 151.024C152.632 151.498 152.765 151.965 152.926 152.422C153.086 152.88 153.274 153.328 153.491 153.761C153.569 153.947 153.671 154.121 153.793 154.281C153.734 154.089 153.66 153.902 153.572 153.721C153.428 153.381 153.236 152.909 153.048 152.378C152.86 151.847 152.716 151.356 152.617 151.002C152.577 150.806 152.516 150.614 152.436 150.43Z" fill="#263238"/>
<path d="M159.433 152.072C159.169 151.934 158.896 151.81 158.618 151.703C157.961 151.413 157.322 151.084 156.704 150.718C156.088 150.351 155.493 149.949 154.922 149.516C154.483 149.18 154.221 148.959 154.21 148.973C154.199 148.988 154.262 149.043 154.372 149.15C154.483 149.257 154.653 149.409 154.867 149.586C155.984 150.51 157.236 151.257 158.581 151.799C158.839 151.902 159.053 151.976 159.201 152.02C159.276 152.047 159.354 152.065 159.433 152.072Z" fill="#263238"/>
<path d="M150.628 149.088C150.208 149.179 149.806 149.339 149.437 149.56C149.047 149.748 148.69 149.997 148.378 150.298C148.4 150.331 148.876 150.014 149.485 149.685C150.093 149.357 150.628 149.114 150.628 149.088Z" fill="#263238"/>
<path d="M149.064 142.124C149.093 142.375 149.149 142.622 149.23 142.861C149.401 143.453 149.618 144.03 149.879 144.588C150.141 145.145 150.446 145.682 150.791 146.192C150.924 146.409 151.081 146.611 151.259 146.793C151.141 146.569 151.01 146.351 150.868 146.14C150.547 145.621 150.257 145.084 149.997 144.532C149.738 143.98 149.51 143.413 149.315 142.835C149.246 142.593 149.162 142.355 149.064 142.124Z" fill="#263238"/>
<path d="M156.084 141.544C156.024 141.603 155.971 141.669 155.925 141.74C155.829 141.869 155.7 142.064 155.556 142.304C155.243 142.787 154.819 143.47 154.431 144.252C154.044 145.034 153.712 145.768 153.502 146.303C153.399 146.572 153.317 146.79 153.27 146.945C153.237 147.021 153.215 147.102 153.203 147.184C153.343 146.909 153.466 146.626 153.572 146.336C153.801 145.812 154.129 145.089 154.531 144.311C154.933 143.533 155.324 142.835 155.619 142.352C155.791 142.093 155.946 141.823 156.084 141.544Z" fill="#263238"/>
<path d="M160.06 147.457C159.981 147.449 159.9 147.449 159.821 147.457L159.168 147.502C158.618 147.55 157.862 147.634 157.028 147.764C156.195 147.893 155.45 148.036 154.911 148.158C154.642 148.217 154.428 148.273 154.277 148.313C154.198 148.329 154.121 148.354 154.048 148.387C154.345 148.361 154.639 148.314 154.929 148.247C155.472 148.151 156.22 148.018 157.05 147.878C157.88 147.738 158.633 147.653 159.179 147.583C159.475 147.56 159.77 147.518 160.06 147.457Z" fill="#263238"/>
<path d="M156.578 153.754C156.419 153.544 156.249 153.342 156.069 153.149C155.657 152.668 155.277 152.162 154.929 151.633C154.587 151.1 154.278 150.547 154.003 149.977C153.901 149.733 153.785 149.496 153.657 149.265C153.664 149.336 153.683 149.406 153.712 149.471C153.753 149.6 153.826 149.789 153.919 150.014C154.424 151.191 155.128 152.272 155.999 153.212C156.169 153.389 156.309 153.529 156.412 153.621C156.515 153.713 156.571 153.761 156.578 153.754Z" fill="#263238"/>
<path d="M149.787 153.514C149.85 153.298 149.899 153.079 149.935 152.858C150.05 152.331 150.205 151.814 150.4 151.312C150.596 150.81 150.829 150.323 151.097 149.855C151.219 149.667 151.331 149.472 151.433 149.272C151.27 149.431 151.131 149.613 151.019 149.811C150.725 150.269 150.478 150.756 150.282 151.264C150.086 151.773 149.941 152.301 149.85 152.839C149.801 153.061 149.78 153.287 149.787 153.514Z" fill="#263238"/>
<path d="M146.202 146.351C146.39 146.521 146.597 146.669 146.818 146.793C147.862 147.439 149.003 147.912 150.197 148.195C150.437 148.264 150.685 148.306 150.934 148.32C150.693 148.235 150.446 148.164 150.197 148.107C149.027 147.78 147.901 147.313 146.844 146.716C146.637 146.582 146.423 146.46 146.202 146.351Z" fill="#263238"/>
<path d="M154.317 148.155C154.376 148.537 154.321 148.929 154.158 149.28C153.995 149.631 153.732 149.926 153.401 150.128C153.07 150.33 152.687 150.429 152.3 150.412C151.913 150.396 151.54 150.266 151.227 150.038C150.914 149.809 150.676 149.493 150.543 149.13C150.409 148.766 150.387 148.371 150.478 147.995C150.569 147.618 150.77 147.277 151.054 147.015C151.339 146.753 151.695 146.58 152.078 146.52C152.332 146.481 152.592 146.491 152.842 146.552C153.092 146.612 153.328 146.722 153.536 146.873C153.744 147.025 153.92 147.216 154.054 147.436C154.188 147.656 154.277 147.9 154.317 148.155Z" fill="white"/>
<path d="M159.112 143.651C158.872 143.859 158.644 144.08 158.43 144.315C158.013 144.728 157.434 145.292 156.763 145.89C156.091 146.487 155.464 146.996 155.003 147.365C154.747 147.553 154.501 147.754 154.265 147.966C154.346 147.935 154.422 147.891 154.49 147.837C154.627 147.749 154.822 147.612 155.062 147.439C155.538 147.092 156.169 146.59 156.851 145.993C157.534 145.395 158.098 144.816 158.5 144.385C158.699 144.167 158.869 143.99 158.961 143.861C159.021 143.798 159.071 143.727 159.112 143.651Z" fill="#263238"/>
<path d="M43.8114 62.4038L42.2548 61.666C41.547 62.3252 40.7732 62.9099 39.9457 63.4108C39.2392 63.7463 38.6108 64.2263 38.1014 64.8198C37.8458 65.1211 37.6765 65.4859 37.6115 65.8755C37.5466 66.2652 37.5884 66.6652 37.7325 67.033C38.0478 67.5715 38.522 67.9993 39.0899 68.2577C40.5924 69.0977 42.2071 69.7187 43.8852 70.102C44.3764 70.2655 44.9095 70.2498 45.3902 70.0578C45.5777 69.9428 45.7377 69.7881 45.8588 69.6045C45.9799 69.421 46.0592 69.213 46.0911 68.9954C46.1531 68.5606 46.1356 68.1182 46.0394 67.6896C45.6958 65.7849 44.935 63.9798 43.8114 62.4038Z" fill="#7D7DDE"/>
<path d="M60.7093 56.0408C60.1355 55.5059 59.4284 55.1352 58.6621 54.9674C56.1219 54.3456 53.4476 54.5776 51.0524 55.6277C48.6732 56.6808 46.5248 58.1925 44.73 60.0762L45.5968 62.5624C46.9683 63.6328 48.6525 64.2248 50.3921 64.2481C52.1214 64.2654 53.8438 64.0293 55.5046 63.5473C56.713 63.2769 57.8767 62.836 58.9609 62.2378C60.0493 61.6299 60.8938 60.6642 61.3512 59.5045C61.5677 58.9231 61.6224 58.2939 61.5094 57.6839C61.3964 57.0738 61.1198 56.506 60.7093 56.0408Z" fill="#7D7DDE"/>
<path d="M51.5136 44.7903C50.6209 44.4214 49.5881 44.6465 48.7176 45.0633C46.3089 46.2215 44.7891 48.752 44.1989 51.3598C43.6088 53.9677 43.7305 57.1105 43.937 59.7774L47.4671 60.6184C49.0256 58.8448 50.3861 56.9067 51.5247 54.8383C52.7087 52.7247 53.7674 50.3049 53.4465 47.9072C53.2842 46.6347 52.7014 45.2772 51.5136 44.7903Z" fill="#7D7DDE"/>
<g opacity="0.3">
<path d="M51.5136 44.7903C50.6209 44.4214 49.5881 44.6465 48.7176 45.0633C46.3089 46.2215 44.7891 48.752 44.1989 51.3599C43.6088 53.9677 43.7305 57.1105 43.937 59.7774L45.6929 60.7254C47.1093 59.8918 50.3517 56.9482 51.532 54.8235C52.7124 52.6988 53.7748 50.2901 53.4538 47.8925C53.2842 46.6347 52.7014 45.2772 51.5136 44.7903Z" fill="black"/>
</g>
<path d="M55.641 66.0924C55.3112 65.7948 54.9266 65.5642 54.5086 65.4137C51.1888 63.9973 47.4632 63.2595 44.682 60.9504L43.8225 62.3706C44.4143 64.0556 45.164 65.6809 46.0615 67.2249C46.6148 68.1802 47.264 69.1393 48.2305 69.6741C49.3362 70.2208 50.6135 70.307 51.7827 69.9139C52.9394 69.5243 54.0395 68.9835 55.0545 68.3056C55.4912 68.1056 55.8382 67.7508 56.0283 67.3097C56.0757 67.0906 56.0648 66.863 55.9969 66.6495C55.9289 66.4359 55.8062 66.2439 55.641 66.0924Z" fill="#7D7DDE"/>
<g opacity="0.3">
<path d="M55.641 66.0924C55.3112 65.7948 54.9266 65.5642 54.5086 65.4137C51.1888 63.9973 47.8432 63.0087 45.0619 60.6996L43.8225 62.3706C44.4143 64.0556 45.164 65.6809 46.0615 67.2249C46.6148 68.1802 47.264 69.1393 48.2305 69.6741C49.3362 70.2208 50.6135 70.307 51.7827 69.9139C52.9394 69.5243 54.0395 68.9835 55.0545 68.3056C55.4912 68.1056 55.8382 67.7508 56.0283 67.3097C56.0757 67.0906 56.0648 66.863 55.9969 66.6495C55.9289 66.4359 55.8062 66.2439 55.641 66.0924Z" fill="black"/>
</g>
<path d="M42.5499 61.7693C40.4769 63.7022 37.0943 64.0194 34.4901 62.9091C33.195 62.3302 32.0895 61.3976 31.3006 60.2185C30.5117 59.0395 30.0715 57.6617 30.0305 56.2437C30.0305 55.6387 30.1227 54.9674 30.5986 54.5949C31.2625 54.0711 32.2327 54.4252 32.963 54.8531C36.15 56.7195 39.0973 59.0914 42.5757 60.3344" fill="#7D7DDE"/>
<g opacity="0.3">
<path d="M42.5499 61.7693C40.4769 63.7022 37.0943 64.0194 34.4901 62.9091C33.195 62.3302 32.0895 61.3976 31.3006 60.2185C30.5117 59.0395 30.0715 57.6617 30.0305 56.2437C30.0305 55.6387 30.1227 54.9674 30.5986 54.5949C31.2625 54.0711 32.2327 54.4252 32.963 54.8531C36.15 56.7195 39.0973 59.0914 42.5757 60.3344" fill="black"/>
</g>
<path d="M41.9524 48.5712C41.6093 47.4646 41.1814 46.358 40.3552 45.5096C39.9307 45.0593 39.398 44.7252 38.8078 44.5392C38.2176 44.3533 37.5896 44.3216 36.9837 44.4473C36.0985 44.7037 35.3286 45.2574 34.8037 46.0149C33.4057 47.8962 33.284 50.3676 34.066 52.4369C34.848 54.5063 36.4525 56.2252 38.2563 57.6417C39.5915 58.6877 41.0331 59.5903 42.5573 60.3344L44.0992 60.0393C43.8075 56.1493 43.0875 52.3033 41.9524 48.5712Z" fill="#7D7DDE"/>
<path d="M43.7267 56.3138C43.667 57.2805 43.8377 58.2477 44.2247 59.1356C44.2653 59.1356 44.0845 58.5048 43.9517 57.7265C43.8189 56.9482 43.771 56.3101 43.7267 56.3138Z" fill="#263238"/>
<path d="M44.3538 63.3591C44.3761 63.5835 44.4269 63.8042 44.505 64.0157C44.6609 64.5361 44.8494 65.0461 45.0694 65.5428C45.2859 66.0392 45.5323 66.5221 45.8071 66.9888C45.9082 67.188 46.032 67.3749 46.176 67.5458C46.0991 67.3338 46.0015 67.1299 45.8846 66.9371C45.6964 66.5683 45.4382 66.0592 45.1837 65.4838C44.9292 64.9084 44.73 64.3772 44.5861 63.9862C44.5252 63.7714 44.4475 63.5618 44.3538 63.3591Z" fill="#263238"/>
<path d="M52.3029 64.5949C52.3029 64.5727 51.934 64.4621 51.3586 64.2555C50.6041 63.9858 49.8652 63.6743 49.1454 63.3223C48.4273 62.9617 47.7291 62.5627 47.0539 62.1271C46.5375 61.7915 46.2277 61.5664 46.2129 61.5849C46.1982 61.6033 46.2793 61.6587 46.4121 61.7693C46.5449 61.88 46.7441 62.0312 46.9986 62.212C48.323 63.1466 49.7854 63.8684 51.3328 64.3514C51.6316 64.4436 51.8713 64.51 52.041 64.5506C52.1258 64.5775 52.214 64.5924 52.3029 64.5949Z" fill="#263238"/>
<path d="M42.218 62.0054C41.7573 62.1469 41.3217 62.3597 40.9269 62.6361C40.5118 62.8744 40.1381 63.1783 39.8203 63.5362C39.8461 63.5694 40.3515 63.1673 41.0154 62.7579C41.6794 62.3484 42.2364 62.0349 42.218 62.0054Z" fill="#263238"/>
<path d="M39.8831 54.3772C39.9322 54.6587 40.0139 54.9335 40.1265 55.1961C40.3681 55.8416 40.6604 56.4669 41.0007 57.0662C41.3389 57.6669 41.725 58.2393 42.1553 58.7778C42.3225 59.0092 42.5142 59.222 42.727 59.4122C42.5781 59.1699 42.4142 58.9371 42.2364 58.7151C41.8353 58.1635 41.4658 57.5896 41.1298 56.9962C40.7949 56.3985 40.4932 55.7828 40.2261 55.1518C40.1249 54.888 40.0104 54.6295 39.8831 54.3772Z" fill="#263238"/>
<path d="M47.6663 53.1341C47.6033 53.2042 47.55 53.2823 47.5077 53.3665C47.4118 53.5177 47.279 53.7354 47.1388 54.0268C46.829 54.5912 46.4306 55.3916 46.0322 56.299C45.6338 57.2064 45.3609 58.0474 45.1728 58.6671C45.0805 58.9733 45.0105 59.2241 44.9662 59.4049C44.9344 59.4938 44.917 59.5872 44.9146 59.6815C45.0539 59.3609 45.177 59.0334 45.2834 58.7003C45.4974 58.0954 45.8035 57.2618 46.1798 56.358C46.556 55.4543 46.9433 54.6539 47.231 54.0784C47.3928 53.7716 47.5381 53.4564 47.6663 53.1341Z" fill="#263238"/>
<path d="M52.6052 59.3938C52.5158 59.3823 52.4253 59.3823 52.336 59.3938C52.1663 59.4122 51.9191 59.4491 51.5982 59.4971C50.9896 59.5967 50.1523 59.7553 49.2338 59.9692C48.3153 60.1832 47.4964 60.4119 46.9062 60.5926C46.6111 60.6811 46.375 60.7586 46.2091 60.8176C46.1228 60.8419 46.0398 60.8766 45.9619 60.9209C46.2899 60.8658 46.614 60.7894 46.932 60.6922C47.5296 60.5336 48.3522 60.3233 49.267 60.1094C50.1818 59.8955 51.0154 59.7221 51.6167 59.6004C51.9506 59.5547 52.2809 59.4857 52.6052 59.3938Z" fill="#263238"/>
<path d="M49.256 66.7195C49.0611 66.4993 48.8542 66.2899 48.6363 66.0924C48.1381 65.5891 47.6712 65.0557 47.2383 64.4952C46.8088 63.9307 46.4158 63.3393 46.0616 62.7247C45.9279 62.4616 45.7789 62.2067 45.6152 61.9611C45.6297 62.0396 45.6558 62.1154 45.6927 62.1861C45.7517 62.3263 45.8476 62.5292 45.973 62.7726C46.3045 63.4068 46.6895 64.0115 47.1239 64.5801C47.5572 65.1501 48.0398 65.6809 48.5662 66.1662C48.7691 66.3506 48.935 66.4945 49.0605 66.5867C49.1191 66.6399 49.1849 66.6846 49.256 66.7195Z" fill="#263238"/>
<path d="M41.6573 67.0109C41.709 66.7676 41.7447 66.5212 41.7643 66.2732C41.9307 65.0774 42.2829 63.915 42.8082 62.828C42.9281 62.6068 43.0353 62.379 43.1291 62.1456C42.9636 62.3376 42.8247 62.551 42.716 62.78C42.4256 63.3179 42.1907 63.8839 42.0151 64.4694C41.8326 65.0532 41.7091 65.6538 41.6463 66.2621C41.6159 66.5111 41.6196 66.763 41.6573 67.0109Z" fill="#263238"/>
<path d="M37.054 59.3385C37.2823 59.5135 37.5298 59.662 37.7917 59.7811C39.0106 60.4158 40.3252 60.8469 41.6832 61.0574C41.9615 61.1113 42.2445 61.1373 42.528 61.1349C42.2553 61.0583 41.9781 60.9991 41.698 60.9578C41.0322 60.8232 40.3745 60.6508 39.7282 60.4414C39.0839 60.232 38.452 59.9857 37.836 59.7036C37.5822 59.5677 37.3211 59.4457 37.054 59.3385Z" fill="#263238"/>
<path d="M46.0002 62.2949C46.6295 61.259 46.2999 59.909 45.264 59.2796C44.2281 58.6503 42.8781 58.9799 42.2487 60.0158C41.6193 61.0517 41.9489 62.4017 42.9849 63.0311C44.0208 63.6605 45.3708 63.3309 46.0002 62.2949Z" fill="white"/>
<path d="M51.2295 55.2256C50.9792 55.4771 50.7439 55.7431 50.525 56.0223C50.0971 56.5203 49.4921 57.2027 48.7987 57.922C48.1052 58.6413 47.4412 59.2684 46.9543 59.7147C46.6823 59.9457 46.4236 60.192 46.1797 60.4524C46.2653 60.4091 46.3447 60.3546 46.4158 60.2901C46.5633 60.1758 46.7846 60.0098 47.0207 59.7959C47.5261 59.368 48.1974 58.752 48.8982 58.029C49.5991 57.306 50.1893 56.6088 50.5987 56.0924C50.8053 55.8342 50.9676 55.6203 51.0709 55.469C51.1327 55.3941 51.1859 55.3124 51.2295 55.2256Z" fill="#263238"/>
<path d="M130.023 80.257C130.023 80.257 119.263 79.4528 114.24 87.6786C114.24 87.6786 123.41 88.4901 130.023 80.257Z" fill="#455A64"/>
<path d="M119.057 65.399C119.089 65.4746 119.113 65.5539 119.127 65.635C119.164 65.8121 119.215 66.0408 119.278 66.3285C119.311 66.4797 119.348 66.6457 119.385 66.8302C119.422 67.0146 119.444 67.199 119.477 67.4314C119.54 67.863 119.629 68.3573 119.662 68.9069C119.684 69.1799 119.71 69.4676 119.736 69.7664C119.761 70.0651 119.754 70.3824 119.765 70.7033C119.798 71.3525 119.765 72.046 119.736 72.7726C119.564 75.9376 118.829 79.0465 117.567 81.9538C117.26 82.6177 116.984 83.2522 116.667 83.7981C116.512 84.0821 116.375 84.3661 116.22 84.6244C116.065 84.8826 115.914 85.126 115.77 85.3621C115.494 85.8379 115.191 86.24 114.948 86.5978C114.819 86.7785 114.708 86.9667 114.579 87.0958L114.258 87.4978L113.812 88.0475C113.763 88.1137 113.707 88.1743 113.646 88.2282C113.684 88.1552 113.73 88.086 113.782 88.0216L114.199 87.4499L114.505 87.0441C114.612 86.8892 114.723 86.7195 114.844 86.5388C115.08 86.1699 115.372 85.7715 115.637 85.292L116.076 84.5543C116.228 84.2961 116.36 84.012 116.512 83.728C116.821 83.1636 117.091 82.5292 117.39 81.8837C117.995 80.4334 118.488 78.9388 118.865 77.413C119.215 75.8817 119.445 74.3252 119.551 72.7579C119.581 72.0201 119.625 71.3451 119.599 70.6996C119.599 70.3787 119.599 70.0651 119.599 69.77C119.599 69.4749 119.558 69.1835 119.536 68.9106C119.514 68.361 119.433 67.8704 119.385 67.4351C119.356 67.2175 119.337 67.0183 119.308 66.8339C119.278 66.6494 119.245 66.4834 119.215 66.3285C119.167 66.0445 119.127 65.8121 119.097 65.6313C119.078 65.5551 119.064 65.4774 119.057 65.399Z" fill="#263238"/>
<path d="M129.924 70.6295C129.879 70.6663 129.829 70.6973 129.776 70.7217L129.337 70.9578C129.142 71.0537 128.909 71.1754 128.64 71.3267C128.371 71.4779 128.061 71.6402 127.733 71.8431C127.065 72.2341 126.294 72.7357 125.46 73.3186C124.564 73.9701 123.702 74.6683 122.878 75.41C122.061 76.1603 121.283 76.9519 120.547 77.7819C119.879 78.5528 119.304 79.2758 118.854 79.9029C118.618 80.209 118.426 80.5041 118.249 80.7549C118.072 81.0058 117.928 81.2308 117.814 81.4115L117.537 81.8283C117.474 81.9243 117.438 81.9722 117.43 81.9685C117.423 81.9648 117.449 81.9095 117.504 81.8099C117.559 81.7103 117.652 81.5443 117.751 81.3746C117.851 81.205 117.991 80.9541 118.161 80.6959C118.33 80.4377 118.511 80.1389 118.743 79.8217C119.182 79.1836 119.747 78.4495 120.414 77.6638C121.872 75.9707 123.532 74.463 125.357 73.1747C126.101 72.6432 126.872 72.1507 127.666 71.6992C128.002 71.5 128.315 71.3488 128.592 71.2049C128.869 71.0611 129.105 70.9467 129.304 70.8582L129.761 70.659C129.814 70.6413 129.868 70.6314 129.924 70.6295Z" fill="#263238"/>
<path d="M133.974 70.8877C133.574 70.7936 133.157 70.7936 132.757 70.8877C133.154 70.6318 133.504 70.3085 133.79 69.9324C133.958 69.7391 134.061 69.4977 134.085 69.2425C134.108 68.9873 134.051 68.7312 133.92 68.5105C133.79 68.2897 133.594 68.1155 133.359 68.0126C133.125 67.9096 132.864 67.8831 132.613 67.9368C132.089 68.0148 131.586 68.2006 131.137 68.4827C128.773 69.7737 126.56 71.3267 125.003 73.5251C127.995 73.7428 131.145 73.9309 133.856 72.6177C134.206 72.448 134.594 72.2046 134.645 71.8173C134.658 71.6087 134.597 71.4024 134.475 71.233C134.353 71.0637 134.176 70.9417 133.974 70.8877Z" fill="#7D7DDE"/>
<path d="M156.508 77.7081C157.353 72.7025 155.575 38.3388 155.575 38.3388L143.461 35.576L139.562 74.8752L113.631 103.481L115.066 109.184L118.168 125.111C118.168 125.111 133.763 109.029 138.219 102.61C143.284 95.2957 155.113 85.9449 156.508 77.7081Z" fill="#FFBF9D"/>
<path d="M136.014 17.4572L139.024 29.9987L144.066 37.4535L155.575 38.3388L155.722 37.4314C155.91 36.2591 155.815 35.0591 155.446 33.9308C154.756 31.832 153.638 28.4236 153.31 27.4203C152.834 25.9817 151.573 22.4738 151.573 22.4738L142.454 18.6671L139.765 18.9843L136.014 17.4572Z" fill="#FFBF9D"/>
<path d="M150.027 26.6236C149.736 26.4661 149.518 26.2015 149.418 25.8858C149.235 25.3481 149.132 24.7863 149.112 24.2185C149.053 23.4636 148.992 22.7074 148.928 21.95C148.845 21.5483 148.915 21.1303 149.123 20.777C149.303 20.5718 149.553 20.4404 149.824 20.4081C150.094 20.3676 150.369 20.3676 150.639 20.4081L151.008 20.7217C151.371 21.5091 151.583 22.3573 151.635 23.2226C151.787 23.9787 151.787 24.7572 151.635 25.5133C151.549 25.8719 151.355 26.1953 151.078 26.4391C150.937 26.5642 150.764 26.6476 150.579 26.6802C150.393 26.7127 150.202 26.6931 150.027 26.6236Z" fill="#FFBF9D"/>
<path d="M150.027 26.6236C150.202 26.6633 150.383 26.6633 150.558 26.6236C150.762 26.5777 150.947 26.4739 151.093 26.3248C151.286 26.1246 151.428 25.8802 151.506 25.6129C151.688 24.8885 151.708 24.1328 151.565 23.3997C151.451 22.5624 151.373 21.607 150.916 20.7438L150.938 20.7733L150.569 20.4598L150.621 20.4819H150.503C150.259 20.4424 150.009 20.4424 149.765 20.4819C149.533 20.5295 149.327 20.6609 149.186 20.8508C148.924 21.2197 149.016 21.7472 149.042 22.1972C149.109 23.1046 149.171 23.9272 149.223 24.6317C149.237 25.1762 149.373 25.7106 149.621 26.1957C149.723 26.3669 149.861 26.5132 150.027 26.6236C149.973 26.6155 149.923 26.5939 149.879 26.5609C149.749 26.4807 149.638 26.3723 149.555 26.2437C149.275 25.7582 149.113 25.2135 149.083 24.6538C149.02 23.9493 148.943 23.1267 148.861 22.2156C148.861 21.9869 148.813 21.7545 148.817 21.5037C148.814 21.2426 148.887 20.9863 149.027 20.766C149.196 20.5416 149.442 20.3878 149.717 20.3344C149.987 20.2884 150.263 20.2884 150.532 20.3344H150.65H150.68L150.702 20.3528L151.071 20.6664C151.55 21.5775 151.617 22.555 151.724 23.3923C151.857 24.1446 151.82 24.9171 151.617 25.6535C151.525 25.9347 151.364 26.1883 151.148 26.3912C150.985 26.5454 150.78 26.6481 150.558 26.6863C150.419 26.7118 150.277 26.7042 150.141 26.6642C150.064 26.6568 150.023 26.6236 150.027 26.6236Z" fill="#FF9A6C"/>
<path d="M105.291 31.4779L131.369 19.3384L145.914 46.7785C137.382 52.7353 127.733 56.9047 117.548 59.036L105.291 31.4779Z" fill="#7D7DDE"/>
<path d="M96.6924 39.1872C96.6924 39.1872 125.914 50.1832 125.914 50.4414C125.914 50.6996 119.979 56.1773 119.979 56.1773L95.5194 41.9832L91.27 44.9637L96.1723 34.3882L96.6924 39.1872Z" fill="#7D7DDE"/>
<g opacity="0.2">
<path d="M134.664 25.6461C134.664 25.6461 128.828 47.9515 116.722 57.1843L117.047 57.922C117.047 57.922 129.182 51.2271 135.187 26.7084L134.664 25.6461Z" fill="white"/>
</g>
<g opacity="0.2">
<path d="M136.836 29.652C136.836 29.652 131.034 48.7852 121.074 58.1987L128.083 56.1773C128.083 56.1773 135.191 49.1688 138.909 33.5509L136.836 29.652Z" fill="white"/>
</g>
<path d="M111.421 30.6295C109.444 25.8637 106.995 19.5929 110.525 14.912C111.165 14.0285 112.023 13.3262 113.015 12.8736C114.008 12.421 115.1 12.2337 116.187 12.3299C118.511 12.5439 120.613 13.9566 122.122 15.6756C124.062 17.8888 125.209 20.6922 126.312 23.3849C126.383 23.6182 126.54 23.8159 126.751 23.9379C126.962 24.0599 127.211 24.0969 127.448 24.0415C127.683 23.9743 127.883 23.8177 128.003 23.6053C128.124 23.3928 128.157 23.1416 128.094 22.9054C126.987 20.1979 125.848 17.4683 124.036 15.1333C122.354 12.9607 119.979 11.1938 117.257 10.6516C115.948 10.3755 114.591 10.4307 113.309 10.812C112.027 11.1933 110.861 11.8888 109.916 12.8353C107.832 14.8936 106.917 17.8076 106.91 20.6885C106.91 24.355 108.253 27.8039 109.636 31.1348C109.712 31.3672 109.873 31.5617 110.088 31.6783C110.303 31.795 110.554 31.8249 110.79 31.7619C111.025 31.6956 111.224 31.5395 111.344 31.3275C111.464 31.1155 111.496 30.8647 111.432 30.6295H111.421Z" fill="#7D7DDE"/>
<path d="M132.627 23.3665C133.118 21.6438 134.763 20.5999 136.497 20.3048C138.43 19.9729 140.355 20.8065 141.786 22.1492C145.08 25.2403 146.176 30.3749 145.497 34.7202C145.104 37.3366 144.092 39.8215 142.546 41.9685C142.427 42.18 142.396 42.4295 142.459 42.6638C142.522 42.8982 142.673 43.0987 142.882 43.2226C143.095 43.3393 143.344 43.3699 143.579 43.3081C143.814 43.2463 144.016 43.0969 144.143 42.8906C145.691 40.707 146.744 38.2116 147.226 35.5789C147.709 32.9463 147.611 30.2399 146.939 27.649C145.73 23.0603 141.978 17.8076 136.611 18.4273C134.029 18.7298 131.595 20.2716 130.857 22.8537C130.532 23.9935 132.31 24.4841 132.635 23.3406L132.627 23.3665Z" fill="#7D7DDE"/>
<path d="M144.358 37.579C144.358 37.579 138.504 30.766 138.415 30.5705C138.327 30.375 136.372 25.517 136.372 25.517L135.564 21.2602C135.564 21.2602 134.653 18.099 136.338 18.2909C137.152 18.6858 137.879 19.2388 138.477 19.9178C139.075 20.5967 139.532 21.3878 139.82 22.2451C140.72 25.1002 141.104 25.4912 141.104 25.4912C141.104 25.4912 142.797 25.3842 145.018 27.8999" fill="#FFBF9D"/>
<path d="M145.018 27.9109C145.018 27.9109 144.995 27.9109 144.955 27.8593L144.785 27.6896C144.641 27.5347 144.416 27.3207 144.118 27.0478C143.748 26.7227 143.351 26.4313 142.93 26.1772C142.666 26.0205 142.39 25.886 142.104 25.7752C141.786 25.6479 141.449 25.5768 141.108 25.5649H141.074C140.901 25.3086 140.756 25.034 140.643 24.746C140.517 24.4583 140.399 24.1558 140.274 23.8423C140.149 23.5288 140.045 23.1968 139.931 22.8611C139.817 22.5254 139.706 22.175 139.562 21.8283C138.922 20.3305 137.761 19.1156 136.294 18.4089H136.32C136.191 18.3845 136.059 18.3964 135.937 18.4433C135.815 18.4903 135.709 18.5703 135.63 18.6745C135.484 18.9161 135.408 19.1929 135.409 19.4749C135.401 20.0785 135.482 20.6799 135.648 21.2602L135.811 22.1086C136.039 23.2669 136.242 24.4104 136.464 25.517L137.589 28.3167L138.12 29.6372C138.208 29.8512 138.293 30.0651 138.374 30.2754C138.413 30.3796 138.458 30.4818 138.507 30.5815C138.559 30.6516 138.632 30.7438 138.703 30.8287C139.809 32.1861 140.838 33.3812 141.679 34.3809L143.66 36.7342L144.184 37.3724C144.248 37.4432 144.307 37.5198 144.357 37.6011C144.286 37.5367 144.22 37.4677 144.158 37.3945L143.62 36.7564L141.598 34.4399C140.742 33.4476 139.717 32.2672 138.585 30.9098C138.514 30.825 138.444 30.7475 138.367 30.6368C138.317 30.5347 138.273 30.43 138.234 30.3233L137.972 29.6852L137.437 28.3683C137.068 27.4683 136.7 26.524 136.298 25.5649C136.087 24.4583 135.87 23.3222 135.648 22.1529L135.486 21.3082C135.314 20.7088 135.232 20.0873 135.243 19.4638C135.241 19.1446 135.329 18.8313 135.497 18.5601C135.594 18.422 135.732 18.3185 135.892 18.265C136.044 18.2163 136.205 18.2012 136.364 18.2208H136.39C137.899 18.9506 139.089 20.2076 139.735 21.7545C139.872 22.1234 139.983 22.459 140.104 22.7984C140.226 23.1378 140.326 23.4624 140.436 23.7759C140.547 24.0894 140.665 24.3919 140.787 24.6796C140.89 24.9522 141.023 25.2131 141.181 25.4579H141.13C141.489 25.4738 141.842 25.5524 142.174 25.6903C142.465 25.8055 142.746 25.9475 143.011 26.1145C143.433 26.3759 143.829 26.6787 144.191 27.0183C144.419 27.2294 144.636 27.4523 144.841 27.6859L144.999 27.8666C145.006 27.881 145.012 27.8958 145.018 27.9109Z" fill="#FF9A6C"/>
<path d="M137.947 19.3052C137.334 18.9105 136.892 18.3978 136.213 18.1728L136.091 17.7707C136 17.4105 136.018 17.0312 136.142 16.6811C136.267 16.331 136.493 16.0259 136.792 15.8047C137.091 15.6074 137.437 15.4932 137.795 15.4738C138.153 15.4543 138.509 15.5303 138.828 15.694C139.492 16.0461 140.001 16.6325 140.256 17.3392C140.405 17.7034 140.47 18.0971 140.444 18.49C140.41 18.8752 140.225 19.2315 139.931 19.4823C139.378 19.9212 138.559 19.6962 137.947 19.3052Z" fill="#FFBF9D"/>
<path d="M140.532 20.2975C140.323 19.685 140.297 19.0247 140.459 18.3978C140.542 18.0858 140.692 17.7953 140.898 17.5459C141.103 17.2965 141.36 17.0939 141.65 16.9519C141.943 16.8147 142.268 16.7627 142.589 16.8019C142.91 16.841 143.214 16.9697 143.465 17.1732C143.786 17.4994 144.028 17.8959 144.169 18.3314C144.763 19.7626 145.361 21.2307 145.453 22.78C145.518 23.3824 145.416 23.9913 145.158 24.5395C145.023 24.811 144.815 25.0396 144.558 25.1999C144.301 25.3601 144.004 25.4457 143.701 25.4469C143.471 25.4212 143.249 25.3487 143.049 25.2339C142.848 25.1191 142.674 24.9643 142.535 24.7792C142.208 24.414 141.93 24.0072 141.709 23.5693C141.258 22.4982 140.865 21.4035 140.532 20.2901" fill="#FFBF9D"/>
<path d="M140.532 20.2975C140.571 20.3607 140.601 20.4289 140.621 20.5003L140.831 21.0979C141.016 21.618 141.263 22.3742 141.654 23.2742C141.861 23.7669 142.151 24.22 142.513 24.6132C142.684 24.8466 142.902 25.0424 143.151 25.1886C143.411 25.3394 143.715 25.393 144.011 25.3399C144.326 25.2587 144.612 25.091 144.837 24.8557C145.062 24.6204 145.217 24.3268 145.283 24.0083C145.433 23.3054 145.433 22.5791 145.283 21.8762C144.973 20.5071 144.517 19.1752 143.922 17.9035C143.801 17.6191 143.615 17.3666 143.38 17.1658C143.15 16.9957 142.879 16.8911 142.594 16.8633C142.337 16.8393 142.077 16.8713 141.833 16.9573C141.589 17.0433 141.367 17.1811 141.182 17.3613C140.867 17.6631 140.642 18.0461 140.532 18.4679C140.446 18.786 140.415 19.1167 140.44 19.4454C140.468 19.7278 140.511 20.0085 140.569 20.2864C140.535 20.2197 140.509 20.1491 140.492 20.0761C140.324 19.5459 140.301 18.9804 140.425 18.4384C140.522 18.0044 140.734 17.6044 141.038 17.2801C141.235 17.0814 141.474 16.9282 141.737 16.8314C142.001 16.7345 142.282 16.6963 142.561 16.7194C142.875 16.7468 143.176 16.859 143.432 17.044C143.69 17.2535 143.895 17.52 144.033 17.8224C144.31 18.4236 144.56 19.0544 144.815 19.722C145.083 20.4046 145.29 21.1094 145.435 21.8283C145.591 22.5577 145.591 23.312 145.435 24.0415C145.363 24.3954 145.193 24.7219 144.943 24.983C144.694 25.2441 144.376 25.4293 144.026 25.5169C143.69 25.5763 143.345 25.5135 143.052 25.3399C142.784 25.181 142.552 24.9688 142.369 24.7165C142.011 24.3062 141.727 23.8369 141.528 23.3295C141.159 22.4184 140.923 21.6512 140.761 21.1163C140.687 20.8704 140.628 20.6676 140.584 20.5077C140.558 20.44 140.541 20.3694 140.532 20.2975Z" fill="#FF9A6C"/>
<path d="M146.81 27.6564C146.4 27.4359 146.09 27.0662 145.944 26.6236C145.682 25.8563 145.535 25.0546 145.508 24.2444C145.42 23.1636 145.335 22.0828 145.246 21.002C145.198 20.4266 145.169 19.7921 145.523 19.331C145.775 19.0282 146.132 18.8319 146.523 18.7814C146.767 18.7432 147.015 18.7358 147.26 18.7593C147.542 18.7811 147.808 18.8937 148.02 19.0802C148.152 19.193 148.26 19.3309 148.338 19.486C148.77 20.5448 149.032 21.6652 149.116 22.8058C149.249 23.9124 149.381 25.019 149.086 26.0739C148.964 26.5852 148.687 27.0463 148.293 27.3945C148.094 27.5698 147.85 27.6869 147.589 27.7331C147.327 27.7793 147.058 27.7527 146.81 27.6564Z" fill="#FFBF9D"/>
<path d="M146.81 27.6564C147.084 27.7356 147.374 27.7356 147.648 27.6564C147.964 27.5661 148.247 27.3838 148.459 27.1326C148.74 26.7948 148.934 26.3933 149.024 25.9633C149.278 25.0116 149.156 23.8239 148.979 22.5291C148.904 21.8524 148.781 21.1818 148.61 20.5225C148.516 20.177 148.393 19.8401 148.242 19.5155C148.164 19.3624 148.056 19.2268 147.924 19.1171C147.792 19.0073 147.639 18.9257 147.474 18.8773C146.792 18.7409 145.955 18.8552 145.567 19.4122C145.39 19.6959 145.3 20.0257 145.309 20.3602C145.309 20.6922 145.342 21.0278 145.364 21.3561C145.464 22.6582 145.553 23.8312 145.63 24.8309C145.657 25.6032 145.858 26.3595 146.217 27.0441C146.364 27.2869 146.568 27.4906 146.81 27.638C146.737 27.6207 146.669 27.5894 146.608 27.5457C146.426 27.4252 146.271 27.2682 146.154 27.0847C145.759 26.3946 145.533 25.6212 145.494 24.8272C145.398 23.8386 145.302 22.6619 145.187 21.3561C145.15 21.0192 145.131 20.6807 145.128 20.3417C145.115 19.9707 145.214 19.6043 145.412 19.2905C145.645 18.9767 145.985 18.7599 146.368 18.6818C146.555 18.639 146.747 18.6179 146.94 18.6191C147.137 18.6117 147.334 18.6316 147.526 18.6782C147.72 18.7378 147.9 18.8376 148.053 18.971C148.206 19.1044 148.329 19.2686 148.415 19.4528C148.567 19.7874 148.69 20.1341 148.784 20.4893C148.958 21.1577 149.081 21.8384 149.153 22.5254C149.322 23.8202 149.433 25.0374 149.153 26.0149C149.048 26.4609 148.837 26.8749 148.537 27.2211C148.309 27.4789 148.01 27.6627 147.677 27.7486C147.464 27.8001 147.241 27.8001 147.028 27.7486C146.975 27.7336 146.923 27.7139 146.873 27.6896C146.825 27.6675 146.81 27.6601 146.81 27.6564Z" fill="#FF9A6C"/>
<path d="M115.818 53.5509C116.242 53.0873 116.597 52.5657 116.873 52.0017C117.157 51.3854 117.319 50.7205 117.353 50.043C117.407 49.2162 117.244 48.3896 116.879 47.6459C116.514 46.9021 115.96 46.2672 115.272 45.8047C114.716 45.4136 114.09 45.1331 113.428 44.9784C112.813 44.8494 112.183 44.8109 111.558 44.8641C111.558 44.8641 111.598 44.8419 111.687 44.8272C111.808 44.7979 111.931 44.7782 112.056 44.7682C112.523 44.7222 112.994 44.7483 113.454 44.8456C114.138 44.9864 114.788 45.2623 115.364 45.6571C116.086 46.1305 116.667 46.789 117.046 47.5639C117.426 48.3387 117.59 49.2013 117.522 50.0614C117.48 50.7593 117.298 51.4416 116.987 52.0681C116.783 52.49 116.516 52.8781 116.194 53.2189C116.11 53.3126 116.017 53.399 115.918 53.4771C115.862 53.5177 115.825 53.5509 115.818 53.5509Z" fill="#263238"/>
<path d="M131.403 19.5708C131.334 19.6399 131.259 19.7017 131.178 19.7552L130.503 20.2532C130.211 20.4708 129.85 20.7327 129.422 21.0205C128.994 21.3082 128.515 21.6512 127.965 22.0016C126.877 22.7172 125.545 23.5251 124.07 24.3772C122.594 25.2292 120.894 26.0998 119.097 26.9592C117.301 27.8187 115.549 28.5306 113.933 29.1466C112.318 29.7626 110.853 30.2532 109.61 30.6221C108.99 30.8213 108.422 30.991 107.924 31.1201C107.426 31.2492 106.999 31.3746 106.644 31.4631L105.833 31.6623C105.738 31.6879 105.642 31.7076 105.545 31.7213C105.634 31.6792 105.726 31.6471 105.822 31.6254L106.626 31.3893C106.976 31.2934 107.404 31.1717 107.895 31.0205C108.385 30.8692 108.954 30.7032 109.57 30.4967C110.79 30.0983 112.266 29.5745 113.867 28.9696C115.468 28.3646 117.209 27.6158 119.005 26.7563C120.802 25.8969 122.469 25.0374 123.97 24.2038C125.471 23.3701 126.796 22.566 127.891 21.8688C128.444 21.5258 128.928 21.1938 129.367 20.9135C129.806 20.6331 130.167 20.3823 130.473 20.1757L131.167 19.7073C131.242 19.6561 131.321 19.6105 131.403 19.5708Z" fill="#263238"/>
<path d="M96.01 34.189C96.4638 34.3919 95.7592 36.9482 94.435 39.8954C93.1107 42.8427 91.6722 45.0596 91.2185 44.8678C90.7647 44.676 91.4693 42.1086 92.7935 39.1577C94.1178 36.2068 95.5563 34.0009 96.01 34.189Z" fill="#7D7DDE"/>
<path d="M95.8439 34.2001C95.8565 34.3552 95.8503 34.5113 95.8255 34.6649C95.8033 34.9673 95.748 35.4026 95.6558 35.9301C95.1589 38.705 94.0264 41.3272 92.3471 43.5915C92.0224 44.0231 91.7458 44.3587 91.5392 44.58C91.4439 44.7038 91.3336 44.8153 91.2109 44.912C91.2906 44.7811 91.3819 44.6576 91.4839 44.5432C91.6683 44.3071 91.9302 43.9603 92.2216 43.5251C93.8404 41.2428 94.9706 38.6509 95.5414 35.9117C95.6484 35.3879 95.7259 34.96 95.7701 34.6649C95.7797 34.5079 95.8044 34.3523 95.8439 34.2001Z" fill="#263238"/>
<path d="M92.4579 41.3783C92.5095 41.4004 92.5058 41.5222 92.4579 41.6513C92.4099 41.7804 92.3251 41.8689 92.2734 41.8504C92.2218 41.832 92.2255 41.7103 92.2734 41.5812C92.3214 41.4521 92.4099 41.3783 92.4579 41.3783Z" fill="#263238"/>
<path d="M93.7303 38.7003C93.7783 38.7224 93.7525 38.87 93.675 39.0249C93.5976 39.1798 93.4943 39.2905 93.4463 39.2647C93.3984 39.2389 93.4242 39.095 93.5017 38.9401C93.5791 38.7852 93.6824 38.6782 93.7303 38.7003Z" fill="#263238"/>
<path d="M94.3869 36.7711C94.4385 36.7711 94.4385 36.9371 94.3869 37.1031C94.3352 37.2691 94.2504 37.3982 94.1987 37.3835C94.1471 37.3687 94.1508 37.2175 94.1987 37.0478C94.2467 36.8781 94.3389 36.7564 94.3869 36.7711Z" fill="#263238"/>
<path d="M85.0177 41.9427C84.848 42.2857 84.7816 42.946 85.1652 43.2079C85.374 43.3624 85.6348 43.4296 85.8924 43.3952C86.1499 43.3608 86.3839 43.2274 86.5448 43.0234C86.8546 42.6546 86.8436 42.0976 87.0059 41.6328C87.0618 41.3935 87.1759 41.1717 87.338 40.987C87.5001 40.8024 87.7053 40.6606 87.9354 40.5742C86.7329 40.3639 85.6079 40.7549 85.0177 41.9427Z" fill="#E0E0E0"/>
<path d="M87.9466 42.3226C87.7769 42.6657 87.7105 43.3259 88.0942 43.5878C88.3033 43.7415 88.5639 43.8081 88.8211 43.7737C89.0784 43.7393 89.3123 43.6066 89.4737 43.4034C89.7836 43.0345 89.7725 42.4775 89.9348 42.0128C89.991 41.7736 90.1052 41.5519 90.2673 41.3673C90.4294 41.1827 90.6345 41.0408 90.8644 40.9541C89.6618 40.7438 88.5368 41.1348 87.9466 42.3226Z" fill="#E0E0E0"/>
<path d="M88.2232 38.3204C88.0535 38.6634 87.9872 39.3237 88.3708 39.5856C88.579 39.7399 88.8392 39.807 89.0961 39.7726C89.353 39.7381 89.5864 39.6049 89.7466 39.4012C90.0602 39.0323 90.0454 38.4753 90.2077 38.0105C90.2646 37.7711 90.3795 37.5493 90.5422 37.3647C90.7049 37.1801 90.9106 37.0383 91.141 36.9519C89.9385 36.7416 88.8134 37.1326 88.2232 38.3204Z" fill="#E0E0E0"/>
<path d="M148.131 88.5565C146.998 91.1792 146.287 95.6904 145.892 98.5159C148.219 96.5193 150.126 94.08 151.502 91.34C152.878 88.6 153.695 85.6138 153.907 82.555C151.229 83.5436 149.26 85.9338 148.131 88.5565Z" fill="#455A64"/>
<path d="M113.741 108.601C107.891 94.1817 114.479 80.6 107.961 62.4665C103.937 51.3377 87.0428 49.1245 87.0428 49.1245C66.5669 49.2241 63.9295 63.7501 62.7823 76.8966C62.2438 83.0788 55.405 106.325 55.0656 115.606C54.6488 124.875 56.7182 125.565 50.429 133.912C49.1379 135.624 46.7772 137.472 48.2785 140.991C49.09 142.891 52.7344 146.557 54.9181 147.011C53.0737 149.892 53.9553 153.772 56.4341 156.163C58.9129 158.553 62.6791 159.593 66.3124 159.534C69.9458 159.475 73.4906 158.427 76.8768 157.195C88.533 152.913 99.1859 145.949 106.53 136.62C113.874 127.291 120.064 120.995 113.741 108.601Z" fill="#263238"/>
<path d="M87.9207 53.6616L86.4785 52.6435L73.6492 60.1905C72.7028 60.3812 71.8625 60.9203 71.2948 61.7012C70.7271 62.482 70.4734 63.4476 70.5839 64.4067L76.2756 90.7107C76.7071 93.7317 81.3918 114.739 81.3918 114.739L83.225 118.841C88.4556 123.968 97.3859 122.16 99.9052 115.277C100.062 114.886 100.168 114.475 100.219 114.056C100.256 113.715 100.274 113.371 100.274 113.027C100.149 109.386 100.492 109.316 100.492 109.316C100.152 105.347 99.2118 100.685 99.2155 100.722C99.2192 100.759 107.441 98.5085 108.109 87.4425C108.441 81.9316 107.139 74.6133 105.748 67.424C103.826 57.472 95.9842 52.4443 87.9207 53.6616Z" fill="#FFBF9D"/>
<path d="M88.6179 77.5716C88.6577 77.9357 88.5534 78.301 88.3273 78.5892C88.1011 78.8773 87.7712 79.0655 87.408 79.1135C87.2325 79.1457 87.0522 79.1425 86.8779 79.104C86.7036 79.0656 86.5387 78.9926 86.393 78.8895C86.2473 78.7864 86.1237 78.6552 86.0294 78.5037C85.9351 78.3521 85.8721 78.1832 85.844 78.0069C85.8042 77.6433 85.908 77.2786 86.1334 76.9905C86.3587 76.7024 86.6878 76.5138 87.0502 76.465C87.226 76.4328 87.4065 76.436 87.581 76.4744C87.7556 76.5128 87.9207 76.5857 88.0667 76.6887C88.2127 76.7918 88.3367 76.923 88.4314 77.0746C88.526 77.2262 88.5894 77.3952 88.6179 77.5716Z" fill="#263238"/>
<path d="M102.484 75.5539C102.523 75.918 102.419 76.2833 102.193 76.5714C101.967 76.8596 101.637 77.0478 101.274 77.0958C101.098 77.1275 100.918 77.1239 100.743 77.0853C100.569 77.0467 100.404 76.9737 100.258 76.8707C100.112 76.7678 99.9884 76.6368 99.8936 76.4854C99.7988 76.3341 99.7351 76.1654 99.7061 75.9892C99.6682 75.625 99.7731 75.2603 99.9988 74.972C100.225 74.6836 100.553 74.4942 100.916 74.4436C101.092 74.4119 101.273 74.4156 101.447 74.4545C101.622 74.4933 101.787 74.5666 101.933 74.6699C102.079 74.7733 102.203 74.9047 102.297 75.0565C102.392 75.2083 102.455 75.3773 102.484 75.5539Z" fill="#263238"/>
<path d="M104.745 70.493C104.59 70.6922 103.454 70.0098 101.949 70.161C100.444 70.3123 99.4109 71.1717 99.2301 71.0058C99.1416 70.932 99.2855 70.5852 99.7355 70.1869C100.342 69.6725 101.094 69.3582 101.886 69.2868C102.674 69.2039 103.469 69.3772 104.151 69.7811C104.634 70.0873 104.822 70.4008 104.745 70.493Z" fill="#263238"/>
<path d="M89.6028 72.8981C89.4258 73.0788 88.3634 72.2857 86.8511 72.2821C85.3387 72.2784 84.2284 73.0198 84.0624 72.8427C83.985 72.7579 84.162 72.4296 84.6489 72.0792C85.306 71.6307 86.0851 71.3951 86.8806 71.4042C87.6678 71.4044 88.4343 71.6564 89.068 72.1234C89.529 72.4849 89.6877 72.8169 89.6028 72.8981Z" fill="#263238"/>
<path d="M96.4379 83.0013C96.4379 82.9165 97.3416 82.6657 98.8392 82.3226C99.2081 82.2452 99.577 82.1345 99.6175 81.8652C99.6581 81.596 99.4774 81.1791 99.2487 80.7586L97.8248 77.9405C95.8403 73.9272 94.3612 70.6111 94.505 70.5336C94.6489 70.4561 96.4084 73.6432 98.3966 77.6565L99.7725 80.4967C99.9606 80.9172 100.259 81.3894 100.119 81.9722C100.075 82.1128 100.001 82.2418 99.9004 82.3497C99.8002 82.4575 99.6771 82.5416 99.5401 82.5956C99.3332 82.6731 99.1177 82.7251 98.8982 82.7505C97.397 82.9866 96.4526 83.0862 96.4379 83.0013Z" fill="#263238"/>
<path d="M99.2153 100.714C94.0888 101.294 88.9019 100.44 84.2319 98.2467C84.2319 98.2467 88.8834 105.425 99.7023 103.337L99.2153 100.714Z" fill="#FF9A6C"/>
<path d="M95.2981 85.4174C94.8865 85.1945 94.431 85.0648 93.9638 85.0374C93.4966 85.01 93.029 85.0856 92.5943 85.2588L92.4209 85.4211C92.1479 86.0004 91.9877 86.6263 91.9487 87.2655C91.9324 87.5827 91.9845 87.8998 92.1017 88.1952C92.2188 88.4905 92.3981 88.7572 92.6274 88.977C93.3652 89.6188 94.5566 89.4824 95.3644 88.9291C95.7777 88.667 96.0958 88.279 96.2719 87.8225C96.4006 87.3704 96.3748 86.8883 96.1984 86.4526C96.0219 86.0169 95.7051 85.6526 95.2981 85.4174Z" fill="#FF9A6C"/>
<path d="M92.1074 84.4768C92.3509 84.4362 92.5132 86.0703 94.0255 87.0958C95.5379 88.1212 97.2605 87.7671 97.2974 87.9958C97.3269 88.0954 96.9285 88.3647 96.1908 88.4421C95.235 88.5513 94.2715 88.3173 93.4722 87.7819C92.7018 87.268 92.1619 86.4741 91.9672 85.5687C91.8529 84.9047 91.9968 84.4768 92.1074 84.4768Z" fill="#263238"/>
<path d="M90.1672 66.8597C90.016 67.2691 88.5073 67.07 86.733 67.2728C84.9588 67.4757 83.5165 67.9552 83.2841 67.5864C83.1808 67.4093 83.4317 67.0257 84.0218 66.6273C84.7969 66.1433 85.672 65.8419 86.5807 65.746C87.4895 65.6502 88.4081 65.7623 89.2672 66.074C89.9053 66.3396 90.2336 66.6642 90.1672 66.8597Z" fill="#263238"/>
<path d="M103.575 64.1042C103.343 64.4731 102.273 64.2186 101.023 64.3219C99.7723 64.4251 98.7432 64.7756 98.4665 64.4436C98.3411 64.2813 98.4665 63.9198 98.9055 63.5509C99.488 63.1041 100.19 62.8397 100.922 62.7911C101.655 62.7426 102.386 62.912 103.022 63.278C103.498 63.5878 103.675 63.9235 103.575 64.1042Z" fill="#263238"/>
<path d="M73.6897 83.3628C73.6897 83.3628 81.6941 84.6096 83.2212 65.078C83.745 58.3978 90.6945 52.9497 90.6945 52.9497L86.4193 51.9058C86.4193 51.9058 71.956 58.4015 71.731 58.6302C71.506 58.8589 69.0825 66.9998 69.0825 66.9998L73.6897 83.3628Z" fill="#263238"/>
<path d="M76.9357 82.164C76.8509 81.3525 75.7258 79.5266 74.9106 79.4787C72.738 79.3569 68.8907 79.9066 69.3776 85.3511C70.0526 92.7911 77.3857 90.5779 77.3784 90.364C77.371 90.15 77.2234 84.9674 76.9357 82.164Z" fill="#FFBF9D"/>
<path d="M74.8591 87.7487C74.8259 87.7302 74.7411 87.852 74.5308 87.9737C74.233 88.1319 73.8859 88.1702 73.5607 88.0807C72.7492 87.863 71.9745 86.6753 71.8159 85.3363C71.7398 84.7003 71.8053 84.0554 72.0077 83.4477C72.0576 83.2092 72.164 82.9862 72.3181 82.7974C72.4722 82.6087 72.6693 82.4598 72.893 82.3632C73.0391 82.3106 73.1989 82.3106 73.345 82.3631C73.4911 82.4156 73.6143 82.5174 73.6935 82.6509C73.8115 82.8501 73.7783 83.0198 73.8189 83.0198C73.8595 83.0198 73.9664 82.8833 73.8779 82.5808C73.8197 82.4003 73.7012 82.2453 73.5422 82.1419C73.3226 82.0043 73.0573 81.9592 72.8045 82.0165C72.2328 82.1087 71.7643 82.6841 71.554 83.2928C71.2967 83.9669 71.208 84.6938 71.2958 85.4101C71.4803 86.8855 72.3729 88.2393 73.4795 88.4532C73.6843 88.4929 73.8955 88.486 74.0972 88.433C74.299 88.38 74.4863 88.2822 74.6452 88.1471C74.8628 87.9294 74.8886 87.7597 74.8591 87.7487Z" fill="#FF9A6C"/>
<path d="M76.9285 82.1087C77.2912 82.0042 77.6482 81.8811 77.9982 81.7398C78.9359 81.2943 79.7588 80.6393 80.4032 79.8254C80.8488 79.2671 81.2288 78.6594 81.5356 78.0143C81.8765 77.2679 82.1421 76.4894 82.3287 75.6904C82.7455 74.0047 82.8894 72.0902 83.1218 70.0873C83.3279 68.203 83.6295 66.3305 84.0255 64.4768C84.3517 62.9549 84.7906 61.4593 85.3387 60.0024C85.7074 59.0253 86.1437 58.075 86.6444 57.1585C86.8178 56.8339 86.9764 56.5941 87.076 56.4207C87.123 56.333 87.1786 56.2503 87.242 56.1736C87.2048 56.266 87.1617 56.356 87.1129 56.4429C87.0244 56.6162 86.8768 56.8597 86.7145 57.1806C86.2408 58.1053 85.8256 59.0589 85.4714 60.0356C84.9487 61.4872 84.5284 62.9737 84.2136 64.4842C83.8447 66.1847 83.5644 68.0806 83.332 70.0799C83.0996 72.0792 82.9631 73.9973 82.5168 75.7015C82.3223 76.5103 82.0467 77.2975 81.6942 78.0511C81.3767 78.7097 80.983 79.3287 80.5212 79.8955C79.8582 80.7164 79.0083 81.3665 78.0424 81.7915C77.688 81.9493 77.3129 82.0561 76.9285 82.1087Z" fill="#263238"/>
<path d="M65.582 118.029L65.6595 117.867L65.903 117.391C66.0415 117.138 66.1647 116.877 66.2718 116.609C66.3382 116.45 66.412 116.281 66.4858 116.1L66.6075 115.82C66.6407 115.72 66.6739 115.617 66.7108 115.51C66.8473 115.085 67.0243 114.624 67.146 114.093C67.2088 113.831 67.2899 113.562 67.3489 113.271C67.4079 112.979 67.4596 112.684 67.5149 112.374C67.7416 110.96 67.8477 109.528 67.8321 108.095C67.7205 104.361 67.1 100.659 65.9878 97.0921C65.4197 95.067 64.575 93.0198 63.9849 90.8066C63.671 89.6741 63.5 88.5068 63.4758 87.3319C63.4717 86.7282 63.5248 86.1254 63.6344 85.5318C63.7587 84.9343 63.9327 84.3482 64.1545 83.7797C65.0693 81.489 66.6259 79.6151 68.1235 77.8778C69.6212 76.1404 71.1003 74.4916 72.4172 72.8464C74.7576 69.9358 76.9455 66.9058 78.972 63.7686C80.7056 61.0906 81.9819 58.8479 82.8488 57.2876C83.284 56.5093 83.6123 55.8969 83.8299 55.4838L84.0845 55.0153C84.1435 54.9084 84.1767 54.8567 84.1767 54.8567C84.1767 54.8567 84.1545 54.9121 84.1029 55.0227L83.8631 55.4986C83.6529 55.9191 83.3357 56.5351 82.9115 57.3208C82.0594 58.8884 80.7978 61.1459 79.0789 63.835C77.0645 66.9866 74.8826 70.028 72.5426 72.946C71.2294 74.5985 69.7761 76.2658 68.2526 77.9921C66.7292 79.7184 65.2206 81.5849 64.3131 83.8276C64.0926 84.3846 63.921 84.9597 63.8004 85.5465C63.6922 86.1279 63.6403 86.7184 63.6455 87.3097C63.6659 88.4711 63.8345 89.6252 64.1472 90.7439C64.7263 92.9571 65.582 95.0117 66.1501 97.0478C67.2572 100.629 67.8654 104.345 67.9576 108.092C67.9659 109.531 67.8511 110.969 67.6145 112.389C67.5518 112.703 67.4928 113.001 67.4375 113.293C67.3821 113.584 67.2936 113.853 67.2272 114.115C67.1018 114.647 66.9173 115.111 66.7772 115.535C66.7366 115.639 66.7034 115.742 66.6665 115.842L66.5448 116.122L66.3198 116.631C66.2061 116.897 66.0755 117.156 65.9288 117.406C65.8181 117.609 65.7296 117.775 65.6669 117.874C65.6042 117.974 65.582 118.029 65.582 118.029Z" fill="#455A64"/>
<path d="M48.4001 176.664L55.7222 134.134L70.5691 141.43L65.0324 176.793L48.4001 176.664Z" fill="#FFBF9D"/>
<path d="M72.3728 112.201C72.8671 112.09 79.2964 109.789 79.2964 109.789L98.2489 107.037L107.987 107.299L105.438 122.256L98.2489 129.471L87.7214 130.947C87.7214 130.947 74.3684 126.856 74.7926 126.753C75.2168 126.649 72.3728 112.201 72.3728 112.201Z" fill="#FFBF9D"/>
<path d="M118.386 106.192L103.262 106.959C103.262 106.959 106.15 126.764 92.7898 126C79.4294 125.237 74.7153 111.327 74.7153 111.327C74.7153 111.327 67.9097 113.3 61.993 115.384C56.0764 117.468 49.7761 139.623 49.7761 139.623L65.8256 144.787C65.8256 144.787 66.4711 152.74 69.1454 160.183C71.8197 167.627 68.8614 176.642 68.8614 176.642L122.69 176.598C121.497 170.871 121.583 164.951 122.941 159.261C123.893 155.266 124.417 152.99 124.959 149.903C127.19 136.985 118.386 106.192 118.386 106.192Z" fill="#7D7DDE"/>
<path d="M64.9659 135.071C65.0176 135.071 65.2942 137.623 65.5856 140.781C65.877 143.938 66.0762 146.498 66.0246 146.506C65.9729 146.513 65.6963 143.953 65.4049 140.796C65.1135 137.638 64.9143 135.071 64.9659 135.071Z" fill="#263238"/>
<path d="M100.739 167.439C100.739 167.487 95.0509 166.602 88.0572 165.462C81.0635 164.322 75.3977 163.352 75.405 163.304C75.4124 163.256 81.0893 164.138 88.0867 165.281C95.0841 166.425 100.746 167.387 100.739 167.439Z" fill="#263238"/>
<g opacity="0.3">
<path d="M98.887 144.197C101.56 145.7 104.504 146.658 107.55 147.013C110.596 147.368 113.683 147.114 116.63 146.266C114.785 144.09 111.864 143.057 109.012 142.891C106.161 142.725 103.328 143.333 100.528 143.935" fill="black"/>
</g>
<g opacity="0.3">
<path d="M79.6838 154.351C82.3561 155.854 85.3004 156.811 88.3456 157.166C91.3908 157.522 94.4763 157.268 97.4227 156.421C95.5784 154.245 92.6569 153.212 89.8056 153.046C86.9542 152.88 84.125 153.485 81.3216 154.086" fill="black"/>
</g>
<g opacity="0.3">
<path d="M70.2151 165.801C73.2146 166.438 76.3107 166.472 79.3236 165.902C82.3365 165.333 85.2061 164.17 87.7658 162.481C85.3571 160.951 82.2623 160.836 79.4921 161.526C76.7219 162.216 74.1989 163.636 71.7127 165.041" fill="black"/>
</g>
<g opacity="0.3">
<path d="M119.514 127.166C119.514 127.166 109.263 130.53 107.758 140.054C107.758 140.054 116.545 137.302 119.514 127.166Z" fill="black"/>
</g>
<g opacity="0.3">
<path d="M99.3076 136.771C99.3076 136.771 89.0567 140.135 87.5518 149.656C87.5518 149.656 96.3382 146.908 99.3076 136.771Z" fill="black"/>
</g>
<g opacity="0.3">
<path d="M71.2737 144.292C71.2737 144.292 66.1096 153.754 71.5061 161.733C72.829 159.008 73.4969 156.013 73.4566 152.985C73.4162 149.957 72.6687 146.98 71.2737 144.292Z" fill="black"/>
</g>
<g opacity="0.3">
<path d="M69.9016 163.042L69.9938 162.953L70.2852 162.695L71.4472 161.692C73.9012 158.822 76.7328 156.298 79.8647 154.189C84.092 151.238 89.7024 148.339 95.8884 145.547C99.8537 143.739 103.664 142.079 107.061 140.441C110.459 138.804 113.483 137.236 115.995 135.879C118.507 134.521 120.499 133.352 121.86 132.522L123.428 131.555L123.834 131.305L123.978 131.223L123.845 131.323L123.446 131.589C123.1 131.825 122.576 132.16 121.901 132.585C120.547 133.433 118.563 134.624 116.058 135.997C113.553 137.369 110.525 138.948 107.139 140.6C103.753 142.253 99.9312 143.92 95.9695 145.724C89.7836 148.512 84.1657 151.404 79.9533 154.318C76.8241 156.412 73.9819 158.906 71.4988 161.736L70.3074 162.736L70.0049 162.976C69.973 163.001 69.9384 163.024 69.9016 163.042Z" fill="black"/>
</g>
<path d="M106.198 106.34L106.821 105.971C107.803 104.765 108.371 103.909 109.853 104.385L121.886 93.5473L138.396 109.907L121.886 129.423L106.198 106.34Z" fill="#7D7DDE"/>
<path d="M119.717 116.742C119.817 116.919 119.903 117.104 119.975 117.295C120.13 117.664 120.344 118.18 120.595 118.837C121.097 120.146 121.738 121.976 122.34 124.031C122.941 126.085 123.387 127.974 123.671 129.35C123.811 130.036 123.915 130.593 123.977 130.98C124.018 131.18 124.046 131.382 124.059 131.585C123.99 131.393 123.938 131.196 123.904 130.995C123.811 130.582 123.686 130.036 123.535 129.379C123.218 128.014 122.753 126.137 122.152 124.086C121.55 122.035 120.934 120.202 120.462 118.881L119.901 117.321C119.823 117.134 119.761 116.94 119.717 116.742Z" fill="#263238"/>
<path d="M146.346 93.9014C146.346 93.9014 146.346 94.0084 146.346 94.2112C146.346 94.4141 146.309 94.7166 146.279 95.1076C146.198 95.8933 146.091 97.0589 145.825 98.5418C145.507 100.343 145.066 102.12 144.505 103.861C143.766 106.169 142.813 108.403 141.657 110.534C139.112 115.281 134.922 120.298 129.363 124.739C123.804 129.18 116.995 133.134 109.676 136.823C106.021 138.689 102.365 140.342 98.8391 141.924C95.3127 143.507 91.9081 145.045 88.7358 146.642C82.3949 149.818 76.932 153.282 73.129 157.092C72.8892 157.328 72.6384 157.542 72.4171 157.786C72.1957 158.029 71.9818 158.269 71.7642 158.505L71.1297 159.202C70.9195 159.431 70.7129 159.659 70.5322 159.899C69.8211 160.785 69.249 161.774 68.8354 162.832C68.4801 163.754 68.2674 164.726 68.2046 165.713C68.1498 166.542 68.1919 167.375 68.33 168.195C68.5295 169.335 68.8587 170.449 69.3112 171.515L69.6801 172.33C69.7649 172.515 69.8018 172.61 69.8018 172.61C69.8018 172.61 69.7502 172.518 69.6616 172.337C69.5731 172.157 69.4329 171.887 69.2669 171.53C68.7948 170.468 68.4517 169.353 68.2452 168.21C68.0979 167.385 68.0508 166.545 68.105 165.709C68.1603 164.711 68.3693 163.729 68.7247 162.795C69.136 161.724 69.7095 160.722 70.4252 159.825C70.6111 159.58 70.8106 159.344 71.0227 159.121L71.6609 158.416L72.3101 157.679C72.5314 157.435 72.7822 157.218 73.022 156.982C76.8398 153.16 82.299 149.659 88.6473 146.469C91.8232 144.864 95.2242 143.326 98.7505 141.736C102.277 140.146 105.925 138.501 109.577 136.635C116.895 132.946 123.704 129.043 129.241 124.588C134.778 120.132 138.976 115.178 141.528 110.453C142.687 108.333 143.646 106.111 144.391 103.813C144.96 102.079 145.411 100.308 145.741 98.5123C146.017 97.0368 146.135 95.8748 146.231 95.0891C146.268 94.6981 146.294 94.3994 146.312 94.1928C146.331 93.9862 146.346 93.9014 146.346 93.9014Z" fill="#263238"/>
<path d="M97.3267 142.758C99.9995 144.261 102.944 145.218 105.99 145.573C109.036 145.928 112.122 145.675 115.069 144.827C113.225 142.651 110.3 141.618 107.452 141.452C104.604 141.286 101.768 141.891 98.9681 142.492" fill="#455A64"/>
<path d="M77.8801 152.913C80.5519 154.417 83.4959 155.375 86.5411 155.732C89.5864 156.088 92.6721 155.836 95.619 154.99C93.7746 152.813 90.8532 151.78 88.0019 151.614C85.1505 151.449 82.3213 152.053 79.5179 152.655" fill="#455A64"/>
<path d="M68.1162 164.554C71.1163 165.191 74.213 165.225 77.2265 164.655C80.2399 164.086 83.1102 162.923 85.6706 161.235C83.2582 159.707 80.1634 159.589 77.3932 160.283C74.623 160.976 72.1 162.393 69.6138 163.798" fill="#455A64"/>
<path d="M119.643 131.172C122.316 132.671 125.261 133.624 128.305 133.977C131.349 134.33 134.433 134.075 137.378 133.226C135.534 131.046 132.613 130.014 129.761 129.851C126.91 129.689 124.081 130.29 121.277 130.891" fill="#455A64"/>
<path d="M132.321 122.101C135.314 122.761 138.408 122.821 141.423 122.277C144.439 121.733 147.317 120.596 149.89 118.933C147.489 117.384 144.394 117.243 141.62 117.915C138.847 118.586 136.309 119.984 133.815 121.367" fill="#455A64"/>
<path d="M146.161 106.576C143.893 108.306 141.056 111.887 139.333 114.163C142.34 113.561 145.196 112.367 147.737 110.652C150.278 108.937 152.453 106.734 154.136 104.171C151.318 103.717 148.415 104.842 146.161 106.576Z" fill="#455A64"/>
<path d="M117.954 125.535C117.954 125.535 107.703 128.903 106.198 138.424C106.198 138.424 114.984 135.672 117.954 125.535Z" fill="#455A64"/>
<path d="M134.029 110.239C134.029 110.239 125.505 116.852 127.29 126.329C127.286 126.329 134.634 120.784 134.029 110.239Z" fill="#455A64"/>
<path d="M139.444 89.7443C139.444 89.7443 136.371 100.073 143.339 106.745C143.339 106.745 146.084 97.959 139.444 89.7443Z" fill="#455A64"/>
<path d="M97.4228 135.333C97.4228 135.333 87.172 138.697 85.667 148.217C85.667 148.217 94.4534 145.469 97.4228 135.333Z" fill="#455A64"/>
<path d="M70.086 142.858C70.086 142.858 64.9218 152.323 70.3184 160.301C70.3184 160.301 74.8481 152.286 70.086 142.858Z" fill="#455A64"/>
<path d="M62.7823 76.9077L62.6938 76.9888L62.4245 77.2212C62.1774 77.413 61.8454 77.7302 61.4175 78.1434C60.2423 79.3374 59.2482 80.6969 58.4666 82.1788C57.9239 83.1964 57.4864 84.2668 57.1608 85.3732C56.7854 86.6409 56.6002 87.9574 56.6112 89.2795C56.6476 90.7404 56.9025 92.1876 57.3673 93.5731C57.8761 95.0574 58.5794 96.4677 59.4588 97.7671C61.1737 100.276 63.3813 102.41 65.9472 104.038C68.0408 105.369 70.2657 106.481 72.5868 107.358C74.564 108.121 76.2054 108.634 77.3379 108.984L78.6473 109.379L78.9867 109.482C79.0255 109.492 79.0627 109.507 79.0974 109.527C79.0572 109.524 79.0176 109.517 78.9793 109.505L78.6363 109.416C78.3338 109.339 77.8985 109.217 77.3157 109.047C76.1759 108.719 74.5271 108.228 72.5389 107.476C70.1994 106.607 67.9578 105.494 65.8513 104.156C63.2587 102.516 61.0293 100.364 59.3002 97.8298C58.4134 96.5153 57.7052 95.0889 57.194 93.5879C56.7315 92.1834 56.4828 90.7173 56.4562 89.2389C56.4491 87.8995 56.6431 86.5665 57.0317 85.2846C57.3655 84.1708 57.813 83.0942 58.367 82.0718C59.1599 80.6011 60.1696 79.2582 61.3622 78.088C61.6899 77.7706 62.0347 77.4714 62.395 77.1917L62.679 76.974C62.743 76.9273 62.7774 76.9052 62.7823 76.9077Z" fill="#455A64"/>
<g opacity="0.3">
<path d="M68.0498 92.8649C68.0498 92.8649 68.6363 103.64 77.4412 107.564C77.4412 107.564 77.0649 98.3684 68.0498 92.8649Z" fill="black"/>
</g>
<g opacity="0.3">
<path d="M58.4111 97.0257L57.4299 101.353C60.1554 102.282 63.0959 102.38 65.877 101.633C63.789 99.5268 61.2299 97.9476 58.4111 97.0257Z" fill="black"/>
</g>
<path d="M66.5706 94.344C66.5706 94.344 67.1571 105.119 75.9619 109.043C75.9619 109.043 75.5894 99.8475 66.5706 94.344Z" fill="#455A64"/>
<path d="M57.5924 76.904C57.5924 76.904 52.3397 86.3285 57.692 94.344C57.692 94.344 62.2844 86.3802 57.5924 76.904Z" fill="#455A64"/>
<path d="M47.8064 97.6897C47.8064 97.6897 55.0878 105.654 64.387 103.112C64.387 103.112 58.2675 96.2326 47.8064 97.6897Z" fill="#455A64"/>
</svg>
