<svg width="150" height="150" viewBox="0 0 150 150" fill="none" xmlns="http://www.w3.org/2000/svg">
<path d="M11.355 124.485C52.131 124.302 97.872 124.299 138.648 124.485C97.872 124.671 52.131 124.668 11.355 124.485Z" fill="#263238"/>
<path d="M119.937 73.7786C120.279 75.2366 120.642 76.6706 120.714 78.1676C120.675 78.2396 120.681 78.5126 120.726 78.4376C120.735 78.6776 121.101 78.6356 121.101 78.3956C121.098 78.2396 121.092 78.0866 121.086 77.9336C121.944 76.8686 123.189 76.1936 124.197 75.2696C125.01 74.5196 125.592 73.6286 125.901 72.5576C126.735 69.6806 125.952 66.6296 126.957 63.7616C127.821 61.2866 129.375 59.1356 130.689 56.8946C132.075 54.5246 133.098 52.0316 133.203 49.2536C133.284 47.1266 133.032 44.2946 131.412 42.6986C129.696 41.0066 127.566 42.2756 126.252 43.7816C122.442 48.1556 120.678 53.6846 119.964 59.3366C119.571 62.4656 119.163 65.6126 119.256 68.7716C119.31 70.4696 119.553 72.1286 119.937 73.7756V73.7786Z" fill="#8C8CEB"/>
<path d="M120.696 79.3164C120.498 76.3614 120.51 73.3974 120.801 70.4544C120.795 70.4424 120.786 70.4364 120.786 70.4214C120.738 68.0244 120.549 65.6394 120.642 63.2424C120.744 60.6354 121.125 58.0824 121.698 55.5414C121.704 55.5114 121.749 55.5204 121.743 55.5504C121.272 58.0284 120.999 60.5604 120.909 63.0834C120.861 64.4364 120.87 65.7924 120.942 67.1424C120.966 67.5834 121.005 68.0244 121.035 68.4684C122.001 61.7214 124.488 55.3254 128.163 49.6014C128.214 49.5234 128.352 49.6074 128.301 49.6854C125.655 54.0054 123.705 58.7484 122.499 63.6714C124.332 60.2754 127.101 57.4824 129.153 54.2214C129.165 54.2034 129.195 54.2214 129.183 54.2394C127.338 57.8724 124.29 60.7374 122.346 64.3164C122.01 65.7744 121.734 67.2474 121.527 68.7294C121.245 70.7634 121.113 72.8094 121.086 74.8584C122.202 72.7704 123.36 70.7754 124.275 68.5674C124.299 68.5074 124.383 68.5494 124.365 68.6064C123.588 70.8984 122.544 73.3674 121.083 75.3234C121.074 76.7754 121.119 78.2274 121.203 79.6764C121.431 83.5464 122.091 87.3624 122.397 91.2204C122.406 91.3374 122.244 91.3494 122.22 91.2384C121.416 87.3444 120.957 83.2794 120.693 79.3134L120.696 79.3164Z" fill="#263238"/>
<path d="M124.803 49.4784C124.815 49.4514 124.857 49.4694 124.845 49.4964C124.137 51.4494 123.738 53.4294 123.228 55.4334C123.204 55.5234 123.072 55.5054 123.081 55.4094C123.288 53.3784 124.014 51.3504 124.8 49.4754L124.803 49.4784Z" fill="#263238"/>
<path d="M106.857 57.6686C107.316 58.8176 107.883 59.9276 108.483 61.0076C109.755 63.3176 111.084 65.4356 111.324 68.1266C111.432 69.3266 111.468 70.5356 111.837 71.6936C112.152 72.6956 112.668 73.6196 113.259 74.4866C114.639 76.4966 116.361 78.2276 117.639 80.3126C118.968 82.4786 119.949 84.8636 120.549 87.3326C120.582 87.4676 120.795 87.4316 120.762 87.2966C120.756 87.2846 120.756 87.2756 120.753 87.2666C120.759 87.2606 120.765 87.2516 120.765 87.2396C120.966 81.4706 120.507 75.6536 118.746 70.1276C117.975 67.7096 117.027 65.3066 115.95 63.0086C115.008 61.0046 113.832 59.0786 112.176 57.5786C111.102 56.6126 108.774 54.7766 107.244 55.7486C106.509 56.2166 106.566 56.9516 106.854 57.6716L106.857 57.6686Z" fill="#8C8CEB"/>
<path d="M112.656 70.7486C113.646 72.4406 114.819 74.0156 116.01 75.5696C116.568 76.2986 117.135 77.0216 117.693 77.7536C117.957 78.0986 118.251 78.4436 118.494 78.8126C118.341 78.2066 118.194 77.5976 118.038 76.9916C117.294 74.0756 116.577 71.1356 115.47 68.3336C114.387 65.5946 112.944 63.0206 111.465 60.4796C111.426 60.4136 111.534 60.3656 111.573 60.4286C112.791 62.4326 114.03 64.4366 115.056 66.5486C115.629 67.7306 116.109 68.9456 116.535 70.1816C116.037 67.5326 115.44 64.9856 114.567 62.4206C114.558 62.3966 114.591 62.3816 114.603 62.4056C115.665 64.9226 116.433 67.7516 116.646 70.4786C116.646 70.4846 116.646 70.4876 116.643 70.4906C116.892 71.2406 117.123 71.9966 117.336 72.7586C118.245 75.9866 119.043 79.2476 119.784 82.5206C119.772 80.3606 119.637 78.2366 119.226 76.1036C119.217 76.0556 119.289 76.0436 119.301 76.0916C119.838 78.2876 120.081 80.5976 119.859 82.8566C120.138 84.1016 120.411 85.3466 120.678 86.5946C121.245 89.2556 121.941 91.9616 122.274 94.6616C122.283 94.7306 122.184 94.7456 122.166 94.6796C121.77 93.2246 121.53 91.7156 121.209 90.2396C120.885 88.7606 120.549 87.2846 120.207 85.8116C119.706 83.6636 119.181 81.5246 118.647 79.3856C118.29 78.6026 117.6 77.9066 117.081 77.2466C116.514 76.5236 115.944 75.8036 115.392 75.0686C114.363 73.7036 113.418 72.2846 112.617 70.7726C112.599 70.7396 112.65 70.7186 112.668 70.7486H112.656Z" fill="#263238"/>
<path d="M112.41 68.2823C113.661 69.8873 114.798 71.6663 115.692 73.4963C115.704 73.5203 115.668 73.5443 115.653 73.5203C114.549 71.7893 113.463 70.0463 112.362 68.3123C112.344 68.2823 112.392 68.2523 112.413 68.2793L112.41 68.2823Z" fill="#263238"/>
<path d="M136.974 63.141C136.227 64.428 135.372 65.976 135.693 67.521C135.897 68.499 136.614 69.294 136.743 70.293C137.034 72.498 134.835 73.953 133.248 74.994C129.285 77.592 123.852 79.911 123.132 85.221C123.105 85.41 122.781 85.362 122.802 85.179C122.802 85.167 122.805 85.155 122.811 85.143C122.802 85.131 122.79 85.128 122.79 85.113C122.277 82.422 122.289 79.683 122.865 77.004C123.456 74.268 124.65 71.808 126.06 69.405C128.445 65.337 130.968 61.173 134.574 58.056C135.573 57.195 137.616 55.644 138.411 57.591C139.182 59.481 137.889 61.572 136.974 63.141Z" fill="#8C8CEB"/>
<path d="M133.347 71.7628C130.719 74.6068 126.543 76.1998 124.284 79.3858C125.625 74.5048 127.842 70.1128 131.25 66.2998C131.337 66.2008 131.202 66.0628 131.106 66.1558C128.61 68.5558 126.762 71.3578 125.412 74.3998C126.018 72.2278 126.867 70.1728 127.863 68.1298C127.902 68.0518 127.791 67.9858 127.746 68.0608C126.477 70.2268 125.631 72.6568 125.103 75.1078C122.124 82.3198 121.848 90.7798 122.472 98.3818C122.481 98.4898 122.646 98.4928 122.643 98.3818C122.472 92.3908 122.568 86.2948 124.005 80.4448C124.035 80.3218 124.068 80.2018 124.098 80.0818C126.558 76.6528 130.716 75.0628 133.389 71.8078C133.416 71.7778 133.371 71.7328 133.344 71.7628H133.347Z" fill="#263238"/>
<path d="M133.956 69.3209C132.576 70.5869 131.22 71.8799 129.837 73.1429C129.822 73.1549 129.84 73.1789 129.858 73.1699C131.361 72.1529 132.888 70.8089 134.037 69.4019C134.085 69.3449 134.01 69.2669 133.956 69.3209Z" fill="#263238"/>
<path d="M134.175 63.84C132.924 65.847 131.61 67.731 130.05 69.516C130.029 69.54 130.062 69.573 130.086 69.552C131.76 67.938 133.248 65.988 134.25 63.885C134.274 63.837 134.205 63.795 134.175 63.843V63.84Z" fill="#263238"/>
<path d="M114.009 102.392H129.438V86.1293H114.009V102.392Z" fill="#455A64"/>
<path d="M130.503 91.8806H129.714V124.482H130.503V91.8806Z" fill="#263238"/>
<path d="M113.82 91.8806H113.031V124.482H113.82V91.8806Z" fill="#263238"/>
<path d="M121.74 91.8806H120.951V124.482H121.74V91.8806Z" fill="#263238"/>
<path d="M113.427 103.599H130.107V101.346H113.427V103.599Z" fill="#263238"/>
<path d="M136.812 136.32H13.1879L28.2269 124.485H121.773L136.812 136.32Z" fill="#8C8CEB"/>
<g opacity="0.5">
<path d="M136.812 136.32H13.1879L28.2269 124.485H121.773L136.812 136.32Z" fill="white"/>
</g>
<path d="M136.815 136.32H13.1879V138.33H136.815V136.32Z" fill="#8C8CEB"/>
<path d="M70.452 94.791H92.094L95.772 99.003C103.182 98.664 111.708 98.532 119.655 100.254C134.232 103.413 139.482 122.652 121.338 130.092C106.557 136.152 49.884 124.092 49.884 124.092L62.685 103.233C62.685 103.233 78.102 102.648 96.54 102.852L70.626 105.486L70.452 94.794V94.791Z" fill="#37474F"/>
<path d="M55.335 123.432C55.626 122.832 59.025 117.657 59.784 116.472C61.317 114.072 62.79 111.636 64.221 109.176C65.034 107.775 65.853 106.38 66.615 104.949C66.633 104.916 66.588 104.886 66.567 104.919C64.959 107.301 63.432 109.74 61.869 112.155C60.324 114.546 55.446 122.664 55.185 123.36C55.131 123.507 55.266 123.582 55.335 123.435V123.432Z" fill="#263238"/>
<path d="M118.689 102.802C116.862 102.67 115.032 102.624 113.202 102.549C112.452 102.519 111.705 102.492 110.955 102.465C112.146 102.273 113.34 102.121 114.552 102.052C114.639 102.046 114.636 101.917 114.552 101.917C113.109 101.95 111.657 102.109 110.247 102.442C109.404 102.415 108.561 102.391 107.718 102.37C104.061 102.28 100.401 102.271 96.741 102.289C89.46 102.328 82.179 102.475 74.901 102.679C72.849 102.736 70.794 102.799 68.742 102.877C66.693 102.955 64.626 103.045 62.586 103.276C62.55 103.279 62.55 103.33 62.586 103.333C64.413 103.435 66.246 103.402 68.076 103.399C69.906 103.399 71.736 103.339 73.563 103.297C77.223 103.216 80.88 103.135 84.54 103.072C91.821 102.949 99.099 102.918 106.38 102.924C108.432 102.924 110.484 102.922 112.539 102.931C114.591 102.943 116.643 102.999 118.695 102.99C118.818 102.99 118.812 102.811 118.695 102.802H118.689Z" fill="#263238"/>
<path d="M134.406 103.776C134.028 103.62 97.311 101.919 97.311 101.919C96.078 102.549 95.565 106.806 95.565 106.806C95.709 107.454 83.04 110.223 83.04 110.223L97.68 126.489L118.014 114.483C118.014 114.483 132.324 109.047 132.87 108.669C134.286 107.682 135.597 104.256 134.409 103.776H134.406Z" fill="#FFC4C0"/>
<path d="M71.4031 106.062V106.992L22.9171 105.285C33.3541 104.934 54.7801 105.501 71.4031 106.065V106.062Z" fill="#37474F"/>
<path d="M25.4221 105.285C26.7091 105.24 28.1521 105.195 29.7241 105.138C29.9581 105.249 30.1921 105.357 30.4231 105.471L25.4221 105.285Z" fill="#37474F"/>
<path d="M106.047 127.272C106.047 127.272 45.384 135.414 26.475 128.811C11.409 123.546 12.534 107.904 22.917 101.865C23.091 101.763 23.271 101.661 23.454 101.565C23.616 101.478 23.778 101.394 23.943 101.313C23.976 101.295 24.012 101.277 24.045 101.262C24.174 101.199 24.306 101.139 24.435 101.079C24.516 101.04 24.6 101.001 24.684 100.968C24.822 100.905 24.963 100.848 25.104 100.788C25.14 100.773 25.173 100.758 25.209 100.749C25.386 100.677 25.563 100.611 25.746 100.545C25.764 100.539 25.782 100.53 25.8 100.527C25.968 100.464 26.139 100.407 26.313 100.356C26.403 100.323 26.496 100.293 26.592 100.269C26.727 100.224 26.862 100.185 27 100.149C27.213 100.086 27.429 100.032 27.642 99.9812C40.29 96.9392 56.385 99.2822 56.385 99.2822L61.488 94.7942H71.4V106.065C54.777 105.501 33.351 104.934 22.914 105.285L71.4 106.992V106.062C84.129 106.485 94.041 106.911 94.041 106.911L106.044 127.275L106.047 127.272Z" fill="#37474F"/>
<path d="M64.356 105.834C50.352 105.399 34.683 105.042 25.245 105.219C25.131 104.52 25.23 103.95 25.665 103.776C26.043 103.62 62.76 101.919 62.76 101.919C63.615 102.357 64.125 104.541 64.353 105.834H64.356Z" fill="#37474F"/>
<path d="M96.1381 102.291C96.3901 102.291 96.6421 102.288 96.8941 102.288C96.7561 102.468 96.6301 102.693 96.5131 102.945C92.3191 102.963 88.1311 103.005 83.9371 103.074C80.2771 103.137 76.6171 103.218 72.9601 103.296C71.1331 103.341 69.3001 103.398 67.4731 103.398C65.6461 103.401 63.8101 103.434 61.9831 103.332C61.9471 103.332 61.9471 103.281 61.9831 103.278C64.0231 103.047 66.0871 102.957 68.1391 102.879C70.1911 102.798 72.2461 102.735 74.2981 102.681C81.5731 102.477 88.8541 102.33 96.1381 102.291Z" fill="#263238"/>
<path d="M118.182 102.909C114.318 102.723 110.316 102.528 106.863 102.369C106.947 102.369 107.028 102.369 107.112 102.372C107.955 102.39 108.798 102.417 109.641 102.444C111.048 102.111 112.503 101.949 113.943 101.919C114.03 101.919 114.03 102.051 113.946 102.054C112.737 102.123 111.54 102.276 110.349 102.468C111.099 102.498 111.849 102.522 112.596 102.552C114.429 102.63 116.259 102.672 118.083 102.804C118.149 102.807 118.182 102.861 118.179 102.909H118.182Z" fill="#263238"/>
<path d="M64.356 105.834C50.352 105.399 34.683 105.042 25.245 105.219C25.131 104.52 25.23 103.95 25.665 103.776C26.043 103.62 62.76 101.919 62.76 101.919C63.615 102.357 64.125 104.541 64.353 105.834H64.356Z" fill="#FFC4C0"/>
<path d="M94.563 107.553C94.533 107.484 94.149 106.62 94.086 106.614C82.851 105.963 74.502 105.741 64.962 105.483C55.422 105.225 45.882 105.066 36.339 105.033C31.11 105.015 25.8 105.012 20.649 106.005C20.58 106.017 20.598 106.137 20.67 106.128C25.356 105.6 30.069 105.537 34.782 105.618C39.522 105.699 44.262 105.756 48.999 105.846C58.491 106.023 67.983 106.263 77.472 106.593C82.803 106.779 88.671 106.911 94.002 107.1C94.005 107.118 94.326 107.724 94.401 107.748C94.551 107.793 94.629 107.703 94.563 107.55V107.553Z" fill="#263238"/>
<path d="M106.485 127.383C106.059 126.717 105.639 126.048 105.222 125.376C104.817 124.725 104.409 124.053 103.923 123.462C103.821 123.339 103.668 123.504 103.722 123.624C104.043 124.323 104.475 124.986 104.886 125.637C105.237 126.195 105.588 126.756 105.933 127.32C104.559 127.479 103.179 127.614 101.802 127.767C100.332 127.929 98.865 128.094 97.395 128.256C94.425 128.58 91.449 128.856 88.476 129.159C86.793 129.33 85.104 129.462 83.427 129.681C83.379 129.687 83.379 129.759 83.427 129.759C84.933 129.768 86.439 129.687 87.945 129.609C89.421 129.534 90.894 129.435 92.364 129.318C95.34 129.081 98.313 128.802 101.274 128.43C102.954 128.22 104.625 127.965 106.299 127.719C106.452 127.695 106.575 127.542 106.479 127.389L106.485 127.383Z" fill="#263238"/>
<path d="M99.285 126.486C98.871 125.964 95.694 120.648 94.956 119.451C93.465 117.027 91.914 114.639 90.321 112.281C89.415 110.937 88.515 109.593 87.558 108.285C87.537 108.255 87.492 108.285 87.51 108.315C88.953 110.802 90.483 113.238 91.977 115.695C93.456 118.125 98.64 126.054 99.153 126.591C99.261 126.705 99.387 126.615 99.288 126.489L99.285 126.486Z" fill="#263238"/>
<path d="M83.076 55.992C84.102 56.244 85.239 55.929 85.932 55.104C86.61 54.294 86.736 53.136 86.328 52.179C87.444 52.377 88.614 52.038 89.172 50.934C89.751 49.794 89.298 48.537 88.299 47.823C88.293 47.817 88.281 47.829 88.287 47.835C89.127 48.582 89.541 49.788 88.992 50.832C88.524 51.726 87.687 52.029 86.799 52.005C87.594 51.735 88.311 51.219 88.665 50.439C89.052 49.581 88.908 48.525 88.257 47.853C89.043 47.13 89.631 46.083 89.505 44.985C89.397 44.061 88.767 43.23 87.876 42.972C88.503 42.114 88.599 40.899 88.029 39.981C87.495 39.117 86.487 38.652 85.494 38.733C86.34 37.371 85.476 35.556 83.862 35.37C84.081 34.836 83.922 34.215 83.523 33.792C83.061 33.3 82.374 33.156 81.717 33.138C81.594 32.556 81.201 32.031 80.628 31.818C79.86 31.533 79.05 31.881 78.66 32.556C77.811 31.908 76.8 31.323 75.699 31.41C74.793 31.482 73.899 32.031 73.623 32.919C71.949 31.962 69.831 32.673 69.069 34.449C68.292 34.26 67.47 34.539 66.915 35.121C66.357 35.706 66.153 36.24 66.081 36.501C65.37 36.384 64.659 36.768 64.326 37.41C63.999 38.043 64.086 38.703 64.335 39.321C64.302 39.498 64.239 39.663 64.11 39.843C63.534 40.662 63.384 41.652 63.729 42.594C62.775 43.29 62.679 44.781 63.531 45.594C62.817 46.563 63.075 48.033 64.065 48.711C63.591 49.53 63.471 50.526 63.786 51.426C64.026 52.116 64.593 52.785 65.343 52.815C65.097 53.337 65.472 53.949 65.964 54.216C66.15 54.318 66.354 54.384 66.558 54.441C66.801 54.507 67.128 54.528 67.335 54.678C67.551 54.831 67.617 55.131 67.74 55.353C67.83 55.509 67.935 55.659 68.055 55.794C68.967 56.817 70.578 57.069 71.742 56.361C72.222 57.207 73.263 57.429 74.184 57.333C74.487 57.3 74.772 57.222 75.063 57.138C75.333 57.06 75.57 57.009 75.852 57.096C76.02 57.147 76.176 57.237 76.347 57.291C76.92 57.471 77.457 57.258 77.961 56.988C79.335 59.202 82.38 58.272 83.076 55.992ZM64.398 37.797C64.65 37.053 65.289 36.612 66.06 36.576C66.048 36.63 66.042 36.666 66.042 36.666C66.042 36.666 65.808 36.741 65.697 36.789C65.499 36.882 65.313 37.002 65.148 37.149C64.806 37.452 64.551 37.857 64.437 38.298C64.386 38.496 64.371 38.7 64.368 38.904C64.368 38.931 64.368 38.955 64.368 38.979C64.284 38.592 64.26 38.199 64.398 37.794V37.797ZM80.739 32.409C80.109 32.076 79.305 32.163 78.786 32.649C78.771 32.637 78.756 32.625 78.741 32.613C79.203 32.04 79.785 31.647 80.577 31.956C81.132 32.172 81.396 32.622 81.501 33.132C81.498 33.132 81.495 33.132 81.489 33.132C81.312 32.832 81.063 32.577 80.739 32.409ZM78.06 56.934C78.06 56.934 78.075 56.925 78.084 56.922C79.362 58.104 81.267 57.981 82.401 56.832C81.237 58.188 79.446 58.683 78.06 56.934Z" fill="#263238"/>
<path d="M71.739 65.142C69.27 71.562 58.746 92.826 52.857 93.693C46.893 94.569 47.139 89.415 48.954 84.102C51.27 77.316 60.843 67.926 65.214 64.035C69.375 60.33 74.166 58.833 71.739 65.142Z" fill="#FFC4C0"/>
<path d="M65.865 81.3121L58.923 68.7691C58.923 68.7691 64.209 63.8731 67.518 61.5781C71.895 58.5391 74.634 59.4961 73.047 65.8321C71.985 70.0711 65.868 81.3121 65.868 81.3121H65.865Z" fill="#8C8CEB"/>
<path d="M66.8639 76.8482C66.0599 75.2792 61.8779 68.5802 61.4099 67.8392C61.3829 67.7972 61.3169 67.8452 61.3379 67.8902C61.8089 68.8712 64.7849 74.1272 66.7919 76.8992C66.8219 76.9382 66.8879 76.8902 66.8639 76.8482Z" fill="#263238"/>
<path opacity="0.1" d="M73.044 65.8321C71.982 70.0711 65.865 81.3121 65.865 81.3121L62.121 74.5531L71.61 59.9221C73.338 60.0181 74.034 61.8751 73.044 65.8321Z" fill="black"/>
<path d="M79.5901 65.142C82.0591 71.562 92.5831 92.826 98.4721 93.693C104.436 94.569 104.19 89.415 102.375 84.102C100.059 77.316 90.4861 67.926 86.1151 64.035C81.9541 60.33 77.1631 58.833 79.5901 65.142Z" fill="#FFC4C0"/>
<path d="M85.464 81.3121L92.406 68.7691C92.406 68.7691 87.12 63.8731 83.811 61.5781C79.434 58.5391 76.695 59.4961 78.282 65.8321C79.344 70.0711 85.461 81.3121 85.461 81.3121H85.464Z" fill="#8C8CEB"/>
<path d="M84.4621 76.8482C85.2661 75.2792 89.4481 68.5802 89.9161 67.8392C89.9431 67.7972 90.0091 67.8452 89.9881 67.8902C89.5171 68.8712 86.5411 74.1272 84.5341 76.8992C84.5041 76.9382 84.4381 76.8902 84.4621 76.8482Z" fill="#263238"/>
<path opacity="0.1" d="M78.282 65.8321C79.344 70.0711 85.461 81.3121 85.461 81.3121L89.205 74.5531L79.716 59.9221C77.988 60.0181 77.292 61.8751 78.282 65.8321Z" fill="black"/>
<path d="M57.636 97.8598H95.43C95.43 97.8598 88.32 71.8378 80.82 61.1698C78.477 57.8368 72.543 57.5458 70.254 61.1698C64.344 70.5268 57.636 97.8598 57.636 97.8598Z" fill="#8C8CEB"/>
<path opacity="0.1" d="M80.499 60.7618H70.545C70.659 60.6088 70.782 60.4678 70.917 60.3328H80.091C80.235 60.4678 80.373 60.6118 80.499 60.7618ZM82.731 64.2178H68.589C68.52 64.3588 68.454 64.5028 68.382 64.6468H82.971C82.893 64.5028 82.812 64.3588 82.731 64.2178ZM84.753 68.1028H66.867C66.81 68.2438 66.753 68.3878 66.693 68.5318H84.96C84.891 68.3878 84.825 68.2438 84.753 68.1028ZM86.523 71.9908H65.367C65.316 72.1318 65.265 72.2758 65.211 72.4198H86.706C86.643 72.2758 86.583 72.1318 86.523 71.9908ZM88.119 75.8758H64.005C63.957 76.0198 63.909 76.1608 63.864 76.3048H88.287C88.233 76.1608 88.179 76.0198 88.119 75.8758ZM89.601 79.7638H62.739C62.694 79.9078 62.646 80.0488 62.604 80.1928H89.76C89.706 80.0488 89.655 79.9048 89.601 79.7638ZM90.984 83.6488H61.542C61.5 83.7928 61.458 83.9368 61.413 84.0778H91.134C91.086 83.9368 91.035 83.7928 90.984 83.6488ZM92.289 87.5338H60.408C60.366 87.6778 60.324 87.8218 60.285 87.9628H92.43C92.385 87.8218 92.337 87.6778 92.289 87.5338ZM93.528 91.4218H59.322C59.283 91.5658 59.244 91.7098 59.205 91.8508H93.663C93.618 91.7098 93.573 91.5688 93.528 91.4218ZM94.701 95.3068H58.284C58.248 95.4568 58.209 95.5978 58.173 95.7358H94.824C94.788 95.6008 94.746 95.4568 94.701 95.3068Z" fill="#030402"/>
<path d="M74.5049 65.247C76.4729 65.247 78.5639 63.564 79.4249 61.08C79.4849 60.906 79.4549 59.196 79.4639 57.087C79.4729 55.806 79.5149 54.384 79.6469 53.085C79.6739 52.818 71.3099 54.234 71.3099 54.234C71.3099 54.234 71.8319 57.033 71.5889 59.295C71.5649 59.484 71.5289 59.658 71.4779 59.823C71.4719 59.847 71.4629 59.877 71.4569 59.91C71.1899 60.903 71.9279 65.247 74.5019 65.247H74.5049Z" fill="#FFC4C0"/>
<path d="M79.1459 53.0703C78.5459 55.2243 76.6439 60.3843 72.2909 60.0393C71.9879 60.0153 71.7119 59.9733 71.4629 59.9103C71.4629 59.8743 71.4749 59.8473 71.4809 59.8233C71.5289 59.6583 71.5679 59.4873 71.5919 59.2983C71.8349 57.0333 71.3099 54.2343 71.3099 54.2343C71.3099 54.2343 77.3429 53.2143 79.1429 53.0703H79.1459Z" fill="#263238"/>
<path d="M80.574 42.6693C81.564 45.5343 80.337 53.9613 78.345 55.9023C75.456 58.7163 70.575 59.1513 68.145 55.6443C65.79 52.2453 67.584 41.2923 69.825 39.5133C73.125 36.8913 79.116 38.4393 80.577 42.6723L80.574 42.6693Z" fill="#FFC4C0"/>
<path d="M75.891 46.1943C75.645 46.1103 75.432 45.9933 75.198 45.8853C74.934 45.7623 74.709 45.6933 74.55 45.4353C74.466 45.2973 74.523 45.0633 74.652 44.9673C74.949 44.7453 75.309 44.8143 75.636 44.9463C75.99 45.0903 76.224 45.2943 76.404 45.6273C76.581 45.9513 76.218 46.3053 75.894 46.1943H75.891Z" fill="#263238"/>
<path d="M69.756 45.5915C70.017 45.5765 70.251 45.5195 70.506 45.4775C70.794 45.4295 71.028 45.4205 71.25 45.2135C71.37 45.1025 71.373 44.8625 71.277 44.7365C71.049 44.4425 70.683 44.4155 70.335 44.4575C69.957 44.5055 69.678 44.6375 69.414 44.9105C69.159 45.1775 69.414 45.6125 69.759 45.5915H69.756Z" fill="#263238"/>
<path d="M73.503 53.6914C73.347 53.8024 73.185 53.9674 72.975 53.9524C72.774 53.9404 72.558 53.8144 72.387 53.7184C72.369 53.7094 72.348 53.7244 72.357 53.7424C72.471 53.9824 72.762 54.1654 73.029 54.1594C73.293 54.1534 73.452 53.9494 73.551 53.7244C73.566 53.6914 73.524 53.6734 73.5 53.6914H73.503Z" fill="#263238"/>
<path d="M70.752 47.6702C70.752 47.6462 70.704 47.6912 70.701 47.7152C70.638 48.3002 70.467 48.9602 69.915 49.0832C69.897 49.0862 69.894 49.1162 69.915 49.1162C70.572 49.1162 70.788 48.2372 70.755 47.6702H70.752Z" fill="#263238"/>
<path d="M70.6799 48.3062C70.6349 48.4502 70.5509 48.5912 70.4219 48.7082C70.2929 48.8252 70.0949 48.8672 69.9239 48.8462C69.7469 48.8222 69.5759 48.6902 69.5009 48.5372C69.4259 48.3842 69.3959 48.2282 69.3959 48.0782C69.3959 47.9822 69.4049 47.8892 69.4199 47.7962C69.4529 47.5982 69.5159 47.4122 69.6299 47.2502C69.5999 47.3912 69.5849 47.5352 69.5879 47.6732C69.5879 47.8052 69.5969 47.9312 69.6149 48.0572C69.6569 48.3152 69.7709 48.5432 69.9689 48.5612C70.1759 48.5972 70.3559 48.4532 70.4759 48.2162C70.5959 47.9852 70.6769 47.7182 70.7519 47.4452C70.7909 47.7272 70.7759 48.0182 70.6799 48.3032V48.3062Z" fill="#263238"/>
<path d="M74.2981 48.0121C74.3071 47.9911 74.3371 48.0481 74.3341 48.0721C74.2021 48.6481 74.1511 49.3261 74.6371 49.6201C74.6521 49.6291 74.6461 49.6591 74.6251 49.6501C74.0041 49.4371 74.0821 48.5341 74.2981 48.0121Z" fill="#263238"/>
<path d="M74.16 48.6362C74.157 48.7862 74.19 48.9482 74.274 49.0982C74.361 49.2512 74.532 49.3562 74.7 49.3892C74.877 49.4252 75.081 49.3532 75.201 49.2332C75.321 49.1132 75.399 48.9752 75.45 48.8342C75.48 48.7442 75.501 48.6512 75.519 48.5582C75.552 48.3602 75.552 48.1622 75.495 47.9732C75.477 48.1172 75.444 48.2582 75.399 48.3872C75.357 48.5132 75.306 48.6302 75.249 48.7412C75.126 48.9722 74.946 49.1522 74.751 49.1042C74.544 49.0712 74.421 48.8762 74.385 48.6122C74.349 48.3542 74.358 48.0752 74.373 47.7932C74.244 48.0482 74.163 48.3302 74.163 48.6302L74.16 48.6362Z" fill="#263238"/>
<path d="M73.26 52.2154C72.825 52.0594 72.015 52.0474 71.415 52.0714C71.349 52.0564 71.205 51.9964 71.199 51.9334C71.199 51.9094 71.34 50.7154 71.34 50.7154C71.172 50.7814 70.326 51.0784 70.359 50.8504C70.635 48.9664 70.941 46.8694 71.616 45.0544C71.634 44.9944 71.73 45.0154 71.718 45.0784C71.523 46.8994 71.01 48.6754 70.788 50.5024C71.058 50.4244 71.496 50.2804 71.727 50.3044C71.787 50.3284 71.568 51.4984 71.571 51.6994C71.571 51.6994 72.663 51.5164 73.416 52.1614C73.638 52.3504 73.56 52.3264 73.26 52.2214V52.2154Z" fill="#263238"/>
<path d="M72.261 51.7203C72.726 51.7143 73.743 52.1523 74.034 52.8843C74.289 53.5263 73.011 52.9023 72.783 52.9623C72.591 53.0133 71.799 51.7233 72.264 51.7203H72.261Z" fill="#263238"/>
<path d="M73.926 53.1694C73.896 53.1754 73.863 53.1784 73.824 53.1724C73.515 53.1604 72.996 52.9534 72.816 52.9564C72.804 52.9564 72.792 52.9564 72.783 52.9564C72.759 52.9624 72.723 52.9474 72.681 52.9144C72.747 52.5934 73.059 52.2754 73.647 52.3384C73.698 52.3864 73.749 52.4374 73.794 52.4914C73.812 52.5124 73.83 52.5334 73.851 52.5604C73.881 52.5934 73.905 52.6324 73.926 52.6714C73.947 52.6984 73.962 52.7254 73.977 52.7554C74.001 52.7974 74.019 52.8394 74.037 52.8784C74.112 53.0674 74.055 53.1454 73.929 53.1664L73.926 53.1694Z" fill="#FF9ABB"/>
<path d="M67.8 53.5381C67.941 53.8621 67.794 54.2401 67.47 54.3841C67.146 54.5281 66.768 54.3781 66.624 54.0541C66.48 53.7301 66.63 53.3521 66.954 53.2081C67.278 53.0671 67.656 53.2141 67.8 53.5381Z" fill="white"/>
<path d="M69.318 51.5462C69.459 51.8702 69.312 52.2482 68.988 52.3922C68.664 52.5362 68.286 52.3862 68.142 52.0622C68.001 51.7382 68.148 51.3602 68.472 51.2162C68.796 51.0722 69.174 51.2222 69.318 51.5462Z" fill="white"/>
<path d="M68.547 52.1015C68.772 52.6145 68.538 53.2145 68.025 53.4395C67.512 53.6645 66.912 53.4305 66.687 52.9175C66.462 52.4045 66.696 51.8045 67.209 51.5795C67.722 51.3545 68.322 51.5885 68.547 52.1015Z" fill="white"/>
<path d="M69.708 52.3683C69.933 52.8813 69.699 53.4813 69.186 53.7063C68.673 53.9313 68.073 53.6973 67.848 53.1843C67.623 52.6713 67.857 52.0713 68.37 51.8463C68.883 51.6213 69.483 51.8553 69.708 52.3683Z" fill="white"/>
<path d="M69.333 53.3493C69.558 53.8623 69.324 54.4623 68.811 54.6873C68.298 54.9123 67.698 54.6783 67.473 54.1653C67.248 53.6523 67.482 53.0523 67.995 52.8273C68.508 52.6023 69.108 52.8363 69.333 53.3493Z" fill="white"/>
<path d="M69.3991 52.9592C69.3991 52.9592 70.1461 53.7512 71.1691 53.1542C71.1691 53.1542 70.5481 54.1052 69.1351 53.7992L69.3991 52.9592Z" fill="white"/>
<path d="M67.773 44.259C68.094 44.271 69.3 43.5961 69.573 41.7631C70.173 41.9551 71.481 41.124 71.934 40.629C72.204 42.675 74.403 43.677 75.999 42.687C75.999 43.512 76.152 44.3611 76.629 44.982C77.409 45.996 78.357 46.227 78.357 46.227C78.357 46.23 78.357 46.2361 78.357 46.2391C77.886 47.7421 79.128 49.146 80.397 48.945C80.514 48.939 80.631 48.9241 80.748 48.8911C81.369 48.7261 81.984 48.423 82.281 47.7331C82.665 46.845 82.41 45.7111 81.705 45.1981C82.251 44.6431 82.44 43.74 82.101 42.984C81.891 42.516 81.327 42.258 81.309 41.718C81.294 41.271 81.213 40.8541 81.03 40.4641C80.712 39.7891 80.181 39.321 79.539 39.126C79.239 39.036 79.029 38.946 78.81 38.694C78.678 38.538 78.549 38.388 78.402 38.256C78.147 38.028 77.859 37.848 77.556 37.722C77.19 37.566 76.794 37.4851 76.398 37.4911C75.972 37.4971 75.534 37.71 75.123 37.542C74.766 37.395 73.614 37.407 73.233 37.476C71.574 37.773 70.839 38.5891 70.839 38.5891C70.839 38.5891 69.972 38.733 69.165 39.861C68.394 40.941 68.394 41.787 68.394 41.787C68.394 41.787 68.055 41.937 67.803 42.651C67.512 43.473 67.728 44.259 67.773 44.259ZM78.372 46.32C78.495 47.469 78.771 48.015 79.134 48.3991C78.555 47.949 78.189 47.193 78.372 46.32ZM72.084 40.683C72.456 41.757 73.236 42.5041 74.148 42.7651C73.173 42.5851 72.366 41.937 72.084 40.683Z" fill="#263238"/>
<path d="M79.0319 49.5541C79.0319 49.5541 80.8829 46.8151 82.1219 47.4721C83.3609 48.1261 82.0019 52.0771 80.5679 52.6351C79.1339 53.1961 78.5879 51.8791 78.5879 51.8791L79.0319 49.5541Z" fill="#FFC4C0"/>
<path d="M81.702 48.5943C81.726 48.5943 81.729 48.6243 81.711 48.6333C80.706 49.0593 80.19 50.0073 79.833 50.9853C80.127 50.6073 80.535 50.3943 81.042 50.7453C81.069 50.7633 81.042 50.8053 81.015 50.7993C80.598 50.7183 80.301 50.7933 80.028 51.1293C79.833 51.3663 79.704 51.6663 79.566 51.9393C79.521 52.0293 79.356 51.9843 79.389 51.8793C79.389 51.8703 79.395 51.8643 79.398 51.8553C79.353 50.5653 80.325 48.7443 81.708 48.5913L81.702 48.5943Z" fill="#263238"/>
<path d="M103.278 89.8648C103.611 93.5308 100.035 95.5858 97.0951 94.4128C90.6691 91.8508 89.3041 90.0748 84.6241 85.5388C83.0791 84.0418 88.4521 72.1918 90.3481 73.5058C91.9291 74.6008 99.7801 79.8298 102.288 85.0498C103.227 86.9998 103.086 87.7528 103.278 89.8648Z" fill="#FFC4C0"/>
<path d="M102.837 86.757C102.216 85.41 101.658 84.009 100.761 82.821C97.8751 79.383 94.0501 76.896 90.8071 73.821C93.2281 75.597 95.6641 77.349 97.9261 79.332C99.0481 80.334 100.155 81.369 101.055 82.608C101.928 83.865 102.39 85.32 102.843 86.76L102.837 86.757Z" fill="#263238"/>
<path d="M80.823 72.5728C81.636 72.5428 81.627 72.1168 80.457 71.2618C79.275 70.3948 76.362 67.8568 77.499 65.3908C78.261 63.7408 81.549 67.9798 85.257 69.4678C87.501 70.3678 90.666 73.7218 90.666 73.7218C89.07 73.3378 83.967 73.2808 80.823 72.5698V72.5728Z" fill="#FFC4C0"/>
<path d="M85.4371 85.6047C82.4611 85.2387 78.7081 84.0177 75.1081 82.8927C72.6181 82.1157 70.7071 81.6747 69.3271 80.2437C68.9731 79.8747 68.7031 79.0407 69.1501 78.7287C70.0111 78.1287 74.7421 79.8477 74.7421 79.8477C74.5651 79.6707 69.2341 77.4987 67.6861 76.3257C65.9341 74.9997 66.8491 73.7577 66.8491 73.7577C65.3671 72.5937 65.9191 71.0967 66.8491 70.9167C68.0221 70.6887 73.2451 72.4977 73.2451 72.4977C73.2451 72.4977 67.5781 71.1627 68.2381 68.7987C68.6521 67.3197 71.4271 68.8077 73.9141 69.3147C79.8871 70.5357 89.0311 73.3257 90.6691 73.7277L85.4401 85.6077L85.4371 85.6047Z" fill="#FFC4C0"/>
<path d="M76.4251 73.7907C74.0881 72.8217 73.0321 72.4797 71.0731 71.7507C71.0611 71.7477 71.0461 71.7717 71.0581 71.7777C73.3051 72.9387 74.2381 73.2087 76.4161 73.8867C76.4911 73.9107 76.5031 73.8237 76.4251 73.7907Z" fill="#263238"/>
<path d="M75.864 77.1029C71.874 75.6719 71.031 75.5309 66.879 73.7729C66.858 73.7639 66.843 73.7819 66.867 73.7939C70.467 75.5309 71.943 76.1189 75.879 77.1839C76.005 77.2169 75.999 77.1509 75.867 77.1029H75.864Z" fill="#263238"/>
<path d="M50.9579 85.473C47.5889 86.961 46.9619 91.662 49.5449 93.492C55.6109 97.788 57.5549 97.797 63.7889 99.687C65.8469 100.311 73.6049 89.868 71.5349 88.845C69.8099 87.993 61.4279 83.664 55.6469 84.003C53.4869 84.129 52.8959 84.615 50.9549 85.473H50.9579Z" fill="#FFC4C0"/>
<path d="M74.8589 90.1496C74.1479 89.7536 74.3519 89.3756 75.7799 89.1476C77.2259 88.9136 81.3209 89.1956 81.4289 86.4836C81.5009 84.6686 76.2989 85.7276 72.3179 85.3676C69.9089 85.1486 65.5679 86.6996 65.5679 86.6996C67.1639 87.0836 71.7359 89.3516 74.8589 90.1466V90.1496Z" fill="#FFC4C0"/>
<path d="M62.949 99.4377C65.667 100.704 69.498 101.658 73.146 102.612C75.669 103.272 77.469 103.68 79.398 103.197C79.896 103.074 80.565 102.507 80.352 102.006C79.941 101.04 75.075 100.224 75.075 100.224C75.318 100.167 80.991 101.151 82.926 100.977C85.116 100.782 84.999 99.2427 84.999 99.2427C86.874 99.0387 87.198 97.4787 86.505 96.8337C85.632 96.0177 80.244 94.7847 80.244 94.7847C80.244 94.7847 85.92 95.9907 86.613 93.6357C87.045 92.1627 83.106 92.1657 80.637 91.3527C74.844 89.4507 66.417 87.1197 64.815 86.5947L62.955 99.4407L62.949 99.4377Z" fill="#FFC4C0"/>
<path d="M76.8569 93.8996C78.6449 94.2656 79.4069 94.5176 80.8649 94.8956C80.8739 94.8956 80.8709 94.9286 80.8589 94.9256C79.0319 94.7636 78.3749 94.5206 76.8149 93.9866C76.7609 93.9686 76.7939 93.8876 76.8539 93.8996H76.8569Z" fill="#263238"/>
<path d="M75.5699 97.3015C79.7129 98.2015 80.5019 98.5285 84.9539 99.2395C84.9749 99.2425 84.9779 99.2665 84.9539 99.2635C80.9819 98.8285 79.4189 98.5465 75.5159 97.3615C75.3899 97.3225 75.4349 97.2685 75.5699 97.2985V97.3015Z" fill="#263238"/>
<path d="M53.892 84.3508C55.425 84.0838 57.003 83.7268 58.569 83.9038C61.152 84.2938 63.648 85.1608 66 86.2828C63.645 85.6438 60.885 84.7528 58.512 84.2908C56.988 84.0268 55.431 84.2818 53.892 84.3508Z" fill="#263238"/>
<path d="M62.238 58.6048C61.938 59.5378 61.602 60.4678 61.224 61.3828C60.837 62.2948 60.393 63.1888 59.883 64.0558C59.379 64.9288 58.776 65.7538 58.08 66.5188C57.387 67.2868 56.586 67.9828 55.668 68.5378C54.747 69.0838 53.721 69.4798 52.659 69.6808C51.6 69.8758 50.523 69.9088 49.485 69.8068C49.224 69.7858 48.969 69.7498 48.711 69.7168C48.453 69.6748 48.213 69.6418 47.922 69.5818C47.364 69.4618 46.812 69.2668 46.293 68.9908C45.255 68.4388 44.361 67.5568 43.848 66.4438C43.596 65.8858 43.428 65.2708 43.431 64.5958C43.434 64.2568 43.479 63.9058 43.602 63.5458C43.722 63.1888 43.932 62.8198 44.244 62.5228C44.55 62.2228 44.955 62.0128 45.345 61.9198C45.54 61.8718 45.732 61.8448 45.915 61.8418C46.008 61.8388 46.098 61.8418 46.185 61.8418C46.272 61.8478 46.356 61.8508 46.461 61.8688C46.86 61.9258 47.256 62.0848 47.571 62.3098C47.889 62.5348 48.138 62.8108 48.33 63.0958C48.711 63.6748 48.885 64.2928 48.957 64.8898C49.023 65.4898 48.993 66.0868 48.861 66.6538C48.609 67.7908 48 68.8288 47.163 69.5908C46.332 70.3588 45.324 70.8658 44.301 71.1388C43.272 71.4058 42.234 71.4778 41.223 71.4358C39.198 71.3128 37.272 70.7848 35.472 70.0168C37.401 70.3198 39.336 70.5538 41.205 70.3798C42.135 70.3108 43.047 70.1278 43.869 69.8008C44.694 69.4858 45.435 69.0238 45.984 68.4118C46.53 67.8058 46.896 67.0648 47.019 66.2908C47.082 65.9068 47.082 65.5168 47.025 65.1538C46.968 64.7938 46.836 64.4578 46.668 64.2328C46.497 64.0018 46.332 63.9118 46.182 63.8998C46.167 63.8968 46.131 63.8938 46.098 63.8938C46.065 63.8938 46.032 63.8938 46.005 63.8938C45.945 63.8938 45.897 63.9088 45.855 63.9178C45.771 63.9418 45.735 63.9718 45.693 64.0078C45.615 64.0738 45.519 64.2928 45.522 64.5958C45.522 64.8958 45.609 65.2408 45.759 65.5648C46.059 66.2218 46.605 66.7918 47.28 67.1548C47.619 67.3378 47.985 67.4788 48.378 67.5718C48.561 67.6168 48.804 67.6558 49.023 67.6978C49.248 67.7308 49.47 67.7668 49.695 67.7908C51.48 68.0128 53.244 67.8088 54.792 66.9808C56.358 66.1858 57.657 64.8238 58.77 63.3178C59.328 62.5618 59.832 61.7518 60.3 60.9208C60.777 60.0928 61.215 59.2348 61.632 58.3618L62.238 58.5988V58.6048Z" fill="#8C8CEB"/>
<path d="M63.18 54.8936C61.959 56.3606 60.153 58.0796 58.566 58.9766L61.752 58.9496L64.218 60.9656C63.543 59.2706 63.213 56.7986 63.18 54.8906V54.8936Z" fill="#8C8CEB"/>
<path d="M86.8199 54.8942C87.5849 56.6912 88.3679 58.4672 89.2769 60.1622C89.7359 61.0052 90.2159 61.8302 90.7409 62.6192C91.2659 63.4052 91.8449 64.1462 92.4629 64.8272C93.7049 66.1892 95.2169 67.2152 96.8939 67.6322C97.3109 67.7402 97.7429 67.8032 98.1749 67.8482C98.6099 67.8842 99.0509 67.8872 99.4919 67.8662C99.9359 67.8362 100.383 67.8002 100.83 67.7252C101.049 67.6922 101.286 67.6472 101.493 67.6052C101.691 67.5632 101.883 67.5122 102.069 67.4462C102.813 67.1912 103.461 66.7412 103.902 66.1412C104.121 65.8442 104.289 65.5142 104.388 65.1812C104.487 64.8512 104.502 64.5152 104.445 64.2842C104.415 64.1702 104.373 64.0892 104.334 64.0382C104.292 63.9902 104.259 63.9632 104.193 63.9332C104.127 63.9062 104.025 63.8852 103.887 63.8912C103.764 63.8942 103.719 63.9092 103.632 63.9482C103.473 64.0232 103.284 64.2362 103.152 64.5392C103.017 64.8392 102.942 65.2082 102.933 65.5862C102.909 66.3482 103.134 67.1432 103.566 67.8182C103.989 68.5022 104.634 69.0662 105.399 69.4652C106.164 69.8642 107.034 70.1402 107.949 70.2782C108.861 70.4162 109.809 70.4612 110.763 70.4252L110.85 71.1662C109.875 71.3492 108.87 71.4812 107.844 71.4362C106.824 71.3972 105.768 71.2442 104.769 70.8182C103.773 70.4042 102.828 69.7352 102.138 68.8202C101.454 67.9052 101.034 66.7712 101.01 65.5862C101.001 64.9952 101.082 64.3862 101.313 63.7832C101.544 63.1892 101.949 62.5682 102.648 62.1662C102.819 62.0642 103.011 61.9922 103.203 61.9322C103.302 61.9082 103.401 61.8812 103.5 61.8662L103.65 61.8452L103.782 61.8362C104.13 61.8152 104.52 61.8482 104.913 61.9892C105.303 62.1272 105.681 62.3912 105.945 62.7182C106.212 63.0452 106.374 63.4172 106.467 63.7742C106.641 64.4912 106.569 65.1542 106.401 65.7572C106.227 66.3602 105.942 66.9062 105.582 67.3892C104.859 68.3552 103.827 69.0482 102.726 69.4022C102.45 69.4922 102.171 69.5612 101.892 69.6152C101.622 69.6632 101.379 69.7022 101.118 69.7352C100.605 69.8072 100.08 69.8462 99.5549 69.8612C98.4989 69.8762 97.4189 69.7592 96.3809 69.4442C95.8649 69.2822 95.3579 69.0872 94.8839 68.8382C94.6409 68.7242 94.4129 68.5802 94.1819 68.4452C93.9599 68.2982 93.7349 68.1512 93.5249 67.9922C92.6789 67.3532 91.9469 66.6032 91.3109 65.7992C90.6689 65.0012 90.1439 64.1312 89.6729 63.2492C89.2079 62.3642 88.7849 61.4642 88.4429 60.5372C88.0979 59.6132 87.7709 58.6862 87.5129 57.7382C87.2399 56.7962 87.0179 55.8452 86.8199 54.8882V54.8942Z" fill="#455A64"/>
<path d="M114.525 70.0201C112.902 71.0251 110.952 72.5731 109.839 74.0221L110.31 70.8721L108.654 68.1511C110.241 69.0541 112.641 69.7261 114.525 70.0231V70.0201Z" fill="#455A64"/>
</svg>
