<svg width="189" height="209" viewBox="0 0 189 209" fill="none" xmlns="http://www.w3.org/2000/svg">
<path d="M94.4822 180.129C144.643 180.129 185.307 169.134 185.307 155.57C185.307 142.007 144.643 131.012 94.4822 131.012C44.3211 131.012 3.65747 142.007 3.65747 155.57C3.65747 169.134 44.3211 180.129 94.4822 180.129Z" fill="#263238"/>
<path d="M145.791 47.2857C145.791 47.2857 142.155 45.0037 137.986 53.6678C133.818 62.3318 132.279 67.3173 132.279 67.3173C132.279 67.3173 131.167 69.1355 129.907 67.9919C128.648 66.8483 126.882 63.5597 124.801 64.208C122.64 64.8773 121.981 67.3226 122.482 70.8746C122.982 74.4267 123.778 82.258 123.852 82.9642C123.926 83.6704 123.546 84.6981 122.561 84.0551C121.575 83.4122 115.868 77.341 113.149 80.2238C110.429 83.1065 113.438 92.7824 113.749 93.847C114.06 94.9115 113.86 95.37 113.359 95.6493C112.859 95.9286 111.125 93.7047 109.433 92.0446C107.741 90.3845 105.481 88.7561 104.052 90.5479C102.624 92.3397 102.318 99.6599 109.549 111.37L113.238 116.577L119.641 116.05C133.264 114.137 138.703 109.23 139.172 106.985C139.641 104.74 136.948 104.045 134.587 103.823C132.226 103.602 129.412 103.67 129.317 103.107C129.222 102.543 129.438 102.095 130.455 101.652C131.473 101.209 140.838 97.3516 141.322 93.4148C141.807 89.478 133.481 88.9669 132.363 88.619C131.246 88.2712 131.799 87.3226 132.363 86.9326C132.927 86.5426 139.488 82.1526 142.54 80.2659C145.591 78.3792 147.051 76.3134 146.192 74.2211C145.359 72.208 141.702 72.9458 140.015 72.7086C138.329 72.4715 139.019 70.4477 139.019 70.4477C139.019 70.4477 141.87 66.0841 145.87 57.3463C149.87 48.6085 145.691 47.2488 145.691 47.2488" fill="#B8B8FF"/>
<path d="M142.044 55.0433C142.025 55.1084 142 55.1719 141.971 55.233L141.739 55.76C141.523 56.2501 141.212 56.9458 140.811 57.8364C140.005 59.6388 138.819 62.2369 137.333 65.4411C134.371 71.8548 130.197 80.677 125.554 90.4003C120.911 100.124 116.743 108.946 113.707 115.359C112.21 118.522 110.993 121.125 110.15 122.927L109.175 124.983L108.917 125.51C108.888 125.571 108.857 125.631 108.822 125.689C108.835 125.623 108.858 125.559 108.89 125.499L109.127 124.972L110.05 122.896C110.856 121.093 112.047 118.495 113.528 115.286C116.49 108.877 120.664 100.055 125.307 90.3265C129.95 80.5979 134.118 71.7969 137.159 65.4095C138.656 62.2475 139.868 59.6388 140.716 57.8417L141.686 55.7811L141.95 55.2541C141.971 55.1797 142.003 55.1088 142.044 55.0433Z" fill="#263238"/>
<path d="M127.088 68.9089C127.328 69.431 127.523 69.9722 127.673 70.5268C127.989 71.5387 128.39 72.951 128.801 74.5163C129.212 76.0815 129.544 77.4253 129.823 78.5321C129.991 79.0798 130.123 79.6379 130.219 80.2027C129.972 79.6842 129.777 79.1421 129.639 78.5848C129.328 77.5676 128.943 76.15 128.537 74.5848L127.483 70.5795C127.309 70.0336 127.177 69.4751 127.088 68.9089Z" fill="#263238"/>
<path d="M130.83 80.3028C130.83 80.2343 133.676 79.2488 137.244 78.1579C140.811 77.067 143.71 76.1974 143.736 76.2659C143.763 76.3345 140.885 77.32 137.323 78.4161C133.76 79.5123 130.83 80.3766 130.83 80.3028Z" fill="#263238"/>
<path d="M123.004 94.9168C123.586 94.8489 124.172 94.8208 124.759 94.8325C125.813 94.8061 127.33 94.764 128.975 94.6586C130.619 94.5532 132.11 94.4214 133.191 94.3213C133.77 94.2385 134.355 94.1945 134.94 94.1895C134.375 94.3486 133.797 94.4563 133.212 94.511C132.158 94.6638 130.651 94.8325 128.996 94.9326C127.341 95.0327 125.834 95.0485 124.78 95.0275C124.186 95.0453 123.591 95.0082 123.004 94.9168Z" fill="#263238"/>
<path d="M117.37 85.3516C117.714 85.7694 118.023 86.2154 118.292 86.6849C118.819 87.5281 119.562 88.7033 120.353 90.0103C121.143 91.3173 121.849 92.5031 122.345 93.3726C122.637 93.8285 122.891 94.308 123.104 94.8061C122.757 94.3899 122.449 93.9437 122.181 93.4728C121.654 92.6296 120.911 91.4543 120.116 90.1526C119.32 88.8509 118.624 87.6546 118.124 86.785C117.83 86.3307 117.578 85.851 117.37 85.3516Z" fill="#263238"/>
<path d="M108.838 97.3779C108.969 97.5097 109.083 97.6586 109.175 97.8206C109.38 98.1157 109.665 98.5532 110.013 99.0907C110.714 100.145 111.657 101.668 112.69 103.307C113.723 104.946 114.64 106.469 115.294 107.591C115.62 108.145 115.884 108.593 116.058 108.904C116.159 109.061 116.242 109.229 116.305 109.404C116.174 109.273 116.06 109.124 115.968 108.962C115.763 108.666 115.478 108.229 115.13 107.692C114.434 106.637 113.486 105.12 112.453 103.475C111.42 101.831 110.503 100.313 109.85 99.1908C109.523 98.6638 109.259 98.1895 109.085 97.8786C108.983 97.7222 108.9 97.5541 108.838 97.3779Z" fill="#263238"/>
<path d="M116.211 109.088C116.404 109.043 116.602 109.02 116.801 109.02L118.429 108.914C119.8 108.83 121.692 108.709 123.779 108.524C125.865 108.34 127.747 108.129 129.112 107.997L130.73 107.818C130.926 107.78 131.126 107.768 131.325 107.781C131.139 107.853 130.944 107.901 130.746 107.923C130.366 107.992 129.818 108.087 129.165 108.192C127.805 108.398 125.918 108.64 123.826 108.825C121.734 109.009 119.837 109.099 118.461 109.135C117.776 109.135 117.217 109.135 116.833 109.135C116.624 109.148 116.415 109.132 116.211 109.088Z" fill="#263238"/>
<path opacity="0.2" d="M145.791 47.2857C145.791 47.2857 142.155 45.0037 137.986 53.6678C133.818 62.3318 132.279 67.3173 132.279 67.3173C132.279 67.3173 131.167 69.1355 129.907 67.9919C128.648 66.8483 126.882 63.5597 124.801 64.208C122.64 64.8773 121.981 67.3226 122.482 70.8746C122.982 74.4267 123.778 82.258 123.852 82.9642C123.926 83.6704 123.546 84.6981 122.561 84.0551C121.575 83.4122 115.868 77.341 113.149 80.2238C110.429 83.1065 113.438 92.7824 113.749 93.847C114.06 94.9115 113.86 95.37 113.359 95.6493C112.859 95.9286 111.125 93.7047 109.433 92.0446C107.741 90.3845 105.481 88.7561 104.052 90.5479C102.624 92.3397 102.318 99.6599 109.549 111.37L113.238 116.577L119.641 116.05C133.264 114.137 138.703 109.23 139.172 106.985C139.641 104.74 136.948 104.045 134.587 103.823C132.226 103.602 129.412 103.67 129.317 103.107C129.222 102.543 129.438 102.095 130.455 101.652C131.473 101.209 140.838 97.3516 141.322 93.4148C141.807 89.478 133.481 88.9669 132.363 88.619C131.246 88.2712 131.799 87.3226 132.363 86.9326C132.927 86.5426 139.488 82.1526 142.54 80.2659C145.591 78.3792 147.051 76.3134 146.192 74.2211C145.359 72.208 141.702 72.9458 140.015 72.7086C138.329 72.4715 139.019 70.4477 139.019 70.4477C139.019 70.4477 141.87 66.0841 145.87 57.3463C149.87 48.6085 145.691 47.2488 145.691 47.2488" fill="black"/>
<path d="M63.2407 27.565C63.3376 27.5308 63.4386 27.5095 63.5411 27.5017C63.8425 27.476 64.1456 27.5211 64.4265 27.6335C64.8852 27.8183 65.2961 28.1048 65.628 28.4715C66.0803 28.9756 66.4583 29.5417 66.7506 30.1526C67.4787 31.8775 68.0313 33.6714 68.4001 35.507C68.9271 37.6519 69.4541 40.1184 69.8441 42.922C70.0128 43.3278 70.3237 43.7916 70.7769 43.8127C71.0109 43.798 71.2342 43.7095 71.4146 43.5597C71.6149 43.4174 71.8151 43.2593 72.0101 43.096C72.411 42.7562 72.8334 42.4428 73.2749 42.1579C73.5006 41.994 73.7566 41.8766 74.028 41.8124C74.2994 41.7481 74.5808 41.7384 74.856 41.7837C75.1325 41.877 75.3874 42.0248 75.6056 42.2186C75.8238 42.4123 76.0008 42.648 76.1261 42.9115C76.3655 43.4524 76.4617 44.0459 76.4054 44.6348C76.3421 45.8206 75.8784 46.9484 75.5358 48.1078C75.1933 49.2672 74.8033 50.4635 74.4186 51.6809C74.2288 52.2923 74.0391 52.9089 73.8441 53.5307C73.7493 53.8417 73.6491 54.1526 73.5543 54.4688C73.4978 54.6166 73.4589 54.7705 73.4383 54.9273C73.4267 55.0726 73.4483 55.2185 73.5016 55.3542C73.6122 55.6177 73.9495 55.5597 74.2236 55.4016L75.1089 54.9115C75.7134 54.5747 76.3362 54.2721 76.9746 54.005C77.6273 53.7158 78.3237 53.5377 79.0352 53.478C79.4069 53.4507 79.7799 53.5084 80.1261 53.6467C80.4811 53.7946 80.7788 54.0534 80.9745 54.3845C81.3223 55.0554 81.4461 55.82 81.3277 56.5663C81.2486 57.3072 81.095 58.0381 80.8691 58.7481C80.4104 60.186 79.8303 61.5823 79.1353 62.922C78.9513 63.2484 78.7927 63.5884 78.661 63.9392C78.6053 64.0906 78.6053 64.2568 78.661 64.4082C78.6991 64.4794 78.7489 64.5435 78.8085 64.5979C78.8402 64.5979 78.8665 64.5979 78.9561 64.5979C79.2995 64.4491 79.6248 64.2617 79.9258 64.0393L80.8797 63.37C81.5204 62.8962 82.2051 62.485 82.9245 62.1421C83.2963 61.9671 83.6926 61.8498 84.0997 61.7942C84.315 61.7596 84.5352 61.7708 84.7459 61.8271C84.9566 61.8834 85.153 61.9835 85.3224 62.121C85.651 62.4095 85.8612 62.8093 85.9126 63.2435C85.945 63.4512 85.9644 63.6606 85.9706 63.8707C85.9706 64.0762 85.9706 64.2817 85.939 64.4873C85.8447 65.3078 85.6482 66.1134 85.354 66.8852C84.7728 68.4462 84.001 69.9296 83.0562 71.3015C82.1026 72.7029 81.0457 74.0312 79.8942 75.2751C79.32 75.9056 78.7131 76.5054 78.076 77.0722L76.1946 78.8377L76.1366 78.8904H76.0628L75.715 78.785L73.2275 78.0314L71.9943 77.6572C71.5885 77.5202 71.1933 77.3463 70.7875 77.1935C69.2079 76.5611 67.6726 75.8234 66.1919 74.9853C64.73 74.1633 63.3683 73.1748 62.134 72.0393C61.5239 71.4728 60.981 70.8379 60.5161 70.1473C60.2891 69.7938 60.1118 69.4108 59.989 69.009C59.8498 68.5887 59.882 68.1304 60.0786 67.7336C60.1959 67.5463 60.3497 67.3845 60.5307 67.2577C60.7118 67.131 60.9165 67.0419 61.1327 66.9958C61.5338 66.894 61.9468 66.8461 62.3606 66.8535C63.1601 66.8735 63.9568 66.9581 64.7427 67.1065L65.9021 67.2962C66.0971 67.3226 66.2868 67.3489 66.4765 67.3595C66.6501 67.3979 66.83 67.3979 67.0035 67.3595C67.0404 67.3595 67.0035 67.3595 67.0352 67.3331C67.0515 67.2958 67.0638 67.257 67.0721 67.2172C67.0906 67.141 67.0906 67.0615 67.0721 66.9853C67.0085 66.8263 66.9072 66.6852 66.7769 66.5742C66.5082 66.3371 66.1656 66.1263 65.8652 65.8944C64.6316 65.0018 63.4703 64.0132 62.3922 62.9379C61.8642 62.4095 61.3894 61.8305 60.9746 61.2093C60.5203 60.5999 60.2729 59.8612 60.2684 59.1012C60.2938 58.7082 60.4538 58.336 60.7216 58.0472C60.9848 57.7786 61.3056 57.5732 61.6597 57.4464C62.3385 57.2109 63.0495 57.0811 63.7677 57.0617C64.4704 57.0343 65.1741 57.0448 65.8757 57.0933C66.2183 57.0933 66.5608 57.1407 66.8929 57.146C67.0381 57.1585 67.1837 57.1253 67.3092 57.0512C67.3579 57.0127 67.394 56.9605 67.4128 56.9013C67.4315 56.8421 67.4322 56.7787 67.4146 56.7191C67.323 56.4171 67.1386 56.1516 66.8876 55.9602L66.1867 55.2593L64.8165 53.8733L62.1814 51.2014C61.2881 50.3909 60.481 49.4902 59.773 48.5136C59.4448 48.0196 59.2405 47.4538 59.1774 46.8641C59.1616 46.5741 59.2059 46.284 59.3075 46.0119C59.409 45.7398 59.5657 45.4917 59.7677 45.283C60 45.1187 60.2628 45.0024 60.5406 44.9409C60.8184 44.8793 61.1057 44.8738 61.3856 44.9247C61.9187 44.9897 62.4469 45.09 62.9666 45.2251C63.2143 45.283 63.4673 45.341 63.7097 45.3779C63.9375 45.4363 64.1774 45.4271 64.4001 45.3516C64.8164 45.1618 64.8797 44.5874 64.8375 44.1552C63.852 41.5202 63.1827 39.096 62.6188 36.9826C62.0805 35.2002 61.7152 33.3701 61.5279 31.5176C61.4383 29.9998 61.7914 28.7982 62.3342 28.2079C62.528 27.9734 62.7783 27.792 63.0615 27.6809C63.1534 27.6405 63.2513 27.6155 63.3514 27.6072C63.2533 27.6281 63.1578 27.66 63.0668 27.702C62.796 27.8193 62.5574 28.0001 62.3711 28.229C61.8441 28.814 61.5121 29.9998 61.6175 31.5018C61.8179 33.3449 62.1956 35.1645 62.7453 36.9352C63.3197 39.0433 64.0049 41.4675 64.9904 44.0867C65.021 44.3402 65.0068 44.5971 64.9482 44.8456C64.918 44.9785 64.859 45.1032 64.7752 45.2107C64.6914 45.3181 64.5849 45.4058 64.4634 45.4675C64.2094 45.5572 63.9349 45.5718 63.6728 45.5097C63.4199 45.4675 63.1458 45.4095 62.9139 45.3568C62.4094 45.2278 61.8972 45.131 61.3804 45.067C61.1265 45.0197 60.8659 45.0233 60.6135 45.0776C60.3611 45.1319 60.1219 45.2358 59.91 45.3832C59.7259 45.5746 59.5838 45.8024 59.4931 46.052C59.4023 46.3016 59.3648 46.5675 59.383 46.8325C59.4462 47.3894 59.6433 47.9229 59.9574 48.3871C60.6558 49.3458 61.4524 50.229 62.3342 51.0222L65.0009 53.6941L66.3764 55.0749L67.0773 55.7758C67.3582 55.9998 67.5627 56.3055 67.6623 56.6506C67.69 56.7538 67.6857 56.8631 67.65 56.9638C67.6142 57.0645 67.5487 57.1519 67.462 57.2145C67.2964 57.3168 67.1029 57.3647 66.9087 57.3516C66.5609 57.3516 66.2288 57.3147 65.8863 57.2989C65.2064 57.262 64.5161 57.2409 63.8257 57.2725C63.1343 57.2934 62.4501 57.4195 61.7967 57.6467C61.4782 57.7571 61.1883 57.9371 60.9482 58.1737C60.7207 58.4213 60.5849 58.7393 60.5635 59.0749C60.571 59.7807 60.8037 60.4657 61.2275 61.0301C61.6365 61.6384 62.1043 62.205 62.6241 62.7218C63.6907 63.7877 64.8416 64.7658 66.0655 65.6467C66.3711 65.8786 66.6873 66.0736 66.9983 66.3423C67.1671 66.481 67.2946 66.6633 67.3672 66.8693C67.3934 66.9838 67.3934 67.1027 67.3672 67.2172C67.3562 67.2724 67.3422 67.3269 67.325 67.3805C67.2924 67.4557 67.2346 67.5172 67.1616 67.5545C66.9539 67.6196 66.7343 67.6376 66.5187 67.6072C66.3132 67.6072 66.1182 67.565 65.9232 67.5386L64.7585 67.3542C63.9866 67.2069 63.2041 67.1223 62.4186 67.1012C62.0299 67.097 61.6421 67.1412 61.2644 67.233C60.9021 67.3132 60.586 67.5328 60.3843 67.8443C60.0312 68.5189 60.4159 69.3305 60.8217 69.984C61.2727 70.6585 61.8035 71.2761 62.4027 71.8232C63.6216 72.946 64.9676 73.9223 66.4133 74.7323C67.8812 75.5644 69.4043 76.2952 70.9719 76.9194C71.3724 77.0722 71.7624 77.2462 72.1682 77.3832L73.3962 77.7521L75.8784 78.5057L76.2262 78.6111L76.0944 78.6427L77.9653 76.8825C78.6019 76.3188 79.2071 75.7206 79.7782 75.0907C80.9102 73.8568 81.9495 72.541 82.8876 71.1539C83.8223 69.8027 84.5853 68.3404 85.159 66.8008C85.4461 66.0496 85.6373 65.2652 85.7282 64.4662C85.7282 64.2712 85.7282 64.0709 85.7598 63.8759C85.7532 63.6819 85.7356 63.4883 85.7071 63.2962C85.6654 62.9238 85.487 62.5802 85.2064 62.3318C85.0646 62.2174 84.9002 62.1343 84.724 62.088C84.5478 62.0417 84.3638 62.0331 84.184 62.063C83.8048 62.1158 83.4355 62.2241 83.0879 62.3845C82.3863 62.7244 81.7177 63.1284 81.0905 63.5913L80.0997 64.2396C79.7748 64.4801 79.4206 64.6784 79.0457 64.8298C78.9848 64.8416 78.9222 64.8416 78.8612 64.8298C78.8085 64.8298 78.6768 64.7771 78.6504 64.7455C78.5666 64.6708 78.497 64.5815 78.4449 64.482C78.3551 64.275 78.3457 64.042 78.4186 63.8285C78.5545 63.4642 78.7202 63.1116 78.9139 62.7745C79.5997 61.447 80.1743 60.065 80.632 58.6427C80.853 57.9569 81.0048 57.2507 81.0852 56.5347C81.1967 55.8408 81.088 55.1294 80.7743 54.5004C80.5899 54.2202 80.3308 53.9971 80.0263 53.8565C79.7217 53.7158 79.3839 53.6632 79.051 53.7046C78.3646 53.7717 77.6936 53.9497 77.0641 54.2317C76.4368 54.4944 75.8246 54.7918 75.2302 55.1223L74.3342 55.6124C74.1743 55.7078 73.9933 55.7621 73.8072 55.7705C73.698 55.78 73.5884 55.7551 73.494 55.6994C73.3995 55.6436 73.3248 55.5598 73.2802 55.4596C73.1548 55.1168 73.1681 54.7387 73.3171 54.4056C73.4172 54.0894 73.5174 53.7784 73.6122 53.4675C73.809 52.8421 74.004 52.2255 74.1972 51.6177C74.5767 50.395 74.9508 49.2022 75.3197 48.0393C75.6623 46.8746 76.1261 45.7679 76.1893 44.619C76.2458 44.0652 76.1587 43.5062 75.9363 42.9958C75.8256 42.7528 75.6674 42.5343 75.471 42.3533C75.2746 42.1723 75.044 42.0324 74.7927 41.9418C74.5385 41.9011 74.2787 41.9108 74.0282 41.9705C73.7777 42.0302 73.5415 42.1386 73.3329 42.2896C72.8987 42.5696 72.4832 42.8777 72.0892 43.2119C71.8889 43.37 71.6887 43.5281 71.4778 43.6809C71.2655 43.8495 71.0056 43.9471 70.7348 43.9603C70.6004 43.9493 70.4695 43.9115 70.35 43.849C70.2305 43.7866 70.1248 43.7007 70.0391 43.5966C69.8726 43.4067 69.7406 43.1891 69.6491 42.9537C69.2802 40.1605 68.7374 37.6836 68.242 35.5492C67.8878 33.7183 67.3492 31.9279 66.6346 30.2053C66.3565 29.5967 65.9908 29.032 65.549 28.5294C65.2266 28.1649 64.8269 27.8768 64.379 27.6862C64.0206 27.5315 63.6237 27.4893 63.2407 27.565Z" fill="#DAD4E2"/>
<path d="M64.6848 33.3252C64.707 33.3665 64.723 33.4109 64.7322 33.4569L64.8481 33.8469C64.9535 34.2158 65.0906 34.7165 65.2698 35.3595C65.6281 36.6717 66.134 38.5742 66.7454 40.9299C67.9628 45.6414 69.5912 52.171 71.3514 59.3753L75.889 77.8469C76.4687 80.1974 76.943 82.0999 77.275 83.4438C77.4331 84.0867 77.5543 84.5979 77.6439 84.9668C77.6808 85.1302 77.7124 85.2567 77.7335 85.3621C77.7418 85.4091 77.7418 85.4573 77.7335 85.5044C77.7125 85.4625 77.6966 85.4183 77.6861 85.3726L77.5702 84.9826C77.47 84.6137 77.3277 84.1078 77.1485 83.4701C76.7902 82.1579 76.2895 80.2554 75.6782 77.8996C74.4555 73.1566 72.8323 66.6585 71.0669 59.4543C69.3014 52.2501 67.6993 45.7521 66.5346 41.009C65.9496 38.6638 65.4806 36.7613 65.1433 35.4174C64.9904 34.7692 64.864 34.2633 64.7744 33.8944C64.7375 33.731 64.7111 33.5992 64.6848 33.4938C64.6777 33.4379 64.6777 33.3812 64.6848 33.3252Z" fill="#DAD4E2"/>
<path d="M62.8455 47.1012C63.2107 47.2588 63.5543 47.4625 63.8679 47.7073C64.4792 48.1131 65.3066 48.7086 66.1972 49.3885C67.0879 50.0683 67.8837 50.6902 68.4581 51.1434C68.785 51.3713 69.0902 51.6289 69.3698 51.9128C68.9919 51.7588 68.6371 51.5531 68.3158 51.3015C67.7098 50.8852 66.8929 50.2844 66.0022 49.6045L63.7308 47.8654C63.4085 47.6441 63.1115 47.3878 62.8455 47.1012Z" fill="#DAD4E2"/>
<path d="M69.6968 51.7179C70.4176 50.3815 71.2184 49.0897 72.0947 47.8496C72.8972 46.5591 73.7772 45.3184 74.7297 44.1342C74.0061 45.469 73.2054 46.7606 72.3318 48.0024C71.5276 49.2919 70.6477 50.5325 69.6968 51.7179Z" fill="#DAD4E2"/>
<path d="M71.9152 62.9063C71.8678 62.8378 73.2749 61.7205 74.9139 60.2343C76.5529 58.7482 77.8072 57.4623 77.8704 57.515C77.6618 57.8518 77.4102 58.16 77.1221 58.432C76.632 58.959 75.9258 59.6915 75.0984 60.4346C74.271 61.1777 73.4857 61.8154 72.9007 62.2528C72.6008 62.5109 72.2697 62.7304 71.9152 62.9063Z" fill="#DAD4E2"/>
<path d="M64.8271 60.0762C65.1895 60.138 65.5433 60.2424 65.8812 60.3871C66.5347 60.6085 67.4253 60.9141 68.4055 61.3147C69.3858 61.7152 70.2659 62.0419 70.9036 62.316C71.2573 62.435 71.5939 62.5998 71.9049 62.8061C71.5434 62.7405 71.1901 62.6363 70.8509 62.4952C70.2026 62.2738 69.3067 61.9681 68.3265 61.5676C67.3463 61.1671 66.4661 60.8351 65.8337 60.5663C65.4782 60.4477 65.1398 60.2829 64.8271 60.0762Z" fill="#DAD4E2"/>
<path d="M65.5437 70.1632C66.0123 70.2571 66.471 70.3947 66.9139 70.5742C67.7466 70.8588 68.8955 71.2699 70.155 71.7389C71.4146 72.2079 72.5477 72.6506 73.3645 72.9826C73.817 73.1355 74.2531 73.3332 74.6662 73.5729C74.1984 73.4758 73.74 73.3383 73.296 73.1618C72.4633 72.8772 71.3197 72.4662 70.0549 71.9971C68.7901 71.5281 67.6623 71.0854 66.8454 70.7534C66.3929 70.6006 65.9568 70.4028 65.5437 70.1632Z" fill="#DAD4E2"/>
<path d="M74.4714 73.4306C74.7914 73.0492 75.1441 72.6965 75.5255 72.3766C76.2053 71.7547 77.1434 70.8957 78.1605 69.9207C79.1776 68.9458 80.0788 68.0498 80.7323 67.3964C81.0654 67.0262 81.4285 66.6843 81.8179 66.374C81.5447 66.7937 81.2267 67.1825 80.8693 67.5334C80.2527 68.2185 79.3674 69.1408 78.3502 70.121C77.3331 71.1012 76.3687 71.9339 75.6572 72.5242C75.2924 72.8642 74.8953 73.1678 74.4714 73.4306Z" fill="#DAD4E2"/>
<path d="M79.1827 116.477C86.8823 109.035 87.0246 97.4412 85.043 87.37C84.711 85.6889 84.6109 83.8759 83.5674 82.5268C82.5239 81.1777 80.4844 80.4662 79.0878 81.4201C77.9284 82.2159 77.6175 83.7653 77.1115 85.0828C76.4354 86.8442 75.2753 88.3788 73.765 89.5097C72.7795 90.2422 71.5042 90.8008 70.3447 90.3845C68.7637 89.8153 68.263 87.8338 67.9995 86.1684C67.5077 83.031 67.0193 79.897 66.5345 76.7666C66.271 75.0854 66.0074 73.3674 65.2169 71.8549C64.4264 70.3423 63.0457 69.0512 61.375 68.8667C59.7044 68.6823 57.8757 69.9207 57.8072 71.6177C57.8541 72.3263 57.9509 73.0308 58.097 73.7257C58.1603 74.4319 57.96 75.2541 57.3329 75.5597C56.7057 75.8654 55.9416 75.4965 55.3619 75.0854C53.354 73.673 51.8204 71.6757 50.3711 69.6836C48.9218 67.6915 47.4883 65.6361 45.628 64.0393C43.7677 62.4425 41.3434 61.3305 38.9139 61.5835C36.4844 61.8364 34.1708 63.7389 33.9389 66.2001C33.7071 68.6612 35.4831 70.8483 37.296 72.5242C39.9887 75.0064 43.0257 77.0867 46.3131 78.7007C46.9366 78.9271 47.4731 79.3437 47.8467 79.8917C48.3737 80.9458 47.5094 82.2369 46.4659 82.785C45.2802 83.4069 43.8994 83.4965 42.6135 83.8654C41.3276 84.2343 39.9785 85.0354 39.7097 86.3582C39.2986 88.1869 41.0272 89.7521 42.6293 90.7007C45.8437 92.6021 49.3608 93.9373 53.0272 94.648C54.3395 94.901 55.7044 95.0854 56.8375 95.7916C57.9706 96.4978 58.8243 97.8997 58.4185 99.1908C58.0127 100.482 56.5213 101.104 55.1879 101.072C53.8546 101.041 52.5845 100.545 51.2775 100.261C48.8269 99.7653 45.8704 100.408 44.7163 102.643C44.3754 103.402 44.2156 104.23 44.2495 105.061C44.2833 105.892 44.5099 106.704 44.9113 107.433C45.7224 108.884 46.8175 110.157 48.1313 111.175C52.5019 114.976 57.8031 117.55 63.4936 118.632C69.1484 119.623 74.1919 119.317 79.1985 116.524" fill="#597887"/>
<path d="M35.968 63.4754C36.0269 63.5254 36.0904 63.5695 36.1577 63.6072L36.7322 63.9708C37.2328 64.2923 37.9759 64.7613 38.914 65.3885C41.5691 67.1603 44.0882 69.1281 46.4502 71.2752C47.9522 72.6296 49.5385 74.179 51.1933 75.8759C52.8481 77.5729 54.6347 79.4069 56.4265 81.399C58.3112 83.4715 60.0828 85.6442 61.7335 87.9076C62.5873 89.0881 63.383 90.3371 64.1946 91.5966C65.0062 92.8562 65.8231 94.1632 66.6505 95.4754C69.8021 100.375 72.677 105.448 75.2618 110.669C77.3498 114.946 79.0348 119.408 80.2948 123.997C81.1332 127.104 81.6992 130.278 81.9865 133.483C82.0813 134.616 82.1393 135.497 82.1551 136.118C82.1551 136.403 82.1551 136.645 82.1815 136.798C82.1758 136.875 82.1758 136.953 82.1815 137.03C82.1883 136.953 82.1883 136.875 82.1815 136.798C82.1815 136.63 82.1815 136.403 82.1815 136.118C82.1815 135.518 82.1498 134.632 82.0708 133.483C81.8347 130.28 81.3054 127.104 80.4898 123.997C79.2597 119.381 77.5902 114.893 75.5043 110.595C72.9441 105.348 70.0847 100.252 66.9404 95.3331C66.1112 94.0191 65.2926 92.7262 64.4845 91.4543C63.6729 90.179 62.8666 88.9194 62.0075 87.7389C60.3472 85.4678 58.5632 83.2897 56.6637 81.2145C54.8613 79.2225 53.08 77.399 51.3936 75.702C49.7072 74.0051 48.1156 72.4662 46.5978 71.1171C44.2156 68.9853 41.6674 67.0468 38.9772 65.32C38.0286 64.7034 37.275 64.2659 36.7638 63.9497L36.1736 63.6124C36.1105 63.5591 36.0415 63.5131 35.968 63.4754Z" fill="#263238"/>
<path d="M61.918 87.7284C61.9604 87.4831 61.9763 87.234 61.9654 86.9853C61.9654 86.5057 61.9654 85.8153 61.9654 84.9563C61.9338 83.2488 61.8073 80.8878 61.6545 78.2844C61.5017 75.681 61.4121 73.32 61.4068 71.6124C61.4068 70.764 61.4068 70.0683 61.4068 69.594C61.4328 69.347 61.4328 69.0979 61.4068 68.8509C61.3448 69.0921 61.3112 69.3397 61.3067 69.5887C61.2645 70.063 61.2276 70.7587 61.2065 71.6124C61.1538 73.3252 61.2065 75.6915 61.3646 78.3002C61.5227 80.9089 61.6598 83.1908 61.7652 84.9669C61.8073 85.7679 61.8442 86.4425 61.8758 86.9853C61.8594 87.2338 61.8735 87.4834 61.918 87.7284Z" fill="#263238"/>
<path d="M39.6572 87.1908C39.9511 87.2077 40.2459 87.1954 40.5373 87.1539C41.1012 87.1171 41.9128 87.0538 42.9194 87.0064C44.9326 86.901 47.7152 86.8483 50.7929 86.9273C53.8707 87.0064 56.648 87.2066 58.6559 87.4069C59.6625 87.4965 60.4741 87.5966 61.0327 87.6599C61.3235 87.709 61.618 87.7319 61.9128 87.7284C61.6328 87.6382 61.3453 87.5729 61.0538 87.5334C60.4952 87.4333 59.6836 87.3068 58.6823 87.1856C56.6744 86.9273 53.8865 86.6954 50.7771 86.6111C48.1408 86.5317 45.5022 86.5897 42.872 86.785C41.8654 86.8588 41.0538 86.9537 40.4899 87.0327C40.2085 87.0626 39.93 87.1155 39.6572 87.1908Z" fill="#263238"/>
<path d="M75.2144 110.205C75.2628 110.114 75.2983 110.017 75.3198 109.915C75.383 109.689 75.4673 109.388 75.5622 109.078C75.7677 108.345 76.0418 107.275 76.3632 105.958C77.0009 103.323 77.7756 99.6335 78.5714 95.565C79.3672 91.4965 80.0997 87.8074 80.6794 85.1566C80.9693 83.8654 81.2064 82.8061 81.3804 81.9945C81.4541 81.652 81.5174 81.3727 81.5701 81.1408C81.5975 81.0412 81.6117 80.9384 81.6122 80.8351C81.5638 80.9263 81.5283 81.0239 81.5068 81.125C81.4436 81.3516 81.3593 81.6256 81.2644 81.9629C81.0589 82.6954 80.7848 83.76 80.4634 85.0828C79.8257 87.7178 79.051 91.4069 78.2552 95.4807C77.4594 99.5545 76.7269 103.233 76.1472 105.884C75.8573 107.175 75.6202 108.234 75.4462 109.046C75.3725 109.388 75.3092 109.668 75.2565 109.9C75.2291 109.999 75.2149 110.102 75.2144 110.205Z" fill="#263238"/>
<path d="M45.0168 105.605C45.1128 105.644 45.214 105.669 45.3172 105.678L46.1973 105.821L49.4332 106.348C52.1631 106.769 55.9312 107.402 60.0893 108.087C64.2474 108.772 68.0261 109.373 70.7665 109.736C72.1367 109.921 73.2487 110.058 74.0182 110.137L74.9035 110.221C75.0068 110.234 75.1112 110.234 75.2145 110.221C75.1163 110.183 75.0135 110.158 74.9088 110.147L74.034 110.005L70.7981 109.504C68.0682 109.088 64.3001 108.45 60.1367 107.765C55.9734 107.08 52.2053 106.479 49.4648 106.116C48.0946 105.931 46.9826 105.794 46.2132 105.715L45.3278 105.631C45.2256 105.609 45.1212 105.6 45.0168 105.605Z" fill="#263238"/>
<path d="M146.746 147.554C146.437 147.466 146.121 147.404 145.802 147.37L111.331 132.909H77.0328L43.2304 146.263C39.7996 147.407 34.9036 154.1 37.681 162.1C37.7548 162.326 37.8391 162.543 37.9234 162.753C40.1421 168.319 46.3081 171.222 52.0947 169.641C56.764 168.398 63.4728 166.569 70.3819 164.677H71.1566L92.6586 158.574L110.972 163.618C120.537 166.253 131.257 169.178 137.876 170.948C143.673 172.493 149.834 169.599 152.053 164.034C152.137 163.823 152.216 163.607 152.295 163.386C155.072 155.412 150.176 148.693 146.746 147.554Z" fill="#9393E3"/>
<path d="M92.3953 158.653C92.3953 158.653 92.4322 158.653 92.5113 158.606L92.8591 158.5L94.2241 158.1L99.3729 156.635L99.315 156.735C98.4296 153.473 97.2438 149.135 95.8789 144.124L96.0001 144.213H92.4691C91.2517 144.213 90.0133 144.324 88.7379 144.377L80.8011 144.814C70.9988 145.383 62.1345 146.042 55.7208 146.564L48.1266 147.191L46.0607 147.359L45.5337 147.396H45.3545C45.4126 147.378 45.4728 147.367 45.5337 147.365L46.0607 147.301L48.1213 147.08C49.9131 146.901 52.506 146.648 55.7102 146.363C62.1187 145.794 70.9935 145.104 80.7906 144.535L88.7326 144.108C90.0027 144.055 91.2517 143.966 92.4691 143.95H96.1002V144.045C97.4336 149.062 98.5877 153.41 99.452 156.693V156.772H99.3729L94.203 158.163L92.8275 158.521L92.4744 158.611L92.3953 158.653Z" fill="#263238"/>
<path d="M81.2223 144.535C80.4784 144.201 79.7947 143.747 79.1986 143.191C78.5414 142.705 77.9711 142.112 77.5122 141.436C78.1618 141.914 78.783 142.43 79.3725 142.98C80.0209 143.459 80.6387 143.978 81.2223 144.535Z" fill="#263238"/>
<path d="M142.682 148.798C142.524 148.811 142.366 148.811 142.208 148.798L140.859 148.719L135.889 148.377L119.499 147.275L103.104 146.284L98.1552 145.979L96.8008 145.889C96.6434 145.884 96.4866 145.866 96.3318 145.836C96.4898 145.827 96.6481 145.827 96.8061 145.836L98.1552 145.879L103.135 146.084C107.352 146.279 113.149 146.611 119.541 146.996C125.934 147.381 131.736 147.839 135.926 148.182L140.885 148.608L142.234 148.74C142.385 148.747 142.535 148.767 142.682 148.798Z" fill="#263238"/>
<path d="M143.594 152.218C143.498 151.67 143.367 151.128 143.204 150.595C142.972 150.096 142.712 149.61 142.424 149.141C142.931 149.448 143.307 149.932 143.478 150.5C143.731 151.038 143.773 151.652 143.594 152.218Z" fill="#263238"/>
<path d="M92.9644 148.139C93.3571 147.754 93.8447 147.479 94.3779 147.343C94.911 147.207 95.4706 147.215 95.9999 147.365C95.9999 147.444 95.2779 147.365 94.4453 147.612C93.6126 147.86 93.0118 148.208 92.9644 148.139Z" fill="#263238"/>
<path d="M93.897 150.316C94.3393 150.128 94.8132 150.026 95.2936 150.016C95.7647 149.911 96.2517 149.901 96.727 149.984C96.2847 150.171 95.8108 150.273 95.3304 150.284C94.8593 150.389 94.3723 150.399 93.897 150.316Z" fill="#263238"/>
<path d="M94.3188 152.846C94.3188 152.767 95.083 152.746 95.9736 152.482C96.8642 152.219 97.5283 151.839 97.5546 151.902C97.1186 152.294 96.5997 152.582 96.0367 152.746C95.4737 152.909 94.881 152.943 94.303 152.846H94.3188Z" fill="#263238"/>
<path d="M95.1567 155.57C95.1567 155.491 95.8893 155.428 96.7378 155.112C97.5863 154.796 98.1712 154.363 98.2187 154.427C97.873 154.883 97.3884 155.214 96.8379 155.37C96.3137 155.616 95.7241 155.686 95.1567 155.57Z" fill="#263238"/>
<path d="M110.872 143.228C110.529 143.785 110.142 144.314 109.713 144.809C109.357 145.365 108.959 145.894 108.522 146.39C109.019 145.151 109.829 144.061 110.872 143.228Z" fill="#263238"/>
<path d="M178.435 110.516C177.612 110.564 171.304 111.618 171.304 111.618C179.141 109.51 179.41 108.614 179.209 108.045C179.009 107.475 171.889 109.441 171.889 109.441C172.359 108.622 172.65 107.714 172.743 106.774C172.927 104.482 170.229 102.395 169.381 102.706C168.532 103.017 168.88 104.124 168.88 104.124C171.383 105.415 170.988 108.445 168.88 109.357C166.772 110.269 165.639 107.628 166.856 106.516C169.528 104.076 167.91 103.597 167.91 103.597L161.981 108.867C161.923 108.893 157.18 110.089 157.18 110.089L136.896 114.131L128.611 102.01L119.916 109.826C119.916 109.826 121.497 111.697 128.379 121.004C129.711 122.816 131.57 124.172 133.702 124.888C135.834 125.603 138.135 125.641 140.29 124.998L160.469 118.927L160.506 119.022V118.954L171.731 116.076C171.731 116.076 175.346 115.022 176.195 114.796C177.317 114.479 177.249 113.615 176.332 113.589C175.989 113.589 171.779 113.726 171.779 113.726L178.066 111.992C180.021 111.444 179.23 110.479 178.435 110.516Z" fill="#FFC4C0"/>
<path d="M64.8588 96.8772L56.5795 108.998L36.2949 104.951C36.2949 104.951 31.5519 103.776 31.4465 103.739L25.5176 98.4688C25.5176 98.4688 23.9366 98.9483 26.5716 101.388C27.789 102.5 26.6349 105.141 24.5479 104.229C22.4609 103.317 22.071 100.292 24.5479 98.9958C24.5479 98.9958 24.8957 97.8943 24.0209 97.5834C23.1461 97.2725 20.4741 99.3542 20.6586 101.647C20.7514 102.588 21.0424 103.498 21.5123 104.319C21.5123 104.319 14.3766 102.348 14.1922 102.917C14.0077 103.486 14.2765 104.403 22.0973 106.49C22.0973 106.49 15.7732 105.436 14.9669 105.394C14.1606 105.352 13.3858 106.316 15.3569 106.864L21.7389 108.624C21.7389 108.624 17.5229 108.482 17.1856 108.492C16.2897 108.492 16.2001 109.378 17.3226 109.694L21.7864 110.975L33.0117 113.857V113.926L33.0486 113.826L53.2277 119.902C55.3812 120.535 57.6775 120.49 59.804 119.771C61.9304 119.053 63.7838 117.696 65.1118 115.886C72.0051 106.579 73.5756 104.709 73.5756 104.709L64.8588 96.8772Z" fill="#FFC4C0"/>
<path d="M113.475 133.694L110.066 118.411C110.24 116.276 112.701 102.785 113.006 101.984L124.105 118.147L137.07 112.693C137.07 112.693 126.055 94.2474 121.259 87.3383C115.367 78.8798 103.868 77.9734 103.868 77.9734L89.0485 78.1737C89.0485 78.1737 78.698 75.8759 68.3107 89.8258L56.395 108.624L66.6295 113.831C67.1019 114.089 67.6496 114.174 68.1779 114.071C68.7062 113.968 69.182 113.684 69.5228 113.267L77.9286 103.022L80.4793 117.467L76.9326 129.726C76.9326 129.726 73.6967 130.153 74.2975 134.095C74.2975 134.095 84.8377 139.048 94.7771 138.437C104.716 137.826 113.475 133.694 113.475 133.694Z" fill="#7D7DDE"/>
<path d="M107.947 108.803C107.941 108.891 107.92 108.976 107.884 109.056C107.831 109.214 107.758 109.452 107.636 109.752C107.305 110.595 106.908 111.411 106.451 112.192C104.942 114.796 102.835 117.002 100.304 118.628C97.7722 120.254 94.8894 121.253 91.8946 121.541C90.993 121.634 90.0854 121.655 89.1805 121.604C88.859 121.604 88.6113 121.552 88.4479 121.536C88.3601 121.536 88.2729 121.522 88.1897 121.494C88.5215 121.477 88.8539 121.477 89.1857 121.494C90.0839 121.503 90.9817 121.454 91.8735 121.346C94.824 121.009 97.6578 120 100.157 118.396C102.656 116.791 104.753 114.635 106.287 112.092C106.756 111.327 107.173 110.531 107.536 109.71C107.657 109.401 107.794 109.098 107.947 108.803Z" fill="#263238"/>
<path d="M125.644 117.71C125.586 117.757 125.175 117.336 124.838 116.698C124.592 116.331 124.457 115.901 124.448 115.46C124.522 115.433 124.753 115.955 125.08 116.566C125.317 116.921 125.507 117.306 125.644 117.71Z" fill="#263238"/>
<path d="M128.274 116.493C128.205 116.524 127.942 116.045 127.626 115.465C127.386 115.128 127.208 114.752 127.099 114.353C127.157 114.311 127.526 114.732 127.852 115.333C128.095 115.674 128.241 116.075 128.274 116.493Z" fill="#263238"/>
<path d="M131.315 114.885C131.257 114.927 130.883 114.485 130.487 113.9C130.209 113.567 130.004 113.179 129.886 112.761C129.95 112.719 130.324 113.162 130.714 113.747C130.992 114.08 131.197 114.468 131.315 114.885Z" fill="#263238"/>
<path d="M134.308 113.404C134.234 113.404 134.018 112.977 133.739 112.429C133.46 111.881 133.212 111.449 133.275 111.402C133.338 111.354 133.691 111.739 133.981 112.308C134.199 112.632 134.312 113.014 134.308 113.404Z" fill="#263238"/>
<path d="M58.3767 109.12C58.3135 109.077 58.5295 108.645 58.8616 108.15C59.1936 107.655 59.5045 107.291 59.5677 107.333C59.631 107.375 59.4149 107.807 59.0882 108.303C58.7614 108.798 58.44 109.162 58.3767 109.12Z" fill="#263238"/>
<path d="M62.5349 108.561C62.3951 108.991 62.1671 109.388 61.8656 109.726C61.4282 110.321 61.0277 110.78 60.9697 110.727C61.1121 110.298 61.3397 109.901 61.639 109.562C62.0764 108.967 62.477 108.508 62.5349 108.561Z" fill="#263238"/>
<path d="M65.2647 110.39C65.2218 110.785 65.0884 111.166 64.8747 111.502C64.5902 112.087 64.3056 112.556 64.2371 112.498C64.28 112.102 64.4134 111.722 64.6271 111.386C64.9116 110.801 65.1962 110.353 65.2647 110.39Z" fill="#263238"/>
<path d="M67.9787 112.113C68.0367 112.16 67.731 112.64 67.3042 113.125C66.8773 113.61 66.4768 114.01 66.4188 113.963C66.3608 113.915 66.6612 113.436 67.0934 112.951C67.5255 112.466 67.9208 112.066 67.9787 112.113Z" fill="#263238"/>
<path d="M76.5479 134.753C76.2473 134.133 76.1477 133.435 76.263 132.756C76.3782 132.077 76.7026 131.45 77.1908 130.964C76.912 131.553 76.6964 132.169 76.5479 132.803C76.4772 133.452 76.4772 134.105 76.5479 134.753Z" fill="#263238"/>
<path d="M79.436 135.855C79.4044 135.855 79.2673 135.707 79.1461 135.391C78.99 134.972 78.9358 134.523 78.988 134.079C79.0358 133.634 79.1875 133.206 79.4307 132.83C79.6204 132.545 79.7891 132.419 79.8154 132.44C79.5646 132.968 79.3873 133.529 79.2884 134.105C79.2545 134.692 79.3042 135.282 79.436 135.855Z" fill="#263238"/>
<path d="M82.7456 133.726C82.8533 134.246 82.8711 134.781 82.7983 135.307C82.8207 135.843 82.7457 136.378 82.577 136.888C82.4725 136.367 82.4547 135.833 82.5243 135.307C82.5075 134.771 82.5823 134.236 82.7456 133.726Z" fill="#263238"/>
<path d="M87.2674 134.643C87.3412 134.68 87.0091 135.381 86.9301 136.303C86.851 137.225 87.025 137.979 86.9301 138C86.6838 137.461 86.5839 136.867 86.6403 136.278C86.6968 135.689 86.9076 135.125 87.2516 134.643H87.2674Z" fill="#263238"/>
<path d="M90.777 135.18C90.7938 135.739 90.7815 136.299 90.7401 136.856C90.785 137.419 90.7973 137.984 90.777 138.548C90.3556 137.47 90.3556 136.274 90.777 135.196V135.18Z" fill="#263238"/>
<path d="M95.1144 138.432C95.0073 137.85 94.9334 137.262 94.893 136.672C94.7643 136.093 94.6745 135.507 94.6243 134.917C94.9337 135.44 95.1143 136.028 95.1513 136.635C95.2873 137.228 95.2747 137.845 95.1144 138.432Z" fill="#263238"/>
<path d="M99.7046 138.105C99.6256 138.105 99.7046 137.357 99.5834 136.466C99.4622 135.575 99.1513 134.885 99.225 134.859C99.5978 135.306 99.8192 135.859 99.8575 136.44C99.9845 136.997 99.931 137.58 99.7046 138.105Z" fill="#263238"/>
<path d="M104.232 137.135C104.153 137.135 104.131 136.382 103.915 135.491C103.699 134.601 103.388 133.91 103.457 133.884C103.841 134.319 104.093 134.855 104.184 135.428C104.365 135.981 104.381 136.574 104.232 137.135Z" fill="#263238"/>
<path d="M108.042 136.108C107.977 135.55 107.884 134.996 107.763 134.448C107.499 133.562 107.009 132.967 107.072 132.914C107.52 133.3 107.85 133.805 108.021 134.37C108.193 134.936 108.2 135.538 108.042 136.108Z" fill="#263238"/>
<path d="M111.404 134.859C111.325 134.859 111.404 134.058 111.172 133.135C110.941 132.213 110.524 131.554 110.593 131.496C111.006 131.939 111.298 132.482 111.441 133.071C111.583 133.66 111.57 134.276 111.404 134.859Z" fill="#263238"/>
<path d="M124.395 93.5571L124.253 93.5834L123.826 93.6361L122.197 93.8206C121.486 93.8996 120.616 93.9892 119.61 94.0683C118.603 94.1473 117.449 94.258 116.179 94.3318C113.634 94.511 110.603 94.6427 107.22 94.7165C103.836 94.7903 100.142 94.7481 96.2528 94.5953C92.3634 94.4425 88.6638 94.1579 85.3068 93.8364C81.9497 93.5149 78.9405 93.1197 76.4214 92.735C75.1566 92.5663 74.0235 92.3608 73.0222 92.2079C72.0209 92.0551 71.1619 91.8917 70.4662 91.7547L68.8536 91.4438L68.4372 91.3542L68.2949 91.3173H68.4425L68.8641 91.3805L70.482 91.6388C71.1829 91.76 72.063 91.9023 73.0485 92.0498C74.0341 92.1974 75.1829 92.3819 76.4478 92.5452C78.9669 92.9036 81.9814 93.2567 85.3331 93.5992C88.6849 93.9418 92.3792 94.1737 96.2633 94.3371C100.147 94.5004 103.847 94.5162 107.215 94.4794C110.582 94.4425 113.612 94.3054 116.174 94.1526C117.444 94.0946 118.593 93.9998 119.605 93.9313C120.616 93.8627 121.481 93.7942 122.192 93.731L123.826 93.5992L124.253 93.5729L124.395 93.5571Z" fill="#263238"/>
<g opacity="0.2">
<path d="M88.8272 121.599C87.7601 121.295 86.775 120.754 85.9445 120.018C85.1751 119.217 84.8272 117.91 85.4491 116.983C85.7402 116.625 86.1186 116.348 86.5479 116.179C86.9772 116.01 87.4428 115.955 87.8997 116.018C88.809 116.156 89.7072 116.358 90.5874 116.624C91.9243 116.911 93.3083 116.894 94.6379 116.576C95.9675 116.257 97.2089 115.646 98.2712 114.785C99.8207 113.515 100.906 111.76 102.345 110.369C102.762 109.887 103.335 109.567 103.963 109.462C105.059 109.378 105.934 110.516 105.929 111.628C105.923 112.74 105.307 113.736 104.627 114.579C102.674 117.022 100.158 118.954 97.2937 120.21C94.4297 121.465 91.3038 122.007 88.1843 121.789" fill="black"/>
</g>
<g opacity="0.2">
<path d="M78.6931 130.485C83.0356 133.193 88.2899 134.174 93.4019 134.074C98.5139 133.973 103.568 132.935 108.574 131.886C109.038 131.835 109.477 131.653 109.839 131.359C109.925 131.283 109.995 131.19 110.043 131.086C110.092 130.982 110.119 130.869 110.123 130.754C110.127 130.64 110.108 130.525 110.066 130.418C110.025 130.311 109.962 130.214 109.881 130.132C105.254 132.117 100.258 133.097 95.224 133.006C90.1898 132.915 85.2322 131.756 80.6799 129.604C80.1937 129.288 79.6102 129.157 79.0356 129.236C78.477 129.388 78.1291 130.211 78.5982 130.553" fill="black"/>
</g>
<path d="M123.067 148.587L98.6193 153.831L96.4216 145.441L105.47 144.998C105.47 144.998 106.556 143.233 107.816 143.359C109.075 143.486 109.982 145.078 110.904 145.157C111.826 145.236 123.347 143.56 123.067 148.587Z" fill="#FFC4C0"/>
<path d="M68.4529 89.2883C68.3106 89.5096 124.548 93.1038 124.548 93.1038C124.548 93.1038 119.91 78.8746 102.197 77.9681C84.4845 77.0617 75.7573 77.7626 68.4529 89.2883Z" fill="#FFC4C0"/>
<path d="M102.424 79.5228C102.535 75.7916 102.719 71.8706 102.719 71.8706C102.719 71.8706 107.494 71.2224 108.648 64.9879C109.75 59.0379 109.149 45.2145 109.149 45.2145C105.821 43.7376 102.118 43.3246 98.5467 44.0321C94.9753 44.7396 91.7096 46.533 89.1962 49.1671L88.7799 79.4543C88.7324 82.9694 91.6837 85.8205 95.4149 85.8574C99.2094 85.8943 102.319 83.0485 102.424 79.5228Z" fill="#FFC4C0"/>
<path d="M102.408 61.6045C102.864 61.4792 103.333 61.4085 103.805 61.3937C104.021 61.3937 104.232 61.341 104.274 61.1934C104.296 60.9656 104.25 60.7364 104.142 60.5346L103.541 58.8324C102.709 56.4134 102.113 54.4213 102.208 54.3897C102.303 54.3581 103.062 56.2922 103.894 58.7165C104.095 59.312 104.284 59.8811 104.469 60.424C104.596 60.6955 104.627 61.0018 104.558 61.2935C104.525 61.3706 104.474 61.4391 104.41 61.4938C104.346 61.5486 104.271 61.5882 104.189 61.6097C104.067 61.6388 103.941 61.6512 103.815 61.6466C103.346 61.696 102.873 61.6818 102.408 61.6045Z" fill="#263238"/>
<path d="M102.719 71.8443C99.7891 71.8029 96.9295 70.9391 94.4663 69.3515C94.4663 69.3515 96.3635 73.7204 102.588 73.3252L102.719 71.8443Z" fill="#EB996E"/>
<path d="M101.987 63.6704C101.831 63.4585 101.624 63.2901 101.385 63.1812C101.146 63.0723 100.883 63.0266 100.622 63.0485C100.432 63.0596 100.247 63.1092 100.078 63.1944C99.9083 63.2796 99.758 63.3985 99.6362 63.5439C99.5163 63.6845 99.4429 63.8587 99.4259 64.0427C99.4089 64.2267 99.4492 64.4114 99.5413 64.5716C99.6725 64.7313 99.8489 64.8475 100.047 64.9048C100.246 64.9622 100.457 64.9581 100.653 64.8931C101.062 64.7607 101.44 64.5474 101.765 64.2659C101.866 64.2016 101.952 64.1173 102.018 64.0182C102.049 63.9704 102.066 63.9145 102.066 63.8575C102.066 63.8004 102.049 63.7446 102.018 63.6967" fill="#EB996E"/>
<path d="M99.8735 62.1315C100.01 62.1315 99.9894 63.0696 100.764 63.76C101.539 64.4503 102.535 64.3766 102.54 64.5083C102.545 64.6401 102.314 64.6822 101.892 64.6822C101.346 64.6693 100.823 64.4661 100.411 64.1078C100.016 63.76 99.7702 63.2728 99.7259 62.7481C99.6996 62.337 99.8102 62.1315 99.8735 62.1315Z" fill="#263238"/>
<path d="M99.689 56.1658C99.689 56.1658 99.5941 56.3713 99.3095 56.561C98.9364 56.8086 98.4977 56.9389 98.05 56.9352C97.6008 56.9326 97.1625 56.7969 96.7904 56.5452C96.5111 56.3502 96.3952 56.171 96.4162 56.1447C96.9165 56.436 97.4738 56.6158 98.05 56.6717C98.6268 56.6254 99.1864 56.4527 99.689 56.1658Z" fill="#263238"/>
<path d="M108.416 56.2027C108.416 56.2027 108.327 56.3713 108.079 56.5189C107.744 56.6997 107.368 56.7904 106.987 56.7821C106.606 56.7738 106.234 56.6667 105.908 56.4714C105.66 56.3133 105.554 56.1605 105.581 56.1394C106.03 56.3329 106.507 56.4573 106.993 56.5083C107.48 56.4794 107.96 56.3763 108.416 56.2027Z" fill="#263238"/>
<path d="M100.026 52.8192C99.9631 53.0459 99.1779 53.0142 98.2556 53.1249C97.3333 53.2356 96.5797 53.4358 96.4638 53.2303C96.3478 53.0248 97.0593 52.4345 98.1607 52.308C99.2622 52.1816 100.095 52.6137 100.026 52.8192Z" fill="#263238"/>
<path d="M108.453 53.6309C108.316 53.8206 107.647 53.5571 106.83 53.3674C106.013 53.1776 105.301 53.088 105.249 52.8404C105.196 52.5927 106.013 52.3133 107.009 52.5505C108.005 52.7877 108.59 53.457 108.453 53.6309Z" fill="#263238"/>
<path d="M110.414 44.7086C109.402 43.1275 107.473 42.3792 105.671 41.8733C103.779 41.3467 101.855 40.9453 99.9103 40.6717C98.7289 40.4364 97.5097 40.4688 96.3425 40.7665C96.2055 40.814 96.079 40.8667 95.9525 40.9194C93.6707 40.8161 91.4158 41.4459 89.5177 42.7165C88.6902 43.1836 87.9927 43.8503 87.4887 44.6559C86.844 45.481 86.3123 46.3884 85.9077 47.3542C84.0579 50.59 81.6126 55.1012 81.2806 57.4622C80.7587 61.1927 81.5008 64.9905 83.3886 68.2501C83.8613 69.038 84.4103 69.7776 85.0276 70.4582C84.4733 70.9423 84.0199 71.5309 83.6934 72.1904C83.3669 72.8499 83.1736 73.5673 83.1247 74.3015C83.0757 75.0358 83.172 75.7725 83.4081 76.4695C83.6442 77.1665 84.0155 77.81 84.5006 78.3634C83.762 78.9593 83.2398 79.7814 83.0144 80.7033C82.8295 81.5844 82.917 82.5009 83.2653 83.3312C83.6136 84.1614 84.2062 84.866 84.9644 85.3515L85.2489 85.5044C85.1616 85.5803 85.0805 85.6631 85.0065 85.7521C84.7101 86.1267 84.4929 86.5576 84.3678 87.0187C84.2428 87.4798 84.2127 87.9615 84.2792 88.4345C84.4184 89.3836 84.7796 90.2864 85.3333 91.0696C85.8339 91.8337 86.5454 92.5715 87.4413 92.6506C87.5674 92.6639 87.6946 92.6639 87.8207 92.6506C87.4322 92.817 87.1047 93.0997 86.8834 93.4599C86.6621 93.82 86.5579 94.2399 86.585 94.6617C86.6122 95.0836 86.7694 95.4866 87.035 95.8154C87.3007 96.1442 87.6617 96.3826 88.0684 96.4978C88.3839 96.5406 88.6872 96.6483 88.9591 96.814C89.0717 96.9248 89.1556 97.0615 89.2033 97.2121C89.2511 97.3628 89.2613 97.5228 89.2331 97.6783C89.1733 97.9893 89.0629 98.2884 88.9064 98.5636C89.1385 98.5348 89.357 98.4385 89.535 98.2868C89.7129 98.1351 89.8425 97.9345 89.9077 97.7099C89.9077 98.005 89.9077 98.3001 89.9077 98.5953C90.5843 98.1295 91.0794 97.4444 91.3095 96.6559C91.5966 95.8812 91.6641 95.0422 91.5045 94.2316C91.4222 93.8279 91.2569 93.4457 91.0193 93.1092C90.7816 92.7726 90.4767 92.4891 90.1238 92.2764C89.7835 92.0868 89.4013 91.9854 89.0118 91.9813C89.3536 91.6294 89.5956 91.1929 89.7127 90.7165C89.8684 88.9777 89.5439 87.2295 88.7746 85.6625C88.6642 85.4718 88.5315 85.2949 88.3794 85.1354C88.8332 84.6081 89.1484 83.976 89.2964 83.2962C89.4787 82.6572 89.5316 81.9882 89.452 81.3285C89.3724 80.6687 89.1618 80.0315 88.8326 79.4543C88.7613 79.3463 88.6839 79.2425 88.6007 79.1434C89.0581 78.5114 89.34 77.7695 89.4176 76.9932C89.6452 75.9088 89.7478 74.8018 89.7232 73.6941C90.5529 73.0161 91.1966 72.1384 91.5941 71.1434C93.5177 66.9642 91.2727 61.0459 91.2727 61.0459C94.5454 57.7995 95.1725 51.6177 95.2358 47.9655C95.7991 48.7618 96.5006 49.4508 97.3069 49.9997C97.8717 50.4466 98.5796 50.6733 99.299 50.6374C99.6545 50.604 99.9822 50.4311 100.21 50.1564C100.439 49.8818 100.549 49.5279 100.516 49.1723C100.9 49.9942 101.407 50.7529 102.018 51.4227C102.327 51.755 102.705 52.0145 103.126 52.1822C103.548 52.35 104.001 52.4218 104.453 52.3924C104.903 52.3425 105.32 52.1306 105.626 51.796C105.931 51.4614 106.104 51.0271 106.113 50.5742C106.585 51.3355 107.243 51.9633 108.026 52.3976C108.422 52.6063 108.874 52.6854 109.317 52.624C109.761 52.5625 110.174 52.3636 110.498 52.0551C110.897 51.494 111.106 50.8199 111.093 50.1315C111.278 48.2606 111.404 46.2685 110.414 44.7086Z" fill="#263238"/>
<path d="M85.1486 67.507C85.1055 67.4456 85.0717 67.3781 85.0484 67.3068C84.9691 67.1046 84.9125 66.8943 84.8798 66.6796C84.7801 65.8796 84.8985 65.0675 85.2223 64.3292C85.7194 63.2472 86.4375 62.2814 87.3304 61.4938C88.3994 60.5518 89.39 59.5243 90.2922 58.4214C91.7899 56.3103 92.9508 53.9795 93.7335 51.5123C94.0392 50.6006 94.2974 49.8469 94.4872 49.2725C94.5679 48.9952 94.6683 48.724 94.7876 48.4609C94.7475 48.7472 94.6823 49.0294 94.5926 49.3041C94.445 49.8311 94.2237 50.6216 93.918 51.5755C93.1826 54.0883 92.0299 56.4595 90.5082 58.59C89.5973 59.702 88.5923 60.7335 87.5043 61.673C86.6261 62.4328 85.9092 63.3611 85.3962 64.4029C85.0686 65.1093 84.9254 65.8871 84.9799 66.6638C85.0484 67.2119 85.1802 67.4965 85.1486 67.507Z" fill="#597887"/>
<path d="M88.3109 78.8324C88.1838 78.8128 88.062 78.768 87.9525 78.7007C87.6369 78.5588 87.3381 78.382 87.0618 78.1736C86.1325 77.4721 85.4149 76.5277 84.9881 75.4443C84.5612 74.361 84.4418 73.1809 84.6429 72.034C84.7026 71.6889 84.7943 71.3502 84.9169 71.0221C85.0065 70.7955 85.075 70.6743 85.0908 70.6848C85.1066 70.6954 84.938 71.2118 84.8326 72.0603C84.6884 73.1723 84.8283 74.3027 85.2393 75.346C85.6504 76.3892 86.3191 77.3113 87.1831 78.0261C87.8418 78.5584 88.3319 78.7902 88.3109 78.8324Z" fill="#597887"/>
<path d="M87.9893 79.7547C87.9893 79.7863 87.7574 79.8917 87.3358 79.9128C86.7808 79.9267 86.2325 79.7899 85.749 79.5171C85.2656 79.2443 84.8651 78.8456 84.5901 78.3634C84.4593 78.1742 84.3877 77.9504 84.3845 77.7204C84.4267 77.7204 84.5268 77.9418 84.7534 78.2475C85.054 78.6623 85.4405 79.0074 85.8865 79.2593C86.3316 79.5106 86.8262 79.6617 87.3358 79.702C87.731 79.7494 87.984 79.7125 87.9893 79.7547Z" fill="#597887"/>
<path d="M85.8022 84.5927C85.8022 84.5505 86.0499 84.3977 86.4083 84.0656C86.8682 83.6365 87.228 83.1114 87.462 82.5275C87.6961 81.9437 87.7988 81.3155 87.7627 80.6875C87.72 80.4259 87.6936 80.1619 87.6837 79.897C87.8456 80.1226 87.9406 80.3893 87.9577 80.6664C88.0525 81.3312 87.9707 82.0091 87.7206 82.6322C87.4718 83.256 87.0605 83.8019 86.5295 84.2132C86.327 84.4047 86.0752 84.5361 85.8022 84.5927Z" fill="#597887"/>
<path d="M88.3159 84.9563C88.3475 84.9563 88.3159 85.1618 88.1156 85.4042C87.8596 85.7229 87.4995 85.9412 87.0985 86.0208C86.6966 86.0955 86.2812 86.0285 85.9233 85.8311C85.6545 85.6783 85.5438 85.5149 85.5702 85.4938C85.5965 85.4727 85.7441 85.5623 86.0076 85.6519C86.3429 85.7826 86.7084 85.8155 87.0616 85.7468C87.4077 85.6747 87.7281 85.5109 87.9892 85.2725C88.1789 85.088 88.279 84.9404 88.3159 84.9563Z" fill="#597887"/>
<path d="M88.7588 91.7547C88.2762 90.7111 87.7252 89.7005 87.1093 88.7296C86.4217 87.8043 85.6753 86.9241 84.8748 86.0946C85.1828 86.2463 85.4626 86.4495 85.7022 86.6954C86.3174 87.2497 86.8657 87.8741 87.3359 88.5557C87.8065 89.2361 88.194 89.9703 88.49 90.7428C88.6402 91.061 88.7313 91.4039 88.7588 91.7547Z" fill="#597887"/>
<path d="M89.5651 91.9444C89.602 92.0077 89.2594 92.2712 88.7587 92.4714C88.2581 92.6717 87.8259 92.6717 87.8154 92.5979C87.8049 92.5241 88.1948 92.3871 88.6691 92.2185C89.1435 92.0498 89.5282 91.8759 89.5651 91.9444Z" fill="#597887"/>
<path d="M82.345 66.7007C82.3114 66.6218 82.2901 66.5383 82.2818 66.453C82.2501 66.2843 82.2027 66.0419 82.1553 65.7257C82.0015 64.8323 81.9152 63.9285 81.897 63.0221C81.8503 61.66 82.1361 60.307 82.7297 59.0801C83.0982 58.358 83.6219 57.7263 84.2633 57.2303C84.9514 56.7141 85.6957 56.2775 86.482 55.9286C87.2548 55.5884 88.0094 55.2085 88.7429 54.7903C89.4149 54.3925 90.0452 53.9281 90.6243 53.4042C91.6086 52.5121 92.4432 51.4676 93.096 50.3107C93.6767 49.2304 94.1295 48.0861 94.4451 46.9009C94.4453 46.9862 94.4347 47.0712 94.4135 47.1539C94.3768 47.3973 94.3257 47.6384 94.2607 47.8759C94.031 48.7559 93.6966 49.6052 93.2646 50.4055C92.6198 51.6001 91.779 52.6779 90.7771 53.5939C90.1886 54.1325 89.5478 54.611 88.8641 55.0221C88.1174 55.4473 87.3486 55.8325 86.5611 56.1763C85.7943 56.5161 85.0678 56.9403 84.3951 57.4411C83.7797 57.9122 83.2759 58.5132 82.9194 59.2013C82.3292 60.3872 82.0328 61.6977 82.0551 63.0221C82.0577 63.9206 82.114 64.8181 82.2238 65.7099L82.2976 66.4424C82.3263 66.5256 82.3423 66.6127 82.345 66.7007Z" fill="#597887"/>
<path d="M101.107 46.669C101.107 46.669 101.022 46.7586 100.827 46.8482C100.549 46.9735 100.247 47.0416 99.9419 47.0485C99.4359 47.0487 98.9351 46.9466 98.4696 46.7482C98.0041 46.5499 97.5835 46.2594 97.2331 45.8943C96.5624 45.1604 96.051 44.2955 95.7311 43.3541C95.5646 42.9828 95.4477 42.5913 95.3833 42.1895C95.5932 42.5356 95.7696 42.9008 95.9103 43.2804C96.2701 44.1697 96.7839 44.9885 97.4281 45.6993C98.0893 46.3859 98.9851 46.798 99.9367 46.8535C100.333 46.8446 100.727 46.7825 101.107 46.669Z" fill="#597887"/>
<path d="M104.769 48.1289C104.525 48.231 104.257 48.2638 103.995 48.2237C103.353 48.1719 102.738 47.9489 102.212 47.5781C101.687 47.2073 101.27 46.7023 101.006 46.1157C100.877 45.8828 100.819 45.6172 100.838 45.3515C100.967 45.5687 101.081 45.794 101.18 46.0261C101.471 46.5597 101.878 47.0209 102.371 47.3752C102.861 47.7223 103.423 47.9531 104.016 48.0498C104.269 48.056 104.521 48.0825 104.769 48.1289Z" fill="#597887"/>
</svg>
