<svg width="185" height="185" viewBox="0 0 185 185" fill="none" xmlns="http://www.w3.org/2000/svg">
<path d="M147.477 17.1214H142.422V46.3195H147.477V17.1214Z" fill="#FFC727"/>
<g opacity="0.6">
<path d="M147.477 17.1214H142.422V46.3195H147.477V17.1214Z" fill="white"/>
</g>
<path d="M147.477 46.3198H142.422V75.5179H147.477V46.3198Z" fill="#FFC727"/>
<g opacity="0.3">
<path d="M147.477 46.3198H142.422V75.5179H147.477V46.3198Z" fill="white"/>
</g>
<path d="M147.477 75.5179H142.422V104.716H147.477V75.5179Z" fill="#FFC727"/>
<path d="M147.477 104.716H142.422V133.914H147.477V104.716Z" fill="#CC5B4C"/>
<g opacity="0.6">
<path d="M147.477 104.716H142.422V133.914H147.477V104.716Z" fill="#FFC727"/>
</g>
<path d="M147.477 133.915H142.422V163.113H147.477V133.915Z" fill="#CC5B4C"/>
<path d="M151.361 157.123C156.113 153.58 157.093 146.855 153.55 142.102C150.007 137.35 143.282 136.37 138.53 139.913C133.778 143.456 132.797 150.181 136.34 154.933C139.884 159.685 146.608 160.666 151.361 157.123Z" fill="#CC5B4C"/>
<path d="M151.586 146.391C151.586 147.226 150.909 147.902 150.075 147.902C149.24 147.902 148.564 147.225 148.564 146.391C148.564 145.556 149.24 144.88 150.075 144.88C150.91 144.879 151.586 145.556 151.586 146.391Z" fill="#263238"/>
<path d="M141.336 146.39C141.336 147.225 140.659 147.901 139.825 147.901C138.99 147.901 138.313 147.225 138.313 146.39C138.313 145.555 138.99 144.879 139.825 144.879C140.659 144.879 141.336 145.555 141.336 146.39Z" fill="#263238"/>
<path d="M147.68 148.461C147.495 147.812 147.167 147.222 146.698 146.819C146.226 146.417 145.616 146.243 144.99 146.239C144.368 146.223 143.759 146.393 143.28 146.791C142.802 147.187 142.448 147.76 142.216 148.393C142.242 147.716 142.507 147.023 143.012 146.5C143.262 146.236 143.583 146.039 143.926 145.906C144.272 145.784 144.639 145.731 144.998 145.734C145.355 145.745 145.718 145.801 146.062 145.93C146.402 146.066 146.721 146.267 146.968 146.535C147.467 147.07 147.701 147.783 147.68 148.461Z" fill="#263238"/>
<path d="M154.653 123.903C157.182 118.542 154.886 112.145 149.524 109.617C144.163 107.088 137.767 109.384 135.238 114.745C132.71 120.106 135.006 126.502 140.367 129.031C145.728 131.56 152.124 129.264 154.653 123.903Z" fill="#CC5B4C"/>
<path opacity="0.6" d="M154.653 123.903C157.182 118.542 154.886 112.145 149.524 109.617C144.163 107.088 137.767 109.384 135.238 114.745C132.71 120.106 135.006 126.502 140.367 129.031C145.728 131.56 152.124 129.264 154.653 123.903Z" fill="#FFC727"/>
<path d="M151.586 117.192C151.586 118.027 150.909 118.704 150.075 118.704C149.24 118.704 148.564 118.027 148.564 117.192C148.564 116.358 149.24 115.681 150.075 115.681C150.91 115.681 151.586 116.358 151.586 117.192Z" fill="#263238"/>
<path d="M141.336 117.192C141.336 118.027 140.659 118.703 139.825 118.703C138.99 118.703 138.313 118.027 138.313 117.192C138.313 116.357 138.99 115.681 139.825 115.681C140.659 115.68 141.336 116.357 141.336 117.192Z" fill="#263238"/>
<path d="M142.216 117.899C142.894 117.161 143.942 116.829 144.947 116.833C145.451 116.856 145.96 116.926 146.423 117.123C146.895 117.29 147.314 117.574 147.682 117.899C147.196 117.797 146.742 117.684 146.287 117.609C145.837 117.522 145.386 117.491 144.939 117.48C144.49 117.462 144.042 117.512 143.591 117.576C143.141 117.652 142.683 117.744 142.216 117.899Z" fill="#263238"/>
<path d="M155.683 90.1178C155.682 96.0455 150.877 100.851 144.949 100.85C139.021 100.85 134.216 96.0444 134.216 90.1167C134.217 84.189 139.022 79.3837 144.95 79.3841C150.878 79.3841 155.683 84.1897 155.683 90.1178Z" fill="#FFC727"/>
<path d="M151.586 87.9942C151.586 88.8289 150.909 89.5054 150.075 89.5054C149.24 89.5054 148.564 88.8285 148.564 87.9942C148.564 87.1594 149.24 86.4829 150.075 86.4829C150.91 86.4829 151.586 87.1594 151.586 87.9942Z" fill="#263238"/>
<path d="M141.336 87.9934C141.336 88.8282 140.659 89.5047 139.825 89.5047C138.99 89.5047 138.313 88.8282 138.313 87.9934C138.313 87.1587 138.99 86.4822 139.825 86.4822C140.659 86.4822 141.336 87.1591 141.336 87.9934Z" fill="#263238"/>
<path d="M142.018 88.4069C142.995 88.2391 143.972 88.2 144.949 88.1915C145.926 88.1993 146.904 88.238 147.881 88.4069C146.904 88.5759 145.926 88.6146 144.949 88.6224C143.972 88.6139 142.995 88.5748 142.018 88.4069Z" fill="#263238"/>
<path d="M158.615 61.3107C158.615 68.6541 152.661 74.6069 145.318 74.6065C137.974 74.6061 132.021 68.6526 132.022 61.3092C132.022 53.9658 137.976 48.013 145.319 48.0133C152.663 48.0137 158.615 53.9672 158.615 61.3107Z" fill="#DBDBDB"/>
<path d="M151.38 72.5497C157.808 68.9984 160.14 60.9087 156.588 54.481C153.037 48.0532 144.947 45.7214 138.52 49.2727C132.092 52.824 129.76 60.9136 133.311 67.3414C136.863 73.7692 144.952 76.101 151.38 72.5497Z" fill="white"/>
<path d="M155.683 60.9193C155.682 66.847 150.877 71.6522 144.949 71.6519C139.021 71.6515 134.216 66.8459 134.216 60.9178C134.217 54.9901 139.022 50.1849 144.95 50.1852C150.878 50.186 155.683 54.9916 155.683 60.9193Z" fill="#FFC727"/>
<path opacity="0.3" d="M155.683 60.9193C155.682 66.847 150.877 71.6522 144.949 71.6519C139.021 71.6515 134.216 66.8459 134.216 60.9178C134.217 54.9901 139.022 50.1849 144.95 50.1852C150.878 50.186 155.683 54.9916 155.683 60.9193Z" fill="white"/>
<path d="M151.586 58.7961C151.586 59.6308 150.909 60.3073 150.075 60.3073C149.24 60.3073 148.564 59.6305 148.564 58.7961C148.564 57.9613 149.241 57.2848 150.075 57.2848C150.91 57.2845 151.586 57.9613 151.586 58.7961Z" fill="#263238"/>
<path d="M141.336 58.7953C141.336 59.6301 140.659 60.3066 139.825 60.3066C138.99 60.3066 138.313 59.6297 138.313 58.7953C138.313 57.9606 138.99 57.2841 139.825 57.2841C140.659 57.2841 141.336 57.9606 141.336 58.7953Z" fill="#263238"/>
<path d="M142.217 58.1395C142.402 58.7879 142.731 59.3781 143.2 59.7817C143.672 60.1837 144.281 60.3578 144.907 60.3612C145.53 60.3774 146.139 60.207 146.617 59.8097C147.096 59.4132 147.45 58.8403 147.682 58.207C147.655 58.8846 147.39 59.5773 146.886 60.1C146.635 60.3637 146.314 60.5607 145.971 60.6939C145.625 60.8163 145.258 60.8691 144.899 60.8658C144.542 60.8547 144.179 60.799 143.835 60.6699C143.495 60.5342 143.176 60.3328 142.929 60.065C142.431 59.5297 142.196 58.8167 142.217 58.1395Z" fill="#263238"/>
<path d="M155.294 34.5574C156.858 28.84 153.492 22.9369 147.774 21.3726C142.057 19.8082 136.154 23.1749 134.589 28.8923C133.025 34.6097 136.392 40.5128 142.109 42.0771C147.827 43.6415 153.73 40.2748 155.294 34.5574Z" fill="#FFC727"/>
<path opacity="0.6" d="M155.294 34.5574C156.858 28.84 153.492 22.9369 147.774 21.3726C142.057 19.8082 136.154 23.1749 134.589 28.8923C133.025 34.6097 136.392 40.5128 142.109 42.0771C147.827 43.6415 153.73 40.2748 155.294 34.5574Z" fill="white"/>
<path d="M151.586 29.5976C151.586 30.4323 150.909 31.1088 150.075 31.1088C149.24 31.1088 148.564 30.432 148.564 29.5976C148.564 28.7628 149.241 28.0863 150.075 28.0863C150.91 28.0863 151.586 28.7632 151.586 29.5976Z" fill="#263238"/>
<path d="M141.336 29.5973C141.336 30.432 140.659 31.1085 139.825 31.1085C138.99 31.1085 138.313 30.432 138.313 29.5973C138.313 28.7625 138.99 28.086 139.825 28.086C140.659 28.086 141.336 28.7625 141.336 29.5973Z" fill="#263238"/>
<path d="M147.676 28.9414C147.676 29.588 147.45 30.1812 147.073 30.65C146.574 31.2697 145.808 31.6677 144.947 31.6677C144.091 31.6677 143.323 31.2697 142.824 30.65C142.449 30.1812 142.223 29.588 142.223 28.9414H147.676Z" fill="#263238"/>
<path d="M147.073 30.65C146.574 31.2697 145.808 31.6677 144.948 31.6677C144.091 31.6677 143.323 31.2697 142.824 30.65C143.377 30.162 144.127 29.8636 144.95 29.8636C145.772 29.8636 146.52 30.162 147.073 30.65Z" fill="#CC5B4C"/>
<path d="M91.359 167.746L30.4379 167.779C30.4379 167.779 28.0089 164.678 28.3557 160.88C29.6342 146.868 49.1045 100.815 57.546 94.6504C61.3221 91.8931 70.0462 92.2151 74.7626 95.5117C82.092 100.635 89.1702 136.073 93.9363 157.567C95.303 163.73 91.4 167.684 91.359 167.746Z" fill="#7D7DDE"/>
<path d="M84.5195 117.534C84.1119 117.388 83.7242 117.185 83.362 116.926C81.4767 115.574 81.4896 113.24 81.5999 111.154C81.6515 110.175 81.7002 109.195 81.5999 108.215C81.5966 108.176 81.5932 108.138 81.587 108.099C81.4221 107.626 81.2572 107.164 81.089 106.711C81.2701 108.027 81.3413 109.317 81.2797 110.646C81.1794 112.732 80.992 115.089 82.5925 116.703C83.155 117.272 83.8633 117.673 84.6264 117.909C84.594 117.783 84.5586 117.66 84.5195 117.534ZM92.6777 151.838C91.9404 153.316 91.3487 154.819 90.314 156.129C88.3417 158.612 85.6349 160.397 83.6984 162.906C82.57 164.362 81.8684 166.014 81.6224 167.753H81.9488C82.1074 166.683 82.4468 165.635 82.9772 164.669C84.345 162.16 86.6633 160.397 88.6877 158.451C89.6545 157.519 90.563 156.539 91.2937 155.421C91.9083 154.473 92.335 153.442 92.8072 152.433C92.7651 152.236 92.7198 152.039 92.6777 151.838ZM91.2034 145.113C89.6382 143.7 87.9924 142.348 86.7637 140.615C85.3376 138.604 84.7522 136.159 85.0499 133.714C85.2956 131.658 86.1204 129.834 87.3553 128.382C87.3229 128.259 87.2937 128.137 87.2649 128.017C86.5243 128.844 85.9134 129.811 85.4737 130.898C84.6556 132.909 84.4553 135.179 84.9271 137.3C85.4866 139.735 86.9997 141.659 88.7622 143.347C89.6028 144.145 90.4822 144.905 91.3328 145.704C91.2904 145.507 91.2484 145.31 91.2034 145.113ZM58.1211 140.292C57.8625 136.705 55.0687 133.951 51.6054 133.304C49.4453 132.91 47.224 133.094 45.0639 132.735C44.6175 132.66 44.1845 132.56 43.7511 132.451C44.2328 130.129 44.6046 127.833 45.9337 125.76C47.3984 123.477 49.1476 121.441 49.2221 118.572C49.2966 116.128 48.0063 114.068 45.8983 112.878C45.8724 112.862 45.8466 112.849 45.8175 112.833C45.7658 112.933 45.7138 113.036 45.6655 113.14C47.4859 114.187 48.7891 115.872 48.8765 118.09C48.9864 120.719 47.5604 122.77 46.1343 124.829C44.7179 126.853 44.0488 128.926 43.5895 131.332C43.5283 131.655 43.4634 132.001 43.3892 132.363C41.8016 131.927 40.3014 131.257 38.8592 130.426C38.6006 130.278 38.3449 130.129 38.0897 129.977C38.041 130.096 37.9927 130.216 37.944 130.335C39.1727 131.06 40.4272 131.755 41.7758 132.25C42.2867 132.437 42.8071 132.599 43.328 132.722C42.9303 134.843 42.3225 137.301 40.2756 138.061C38.5261 138.704 36.7544 137.922 35.4124 136.738C35.3641 136.868 35.3121 136.997 35.2671 137.126C36.2243 137.957 37.3722 138.542 38.6751 138.63C41.456 138.84 42.7459 136.544 43.3671 134.174C43.477 133.715 43.5903 133.269 43.6773 132.809C44.8414 133.081 46.0215 133.243 47.2114 133.304C49.3228 133.404 51.5441 133.33 53.5039 134.226C55.0561 134.93 56.3365 136.198 57.0801 137.724C58.8164 141.297 57.19 145.346 53.9403 147.344C51.1594 149.054 47.8226 149.588 45.0547 151.328C42.2479 153.103 40.2627 156.068 37.1583 157.397C34.4003 158.593 31.5515 157.888 29.107 156.437C29.0746 156.586 29.0425 156.734 29.01 156.883C30.4781 157.753 32.0915 158.335 33.8702 158.413C37.705 158.587 40.3018 155.819 42.9433 153.475C44.4339 152.159 46.0215 151.127 47.8581 150.371C49.4844 149.688 51.1723 149.168 52.7729 148.399C55.9872 146.872 58.3959 144.029 58.1211 140.292ZM79.068 131.06C80.646 128.528 81.6644 125.847 81.3638 122.818C81.0436 119.577 79.3786 116.551 76.7109 114.653C74.6382 113.175 72.1096 112.328 69.6131 112.567C66.3343 112.878 64.0905 115.284 62.8843 117.356C61.2351 120.212 62.241 123.241 63.4176 126.071C64.8824 129.595 65.7522 133.207 65.5549 137.042C65.3804 140.243 64.2517 143.943 66.4084 146.746C68.0735 148.883 71.3881 148.906 73.5836 147.577C76.6489 145.705 74.8998 142.154 75.0967 139.325C75.3203 136.185 77.4675 133.614 79.068 131.06ZM75.0971 144.822C74.5634 148.039 69.6615 149.181 67.3269 147.244C64.7109 145.071 65.4549 141.262 65.7651 138.345C66.0982 135.131 65.7876 131.878 64.8079 128.8C63.7795 125.586 61.4578 122.223 62.5737 118.721C63.4693 115.905 66.1823 113.884 69.0053 113.221C74.321 111.972 79.5789 115.882 80.8301 121.353C81.4896 124.257 80.9304 127.125 79.4914 129.705C78.1882 132.027 76.4261 134.1 75.4206 136.596C74.9971 137.637 74.7382 138.753 74.7515 139.897C74.764 141.533 75.3719 143.185 75.0971 144.822ZM70.9518 156.404C70.567 154.755 69.8234 153.041 68.4944 151.948C67.3044 150.956 65.7522 150.619 64.2262 150.758C60.5401 151.078 57.7234 153.823 55.017 156.081C51.7286 158.849 47.9163 160.649 44.1332 162.635C41.4722 164.032 38.7688 165.632 36.6316 167.776H37.3689C38.9112 166.331 40.7123 165.141 42.5327 164.113C45.747 162.276 49.1841 160.834 52.2882 158.813C55.2402 156.889 57.5748 154.108 60.6533 152.394C62.1535 151.55 63.8772 151.004 65.6168 151.192C67.5633 151.402 68.9927 152.643 69.8496 154.37C71.5375 157.756 71.1399 161.953 69.688 165.341C69.3258 166.179 68.899 166.984 68.4206 167.76H68.7828C68.9152 167.544 69.0447 167.324 69.1676 167.103C70.9389 163.877 71.8087 160.042 70.9518 156.404ZM69.5453 93.3181C69.5065 93.4117 69.4645 93.5025 69.4224 93.5929C67.9706 96.7585 67.1266 100.034 66.0953 103.348C65.0669 106.672 63.5408 109.961 60.4365 111.823C57.4453 113.612 53.5489 113.834 50.3704 112.383C49.1804 111.84 48.0974 111.08 47.1661 110.168C47.0915 110.31 47.0174 110.456 46.9429 110.601C47.1561 110.808 47.3763 111.002 47.6024 111.19C50.3704 113.45 53.9949 114.294 57.4711 113.498C61.0182 112.693 63.6375 110.236 65.1764 107.009C66.8415 103.484 67.3623 99.5748 68.8013 95.9757C69.1377 95.1285 69.532 94.2749 69.93 93.4114C69.8039 93.3797 69.6744 93.3472 69.5453 93.3181Z" fill="white"/>
<path d="M56.1805 114.685C70.2126 137.867 89.5811 162.609 98.6545 160.311C108.761 157.753 97.756 130.88 96.6261 129.772C95.362 128.532 81.7692 115.337 65.3561 105.222C47.3553 94.1285 52.7106 108.953 56.1805 114.685Z" fill="#7D7DDE"/>
<path d="M102.805 150.454C102.569 150.069 102.271 149.714 101.906 149.39C100.179 147.851 97.4372 147.492 95.4037 148.595C95.1418 148.731 94.9057 148.905 94.6825 149.093C94.0001 148.013 93.1919 147.008 92.238 146.076C90.4014 144.288 88.2672 142.739 86.7637 140.615C85.3376 138.604 84.7522 136.159 85.0499 133.714C85.5254 129.679 88.2542 126.529 91.9178 125.385C91.8371 125.31 91.7496 125.236 91.6655 125.155C88.9267 126.064 86.618 128.065 85.4734 130.898C84.6552 132.909 84.4549 135.179 84.9267 137.3C85.4863 139.735 86.9994 141.659 88.7618 143.347C90.7471 145.232 92.9555 146.907 94.4335 149.255C94.4335 149.264 94.4464 149.277 94.4464 149.29C93.7382 149.95 93.2048 150.794 92.7714 151.647C91.989 153.186 91.3941 154.764 90.314 156.129C90.0813 156.423 89.8356 156.708 89.58 156.986C89.6836 157.063 89.7869 157.141 89.8905 157.215C90.4014 156.653 90.8769 156.058 91.2937 155.421C92.0765 154.218 92.5482 152.876 93.2048 151.625C93.5896 150.878 94.0746 150.196 94.6567 149.639C96.0732 152.045 96.7906 154.852 96.6807 157.642C96.6453 158.551 96.5254 159.463 96.3701 160.372C96.4833 160.391 96.5966 160.404 96.7094 160.417C96.7581 160.152 96.8031 159.887 96.8422 159.618C97.4014 155.981 96.6678 152.469 94.8795 149.452C95.2771 149.106 95.7139 148.819 96.2214 148.621C97.3369 148.224 98.5914 148.237 99.7072 148.583C101.344 149.084 102.375 150.203 102.873 151.577C102.86 151.208 102.837 150.836 102.805 150.454ZM79.068 131.06C80.646 128.528 81.6644 125.847 81.3638 122.818C81.0436 119.577 79.3785 116.551 76.7109 114.653C74.6382 113.175 72.1096 112.328 69.6131 112.567C66.3343 112.878 64.0905 115.284 62.8843 117.356C61.245 120.196 62.228 123.206 63.3951 126.019C63.6795 126.439 63.9643 126.863 64.252 127.283C63.1395 124.531 61.6327 121.676 62.5737 118.721C63.4693 115.905 66.1823 113.884 69.0052 113.221C74.321 111.972 79.5788 115.882 80.83 121.353C81.4896 124.257 80.9304 127.125 79.4914 129.705C78.1882 132.027 76.4261 134.1 75.4206 136.596C74.9971 137.637 74.7382 138.753 74.7515 139.897C74.7548 140.563 74.8614 141.233 74.9647 141.902V141.905C75.0779 142.044 75.1878 142.183 75.3011 142.319C75.1845 141.301 75.0326 140.272 75.0975 139.325C75.3203 136.185 77.4674 133.614 79.068 131.06ZM65.432 105.266C64.4165 107.895 62.9388 110.323 60.4361 111.824C58.923 112.729 57.1801 113.234 55.4143 113.321C55.4918 113.473 55.5729 113.622 55.6537 113.764C56.2616 113.729 56.8695 113.638 57.4707 113.499C61.0178 112.694 63.6371 110.236 65.176 107.009C65.4088 106.514 65.619 106.013 65.8164 105.505C65.691 105.425 65.5615 105.347 65.432 105.266Z" fill="white"/>
<path d="M96.6262 129.772C88.0437 122.644 79.7161 115.197 70.7917 108.491C75.5992 111.355 80.0109 114.836 84.3034 118.411C88.5741 122.016 92.7198 125.771 96.6262 129.772Z" fill="#263238"/>
<path d="M73.6464 109.095C74.9806 110.165 76.1469 111.423 77.1086 112.837C75.7644 111.76 74.6176 110.517 73.6464 109.095Z" fill="#263238"/>
<path d="M74.1093 105.499C70.1613 106.478 63.3011 100.504 60.5638 95.6314C60.3782 95.2965 60.8544 91.7484 61.2292 87.4101C61.4465 84.7764 61.6261 81.8387 61.5966 79.1464L78.5287 83.0634C78.5287 83.0634 76.9304 88.7259 77.0108 93.4197C77.0219 93.8118 77.0647 94.1763 77.1392 94.5234C77.1455 94.5739 77.161 94.6355 77.1658 94.7059C77.5306 96.8007 77.9245 104.549 74.1093 105.499Z" fill="#F7A9A0"/>
<path d="M77.0116 93.4177C77.0205 93.6947 77.043 93.9562 77.0828 94.207C68.379 94.4479 63.3392 87.428 61.4668 83.9894C61.5598 82.3653 61.6143 80.7135 61.597 79.1451L78.5303 83.0643C78.5303 83.0643 76.9301 88.726 77.0116 93.4177Z" fill="#263238"/>
<path d="M52.6887 63.0716C52.3368 69.3225 59.5194 85.3738 64.5729 88.1078C71.8994 92.0717 81.8455 90.1886 84.6958 81.8503C87.4593 73.7677 77.7286 53.0148 72.2745 50.7411C64.2417 47.3918 53.2088 53.8381 52.6887 63.0716Z" fill="#F7A9A0"/>
<path d="M72.711 71.041C72.6867 71.0023 72.6443 71.1258 72.6627 71.1705C73.1105 72.2627 73.4399 73.5891 72.5768 74.3298C72.5502 74.3527 72.5742 74.4069 72.6092 74.3881C73.7652 73.7607 73.3104 72.0041 72.711 71.041Z" fill="#263238"/>
<path d="M71.2923 70.2557C69.4642 70.785 70.6575 74.4029 72.3509 73.9123C74.0182 73.4295 72.8249 69.812 71.2923 70.2557Z" fill="#263238"/>
<path d="M78.7033 69.0119C78.6985 68.9665 78.8084 69.037 78.8217 69.0834C79.1485 70.2177 79.714 71.4619 80.8505 71.5069C80.8855 71.508 80.9006 71.5656 80.8612 71.5726C79.5646 71.7983 78.8309 70.1391 78.7033 69.0119Z" fill="#263238"/>
<path d="M79.3277 67.5158C81.0895 66.7958 82.4 70.3727 80.7678 71.0396C79.161 71.6962 77.8508 68.1193 79.3277 67.5158Z" fill="#263238"/>
<path d="M69.2952 69.0868C69.7858 68.8732 70.2027 68.5944 70.666 68.3328C71.1886 68.0378 71.6353 67.8566 71.9172 67.2974C72.0684 66.9975 71.9072 66.5309 71.6298 66.3568C70.9836 65.9511 70.2536 66.1532 69.6099 66.4826C68.9113 66.84 68.4646 67.2941 68.1492 68.0108C67.8438 68.7065 68.6486 69.3679 69.2952 69.0868Z" fill="#263238"/>
<path d="M80.1046 64.8875C79.5786 64.9853 79.0769 64.9879 78.5469 65.0303C77.9486 65.0786 77.4771 65.1786 76.9309 64.8728C76.6376 64.709 76.5096 64.2324 76.642 63.9325C76.95 63.2346 77.6682 62.9934 78.386 62.906C79.1647 62.8112 79.7896 62.937 80.4524 63.3549C81.0943 63.7595 80.7981 64.7588 80.1046 64.8875Z" fill="#263238"/>
<path d="M74.4052 81.732C74.7087 81.9784 75.0215 82.3284 75.4472 82.3247C75.8552 82.3218 76.3133 82.0949 76.6715 81.9171C76.7065 81.8998 76.7475 81.9352 76.7272 81.9721C76.466 82.4465 75.8559 82.7847 75.3081 82.7397C74.7725 82.6962 74.4701 82.265 74.2982 81.7943C74.2738 81.729 74.3605 81.6958 74.4052 81.732Z" fill="#263238"/>
<path d="M74.7405 77.9411C75.6899 78.6947 76.7836 78.912 77.8379 78.7681C78.3096 78.7072 78.7792 78.5645 79.2204 78.3686C79.3093 78.3362 79.3952 78.2959 79.4701 78.2506C79.5479 78.2133 79.618 78.1786 79.701 78.1303C79.8246 78.0672 79.8596 77.9359 79.8397 77.8061L79.8368 77.798C79.822 77.7578 79.8106 77.7253 79.7877 77.6877C79.7877 77.6877 79.7877 77.6877 79.7848 77.6796L79.7497 77.5829C79.483 76.7194 78.9581 75.4461 78.9581 75.4461C79.324 75.4966 81.1617 75.6729 80.9847 75.2343C79.5081 71.608 77.8663 67.5748 75.6313 64.2782C75.5631 64.1657 75.3856 64.2572 75.438 64.3756C76.7191 67.9171 78.6143 71.2093 79.9581 74.7463C79.3838 74.7257 78.4325 74.6493 77.9876 74.8098C77.8781 74.8861 79.0452 77.2528 79.1344 77.6504C79.1344 77.6504 79.1403 77.6667 79.1407 77.6936C77.7652 78.3653 76.5339 78.2985 74.8106 77.8061C74.7065 77.7703 74.6438 77.8754 74.7405 77.9411Z" fill="#263238"/>
<path d="M78.5734 78.1805C78.5734 78.1805 78.1574 79.4258 77.2581 80.1196C76.9272 80.3767 76.5406 80.5615 76.0806 80.587C75.1367 80.6423 74.8545 79.8514 74.7914 79.1167C74.7376 78.5132 74.8398 77.9444 74.8398 77.9444C74.8398 77.9444 76.4971 78.7187 78.5734 78.1805Z" fill="#263238"/>
<path d="M77.258 80.1196C76.9271 80.3767 76.5406 80.5615 76.0806 80.587C75.1366 80.6423 74.8545 79.8514 74.7914 79.1167C75.7545 78.9083 76.8832 79.2395 77.258 80.1196Z" fill="#FF9CBD"/>
<path d="M61.1539 84.7799C61.1539 84.7799 59.3594 85.0248 58.6427 83.9964C57.926 82.968 58.4195 79.6209 55.0429 78.7304C53.8721 78.4217 52.9636 78.3088 52.2683 77.5017C50.9758 76.0016 51.5645 74.4424 50.9861 73.4106C50.2716 72.1362 47.736 72.4154 46.7935 69.8108C45.5405 66.3475 48.3531 64.6633 48.5991 63.3147C48.8452 61.9661 47.7069 60.3483 48.8577 57.7234C49.9186 55.3044 52.7168 55.2782 54.0801 54.0724C55.5368 52.7839 54.2845 50.2782 56.8847 48.2442C58.781 46.761 61.881 48.1421 63.2775 47.3778C65.4852 46.1694 64.9721 43.8632 67.9466 42.6533C71.2676 41.3025 77.2554 45.9702 78.4638 48.0668C79.8142 50.4106 78.4192 52.3202 79.2816 53.795C80.5188 55.9097 82.4933 55.3 83.0787 57.3044C83.6582 59.2885 82.5844 60.5545 82.8471 61.8415C83.203 63.5858 83.5944 63.8769 83.8777 65.3955C84.1694 66.9591 83.1706 68.3055 83.1706 68.3055C83.1706 68.3055 80.6988 60.6895 76.8341 56.1587C75.5475 54.65 74.0772 53.7323 73.535 53.9923C72.8286 54.3313 73.8895 57.0513 72.67 57.5559C71.4505 58.0606 68.0673 55.743 66.5457 57.1941C64.5173 59.1284 66.442 62.6013 64.2683 64.418C62.0945 66.2347 60.5988 65.8448 60.1377 67.1971C59.5656 68.8758 61.1565 69.6482 61.9444 72.255C62.6556 74.6083 62.3232 75.5482 62.3232 75.5482L60.6574 76.2362C60.6574 76.2362 58.1742 75.0274 57.5899 75.4674C57.0068 75.9079 61.1539 84.7799 61.1539 84.7799Z" fill="#263238"/>
<path d="M48.6515 61.4161C49.1624 64.172 45.9485 66.0731 46.0518 68.7459C46.2941 70.9042 47.8426 71.9543 49.7806 72.6002C50.3782 72.8507 51.1775 73.1587 51.2908 73.8905C51.0289 73.2266 50.2919 73.0882 49.6762 72.9126C48.3498 72.6035 46.8935 72.0657 46.1303 70.8223C45.2948 69.5733 45.1676 67.9897 45.9127 66.6935C46.7674 64.885 48.6371 63.5327 48.6515 61.4161Z" fill="#263238"/>
<path d="M80.0153 54.7212C81.1156 55.1944 82.5435 55.0547 83.4232 56.0476C84.8098 57.6345 84.0296 59.172 83.1492 60.7371C82.9769 61.082 82.8264 61.4368 82.8471 61.8422C82.68 61.4645 82.7519 61.0156 82.8515 60.626C83.1429 59.5792 83.8039 58.4125 83.4546 57.377C83.2543 56.6917 82.7899 56.1174 82.1303 55.8038C81.4715 55.4759 80.6198 55.2745 80.0153 54.7212Z" fill="#263238"/>
<path d="M60.6579 76.2365C60.6579 76.2365 55.0666 72.3217 53.1599 74.5017C51.2532 76.6821 56.7955 83.2918 59.9747 83.3129C63.1544 83.3339 63.2315 80.3907 63.2315 80.3907L60.6579 76.2365Z" fill="#F7A9A0"/>
<path d="M54.7958 76.3571C54.7494 76.3697 54.7638 76.4361 54.8084 76.4375C57.0614 76.5165 58.7586 77.9599 60.1706 79.5832C59.3218 79.0698 58.382 78.9621 57.6623 80.0115C57.6247 80.0665 57.7029 80.1288 57.7538 80.0971C58.4952 79.6316 59.126 79.5593 59.9043 80.0052C60.455 80.321 60.9283 80.8016 61.3956 81.2277C61.5517 81.3697 61.8338 81.1602 61.6937 80.9824C61.6833 80.9691 61.6719 80.9558 61.6608 80.9425C60.7977 78.4217 57.5745 75.6286 54.7958 76.3571Z" fill="#263238"/>
<path d="M99.2362 159.482C105.44 155.314 113.497 140.14 119.708 111.185C120.568 107.178 91.4412 104.153 90.3033 108.384C88.8699 113.714 84.463 134.708 84.335 136.285C83.2542 149.577 95.0281 162.31 99.2362 159.482Z" fill="#F7A9A0"/>
<path d="M119.067 74.1531C121.508 76.5363 115.122 82.0587 115.122 82.0587C115.122 82.0587 117.411 81.4961 119.363 82.6433C121.6 83.9569 120.521 88.0391 120.521 88.0391C120.521 88.0391 122.956 87.9499 124.897 89.3689C126.911 90.8414 126.409 95.1159 126.409 95.1159C126.409 95.1159 128.723 96.2785 129.521 98.7083C130.884 102.862 126.303 109.267 124.007 112.837C121.548 116.662 117.483 121.932 116.152 123.267L90.1185 109.095C90.1185 109.095 95.2321 87.6618 98.9382 84.2442C102.06 81.3652 115.334 70.5109 119.067 74.1531Z" fill="#F7A9A0"/>
<path d="M115.003 82.041C110.95 84.3054 107.446 87.5356 104.099 90.6898C104.025 90.7599 104.136 90.8757 104.21 90.8045C107.502 87.6289 111.722 85.2571 115.134 82.2191C115.228 82.135 115.113 81.9797 115.003 82.041Z" fill="#263238"/>
<path d="M120.188 87.8842C119.287 88.4242 118.566 89.2597 117.844 90.0111C117.067 90.8204 116.305 91.643 115.555 92.4773C114.053 94.1479 112.59 95.8525 111.178 97.5987C111.115 97.6762 111.218 97.7913 111.288 97.7134C112.787 96.0513 114.311 94.4121 115.879 92.8145C116.663 92.0152 117.455 91.2225 118.252 90.4349C118.993 89.7024 119.836 88.9912 120.4 88.1066C120.484 87.9757 120.324 87.8027 120.188 87.8842Z" fill="#263238"/>
<path d="M126.344 95.1841C125.541 95.6216 124.924 96.5286 124.336 97.2114C123.667 97.9867 122.995 98.7584 122.318 99.526C120.965 101.061 119.611 102.596 118.205 104.083C118.134 104.157 118.244 104.272 118.315 104.198C119.752 102.694 121.208 101.21 122.631 99.6935C123.33 98.9488 124.025 98.2003 124.715 97.4478C125.302 96.8082 126.109 96.0756 126.424 95.2486C126.441 95.2029 126.384 95.1623 126.344 95.1841Z" fill="#263238"/>
<path d="M88.2664 114.331L120.279 119.703C120.279 119.703 105.97 159.818 98.3616 160.344C90.7526 160.869 82.8979 144.787 83.7818 137.349C84.6659 129.91 88.2664 114.331 88.2664 114.331Z" fill="#7D7DDE"/>
<path d="M98.7179 116.085C98.2587 116.418 97.7802 116.726 97.2756 117C95.5003 117.958 93.4276 118.229 91.5427 117.411C91.0964 117.21 90.6729 116.965 90.2753 116.677C90.9057 116.182 91.4652 115.587 91.9437 114.947L91.6268 114.892C91.1613 115.49 90.6275 116.033 90.0296 116.492C89.3181 115.936 88.7072 115.254 88.2284 114.497C88.1993 114.62 88.1572 114.808 88.1023 115.054C88.5357 115.684 89.0495 116.256 89.6316 116.738C89.4084 116.887 89.2081 117.049 88.9721 117.175C88.5128 117.411 88.0182 117.588 87.5106 117.695C87.4848 117.808 87.459 117.928 87.4331 118.048C87.4848 118.041 87.5335 118.028 87.5818 118.018C88.4258 117.818 89.1952 117.433 89.9034 116.951C91.158 117.905 92.6973 118.465 94.3852 118.342C96.2705 118.203 97.8677 117.32 99.3358 116.188L98.7179 116.085ZM112.952 139.014C112.845 138.937 112.742 138.859 112.638 138.775C110.915 137.462 109.356 135.913 107.988 134.322C106.161 132.201 104.674 129.779 102.689 127.819C100.975 126.118 98.8636 125.003 96.4579 124.705C91.8275 124.107 87.2487 126.503 85.4737 130.898C84.6556 132.909 84.4553 135.179 84.9271 137.3C85.4866 139.735 86.9997 141.659 88.7622 143.346C90.7474 145.232 92.9558 146.906 94.4339 149.254C94.4339 149.264 94.4468 149.277 94.4468 149.29C93.7386 149.949 93.2052 150.793 92.7718 151.647C92.0573 153.053 91.4977 154.492 90.5829 155.77C90.667 155.873 90.7511 155.976 90.8352 156.073C90.9968 155.86 91.1487 155.643 91.2944 155.42C92.0772 154.217 92.549 152.875 93.2056 151.624C93.5903 150.877 94.0753 150.195 94.6574 149.639C96.0739 152.045 96.7913 154.851 96.6814 157.642C96.6489 158.47 96.549 159.297 96.4132 160.125C96.5232 160.161 96.6364 160.187 96.7463 160.213C96.7817 160.015 96.8142 159.815 96.8433 159.618C97.4025 155.98 96.6689 152.468 94.8806 149.452C95.2782 149.106 95.715 148.818 96.2225 148.621C97.338 148.223 98.5925 148.236 99.7083 148.582C102.825 149.539 103.744 152.727 102.961 155.657C102.774 156.352 102.518 157.012 102.218 157.645C102.493 157.322 102.774 156.973 103.055 156.601C103.892 154.153 103.983 151.227 101.907 149.39C100.18 147.851 97.4383 147.492 95.4047 148.595C95.1428 148.731 94.9068 148.905 94.6836 149.093C94.0012 148.013 93.193 147.007 92.2391 146.076C90.4025 144.288 88.2683 142.739 86.7647 140.615C85.3387 138.604 84.7533 136.159 85.051 133.714C85.6493 128.65 89.7946 124.977 94.8809 124.916C97.4387 124.89 99.8832 125.773 101.807 127.461C103.854 129.259 105.319 131.629 107.02 133.74C108.62 135.71 110.447 137.591 112.504 139.082C112.665 139.199 112.827 139.315 112.989 139.425L112.952 139.014ZM117.715 126.523C116.961 125.621 116.363 124.547 115.968 123.451C115.412 121.948 115.147 120.373 115.263 118.863L114.772 118.779C114.721 119.564 114.766 120.363 114.889 121.142C115.206 123.206 116.046 125.433 117.495 127.079C117.511 127.099 117.527 127.118 117.543 127.137C117.618 126.963 117.705 126.778 117.78 126.604C117.757 126.578 117.734 126.552 117.715 126.523Z" fill="white"/>
<path d="M85.5405 142.404C85.2594 141.086 83.8297 137.507 84.3678 132.676C84.8374 128.46 87.3055 116.938 88.3656 114.32C88.3922 114.254 88.4597 114.268 88.4438 114.34C87.8842 116.854 85.6515 127.996 85.1052 132.485C84.5338 137.178 85.4342 141.102 85.6172 142.368C85.6264 142.432 85.5537 142.466 85.5405 142.404Z" fill="#263238"/>
<path d="M114.354 126.152C112.4 125.553 110.326 125.241 108.324 124.844C106.235 124.431 104.135 124.083 102.037 123.726C99.9407 123.37 91.5014 122.219 89.3951 121.933C89.3 121.92 89.2797 122.061 89.373 122.079C91.4615 122.497 99.7415 124.152 101.801 124.493C103.861 124.834 105.92 125.19 107.989 125.476C110.082 125.764 112.217 126.163 114.33 126.238C114.375 126.239 114.407 126.168 114.354 126.152Z" fill="#263238"/>
<path d="M117.838 119.28C118.442 119.346 119.697 119.486 120.302 119.568L120.461 119.587L120.408 119.747C117.599 128.234 114.38 136.583 110.572 144.68C108.072 149.697 105.583 154.892 101.592 158.934C91.4011 169.628 70.5327 136.762 65.3937 129.334C62.9414 125.602 60.5346 121.844 58.1436 118.075C60.7275 121.715 63.2236 125.415 65.8116 129.049C71.1262 136.366 88.6253 162.304 98.2768 159.797C106.066 157.073 116.898 128.076 120.149 119.659L120.255 119.839C119.642 119.717 118.445 119.42 117.838 119.28Z" fill="#263238"/>
<path d="M58.5707 120.844C59.9207 122.009 61.2151 123.3 62.4729 124.558C60.8805 123.684 59.5581 122.36 58.5707 120.844Z" fill="#263238"/>
<path d="M18.3679 49.107C19.182 56.8901 26.1554 62.5426 33.9386 61.7289C37.0843 61.3999 39.8803 60.0646 42.0455 58.0709L49.1352 59.1114L45.5878 52.9823C46.4483 50.8883 46.8109 48.5578 46.5601 46.1586C45.746 38.3755 38.7729 32.723 30.9895 33.5367C23.2067 34.3508 17.5538 41.3239 18.3679 49.107Z" fill="white"/>
<path d="M22.6095 37.4035C24.1487 35.9018 26.0266 34.7421 28.0746 34.0523C30.1251 33.3707 32.3354 33.1752 34.4829 33.4603C36.6283 33.7506 38.7238 34.5134 40.5309 35.7296C42.3391 36.9424 43.871 38.5684 44.9691 40.4559C47.1727 44.2246 47.5601 49.0417 45.8419 53.0867L45.8256 52.8443L49.352 58.9856L49.6124 59.4386L49.0982 59.3596L42.0152 58.2722L42.1827 58.2206C40.2211 59.9989 37.7648 61.2128 35.1716 61.6824C34.5235 61.8012 33.8684 61.8716 33.2103 61.8864C32.5534 61.9439 31.8972 61.8842 31.2413 61.8488C29.9414 61.6924 28.6375 61.4489 27.4261 60.9391C26.2089 60.46 25.0444 59.8344 24.0075 59.0358C23.4638 58.6687 23.0045 58.1984 22.5117 57.7694C22.0775 57.2814 21.5991 56.8307 21.2273 56.2907C19.6091 54.2302 18.6633 51.6942 18.3671 49.1069C17.9075 44.8403 19.4803 40.3781 22.6095 37.4035ZM21.2705 56.2582C21.6441 56.7934 22.1244 57.2394 22.5597 57.7219C23.0532 58.1453 23.5128 58.6105 24.0562 58.9712C25.089 59.7635 26.2616 60.3596 27.4745 60.8137C28.6825 61.298 29.9761 61.5149 31.2594 61.647C31.9068 61.6702 32.553 61.7182 33.1985 61.6499C33.8452 61.6241 34.4874 61.5437 35.1211 61.4161C37.6574 60.9107 40.0315 59.6817 41.9072 57.9207L41.9769 57.8554L42.0746 57.869L49.1713 58.8628L48.9179 59.2368L45.3494 53.1199L45.2819 53.004L45.3332 52.8772C46.1204 50.9277 46.4634 48.803 46.3306 46.7034C46.162 44.6108 45.6058 42.526 44.532 40.7067C43.4785 38.8834 42.0204 37.2958 40.2919 36.0819C38.5589 34.8705 36.532 34.0911 34.439 33.7698C32.3442 33.4544 30.1694 33.606 28.1362 34.2423C26.106 34.8871 24.2251 35.9992 22.6711 37.4666C19.5412 40.4009 17.9374 44.8358 18.3678 49.1066C18.6817 51.6927 19.6441 54.2165 21.2705 56.2582Z" fill="#263238"/>
<path d="M32.622 62.0027C32.2705 62.0027 31.9186 61.9813 31.5744 61.9606L31.2373 61.9411C30.1472 61.8105 28.7315 61.5881 27.3911 61.0244C26.0997 60.5161 24.9418 59.8713 23.9521 59.1093C23.5622 58.8463 23.2081 58.5231 22.8658 58.2107C22.7286 58.0857 22.5917 57.961 22.4523 57.8393C22.3166 57.688 22.1856 57.5486 22.0547 57.4088C21.7419 57.0753 21.4184 56.7304 21.152 56.3435C19.5843 54.3472 18.5884 51.847 18.276 49.1177C17.8101 44.7976 19.446 40.2841 22.5452 37.3372C24.1019 35.8186 26.0038 34.6526 28.0451 33.965C30.0875 33.2859 32.3177 33.0797 34.4947 33.3685C36.7009 33.6673 38.8061 34.4574 40.5822 35.6529C42.4047 36.8754 43.9492 38.5202 45.0488 40.4091C47.2605 44.1922 47.6183 48.9824 45.996 52.9562L49.7876 59.5589L42.1384 58.3844C40.1683 60.1351 37.7684 61.3055 35.1882 61.7729C34.525 61.8946 33.8603 61.9636 33.2129 61.9783C33.0174 61.996 32.8197 62.0027 32.622 62.0027ZM30.2586 61.6176C30.5714 61.6688 30.902 61.7153 31.2531 61.7577L31.5855 61.7769C32.1166 61.809 32.6662 61.8426 33.203 61.795C33.847 61.7802 34.5017 61.712 35.1554 61.5921C37.6522 61.1399 39.9779 60.0204 41.9009 58.3483L41.6213 58.3055C39.7769 59.9241 37.5456 61.0277 35.1391 61.5073C34.4896 61.6382 33.8378 61.7175 33.2018 61.743C32.6688 61.799 32.1236 61.7758 31.5962 61.7537L31.2557 61.74C30.947 61.7076 30.6117 61.6692 30.2586 61.6176ZM18.4597 49.0989C18.7861 51.7865 19.7828 54.2428 21.3424 56.2007L21.3461 56.2055C21.6057 56.5774 21.9248 56.9134 22.2336 57.238C22.3663 57.3778 22.4991 57.5176 22.6279 57.6603C22.7614 57.774 22.9001 57.8986 23.0392 58.0237C23.3763 58.3269 23.7249 58.6404 24.107 58.8946C25.0554 59.6216 26.1974 60.2373 27.5069 60.7275C28.8193 61.2535 30.2066 61.446 31.2686 61.5556L31.6043 61.5689C32.1247 61.591 32.6633 61.6139 33.1886 61.5585C33.8204 61.5331 34.4626 61.4553 35.1026 61.3262C37.629 60.8227 39.9599 59.622 41.8437 57.854L41.9455 57.7581L48.4818 58.6736L45.179 53.0119L45.2472 52.8433C46.027 50.9126 46.3701 48.7917 46.2384 46.7101C46.0573 44.4597 45.4564 42.4552 44.4523 40.7548C43.411 38.9525 41.9543 37.3634 40.2387 36.1583C38.5556 34.9816 36.5453 34.1874 34.425 33.8617C32.3228 33.5449 30.1572 33.7072 28.1635 34.3309C26.1554 34.9687 24.2778 36.0764 22.7341 37.5342C19.6681 40.4084 18.0303 44.8392 18.4593 49.0974C18.4597 49.0982 18.4597 49.0982 18.4597 49.0989ZM49.0182 59.2542L49.4376 59.3188L49.2251 58.9492L49.0182 59.2542ZM42.3158 58.2255L48.8016 59.221L48.6002 58.8761L42.5346 58.0266L42.3158 58.2255ZM48.8334 58.909L48.9241 59.0643L49.0126 58.9337L48.8334 58.909ZM48.715 58.7061L49.1181 58.7625L45.9071 53.1709L45.7766 53.4785L45.7072 52.4527L45.8798 52.7533C47.4184 48.8584 47.0488 44.1952 44.8902 40.5028C43.8046 38.6378 42.2797 37.0137 40.48 35.8068C38.7271 34.6268 36.6489 33.847 34.4707 33.5522C32.3214 33.2667 30.12 33.4704 28.1041 34.1406C27.8215 34.2358 27.5416 34.3401 27.2649 34.4538C27.543 34.3453 27.8245 34.2461 28.1085 34.1557C30.1288 33.5235 32.3225 33.3593 34.453 33.6802C36.6013 34.01 38.6386 34.8149 40.345 36.0078C42.0823 37.228 43.5578 38.8374 44.612 40.6622C45.6301 42.3863 46.2395 44.4173 46.4228 46.6972C46.5563 48.8079 46.2092 50.9565 45.4191 52.913L45.3848 52.9979L45.4294 53.0746L48.715 58.7061ZM42.0082 57.9529L41.9706 57.9883C41.8603 58.0919 41.7481 58.1937 41.6345 58.2933L42.5106 58.0233L42.0082 57.9529Z" fill="#263238"/>
<path d="M30.709 55.6364L24.6562 49.5091L26.6898 47.5002L30.2254 51.079L37.5714 39.5626L39.982 41.0996L30.709 55.6364Z" fill="#7D7DDE"/>
<path d="M24.004 167.769C67.7053 167.543 116.729 167.542 160.429 167.769C116.729 167.997 67.7053 167.995 24.004 167.769Z" fill="#263238"/>
</svg>
