<svg width="185" height="185" viewBox="0 0 185 185" fill="none" xmlns="http://www.w3.org/2000/svg">
<path d="M89.9767 146.745C89.946 146.749 89.9151 146.749 89.8845 146.745C89.837 146.733 89.7925 146.712 89.7534 146.683C89.7142 146.653 89.6814 146.616 89.6567 146.574C89.6319 146.532 89.6159 146.485 89.6094 146.437C89.6029 146.388 89.6061 146.339 89.6189 146.292C92.2009 136.572 92.0829 126.262 91.9796 116.292C91.9501 113.278 91.9169 110.157 91.9612 107.103C91.9944 104.713 92.0718 102.282 92.153 99.9324C92.2747 96.2622 92.4001 92.4628 92.3485 88.7336C92.1419 74.4178 88.8221 60.0578 85.6056 46.1699L84.9416 43.2817C84.9307 43.2344 84.9292 43.1855 84.9372 43.1377C84.9452 43.0899 84.9625 43.0441 84.9882 43.003C85.0139 42.9619 85.0474 42.9262 85.0869 42.8981C85.1264 42.87 85.171 42.8499 85.2183 42.839C85.2655 42.8281 85.3144 42.8266 85.3622 42.8346C85.4101 42.8426 85.4558 42.8599 85.4969 42.8856C85.5381 42.9113 85.5737 42.9448 85.6018 42.9843C85.63 43.0238 85.65 43.0684 85.6609 43.1157L86.3249 46.0039C89.5488 59.9287 92.8797 74.3293 93.0862 88.7225C93.1379 92.4702 93.0125 96.2769 92.8907 99.9582C92.8096 102.304 92.7321 104.728 92.6989 107.114C92.6547 110.161 92.6989 113.274 92.7174 116.284C92.8206 126.303 92.9276 136.664 90.3345 146.48C90.312 146.557 90.2648 146.625 90.2002 146.673C90.1356 146.721 90.0571 146.746 89.9767 146.745Z" fill="#455A64"/>
<path d="M92.3338 80.1094C92.291 80.1094 92.2486 80.1019 92.2084 80.0873C92.1164 80.054 92.0415 79.9855 92 79.897C91.9585 79.8085 91.9538 79.7071 91.987 79.6151C93.2522 76.1035 93.6396 72.0275 94.0121 68.088C94.5507 62.4074 95.1187 56.5351 98.2578 51.9426C98.3136 51.8633 98.3985 51.8091 98.494 51.7918C98.5895 51.7745 98.6879 51.7956 98.768 51.8504C98.8481 51.9053 98.9033 51.9895 98.9217 52.0847C98.9401 52.18 98.9203 52.2787 98.8664 52.3595C95.8233 56.7859 95.2773 62.5697 94.7462 68.1581C94.3773 72.1455 93.9789 76.2732 92.6805 79.866C92.6547 79.9372 92.6076 79.9989 92.5456 80.0424C92.4835 80.086 92.4096 80.1094 92.3338 80.1094Z" fill="#455A64"/>
<path d="M91.3599 139.958C91.2863 139.958 91.2144 139.937 91.1533 139.896C91.0726 139.84 91.0172 139.755 90.9992 139.659C90.9812 139.563 91.0022 139.464 91.0574 139.383C92.3743 137.457 95.3142 134.064 97.7487 131.666C97.8197 131.606 97.9107 131.575 98.0035 131.579C98.0964 131.584 98.1842 131.623 98.2494 131.689C98.3146 131.755 98.3525 131.843 98.3554 131.936C98.3583 132.029 98.3261 132.12 98.2651 132.19C95.8601 134.562 92.9608 137.904 91.6661 139.8C91.6318 139.849 91.586 139.889 91.5327 139.917C91.4793 139.945 91.42 139.959 91.3599 139.958Z" fill="#455A64"/>
<path d="M92.0828 132.297C91.9933 132.298 91.9066 132.266 91.8387 132.208C91.7708 132.149 91.7265 132.068 91.714 131.98C89.9984 119.941 86.4741 108.23 81.2602 97.2433C81.2184 97.1553 81.2132 97.0542 81.2457 96.9623C81.2782 96.8703 81.3457 96.795 81.4336 96.7527C81.4772 96.7313 81.5246 96.7187 81.573 96.7157C81.6215 96.7126 81.6701 96.7192 81.716 96.735C81.7619 96.7507 81.8043 96.7754 81.8406 96.8076C81.877 96.8397 81.9066 96.8788 81.9279 96.9224C87.1721 107.978 90.7175 119.762 92.4443 131.876C92.458 131.973 92.4327 132.072 92.3739 132.15C92.3151 132.228 92.2276 132.279 92.1308 132.293L92.0828 132.297Z" fill="#455A64"/>
<path d="M97.6048 132.23C97.6048 132.23 106.897 138.501 119.298 127.502C130.493 117.564 131.935 111.319 133.61 102.312C133.61 102.312 122.518 101.275 111.88 107.38C102.326 112.861 98.3315 118.103 96.8892 123.529C95.4285 129.032 97.6048 132.23 97.6048 132.23Z" fill="#455A64"/>
<g opacity="0.1">
<path d="M102.146 114.61C99.2684 117.561 97.6933 120.512 96.8929 123.529C95.4174 129.036 97.6085 132.23 97.6085 132.23C97.6085 132.23 106.044 137.933 117.583 128.933L101.415 128.169L102.146 114.61Z" fill="black"/>
<path d="M116.317 105.226C114.794 105.841 113.315 106.561 111.891 107.38C111.323 107.704 110.777 108.029 110.253 108.354L108.106 121.175L125.687 121.061C127.258 119.22 128.626 117.215 129.77 115.082L116.531 114.219L116.317 105.226Z" fill="black"/>
<path d="M126.295 102.61L125.672 107.649L132.474 107.741C132.909 106.015 133.252 104.226 133.61 102.308C131.168 102.159 128.717 102.261 126.295 102.61Z" fill="black"/>
</g>
<path opacity="0.1" d="M102.146 114.61C101.337 115.436 100.588 116.32 99.9066 117.254L99.2279 129.814L115.392 130.493C116.107 130.032 116.838 129.516 117.583 128.933L101.415 128.169L102.146 114.61Z" fill="black"/>
<path d="M98.3389 132.64C98.3389 132.64 108.512 118.309 133.595 102.312C133.595 102.312 105.325 118.988 97.1511 131.371L97.5901 132.23L98.3389 132.64Z" fill="#7D7DDE"/>
<path opacity="0.4" d="M98.3389 132.64C98.3389 132.64 108.512 118.309 133.595 102.312C133.595 102.312 105.325 118.988 97.1511 131.371L97.5901 132.23L98.3389 132.64Z" fill="black"/>
<path d="M82.6914 138.759C82.6914 138.759 91.1016 131.338 83.5509 116.576C76.7342 103.249 71.05 100.287 62.7467 96.4097C62.7467 96.4097 58.9659 106.889 62.2082 118.719C65.1223 129.339 69.1982 134.517 74.0894 137.273C79.0581 140.08 82.6914 138.759 82.6914 138.759Z" fill="#455A64"/>
<g opacity="0.1">
<path d="M66.7784 129.962C68.9289 133.488 71.3893 135.753 74.1005 137.284C79.0617 140.08 82.7025 138.759 82.7025 138.759C82.7025 138.759 90.338 132.017 84.5136 118.597L79.7183 134.056L66.7784 129.962Z" fill="black"/>
<path d="M61.2418 113.894C61.4564 115.526 61.783 117.142 62.2193 118.73C62.3927 119.361 62.5661 119.969 62.7505 120.574L74.6243 125.849L78.918 108.796C77.5293 106.815 75.9315 104.988 74.1522 103.348L70.0024 115.949L61.2418 113.894Z" fill="black"/>
<path d="M61.2123 103.577L65.9375 105.443L67.7302 98.8811C66.1699 98.029 64.521 97.247 62.7541 96.4208C61.9994 98.7478 61.4828 101.145 61.2123 103.577Z" fill="black"/>
</g>
<path opacity="0.1" d="M66.7786 129.962C67.3755 130.954 68.045 131.901 68.7815 132.795L80.7697 136.598L85.4765 121.105C85.2072 120.294 84.89 119.457 84.5137 118.593L79.7185 134.053L66.7786 129.962Z" fill="black"/>
<path d="M83.2816 138.162C83.2816 138.162 71.9574 124.742 62.7726 96.4208C62.7726 96.4208 71.8394 127.966 81.7803 138.981L82.6915 138.759L83.2816 138.162Z" fill="#7D7DDE"/>
<path opacity="0.4" d="M83.2816 138.162C83.2816 138.162 71.9574 124.742 62.7726 96.4208C62.7726 96.4208 71.8394 127.966 81.7803 138.981L82.6915 138.759L83.2816 138.162Z" fill="black"/>
<path d="M85.9191 142.249C85.9191 142.249 80.9726 148.889 69.7995 144.783C58.6265 140.678 52.9902 130.644 51.8209 127.657C51.8209 127.657 60.2053 124.086 69.5635 126.716C78.9217 129.346 85.0375 133.389 85.9191 142.249Z" fill="#37474F"/>
<g opacity="0.1">
<path d="M76.5278 129.287C77.1106 129.575 77.6786 129.884 78.2172 130.205C82.6067 132.824 85.3548 136.531 85.9228 142.249C85.9228 142.249 81.6145 148.025 71.9612 145.465C71.489 145.344 71.0095 145.204 70.5189 145.034L82.0276 140.135L76.5278 129.287Z" fill="black"/>
<path d="M61.511 125.764C63.9664 125.685 66.421 125.94 68.8073 126.524L74.8788 136.546L63.846 141.762C62.1196 140.623 60.5064 139.321 59.0286 137.874L67.8814 133.673L61.511 125.764Z" fill="black"/>
<path d="M51.8209 127.656C53.2883 127.082 54.806 126.645 56.3543 126.351C56.7859 126.266 57.258 126.181 57.7523 126.107L61.7545 131.161L55.6129 134.023C55.3473 133.68 55.1002 133.341 54.8751 133.001C53.6599 131.34 52.6354 129.547 51.8209 127.656Z" fill="black"/>
</g>
<g opacity="0.1">
<path d="M76.5277 129.287C77.1105 129.575 77.6785 129.884 78.2171 130.205L83.5177 140.711L71.9611 145.465C71.4889 145.344 71.0094 145.204 70.5188 145.034L82.0275 140.135L76.5277 129.287Z" fill="black"/>
<path d="M56.3543 126.351C56.7859 126.266 57.258 126.181 57.7523 126.107L61.7545 131.161L55.6129 134.023C55.3473 133.68 55.1001 133.341 54.8751 133.001L59.9434 130.578L56.3543 126.351Z" fill="black"/>
</g>
<path d="M85.4986 142.725C85.4986 142.725 77.2581 137.085 51.8209 127.657C51.8209 127.657 72.7505 133.621 85.8379 141.57L85.9191 142.249L85.4986 142.725Z" fill="#7D7DDE"/>
<path opacity="0.4" d="M85.4986 142.725C85.4986 142.725 77.2581 137.085 51.8209 127.657C51.8209 127.657 72.7505 133.621 85.8379 141.57L85.9191 142.249L85.4986 142.725Z" fill="black"/>
<path d="M101.828 52.4443C101.828 52.4443 114.104 49.5635 125.749 58.7151C125.749 58.7151 121.389 44.7608 108.247 47.6786C104.772 48.4421 101.828 52.4443 101.828 52.4443Z" fill="#37474F"/>
<path d="M101.828 52.4443C101.828 52.4443 111.091 49.4602 125.749 58.7151C125.749 58.7151 121.017 47.9626 112.393 47.365C104.399 46.808 101.828 52.4443 101.828 52.4443Z" fill="#455A64"/>
<g opacity="0.1">
<path d="M116.956 48.6929L110.006 52.3226C112.321 52.7088 114.591 53.3267 116.782 54.1669L121.703 52.5513C120.363 50.993 118.755 49.6864 116.956 48.6929Z" fill="black"/>
<path d="M121.028 56.0371C122.533 56.7748 124.108 57.6712 125.749 58.7077C125.219 57.5716 124.602 56.4778 123.905 55.4359L121.028 56.0371Z" fill="black"/>
<path d="M101.832 52.4443C101.832 52.4443 103.407 51.9316 106.295 51.9906L110.268 47.3687C103.938 47.8187 101.832 52.4443 101.832 52.4443Z" fill="black"/>
</g>
<g opacity="0.1">
<path d="M108.704 47.5716L105.384 51.998C105.672 51.998 105.974 51.998 106.299 51.998L110.272 47.3761C109.746 47.4079 109.222 47.4732 108.704 47.5716Z" fill="black"/>
<path d="M115.797 53.8092L116.782 54.178L121.703 52.5624C121.467 52.2968 121.22 52.0312 120.965 51.773L115.797 53.8092Z" fill="black"/>
</g>
<path d="M125.749 58.7151C125.749 58.7151 113.488 49.984 101.828 52.4444L101.998 53.2596C101.998 53.2596 111.832 50.6 125.749 58.7151Z" fill="#7D7DDE"/>
<path opacity="0.4" d="M101.832 52.4443L101.998 53.2558C101.998 53.2558 111.832 50.6 125.749 58.7151C125.749 58.7151 113.488 49.9803 101.832 52.4443Z" fill="black"/>
<path d="M98.3426 52.3484C98.3426 52.3484 104.709 56.133 112.455 48.3868C119.464 41.4041 120.161 37.2322 120.917 31.2307C115.91 31.2777 111.016 32.7268 106.79 35.4137C100.703 39.3938 98.2725 43.005 97.5347 46.6384C96.797 50.2717 98.3426 52.3484 98.3426 52.3484Z" fill="#37474F"/>
<g opacity="0.1">
<path d="M100.652 40.5594C99.0943 42.2765 98.0189 44.375 97.5347 46.642C96.797 50.3307 98.3426 52.3484 98.3426 52.3484C98.3426 52.3484 104.126 55.7826 111.382 49.3975L100.685 49.5229L100.652 40.5594Z" fill="black"/>
<path d="M109.619 33.8239C108.636 34.2898 107.686 34.8222 106.775 35.4174C106.406 35.6535 106.067 35.8859 105.735 36.1219L104.824 44.6538L116.406 43.9161C117.372 42.6442 118.197 41.2713 118.866 39.8217L110.109 39.7627L109.619 33.8239Z" fill="black"/>
<path d="M116.104 31.7176L115.89 35.0633L120.375 34.8604C120.596 33.7058 120.744 32.5107 120.917 31.2344C119.301 31.2317 117.688 31.3936 116.104 31.7176Z" fill="black"/>
</g>
<path opacity="0.1" d="M100.652 40.5594C100.149 41.139 99.6902 41.7555 99.2795 42.4038L99.3164 50.707L109.995 50.5299C110.453 50.1979 110.914 49.8291 111.382 49.4233L100.685 49.5487L100.652 40.5594Z" fill="black"/>
<path d="M98.8405 52.5882C98.8405 52.5882 104.993 42.7505 120.917 31.2344C120.917 31.2344 102.928 43.3222 98.0179 51.7988L98.3425 52.3484L98.8405 52.5882Z" fill="#7D7DDE"/>
<path opacity="0.4" d="M98.8405 52.5882C98.8405 52.5882 104.993 42.7505 120.917 31.2344C120.917 31.2344 102.928 43.3222 98.0179 51.7988L98.3425 52.3484L98.8405 52.5882Z" fill="black"/>
<path d="M85.4396 43.4329C85.4396 43.4329 79.6742 45.8527 74.0047 38.8958C68.3352 31.939 68.5012 23.2521 68.8848 20.8619C68.8848 20.8619 75.7089 21.7545 80.7845 27.0589C85.8601 32.3632 88.2651 37.3208 85.4396 43.4329Z" fill="#455A64"/>
<g opacity="0.1">
<path d="M84.3071 31.4189C84.5764 31.832 84.8272 32.2488 85.0448 32.6657C86.8892 36.0556 87.258 39.5192 85.4137 43.455C85.4137 43.455 80.3971 45.5576 75.1038 40.1906C74.8419 39.9287 74.5837 39.652 74.3329 39.3532L83.6948 40.5853L84.3071 31.4189Z" fill="black"/>
<path d="M75.8969 23.348C77.5226 24.2402 79.0192 25.3496 80.3455 26.6457L80.4451 35.4985L71.2566 34.6538C70.5687 33.251 70.019 31.7846 69.6151 30.2754L76.9925 30.9467L75.8969 23.348Z" fill="black"/>
<path d="M68.8663 20.8619C70.0413 21.0511 71.196 21.35 72.3152 21.7545C72.6288 21.8652 72.9681 21.9869 73.3185 22.1234L73.9825 26.9445L68.8921 26.4502C68.8479 26.1256 68.8184 25.8084 68.7925 25.4949C68.6439 23.9526 68.6686 22.3986 68.8663 20.8619Z" fill="black"/>
</g>
<g opacity="0.1">
<path d="M84.3072 31.4189C84.5765 31.832 84.8273 32.2488 85.0449 32.6657L84.4621 41.5185L75.1224 40.1795C74.8605 39.9176 74.6023 39.641 74.3514 39.3422L83.7133 40.5742L84.3072 31.4189Z" fill="black"/>
<path d="M72.3153 21.7545C72.6288 21.8652 72.9682 21.9869 73.3186 22.1234L73.9826 26.9445L68.8922 26.4502C68.8479 26.1256 68.8184 25.8084 68.7926 25.4948L73.0161 25.8637L72.3153 21.7545Z" fill="black"/>
</g>
<path d="M84.9822 43.5915C84.9822 43.5915 81.7878 36.7638 68.8663 20.8729C68.8663 20.8729 80.1869 32.7837 85.6461 42.9718L85.4396 43.444L84.9822 43.5915Z" fill="#7D7DDE"/>
<path opacity="0.4" d="M84.9822 43.5915C84.9822 43.5915 81.7878 36.7638 68.8663 20.8729C68.8663 20.8729 80.1869 32.7837 85.6461 42.9718L85.4396 43.444L84.9822 43.5915Z" fill="black"/>
<path d="M82.4555 97.0774C82.4555 97.0774 74.5949 84.0895 56.9114 81.7878C56.9114 81.7878 72.5846 73.7833 81.146 87.5421C83.4293 91.1755 82.4555 97.0774 82.4555 97.0774Z" fill="#37474F"/>
<path d="M82.4555 97.0774C82.4555 97.0774 77.2212 86.5978 56.9114 81.7878C56.9114 81.7878 70.1464 76.8007 77.9368 83.717C85.1298 90.1316 82.4555 97.0774 82.4555 97.0774Z" fill="#37474F"/>
<g opacity="0.1">
<path d="M72.9312 80.921L75.683 89.9582C73.4005 88.2939 70.9576 86.8617 68.3905 85.6831L65.635 80.091C68.097 79.9346 70.5673 80.2156 72.9312 80.921Z" fill="black"/>
<path d="M63.1858 83.6063C61.1271 82.8983 59.0342 82.2938 56.915 81.7952C58.3436 81.2937 59.8087 80.9027 61.2972 80.6259L63.1858 83.6063Z" fill="black"/>
<path d="M82.4554 97.0774C82.4554 97.0774 81.5628 95.2884 79.084 92.8575L79.7111 85.5429C84.6465 91.3821 82.4554 97.0774 82.4554 97.0774Z" fill="black"/>
</g>
<g opacity="0.1">
<path d="M80.8472 87.0736L79.8586 93.6506C79.6225 93.396 79.3643 93.1378 79.084 92.8686L79.7111 85.5539C80.1207 86.0366 80.5001 86.5441 80.8472 87.0736Z" fill="black"/>
<path d="M69.5081 86.229C69.1393 86.0445 68.7704 85.8601 68.372 85.683L65.6166 80.091C66.0445 80.0725 66.4797 80.0578 66.9224 80.0615L69.5081 86.229Z" fill="black"/>
</g>
<path d="M56.9114 81.7951C56.9114 81.7951 74.7461 84.9858 82.4555 97.0847L81.6108 97.6269C81.6108 97.6269 75.6204 86.9482 56.9114 81.7951Z" fill="#7D7DDE"/>
<path opacity="0.4" d="M82.4554 97.0773L81.6144 97.6196C81.6144 97.6196 75.624 86.9224 56.9003 81.7878C56.9076 81.7951 74.7461 84.9895 82.4554 97.0773Z" fill="black"/>
<path d="M129.969 140.663H55.3326V149.796H129.969V140.663Z" fill="#7D7DDE"/>
<path opacity="0.2" d="M129.969 140.663H55.3326V149.796H129.969V140.663Z" fill="black"/>
<path d="M124.433 176.281H60.8693L59.2316 149.796H126.07L124.433 176.281Z" fill="#7D7DDE"/>
<path opacity="0.2" d="M124.433 176.281H60.8693L59.2316 149.796H126.07L124.433 176.281Z" fill="black"/>
<path opacity="0.1" d="M125.602 157.384L59.464 153.529L59.2316 149.796H126.07L125.602 157.384Z" fill="black"/>
<path d="M125.259 162.924L124.827 169.921H60.4745L60.043 162.924H125.259Z" fill="#7D7DDE"/>
<path d="M124.654 172.681L124.554 174.329H60.7475L60.6479 172.681H124.654Z" fill="#7D7DDE"/>
<path d="M74.8458 105.27L67.0995 119.423C65.6056 122.12 64.3441 124.514 63.8055 125.812C63.8036 125.818 63.8036 125.825 63.8055 125.831C63.646 126.121 63.5563 126.444 63.5436 126.775C63.5416 126.783 63.5416 126.792 63.5436 126.801C64.0453 127.789 85.2552 140.357 86.1405 140.545C87.0258 140.733 87.6381 138.221 87.2028 137.077C86.7676 135.934 80.7993 127.487 80.7993 127.487L88.398 113.274L74.8458 105.27Z" fill="#F7A9A0"/>
<path d="M67.8815 118L67.1032 119.423C65.6093 122.12 64.3477 124.514 63.8092 125.812C63.8072 125.818 63.8072 125.825 63.8092 125.831C63.6856 126.134 63.5977 126.451 63.5473 126.775C63.5453 126.783 63.5453 126.792 63.5473 126.801C64.049 127.789 85.2589 140.357 86.1441 140.545C87.0294 140.733 87.6418 138.221 87.2065 137.077C86.7712 135.934 80.8029 127.487 80.8029 127.487L81.6071 125.986L67.8815 118Z" fill="#EBEBEB"/>
<path d="M86.0778 140.644C85.1888 140.456 63.9715 127.911 63.4662 126.922C63.267 126.554 64.9158 123.348 67.0184 119.545L67.0847 119.427L80.9284 127.266L80.7993 127.491C80.7993 127.491 87.0995 136.111 87.5385 137.258C87.9774 138.405 86.963 140.836 86.0778 140.644Z" fill="#7D7DDE"/>
<path opacity="0.1" d="M86.0777 140.644C85.7505 140.515 85.4336 140.361 85.1297 140.183L81.5591 128.531C83.2448 130.858 87.1954 136.354 87.5384 137.254C87.9737 138.391 86.963 140.836 86.0777 140.644Z" fill="black"/>
<path d="M86.3249 139.682C82.7986 137.468 68.3758 128.925 64.724 127.018C64.6908 127.018 64.6798 127.018 64.724 127.041C68.1692 129.298 82.6621 137.738 86.3028 139.741C86.3803 139.781 86.3987 139.726 86.3249 139.682Z" fill="white"/>
<path d="M81.8469 128.313C80.5964 127.206 78.7447 126.417 77.0774 126.786C77.0147 126.786 77.0331 126.889 77.0774 126.904C78.6792 127.264 80.2375 127.796 81.7251 128.49C81.7486 128.506 81.7775 128.512 81.8056 128.507C81.8336 128.502 81.8584 128.486 81.8745 128.462C81.8907 128.439 81.8968 128.41 81.8916 128.382C81.8864 128.354 81.8703 128.329 81.8469 128.313Z" fill="#263238"/>
<path d="M82.5035 129.538C81.2493 128.431 79.4013 127.642 77.7303 128.011C77.6676 128.011 77.6898 128.114 77.7303 128.129C79.3327 128.489 80.8921 129.019 82.3818 129.711C82.4047 129.727 82.4332 129.734 82.4609 129.729C82.4885 129.724 82.5132 129.708 82.5293 129.685C82.5454 129.662 82.5518 129.634 82.5469 129.606C82.5421 129.578 82.5265 129.554 82.5035 129.538Z" fill="#263238"/>
<path d="M83.1563 130.74C81.9022 129.634 80.0542 128.844 78.3869 129.209C78.3205 129.209 78.3426 129.316 78.3869 129.327C79.988 129.69 81.5461 130.221 83.0346 130.914C83.046 130.922 83.0588 130.927 83.0724 130.93C83.086 130.933 83.1 130.934 83.1137 130.931C83.1274 130.929 83.1405 130.924 83.1523 130.916C83.164 130.909 83.1742 130.899 83.1822 130.888C83.1902 130.876 83.1958 130.864 83.1989 130.85C83.2019 130.836 83.2022 130.822 83.1998 130.809C83.1974 130.795 83.1923 130.782 83.1849 130.77C83.1774 130.758 83.1677 130.748 83.1563 130.74Z" fill="#263238"/>
<path d="M86.8524 140.076C87.1438 140.445 86.3065 141.673 85.9745 141.614C85.6425 141.555 62.5661 127.775 62.2231 127.454C61.88 127.133 62.8612 125.808 63.3592 126.004C63.8572 126.199 86.8524 140.076 86.8524 140.076Z" fill="#263238"/>
<path d="M69.1837 123.872C68.0992 122.194 65.495 123.872 66.5758 125.554C67.6565 127.236 70.2681 125.554 69.1837 123.872Z" fill="white"/>
<path d="M67.4131 116.679L82.8613 124.927C82.8613 124.927 102.363 97.1364 102.754 89.8365C103.293 79.7516 94.6835 47.7376 94.6835 47.7376L80.9469 47.649C80.9469 47.649 86.5315 80.5705 86.0778 86.1884C85.8417 89.1246 67.4131 116.679 67.4131 116.679Z" fill="#263238"/>
<path d="M84.2114 121.736C83.4146 121.161 76.0963 116.919 70.5153 114.208C70.4784 114.189 70.4526 114.244 70.4895 114.267C72.1789 115.373 83.1084 121.371 84.1708 121.795C84.204 121.81 84.2482 121.762 84.2114 121.736Z" fill="#37474F"/>
<path d="M87.9848 79.1504C87.3467 74.333 86.6458 69.5229 85.8454 64.7277C85.0449 59.9324 84.1928 55.1002 83.1858 50.3234C83.0641 49.7405 82.935 49.1577 82.817 48.5786C82.8135 48.56 82.8029 48.5436 82.7873 48.5328C82.7717 48.5221 82.7526 48.518 82.734 48.5214C82.7154 48.5249 82.6989 48.5355 82.6882 48.5511C82.6775 48.5667 82.6734 48.5858 82.6768 48.6044C83.5252 53.3444 84.392 58.0807 85.174 62.8317C85.956 67.5827 86.679 72.3411 87.3282 77.1105C87.4905 78.2909 87.6491 79.475 87.8004 80.6554C87.9953 81.8767 88.1185 83.1083 88.1692 84.344C88.19 85.5193 87.9898 86.688 87.579 87.7893C87.1445 88.8682 86.6149 89.9063 85.9966 90.8915C83.5141 95.0929 72.3854 113.462 72.0977 113.997C72.0977 114.034 72.1272 114.067 72.1493 114.034C74.8199 109.892 83.1047 96.6569 85.624 92.3854C86.7602 90.4599 88.0623 88.5086 88.4348 86.2585C88.7889 83.9125 88.291 81.4706 87.9848 79.1504Z" fill="#37474F"/>
<path d="M83.9125 115.089C83.9125 115.089 84.2334 131.209 84.2334 131.22C84.2813 134.304 84.3736 137.007 84.5543 138.398C84.5526 138.405 84.5526 138.413 84.5543 138.42C84.5604 138.752 84.6438 139.078 84.7978 139.372C85.7273 139.98 110.375 140.335 111.238 140.054C112.101 139.774 111.382 137.295 110.434 136.517C109.486 135.738 100.106 131.386 100.106 131.386L99.6594 115.292L83.9125 115.089Z" fill="#F7A9A0"/>
<path d="M84.204 129.6C84.204 129.6 84.2335 131.209 84.2335 131.22C84.2814 134.304 84.3737 137.007 84.5544 138.398C84.5527 138.405 84.5527 138.413 84.5544 138.42C84.5967 138.746 84.6785 139.066 84.7979 139.372C85.7274 139.98 110.375 140.335 111.238 140.054C112.101 139.774 111.382 137.295 110.434 136.517C109.486 135.738 100.106 131.386 100.106 131.386L100.054 129.682L84.204 129.6Z" fill="#EBEBEB"/>
<path d="M111.249 140.194C110.386 140.471 85.7385 140.143 84.8089 139.534C84.44 139.309 84.2925 135.713 84.2224 131.364V131.227L100.264 131.264L100.471 131.533C100.471 131.533 109.693 135.783 110.63 136.557C111.567 137.332 112.116 139.918 111.249 140.194Z" fill="#7D7DDE"/>
<path d="M110.984 139.232C106.83 139.077 90.0653 138.833 85.9487 138.992C85.9118 138.992 85.9118 139.018 85.9487 139.018C90.0653 139.265 106.83 139.387 110.987 139.302C111.072 139.302 111.072 139.235 110.984 139.232Z" fill="white"/>
<path d="M101.449 131.6C99.8182 131.271 97.8152 131.496 96.55 132.644C96.502 132.688 96.55 132.758 96.6201 132.743C98.189 132.26 99.8053 131.945 101.441 131.806C101.455 131.807 101.468 131.805 101.481 131.8C101.494 131.795 101.505 131.788 101.515 131.779C101.525 131.769 101.533 131.758 101.539 131.746C101.545 131.734 101.548 131.72 101.548 131.707C101.549 131.693 101.546 131.68 101.542 131.667C101.537 131.654 101.53 131.642 101.521 131.633C101.511 131.623 101.5 131.615 101.488 131.609C101.475 131.603 101.462 131.6 101.449 131.6Z" fill="#263238"/>
<path d="M102.61 132.326C100.98 131.998 98.9771 132.223 97.7119 133.37C97.6639 133.415 97.7303 133.485 97.782 133.47C99.3534 132.986 100.972 132.672 102.61 132.533C102.638 132.533 102.664 132.522 102.683 132.503C102.703 132.483 102.714 132.457 102.714 132.43C102.714 132.402 102.703 132.376 102.683 132.357C102.664 132.337 102.638 132.326 102.61 132.326Z" fill="#263238"/>
<path d="M103.791 133.053C102.16 132.725 100.157 132.95 98.8923 134.101C98.8406 134.145 98.8922 134.211 98.9586 134.197C100.528 133.713 102.144 133.399 103.78 133.26C103.807 133.261 103.834 133.252 103.854 133.233C103.875 133.215 103.887 133.189 103.889 133.162C103.89 133.134 103.881 133.108 103.862 133.087C103.844 133.067 103.818 133.054 103.791 133.053Z" fill="#263238"/>
<path d="M111.64 139.313C112.079 139.49 111.961 140.969 111.64 141.083C111.319 141.198 84.4474 140.714 83.9753 140.615C83.5031 140.515 83.7134 138.866 84.2446 138.793C84.7757 138.719 111.64 139.313 111.64 139.313Z" fill="#263238"/>
<path d="M88.2542 134.045C86.4762 133.127 85.0487 135.89 86.8266 136.801C88.6046 137.712 90.0284 134.964 88.2542 134.045Z" fill="white"/>
<path d="M94.4954 47.7081C94.4068 47.9884 89.4677 61.5148 89.0029 61.7251C88.4791 61.9648 99.9067 81.1644 100.585 90.0836C101.017 95.79 100.169 128.077 100.169 128.077H83.4662C83.4662 128.077 84.2704 99.0545 84.6503 89.8586C84.7978 86.2917 73.1785 68.5381 73.0346 57.4831C72.9904 53.9973 75.495 47.6306 75.495 47.6306L94.4954 47.7081Z" fill="#263238"/>
<path d="M84.7461 89.6262C84.7461 89.4787 84.6318 89.4307 84.6207 89.5819C84.2518 94.558 84.1523 99.5082 83.9162 104.492C83.6801 109.475 83.8129 110.663 83.5916 115.631C83.4662 118.446 83.5916 121.268 83.5215 124.082C83.5215 124.091 83.525 124.099 83.5312 124.106C83.5374 124.112 83.5459 124.115 83.5547 124.115C83.5635 124.115 83.5719 124.112 83.5782 124.106C83.5844 124.099 83.5879 124.091 83.5879 124.082C84.108 119.125 84.7424 92.4444 84.7461 89.6262Z" fill="#37474F"/>
<path d="M100.593 90.3013C100.572 89.0735 100.458 87.8491 100.253 86.6384C100.023 85.46 99.6775 84.3072 99.2205 83.1969C98.2984 80.8693 97.2065 78.6008 96.1626 76.3249C95.1187 74.0489 94.0306 71.7214 92.9166 69.4455C92.2895 68.1643 91.6587 66.8855 91.0243 65.6092C90.3825 64.3182 89.689 63.0493 89.0176 61.773C89.0152 61.7677 89.0118 61.7629 89.0075 61.7589C89.0032 61.7549 88.9982 61.7518 88.9927 61.7497C88.9872 61.7477 88.9814 61.7467 88.9756 61.7469C88.9697 61.7471 88.964 61.7485 88.9586 61.7509C88.9533 61.7533 88.9485 61.7568 88.9445 61.761C88.9405 61.7653 88.9374 61.7703 88.9353 61.7758C88.9333 61.7813 88.9323 61.7871 88.9325 61.793C88.9327 61.7988 88.9341 61.8046 88.9365 61.8099C90.0099 64.1116 91.0649 66.4171 92.1383 68.7151C93.2117 71.0132 94.2593 73.326 95.3105 75.6314C96.3618 77.9368 97.3836 80.1758 98.3574 82.4702C98.8437 83.5647 99.2433 84.6957 99.5525 85.8527C99.8269 87.0474 99.9899 88.265 100.039 89.4897C100.202 92.3448 100.283 95.2072 100.563 98.0549C100.563 98.0917 100.622 98.0881 100.626 98.0549C100.711 95.4728 100.67 92.8796 100.593 90.3013Z" fill="#37474F"/>
<path d="M98.966 124.79C97.9922 124.665 90.589 124.422 84.3957 124.672C84.3892 124.675 84.3835 124.679 84.3795 124.684C84.3756 124.69 84.3734 124.697 84.3734 124.704C84.3734 124.711 84.3756 124.717 84.3795 124.723C84.3835 124.729 84.3892 124.733 84.3957 124.735C86.4134 124.916 97.8188 124.993 98.9549 124.864C98.9955 124.857 99.0102 124.798 98.966 124.79Z" fill="#37474F"/>
<path d="M91.3231 60.9947C89.5318 61.4462 87.7829 62.0522 86.0962 62.8058C86.0821 62.8107 86.0704 62.821 86.0638 62.8345C86.0573 62.848 86.0563 62.8636 86.0612 62.8777C86.0661 62.8919 86.0764 62.9036 86.0899 62.9102C86.1034 62.9167 86.1189 62.9177 86.1331 62.9128C87.8852 62.3632 89.6706 61.8504 91.3932 61.2049C91.407 61.2003 91.4198 61.193 91.4307 61.1835C91.4417 61.174 91.4507 61.1624 91.4573 61.1494C91.4638 61.1363 91.4676 61.1222 91.4687 61.1077C91.4697 61.0931 91.4679 61.0786 91.4633 61.0648C91.4587 61.0509 91.4514 61.0382 91.4419 61.0272C91.4323 61.0162 91.4207 61.0072 91.4077 61.0007C91.3947 60.9942 91.3805 60.9903 91.366 60.9893C91.3515 60.9882 91.3369 60.9901 91.3231 60.9947Z" fill="#37474F"/>
<path d="M93.0198 49.5413C93.0198 49.4823 92.9239 49.4565 92.9165 49.5192C92.7247 51.5148 92.4185 53.2595 92.0607 55.1039C91.8911 55.9633 90.707 60.6738 89.2426 60.1721C88.9955 60.0873 88.8922 59.8254 88.8922 59.4344C88.9498 58.9399 89.0674 58.4544 89.2426 57.9884C89.5119 57.0072 89.7479 56.015 89.9361 55.0117C90.2977 53.1491 90.4658 51.2541 90.4377 49.3569C90.4377 49.3442 90.4327 49.332 90.4237 49.323C90.4147 49.314 90.4025 49.309 90.3898 49.309C90.3771 49.309 90.3649 49.314 90.3559 49.323C90.3469 49.332 90.3418 49.3442 90.3418 49.3569C90.1179 51.9669 89.6974 54.5564 89.084 57.1031C88.7668 58.3278 87.9516 60.1352 89.2315 60.4598C90.5115 60.7844 91.714 57.745 91.9648 56.9003C92.6337 54.5033 92.9883 52.0297 93.0198 49.5413Z" fill="#37474F"/>
<path d="M89.2537 60.3049C89.0851 60.6126 88.9384 60.9319 88.8147 61.2603C88.6913 61.511 88.615 61.7824 88.5897 62.0607C88.5897 62.1124 88.6598 62.1271 88.693 62.0939C88.8714 61.8706 89.0156 61.622 89.1209 61.3562C89.2684 61.0611 89.4197 60.766 89.5562 60.4672C89.5668 60.4473 89.5735 60.4256 89.5757 60.4031C89.5779 60.3807 89.5757 60.3581 89.5692 60.3365C89.5627 60.3149 89.552 60.2948 89.5378 60.2774C89.5235 60.2599 89.5059 60.2455 89.4861 60.2348C89.446 60.2133 89.3989 60.2086 89.3554 60.2217C89.3118 60.2349 89.2752 60.2648 89.2537 60.3049Z" fill="#37474F"/>
<path d="M86.4577 94.5359C86.5425 92.1604 86.8081 89.6705 86.0298 87.3761C85.6037 86.2546 85.0932 85.1671 84.5027 84.1227C83.9248 83.0087 83.3567 81.8862 82.7985 80.755C80.5853 76.2474 78.4606 71.666 76.5831 66.9962C75.6793 64.7498 74.8678 62.4407 74.5469 60.0283C74.2481 57.4928 74.4055 54.9243 75.0117 52.4443C75.1519 51.8246 75.3031 51.2086 75.4728 50.6C75.4728 50.5557 75.4174 50.5299 75.4027 50.5779C74.6114 52.916 74.1726 55.3588 74.1006 57.8261C74.1151 60.1907 74.5407 62.5347 75.3584 64.7535C76.1589 67.0847 77.1622 69.3533 78.1508 71.6107C79.1688 73.9395 80.2262 76.2486 81.323 78.5381C82.4296 80.8177 83.5842 83.0567 84.7387 85.3068C85.334 86.3749 85.7654 87.5263 86.0187 88.7225C86.1982 89.9595 86.2452 91.2122 86.1589 92.4591C85.9597 97.7155 85.506 115.207 85.4211 120.449L85.399 122.444C85.399 122.503 85.4875 122.511 85.4912 122.444C85.8416 117.225 86.2695 99.7738 86.4577 94.5359Z" fill="#37474F"/>
<path d="M82.71 51.1127C82.71 51.0721 82.651 51.0795 82.6473 51.1127C82.4481 52.5587 82.3374 54.0636 81.6403 55.3694C80.9984 56.5719 79.8808 57.3503 78.6635 57.8925C77.9549 58.2033 77.231 58.4778 76.4945 58.7151C76.4392 58.7335 76.454 58.8147 76.4945 58.8036C77.8778 58.5159 79.2832 58.195 80.482 57.4166C81.7694 56.5867 82.4296 55.2551 82.6436 53.7685C82.7573 52.8879 82.7795 51.9979 82.71 51.1127Z" fill="#37474F"/>
<path d="M113.249 87.9589L108.981 88.2061L107.856 92.1972L113.249 87.9589Z" fill="#7D7DDE"/>
<path d="M103.964 80.2791L97.9996 79.1873L108.645 89.3754L109.733 88.1766L103.964 80.2791Z" fill="#7D7DDE"/>
<path opacity="0.2" d="M103.964 80.2791L97.9996 79.1873L108.645 89.3754L109.733 88.1766L103.964 80.2791Z" fill="black"/>
<path d="M107.406 70.6701C107.406 70.6701 114.414 66.4687 114.296 64.3034C114.178 62.1382 100.976 61.5185 98.2246 66.3175C97.3393 67.8556 98.4717 70.1168 98.4717 70.1168L107.406 70.6701ZM99.4234 66.7232C101.563 62.9866 112.511 63.1673 112.599 64.853C112.688 66.5388 106.568 70.1094 106.568 70.1094L99.6115 69.6815C99.6115 69.6815 98.7262 67.9368 99.416 66.7232H99.4234Z" fill="#7D7DDE"/>
<path opacity="0.2" d="M107.406 70.6701C107.406 70.6701 114.414 66.4687 114.296 64.3034C114.178 62.1382 100.976 61.5185 98.2246 66.3175C97.3393 67.8556 98.4717 70.1168 98.4717 70.1168L107.406 70.6701ZM99.4234 66.7232C101.563 62.9866 112.511 63.1673 112.599 64.853C112.688 66.5388 106.568 70.1094 106.568 70.1094L99.6115 69.6815C99.6115 69.6815 98.7262 67.9368 99.416 66.7232H99.4234Z" fill="black"/>
<path d="M95.4212 83.2227L94.2076 69.0545L115.384 69.5672L116.082 78.6672L95.4212 83.2227Z" fill="#7D7DDE"/>
<path d="M115.384 69.5672L116.79 67.9847L117.907 79.5967L116.081 78.6672L115.384 69.5672Z" fill="#7D7DDE"/>
<path opacity="0.2" d="M115.384 69.5672L116.79 67.9847L117.907 79.5967L116.081 78.6672L115.384 69.5672Z" fill="black"/>
<path d="M112.972 89.8217C112.972 89.8217 114.868 90.5595 114.307 91.1349C113.747 91.7103 112.972 89.8217 112.972 89.8217Z" fill="#455A64"/>
<path d="M110.571 90.9099C110.571 90.9099 112.315 91.9575 111.677 92.4259C111.039 92.8944 110.571 90.9099 110.571 90.9099Z" fill="#455A64"/>
<path d="M112.905 92.7579C112.905 92.7579 114.222 94.3108 113.455 94.5469C112.688 94.783 112.905 92.7579 112.905 92.7579Z" fill="#455A64"/>
<path d="M111.242 94.2924C111.242 94.2924 112.419 95.9523 111.637 96.1367C110.855 96.3212 111.242 94.2924 111.242 94.2924Z" fill="#455A64"/>
<path d="M114.827 93.2448C114.827 93.2448 116.402 94.5358 115.69 94.9047C114.979 95.2736 114.827 93.2448 114.827 93.2448Z" fill="#455A64"/>
<path d="M113.861 95.8933C113.861 95.8933 114.968 97.6048 114.171 97.7376C113.374 97.8704 113.861 95.8933 113.861 95.8933Z" fill="#455A64"/>
<path d="M108.143 92.555C108.143 92.555 108.391 94.5727 107.623 94.3514C106.856 94.1301 108.143 92.555 108.143 92.555Z" fill="#455A64"/>
<path d="M106.045 97.5864C106.045 97.5864 105.167 99.4307 104.636 98.8221C104.104 98.2135 106.045 97.5864 106.045 97.5864Z" fill="#455A64"/>
<path d="M106.668 95.0338C106.668 95.0338 106.159 97.0036 105.525 96.5093C104.89 96.015 106.668 95.0338 106.668 95.0338Z" fill="#455A64"/>
<path d="M109.438 92.9497C109.438 92.9497 110.294 94.794 109.493 94.8199C108.693 94.8457 109.438 92.9497 109.438 92.9497Z" fill="#455A64"/>
<path d="M108.564 95.8712C108.564 95.8712 108.365 97.8962 107.664 97.5089C106.963 97.1216 108.564 95.8712 108.564 95.8712Z" fill="#455A64"/>
<path d="M74.2519 47.1806L96.5794 56.133C96.4024 56.572 100.659 40.3197 101.164 28.5749C101.316 25.1002 97.8447 22.7726 93.7133 25.0744C85.0413 29.9434 74.1375 47.4646 74.2519 47.1806Z" fill="#7D7DDE"/>
<path d="M81.0981 37.5273L80.9468 37.7265L81.028 37.6638C81.1091 37.5863 81.2014 37.5162 81.2788 37.4388L81.0981 37.5273ZM97.2324 51.5738C97.1584 51.4681 97.0549 51.3866 96.9348 51.3393C96.8148 51.2921 96.6835 51.2813 96.5573 51.3082C96.4365 51.3356 96.3256 51.3956 96.2364 51.4816C96.1516 51.5554 96.063 51.6254 95.9819 51.7066C96.0852 51.6586 96.1848 51.6033 96.2844 51.5517C96.3742 51.4965 96.4748 51.4613 96.5795 51.4484C96.6767 51.4387 96.7749 51.4551 96.8637 51.4959C96.9525 51.5368 97.0289 51.6006 97.0848 51.6808C97.1914 51.8342 97.3546 51.939 97.5385 51.9722C97.5385 51.9168 97.5643 51.8615 97.5754 51.8099C97.4351 51.7778 97.3124 51.6933 97.2324 51.5738ZM83.3924 50.1832C83.3038 50.2402 83.2024 50.2744 83.0973 50.2828C82.9997 50.288 82.9023 50.2676 82.815 50.2236C82.7276 50.1796 82.6533 50.1135 82.5994 50.0319C82.5245 49.9263 82.4203 49.8449 82.2997 49.7977C82.1791 49.7505 82.0474 49.7396 81.9206 49.7663C81.8013 49.7947 81.6918 49.8546 81.6034 49.9397L81.4522 50.0725H81.4964L81.6514 49.9987C81.7375 49.9408 81.8361 49.9042 81.9391 49.8918C82.0369 49.8818 82.1357 49.898 82.2252 49.9389C82.3146 49.9797 82.3916 50.0437 82.4481 50.1241C82.5205 50.2305 82.6219 50.3138 82.7403 50.3641C82.8586 50.4145 82.989 50.4298 83.1158 50.4082C83.2375 50.3848 83.3501 50.3272 83.4404 50.2422C83.5252 50.1684 83.6101 50.0983 83.6949 50.0172L83.3924 50.1832ZM91.7805 39.379C91.6945 39.4354 91.5954 39.4684 91.4928 39.4749C91.3941 39.4827 91.2952 39.4638 91.2063 39.4204C91.1175 39.3769 91.0419 39.3104 90.9874 39.2278C90.9141 39.1214 90.8107 39.0392 90.6905 38.9919C90.5702 38.9446 90.4386 38.9343 90.3124 38.9622C90.1925 38.9899 90.0819 39.0484 89.9915 39.1319C89.9066 39.2093 89.8181 39.2794 89.737 39.3606C89.8402 39.3126 89.9398 39.2573 90.0431 39.2057C90.1302 39.1471 90.2302 39.1104 90.3345 39.0987C90.4314 39.089 90.5292 39.105 90.6179 39.1451C90.7067 39.1853 90.7832 39.2482 90.8399 39.3274C90.8915 39.4075 90.9601 39.4753 91.0407 39.5261C91.1214 39.5769 91.2122 39.6094 91.3068 39.6214C91.4013 39.6333 91.4974 39.6244 91.5881 39.5953C91.6789 39.5662 91.7622 39.5175 91.8321 39.4528C91.917 39.3753 92.0055 39.3052 92.0866 39.2278C91.9834 39.272 91.8838 39.3274 91.7805 39.379ZM100.858 32.7394C100.718 32.7104 100.594 32.6268 100.515 32.507C100.441 32.4014 100.338 32.3196 100.218 32.2718C100.098 32.224 99.9668 32.2122 99.8402 32.2377C99.7208 32.268 99.6115 32.3291 99.523 32.4148C99.4345 32.4886 99.3497 32.5587 99.2648 32.6398C99.3718 32.5919 99.4677 32.5402 99.571 32.4886C99.6579 32.429 99.7578 32.391 99.8624 32.3779C99.9601 32.369 100.058 32.3858 100.148 32.4266C100.237 32.4673 100.314 32.5306 100.371 32.6103C100.424 32.6898 100.493 32.757 100.574 32.8073C100.655 32.8576 100.745 32.8898 100.84 32.9017C100.85 32.8432 100.857 32.784 100.858 32.7246V32.7394ZM100.006 39.2684C99.9201 39.2639 99.8339 39.2767 99.7527 39.3059C99.6715 39.3352 99.597 39.3803 99.5334 39.4387C99.4699 39.4971 99.4186 39.5675 99.3826 39.646C99.3467 39.7244 99.3267 39.8092 99.3238 39.8954C99.3238 40.0098 99.3238 40.1241 99.3017 40.2348C99.346 40.1315 99.3718 40.0209 99.4087 39.9139C99.4326 39.8118 99.4807 39.7169 99.5488 39.6372C99.602 39.5764 99.6678 39.5279 99.7418 39.4954C99.8158 39.4629 99.896 39.4471 99.9767 39.4491C99.9827 39.3834 99.9926 39.3181 100.006 39.2536V39.2684ZM86.8893 34.0599C86.8893 33.9456 86.9077 33.8312 86.9077 33.7206C86.8672 33.8239 86.8377 33.9345 86.8008 34.0452C86.7798 34.1462 86.7356 34.2409 86.6717 34.3218C86.6101 34.3978 86.5296 34.4561 86.4383 34.4911C86.347 34.5261 86.2481 34.5364 86.1516 34.521C86.0249 34.4948 85.8933 34.5059 85.7728 34.553C85.6523 34.6002 85.5481 34.6813 85.4728 34.7866C85.4076 34.8911 85.3695 35.0103 85.3622 35.1334C85.3622 35.2477 85.3437 35.3584 85.34 35.4764C85.3843 35.3657 85.4101 35.2588 85.4507 35.1518C85.4726 35.0497 85.5195 34.9546 85.5872 34.8751C85.6529 34.8023 85.7364 34.7477 85.8295 34.7166C85.9225 34.6856 86.0221 34.6792 86.1184 34.6981C86.246 34.7209 86.3775 34.7053 86.4963 34.6535C86.6151 34.6016 86.7159 34.5157 86.786 34.4067C86.8497 34.3019 86.8853 34.1825 86.8893 34.0599ZM79.4492 44.3292C79.4492 44.2186 79.4492 44.1042 79.4714 43.9862C79.4271 44.0968 79.4013 44.2075 79.3644 44.3145C79.343 44.4171 79.2975 44.5132 79.2316 44.5948C79.1703 44.671 79.0898 44.7293 78.9983 44.7637C78.9068 44.7981 78.8078 44.8073 78.7115 44.7903C78.5855 44.764 78.4546 44.7756 78.3351 44.8235C78.2157 44.8714 78.1131 44.9535 78.0402 45.0596C77.968 45.1612 77.927 45.2817 77.9221 45.4063C77.9221 45.517 77.9221 45.6313 77.9221 45.7457C77.9627 45.6387 77.9922 45.528 78.0291 45.4211C78.0522 45.3187 78.1004 45.2236 78.1693 45.1444C78.234 45.0703 78.3174 45.0149 78.4108 44.9838C78.5042 44.9526 78.6041 44.947 78.7004 44.9674C78.828 44.9892 78.9592 44.9732 79.0778 44.9214C79.1964 44.8696 79.2973 44.7843 79.3681 44.676C79.4222 44.5684 79.45 44.4496 79.4492 44.3292ZM90.3382 45.7051C90.3382 45.5908 90.3567 45.4764 90.3567 45.3657C90.3161 45.469 90.2866 45.5797 90.2497 45.6867C90.2274 45.7895 90.1834 45.8863 90.1206 45.9707C90.0578 46.046 89.9764 46.1036 89.8846 46.1379C89.7927 46.1721 89.6936 46.1819 89.5968 46.1662C89.4707 46.1412 89.34 46.1529 89.2203 46.2C89.1006 46.247 88.997 46.3275 88.9218 46.4318C88.8538 46.5353 88.8144 46.6549 88.8074 46.7785C88.8074 46.8892 88.789 47.0035 88.789 47.1179C88.8295 47.0146 88.8591 46.9002 88.8959 46.797C88.9183 46.6943 88.9666 46.5991 89.0361 46.5203C89.1011 46.4465 89.1845 46.3913 89.2778 46.3602C89.3711 46.3291 89.471 46.3232 89.5673 46.3432C89.6948 46.3646 89.8258 46.3484 89.9443 46.2966C90.0629 46.2449 90.1638 46.1599 90.2349 46.0518C90.297 45.9477 90.3325 45.8299 90.3382 45.7088V45.7051ZM96.7344 26.7121C96.7344 26.5977 96.7565 26.4834 96.7565 26.369C96.7123 26.476 96.6864 26.5867 96.6495 26.6937C96.6272 26.7965 96.5832 26.8933 96.5204 26.9777C96.4579 27.0532 96.3765 27.1107 96.2845 27.1444C96.1924 27.1781 96.0931 27.1868 95.9966 27.1695C95.9036 27.1495 95.8073 27.1501 95.7145 27.1713C95.6217 27.1924 95.5347 27.2336 95.4595 27.292C95.3843 27.3503 95.3227 27.4244 95.2792 27.509C95.2356 27.5936 95.2111 27.6867 95.2073 27.7818C95.2073 27.8999 95.1888 28.0105 95.1888 28.1249C95.2294 28.0179 95.2589 27.9109 95.2958 27.8003C95.3181 27.6987 95.3664 27.6046 95.436 27.5273C95.5018 27.4539 95.5863 27.3997 95.6805 27.3705C95.7747 27.3413 95.875 27.3381 95.9708 27.3613C96.0983 27.3817 96.229 27.365 96.3473 27.3134C96.4657 27.2617 96.5667 27.1772 96.6385 27.0699C96.7022 26.9628 96.7353 26.8404 96.7344 26.7158V26.7121ZM89.357 29.4565C89.2718 29.516 89.1727 29.5528 89.0693 29.5634C88.9717 29.5746 88.8729 29.5593 88.7834 29.5191C88.6938 29.4788 88.6167 29.4151 88.5603 29.3347C88.5287 29.2808 88.4859 29.2343 88.4349 29.1983C88.3945 29.2416 88.3513 29.2822 88.3057 29.32C88.3461 29.3549 88.382 29.3945 88.4127 29.438C88.4876 29.5437 88.5918 29.6251 88.7124 29.6723C88.833 29.7195 88.9647 29.7304 89.0914 29.7036C89.2099 29.673 89.3189 29.6135 89.4087 29.5302C89.4935 29.4528 89.582 29.3827 89.6632 29.3052C89.5451 29.3532 89.4456 29.4085 89.3312 29.4602L89.357 29.4565ZM96.8967 44.6206C96.7946 44.5967 96.6997 44.5486 96.62 44.4805C96.5469 44.415 96.492 44.3315 96.461 44.2384C96.4299 44.1452 96.4237 44.0456 96.443 43.9493C96.4657 43.8217 96.4502 43.6902 96.3984 43.5714C96.3465 43.4525 96.2606 43.3517 96.1516 43.2816C96.0471 43.2208 95.9293 43.1866 95.8085 43.1821C95.6942 43.1821 95.5798 43.1636 95.4655 43.1599C95.5725 43.2005 95.6831 43.23 95.7938 43.2669C95.895 43.2891 95.9898 43.3345 96.0704 43.3997C96.1466 43.4609 96.2049 43.5415 96.2393 43.633C96.2737 43.7245 96.2829 43.8235 96.2659 43.9198C96.2408 44.0463 96.2529 44.1774 96.3007 44.2971C96.3485 44.4169 96.4299 44.5203 96.5352 44.5948C96.6384 44.6634 96.7582 44.7029 96.8819 44.7092C96.9963 44.7092 97.1069 44.7092 97.225 44.7092C97.0996 44.6981 96.9926 44.6575 96.8819 44.6243L96.8967 44.6206ZM89.0324 52.839C89.0557 52.7114 89.0404 52.5797 88.9885 52.4608C88.9366 52.3418 88.8504 52.2411 88.741 52.1714C88.6378 52.1076 88.5192 52.0732 88.398 52.0718C88.2836 52.0718 88.1693 52.0496 88.0549 52.0459C88.1619 52.0902 88.2726 52.1197 88.3795 52.1566C88.4822 52.178 88.5783 52.2235 88.6599 52.2894C88.736 52.3507 88.7943 52.4312 88.8287 52.5227C88.8631 52.6142 88.8723 52.7133 88.8554 52.8095C88.8406 52.8825 88.8406 52.9578 88.8554 53.0308L89.0509 53.112C89.0165 53.0266 89.0051 52.9338 89.0177 52.8427L89.0324 52.839ZM84.6134 42.9275C84.5099 42.9044 84.4136 42.8563 84.333 42.7874C84.2593 42.7224 84.2043 42.6389 84.1738 42.5455C84.1433 42.452 84.1384 42.3521 84.1597 42.2562C84.1815 42.1286 84.1655 41.9975 84.1137 41.8788C84.0619 41.7602 83.9766 41.6593 83.8683 41.5885C83.7616 41.5266 83.6411 41.4923 83.5178 41.4889C83.4072 41.4889 83.2928 41.4889 83.1785 41.4668C83.2855 41.5074 83.3961 41.5369 83.5031 41.5738C83.6049 41.5956 83.7007 41.6397 83.7834 41.7029C83.8596 41.765 83.9178 41.8462 83.9522 41.9383C83.9866 42.0303 83.9958 42.1299 83.9789 42.2267C83.9602 42.3199 83.9619 42.4161 83.9838 42.5086C84.0057 42.6011 84.0473 42.6878 84.1058 42.7627C84.1643 42.8377 84.2383 42.8991 84.3227 42.9429C84.4071 42.9866 84.5 43.0115 84.5949 43.0161C84.7056 43.0161 84.8199 43.0161 84.9343 43.0161C84.8273 42.9939 84.7167 42.9607 84.6134 42.9275ZM94.6761 34.7128C94.574 34.6899 94.4798 34.6403 94.4031 34.569C94.3294 34.5048 94.2741 34.422 94.2429 34.3293C94.2118 34.2366 94.206 34.1372 94.2261 34.0415C94.2479 33.9139 94.2319 33.7828 94.1801 33.6641C94.1283 33.5455 94.043 33.4446 93.9347 33.3739C93.8311 33.3075 93.7109 33.2716 93.5879 33.2706C93.4736 33.2706 93.3629 33.2484 93.2449 33.2484C93.3556 33.2927 93.4625 33.3222 93.5695 33.3591C93.6733 33.3784 93.7707 33.4227 93.8535 33.4882C93.9291 33.5508 93.9869 33.6321 94.0212 33.724C94.0555 33.8159 94.0651 33.9152 94.049 34.012C94.0233 34.1376 94.0348 34.268 94.0819 34.3872C94.1291 34.5064 94.2099 34.6093 94.3146 34.6833C94.4176 34.7524 94.5375 34.792 94.6613 34.7977C94.7757 34.7977 94.89 34.7977 95.0007 34.7977C94.8974 34.7792 94.7868 34.7387 94.6761 34.7128Z" fill="white"/>
<path d="M99.0952 29.4712C97.9517 29.1909 96.4467 26.8891 96.4689 25.0669C96.4689 24.9415 97.1882 24.012 98.0034 22.8537C98.4976 22.1418 99.0288 21.3377 99.4604 20.5704C99.5489 20.4118 103.621 24.4546 103.621 24.4546C102.809 25.2575 102.098 26.1568 101.504 27.1326C101.447 27.2406 101.399 27.3528 101.36 27.4683C101.36 27.4683 101.36 27.5015 101.338 27.5236C101.087 28.1765 100.32 29.7737 99.0952 29.4712Z" fill="#F7A9A0"/>
<path d="M101.353 27.4683C101.342 27.4856 101.333 27.5042 101.327 27.5236C101.151 27.452 100.981 27.3682 100.818 27.2728C98.0181 25.6129 99.2685 21.6402 99.63 20.659C100.419 21.2639 103.621 24.4473 103.621 24.4473C102.808 25.2532 102.096 26.1564 101.504 27.1363C101.442 27.2416 101.392 27.3529 101.353 27.4683Z" fill="#263238"/>
<path d="M109.685 15.303C109.685 15.303 110.858 16.8264 110.242 18.549C109.626 20.2717 108.332 21.7139 108.147 21.7176C107.963 21.7213 109.685 15.303 109.685 15.303Z" fill="#263238"/>
<path d="M101.935 14.0821C100.497 15.5575 98.7927 21.0426 99.4456 22.8095C100.39 25.3657 103.245 27.0515 105.746 25.6202C108.173 24.2296 110.268 17.0219 109.416 15.2919C108.166 12.7172 104.06 11.9205 101.935 14.0821Z" fill="#F7A9A0"/>
<path d="M104.783 18.4458C104.954 18.455 105.125 18.455 105.296 18.4458C105.477 18.4728 105.663 18.439 105.823 18.3499C105.867 18.3114 105.898 18.2596 105.91 18.2024C105.922 18.1451 105.915 18.0856 105.89 18.0326C105.824 17.9361 105.733 17.8588 105.628 17.8089C105.522 17.7589 105.405 17.7381 105.288 17.7486C105.05 17.7313 104.813 17.8036 104.624 17.9515C104.583 17.9881 104.554 18.0358 104.54 18.0888C104.525 18.1418 104.526 18.1979 104.543 18.2502C104.56 18.3025 104.592 18.3488 104.634 18.3835C104.677 18.4182 104.728 18.4399 104.783 18.4458Z" fill="#263238"/>
<path d="M108.487 19.7627C108.34 19.6744 108.198 19.5784 108.062 19.4749C107.9 19.3606 107.76 19.2868 107.693 19.1061C107.677 19.0498 107.681 18.9899 107.703 18.9357C107.725 18.8816 107.764 18.8364 107.815 18.8073C107.924 18.7653 108.042 18.7527 108.157 18.7709C108.273 18.789 108.381 18.8372 108.472 18.9106C108.668 19.0345 108.813 19.2241 108.881 19.4454C108.892 19.4967 108.888 19.55 108.871 19.5994C108.853 19.6487 108.822 19.6922 108.781 19.7251C108.74 19.7579 108.691 19.7788 108.639 19.7855C108.587 19.7921 108.534 19.7842 108.487 19.7627Z" fill="#263238"/>
<path d="M103.717 22.9091C103.772 23.0235 103.817 23.1747 103.946 23.2337C104.082 23.2793 104.227 23.2956 104.37 23.2817C104.37 23.2817 104.392 23.2817 104.37 23.3038C104.292 23.3577 104.201 23.3893 104.107 23.3952C104.013 23.4011 103.919 23.3809 103.835 23.337C103.768 23.291 103.716 23.2262 103.685 23.1509C103.654 23.0755 103.646 22.9927 103.662 22.9128C103.673 22.887 103.717 22.8907 103.717 22.9091Z" fill="#263238"/>
<path d="M104.488 21.9537C104.528 22.1312 104.605 22.2983 104.714 22.4444C104.822 22.5905 104.96 22.7123 105.119 22.8021C105.255 22.8833 105.403 22.9442 105.558 22.9829L105.646 23.005H105.731C105.752 23.0085 105.773 23.0049 105.792 22.9949C105.811 22.9849 105.826 22.969 105.834 22.9497V22.9091V22.8796C105.945 22.5992 106.07 22.164 106.07 22.164C106.155 22.2525 106.594 22.673 106.638 22.5328C107.059 21.2537 107.349 19.9349 107.502 18.597C107.499 18.5896 107.494 18.5832 107.488 18.5787C107.482 18.5741 107.474 18.5717 107.467 18.5717C107.459 18.5717 107.451 18.5741 107.445 18.5787C107.439 18.5832 107.434 18.5896 107.431 18.597C107.037 19.7774 106.852 21.0168 106.472 22.2082C106.316 22.0615 106.14 21.9374 105.949 21.8394C105.904 21.8394 105.72 22.6878 105.661 22.8095C105.422 22.751 105.198 22.6446 105.001 22.4969C104.805 22.3492 104.64 22.1632 104.517 21.95C104.514 21.9021 104.477 21.9168 104.488 21.9537Z" fill="#263238"/>
<path d="M105.263 19.7073C105.263 19.7073 105.229 19.7073 105.222 19.7073C105.104 20.0762 104.909 20.445 104.543 20.445V20.4672C104.949 20.5852 105.193 20.0651 105.263 19.7073Z" fill="#263238"/>
<path d="M105.13 20.0946C105.078 20.1832 105.004 20.2569 104.916 20.3086C104.864 20.3313 104.807 20.343 104.75 20.343C104.693 20.343 104.636 20.3313 104.584 20.3086C104.529 20.2876 104.48 20.254 104.441 20.2103C104.402 20.1667 104.374 20.1144 104.359 20.0577C104.335 19.9583 104.335 19.8547 104.359 19.7553C104.371 19.6961 104.388 19.638 104.411 19.5819C104.456 19.4646 104.526 19.3587 104.617 19.272C104.58 19.355 104.552 19.4415 104.532 19.5302C104.514 19.6103 104.503 19.6917 104.499 19.7737C104.499 19.9434 104.529 20.102 104.65 20.1426C104.719 20.163 104.793 20.1595 104.86 20.1327C104.927 20.106 104.983 20.0575 105.019 19.995C105.124 19.8561 105.217 19.7079 105.296 19.5524C105.286 19.7441 105.229 19.9304 105.13 20.0946Z" fill="#263238"/>
<path d="M107.325 20.4856C107.325 20.4856 107.343 20.5151 107.325 20.5299C107.162 20.8692 107.037 21.2898 107.302 21.5369C106.945 21.3377 107.118 20.7844 107.325 20.4856Z" fill="#263238"/>
<path d="M107.151 20.8582C107.124 20.9584 107.124 21.0641 107.151 21.1643C107.17 21.2176 107.2 21.2663 107.239 21.3076C107.278 21.3488 107.324 21.3817 107.376 21.4041C107.431 21.4262 107.489 21.435 107.548 21.4299C107.606 21.4248 107.662 21.4058 107.712 21.3746C107.798 21.3208 107.87 21.2475 107.922 21.1606C107.952 21.109 107.977 21.0537 108.003 20.9983C108.053 20.8821 108.075 20.7557 108.066 20.6295C108.036 20.7162 107.997 20.7991 107.948 20.8766C107.905 20.9459 107.859 21.0124 107.808 21.0758C107.697 21.2049 107.561 21.2934 107.439 21.2344C107.374 21.2007 107.322 21.1457 107.293 21.0786C107.263 21.0115 107.257 20.9363 107.277 20.8655C107.303 20.6908 107.346 20.5191 107.406 20.3528C107.281 20.4981 107.194 20.6716 107.151 20.8582Z" fill="#263238"/>
<path d="M99.9361 19.3606C100.541 19.7294 101.78 17.933 102.168 17.2248C102.518 16.6051 103.249 14.5358 103.315 14.3993C103.381 14.2628 105.72 16.9814 107.487 16.8855C109.254 16.7896 110.718 15.587 110.91 14.901C111.102 14.2149 109.475 11.95 107.719 11.441C105.963 10.9319 103.02 12.6066 103.02 12.6066C103.39 12.3463 103.739 12.0577 104.064 11.7434C104.064 11.6549 102.799 11.8357 102.389 12.6029C102.389 12.6029 102.865 11.6328 102.78 11.5922C102.695 11.5516 101.596 12.2156 101.637 12.9275C101.637 12.9275 100.39 13.573 100.058 14.5284C99.7258 15.4838 99.2242 18.9364 99.9361 19.3606Z" fill="#263238"/>
<path d="M108.745 16.8228C108.192 16.9693 107.619 17.0303 107.048 17.0035C106.429 16.9091 105.841 16.6661 105.336 16.2953C104.824 15.9351 104.372 15.4955 103.997 14.9932C103.669 14.5505 103.4 14.0526 103.035 13.6431C102.942 13.5398 102.776 13.6689 102.817 13.787C103.3 15.0096 104.164 16.0443 105.281 16.7379C105.799 17.0573 106.39 17.2368 106.998 17.2588C107.606 17.2808 108.209 17.1445 108.748 16.8633C108.748 16.8633 108.756 16.8228 108.745 16.8228Z" fill="#263238"/>
<path d="M101.039 18.8774C101.039 18.8774 100.707 16.6642 99.7591 16.7084C98.8111 16.7527 98.4938 19.5524 99.2057 20.3123C99.2904 20.4159 99.395 20.5013 99.5135 20.5635C99.632 20.6256 99.7618 20.6631 99.8951 20.6738C100.028 20.6845 100.163 20.6681 100.289 20.6256C100.416 20.5831 100.533 20.5154 100.633 20.4266L101.039 18.8774Z" fill="#F7A9A0"/>
<path d="M99.689 17.5236C99.689 17.5236 99.6631 17.5236 99.6705 17.5458C100.161 18.0991 100.202 18.8257 100.135 19.5303C100.13 19.4511 100.108 19.3739 100.07 19.3041C100.033 19.2343 99.9804 19.1734 99.9169 19.1257C99.8535 19.0781 99.7805 19.0447 99.7029 19.0279C99.6254 19.0112 99.5451 19.0114 99.4676 19.0286C99.4455 19.0286 99.4492 19.0655 99.4676 19.0692C99.5919 19.0895 99.707 19.1474 99.7973 19.2351C99.8877 19.3228 99.949 19.4361 99.973 19.5598C100.013 19.7675 100.029 19.9791 100.021 20.1905C100.021 20.2606 100.135 20.2791 100.146 20.1905C100.552 19.4159 100.486 18.0216 99.689 17.5236Z" fill="#263238"/>
<path d="M91.6071 28.8147C89.6779 34.2776 85.3363 45.4986 87.0184 49.4491C89.2316 54.6317 96.2622 58.763 98.789 60.2127C99.8956 60.8435 108.033 55.3252 107.221 54.237C105.598 52.0496 96.4798 45.7309 95.886 44.9084C95.2921 44.0858 96.1294 34.6944 96.0999 29.7848C96.063 23.5767 93.2412 24.1927 91.6071 28.8147Z" fill="#F7A9A0"/>
<path d="M96.4098 36.5498L87.6344 37.6896C87.6344 37.6896 90.9874 28.5528 92.7322 26.144C94.6945 23.4329 95.6536 25.0374 96.1811 28.1654C96.7086 31.2934 96.4098 36.5498 96.4098 36.5498Z" fill="#7D7DDE"/>
<path d="M94.6761 34.7128C94.5739 34.6899 94.4797 34.6403 94.4031 34.569C94.3293 34.5048 94.274 34.422 94.2429 34.3293C94.2118 34.2366 94.206 34.1372 94.2261 34.0415C94.2478 33.9139 94.2319 33.7828 94.1801 33.6641C94.1283 33.5455 94.043 33.4446 93.9347 33.3739C93.8311 33.3075 93.7109 33.2717 93.5879 33.2706C93.4736 33.2706 93.3629 33.2484 93.2449 33.2484C93.3555 33.2927 93.4625 33.3222 93.5695 33.3591C93.6732 33.3784 93.7707 33.4227 93.8535 33.4882C93.9291 33.5508 93.9869 33.6321 94.0212 33.724C94.0555 33.8159 94.0651 33.9152 94.049 34.012C94.0233 34.1376 94.0348 34.268 94.0819 34.3872C94.1291 34.5064 94.2099 34.6093 94.3146 34.6833C94.4176 34.7524 94.5375 34.792 94.6613 34.7977C94.7757 34.7977 94.89 34.7977 95.0007 34.7977C94.8974 34.7792 94.7867 34.7387 94.6761 34.7128ZM95.9708 27.1695C95.8457 27.1484 95.7172 27.1628 95.5998 27.211C95.4824 27.2593 95.3809 27.3394 95.3068 27.4425C95.2379 27.5441 95.1983 27.6628 95.1925 27.7855C95.1925 27.9035 95.1741 28.0142 95.1741 28.1286C95.2146 28.0216 95.2441 27.9146 95.281 27.8039C95.3034 27.7024 95.3517 27.6083 95.4212 27.531C95.4879 27.4544 95.5747 27.3979 95.6718 27.3679C95.7689 27.3379 95.8725 27.3356 95.9708 27.3613C95.9903 27.3651 96.0103 27.3651 96.0298 27.3613C96.0114 27.2949 95.9966 27.2322 95.9708 27.1695Z" fill="white"/>
<path d="M95.8933 35.0043C94.7535 35.0043 91.3415 35.4654 90.7771 35.5391C90.4783 35.576 89.3016 35.7789 88.9992 35.8158C88.9623 35.8158 88.977 35.8785 88.9992 35.8711C89.5672 35.8047 90.1426 35.7973 90.7107 35.7346C91.2788 35.6719 94.7682 35.3215 95.8748 35.0485C95.9191 35.0412 95.9154 35.0043 95.8933 35.0043Z" fill="#263238"/>
<path d="M90.9321 29.6335C90.9321 29.593 90.8915 29.5782 90.873 29.6114C90.5042 30.3491 90.1501 31.0967 89.8107 31.8541C89.8957 31.4282 90.0191 31.0109 90.1796 30.6073C90.1796 30.6073 90.1611 30.5815 90.1538 30.6073C89.9521 31.0677 89.812 31.5527 89.7369 32.0496C89.491 32.5759 89.2599 33.1046 89.0435 33.6357C88.4717 34.9858 87.8815 36.3359 87.3872 37.7154C87.382 37.7322 87.3812 37.7499 87.3847 37.7671C87.3883 37.7843 87.3962 37.8003 87.4076 37.8135C87.419 37.8268 87.4337 37.837 87.4501 37.843C87.4665 37.8491 87.4843 37.8509 87.5016 37.8482C87.8041 37.8003 88.1065 37.7412 88.4053 37.6712C88.4348 37.6712 88.4385 37.6121 88.4053 37.6121C88.1508 37.6121 87.8963 37.6121 87.6418 37.6453C88.2319 36.3543 88.7484 35.0338 89.3017 33.728C89.855 32.4222 90.4378 31.0057 90.9321 29.6335Z" fill="#263238"/>
<path d="M96.6384 32.7578C96.6937 32.2931 96.7491 31.832 96.7933 31.3635C96.738 31.7029 96.69 32.0422 96.6458 32.3853C96.6273 31.6992 96.5941 31.0131 96.5314 30.3344H96.513C96.4577 31.3709 96.4577 32.4111 96.4245 33.4476C96.3913 34.4841 96.3765 35.4838 96.3618 36.5019C96.1663 36.5572 95.9708 36.6125 95.7716 36.6605C95.7637 36.6605 95.7562 36.6636 95.7507 36.6691C95.7452 36.6746 95.7421 36.6822 95.7421 36.69C95.7421 36.6978 95.7452 36.7053 95.7507 36.7108C95.7562 36.7164 95.7637 36.7195 95.7716 36.7195C95.9966 36.701 96.2179 36.6826 96.4392 36.6752C96.4654 36.6763 96.4911 36.6674 96.5109 36.6503C96.5308 36.6331 96.5434 36.6091 96.5462 36.583C96.6237 35.3178 96.6605 34.0341 96.6384 32.7578Z" fill="#263238"/>
<path d="M111.832 65.3953C111.606 65.623 111.315 65.7762 110.999 65.8342C110.684 65.8922 110.358 65.8523 110.065 65.7199C109.965 66.254 109.681 66.7358 109.261 67.081C108.49 67.6564 107.251 66.7121 107.251 66.7121C107.03 67.2454 106.654 67.6994 106.17 68.0143C105.381 68.4938 103.994 67.7081 103.994 67.7081C103.52 68.0849 102.927 68.2799 102.323 68.2577C100.707 68.1249 99.5709 65.9338 98.8332 64.5432C98.0955 63.1526 97.3024 58.5307 97.0626 57.6638L105.915 52.8685C105.915 52.8685 110.991 58.147 111.629 59.9028C112.171 61.3599 112.658 64.4916 111.832 65.3953Z" fill="#F7A9A0"/>
<path d="M110.172 65.5797C109.98 63.8718 109.294 62.3152 108.697 60.718C108.697 60.6848 108.627 60.718 108.641 60.7402C109.254 62.3189 109.545 64.001 110.091 65.5982C110.092 65.6035 110.095 65.6085 110.098 65.613C110.101 65.6174 110.105 65.6212 110.109 65.6241C110.114 65.627 110.119 65.629 110.125 65.6299C110.13 65.6309 110.136 65.6307 110.141 65.6295C110.146 65.6283 110.151 65.626 110.156 65.6229C110.16 65.6197 110.164 65.6157 110.167 65.6111C110.17 65.6065 110.172 65.6013 110.173 65.5959C110.174 65.5905 110.173 65.585 110.172 65.5797Z" fill="#263238"/>
<path d="M107.35 66.6126C107.268 66.2284 107.137 65.8565 106.959 65.506C106.793 65.1371 106.624 64.7461 106.443 64.3699C106.089 63.6174 105.72 62.8796 105.336 62.1567C105.318 62.1235 105.263 62.1567 105.281 62.1788C105.65 62.9165 105.975 63.6838 106.295 64.4473C106.454 64.8162 106.613 65.2146 106.768 65.5982C106.89 65.9706 107.053 66.3281 107.255 66.6642C107.264 66.6716 107.275 66.676 107.286 66.6771C107.298 66.6782 107.309 66.6759 107.32 66.6703C107.33 66.6648 107.338 66.6564 107.344 66.6461C107.349 66.6358 107.352 66.6242 107.35 66.6126Z" fill="#263238"/>
<path d="M103.975 67.6675C103.898 67.3217 103.761 66.9921 103.569 66.6937C103.403 66.3543 103.234 66.015 103.071 65.6719C102.74 64.9895 102.411 64.3108 102.105 63.6173C102.087 63.5805 102.035 63.6173 102.05 63.6358C102.356 64.344 102.655 65.0522 102.968 65.7568C103.123 66.0998 103.278 66.4466 103.437 66.7896C103.55 67.1161 103.722 67.4197 103.942 67.686C103.944 67.6904 103.949 67.6936 103.953 67.695C103.958 67.6964 103.963 67.6958 103.968 67.6933C103.972 67.6909 103.975 67.6868 103.977 67.682C103.978 67.6771 103.978 67.6719 103.975 67.6675Z" fill="#263238"/>
<path d="M16.5166 176.281C65.292 176.056 120.01 176.056 168.785 176.281C120.01 176.509 65.292 176.506 16.5166 176.281Z" fill="#263238"/>
</svg>
