<svg width="185" height="185" viewBox="0 0 185 185" fill="none" xmlns="http://www.w3.org/2000/svg">
<path d="M161.847 40.4488L160.958 38.9733C153.444 26.5941 139.862 19.1282 125.547 20.0356C123.704 20.1451 121.871 20.3916 120.065 20.7734C107.044 23.5583 95.7199 33.4071 91.0169 46.0187C88.2541 53.4329 87.4831 61.9722 82.2415 67.8594C75.4211 75.5207 63.8387 75.7642 53.6579 75.447C43.4772 75.1298 31.8947 75.399 25.1002 83.0899C20.8471 87.9073 19.4971 94.7572 19.8401 101.209C20.7475 118.291 32.6472 133.562 47.7855 141.153C62.9239 148.745 80.7328 149.457 97.2987 146.107C120.504 141.43 142.574 128.582 155.838 108.741C169.103 88.8996 172.463 61.8653 161.847 40.4488Z" fill="#F5F5F5"/>
<path d="M59.7482 53.4344C68.8265 49.5397 73.0285 39.0231 69.1339 29.9449C65.2392 20.8667 54.7226 16.6646 45.6444 20.5593C36.5661 24.454 32.364 34.9706 36.2587 44.0488C40.1534 53.127 50.67 57.3291 59.7482 53.4344Z" fill="#F5F5F5"/>
<path d="M49.9029 134.112C49.9361 134.163 49.2647 134.621 48.2245 135.414C45.5066 137.465 43.0676 139.862 40.9689 142.544C40.1611 143.57 39.6889 144.233 39.641 144.2C39.593 144.167 39.9914 143.463 40.7476 142.378C41.7463 140.978 42.8658 139.669 44.0932 138.464C45.3164 137.257 46.6446 136.161 48.0622 135.189C49.1541 134.451 49.8623 134.071 49.9029 134.112Z" fill="#263238"/>
<path d="M48.527 128.479C48.6339 128.505 48.2761 130.323 47.7302 132.537C47.1843 134.75 46.6568 136.546 46.5424 136.517C46.4281 136.487 46.797 134.672 47.3392 132.459C47.8814 130.246 48.4237 128.453 48.527 128.479Z" fill="#263238"/>
<path d="M47.9295 128.173C47.6602 128.291 47.5827 128.955 47.8041 129.28C47.9294 129.431 48.1043 129.532 48.2976 129.566C48.4909 129.6 48.6899 129.564 48.859 129.464C49.0604 129.35 49.2097 129.163 49.2751 128.941C49.3405 128.719 49.317 128.481 49.2095 128.276C49.1333 128.178 49.0372 128.098 48.9275 128.04C48.8177 127.982 48.6969 127.948 48.573 127.94C48.4492 127.932 48.3251 127.951 48.209 127.995C48.093 128.039 47.9876 128.107 47.9 128.195" fill="#455A64"/>
<path d="M50.7919 130.733C50.8362 130.829 50.1833 131.223 49.3164 131.611C48.4496 131.998 47.7377 132.234 47.6934 132.138C47.6491 132.042 48.302 131.644 49.1689 131.257C50.0357 130.869 50.7476 130.644 50.7919 130.733Z" fill="#263238"/>
<path d="M50.7255 130.095C50.486 130.253 50.3047 130.485 50.2091 130.755C50.1658 130.89 50.173 131.036 50.2293 131.167C50.2856 131.297 50.3872 131.402 50.5152 131.463C50.6038 131.489 50.6972 131.492 50.7873 131.473C50.8774 131.453 50.9613 131.412 51.0317 131.353C51.1683 131.229 51.2701 131.071 51.3267 130.895C51.4074 130.713 51.4192 130.507 51.3599 130.316C51.3257 130.223 51.2588 130.147 51.1719 130.1C51.085 130.053 50.984 130.039 50.8878 130.062" fill="#455A64"/>
<path d="M50.707 133.374C50.9078 133.396 51.0927 133.494 51.2235 133.647C51.3544 133.801 51.4212 134 51.4104 134.201C51.3995 134.403 51.3117 134.593 51.1651 134.732C51.0185 134.871 50.8241 134.948 50.6221 134.948C50.4201 134.948 50.2258 134.871 50.0792 134.732C49.9326 134.593 49.8448 134.403 49.8339 134.201C49.823 134 49.8899 133.801 50.0208 133.647C50.1516 133.494 50.3365 133.396 50.5373 133.374" fill="#455A64"/>
<path d="M33.3112 111.242C33.3761 111.679 33.4082 112.121 33.4071 112.562C33.4366 113.474 33.4772 114.687 33.5252 116.155C33.6063 119.191 33.6911 123.381 33.7612 128.011C33.8313 132.64 33.8719 136.834 33.883 139.87C33.883 141.345 33.883 142.551 33.883 143.463C33.9001 143.904 33.8803 144.345 33.8239 144.783C33.7592 144.347 33.7272 143.907 33.728 143.466C33.6985 142.555 33.6616 141.342 33.6137 139.873C33.5325 136.838 33.4477 132.644 33.3739 128.014C33.3001 123.385 33.2633 119.187 33.2633 116.155C33.2633 114.68 33.2633 113.474 33.2633 112.559C33.2465 112.119 33.2625 111.679 33.3112 111.242Z" fill="#263238"/>
<path d="M39.2167 108.711C39.3094 109.865 39.0579 111.02 38.4939 112.031C37.9299 113.042 37.0788 113.862 36.0483 114.389C35.0177 114.916 33.8541 115.125 32.7046 114.991C31.5551 114.856 30.4713 114.383 29.5905 113.633C28.7096 112.882 28.0712 111.887 27.7561 110.773C27.4409 109.659 27.4632 108.477 27.8201 107.376C28.1769 106.275 28.8523 105.305 29.7608 104.588C30.6693 103.871 31.7701 103.439 32.9238 103.348C34.4691 103.227 35.9994 103.723 37.1791 104.729C38.3588 105.734 39.0916 107.166 39.2167 108.711Z" fill="#6868B9"/>
<g opacity="0.3">
<path d="M33.1453 115.041C33.0863 115.041 33.1453 114.385 33.1933 113.348C33.2728 112.009 33.0691 110.668 32.5957 109.412C32.0881 108.175 31.1445 107.167 29.9435 106.579C29.014 106.152 28.3426 106.211 28.3463 106.137C28.35 106.063 28.5086 106.074 28.8074 106.074C29.2337 106.083 29.6549 106.169 30.0505 106.329C30.7038 106.6 31.297 106.997 31.7959 107.499C32.2947 108 32.6894 108.595 32.9572 109.25C33.4545 110.556 33.6304 111.963 33.4699 113.352C33.3666 114.414 33.1896 115.049 33.1453 115.041Z" fill="black"/>
</g>
<g opacity="0.3">
<path d="M38.6008 106.889C38.6008 107.007 36.9594 106.889 35.3548 107.941C33.7502 108.992 33.1674 110.523 33.0641 110.471C33.0198 110.453 33.0936 110.051 33.4072 109.475C33.8241 108.721 34.4205 108.081 35.1438 107.613C35.867 107.145 36.6946 106.862 37.5532 106.79C38.2061 106.745 38.6045 106.841 38.6008 106.889Z" fill="black"/>
</g>
<g opacity="0.3">
<path d="M35.9855 107.354C35.9191 107.354 35.8453 106.967 35.4838 106.469C35.263 106.141 34.9713 105.867 34.6305 105.668C34.2896 105.468 33.9082 105.347 33.5144 105.315C33.1206 105.282 32.7246 105.338 32.3555 105.479C31.9864 105.62 31.6537 105.843 31.382 106.129C30.9431 106.557 30.8029 106.941 30.7402 106.915C30.6775 106.889 30.7402 106.472 31.1792 105.941C31.4598 105.591 31.8222 105.315 32.2344 105.137C32.6467 104.959 33.0963 104.885 33.5438 104.921C33.9913 104.958 34.4231 105.104 34.8012 105.346C35.1793 105.588 35.4922 105.919 35.7125 106.31C36.0519 106.915 36.0261 107.354 35.9855 107.354Z" fill="black"/>
</g>
<g opacity="0.3">
<path d="M34.3699 108.475C34.2555 108.475 34.1301 107.682 33.6321 106.845C33.1342 106.008 32.5255 105.491 32.5845 105.399C32.6436 105.307 33.4366 105.716 33.9715 106.65C34.5063 107.583 34.4732 108.483 34.3699 108.475Z" fill="black"/>
</g>
<g opacity="0.3">
<path d="M33.8018 106.734C33.8277 106.849 33.3444 107.004 32.9461 107.395C32.5477 107.786 32.2673 108.236 32.1641 108.177C32.0608 108.118 32.1899 107.609 32.6731 107.111C33.1563 106.613 33.7981 106.642 33.8018 106.734Z" fill="black"/>
</g>
<path d="M20.8509 129.198C20.9542 129.165 22.5625 133.905 24.4437 139.778C26.3249 145.65 27.7635 150.445 27.6676 150.475C27.5717 150.504 25.956 145.768 24.0748 139.899C22.1936 134.031 20.7476 129.232 20.8509 129.198Z" fill="#263238"/>
<path d="M24.5949 140.888C24.5285 140.958 22.887 139.66 20.8324 138.081C18.7778 136.502 17.1695 135.13 17.2396 135.045C17.3097 134.96 19.0176 136.177 21.0906 137.775C23.1637 139.372 24.676 140.799 24.5949 140.888Z" fill="#263238"/>
<path d="M16.3285 134.558C16.0113 134.849 16.1256 135.495 16.4834 135.853C16.8412 136.211 17.6712 136.037 17.9589 135.609C18.0809 135.388 18.1106 135.127 18.0416 134.884C17.9725 134.641 17.8102 134.435 17.59 134.311C17.3622 134.201 17.1025 134.175 16.8577 134.24C16.6129 134.304 16.3991 134.453 16.2547 134.661" fill="#455A64"/>
<path d="M24.5949 126.889C24.7129 126.911 24.3625 128.601 23.6653 130.578C22.9682 132.555 22.5587 134.182 22.4407 134.163C22.3227 134.145 22.5993 132.441 23.2965 130.453C23.9936 128.464 24.5027 126.871 24.5949 126.889Z" fill="#263238"/>
<path d="M24.4104 125.429C24.0194 125.709 24.001 125.875 23.8534 126.332C23.7059 126.79 23.9161 127.387 24.3846 127.487C24.8531 127.586 25.2293 127.199 25.4137 126.79C25.5119 126.61 25.5633 126.408 25.5633 126.203C25.5633 125.998 25.5119 125.797 25.4137 125.617C25.3585 125.532 25.2854 125.461 25.1995 125.409C25.1136 125.356 25.0171 125.323 24.9169 125.312C24.8168 125.301 24.7155 125.313 24.6202 125.346C24.525 125.378 24.4382 125.432 24.3662 125.502" fill="#455A64"/>
<path d="M17.7081 139.431C17.6712 139.331 18.361 138.948 19.2536 138.571C20.1463 138.195 20.9025 137.97 20.9467 138.066C20.991 138.162 20.3012 138.553 19.4049 138.929C18.5085 139.305 17.7487 139.53 17.7081 139.431Z" fill="#263238"/>
<path d="M16.2954 138.778C16.0298 138.918 15.9265 139.567 15.9265 139.837C15.9386 139.972 15.9822 140.103 16.0539 140.219C16.1256 140.335 16.2235 140.433 16.3396 140.504C16.4997 140.606 16.6845 140.662 16.8741 140.667C17.0638 140.672 17.2511 140.625 17.4161 140.531C17.581 140.437 17.7172 140.3 17.8102 140.135C17.9031 139.97 17.9492 139.782 17.9435 139.592C17.9379 139.403 17.8806 139.218 17.778 139.059C17.6753 138.899 17.5311 138.771 17.3609 138.687C17.1907 138.603 17.0008 138.567 16.8118 138.583C16.6228 138.599 16.4417 138.667 16.288 138.778" fill="#455A64"/>
<path d="M19.1246 128.103C19.0563 128.404 19.0904 128.72 19.2216 129C19.3528 129.28 19.5736 129.508 19.8491 129.649C20.1245 129.789 20.4389 129.834 20.7426 129.776C21.0463 129.718 21.3219 129.56 21.5259 129.328C21.6255 129.223 21.7011 129.097 21.7476 128.961C21.7941 128.824 21.8103 128.678 21.7952 128.534C21.7153 128.244 21.5554 127.981 21.3336 127.777C21.1119 127.573 20.8372 127.435 20.541 127.38C20.2584 127.349 19.9729 127.402 19.7207 127.534C19.4685 127.665 19.261 127.868 19.1246 128.118" fill="#455A64"/>
<path d="M39.1651 133.927C39.2168 133.949 39.025 134.536 38.7004 135.477C38.3192 136.563 37.8901 137.786 37.413 139.143C36.9224 140.493 36.4835 141.725 36.0925 142.802C35.7457 143.735 35.5244 144.307 35.4691 144.278C35.4138 144.248 36.015 141.862 37.0442 138.999C38.0733 136.137 39.0619 133.883 39.1651 133.927Z" fill="#263238"/>
<path d="M45.3806 131.242C45.175 132.211 44.6866 133.098 43.9772 133.79C43.2677 134.481 42.369 134.947 41.3948 135.128C40.4206 135.309 39.4147 135.197 38.5042 134.806C37.5937 134.415 36.8196 133.763 36.2797 132.932C35.7399 132.101 35.4586 131.129 35.4715 130.138C35.4843 129.147 35.7907 128.182 36.3519 127.366C36.9131 126.549 37.7038 125.917 38.6242 125.55C39.5445 125.183 40.553 125.097 41.5222 125.303C42.8207 125.58 43.9562 126.361 44.6796 127.475C45.4029 128.588 45.655 129.943 45.3806 131.242Z" fill="#6868B9"/>
<g opacity="0.3">
<path d="M38.8552 134.956C38.8036 134.931 39.0175 134.418 39.2905 133.573C39.6748 132.494 39.8305 131.348 39.7479 130.205C39.6302 129.075 39.1058 128.027 38.2724 127.254C37.6195 126.675 37.0588 126.554 37.081 126.484C37.1031 126.413 37.6933 126.484 38.4458 127.041C38.9178 127.425 39.309 127.898 39.5964 128.435C39.8839 128.971 40.062 129.559 40.1204 130.165C40.2142 131.362 40.0128 132.564 39.5339 133.665C39.2019 134.506 38.8995 134.975 38.8552 134.956Z" fill="black"/>
</g>
<g opacity="0.3">
<path d="M45.3179 129.597C45.2958 129.711 43.9679 129.228 42.4076 129.693C40.8473 130.157 39.9878 131.271 39.9066 131.187C39.8255 131.102 40.0173 130.84 40.412 130.449C40.9387 129.929 41.5865 129.549 42.2969 129.342C43.0078 129.132 43.7603 129.106 44.4843 129.265C45.0339 129.368 45.3364 129.538 45.3179 129.597Z" fill="black"/>
</g>
<g opacity="0.3">
<path d="M43.0568 129.342C42.9941 129.342 43.0236 128.973 42.8428 128.498C42.7402 128.179 42.5679 127.888 42.3386 127.645C42.1092 127.402 41.8285 127.213 41.517 127.091C41.2054 126.97 40.8707 126.92 40.5373 126.944C40.2038 126.969 39.88 127.067 39.5894 127.232C39.1246 127.468 38.9144 127.745 38.8517 127.704C38.789 127.664 38.9549 127.336 39.4382 126.996C39.7557 126.772 40.1237 126.631 40.5093 126.584C40.8949 126.537 41.2861 126.586 41.6481 126.727C42.0101 126.868 42.3315 127.096 42.5837 127.392C42.836 127.687 43.0112 128.04 43.0936 128.42C43.2228 128.996 43.0973 129.353 43.0568 129.342Z" fill="black"/>
</g>
<g opacity="0.3">
<path d="M41.4632 129.87C41.3488 129.844 41.43 129.158 41.2308 128.357C41.0316 127.557 40.6627 126.982 40.7513 126.908C40.8398 126.834 41.3968 127.365 41.6107 128.269C41.8247 129.173 41.5591 129.907 41.4632 129.87Z" fill="black"/>
</g>
<g opacity="0.3">
<path d="M41.4154 128.298C41.4154 128.416 40.9801 128.439 40.567 128.667C40.1538 128.896 39.8034 129.18 39.7223 129.095C39.6411 129.01 39.8624 128.616 40.3899 128.321C40.9174 128.025 41.4375 128.206 41.4154 128.298Z" fill="black"/>
</g>
<path d="M27.6417 123.426C27.7368 123.695 27.8011 123.975 27.8335 124.259C27.9405 124.879 28.0696 125.643 28.2024 126.539C28.5085 128.468 28.9069 131.135 29.309 134.082C29.711 137.029 30.0762 139.7 30.316 141.637C30.4193 142.54 30.5041 143.308 30.5779 143.935C30.6271 144.215 30.6408 144.5 30.6184 144.783C30.523 144.515 30.4586 144.236 30.4266 143.953C30.3233 143.333 30.2004 142.574 30.0578 141.674C29.7516 139.748 29.3532 137.077 28.9512 134.126C28.5491 131.176 28.1839 128.505 27.9441 126.587C27.8409 125.683 27.756 124.916 27.6823 124.292C27.6339 124.006 27.6202 123.715 27.6417 123.426Z" fill="#263238"/>
<path d="M31.8948 118.166C32.1615 119.119 32.1396 120.13 31.8318 121.071C31.524 122.012 30.9442 122.84 30.1656 123.451C29.387 124.063 28.4446 124.429 27.4576 124.505C26.4706 124.581 25.4833 124.362 24.6205 123.877C23.7577 123.392 23.0582 122.662 22.6103 121.779C22.1625 120.896 21.9865 119.9 22.1046 118.917C22.2227 117.935 22.6295 117.009 23.2737 116.257C23.9179 115.505 24.7704 114.962 25.7236 114.695C26.3567 114.517 27.0186 114.466 27.6714 114.545C28.3242 114.623 28.9552 114.829 29.5283 115.152C30.1014 115.474 30.6053 115.906 31.0114 116.423C31.4174 116.94 31.7176 117.532 31.8948 118.166Z" fill="#6868B9"/>
<g opacity="0.3">
<path d="M27.8409 124.481C27.7819 124.481 27.7339 123.931 27.5827 123.053C27.4227 121.92 27.0296 120.832 26.4281 119.859C25.8018 118.913 24.8547 118.225 23.7612 117.922C22.9165 117.712 22.3595 117.867 22.3521 117.793C22.3447 117.719 22.887 117.502 23.8276 117.653C24.424 117.774 24.9904 118.012 25.4938 118.354C25.9972 118.696 26.4277 119.135 26.7601 119.645C27.399 120.661 27.779 121.819 27.8667 123.016C27.9368 123.924 27.8888 124.481 27.8409 124.481Z" fill="black"/>
</g>
<g opacity="0.3">
<path d="M31.0758 116.734C31.109 116.849 29.711 117.037 28.5453 118.173C27.3797 119.309 27.1326 120.692 27.0219 120.655C26.974 120.655 26.9629 120.287 27.1252 119.755C27.3458 119.047 27.7407 118.406 28.2737 117.89C28.8067 117.375 29.4608 117.001 30.1757 116.804C30.7217 116.664 31.0721 116.686 31.0758 116.734Z" fill="black"/>
</g>
<g opacity="0.3">
<path d="M28.9585 117.557C28.8995 117.583 28.763 117.266 28.3757 116.911C28.1373 116.677 27.8497 116.5 27.5339 116.391C27.2181 116.282 26.882 116.244 26.55 116.281C26.218 116.318 25.8984 116.429 25.6145 116.605C25.3305 116.781 25.0893 117.018 24.9084 117.299C24.6059 117.727 24.5395 118.066 24.4805 118.055C24.4215 118.044 24.3993 117.686 24.6723 117.155C24.8508 116.81 25.1117 116.514 25.4317 116.294C25.7518 116.074 26.1212 115.937 26.5072 115.894C26.8932 115.851 27.2839 115.904 27.6445 116.048C28.0052 116.192 28.3248 116.422 28.5749 116.72C28.9548 117.173 28.9991 117.55 28.9585 117.557Z" fill="black"/>
</g>
<g opacity="0.3">
<path d="M27.7893 118.767C27.6786 118.796 27.4204 118.151 26.8855 117.535C26.3507 116.919 25.7421 116.579 25.7789 116.476C25.8158 116.373 26.5609 116.579 27.1696 117.28C27.7782 117.981 27.8889 118.752 27.7893 118.767Z" fill="black"/>
</g>
<g opacity="0.3">
<path d="M27.022 117.398C27.0699 117.505 26.6974 117.723 26.4355 118.11C26.1736 118.498 25.9965 118.918 25.8822 118.877C25.7678 118.837 25.7863 118.391 26.1145 117.885C26.4428 117.38 26.9924 117.306 27.022 117.398Z" fill="black"/>
</g>
<path d="M28.3573 176.683L23.8092 143.898H43.3703L39.3791 176.683H28.3573Z" fill="#263238"/>
<path d="M41.9612 156.72C41.9612 156.808 38.2947 156.882 33.776 156.882C29.2574 156.882 25.5872 156.808 25.5872 156.72C25.5872 156.631 29.2537 156.554 33.776 156.554C38.2983 156.554 41.9612 156.627 41.9612 156.72Z" fill="#FAFAFA"/>
<path d="M41.5518 158.826C41.5518 158.918 38.0439 158.992 33.7171 158.992C29.3902 158.992 25.886 158.918 25.886 158.826C25.886 158.734 29.3902 158.678 33.7171 158.678C38.0439 158.678 41.5518 158.737 41.5518 158.826Z" fill="#FAFAFA"/>
<path d="M41.3082 160.844C41.3082 160.936 37.9146 161.01 33.7354 161.01C29.5561 161.01 26.1588 160.936 26.1588 160.844C26.1588 160.751 29.5524 160.681 33.7354 160.681C37.9183 160.681 41.3082 160.755 41.3082 160.844Z" fill="#FAFAFA"/>
<path d="M41.0389 163.035C41.0389 163.127 37.7781 163.201 33.7538 163.201C29.7294 163.201 26.465 163.127 26.465 163.035C26.465 162.942 29.7258 162.872 33.7538 162.872C37.7818 162.872 41.0389 162.946 41.0389 163.035Z" fill="#FAFAFA"/>
<path d="M40.7956 165.038C40.7956 165.13 37.6824 165.204 33.8424 165.204C30.0025 165.204 26.8893 165.13 26.8893 165.038C26.8893 164.945 30.0025 164.872 33.8424 164.872C37.6824 164.872 40.7956 164.949 40.7956 165.038Z" fill="#FAFAFA"/>
<path d="M40.4082 167.041C40.4082 167.129 37.4093 167.203 33.7133 167.203C30.0172 167.203 27.0183 167.129 27.0183 167.041C27.0183 166.952 30.0172 166.875 33.7133 166.875C37.4093 166.875 40.4082 166.948 40.4082 167.041Z" fill="#FAFAFA"/>
<path d="M40.3086 169.044C40.3086 169.132 37.3945 169.206 33.8017 169.206C30.209 169.206 27.2986 169.132 27.2986 169.044C27.2986 168.955 30.209 168.878 33.8017 168.878C37.3945 168.878 40.3086 168.951 40.3086 169.044Z" fill="#FAFAFA"/>
<path d="M40.0651 171.046C40.0651 171.135 37.269 171.209 33.8201 171.209C30.3712 171.209 27.5752 171.135 27.5752 171.046C27.5752 170.958 30.3712 170.88 33.8201 170.88C37.269 170.88 40.0651 170.954 40.0651 171.046Z" fill="#FAFAFA"/>
<path d="M84.3182 33.9567C83.7317 34.9121 82.3411 35.1002 81.3267 34.6318C80.3123 34.1633 79.6115 33.2043 79.0582 32.2304C78.5049 31.2566 78.0475 30.2127 77.306 29.3791C76.6712 28.6701 75.8541 28.1487 74.9436 27.8716C74.0331 27.5946 73.0641 27.5725 72.1419 27.8077C71.2288 28.0724 70.4161 28.6046 69.8085 29.3358C69.2009 30.0669 68.8265 30.9634 68.7336 31.9095C68.5749 34.1891 70.2496 36.2917 72.3079 37.2766C74.3662 38.2614 76.7343 38.3426 79.0176 38.2504" fill="#263238"/>
<path d="M111.998 35.5429C114.211 34.4842 117.033 35.7789 118.295 37.8889C119.556 39.9988 119.56 42.6436 119.069 45.0523C118.608 47.3356 117.856 50.0504 119.482 51.7177C120.755 53.0272 123.086 53.101 123.986 54.6871C125.285 56.963 122.374 59.6299 122.773 62.2194C123.027 63.8572 124.543 64.9933 126.059 65.6572C127.575 66.3212 129.246 66.7159 130.545 67.7413C131.843 68.7668 132.629 70.7439 131.651 72.0977L123.167 74.7609L121.441 71.7804C122.039 73.0383 121.769 74.5765 121.072 75.7716C120.375 76.9667 119.261 77.8815 118.14 78.7041C113.75 81.9096 108.428 84.1375 103.016 83.8387" fill="#263238"/>
<path d="M75.1187 39.9582C75.0523 37.6897 77.1585 35.945 79.2537 35.1076C81.3489 34.2703 83.7023 33.9641 85.5798 32.6989C87.2434 31.5923 88.3611 29.8328 89.7701 28.409C91.5075 26.6483 93.6822 25.3819 96.0709 24.7396C98.4597 24.0973 100.976 24.1024 103.362 24.7543C105.748 25.4062 107.918 26.6815 109.648 28.4491C111.379 30.2167 112.607 32.4131 113.208 34.8125C114.02 38.0364 113.466 41.8468 110.925 43.99C107.974 46.4761 103.603 45.9228 99.8255 45.1519C96.0483 44.381 91.7694 43.6137 88.6156 45.8343C86.7122 47.1733 85.6241 49.3496 84.4584 51.3673C83.2928 53.385 81.8358 55.4249 79.6373 56.1958C77.4389 56.9667 74.4511 55.6462 74.3662 53.3186" fill="#263238"/>
<path d="M75.2699 41.2013C75.517 43.0973 74.1633 44.7978 72.78 46.1368C71.3968 47.4757 69.8697 48.8959 69.6262 50.7919C69.3459 53.0051 70.9652 55.1962 70.493 57.3799C70.198 58.7668 69.1172 59.8365 68.4643 61.0943C67.5924 62.9109 67.4485 64.9922 68.0622 66.9114C68.6229 68.8221 69.5377 73.0862 70.8508 74.5728C74.5211 78.6783 80.3713 82.2194 85.7384 83.4551C91.1054 84.6908 96.6827 84.6945 102.182 84.3589C106.683 84.0785 111.858 84.2888 115.609 78.0881C117.553 74.8789 118.516 70.6148 119.549 67.0221C120.438 63.9199 121.205 60.5964 120.287 57.5016C119.748 55.6978 118.664 54.0969 118.132 52.2932C117.468 50.0357 117.712 47.627 117.443 45.2847C117.152 42.7453 116.26 40.3118 114.84 38.1866C113.421 36.0613 111.514 34.3056 109.279 33.0653C107.044 31.8251 104.546 31.1361 101.991 31.0557C99.4365 30.9753 96.8996 31.5057 94.5912 32.603" fill="#263238"/>
<path d="M115.285 48.9807C114.864 42.5182 110.567 34.5949 104.13 35.2994L84.0416 40.423C83.0989 40.5244 82.2285 40.9761 81.6028 41.6885C80.9771 42.401 80.6417 43.3223 80.6628 44.2703L81.9538 88.409C82.0446 91.4809 83.346 94.3924 85.5744 96.5088C87.8027 98.6253 90.7773 99.775 93.8498 99.7075C96.8912 99.641 99.7858 98.3875 101.915 96.2148C104.044 94.0422 105.239 91.1228 105.244 88.0807C105.244 84.9343 105.244 81.2309 105.244 81.2456C105.244 81.2604 113.496 79.8587 115.181 69.073C116.041 63.7281 115.753 56.1552 115.285 48.9807Z" fill="#FFBE9D"/>
<path d="M111.703 57.3098C111.709 57.6742 111.571 58.0262 111.319 58.2893C111.067 58.5525 110.721 58.7055 110.357 58.7152C110.181 58.7292 110.005 58.708 109.837 58.6528C109.67 58.5975 109.516 58.5094 109.383 58.3936C109.25 58.2778 109.142 58.1366 109.065 57.9783C108.987 57.82 108.943 57.6479 108.933 57.4721C108.928 57.1124 109.063 56.765 109.311 56.5038C109.558 56.2427 109.898 56.0885 110.257 56.0741C110.434 56.0574 110.612 56.0764 110.781 56.13C110.95 56.1835 111.107 56.2705 111.242 56.3858C111.377 56.501 111.487 56.6422 111.566 56.8009C111.645 56.9597 111.692 57.1327 111.703 57.3098Z" fill="#263238"/>
<path d="M113.392 53.551C113.219 53.7318 112.171 52.9608 110.685 52.9682C109.198 52.9756 108.103 53.706 107.952 53.5363C107.87 53.4588 108.048 53.1305 108.52 52.7985C109.162 52.3538 109.926 52.1169 110.707 52.1198C111.48 52.1157 112.234 52.3573 112.861 52.8096C113.308 53.1453 113.477 53.4699 113.392 53.551Z" fill="#263238"/>
<path d="M97.4462 57.3098C97.4503 57.6698 97.3139 58.0172 97.066 58.2783C96.818 58.5393 96.478 58.6934 96.1183 58.7078C95.9425 58.7218 95.7657 58.7006 95.5983 58.6455C95.4308 58.5903 95.2761 58.5022 95.1431 58.3864C95.0102 58.2706 94.9017 58.1295 94.824 57.9712C94.7463 57.8129 94.701 57.6407 94.6908 57.4647C94.6866 57.1047 94.823 56.7572 95.071 56.4962C95.319 56.2351 95.6589 56.0811 96.0187 56.0667C96.1945 56.0521 96.3715 56.0729 96.5392 56.1279C96.7069 56.1829 96.8618 56.271 96.9949 56.3868C97.128 56.5027 97.2365 56.6441 97.314 56.8026C97.3915 56.9611 97.4365 57.1336 97.4462 57.3098Z" fill="#263238"/>
<path d="M98.7852 53.8609C98.6118 54.0416 97.5643 53.2707 96.0777 53.278C94.5912 53.2854 93.4956 54.0158 93.3444 53.8461C93.2633 53.7686 93.4366 53.4403 93.9125 53.1084C94.5542 52.6621 95.3182 52.425 96.0999 52.4296C96.8729 52.4255 97.6272 52.6671 98.254 53.1194C98.7114 53.4551 98.8664 53.7797 98.7852 53.8609Z" fill="#263238"/>
<path d="M104.2 64.8679C104.2 64.7867 105.119 64.6244 106.616 64.4289C106.985 64.3884 107.354 64.3109 107.417 64.0601C107.479 63.8092 107.347 63.3777 107.162 62.935C106.801 62.0202 106.425 61.0587 106.034 60.0505C104.466 55.9376 103.33 52.5588 103.496 52.496C103.662 52.4333 105.067 55.7163 106.635 59.8291C107.011 60.8398 107.371 61.8075 107.716 62.7321C107.859 63.1637 108.107 63.6506 107.915 64.2076C107.861 64.3417 107.776 64.4614 107.668 64.5574C107.56 64.6534 107.431 64.723 107.291 64.7609C107.083 64.8203 106.867 64.8513 106.65 64.8531C105.141 64.9453 104.208 64.9527 104.2 64.8679Z" fill="#263238"/>
<path d="M90.9836 77.4131C90.9836 77.4131 94.4953 84.8089 105.263 83.7982V81.264C100.238 81.3267 95.2951 79.9935 90.9836 77.4131Z" fill="#EB996E"/>
<path d="M103.581 68.4533C103.297 68.0981 102.928 67.8209 102.508 67.648C102.088 67.475 101.631 67.412 101.179 67.4647C100.852 67.4948 100.534 67.5907 100.244 67.7466C99.9543 67.9026 99.6991 68.1153 99.4936 68.3721C99.295 68.6198 99.1775 68.9226 99.157 69.2394C99.1366 69.5562 99.2141 69.8716 99.3792 70.1427C99.7813 70.7071 100.619 70.8362 101.327 70.6333C102.029 70.3832 102.675 69.9958 103.227 69.4935C103.393 69.3747 103.535 69.2258 103.647 69.0546C103.702 68.9728 103.732 68.8765 103.732 68.7779C103.732 68.6793 103.702 68.583 103.647 68.5012" fill="#FF99BA"/>
<path d="M99.8291 65.9081C100.073 65.9081 100.08 67.5053 101.463 68.6487C102.846 69.7922 104.562 69.6078 104.576 69.8328C104.599 69.9361 104.208 70.1464 103.47 70.1685C102.53 70.1812 101.616 69.8626 100.888 69.2684C100.183 68.6978 99.7291 67.8745 99.6225 66.9741C99.5414 66.2991 99.7221 65.897 99.8291 65.9081Z" fill="#263238"/>
<path d="M99.1431 49.4935C98.9956 49.8992 97.5127 49.7111 95.7717 49.9251C94.0306 50.139 92.6178 50.6185 92.3855 50.2534C92.2822 50.08 92.5256 49.7001 93.0937 49.3091C93.8532 48.8249 94.7135 48.5209 95.6086 48.4205C96.5037 48.3202 97.4099 48.426 98.2578 48.7299C98.8812 48.9992 99.2058 49.3164 99.1431 49.4935Z" fill="#263238"/>
<path d="M112.835 49.25C112.574 49.5894 111.552 49.25 110.32 49.2279C109.088 49.2057 108.048 49.4603 107.804 49.1061C107.701 48.9365 107.863 48.5971 108.317 48.2762C108.926 47.8843 109.641 47.6898 110.364 47.7192C111.087 47.7293 111.789 47.9653 112.371 48.3942C112.806 48.7557 112.939 49.0877 112.835 49.25Z" fill="#263238"/>
<path d="M76.5242 75.8527C78.0119 76.1521 79.5495 76.0931 81.0099 75.6807C82.4703 75.2683 83.8116 74.5144 84.9231 73.4811C86.0345 72.4479 86.8841 71.1651 87.4018 69.7385C87.9194 68.312 88.0902 66.7828 87.9001 65.2773C87.5644 62.6325 86.1369 59.9398 87.0554 57.4388C88.2689 54.119 92.9056 53.112 94.1376 49.807C94.8532 47.8889 94.2114 45.6424 95.0229 43.7612C95.7865 41.9943 97.6455 40.9726 99.4493 40.3197C101.253 39.6668 103.204 39.2131 104.724 38.029C106.244 36.8449 107.196 34.617 106.2 32.9608C98.1557 33.9248 90.2554 35.8442 82.6658 38.6782C80.91 39.3311 79.0657 40.1205 78.0255 41.6845C76.9189 43.337 76.9779 45.4728 77.0701 47.4536C77.525 57.1253 77.9763 66.7946 78.4238 76.4614" fill="#263238"/>
<path d="M106.52 28.8811C106.797 31.596 107.07 34.3883 106.329 36.9962C105.587 39.6041 103.592 42.0792 100.899 42.5292C99.6263 42.7432 98.1951 42.5292 97.1475 43.267C94.9343 44.8716 96.7418 48.6266 95.4323 51.0353C94.2556 53.1932 91.0944 53.3887 89.5304 55.281C87.8041 57.3688 88.6967 60.5116 89.8993 62.935C91.1018 65.3585 92.592 68.0328 91.7879 70.6185C90.8878 73.5068 87.4352 75.045 86.5868 77.9479C86.0409 79.8218 86.6163 82.1272 85.2773 83.5474C84.2445 84.654 82.5293 84.654 81.0317 84.5249C74.8545 83.9682 68.874 82.0658 63.5104 78.9513C64.4194 77.453 64.9181 75.742 64.9564 73.99L61.9428 76.2032L54.9933 67.5422C55.699 65.7766 56.7547 64.1719 58.0967 62.8249C59.4387 61.4778 61.0393 60.4161 62.8022 59.7037C64.9048 58.8664 67.5975 58.1582 68.0881 55.9487C68.3611 54.7277 66.893 52.5034 67.686 49.6779C67.686 49.6779 69.0066 44.274 72.1346 42.7506C75.2626 41.2271 74.8273 40.3124 75.5097 38.2319" fill="#263238"/>
<path d="M56.7158 66.6348C56.7158 66.561 57.686 66.5942 59.4196 66.6126C60.4655 66.6291 61.5114 66.581 62.5513 66.4688C63.9119 66.3354 65.2408 65.9764 66.4835 65.4064C67.19 65.0681 67.8517 64.6431 68.4532 64.1412C69.0964 63.6057 69.6375 62.9584 70.0504 62.2305C70.4753 61.4396 70.7492 60.5765 70.8582 59.6853C71.0058 58.7484 71.0574 57.7487 71.2271 56.7011C71.3592 55.5889 71.7209 54.5161 72.2894 53.551C72.6129 53.0373 73.037 52.5944 73.5362 52.2489C74.0499 51.9147 74.6197 51.6761 75.2182 51.5444C76.3912 51.2714 77.5569 51.3009 78.6598 51.1755C79.7627 51.0501 80.8177 50.7587 81.5185 49.9693C82.2194 49.1346 82.6831 48.1269 82.8612 47.0516C83.0936 45.9708 83.1673 44.8384 83.3924 43.6912C83.571 42.5286 84.0279 41.4264 84.724 40.4783C85.0849 40.0296 85.5056 39.6324 85.9744 39.298C86.4343 38.9791 86.9294 38.7142 87.4499 38.5086C89.4565 37.6897 91.5443 37.6897 93.3887 37.8926C95.233 38.0954 96.9003 38.3795 98.4237 38.4422C99.1435 38.4835 99.8655 38.4625 100.582 38.3795C101.211 38.3005 101.83 38.1508 102.426 37.9331C103.394 37.5949 104.276 37.047 105.008 36.3286C105.47 35.8706 105.834 35.3234 106.078 34.7203C106.247 34.3072 106.303 34.0711 106.343 34.0785C106.371 34.3167 106.342 34.5582 106.258 34.783C106.082 35.4519 105.748 36.069 105.285 36.5831C104.555 37.3979 103.644 38.0297 102.625 38.4274C101.995 38.6875 101.336 38.8732 100.663 38.9807C99.9121 39.0928 99.1529 39.1385 98.3942 39.1172C96.8081 39.0951 95.1113 38.8258 93.3112 38.6819C92.3945 38.6025 91.4725 38.6025 90.5558 38.6819C89.6008 38.7661 88.6636 38.9911 87.7745 39.3496C86.8643 39.7121 86.0627 40.3028 85.447 41.0648C84.8493 41.9024 84.4621 42.8716 84.3182 43.8904C84.1117 44.9564 84.0416 46.1036 83.7944 47.2729C83.5841 48.5207 83.0398 49.6883 82.2194 50.6517C81.7682 51.1427 81.2086 51.5216 80.5853 51.7583C79.9991 51.9713 79.3879 52.1077 78.7668 52.1641C77.579 52.2969 76.4466 52.271 75.4469 52.5071C74.9585 52.6083 74.4923 52.797 74.0711 53.0641C73.6732 53.3366 73.3344 53.6867 73.0751 54.0933C72.5638 54.944 72.2324 55.8906 72.1013 56.8745C71.939 57.8594 71.8763 58.8627 71.7066 59.8513C71.5656 60.8372 71.2442 61.7888 70.7586 62.6584C70.2835 63.4584 69.6674 64.1658 68.9401 64.7462C68.2791 65.2722 67.554 65.7122 66.7822 66.0556C65.4607 66.6195 64.052 66.9514 62.6177 67.0368C61.5531 67.1139 60.4843 67.1139 59.4196 67.0368C57.6638 66.8524 56.7121 66.6938 56.7158 66.6348Z" fill="#E0E0E0"/>
<path d="M80.3086 33.5952C80.423 33.6469 80.3676 34.0748 80.1021 34.7018C79.7375 35.5052 79.2413 36.242 78.634 36.8818C78.0424 37.532 77.3529 38.0859 76.5904 38.5233C76.0002 38.8442 75.5834 38.9475 75.517 38.8368C75.3769 38.6008 76.6236 37.6417 77.9257 36.2289C79.2278 34.8162 80.0541 33.4846 80.3086 33.5952Z" fill="#9393E3"/>
<path d="M127.162 156.259L129.147 176.705L66.8892 176.683L78.9179 152.404L127.162 156.259Z" fill="#9393E3"/>
<path d="M129.051 132.337L141.165 150.194C141.165 150.194 143.64 130.6 143.868 131.039C144.097 131.478 130.294 112.278 130.294 112.278L129.051 132.337Z" fill="#EB996E"/>
<path d="M79.0398 88.9144C78.5602 88.9144 63.1231 95.1851 61.3562 98.0844C59.5894 100.984 70.6259 155.359 70.6259 155.359L127.162 156.52L127.719 130.53L131.935 95.7569L108.557 87.8779L105.44 85.163L99.1062 96.1921L81.7067 85.045L79.0398 88.9144Z" fill="#9393E3"/>
<g opacity="0.3">
<path d="M76.6937 174.909C80.4414 173.931 83.5325 171.176 85.683 167.955C87.8335 164.735 89.1541 161.043 90.423 157.384C91.6919 153.724 92.9424 150.006 94.9711 146.72C96.4687 144.289 98.3573 142.127 100.235 139.98C101.083 138.915 102.076 137.974 103.186 137.184C104.606 136.27 106.292 135.882 107.937 135.506L116.598 133.54C117.693 133.356 118.75 132.988 119.722 132.452C120.659 131.862 121.419 130.862 121.412 129.752C117.092 130.187 112.732 130.054 108.416 130.515C104.101 130.976 99.7185 132.105 96.2695 134.743C92.8206 137.38 90.5705 141.356 88.8258 145.366C84.5875 155.115 82.603 165.882 76.9888 174.909" fill="black"/>
</g>
<path d="M61.3563 98.0844C61.3563 98.0844 56.668 101.161 55.4544 110.954C54.5396 118.232 52.7137 138.833 52.7137 138.833L75.0192 136.97L61.3563 98.0844Z" fill="#9393E3"/>
<path d="M52.6952 138.833C52.7322 138.821 52.7707 138.815 52.8095 138.815L53.1378 138.778L54.4141 138.653L59.1061 138.228L74.5986 136.908L74.997 136.875L74.9084 136.982C74.1227 131.058 73.433 125.713 72.9018 121.836L72.3153 117.258C72.2526 116.727 72.2046 116.31 72.1677 116.011C72.1677 115.879 72.1419 115.772 72.1345 115.687C72.1304 115.65 72.1304 115.613 72.1345 115.576C72.147 115.612 72.1556 115.649 72.1604 115.687C72.1604 115.768 72.1899 115.875 72.212 116.008C72.2563 116.303 72.319 116.72 72.3964 117.247C72.5514 118.354 72.7653 119.896 73.0419 121.817C73.5694 125.694 74.2998 131.039 75.1076 136.941V137.041H75.0043L74.606 137.074L59.1135 138.339L54.4178 138.708L53.1378 138.796L52.8059 138.815L52.6952 138.833Z" fill="#263238"/>
<path d="M98.9217 96.0483C98.7955 96.0285 98.6718 95.9951 98.5529 95.9487L97.5348 95.6241L93.8941 94.4068L93.9863 94.3699L92.2821 97.2582L92.2378 97.3319L92.1604 97.2914C91.2677 96.8598 90.316 96.3766 89.3385 95.8565C86.8837 94.542 84.4977 93.1027 82.1899 91.5444C81.3046 90.9505 80.6037 90.4378 80.1205 90.0911L79.5709 89.7001C79.5043 89.6548 79.4425 89.6029 79.3865 89.5451C79.4598 89.5776 79.5291 89.6185 79.593 89.6669L80.1611 90.0542C80.6591 90.3862 81.371 90.8731 82.2673 91.4522C84.0527 92.6178 86.5646 94.1707 89.4418 95.6979C90.4119 96.218 91.3636 96.7012 92.2526 97.1364L92.1346 97.1733L93.8609 94.2998L93.8941 94.2445L93.9568 94.2666L97.5754 95.5466L98.5824 95.9155C98.6985 95.9515 98.8119 95.9959 98.9217 96.0483Z" fill="#263238"/>
<path d="M108.28 87.9738C108.289 88.0324 108.289 88.0921 108.28 88.1508C108.28 88.2688 108.258 88.4385 108.225 88.6598C108.136 89.2809 108.012 89.8966 107.856 90.5042C107.628 91.4061 107.335 92.29 106.978 93.149C106.775 93.6322 106.546 94.1338 106.281 94.6244C106.148 94.879 106.008 95.1335 105.857 95.388C105.782 95.5197 105.694 95.6433 105.595 95.7569C105.537 95.8259 105.464 95.8805 105.381 95.9164C105.299 95.9523 105.209 95.9684 105.119 95.9634C104.948 95.9356 104.793 95.8511 104.676 95.7237C104.562 95.613 104.473 95.495 104.377 95.388L103.813 94.7277L102.747 93.481C102.597 93.2883 102.411 93.1257 102.201 93.0014C102.111 92.9469 102.006 92.9212 101.9 92.9278C101.795 92.9344 101.694 92.973 101.611 93.0383C101.448 93.1798 101.304 93.3423 101.183 93.5215L100.814 94.0195L99.6743 95.495L99.3571 95.8934C99.3204 95.9411 99.2797 95.9855 99.2354 96.0261C99.2354 96.0261 99.2612 95.9671 99.3239 95.8712L99.6116 95.4507L100.718 93.931L101.087 93.4293C101.212 93.2339 101.364 93.0564 101.537 92.9018C101.645 92.8185 101.774 92.7686 101.91 92.7581C102.046 92.7476 102.182 92.7771 102.301 92.8428C102.532 92.9747 102.737 93.15 102.902 93.3592C103.245 93.7539 103.606 94.167 103.975 94.5986L104.543 95.2552C104.735 95.4691 104.912 95.7347 105.159 95.7679C105.407 95.8011 105.576 95.5134 105.716 95.27C105.857 95.0265 106.004 94.7683 106.137 94.5322C106.402 94.0343 106.635 93.54 106.838 93.0568C107.198 92.2087 107.501 91.3374 107.745 90.4489C107.955 89.689 108.081 89.0619 108.162 88.6266C108.188 88.4069 108.228 88.1888 108.28 87.9738Z" fill="#263238"/>
<path d="M118.616 147.612C118.641 147.66 113.746 150.401 107.682 153.739C101.618 157.077 96.6827 159.741 96.6568 159.696C96.631 159.652 101.526 156.908 107.59 153.57C113.654 150.231 118.59 147.55 118.616 147.612Z" fill="#263238"/>
<path d="M115.237 158.372C115.237 158.424 112.087 158.638 108.195 158.844C104.304 159.051 101.15 159.176 101.146 159.125C101.142 159.073 104.296 158.859 108.188 158.653C112.079 158.446 115.233 158.31 115.237 158.372Z" fill="#263238"/>
<path d="M129.453 134.99L126.288 131.733L129.464 115.078L132.644 126.259L129.453 134.99Z" fill="#9393E3"/>
<path d="M127.092 155.307C127.089 155.279 127.089 155.25 127.092 155.222V154.99C127.092 154.744 127.092 154.423 127.092 154.027C127.092 153.171 127.133 151.969 127.159 150.486C127.218 147.498 127.302 143.37 127.35 138.811C127.398 134.252 127.391 130.117 127.313 127.133C127.284 125.639 127.221 124.433 127.17 123.599C127.14 123.193 127.118 122.861 127.1 122.636C127.1 122.537 127.1 122.456 127.1 122.389C127.095 122.36 127.095 122.33 127.1 122.301C127.111 122.328 127.117 122.356 127.118 122.385L127.151 122.633C127.177 122.869 127.214 123.19 127.258 123.592C127.328 124.425 127.413 125.631 127.461 127.129C127.572 130.117 127.601 134.248 127.553 138.811C127.505 143.374 127.402 147.502 127.306 150.489C127.254 151.965 127.21 153.175 127.177 154.027C127.159 154.433 127.144 154.765 127.129 154.99C127.129 155.089 127.129 155.174 127.129 155.241C127.119 155.264 127.107 155.286 127.092 155.307Z" fill="#263238"/>
<path d="M116.447 86.7934C116.113 86.6776 115.755 86.6534 115.409 86.7235C115.063 86.7936 114.743 86.9553 114.481 87.1917C113.603 88.0143 113.713 88.9476 113.986 89.8255C114.102 90.3007 114.397 90.7129 114.809 90.9763L118.427 89.2759L116.447 86.7934Z" fill="#EB996E"/>
<path d="M113.149 92.5367C113.149 92.5367 111.633 93.5732 111.578 93.8867C111.537 94.1117 111.814 94.3957 112.242 94.2556C112.73 94.0316 113.204 93.7778 113.662 93.4957L113.149 92.5367Z" fill="#9393E3"/>
<g opacity="0.3">
<path d="M113.149 92.5367C113.149 92.5367 111.633 93.5732 111.578 93.8867C111.537 94.1117 111.814 94.3957 112.242 94.2556C112.73 94.0316 113.204 93.7778 113.662 93.4957L113.149 92.5367Z" fill="black"/>
</g>
<path d="M116.712 88.7115L112.537 92.651L113.466 93.942L117.977 92.3301L141.002 79.2611C141.202 79.1479 141.377 78.9952 141.516 78.8123C141.655 78.6294 141.755 78.4201 141.811 78.1972C141.866 77.9743 141.876 77.7424 141.839 77.5156C141.802 77.2888 141.719 77.072 141.596 76.8782C141.365 76.5154 141.005 76.2542 140.588 76.148C140.171 76.0417 139.73 76.0984 139.353 76.3065L116.712 88.7115Z" fill="#455A64"/>
<path d="M160.711 138.243C160.453 134.503 137.033 102.16 135.569 100.143L131.511 91.7436L129.792 84.6687C129.792 84.6687 120.611 79.3717 119.884 79.3717C119.158 79.3717 115.583 83.942 115.521 84.6687C115.511 84.8987 115.547 85.1284 115.627 85.3444C115.706 85.5603 115.828 85.7582 115.986 85.9265L116.447 90.5558C116.145 91.1684 116.099 91.8752 116.318 92.5219C116.712 93.4662 118.298 93.4662 118.298 93.4662L117.704 95.4655C117.704 95.4655 117.837 97.6971 118.232 98.0918C118.387 98.2467 119.169 98.3574 120.039 98.1951C120.803 98.0549 121.017 96.9446 120.98 96.4135C121.223 96.8081 122.053 96.4135 122.053 96.4135C122.131 97.3541 123.112 98.0549 123.112 98.0549C123.112 98.0549 124.514 103.713 124.713 104.44C124.912 105.167 126.166 107.022 128.033 107.682C128.189 107.737 128.342 107.801 128.49 107.874C129.829 112.939 139.191 147.845 141.164 150.194C143.293 152.721 149.058 154.304 154.248 154.038C159.438 153.772 160.976 142.101 160.711 138.243Z" fill="#FFBE9D"/>
<path d="M124.824 83.835C124.391 83.8965 123.955 83.9249 123.518 83.9199C122.71 83.9457 121.596 83.9678 120.364 83.9715C119.748 83.9715 119.161 83.9715 118.63 83.9715C118.361 83.9715 118.107 83.9715 117.867 83.942C117.66 83.9339 117.454 83.9824 117.273 84.0822C116.996 84.2287 116.74 84.4124 116.513 84.6281C116.347 84.7793 116.262 84.8716 116.251 84.8605C116.24 84.8494 116.31 84.7461 116.461 84.5765C116.672 84.3322 116.921 84.1241 117.199 83.9605C117.401 83.8407 117.632 83.7794 117.867 83.7834C118.099 83.7834 118.354 83.7834 118.605 83.7834H123.492C123.937 83.7673 124.382 83.7846 124.824 83.835Z" fill="#EB996E"/>
<path d="M122.057 83.8351C122.057 83.8572 121.839 83.7982 121.555 83.6064C121.189 83.3527 120.856 83.0527 120.567 82.7137L120.464 82.592L120.622 82.4887C120.672 82.6207 120.672 82.7661 120.622 82.8981C120.583 83.0083 120.527 83.1116 120.456 83.2043C120.35 83.3528 120.226 83.4878 120.087 83.6064C119.848 83.8092 119.678 83.8941 119.663 83.8756C119.648 83.8572 119.789 83.7318 119.999 83.5068C120.119 83.3809 120.229 83.2452 120.327 83.101C120.389 83.0288 120.432 82.9428 120.453 82.8503C120.474 82.7578 120.473 82.6616 120.449 82.5698L120.183 81.9649L120.611 82.4666L120.711 82.5846C120.994 82.9117 121.304 83.2151 121.637 83.492C121.887 83.7096 122.072 83.7982 122.057 83.8351Z" fill="#EB996E"/>
<path d="M124.163 87.9664C123.784 88.0006 123.404 88.0153 123.024 88.0107C122.319 88.0291 121.349 88.0807 120.279 88.173C119.378 88.2237 118.498 88.4651 117.697 88.8812C117.081 89.2132 116.753 89.5046 116.731 89.4788C116.709 89.4529 116.797 89.3865 116.945 89.2574C117.158 89.0736 117.386 88.9083 117.627 88.7632C118.438 88.2965 119.348 88.0285 120.283 87.9812C121.199 87.8988 122.119 87.8631 123.038 87.8742C123.416 87.8632 123.793 87.8941 124.163 87.9664Z" fill="#EB996E"/>
<path d="M119.825 88.1213C119.399 88.1318 118.982 87.9941 118.646 87.7318C118.31 87.4695 118.075 87.0988 117.981 86.6828C118.213 87.0079 118.475 87.3105 118.763 87.5865C119.1 87.7969 119.456 87.9759 119.825 88.1213Z" fill="#EB996E"/>
<path d="M124.071 90.6923C123.843 90.8695 123.584 91.0033 123.308 91.087C122.652 91.3033 121.979 91.4662 121.297 91.5739C120.624 91.6761 119.962 91.8479 119.324 92.0866C118.844 92.2821 118.586 92.4555 118.557 92.4555C118.756 92.2459 118.999 92.0823 119.269 91.9759C119.904 91.6967 120.574 91.502 121.26 91.3968C121.935 91.2929 122.604 91.1513 123.263 90.9726C123.761 90.8066 124.056 90.6665 124.071 90.6923Z" fill="#EB996E"/>
<path d="M120.375 94.44C120.375 94.44 120.571 94.488 120.81 94.6945C121.132 94.9775 121.332 95.3741 121.367 95.8012C121.402 96.039 121.357 96.2818 121.238 96.4909C121.143 96.657 121.018 96.8045 120.869 96.9262C120.611 97.1291 120.394 97.1328 120.394 97.1106C120.394 97.0885 120.574 97.0295 120.762 96.8229C120.88 96.6998 120.979 96.5592 121.054 96.4061C121.144 96.2258 121.177 96.0228 121.15 95.8233C121.109 95.4438 120.946 95.0878 120.685 94.8089C120.515 94.5728 120.357 94.4659 120.375 94.44Z" fill="#EB996E"/>
<path d="M123.145 94.1486C123.167 94.1486 123.123 94.3109 123.016 94.547C122.881 94.865 122.663 95.1413 122.385 95.3474C122.225 95.4628 122.036 95.534 121.839 95.554C121.678 95.5712 121.515 95.5445 121.367 95.4765C121.113 95.3548 121.046 95.1777 121.069 95.1704C121.091 95.163 121.19 95.281 121.415 95.3511C121.561 95.3921 121.715 95.3988 121.864 95.3706C122.013 95.3424 122.154 95.2802 122.275 95.1888C122.526 95.0007 122.738 94.7651 122.898 94.4953C123.031 94.2703 123.119 94.1265 123.145 94.1486Z" fill="#EB996E"/>
<path d="M123.972 96.9741C123.972 96.9963 123.813 97.0553 123.547 97.0258C123.194 96.9832 122.868 96.8142 122.629 96.5499C122.395 96.2817 122.265 95.9392 122.26 95.5835C122.26 95.3142 122.334 95.163 122.356 95.1704C122.378 95.1777 122.356 95.3327 122.397 95.5761C122.434 95.8877 122.562 96.1814 122.765 96.4208C122.978 96.6533 123.256 96.8165 123.562 96.8893C123.809 96.952 123.968 96.9446 123.972 96.9741Z" fill="#EB996E"/>
<path d="M139.696 80.5226C138.765 79.6061 138.055 78.4881 137.623 77.2544C137.668 77.2544 138.059 77.9922 138.634 78.9033C139.21 79.8144 139.733 80.4783 139.696 80.5226Z" fill="#263238"/>
<path d="M140.091 79.925C138.124 81.0734 136.123 82.1653 134.09 83.2006L134.053 83.2227C134.036 83.2531 134.026 83.2869 134.023 83.3217C134.021 83.3564 134.026 83.3913 134.039 83.4237C134.052 83.4562 134.071 83.4854 134.097 83.5093C134.122 83.5332 134.152 83.5512 134.186 83.5621C134.324 83.5994 134.472 83.5864 134.602 83.5252C134.941 83.3885 135.268 83.2244 135.58 83.0346L139.582 80.755C139.745 80.676 139.89 80.5657 140.01 80.4304C140.07 80.3626 140.11 80.2791 140.124 80.1895C140.139 80.1 140.127 80.0082 140.091 79.925Z" fill="#263238"/>
<path d="M80.626 139.652L74.145 149.652L73.7761 137.07L55.6794 138.582C55.6499 139.073 56.9815 153.879 58.9992 166.653C59.8735 172.223 65.554 176.45 71.194 176.45C73.3753 176.453 75.5121 175.833 77.3528 174.662C79.1936 173.492 80.6619 171.82 81.585 169.844L92.6511 142.079L80.626 139.652Z" fill="#FFBE9D"/>
<path d="M94.0306 100.253C94.0048 100.084 94.5802 97.7488 94.5802 97.7488C94.5802 97.7488 122.695 96.3434 122.758 96.3803L124.451 97.3983L94.0306 100.253Z" fill="white"/>
<path d="M94.0305 100.253L94.1928 100.228L94.6576 100.18L96.4282 99.9989L102.928 99.3607L124.444 97.3024L124.403 97.4832L123.462 96.9151L122.939 96.6016C122.859 96.5433 122.77 96.4973 122.677 96.4651C122.592 96.4769 122.507 96.483 122.422 96.4835L121.216 96.5389L118.844 96.6495L114.278 96.8672L106.03 97.2582L94.5949 97.7857L94.6281 97.7561C94.4326 98.5529 94.2813 99.1726 94.1744 99.6005C94.0674 100.028 94.0416 100.25 94.0416 100.25C94.0468 100.028 94.079 99.8073 94.1375 99.5931C94.226 99.1652 94.3625 98.5418 94.5543 97.7488V97.7229H94.5838L106.019 97.1143L114.263 96.6975L118.833 96.4725L121.205 96.3618L122.411 96.3065C122.526 96.3065 122.647 96.3065 122.762 96.3065C122.859 96.3398 122.951 96.387 123.035 96.4467L123.555 96.7639L124.495 97.3282L124.746 97.4795L124.455 97.5053L102.869 99.4898L96.3802 100.069L94.6281 100.22L94.1781 100.257L94.0305 100.253Z" fill="#263238"/>
<path d="M94.1781 100.711L94.0305 100.253L93.658 97.9074L67.3061 92.533L64.7424 94.4622L68.6008 128.671L95.3806 135.34L94.1781 100.711Z" fill="white"/>
<path d="M94.178 100.711C94.178 100.711 94.178 100.766 94.178 100.873C94.178 100.98 94.178 101.142 94.2002 101.349C94.2002 101.777 94.2444 102.4 94.2776 103.212C94.3403 104.849 94.4289 107.24 94.5469 110.272C94.7645 116.351 95.0781 125.027 95.4506 135.355V135.466L95.34 135.44L68.5786 128.763H68.5159V128.697L68.2245 126.148C66.9261 114.595 65.7051 103.75 64.6649 94.4917V94.4437L64.7018 94.4142L67.2839 92.4887L67.3134 92.4666H67.3466L93.6911 97.8926H93.7096V97.9111C93.9014 99.1763 94.0157 99.9398 94.0784 100.257C94.2039 100.659 94.2186 100.718 94.2186 100.718C94.2186 100.718 94.1965 100.663 94.0637 100.261C94.012 99.9398 93.8829 99.1837 93.6727 97.9185L93.6948 97.9406L67.3318 92.6178H67.3945L64.8309 94.5507L64.8641 94.4769C65.9117 103.735 67.14 114.577 68.4495 126.129C68.5491 127.004 68.6487 127.874 68.7372 128.682L68.6671 128.597L95.4433 135.277L95.3363 135.362C94.9932 125.034 94.7055 116.384 94.5026 110.309C94.4067 107.273 94.333 104.883 94.2813 103.245C94.2592 102.43 94.2407 101.806 94.2297 101.378C94.2297 101.168 94.2297 101.01 94.2297 100.895C94.2297 100.781 94.178 100.711 94.178 100.711Z" fill="#263238"/>
<path d="M63.739 94.1781L66.2178 128.737L95.3805 134.783L124.787 129.497L125.13 97.2766L95.8268 98.9402C95.8268 98.9402 95.6498 100.253 93.4993 100.205L92.0533 99.7112L65.2108 94.4658L63.739 94.1781Z" fill="#455A64"/>
<path d="M96.5904 136.325C96.5351 136.325 96.3249 127.955 96.1109 117.634C95.897 107.314 95.7752 98.9402 95.8269 98.9402C95.8785 98.9402 96.0925 107.306 96.3027 117.631C96.513 127.955 96.6421 136.321 96.5904 136.325Z" fill="#263238"/>
<path d="M92.839 135.336C92.839 135.336 92.839 135.307 92.839 135.248C92.839 135.189 92.839 135.086 92.8169 134.979C92.8169 134.724 92.78 134.377 92.7542 133.942C92.6988 133.042 92.6398 131.729 92.5734 130.124C92.4443 126.904 92.3189 122.448 92.223 117.531C92.1271 112.614 92.0755 108.155 92.057 104.931C92.057 103.33 92.057 102.028 92.057 101.109C92.057 100.674 92.057 100.327 92.057 100.073V99.8033C92.057 99.7406 92.057 99.7111 92.057 99.7111C92.0619 99.7417 92.0619 99.7728 92.057 99.8033V100.073C92.057 100.323 92.0755 100.67 92.0865 101.109C92.0865 102.028 92.1271 103.322 92.1603 104.927C92.2156 108.166 92.2931 112.614 92.3816 117.527C92.4701 122.441 92.5808 126.897 92.6767 130.121C92.7247 131.721 92.7652 133.02 92.7947 133.938C92.7947 134.377 92.8169 134.724 92.8243 134.975C92.8243 135.086 92.8243 135.174 92.8243 135.244C92.835 135.274 92.84 135.305 92.839 135.336Z" fill="#263238"/>
<path d="M102.478 126.712C103.905 125.303 105.303 123.868 105.624 123.348C106.329 122.205 105.181 121.412 104.392 121.057C103.603 120.703 93.2079 129.6 93.2079 129.6C93.2079 129.6 101.924 121.854 102.455 121.323C102.987 120.792 103.333 120.091 102.806 118.682C102.278 117.273 100.593 117.8 99.9877 117.889C99.3828 117.977 89.5119 126.255 89.5119 126.255C89.5119 126.255 95.233 120.722 95.7605 120.268C96.288 119.814 96.465 119.032 96.2917 117.977C96.1183 116.922 94.9711 117.011 94.1781 117.011C93.385 117.011 80.9984 128.014 80.9984 128.014L81.5886 133.824L79.4897 142.725L89.2463 146.506C90.921 145.801 94.0895 141.677 94.7055 140.869C95.3216 140.062 98.8442 134.09 98.8442 134.09C100.253 133.297 102.278 130.128 103.071 129.246C103.865 128.365 103.599 127.926 103.156 127.221C102.92 126.852 100.622 128.697 98.5455 130.46L99.0213 130.039C99.0213 130.039 100.766 128.394 102.478 126.712Z" fill="#FFBE9D"/>
<path d="M84.7756 130.316C84.7756 130.335 84.5986 130.482 84.2297 130.571C83.7415 130.684 83.2288 130.624 82.7801 130.401C82.3341 130.171 81.9811 129.795 81.7804 129.335C81.6833 129.154 81.641 128.949 81.6587 128.745C81.6919 128.745 81.7362 128.962 81.9022 129.276C82.1221 129.681 82.4571 130.012 82.8649 130.228C83.2799 130.431 83.7466 130.504 84.2039 130.438C84.558 130.386 84.7646 130.276 84.7756 130.316Z" fill="#EB996E"/>
<path d="M88.7963 133.632C88.6315 133.7 88.45 133.715 88.2762 133.677C87.8476 133.624 87.4476 133.434 87.1363 133.134C86.8251 132.835 86.6193 132.443 86.5499 132.017C86.5036 131.845 86.5113 131.663 86.572 131.496C86.6052 131.496 86.6052 131.692 86.6827 131.987C86.7841 132.37 86.9867 132.72 87.2692 132.998C87.5578 133.269 87.9149 133.456 88.302 133.54C88.5934 133.595 88.7963 133.595 88.7963 133.632Z" fill="#EB996E"/>
<path d="M93.256 136.97C93.053 137.006 92.8441 136.987 92.651 136.915C92.1634 136.781 91.7252 136.508 91.3894 136.129C91.0536 135.751 90.8345 135.283 90.7587 134.783C90.7081 134.581 90.7145 134.369 90.7772 134.171C90.8067 134.171 90.8067 134.403 90.8915 134.757C90.9983 135.219 91.219 135.646 91.5334 136.001C91.8478 136.355 92.246 136.625 92.6916 136.786C92.8829 136.837 93.0713 136.899 93.256 136.97Z" fill="#EB996E"/>
<path d="M75.565 147.66C75.6092 147.69 73.551 150.892 70.9689 154.809C68.3868 158.726 66.2621 161.884 66.2179 161.854C66.1736 161.825 68.2282 158.623 70.8103 154.706C73.3923 150.788 75.5207 147.631 75.565 147.66Z" fill="#EB996E"/>
<path d="M107.553 109.516L107.343 111.994L106.974 112.035L105.79 110.453L105.642 112.186L105.196 112.238L105.406 109.759L105.775 109.715L106.963 111.301L107.107 109.567L107.553 109.516Z" fill="#263238"/>
<path d="M107.937 110.914C107.91 110.72 107.922 110.522 107.975 110.333C108.027 110.144 108.117 109.968 108.24 109.815C108.364 109.663 108.517 109.537 108.69 109.446C108.864 109.355 109.054 109.301 109.25 109.287C109.988 109.206 110.456 109.578 110.526 110.194C110.554 110.389 110.54 110.587 110.488 110.776C110.435 110.965 110.344 111.142 110.22 111.294C110.096 111.446 109.942 111.571 109.767 111.661C109.593 111.751 109.402 111.805 109.206 111.817C108.483 111.899 108.007 111.526 107.937 110.914ZM110.084 110.272C110.076 110.176 110.047 110.083 110 109.999C109.952 109.916 109.887 109.844 109.809 109.788C109.73 109.732 109.64 109.695 109.546 109.678C109.451 109.661 109.354 109.664 109.261 109.689C109.127 109.703 108.996 109.744 108.878 109.81C108.76 109.876 108.657 109.966 108.575 110.073C108.494 110.181 108.435 110.304 108.402 110.435C108.37 110.566 108.364 110.703 108.387 110.836C108.395 110.932 108.423 111.024 108.47 111.108C108.518 111.191 108.583 111.263 108.661 111.318C108.739 111.374 108.828 111.412 108.922 111.429C109.016 111.446 109.113 111.443 109.206 111.419C109.341 111.406 109.471 111.365 109.589 111.299C109.708 111.233 109.811 111.144 109.894 111.036C109.976 110.928 110.035 110.805 110.068 110.674C110.101 110.542 110.106 110.405 110.084 110.272Z" fill="#263238"/>
<path d="M111.548 109.453L110.748 109.541L110.781 109.15L112.835 108.918L112.799 109.309L111.994 109.401L111.821 111.489L111.371 111.541L111.548 109.453Z" fill="#263238"/>
<path d="M113.588 109.217L113.536 109.862L114.709 109.73L114.68 110.098L113.503 110.231L113.444 110.917L114.816 110.762L114.783 111.131L112.964 111.338L113.175 108.859L114.945 108.66L114.912 109.047L113.588 109.217Z" fill="#263238"/>
<path d="M115.111 110.866L115.263 110.497C115.509 110.644 115.797 110.705 116.081 110.67C116.45 110.633 116.649 110.478 116.624 110.264C116.572 109.814 115.377 110.187 115.288 109.409C115.237 108.929 115.631 108.575 116.259 108.505C116.542 108.465 116.83 108.505 117.092 108.619L116.956 108.988C116.745 108.886 116.509 108.846 116.277 108.874C115.908 108.918 115.709 109.091 115.731 109.302C115.783 109.755 116.978 109.394 117.063 110.135C117.118 110.619 116.72 110.973 116.081 111.043C115.747 111.091 115.407 111.029 115.111 110.866Z" fill="#263238"/>
<path d="M119.032 111.902C119.032 111.954 115.595 112.503 111.334 113.127C107.074 113.75 103.617 114.211 103.61 114.16C103.603 114.108 107.048 113.558 111.308 112.935C115.569 112.312 119.025 111.851 119.032 111.902Z" fill="#263238"/>
<path d="M119.302 113.385C119.302 113.437 116.207 113.972 112.371 114.576C108.534 115.181 105.421 115.628 105.414 115.576C105.406 115.524 108.509 114.993 112.341 114.385C116.174 113.776 119.291 113.333 119.302 113.385Z" fill="#263238"/>
<path d="M172.459 176.683C172.459 176.734 136.727 176.779 92.6547 176.779C48.5824 176.779 12.8428 176.753 12.8428 176.683C12.8428 176.613 48.5676 176.587 92.6547 176.587C136.742 176.587 172.459 176.631 172.459 176.683Z" fill="#263238"/>
</svg>
