<svg width="99" height="110" viewBox="0 0 99 110" fill="none" xmlns="http://www.w3.org/2000/svg">
<path d="M28.2923 55.9105C21.3536 51.9339 14.0902 48.3124 6.28914 46.5878C5.20651 46.2917 4.07894 46.1954 2.96177 46.3038C2.4045 46.3679 1.87036 46.5631 1.40309 46.8734C0.935812 47.1838 0.548708 47.6004 0.273512 48.0892C-0.396018 49.479 0.27351 51.1325 1.09521 52.4209C2.97192 55.2613 5.78192 57.3206 8.61221 59.1973C16.3727 64.3405 24.7012 68.5302 32.9588 72.7097C31.9443 66.7853 29.8343 61.703 28.2416 55.9105" fill="#7D7DDE"/>
<path d="M81.4895 71.1981C83.7618 78.8673 86.4907 86.4959 90.9339 93.1405C91.5137 94.1055 92.2669 94.9551 93.1556 95.6462C93.6001 95.9893 94.1208 96.2202 94.6736 96.3191C95.2264 96.418 95.7949 96.382 96.3308 96.2142C97.7713 95.6766 98.4611 94.0332 98.7248 92.5217C99.3335 89.174 98.7248 85.7351 97.9843 82.428C95.9554 73.298 92.8107 64.5637 89.6963 55.799C86.3588 60.8001 84.3401 65.9433 81.4895 71.1981Z" fill="#7D7DDE"/>
<path d="M28.1906 55.7482C28.1906 55.7482 28.7282 108.854 58.5325 109.899C88.3367 110.944 89.5845 56.1337 89.5845 55.7482C89.5845 55.7482 86.0644 47.8356 58.8875 48.1399C31.7107 48.4442 28.1906 55.7482 28.1906 55.7482Z" fill="#7D7DDE"/>
<path d="M67.7743 76.8384C67.6264 78.8658 66.8805 80.8037 65.6311 82.407C64.3816 84.0104 62.6847 85.2072 60.755 85.846C58.8253 86.4849 56.7495 86.5371 54.7901 85.9961C52.8307 85.455 51.0758 84.3451 49.7473 82.8065C48.4189 81.268 47.5765 79.37 47.3268 77.3527C47.0772 75.3354 47.4314 73.2894 48.3447 71.4734C49.258 69.6574 50.6893 68.1531 52.4577 67.1506C54.226 66.1482 56.2519 65.6928 58.2792 65.8419C60.9962 66.0418 63.5228 67.3124 65.3033 69.3745C67.0838 71.4365 67.9726 74.1213 67.7743 76.8384Z" fill="#263238"/>
<path d="M64.9946 76.6355C64.8863 78.1123 64.3425 79.5238 63.432 80.6915C62.5215 81.8592 61.2852 82.7307 59.8794 83.1957C58.4736 83.6608 56.9615 83.6985 55.5342 83.3041C54.107 82.9098 52.8287 82.101 51.8611 80.9802C50.8935 79.8594 50.28 78.4768 50.0982 77.0073C49.9163 75.5377 50.1744 74.0473 50.8396 72.7244C51.5049 71.4016 52.5475 70.3057 53.8356 69.5754C55.1237 68.845 56.5994 68.5131 58.0761 68.6215C60.0552 68.7694 61.895 69.6961 63.1919 71.1984C64.4888 72.7007 65.1371 74.656 64.9946 76.6355Z" fill="white"/>
<path d="M61.3835 78.005C61.3265 77.5951 61.3027 77.1812 61.3124 76.7674C61.3124 75.9863 61.3124 74.8907 61.3124 73.5415L61.3936 73.6835L57.5083 71.4416H57.7213L53.836 73.6226C53.7346 73.8052 53.978 73.3893 53.9577 73.4299V74.5762C53.9577 74.9515 53.9577 75.337 53.9577 75.7124C53.9577 76.4529 53.9577 77.1732 53.9577 77.8731L53.8563 77.6804L57.6605 80.0035H57.488C58.6749 79.3644 59.6589 78.8572 60.3487 78.5021C60.7057 78.299 61.0789 78.1259 61.4646 77.9847C61.1453 78.2263 60.8059 78.4401 60.4502 78.6238C59.8009 79.0195 58.8271 79.6383 57.6097 80.2976L57.5286 80.3484L57.4474 80.2976L53.5926 78.0557L53.481 77.9949V77.863C53.481 77.163 53.481 76.4428 53.481 75.7022C53.481 75.3269 53.481 74.9516 53.481 74.5661V73.4705C53.481 73.4705 53.7041 73.0951 53.5926 73.2676L57.4982 71.1068L57.6097 71.046L57.7112 71.1068L61.5153 73.44H61.6066V73.5313C61.6066 74.9313 61.5255 76.0573 61.4849 76.8283C61.4877 77.2228 61.4537 77.6168 61.3835 78.005Z" fill="#7D7DDE"/>
<path d="M28.0592 55.7077C28.0592 55.7077 28.1201 55.7077 28.2215 55.7077L28.6679 55.8598L30.4026 56.4685L31.6402 56.9148L33.1517 57.3815C34.227 57.7061 35.4444 58.122 36.8341 58.3959L38.9949 58.9437C39.7456 59.1365 40.5368 59.2785 41.3585 59.4509C42.9816 59.8263 44.7569 60.0799 46.6032 60.3842C54.6771 61.5455 62.8758 61.5455 70.9497 60.3842C72.8062 60.0901 74.5713 59.8364 76.1944 59.4611C77.0161 59.2785 77.8074 59.1365 78.558 58.9539L80.7188 58.3959C82.1086 58.0713 83.3259 57.6554 84.4114 57.3815C84.949 57.2192 85.4258 57.0772 85.9127 56.925L87.1605 56.4786L88.8851 55.87L89.3314 55.7178L89.4937 55.6671C89.4937 55.6671 89.443 55.6671 89.3415 55.7381L88.8952 55.9106L87.1808 56.5496L85.9432 57.0163C85.4867 57.1786 84.9287 57.3206 84.4418 57.5032C83.3665 57.8278 82.1492 58.2539 80.7594 58.5887L78.5986 59.1568C77.8479 59.3495 77.0567 59.5017 76.235 59.6843C74.6017 60.0596 72.8366 60.3234 70.9802 60.6277C62.8845 61.8179 54.6583 61.8179 46.5626 60.6277C44.696 60.3234 42.9309 60.0596 41.2977 59.6741C40.4861 59.5017 39.6847 59.3495 38.934 59.1568L36.7732 58.5887C35.3835 58.2539 34.1763 57.8278 33.0908 57.4931L31.5895 57.0163L30.3518 56.5496L28.6374 55.9004L28.1911 55.728L28.0592 55.7077Z" fill="#263238"/>
<g opacity="0.3">
<path d="M28.1906 55.7482C28.1906 55.7482 31.7107 48.4544 58.8875 48.1399C86.0644 47.8254 89.5845 55.7482 89.5845 55.7482C89.5845 55.7482 62.1743 69.2707 28.1906 55.7482Z" fill="black"/>
</g>
<path d="M37.5337 93.5462C37.5131 93.5217 37.496 93.4944 37.483 93.4651L37.3511 93.2318L36.854 92.2985L36.5091 91.6289L36.1236 90.8072C35.8497 90.2189 35.5454 89.5493 35.2411 88.7784L34.7541 87.5915L34.2773 86.293C33.9223 85.4003 33.6281 84.4163 33.2629 83.3917C32.6238 81.3628 32.005 79.0397 31.4572 76.6051C30.9094 74.1704 30.5138 71.8372 30.1891 69.6967C29.8645 67.5563 29.6515 65.639 29.5298 64.0057C29.4486 63.1942 29.3979 62.4638 29.3573 61.8145C29.3167 61.1653 29.2863 60.6074 29.266 60.1509V59.1364V58.7611C29.266 58.7611 29.266 58.7611 29.266 58.8625V59.1263C29.266 59.39 29.266 59.7349 29.3472 60.1407C29.4283 60.5465 29.408 61.1552 29.4689 61.7943C29.5298 62.4334 29.5805 63.1739 29.6616 63.9854C29.8138 65.6085 30.0674 67.5258 30.3717 69.6663C30.6761 71.8068 31.1224 74.1197 31.6499 76.5544C32.1774 78.989 32.8165 81.2614 33.4354 83.3207C33.7803 84.3351 34.0643 85.3496 34.4498 86.222L34.9164 87.5306L35.3932 88.7175C35.6773 89.4783 35.9816 90.1479 36.2453 90.7464L36.6106 91.5782L36.9453 92.2579L37.4018 93.2013L37.5134 93.4448L37.5337 93.5462Z" fill="white"/>
<path d="M51.8985 106.318C51.738 106.312 51.5784 106.292 51.4217 106.257C50.9917 106.189 50.5678 106.087 50.1536 105.953C49.5355 105.768 48.932 105.537 48.3479 105.263C47.6414 104.918 46.963 104.517 46.3191 104.066C45.6741 103.608 45.0669 103.099 44.5032 102.544C44.0433 102.087 43.6193 101.596 43.2352 101.073C42.9716 100.73 42.7342 100.367 42.5251 99.9879C42.4361 99.854 42.3613 99.7113 42.3019 99.5619C42.3019 99.5619 42.6772 100.13 43.3163 100.982C43.7118 101.482 44.1388 101.956 44.5945 102.402C45.1597 102.942 45.7632 103.441 46.4002 103.894C47.0449 104.341 47.7232 104.738 48.4291 105.08C49.0014 105.361 49.5909 105.605 50.1942 105.811C51.229 106.156 51.8985 106.277 51.8985 106.318Z" fill="white"/>
<path d="M58.1066 87.5813H57.8226C57.64 87.5813 57.3559 87.5813 57.0009 87.5813C55.9958 87.5642 54.9984 87.4037 54.0387 87.1046C52.6028 86.6693 51.2633 85.9634 50.0925 85.025C48.6327 83.8968 47.4814 82.4182 46.7455 80.7264C46.0095 79.0346 45.7127 77.1843 45.8826 75.3472C45.9498 74.5476 46.0924 73.7562 46.3087 72.9836C46.5081 72.3191 46.7591 71.6713 47.0594 71.046C47.5004 70.1359 48.0673 69.2924 48.7433 68.5403C48.9226 68.3379 49.1122 68.1449 49.3114 67.9621C49.4534 67.8302 49.5245 67.7693 49.5346 67.7795C49.5447 67.7896 49.2607 68.0635 48.8042 68.6012C48.1573 69.3587 47.6179 70.2019 47.2014 71.1068C46.9074 71.7278 46.6664 72.3726 46.4811 73.0343C46.2762 73.7944 46.1437 74.5722 46.0855 75.3573C45.923 77.1622 46.2158 78.9789 46.9371 80.6413C47.6584 82.3036 48.7852 83.7585 50.2143 84.8728C50.8302 85.3635 51.4888 85.7981 52.1823 86.1713C52.7948 86.4801 53.4288 86.7445 54.0793 86.9625C55.0296 87.2662 56.0148 87.4468 57.011 87.5002C57.711 87.5813 58.1066 87.5611 58.1066 87.5813Z" fill="white"/>
<path d="M56.8185 0.532251C56.8185 0.532251 30.8286 0.217776 26.7708 22.7485C22.7131 45.2792 44.6351 45.6647 50.9551 46.0806C53.8259 46.2734 59.9532 46.2936 65.3601 46.1922C77.3407 45.9893 85.8011 43.6662 88.6923 32.5581C89.0365 31.2532 89.2539 29.9181 89.3415 28.5714C90.0415 16.3981 81.7941 -0.0662687 56.8185 0.532251Z" fill="#7D7DDE"/>
<path d="M75.6666 34.8102L37.9193 35.3985C36.9745 35.4133 36.0362 35.241 35.1583 34.8915C34.2805 34.5419 33.4804 34.0222 32.8043 33.3621C32.1282 32.702 31.5894 31.9147 31.2189 31.0455C30.8485 30.1763 30.6537 29.2423 30.6458 28.2975C30.6159 26.397 31.3417 24.5623 32.6637 23.1966C33.9856 21.8309 35.7957 21.0458 37.6961 21.0138L75.4637 20.4761C76.4086 20.4627 77.3469 20.6359 78.2247 20.9858C79.1026 21.3356 79.9027 21.8553 80.5794 22.515C81.256 23.1746 81.7958 23.9614 82.1678 24.83C82.5399 25.6987 82.7368 26.6323 82.7474 27.5772C82.7637 29.4742 82.0277 31.3003 80.7006 32.6559C79.3736 34.0115 77.5635 34.7861 75.6666 34.8102Z" fill="#263238"/>
<path d="M45.7509 27.5671C45.6636 28.0147 45.4454 28.4263 45.1238 28.7497C44.8023 29.0731 44.392 29.2937 43.9449 29.3837C43.4979 29.4736 43.0342 29.4288 42.6126 29.2549C42.191 29.081 41.8306 28.7858 41.5769 28.4068C41.3233 28.0278 41.188 27.582 41.188 27.126C41.188 26.67 41.3234 26.2242 41.5771 25.8452C41.8308 25.4663 42.1912 25.1711 42.6128 24.9973C43.0344 24.8234 43.4982 24.7787 43.9452 24.8687C44.5416 24.9887 45.0662 25.3399 45.4046 25.8455C45.7429 26.3511 45.8674 26.97 45.7509 27.5671Z" fill="white"/>
<path d="M72.1266 27.141C72.0397 27.5883 71.8221 27.9998 71.5012 28.3234C71.1803 28.647 70.7707 28.8681 70.3241 28.9588C69.8775 29.0494 69.4141 29.0055 68.9924 28.8327C68.5708 28.6598 68.2099 28.3657 67.9555 27.9876C67.7011 27.6096 67.5646 27.1645 67.5632 26.7088C67.5619 26.2531 67.6958 25.8073 67.9479 25.4277C68.2001 25.0482 68.5592 24.7519 68.9798 24.5766C69.4004 24.4012 69.8636 24.3546 70.3107 24.4426C70.909 24.5603 71.4361 24.9105 71.7765 25.4164C72.1169 25.9222 72.2428 26.5425 72.1266 27.141Z" fill="white"/>
<path d="M52.3651 26.5019C52.5375 26.5019 52.4462 27.3236 52.9534 28.3989C53.2442 29.0115 53.6587 29.5572 54.1708 30.0017C54.7779 30.5311 55.5314 30.8636 56.3316 30.9553C57.1372 31.014 57.9414 30.8227 58.6343 30.4075C59.2205 30.063 59.7284 29.6 60.1255 29.0481C60.8154 28.0844 60.8762 27.283 61.0487 27.2932C61.2211 27.3033 61.1806 27.496 61.1806 27.8815C61.1575 28.4232 61.0155 28.9531 60.7647 29.4336C60.388 30.1593 59.833 30.7772 59.1517 31.2292C58.2963 31.8088 57.2709 32.0839 56.2402 32.0103C55.2123 31.9008 54.2528 31.4425 53.5215 30.7118C52.9322 30.1552 52.4956 29.4566 52.2535 28.6829C52.0882 28.1657 52.0431 27.6175 52.1216 27.0801C52.1926 26.6743 52.2941 26.4918 52.3651 26.5019Z" fill="white"/>
<path d="M53.5315 2.21622H53.4402H53.1663C52.9228 2.21622 52.5678 2.21621 52.1518 2.29737C50.861 2.42562 49.58 2.63912 48.3173 2.93647C46.4456 3.3797 44.6238 4.0119 42.8799 4.82333C40.7401 5.82409 38.7358 7.09211 36.915 8.59705C33.6187 11.3521 30.9927 14.8212 29.2356 18.7415C28.7027 19.9229 28.2519 21.1398 27.8865 22.3833C27.7444 22.8296 27.6734 23.1746 27.6024 23.3977L27.5212 23.6615V23.7528C27.5212 23.7528 27.5212 23.7528 27.5212 23.6615L27.5821 23.3876C27.6328 23.1543 27.6937 22.7992 27.8256 22.3731C28.1453 21.1164 28.559 19.8855 29.0632 18.6907C29.8296 16.9031 30.7852 15.2026 31.9138 13.6185C35.8399 8.13353 41.6519 4.29016 48.2361 2.82488C49.5187 2.53908 50.8208 2.34919 52.1316 2.2568C52.5881 2.2568 52.9533 2.2568 53.146 2.2568H53.5112L53.5315 2.21622Z" fill="white"/>
<path d="M28.1095 33.39C27.9426 33.1408 27.816 32.867 27.7342 32.5784C27.4984 31.9192 27.3219 31.2402 27.2066 30.5496C27.0998 29.8413 27.0557 29.1251 27.0748 28.4091C27.0691 28.1117 27.1032 27.8149 27.1762 27.5265C27.2472 27.5265 27.1762 28.8859 27.4197 30.5698C27.6632 32.2538 28.1704 33.3697 28.1095 33.39Z" fill="white"/>
<path d="M69.4279 19.1573C69.4279 19.2182 64.4571 19.2689 58.3299 19.2689C52.2027 19.2689 47.2218 19.2689 47.2218 19.1573C47.2218 19.0458 52.1925 19.0559 58.3299 19.0559C64.4673 19.0559 69.4279 19.1066 69.4279 19.1573Z" fill="white"/>
<path d="M50.478 44.4778C50.478 44.4778 50.4172 44.4778 50.2955 44.4778H49.7578C49.5143 44.4778 49.2303 44.4778 48.8955 44.4778C48.5608 44.4778 48.1753 44.4778 47.7492 44.4778C46.7593 44.4694 45.7705 44.4085 44.7871 44.2952C43.5829 44.1552 42.3874 43.9486 41.2061 43.6763C40.027 43.4082 38.865 43.0695 37.7265 42.6619C36.7969 42.3255 35.886 41.9394 34.9977 41.5054C34.6122 41.3228 34.2774 41.1402 33.9832 40.9779C33.6891 40.8156 33.4355 40.6837 33.2326 40.562L32.7659 40.278L32.6138 40.1664C32.6138 40.1664 32.6746 40.1664 32.7862 40.2374L33.2731 40.4809C33.476 40.5925 33.7296 40.7345 34.034 40.8765C34.3383 41.0185 34.6731 41.2011 35.0484 41.3634C35.8092 41.7185 36.7324 42.104 37.7773 42.4793C38.9158 42.8761 40.0737 43.2147 41.2466 43.4937C42.4218 43.7649 43.6103 43.9749 44.8073 44.1227C45.9029 44.2546 46.9072 44.3256 47.7492 44.3459C48.1651 44.3459 48.5506 44.3459 48.8854 44.3459H50.4679L50.478 44.4778Z" fill="white"/>
<path d="M82.2504 58.9944H82.1591L81.8649 59.106L80.7389 59.5118C80.2519 59.6843 79.6534 59.8871 78.9433 60.1002C78.2332 60.3132 77.4318 60.577 76.5391 60.8001L75.129 61.1755L73.587 61.5305C72.5726 61.7841 71.3756 61.987 70.1684 62.2204C67.5381 62.665 64.8871 62.9765 62.2253 63.1536C59.5659 63.2897 56.9011 63.2897 54.2417 63.1536C53.0142 63.0725 51.8476 63.0116 50.7621 62.8899L49.1898 62.7276L47.7391 62.5247C46.816 62.4131 45.9943 62.2508 45.2639 62.1291C44.5335 62.0073 43.9147 61.8754 43.4075 61.7639L42.2409 61.5001L41.9365 61.4291H41.8351C41.8351 61.4291 41.8351 61.4291 41.9467 61.4291L42.251 61.4798L43.4278 61.703C43.935 61.8044 44.5538 61.9262 45.2842 62.0276C46.0146 62.1291 46.8363 62.3015 47.7594 62.4029L49.2101 62.5856C49.7071 62.6464 50.2245 62.687 50.7723 62.7377C51.8577 62.8493 53.0243 62.9102 54.2417 62.9812C56.6966 63.0826 59.395 63.0826 62.2152 62.9203C65.0353 62.758 67.7134 62.4029 70.1278 62.0073C71.335 61.7841 72.4813 61.5914 73.5465 61.3378C74.074 61.216 74.5609 61.1146 75.0884 60.9929L76.4985 60.6378C77.4013 60.4248 78.2028 60.1712 78.9027 59.9683C79.6027 59.7654 80.2215 59.5727 80.7186 59.4104L81.8547 59.0452L82.1489 58.9539L82.2504 58.9944Z" fill="white"/>
</svg>
