<svg width="124" height="185" viewBox="0 0 124 185" fill="none" xmlns="http://www.w3.org/2000/svg">
<path d="M32.4602 163.147C32.4602 163.147 24.2885 172.241 24.0129 184.32H96.4647C96.4647 184.32 93.9449 172.998 89.4085 166.134L43.2261 160.417L32.4602 163.147Z" fill="#455A64"/>
<path d="M68.6684 76.6699C68.6684 76.6699 57.9638 72.6628 54.7791 78.0785C51.5944 83.4943 52.0712 92.0772 52.0712 92.0772L52.3906 102.909H69.5958L68.6684 76.6699Z" fill="#7D7DDE"/>
<path d="M68.6686 76.67L80.5937 82.2169L97.987 80.4977L100.021 81.4732L105.393 83.7611C105.393 83.7611 118.036 83.0306 119.252 94.6976C120.468 106.365 113.902 119.497 108.066 130.928C102.23 142.359 95.1786 162.779 88.6167 166.668C88.6167 166.668 61.7043 174.695 52.4258 171.533C52.4258 171.533 33.0508 167.626 32.4559 161.309C31.8609 154.992 36.6073 153.212 39.1708 147.088C41.7343 140.963 51.4197 113.906 51.4197 113.906L56.1573 81.5345L68.6686 76.67Z" fill="#7D7DDE"/>
<path d="M52.4125 102.931C52.4125 102.931 57.6883 99.5009 62.999 100.144C68.3097 100.787 69.6177 102.931 69.6177 102.931V127.669L49.3459 125.481L52.4125 102.931Z" fill="#FFC4C0"/>
<path d="M55.5972 77.0287C55.5972 77.0287 54.2848 76.495 53.4099 77.0287C52.535 77.5624 49.1928 84.6404 48.1998 85.1391C47.2067 85.6378 42.7359 87.3702 42.6134 90.848C42.4909 94.3257 43.3571 95.9356 43.3571 97.178C43.3571 98.4203 44.722 122.113 50.1858 126.348C55.6497 130.582 56.144 129.576 60.2473 128.972C64.3507 128.369 96.8669 110.849 96.8669 110.849C96.8669 110.849 94.8459 100.043 85.2218 99.7896L63.0864 109.339L52.045 94.1945V86.6265C52.045 86.6265 53.6899 78.2317 55.5972 77.0287Z" fill="#FFC4C0"/>
<g opacity="0.3">
<path d="M49.3243 125.495C47.6357 130.407 48.1782 134.926 51.6559 138.789C53.4226 140.707 55.6599 142.13 58.146 142.918C60.6321 143.705 63.2808 143.829 65.8296 143.277C65.6633 144.091 65.4956 144.908 65.3265 145.727C66.3195 145.911 67.3082 145.342 67.9994 144.607C68.6905 143.872 69.1718 142.967 69.8104 142.192C71.4072 140.263 73.8351 139.279 76.1405 138.312C83.4384 135.262 90.5211 131.721 97.3397 127.713C100.376 125.928 103.372 124.034 105.962 121.645C108.552 119.256 110.726 116.339 111.789 112.983L49.3243 125.495Z" fill="black"/>
</g>
<path d="M49.324 125.495C49.2535 126.055 49.2315 126.62 49.2584 127.183C49.5821 136.777 59.5212 143.024 68.3709 139.296C80.0598 134.379 100.97 123.417 108.661 118.049L104.063 106.098L96.6745 110.402C96.6209 110.434 96.5636 110.459 96.5039 110.477L49.324 125.495Z" fill="#FFC4C0"/>
<path d="M103.258 107.541L104.063 106.098C104.063 106.098 103.626 105.704 104.614 102.248C105.367 99.8025 106.324 97.4246 107.475 95.1394L110.24 87.9301C110.24 87.9301 110.638 86.2503 112.117 86.2503C113.595 86.2503 113.543 87.7289 113.77 89.015C113.998 90.3011 112.117 93.8533 113.206 95.4369C114.295 97.0205 116.653 95.8743 116.653 95.8743L117.747 94.0458V90.4936C117.747 90.4936 116.264 88.1226 115.376 87.8251C114.488 87.5277 114.387 87.0377 114.882 87.0377C115.376 87.0377 121.006 88.8488 121.596 89.7193C122.187 90.5899 122.191 94.6407 122.191 94.6407C122.191 94.6407 123.377 94.3432 123.066 98.1972L123.114 100.17C123.114 100.17 123.359 102.147 123.114 103.132C122.902 103.787 122.465 104.346 121.881 104.711C121.881 104.711 122.572 106.71 122.078 107.537C121.583 108.364 119.89 109.059 119.89 109.059C119.89 109.059 119.295 110.442 118.604 110.936C117.913 111.43 109.125 117.747 108.63 118.045C108.136 118.342 103.228 120.669 103.228 120.669L102.659 107.729" fill="#FFC4C0"/>
<path d="M96.6746 110.402L96.574 110.503C96.4909 110.573 96.3859 110.66 96.259 110.774C95.9834 111.015 95.5635 111.356 95.0079 111.776C93.9011 112.62 92.2475 113.771 90.1477 115.101C88.0479 116.43 85.5107 117.957 82.7109 119.641C79.9112 121.326 76.7965 123.189 73.6468 125.298C72.1068 126.333 70.5121 127.286 68.8698 128.15C67.3408 128.961 65.713 129.57 64.0271 129.961C61.1507 130.584 58.1599 130.425 55.3655 129.502C53.4853 128.888 51.7602 127.875 50.3085 126.531C49.9196 126.162 49.557 125.766 49.2236 125.346L48.9698 125.018L48.8867 124.904C48.8867 124.904 48.9261 124.935 48.9873 125.005L49.2629 125.32C49.606 125.724 49.9742 126.107 50.3653 126.466C51.827 127.771 53.5471 128.753 55.4136 129.349C58.1837 130.241 61.1412 130.382 63.9834 129.755C65.6494 129.362 67.2578 128.757 68.7692 127.953C70.3965 127.082 71.9765 126.126 73.5025 125.088C76.6522 122.979 79.7581 121.12 82.5797 119.445C85.4013 117.769 87.9561 116.269 90.0602 114.948C92.1644 113.626 93.8355 112.511 94.9554 111.688C95.5153 111.282 95.944 110.954 96.2284 110.722L96.5565 110.468C96.593 110.441 96.6327 110.419 96.6746 110.402Z" fill="#EB996E"/>
<path d="M85.2221 99.7896L85.1258 99.8464L84.8327 99.9864L83.6953 100.516L79.5351 102.414C75.9786 103.994 71.0659 106.176 65.5846 108.456L63.148 109.449L63.0648 109.484L63.0167 109.409C59.9283 105.074 57.0935 101.299 55.0856 98.5778L52.7146 95.3713C52.4434 95.0038 52.2334 94.7107 52.0803 94.4963L51.9184 94.2645C51.8834 94.212 51.8659 94.1857 51.8703 94.1857C51.8747 94.1857 51.8965 94.1858 51.9359 94.2514L52.1109 94.4701L52.7802 95.3144C53.362 96.0756 54.1844 97.1517 55.2081 98.4816C57.251 101.181 60.1032 104.938 63.2004 109.274L63.0648 109.234L65.4971 108.241C70.9741 105.962 75.8999 103.805 79.4695 102.261L83.6953 100.433L84.8502 99.9427L85.1521 99.8202L85.2221 99.7896Z" fill="#EB996E"/>
<path d="M69.4384 89.7324C69.4693 89.9409 69.4781 90.152 69.4647 90.3624V92.0816C69.4647 93.5296 69.4647 95.5331 69.4647 97.7467C69.4647 99.9602 69.5478 101.959 69.5915 103.407C69.5915 104.099 69.6222 104.676 69.6353 105.127C69.6579 105.336 69.6579 105.547 69.6353 105.757C69.5939 105.55 69.569 105.341 69.5609 105.131C69.5259 104.724 69.4822 104.138 69.4428 103.416C69.3597 101.968 69.2809 99.9646 69.2503 97.7291C69.2197 95.4937 69.2503 93.5121 69.2984 92.0422C69.3247 91.3204 69.3466 90.7298 69.3728 90.3274C69.3794 90.1277 69.4014 89.9288 69.4384 89.7324Z" fill="#263238"/>
<path d="M105.59 85.1741C105.625 85.2266 101.045 88.5382 95.3579 92.5672C89.671 96.5962 85.0252 99.829 84.9902 99.7765C84.9552 99.724 89.5354 96.4168 95.2223 92.3834C100.909 88.3501 105.555 85.1216 105.59 85.1741Z" fill="#263238"/>
<path d="M55.3392 171.804C55.1858 171.755 55.0389 171.687 54.9017 171.603C54.7573 171.528 54.5867 171.436 54.3943 171.314C54.2018 171.191 53.9787 171.065 53.7512 170.877C53.2048 170.489 52.6913 170.058 52.2157 169.586C51.0462 168.428 50.1131 167.054 49.4685 165.54C49.2065 164.924 48.9959 164.287 48.8385 163.637C48.7737 163.389 48.7226 163.138 48.6854 162.884C48.6482 162.693 48.6219 162.501 48.6067 162.307C48.5805 162.143 48.5717 161.978 48.5804 161.812C48.6242 161.812 48.6942 162.508 48.996 163.597C49.1734 164.232 49.3956 164.853 49.661 165.456C50.3152 166.935 51.231 168.284 52.3644 169.437C52.8263 169.91 53.322 170.349 53.8474 170.75C54.7355 171.458 55.361 171.765 55.3392 171.804Z" fill="#263238"/>
<path d="M99.1417 81.8013C99.1602 81.8346 99.1749 81.8698 99.1854 81.9063L99.2904 82.2257C99.4093 82.6412 99.4711 83.0709 99.4741 83.503C99.4778 84.1914 99.3624 84.8751 99.1329 85.5241C98.8246 86.3782 98.3959 87.184 97.8599 87.917C97.2181 88.8089 96.4753 89.6236 95.6464 90.3449C94.7096 91.1924 93.6827 91.9346 92.5842 92.5584C91.3706 93.2451 90.0798 93.7855 88.7389 94.1683C87.3088 94.5859 85.8451 94.8786 84.3644 95.0432C82.8752 95.2275 81.367 95.1891 79.8892 94.9294C78.5221 94.6402 77.1986 94.174 75.952 93.5427C74.8357 92.9334 73.8666 92.0868 73.1129 91.0623C72.7663 90.6041 72.4728 90.1081 72.238 89.5837C72.0382 89.0949 71.8916 88.5859 71.8006 88.0657C71.501 86.4875 71.7092 84.8549 72.3955 83.4024C72.5865 83.0148 72.8197 82.6495 73.0911 82.3132L73.3142 82.0594C73.3667 82.0069 73.3929 81.9763 73.3973 81.9807C73.0381 82.4332 72.7286 82.9231 72.4743 83.4418C71.833 84.8831 71.6527 86.4874 71.958 88.0351C72.0509 88.5421 72.1975 89.0378 72.3955 89.5137C72.6324 90.0233 72.9258 90.5046 73.2704 90.9486C74.0147 91.944 74.9671 92.7651 76.0614 93.3546C77.2885 93.9741 78.5916 94.4301 79.9373 94.7107C81.3924 94.9633 82.877 94.9986 84.3425 94.8157C87.3566 94.4614 90.2044 93.6739 92.4923 92.3747C93.5778 91.7555 94.5941 91.0223 95.5239 90.1874C96.3457 89.478 97.0866 88.6799 97.7331 87.8076C98.2674 87.0902 98.6974 86.3008 99.0104 85.4628C99.2473 84.8299 99.3745 84.1612 99.3867 83.4855C99.3807 82.9157 99.2983 82.3492 99.1417 81.8013Z" fill="#263238"/>
<path d="M95.6244 135.285C95.4896 135.315 95.3508 135.324 95.2132 135.311C94.8369 135.314 94.4609 135.286 94.089 135.228C93.536 135.15 92.9903 135.027 92.4573 134.861C91.1462 134.448 89.9268 133.787 88.8657 132.914C88.436 132.557 88.0353 132.166 87.6671 131.746C87.4181 131.464 87.1901 131.164 86.9847 130.849C86.8996 130.74 86.8303 130.619 86.7791 130.49C86.814 130.464 87.1421 130.954 87.7852 131.637C88.1624 132.035 88.5674 132.406 88.997 132.748C89.5273 133.161 90.089 133.532 90.6768 133.859C91.2699 134.174 91.8872 134.442 92.5229 134.659C93.0436 134.833 93.5756 134.97 94.1152 135.071C95.0383 135.237 95.6244 135.246 95.6244 135.285Z" fill="#263238"/>
<path d="M66.5731 140.307C66.5461 140.51 66.5022 140.71 66.4419 140.906C66.3937 141.099 66.3281 141.344 66.2363 141.597C66.1444 141.851 66.0525 142.171 65.9169 142.494C65.619 143.268 65.2712 144.022 64.8758 144.752C63.8995 146.536 62.6542 148.159 61.1836 149.564C60.5833 150.135 59.9461 150.667 59.2763 151.156C58.9963 151.375 58.7251 151.541 58.4889 151.698C58.2526 151.856 58.0514 151.978 57.8764 152.075C57.7056 152.187 57.5238 152.282 57.334 152.359C57.4874 152.224 57.6529 152.104 57.8283 152C57.9945 151.891 58.1958 151.76 58.4189 151.593C58.642 151.427 58.9088 151.252 59.1801 151.029C59.8286 150.527 60.4478 149.988 61.0349 149.415C61.7508 148.709 62.4187 147.957 63.0341 147.162C63.6407 146.36 64.1945 145.52 64.692 144.647C65.0906 143.938 65.4498 143.207 65.7682 142.459C65.9125 142.14 66.0131 141.838 66.1138 141.584C66.2144 141.331 66.2931 141.099 66.3544 140.911C66.4057 140.702 66.479 140.5 66.5731 140.307Z" fill="#263238"/>
<path d="M69.3423 139.086C69.5474 140.753 69.1111 142.436 68.1218 143.793C68.0605 143.758 68.6249 142.805 68.9573 141.497C69.2898 140.189 69.2723 139.086 69.3423 139.086Z" fill="#263238"/>
<g opacity="0.3">
<path d="M69.4382 89.7324C69.9676 94.1989 70.5188 100.35 71.0481 104.816C71.1224 105.424 71.1924 105.923 70.6106 106.098C70.2693 106.231 69.9449 106.405 69.6438 106.614C69.6657 106.229 69.6745 105.017 69.6438 104.615C69.2939 99.4702 69.552 94.7719 69.4426 89.7412" fill="black"/>
</g>
<g opacity="0.3">
<path d="M74.0405 92.051C76.4072 95.6206 82.6847 96.5962 87.6017 95.6031C92.5187 94.6101 96.8758 90.7298 99.1069 86.2503C96.2892 90.3138 92.0921 93.2161 87.2955 94.4176C82.7284 95.6294 77.9339 95.2619 74.1411 91.946" fill="black"/>
</g>
<path d="M68.3449 95.7038C68.1307 95.6601 67.9201 95.6002 67.715 95.5244C67.3169 95.3888 66.7307 95.2138 66.0045 95.0126C62.2166 93.97 58.2686 93.6363 54.3594 94.0283C53.6113 94.1027 53.0033 94.1814 52.6096 94.2427C52.3946 94.2847 52.1767 94.3096 51.9578 94.317C52.1651 94.244 52.379 94.1913 52.5964 94.1595C53.0077 94.0677 53.6114 93.9627 54.3463 93.8665C58.2748 93.3815 62.2611 93.7182 66.0526 94.8551C66.7788 95.0738 67.365 95.2926 67.75 95.4325C67.9574 95.5015 68.1569 95.5924 68.3449 95.7038Z" fill="white"/>
<path d="M102.72 105.192C102.594 105.057 102.482 104.911 102.383 104.755C102.182 104.449 101.876 104.02 101.487 103.495C99.46 100.758 96.9042 98.4571 93.9711 96.7274C93.4111 96.3993 92.9474 96.1456 92.6193 95.975C92.446 95.8985 92.2817 95.8032 92.1294 95.6906C92.3117 95.7429 92.4889 95.8117 92.6587 95.8962C92.9999 96.0406 93.4768 96.2724 94.0498 96.5874C97.0598 98.2489 99.6534 100.572 101.635 103.381C102.012 103.919 102.296 104.365 102.475 104.694C102.574 104.851 102.656 105.018 102.72 105.192Z" fill="white"/>
<path d="M61.1616 148.759C61.0906 148.769 61.0183 148.769 60.9473 148.759L60.3392 148.728C59.8099 148.697 59.0268 148.623 58.1082 148.501C57.1895 148.378 56.0565 148.186 54.8316 147.923C53.6067 147.661 52.2725 147.302 50.8945 146.86C49.5165 146.418 48.2348 145.911 47.0842 145.416C45.9337 144.922 44.9232 144.419 44.0877 143.964C43.2521 143.509 42.5916 143.129 42.1497 142.844L41.6335 142.512C41.5732 142.476 41.5174 142.434 41.4673 142.385C41.5358 142.403 41.6008 142.433 41.6598 142.472L42.1935 142.765C42.6528 143.028 43.3221 143.391 44.162 143.82C45.0019 144.248 46.0212 144.734 47.1674 145.224C48.3135 145.714 49.5996 146.195 50.9645 146.646C52.3294 147.096 53.6636 147.438 54.8754 147.717C56.0871 147.997 57.1983 148.199 58.1301 148.339C59.0618 148.479 59.823 148.584 60.348 148.641L60.9517 148.715C61.023 148.722 61.0935 148.736 61.1616 148.759Z" fill="white"/>
<path d="M99.6579 150.325C99.535 150.344 99.4104 150.352 99.2861 150.347L98.2187 150.368C97.2956 150.368 95.957 150.368 94.3034 150.368C90.9919 150.333 86.4292 150.176 81.3853 149.791C76.3414 149.406 71.8093 148.859 68.5328 148.391C66.8923 148.159 65.5712 147.954 64.6569 147.796L63.6114 147.612C63.4881 147.598 63.3665 147.571 63.2483 147.534C63.3716 147.535 63.4945 147.546 63.6158 147.569L64.6744 147.709L68.5546 148.234C71.8312 148.671 76.372 149.174 81.4028 149.546C86.4336 149.918 91.0006 150.115 94.3034 150.193L98.2405 150.268L99.3036 150.29C99.4224 150.293 99.5408 150.304 99.6579 150.325Z" fill="white"/>
<path d="M62.5705 33.7378L60.7463 32.0143C58.3665 33.0948 57.2991 35.8945 56.9404 38.4799C56.5817 41.0653 56.6779 43.7819 55.628 46.1704C54.8144 48.0077 53.3139 49.7225 53.5282 51.7217C53.7338 53.6247 55.4793 55.1383 55.5187 57.05C55.558 58.8873 54.0401 60.3309 53.1739 61.9539C51.4241 65.2435 50.7373 70.6636 51.7434 74.2552C59.6833 73.4415 69.3336 71.871 77.2997 72.3522C74.9549 58.6435 69.9512 45.5257 62.5705 33.7378Z" fill="#263238"/>
<path d="M59.2107 46.0173C58.5064 36.7082 65.1339 28.0815 74.548 26.7998C84.5395 25.448 93.503 32.4867 94.4917 42.2114L97.4664 81.5301C97.5227 82.2909 97.3225 83.0487 96.8977 83.6824C94.6448 87.099 90.4977 89.8068 86.7705 90.3843C83.1571 90.9486 79.4694 90.0649 76.3634 88.4026C75.8482 88.1212 75.4157 87.7098 75.1087 87.2095C74.8017 86.7091 74.631 86.1371 74.6136 85.5504L74.3117 76.74C74.3117 76.7321 74.3101 76.7243 74.307 76.7171C74.3039 76.7099 74.2993 76.7035 74.2936 76.6981C74.2878 76.6928 74.281 76.6887 74.2736 76.6861C74.2662 76.6835 74.2583 76.6825 74.2505 76.6831C73.4278 76.7575 72.5997 76.7487 71.7788 76.6568C69.4428 76.1231 63.4671 73.9358 61.3324 65.2523C60.628 62.3695 59.8231 54.1759 59.2107 46.0173Z" fill="#FFC4C0"/>
<path d="M72.3564 58.6773C72.3564 58.5898 71.3809 58.5111 69.8016 58.4454C69.3992 58.4454 69.0186 58.393 68.9267 58.1349C68.8629 57.7344 68.9224 57.324 69.0973 56.9581L70.0335 53.8959C71.3196 49.5213 72.2208 45.9604 72.0371 45.9123C71.8533 45.8642 70.6722 49.3638 69.3861 53.7253C69.0769 54.7956 68.7853 55.8163 68.5111 56.7875C68.3974 57.2249 68.1787 57.7674 68.428 58.3317C68.4971 58.4654 68.5962 58.5812 68.7177 58.6701C68.8392 58.7589 68.9796 58.8183 69.128 58.8435C69.3513 58.8864 69.5795 58.8982 69.806 58.8785C71.3809 58.8435 72.3564 58.7648 72.3564 58.6773Z" fill="#263238"/>
<path d="M67.5531 50.9781C67.4087 50.7637 66.2407 51.4636 64.784 51.2712C63.3273 51.0787 62.3474 50.1513 62.1592 50.3263C62.0674 50.4006 62.1899 50.7637 62.5967 51.2012C63.1538 51.7533 63.8789 52.1042 64.6576 52.1985C65.4363 52.2928 66.2242 52.125 66.8969 51.7217C67.4219 51.4068 67.6231 51.0743 67.5531 50.9781Z" fill="#263238"/>
<path d="M83.4722 48.9701C83.2316 48.8301 82.396 50.0157 80.8474 50.5012C79.2988 50.9868 77.9164 50.5362 77.8071 50.79C77.7502 50.8993 78.0389 51.1968 78.6514 51.4155C79.4653 51.6842 80.3441 51.6842 81.158 51.4155C81.9708 51.1598 82.6775 50.6451 83.1703 49.95C83.5465 49.447 83.6034 49.0401 83.4722 48.9701Z" fill="#263238"/>
<path d="M74.3118 76.6787C74.3118 76.6787 80.3399 76.6481 87.4749 71.5779C87.4749 71.5779 85.725 79.5659 74.4036 79.4959L74.3118 76.6787Z" fill="#EB996E"/>
<path d="M73.31 62.2951C73.5794 61.904 73.9421 61.5863 74.3653 61.3708C74.7885 61.1554 75.2588 61.0491 75.7336 61.0615C76.0763 61.0621 76.4154 61.1313 76.731 61.265C77.0465 61.3988 77.3321 61.5943 77.5709 61.8401C77.7982 62.0759 77.9461 62.3768 77.9939 62.7007C78.0418 63.0246 77.9872 63.3555 77.8377 63.6468C77.4659 64.2636 76.6041 64.4693 75.8473 64.3293C75.0951 64.1387 74.3886 63.7996 73.7694 63.3319C73.5853 63.2252 73.4222 63.0858 73.2882 62.9207C73.2253 62.8409 73.1875 62.7442 73.1797 62.643C73.1719 62.5417 73.1945 62.4404 73.2444 62.352" fill="#EB996E"/>
<path d="M77.0065 59.3423C76.7528 59.3423 76.884 61.0046 75.5367 62.3038C74.1893 63.6031 72.3826 63.5725 72.387 63.8043C72.387 63.9093 72.8244 64.093 73.5725 64.0493C74.555 63.9743 75.4819 63.5634 76.1972 62.8857C76.8779 62.2385 77.281 61.3524 77.3215 60.414C77.3477 59.7141 77.1203 59.3204 77.0065 59.3423Z" fill="#263238"/>
<path d="M84.2378 42.8151C84.0672 42.4083 82.523 42.6751 80.6901 42.5395C78.8571 42.4039 77.361 41.9796 77.1335 42.3645C77.0329 42.5482 77.3041 42.9288 77.9166 43.3051C78.736 43.7618 79.6473 44.0296 80.5836 44.0886C81.5199 44.1476 82.4576 43.9965 83.3279 43.6463C83.9885 43.3532 84.3122 43.012 84.2378 42.8151Z" fill="#263238"/>
<path d="M67.1725 42.1895C66.7657 41.9533 65.6851 42.6707 64.2634 43.1344C62.8417 43.5981 61.5599 43.7425 61.3893 44.18C61.3193 44.3856 61.6124 44.6568 62.238 44.8055C63.0866 44.9538 63.9589 44.8847 64.7735 44.6047C65.5882 44.3247 66.3187 43.843 66.8969 43.2044C67.2862 42.7014 67.3562 42.3076 67.1725 42.1895Z" fill="#263238"/>
<path d="M73.135 24.8531C73.9268 23.4576 75.4273 22.8014 77.1115 22.5214C83.9883 21.3665 91.7532 25.3912 95.7078 31.135C99.6624 36.8788 100.008 45.5361 97.2827 51.9536L92.9387 49.3288C84.2464 45.9079 78.017 37.6881 72.3301 29.2058C71.5514 28.0246 72.4482 26.0648 73.135 24.8531Z" fill="#263238"/>
<path d="M62.5879 28.8164C65.4182 25.4874 67.4611 22.1846 73.4849 24.3675C74.3948 26.0298 72.6494 28.2346 71.1883 29.5295C69.0447 31.4281 67.168 32.7142 65.7638 34.0703C62.9291 36.8088 59.8013 45.9123 59.5957 50.8599C59.5957 51.1705 58.9788 46.6297 58.6682 46.586C58.2614 46.5291 56.6034 44.5693 56.7828 41.8483C57.3952 32.5698 59.7575 32.1411 62.5879 28.8164Z" fill="#263238"/>
<path d="M77.1115 22.5214C76.6614 22.4413 76.1978 22.4882 75.7729 22.657C74.7178 22.9977 73.7826 23.6339 73.0782 24.49C72.8751 24.7345 72.6963 24.9982 72.5445 25.2774C72.4129 25.5422 72.3117 25.8211 72.2426 26.1086C72.0945 26.5727 71.9847 27.0482 71.9145 27.5303C71.8095 28.379 72.0151 28.8908 72.0589 28.8733C72.1026 28.8558 72.0326 28.3571 72.2032 27.5609C72.3139 27.1018 72.4497 26.6491 72.6101 26.2048C72.6814 25.9445 72.7796 25.6924 72.9032 25.4524C73.0478 25.2 73.2131 24.96 73.3975 24.735C74.0623 23.9387 74.9105 23.3157 75.8691 22.9195C76.6128 22.6439 77.1203 22.5914 77.1115 22.5214Z" fill="#455A64"/>
<path d="M117.498 62.2732C117.305 60.7203 115.748 59.701 114.212 59.1717C112.677 58.6423 111.019 58.3317 109.838 57.2775C107.978 55.6239 108 52.8198 108.145 50.3744C108.289 47.929 108.267 45.1249 106.369 43.5063C104.781 42.1633 102.287 42.0802 100.909 40.536C99.9861 39.5036 99.7849 38.0643 99.4437 36.7344C98.5294 33.1735 96.4558 26.9616 85.8606 23.5363L95.7515 58.8086C95.0603 59.0142 93.4199 60.624 93.3455 61.6958C93.2755 62.7019 93.7261 63.7125 93.7523 64.7142C93.7873 65.9479 92.44 66.7047 91.6088 67.6277C90.5545 68.8045 90.2483 70.4799 90.4408 72.0285C90.6333 73.5771 91.2588 75.0426 91.88 76.4819C100.534 75.4382 108.682 71.8445 115.288 66.1579C116.47 65.1561 117.69 63.8043 117.498 62.2732Z" fill="#263238"/>
<path d="M92.9387 49.3289C93.0962 49.2414 99.4262 46.621 99.938 53.3097C100.45 59.9984 93.6255 59.1367 93.5993 58.9442C93.573 58.7517 92.9387 49.3289 92.9387 49.3289Z" fill="#FFC4C0"/>
<path d="M95.4495 56.2538C95.4758 56.2319 95.572 56.3282 95.7776 56.4025C96.0646 56.4997 96.378 56.4825 96.6525 56.3544C97.3393 56.0395 97.8512 54.8714 97.7899 53.6641C97.7685 53.09 97.619 52.528 97.3525 52.0192C97.2766 51.8134 97.1504 51.6299 96.9853 51.4855C96.8202 51.341 96.6216 51.2403 96.4076 51.1924C96.2707 51.1668 96.1293 51.19 96.0078 51.2579C95.8863 51.3259 95.7924 51.4343 95.7426 51.5643C95.6682 51.7567 95.7208 51.888 95.6858 51.9011C95.6508 51.9142 95.537 51.8005 95.5676 51.5205C95.5934 51.3527 95.6751 51.1985 95.7995 51.0831C95.9724 50.9298 96.1988 50.8512 96.4294 50.8643C96.7109 50.8959 96.9795 50.9994 97.2094 51.1649C97.4392 51.3304 97.6226 51.5523 97.7418 51.8092C98.07 52.3668 98.2577 52.9959 98.2886 53.6422C98.3499 54.9939 97.7549 56.3107 96.81 56.665C96.6341 56.7302 96.4458 56.7553 96.2589 56.7387C96.072 56.722 95.8912 56.664 95.7295 56.5688C95.4758 56.4069 95.4277 56.2669 95.4495 56.2538Z" fill="#EB996E"/>
<path d="M69.1366 51.468C69.0932 50.9644 69.0143 50.4644 68.9003 49.9719C68.6855 49.1468 68.3007 48.3756 67.7706 47.7078C67.2405 47.0399 66.5768 46.4901 65.822 46.0936C65.0672 45.697 64.2379 45.4624 63.3872 45.4049C62.5365 45.3473 61.6831 45.468 60.8817 45.7592C60.3302 45.9556 59.8122 46.2359 59.3463 46.5904C58.8537 46.9503 58.4211 47.3858 58.0645 47.8809C57.2975 48.9204 56.8837 50.1783 56.8837 51.4702C56.8837 52.7621 57.2975 54.02 58.0645 55.0595C58.7732 56.0287 59.7537 56.7656 60.8817 57.1768C61.6828 57.4681 62.5359 57.589 63.3863 57.5317C64.2368 57.4744 65.0659 57.2402 65.8207 56.8441C66.5755 56.4479 67.2392 55.8986 67.7695 55.2313C68.2998 54.5639 68.685 53.7932 68.9003 52.9685C69.0145 52.4746 69.0934 51.9731 69.1366 51.468C69.143 51.5012 69.143 51.5354 69.1366 51.5686C69.1366 51.6517 69.1366 51.748 69.1366 51.8661C69.1364 52.0258 69.1233 52.1853 69.0972 52.3429C69.0762 52.5614 69.0381 52.7778 68.9834 52.9904C68.7006 54.1498 68.0912 55.2037 67.2274 56.0272C66.3636 56.8506 65.2818 57.4091 64.1102 57.6362C63.0057 57.8471 61.8647 57.7564 60.8074 57.3737C60.2354 57.176 59.698 56.8896 59.215 56.525C58.702 56.1542 58.2516 55.7038 57.8808 55.1908C57.0838 54.1149 56.6536 52.8113 56.6536 51.4724C56.6536 50.1334 57.0838 48.8299 57.8808 47.754C58.6194 46.7524 59.6375 45.9914 60.8074 45.5667C61.864 45.1875 63.003 45.0984 64.1058 45.3086C65.2793 45.5324 66.3634 46.0896 67.2284 46.9136C68.0935 47.7375 68.7028 48.7932 68.9834 49.9544C69.0389 50.1668 69.0769 50.3833 69.0972 50.6018C69.1234 50.7594 69.1366 50.9189 69.1366 51.0787V51.3718C69.1453 51.4374 69.1409 51.468 69.1366 51.468Z" fill="#455A64"/>
<path d="M86.0531 51.468C86.0098 50.9644 85.9308 50.4644 85.8169 49.9719C85.6022 49.1452 85.2171 48.3725 84.6861 47.7035C84.1551 47.0345 83.4901 46.484 82.7337 46.0873C81.9773 45.6906 81.1464 45.4564 80.2941 45.3999C79.4419 45.3434 78.5873 45.4658 77.7851 45.7592C76.6583 46.1749 75.6786 46.9127 74.9679 47.8809C74.2009 48.9204 73.7871 50.1783 73.7871 51.4702C73.7871 52.7621 74.2009 54.02 74.9679 55.0595C75.6766 56.0287 76.6571 56.7656 77.7851 57.1768C78.5862 57.4681 79.4393 57.589 80.2897 57.5317C81.1402 57.4744 81.9693 57.2402 82.7241 56.8441C83.4789 56.4479 84.1426 55.8986 84.6729 55.2313C85.2032 54.5639 85.5884 53.7932 85.8037 52.9685C85.9179 52.4746 85.9968 51.9731 86.04 51.468C86.0438 51.5014 86.0438 51.5352 86.04 51.5686V51.8661C86.0399 52.0258 86.0267 52.1853 86.0006 52.3429C85.9774 52.5611 85.9394 52.7774 85.8868 52.9904C85.6037 54.1504 84.9936 55.2047 84.129 56.0282C83.2644 56.8517 82.1816 57.4098 81.0092 57.6362C79.9061 57.847 78.7666 57.7563 77.7108 57.3737C77.1378 57.1752 76.5991 56.8889 76.114 56.525C75.6097 56.1515 75.1668 55.7013 74.8017 55.1908C74.0047 54.1149 73.5745 52.8113 73.5745 51.4724C73.5745 50.1334 74.0047 48.8299 74.8017 47.754C75.1657 47.2425 75.6086 46.7921 76.114 46.4198C76.6001 46.0563 77.1384 45.7686 77.7108 45.5667C78.7674 45.1875 79.9064 45.0984 81.0092 45.3086C82.1827 45.5324 83.2668 46.0896 84.1318 46.9136C84.9969 47.7375 85.6062 48.7932 85.8868 49.9544C85.9401 50.1672 85.9781 50.3836 86.0006 50.6018C86.0268 50.7594 86.04 50.9189 86.04 51.0787V51.3718C86.0481 51.4032 86.0525 51.4355 86.0531 51.468Z" fill="#455A64"/>
<path d="M73.966 51.2012C73.9354 51.2274 73.7517 50.9431 73.3405 50.6237C72.8115 50.1988 72.1533 49.9671 71.4747 49.9671C70.7962 49.9671 70.138 50.1988 69.609 50.6237C69.1977 50.9431 69.014 51.223 68.9834 51.2012C69.0879 50.9225 69.2701 50.6796 69.5083 50.5012C70.047 50.0116 70.7489 49.7402 71.4769 49.7402C72.2049 49.7402 72.9068 50.0116 73.4455 50.5012C73.6809 50.6814 73.8613 50.9238 73.966 51.2012Z" fill="#455A64"/>
<path d="M94.4698 48.8783C94.0689 49.011 93.6556 49.1034 93.2362 49.1539C92.4663 49.2851 91.3945 49.4207 90.2134 49.5432L87.1905 49.8625C86.7738 49.9309 86.3528 49.9704 85.9307 49.9807C86.3303 49.8423 86.7441 49.7484 87.1643 49.7007C87.9342 49.5695 89.006 49.4382 90.1915 49.3157L93.2143 48.9964C93.6289 48.9227 94.0488 48.8832 94.4698 48.8783Z" fill="#455A64"/>
<path d="M45.2468 40.4572L40.391 32.5829C43.05 27.8989 43.8608 22.3897 42.6641 17.1382C41.4673 11.8867 38.3497 7.27271 33.9238 4.20314C29.498 1.13357 24.084 -0.169578 18.7462 0.549824C13.4083 1.26923 8.53257 3.95915 5.07727 8.09089C1.62196 12.2226 -0.162979 17.4973 0.0732717 22.8783C0.309522 28.2592 2.54988 33.3572 6.35399 37.1702C10.1581 40.9832 15.2509 43.2355 20.6312 43.4843C26.0116 43.7331 31.2905 41.9605 35.4303 38.5149L45.2468 40.4572Z" fill="#FAFAFA"/>
<path d="M37.3727 18.5012C37.2323 16.5301 36.5005 14.6472 35.273 13.0986C34.1529 11.574 32.5665 10.456 30.754 9.91388C29.7814 9.67097 28.7687 9.63422 27.781 9.80599C26.7933 9.97776 25.8525 10.3543 25.0189 10.9113C23.9944 11.5945 23.146 12.5104 22.5429 13.5842C22.0674 12.6017 21.3766 11.7389 20.5219 11.06C19.7377 10.449 18.8323 10.012 17.8661 9.77816C16.8998 9.54432 15.8948 9.51901 14.918 9.7039C13.0381 10.1321 11.3389 11.137 10.0579 12.578C8.66445 14.027 7.72478 15.8516 7.3544 17.8275C6.91543 20.339 7.2654 22.9248 8.35618 25.2293C9.52856 27.5347 11.5234 29.4332 13.6057 30.8681C17.1053 33.2829 21.7161 36.3101 21.7161 36.3101C21.7161 36.3101 25.9332 33.2741 29.6866 31.1C31.922 29.7876 34.1224 28.0378 35.5485 25.8505C36.8906 23.6435 37.527 21.0795 37.3727 18.5012Z" fill="#7D7DDE"/>
<path d="M23.7809 19.2842H20.605V25.0805H23.7809V19.2842Z" fill="white"/>
<path d="M21.2393 31.9617C21.1572 31.9617 21.0758 31.9456 20.9999 31.9141C20.924 31.8827 20.8551 31.8366 20.797 31.7785C20.7389 31.7204 20.6928 31.6515 20.6614 31.5756C20.6299 31.4997 20.6138 31.4183 20.6138 31.3362V24.4725C20.6065 24.3856 20.6173 24.2982 20.6456 24.2158C20.6739 24.1333 20.7189 24.0577 20.7779 23.9935C20.8369 23.9294 20.9086 23.8782 20.9884 23.8432C21.0682 23.8082 21.1544 23.7901 21.2415 23.7901C21.3287 23.7901 21.4149 23.8082 21.4947 23.8432C21.5745 23.8782 21.6461 23.9294 21.7051 23.9935C21.7641 24.0577 21.8092 24.1333 21.8374 24.2158C21.8657 24.2982 21.8765 24.3856 21.8693 24.4725V31.3187C21.8716 31.4027 21.857 31.4862 21.8264 31.5645C21.7957 31.6427 21.7496 31.7139 21.6908 31.7739C21.632 31.834 21.5618 31.8815 21.4842 31.9138C21.4066 31.946 21.3233 31.9624 21.2393 31.9617Z" fill="white"/>
<path d="M23.1424 31.9617C23.0602 31.9617 22.9789 31.9456 22.903 31.9141C22.8271 31.8827 22.7581 31.8366 22.7001 31.7785C22.642 31.7204 22.5959 31.6515 22.5645 31.5756C22.533 31.4997 22.5168 31.4183 22.5168 31.3362V24.4725C22.5096 24.3856 22.5204 24.2982 22.5487 24.2158C22.5769 24.1333 22.622 24.0577 22.681 23.9935C22.74 23.9294 22.8116 23.8782 22.8914 23.8432C22.9712 23.8082 23.0574 23.7901 23.1446 23.7901C23.2317 23.7901 23.3179 23.8082 23.3977 23.8432C23.4775 23.8782 23.5492 23.9294 23.6082 23.9935C23.6672 24.0577 23.7122 24.1333 23.7405 24.2158C23.7688 24.2982 23.7796 24.3856 23.7723 24.4725V31.3187C23.7747 31.4027 23.7601 31.4862 23.7294 31.5645C23.6988 31.6427 23.6527 31.7139 23.5939 31.7739C23.5351 31.834 23.4648 31.8815 23.3873 31.9138C23.3097 31.946 23.2264 31.9624 23.1424 31.9617Z" fill="white"/>
<path d="M23.7284 17.3594C23.7293 17.6633 23.64 17.9606 23.4718 18.2137C23.3036 18.4667 23.0641 18.6642 22.7836 18.7811C22.5031 18.898 22.1942 18.929 21.8961 18.8703C21.5979 18.8115 21.3239 18.6656 21.1088 18.4511C20.8936 18.2365 20.7469 17.9629 20.6873 17.665C20.6277 17.367 20.6578 17.058 20.7739 16.7772C20.89 16.4964 21.0868 16.2563 21.3394 16.0874C21.592 15.9185 21.8891 15.8283 22.1929 15.8283C22.5994 15.8283 22.9893 15.9895 23.2771 16.2765C23.565 16.5635 23.7273 16.9529 23.7284 17.3594Z" fill="white"/>
<path d="M19.4502 26.8085L20.662 22.1846H23.7285L24.9097 26.8085H19.4502Z" fill="white"/>
<path d="M25.5133 25.6055C25.3954 25.605 25.281 25.5652 25.1882 25.4922C25.0955 25.4193 25.0298 25.3175 25.0015 25.203L23.8335 20.2772H20.5744L19.4458 24.9755C19.4073 25.1041 19.321 25.213 19.2046 25.28C19.0883 25.3469 18.9507 25.3667 18.8202 25.3353C18.6897 25.304 18.5762 25.2238 18.503 25.1113C18.4298 24.9988 18.4024 24.8626 18.4265 24.7306L19.5464 20.0716C19.553 19.8494 19.6439 19.6379 19.8007 19.4803C19.9575 19.3227 20.1685 19.2306 20.3907 19.223H24.0129C24.2343 19.2317 24.4442 19.3242 24.6001 19.4817C24.756 19.6393 24.8463 19.8501 24.8528 20.0716L26.012 24.958C26.0289 25.0247 26.0323 25.0941 26.022 25.1621C26.0118 25.2301 25.988 25.2953 25.9521 25.354C25.9163 25.4127 25.869 25.4636 25.8132 25.5038C25.7574 25.544 25.6941 25.5726 25.6271 25.588C25.5901 25.5988 25.5519 25.6047 25.5133 25.6055Z" fill="white"/>
<path d="M45.247 40.4572L35.4129 38.5674H35.3254L35.3779 38.493L35.461 38.5717C34.1309 39.6792 32.6759 40.6276 31.1258 41.3977C29.2794 42.2987 27.3147 42.9335 25.2902 43.2832C24.1664 43.48 23.0276 43.578 21.8867 43.5763C21.3005 43.5763 20.7012 43.5763 20.0975 43.5413L18.269 43.3313C12.8094 42.4565 7.88906 39.5324 4.5109 35.1552C2.63022 32.7387 1.28786 29.948 0.573784 26.9704C-0.160197 23.8208 -0.19007 20.5481 0.486294 17.3857C1.18396 14.0817 2.65798 10.9912 4.7865 8.36966L5.6308 7.37225C5.90639 7.03541 6.24324 6.75544 6.54508 6.44484C6.84529 6.13765 7.16065 5.84565 7.48999 5.56993L8.49615 4.76063C8.82544 4.48282 9.17491 4.22986 9.54167 4.00383L10.6134 3.30389L11.729 2.70458C12.0968 2.50108 12.4767 2.31993 12.8663 2.16213C15.8866 0.840975 19.1653 0.216029 22.4598 0.333556C25.5771 0.428806 28.6349 1.21155 31.4146 2.62584C36.4048 5.18243 40.2227 9.55782 42.0798 14.8484C42.8288 17.0971 43.2286 19.4473 43.2653 21.8171C43.2823 23.8752 43.0009 25.9248 42.4297 27.9021C41.9515 29.5446 41.2835 31.1257 40.4393 32.6136V32.5567L45.2514 40.4747L40.3474 32.6004V32.5742V32.5479C41.1795 31.0626 41.8372 29.486 42.3073 27.8497C42.8653 25.8837 43.1364 23.8475 43.1122 21.804C43.065 19.4526 42.6608 17.1221 41.9135 14.8922C40.0584 9.65701 36.2663 5.33259 31.3183 2.80957C28.5649 1.41607 25.5398 0.642604 22.4554 0.543535C19.1937 0.429491 15.9479 1.04993 12.9582 2.35899C12.5723 2.51732 12.1968 2.69996 11.8339 2.90581L10.7228 3.49638L9.66853 4.19193C9.30609 4.41384 8.95965 4.66088 8.63176 4.93124L7.63873 5.73179C7.29751 5.98989 7.01754 6.31798 6.70257 6.6067C6.3876 6.89542 6.07263 7.1929 5.79703 7.52536L4.96149 8.51402C2.85661 11.1079 1.39911 14.1653 0.709395 17.4338C0.0382374 20.5627 0.0666205 23.8012 0.792513 26.9179C1.49661 29.8674 2.82251 32.6326 4.68151 35.0283C8.02371 39.3608 12.8895 42.259 18.2908 43.1344L20.1063 43.3488C20.7056 43.3794 21.2962 43.375 21.8561 43.3882C22.9878 43.3921 24.1177 43.2984 25.2333 43.1082C27.25 42.7669 29.2077 42.1393 31.0471 41.2446C32.5905 40.488 34.0396 39.5527 35.3648 38.458L35.6973 38.1824L35.4479 38.5324L35.4129 38.4449L45.247 40.4572Z" fill="#263238"/>
</svg>
