<svg width="142" height="136" viewBox="0 0 142 136" fill="none" xmlns="http://www.w3.org/2000/svg">
<path d="M79.9659 51.3319C78.6448 50.4782 78.126 48.4762 77.9824 46.375C77.8954 44.7777 77.9607 43.1758 78.1775 41.591C78.218 41.1862 78.2768 40.7961 78.3467 40.4281C78.4054 40.0561 78.484 39.6876 78.5823 39.3241L66.5818 34.3708C67.8992 36.358 68.9039 42.7207 68.6242 44.7668C68.3187 47.0631 68.2267 50.2868 67.0344 51.1185L79.9659 51.3319Z" fill="#B8B8FF"/>
<g opacity="0.7">
<path d="M79.9655 51.3318C78.6443 50.4781 78.1255 48.4762 77.9819 46.3749C77.8949 44.7776 77.9602 43.1757 78.177 41.5909C78.2175 41.1861 78.2763 40.796 78.3463 40.428C78.4049 40.0561 78.4836 39.6875 78.5818 39.324L66.5813 34.3707C67.8987 36.3579 68.9034 42.7206 68.6237 44.7667C68.3183 47.063 68.2263 50.2867 67.0339 51.1184L79.9655 51.3318Z" fill="white" fill-opacity="0.8"/>
</g>
<path d="M67.0345 51.1185C64.4585 52.9585 65.5625 55.8509 67.6564 58.2135C68.462 59.1195 69.3288 59.9691 70.2508 60.7564C74.262 64.1898 80.5548 62.7325 82.4279 57.794C83.2485 55.6044 82.9652 53.2565 79.966 51.3356L67.0345 51.1185Z" fill="#FFB573"/>
<path opacity="0.2" d="M77.9825 46.375C77.8955 44.7777 77.9608 43.1758 78.1776 41.591C78.2181 41.1862 78.2769 40.7961 78.3469 40.4281L69.0696 38.647C71.0163 40.5753 73.7358 44.5202 77.9825 46.375Z" fill="black"/>
<path d="M90.2221 24.858C89.9277 26.8525 87.1934 30.0946 87.3259 29.8996C87.436 29.6881 87.4748 29.4467 87.4363 29.2114C87.3764 28.3134 87.1558 27.4334 86.7849 26.6133C86.5531 27.7173 86.1998 30.0321 85.0995 30.0505C84.6616 29.2261 84.1243 28.4754 84.2016 27.5407C83.9477 28.4975 83.7122 29.4617 83.4656 30.4185C81.3312 29.1047 79.9806 26.0724 80.4259 23.5405C80.522 22.9265 80.7357 22.3367 81.0552 21.8036C81.4507 21.2217 81.9307 20.7021 82.4794 20.2617C83.8741 19.0399 84.4408 18.4732 86.2734 18.4732C90.2736 18.4732 90.5165 22.8634 90.2221 24.858Z" fill="#B8B8FF"/>
<path opacity="0.3" d="M90.2221 24.858C89.9277 26.8525 87.1934 30.0946 87.3259 29.8996C87.436 29.6881 87.4748 29.4467 87.4363 29.2114C87.3764 28.3134 87.1558 27.4334 86.7849 26.6133C86.5531 27.7173 86.1998 30.0321 85.0995 30.0505C84.6616 29.2261 84.1243 28.4754 84.2016 27.5407C83.9477 28.4975 83.7122 29.4617 83.4656 30.4185C81.3312 29.1047 79.9806 26.0724 80.4259 23.5405C80.522 22.9265 80.7357 22.3367 81.0552 21.8036C81.4507 21.2217 81.9307 20.7021 82.4794 20.2617C83.8741 19.0399 84.4408 18.4732 86.2734 18.4732C90.2736 18.4732 90.5165 22.8634 90.2221 24.858Z" fill="black"/>
<path d="M88.1504 34.6247C86.66 42.7465 76.9374 47.03 70.5195 41.2119C66.8137 37.8594 66.2249 33.8519 65.5478 27.6254C65.4411 26.6796 65.3344 25.686 65.2166 24.6298C65.018 22.9856 65.1864 21.3178 65.7097 19.7465C65.9245 19.0927 66.2056 18.4625 66.5488 17.866C67.8038 15.6089 69.8104 13.8632 72.2195 12.9326C74.6286 12.0021 77.2877 11.9455 79.7342 12.7729C87.7787 15.4814 89.5009 27.3162 88.1504 34.6247Z" fill="#B8B8FF"/>
<path opacity="0.7" d="M88.1504 34.6247C86.66 42.7465 76.9374 47.03 70.5195 41.2119C66.8137 37.8594 66.2249 33.8519 65.5478 27.6254C65.4411 26.6796 65.3344 25.686 65.2166 24.6298C65.018 22.9856 65.1864 21.3178 65.7097 19.7465C65.9245 19.0927 66.2056 18.4625 66.5488 17.866C67.8038 15.6089 69.8104 13.8632 72.2195 12.9326C74.6286 12.0021 77.2877 11.9455 79.7342 12.7729C87.7787 15.4814 89.5009 27.3162 88.1504 34.6247Z" fill="white" fill-opacity="0.8"/>
<path d="M78.1114 24.869C78.5383 24.8396 78.91 25.3548 78.9431 26.0062C78.9762 26.6575 78.7186 27.2095 78.2402 27.2353C77.7618 27.261 77.3865 26.7532 77.3497 26.0945C77.3129 25.4358 77.6882 24.8948 78.1114 24.869Z" fill="#B8B8FF"/>
<path opacity="0.3" d="M78.1114 24.869C78.5383 24.8396 78.91 25.3548 78.9431 26.0062C78.9762 26.6575 78.7186 27.2095 78.2402 27.2353C77.7618 27.261 77.3865 26.7532 77.3497 26.0945C77.3129 25.4358 77.6882 24.8948 78.1114 24.869Z" fill="black"/>
<path d="M85.3977 24.8028C85.8245 24.7734 86.1962 25.2812 86.233 25.9326C86.2698 26.5839 85.9607 27.1322 85.5265 27.1617C85.0922 27.1911 84.7205 26.6833 84.6837 26.0319C84.6469 25.3806 84.9745 24.8286 85.3977 24.8028Z" fill="#B8B8FF"/>
<path opacity="0.3" d="M85.3977 24.8028C85.8245 24.7734 86.1962 25.2812 86.233 25.9326C86.2698 26.5839 85.9607 27.1322 85.5265 27.1617C85.0922 27.1911 84.7205 26.6833 84.6837 26.0319C84.6469 25.3806 84.9745 24.8286 85.3977 24.8028Z" fill="black"/>
<path d="M82.3322 32.4535C83.4362 32.5676 85.4492 31.8978 86.2478 31.114C84.7279 29.6089 83.0314 27.9161 81.99 26.0503L82.3322 32.4535Z" fill="#B8B8FF"/>
<path opacity="0.5" d="M82.3322 32.4535C83.4362 32.5676 85.4492 31.8978 86.2478 31.114C84.7279 29.6089 83.0314 27.9161 81.99 26.0503L82.3322 32.4535Z" fill="white" fill-opacity="0.8"/>
<path d="M76.8931 22.3077C77.3704 22.2175 77.8622 22.2408 78.3289 22.3757C78.7955 22.5106 79.2239 22.7533 79.5795 23.0842C79.6 23.1189 79.6261 23.15 79.6568 23.1762C79.6952 23.2093 79.7398 23.2345 79.7879 23.2504C79.8361 23.2663 79.8869 23.2725 79.9375 23.2688C79.988 23.265 80.0374 23.2513 80.0827 23.2285C80.128 23.2057 80.1683 23.1742 80.2014 23.1357C80.2345 23.0973 80.2597 23.0527 80.2756 23.0046C80.2915 22.9564 80.2977 22.9056 80.294 22.855C80.2902 22.8045 80.2765 22.7551 80.2537 22.7098C80.2309 22.6645 80.1993 22.6242 80.1609 22.5911C79.7258 22.1652 79.1952 21.8494 78.6133 21.6702C78.0314 21.491 77.4151 21.4534 76.8158 21.5607C76.7652 21.5659 76.7162 21.5816 76.6719 21.6067C76.6276 21.6319 76.589 21.6659 76.5586 21.7067C76.5282 21.7476 76.5065 21.7942 76.4951 21.8439C76.4836 21.8935 76.4825 21.9449 76.492 21.9949C76.5002 22.0618 76.5284 22.1247 76.5729 22.1753C76.6127 22.2203 76.6622 22.2556 76.7177 22.2786C76.7731 22.3016 76.8332 22.3115 76.8931 22.3077Z" fill="#B8B8FF"/>
<path opacity="0.3" d="M76.8931 22.3077C77.3704 22.2175 77.8622 22.2408 78.3289 22.3757C78.7955 22.5106 79.2239 22.7533 79.5795 23.0842C79.6 23.1189 79.6261 23.15 79.6568 23.1762C79.6952 23.2093 79.7398 23.2345 79.7879 23.2504C79.8361 23.2663 79.8869 23.2725 79.9375 23.2688C79.988 23.265 80.0374 23.2513 80.0827 23.2285C80.128 23.2057 80.1683 23.1742 80.2014 23.1357C80.2345 23.0973 80.2597 23.0527 80.2756 23.0046C80.2915 22.9564 80.2977 22.9056 80.294 22.855C80.2902 22.8045 80.2765 22.7551 80.2537 22.7098C80.2309 22.6645 80.1993 22.6242 80.1609 22.5911C79.7258 22.1652 79.1952 21.8494 78.6133 21.6702C78.0314 21.491 77.4151 21.4534 76.8158 21.5607C76.7652 21.5659 76.7162 21.5816 76.6719 21.6067C76.6276 21.6319 76.589 21.6659 76.5586 21.7067C76.5282 21.7476 76.5065 21.7942 76.4951 21.8439C76.4836 21.8935 76.4825 21.9449 76.492 21.9949C76.5002 22.0618 76.5284 22.1247 76.5729 22.1753C76.6127 22.2203 76.6622 22.2556 76.7177 22.2786C76.7731 22.3016 76.8332 22.3115 76.8931 22.3077Z" fill="black"/>
<path d="M88.0584 21.5276C88.0527 21.428 88.0091 21.3344 87.9366 21.2659C87.864 21.1975 87.768 21.1594 87.6683 21.1596C87.0605 21.144 86.458 21.2762 85.9125 21.5448C85.367 21.8133 84.8949 22.2103 84.5366 22.7015C84.509 22.7427 84.49 22.7891 84.4808 22.8379C84.4715 22.8867 84.4723 22.9368 84.483 22.9853C84.4936 23.0337 84.514 23.0796 84.5428 23.12C84.5716 23.1604 84.6083 23.1945 84.6507 23.2204H84.6764C84.7599 23.2705 84.8599 23.2854 84.9544 23.262C85.0488 23.2385 85.1302 23.1786 85.1806 23.0953C85.4724 22.7132 85.8507 22.4058 86.2845 22.1985C86.7183 21.9912 87.195 21.8899 87.6756 21.9029C87.7393 21.9057 87.8027 21.892 87.8594 21.8629C87.9162 21.8339 87.9645 21.7906 87.9995 21.7373C88.0345 21.6727 88.0546 21.601 88.0584 21.5276Z" fill="#B8B8FF"/>
<path opacity="0.3" d="M88.0584 21.5276C88.0527 21.428 88.0091 21.3344 87.9366 21.2659C87.864 21.1975 87.768 21.1594 87.6683 21.1596C87.0605 21.144 86.458 21.2762 85.9125 21.5448C85.367 21.8133 84.8949 22.2103 84.5366 22.7015C84.509 22.7427 84.49 22.7891 84.4808 22.8379C84.4715 22.8867 84.4723 22.9368 84.483 22.9853C84.4936 23.0337 84.514 23.0796 84.5428 23.12C84.5716 23.1604 84.6083 23.1945 84.6507 23.2204H84.6764C84.7599 23.2705 84.8599 23.2854 84.9544 23.262C85.0488 23.2385 85.1302 23.1786 85.1806 23.0953C85.4724 22.7132 85.8507 22.4058 86.2845 22.1985C86.7183 21.9912 87.195 21.8899 87.6756 21.9029C87.7393 21.9057 87.8027 21.892 87.8594 21.8629C87.9162 21.8339 87.9645 21.7906 87.9995 21.7373C88.0345 21.6727 88.0546 21.601 88.0584 21.5276Z" fill="black"/>
<path d="M69.7871 39.4713C68.8042 39.2849 67.8767 38.8772 67.0749 38.2789C67.0749 39.3572 66.3389 41.2229 66.3389 41.2229C62.9092 40.0932 60.0829 33.2337 59.7149 30.9594C57.8087 34.5033 57.9743 32.4645 57.8271 30.9594C57.6137 28.7919 57.5585 26.5434 58.2981 24.501C59.0378 22.4586 60.7233 20.6297 62.8724 20.2764C63.2722 20.2398 63.6746 20.3109 64.0376 20.4824C64.4007 20.6539 64.7112 20.9195 64.9369 21.2516C65.3024 21.9076 65.5409 22.6268 65.6397 23.3713C66.6444 28.7477 66.6002 35.0258 69.7871 39.4713Z" fill="#B8B8FF"/>
<path opacity="0.3" d="M69.7871 39.4713C68.8042 39.2849 67.8767 38.8772 67.0749 38.2789C67.0749 39.3572 66.3389 41.2229 66.3389 41.2229C62.9092 40.0932 60.0829 33.2337 59.7149 30.9594C57.8087 34.5033 57.9743 32.4645 57.8271 30.9594C57.6137 28.7919 57.5585 26.5434 58.2981 24.501C59.0378 22.4586 60.7233 20.6297 62.8724 20.2764C63.2722 20.2398 63.6746 20.3109 64.0376 20.4824C64.4007 20.6539 64.7112 20.9195 64.9369 21.2516C65.3024 21.9076 65.5409 22.6268 65.6397 23.3713C66.6444 28.7477 66.6002 35.0258 69.7871 39.4713Z" fill="black"/>
<path d="M64.9259 27.1433C67.5497 27.2021 69.1505 30.5105 69.4302 32.7737C69.7577 35.2945 68.0649 37.3663 65.6324 36.2513C64.7255 35.8306 63.9117 35.233 63.2387 34.4937C62.5657 33.7543 62.0471 32.888 61.7132 31.9457C60.9 29.6052 62.2983 27.0881 64.9259 27.1433Z" fill="#B8B8FF"/>
<path opacity="0.7" d="M64.9259 27.1433C67.5497 27.2021 69.1505 30.5105 69.4302 32.7737C69.7577 35.2945 68.0649 37.3663 65.6324 36.2513C64.7255 35.8306 63.9117 35.233 63.2387 34.4937C62.5657 33.7543 62.0471 32.888 61.7132 31.9457C60.9 29.6052 62.2983 27.0881 64.9259 27.1433Z" fill="white" fill-opacity="0.8"/>
<path d="M70.1808 19.4263C70.8673 20.1655 71.3801 21.0486 71.6818 22.0112C71.9836 22.9738 72.0667 23.9917 71.9251 24.9905C71.6197 26.985 68.7971 30.2234 68.9296 30.0284C69.0423 29.8178 69.0836 29.5763 69.0473 29.3402C68.982 28.4402 68.7525 27.5596 68.3702 26.7422C68.131 27.8462 67.7667 30.1609 66.6296 30.1756C66.177 29.3549 65.6213 28.6042 65.6986 27.6658C65.4373 28.6263 65.1944 29.5905 64.9331 30.5473C62.7251 29.2298 61.3267 26.1975 61.783 23.6657C61.8835 23.0494 62.1049 22.4591 62.4344 21.9287C62.8468 21.3454 63.3428 20.8258 63.9064 20.3868C65.3489 19.165 67.2589 17.9469 68.9995 18.6793C69.2498 18.797 70.247 19.1613 70.1808 19.4263Z" fill="#B8B8FF"/>
<path opacity="0.3" d="M70.1808 19.4263C70.8673 20.1655 71.3801 21.0486 71.6818 22.0112C71.9836 22.9738 72.0667 23.9917 71.9251 24.9905C71.6197 26.985 68.7971 30.2234 68.9296 30.0284C69.0423 29.8178 69.0836 29.5763 69.0473 29.3402C68.982 28.4402 68.7525 27.5596 68.3702 26.7422C68.131 27.8462 67.7667 30.1609 66.6296 30.1756C66.177 29.3549 65.6213 28.6042 65.6986 27.6658C65.4373 28.6263 65.1944 29.5905 64.9331 30.5473C62.7251 29.2298 61.3267 26.1975 61.783 23.6657C61.8835 23.0494 62.1049 22.4591 62.4344 21.9287C62.8468 21.3454 63.3428 20.8258 63.9064 20.3868C65.3489 19.165 67.2589 17.9469 68.9995 18.6793C69.2498 18.797 70.247 19.1613 70.1808 19.4263Z" fill="black"/>
<path d="M84.4077 34.6836C84.4077 34.6836 82.1592 33.7709 75.5315 32.9797C75.8995 35.3865 77.3715 36.4021 80.7608 36.7701C84.1501 37.1381 84.4077 34.6836 84.4077 34.6836Z" fill="#263238"/>
<path d="M84.106 34.5989C84.0047 34.863 83.8364 35.0962 83.6177 35.2756C83.399 35.455 83.1373 35.5743 82.8585 35.622C80.9013 35.3857 78.9722 34.9567 77.0993 34.3413C76.7823 34.269 76.4923 34.1082 76.263 33.8776C76.0337 33.647 75.8745 33.3561 75.804 33.0386C78.6132 33.304 81.3921 33.8263 84.106 34.5989Z" fill="white" fill-opacity="0.8"/>
<path d="M82.726 35.4233C81.0559 34.7444 79.2906 34.3286 77.4931 34.1905C76.9891 34.2453 76.5096 34.4361 76.1057 34.7425C76.8417 35.9348 78.3137 36.5273 80.7315 36.7996C81.6415 36.9607 82.5792 36.7896 83.3737 36.3175C83.1989 35.9917 82.9811 35.6909 82.726 35.4233Z" fill="white" fill-opacity="0.8"/>
<path d="M88.7317 50.5628C88.4477 53.2311 87.4498 55.7736 85.8429 57.9228C85.7252 58.081 85.6037 58.2392 85.4749 58.3938C81.898 62.9239 75.469 64.3296 70.122 61.9487C68.4315 61.2163 66.8086 60.3371 65.2717 59.3212C62.2394 57.2824 59.6229 54.4488 58.3901 51.1221L67.7925 49.9114L74.2215 49.0834L78.6154 49.5324L88.7317 50.5628Z" fill="#FFB573"/>
<path d="M42.2424 56.5906C41.8744 84.1906 21.5056 108.111 19.4043 135.648H120.498C110.448 114.12 104.151 91.0332 101.877 67.3841L100.313 51.1185H48.5757C48.5757 51.1185 42.2792 53.8895 42.2424 56.5906Z" fill="#9393E3"/>
<path opacity="0.2" d="M31.9824 135.611C31.9824 135.611 31.3936 107.191 40.8144 77.7874C50.2352 48.3842 38.4076 86.6047 40.2477 120.67C40.7702 130.492 43.3425 135.758 43.3425 135.758L31.9824 135.611Z" fill="white" fill-opacity="0.8"/>
<path opacity="0.2" d="M111.22 135.758C111.22 135.758 98.87 107.117 96.651 69.3124C96.651 69.3124 93.626 102.767 104.063 135.648L111.22 135.758Z" fill="white" fill-opacity="0.8"/>
<path d="M107.919 46.4007C107.969 46.3761 108.021 46.3552 108.074 46.3381L108.015 46.3639L107.919 46.4007Z" fill="#B8B8FF"/>
<path d="M108.732 46.099L108.471 46.1946L108.258 46.2719H108.225L108.074 46.3271C108.283 46.2535 108.504 46.1762 108.732 46.099Z" fill="#B8B8FF"/>
<path d="M135.125 47.5636C135.125 57.6615 117.005 64.0169 108.92 66.3316C101.251 68.9076 96.6511 69.294 96.6511 69.294C96.3677 66.626 90.5828 50.9676 90.5828 50.9676C90.5828 50.9676 94.042 49.4956 96.5223 49.7164H96.5848C99.4879 49.9457 102.392 49.2805 104.905 47.8102C105.819 47.2824 106.771 46.8235 107.754 46.4375L107.919 46.375L108.015 46.3382L108.225 46.2572H108.258L108.471 46.1799L108.733 46.0842L109.038 45.9849L109.13 45.9554L109.226 45.926L109.296 45.9076H109.321C110.036 45.7005 110.763 45.5335 111.496 45.4071C113.648 44.9874 115.877 45.2445 117.877 46.1431C118.257 46.3293 118.678 46.4178 119.101 46.4005C119.523 46.3831 119.935 46.2605 120.299 46.0438C120.667 45.8082 120.825 45.5543 120.472 45.3556L103.271 25.6823L108.515 22.8009C108.515 22.8009 135.125 36.8622 135.125 47.5636Z" fill="#B8B8FF"/>
<path d="M135.125 47.5636C135.125 57.6615 117.005 64.0169 108.92 66.3316C101.251 68.9076 96.6511 69.294 96.6511 69.294C96.3677 66.626 90.5828 50.9676 90.5828 50.9676C90.5828 50.9676 94.042 49.4956 96.5223 49.7164H96.5848C99.4879 49.9457 102.392 49.2805 104.905 47.8102C105.819 47.2824 106.771 46.8235 107.754 46.4375L107.919 46.375L108.015 46.3382L108.225 46.2572H108.258L108.471 46.1799L108.733 46.0842L109.038 45.9849L109.13 45.9554L109.226 45.926L109.296 45.9076H109.321C110.036 45.7005 110.763 45.5335 111.496 45.4071C113.648 44.9874 115.877 45.2445 117.877 46.1431C118.257 46.3293 118.678 46.4178 119.101 46.4005C119.523 46.3831 119.935 46.2605 120.299 46.0438C120.667 45.8082 120.825 45.5543 120.472 45.3556L103.271 25.6823L108.515 22.8009C108.515 22.8009 135.125 36.8622 135.125 47.5636Z" fill="#B8B8FF"/>
<path d="M104.688 26.1938L97.3577 23.2903L92.9417 17.4023L99.286 15.9929L105.284 19.1025L108.883 23.018C109.05 23.1998 109.168 23.4207 109.228 23.6602C109.287 23.8997 109.285 24.1503 109.222 24.3888C109.159 24.6273 109.037 24.8462 108.867 25.0253C108.697 25.2043 108.485 25.3379 108.25 25.4137L105.674 26.2343C105.351 26.3347 105.002 26.3204 104.688 26.1938Z" fill="#B8B8FF"/>
<path opacity="0.7" d="M104.688 26.1938L97.3577 23.2903L92.9417 17.4023L99.286 15.9929L105.284 19.1025L108.883 23.018C109.05 23.1998 109.168 23.4207 109.228 23.6602C109.287 23.8997 109.285 24.1503 109.222 24.3888C109.159 24.6273 109.037 24.8462 108.867 25.0253C108.697 25.2043 108.485 25.3379 108.25 25.4137L105.674 26.2343C105.351 26.3347 105.002 26.3204 104.688 26.1938Z" fill="white" fill-opacity="0.8"/>
<path opacity="0.2" d="M99.8894 61.2642L100.625 68.7088C100.625 68.7088 111.478 66.1917 117.612 63.3839L112.685 63.6525C108.608 63.9322 104.528 63.1645 100.831 61.4224L99.8894 61.2642Z" fill="black"/>
<path d="M101.188 68.5359C101.082 92.2314 96.7283 94.4688 96.9344 114.863C96.9344 114.863 55.9061 115.029 54.515 115.066C51.203 87.6204 47.8285 86.3618 48.719 65.2864C48.2885 58.3644 52.215 52.2776 56.1637 51.4864L74.2288 49.0834L91.6058 50.9234C96.0218 51.5564 100.015 55.0376 101.188 68.5359Z" fill="#B8B8FF"/>
<path d="M71.5571 22.2599C70.4531 19.8311 68.9811 18.6572 69.8385 18.7897C72.1422 19.1577 73.5516 17.13 75.2444 18.2708C76.0688 19.2129 75.1193 20.9646 75.0788 20.8689C75.9252 21.27 76.9814 20.9535 77.6769 20.3353C78.3724 19.717 78.6153 18.6351 78.9576 17.7593C79.2138 18.7011 79.1908 19.697 78.8913 20.626C79.4985 21.1081 80.7497 20.2028 81.3201 19.6766C81.8901 19.0728 82.3165 18.3483 82.5676 17.5569C82.7848 18.4033 82.954 19.2644 82.3468 20.2838C83.208 20.3316 84.3377 20.0666 84.9044 19.4226C85.2006 19.0872 85.4199 18.691 85.547 18.262C85.6741 17.8329 85.706 17.3813 85.6404 16.9386C85.8355 17.3729 85.8649 19.1466 85.4785 19.4447C86.9505 18.9626 88.3158 17.1226 88.2385 15.5881C88.1677 14.8182 87.9123 14.0767 87.4939 13.4265C87.0756 12.7763 86.5067 12.2365 85.8355 11.8529C85.1768 11.4591 84.4444 11.2015 83.7526 10.863C82.6891 10.3404 75.9326 5.29879 66.0113 11.047C59.8547 14.6166 61.058 21.719 61.7904 22.4918C62.6993 23.4449 64.1308 23.765 65.452 23.6326C66.7731 23.5001 71.8441 22.9039 71.5571 22.2599Z" fill="#B8B8FF"/>
<path opacity="0.3" d="M71.5571 22.2599C70.4531 19.8311 68.9811 18.6572 69.8385 18.7897C72.1422 19.1577 73.5516 17.13 75.2444 18.2708C76.0688 19.2129 75.1193 20.9646 75.0788 20.8689C75.9252 21.27 76.9814 20.9535 77.6769 20.3353C78.3724 19.717 78.6153 18.6351 78.9576 17.7593C79.2138 18.7011 79.1908 19.697 78.8913 20.626C79.4985 21.1081 80.7497 20.2028 81.3201 19.6766C81.8901 19.0728 82.3165 18.3483 82.5676 17.5569C82.7848 18.4033 82.954 19.2644 82.3468 20.2838C83.208 20.3316 84.3377 20.0666 84.9044 19.4226C85.2006 19.0872 85.4199 18.691 85.547 18.262C85.6741 17.8329 85.706 17.3813 85.6404 16.9386C85.8355 17.3729 85.8649 19.1466 85.4785 19.4447C86.9505 18.9626 88.3158 17.1226 88.2385 15.5881C88.1677 14.8182 87.9123 14.0767 87.4939 13.4265C87.0756 12.7763 86.5067 12.2365 85.8355 11.8529C85.1768 11.4591 84.4444 11.2015 83.7526 10.863C82.6891 10.3404 75.9326 5.29879 66.0113 11.047C59.8547 14.6166 61.058 21.719 61.7904 22.4918C62.6993 23.4449 64.1308 23.765 65.452 23.6326C66.7731 23.5001 71.8441 22.9039 71.5571 22.2599Z" fill="black"/>
<path d="M84.4077 34.6836C84.4077 34.6836 82.1592 33.7709 75.5315 32.9797C75.8995 35.3865 77.3715 36.4021 80.7608 36.7701C84.1501 37.1381 84.4077 34.6836 84.4077 34.6836Z" fill="#B8B8FF"/>
<path opacity="0.3" d="M84.4077 34.6836C84.4077 34.6836 82.1592 33.7709 75.5315 32.9797C75.8995 35.3865 77.3715 36.4021 80.7608 36.7701C84.1501 37.1381 84.4077 34.6836 84.4077 34.6836Z" fill="black"/>
<path d="M84.106 34.5989C84.0047 34.863 83.8364 35.0962 83.6177 35.2756C83.399 35.455 83.1373 35.5743 82.8585 35.622C80.9013 35.3857 78.9722 34.9567 77.0993 34.3413C76.7823 34.269 76.4923 34.1082 76.263 33.8776C76.0337 33.647 75.8745 33.3561 75.804 33.0386C78.6132 33.304 81.3921 33.8263 84.106 34.5989Z" fill="white" fill-opacity="0.8"/>
<path d="M82.726 35.4233C81.0559 34.7444 79.2906 34.3286 77.4931 34.1905C76.9891 34.2453 76.5096 34.4361 76.1057 34.7425C76.8417 35.9348 78.3137 36.5273 80.7315 36.7996C81.6415 36.9607 82.5792 36.7896 83.3737 36.3175C83.1989 35.9917 82.9811 35.6909 82.726 35.4233Z" fill="white" fill-opacity="0.8"/>
<path d="M52.3918 104.615C52.3918 104.615 61.0693 100.015 61.0214 100.519C60.9736 101.023 61.2018 110.757 61.2018 110.757L51.7405 110.539L52.3918 104.615Z" fill="#B8B8FF"/>
<path d="M61.0139 100.519C61.0139 100.519 69.0032 100.78 68.959 101.667C68.9149 102.554 68.0538 109.998 68.0538 109.998L61.1942 110.76L61.0139 100.519Z" fill="#B8B8FF"/>
<g opacity="0.7">
<path d="M68.9516 101.667C68.9075 102.557 68.05 109.995 68.05 109.995L61.1905 110.756L51.7292 110.539L52.3806 104.614C52.3806 104.614 61.058 100.014 61.0102 100.519C61.0139 100.519 69.0032 100.798 68.9516 101.667Z" fill="white" fill-opacity="0.8"/>
</g>
<path d="M88.7317 50.5628C88.4477 53.2311 87.4498 55.7736 85.8429 57.9228C85.7252 58.081 85.6037 58.2392 85.4749 58.3938C81.898 62.9239 75.469 64.3296 70.122 61.9487C68.4315 61.2163 66.8086 60.3371 65.2717 59.3212C62.2394 57.2824 59.6229 54.4488 58.3901 51.1221L67.7925 49.9114L74.2215 49.0834L78.6154 49.5324L88.7317 50.5628Z" fill="#B8B8FF"/>
<path opacity="0.7" d="M88.7317 50.5628C88.4477 53.2311 87.4498 55.7736 85.8429 57.9228C85.7252 58.081 85.6037 58.2392 85.4749 58.3938C81.898 62.9239 75.469 64.3296 70.122 61.9487C68.4315 61.2163 66.8086 60.3371 65.2717 59.3212C62.2394 57.2824 59.6229 54.4488 58.3901 51.1221L67.7925 49.9114L74.2215 49.0834L78.6154 49.5324L88.7317 50.5628Z" fill="white" fill-opacity="0.8"/>
<path opacity="0.2" d="M48.7781 74.4607C48.7913 78.599 49.1607 82.7285 49.8821 86.8034L52.9549 67.6232L48.7781 74.4607Z" fill="black"/>
<path d="M32.1222 88.338L52.675 102.859L51.733 111.401C51.733 111.401 20.8872 104.309 16.2173 94.686C14.035 90.1964 16.4933 84.7058 20.291 79.6275C20.2928 79.6214 20.2928 79.6151 20.291 79.6091C24.8064 72.2233 28.9096 67.833 32.0045 65.2386C35.0398 62.7687 37.6762 59.8455 39.8208 56.5723C45.1494 48.2076 57.1168 51.5969 57.1168 51.5969C54.3899 57.978 54.3605 70.1146 54.3605 70.1146C54.3605 70.1146 51.6851 72.1313 48.7632 74.4607C48.7338 76.4295 47.5378 78.8399 45.2267 81.5631C42.1907 85.1548 33.16 87.2009 32.1222 88.338Z" fill="#B8B8FF"/>
<path d="M47.6482 49.1239C54.1459 54.528 61.5287 58.7685 69.4706 61.658C69.4706 59.1666 68.6757 54.1324 67.2626 51.0117C66.8615 50.1359 66.3537 49.2564 65.533 48.7522C64.7124 48.2481 63.509 48.2517 62.8981 48.9988C60.565 47.3501 56.7268 47.2729 54.4636 48.9988C52.7119 48.3916 50.2242 47.4274 48.3989 47.7549C46.5736 48.0825 44.3215 50.5149 44.5938 52.3513C46.2774 51.5454 48.1029 51.0778 49.9666 50.9749C49.4661 50.3825 49.9556 50.9933 47.6482 49.1239Z" fill="#B8B8FF"/>
<path opacity="0.6" d="M47.6482 49.1239C54.1459 54.528 61.5287 58.7685 69.4706 61.658C69.4706 59.1666 68.6757 54.1324 67.2626 51.0117C66.8615 50.1359 66.3537 49.2564 65.533 48.7522C64.7124 48.2481 63.509 48.2517 62.8981 48.9988C60.565 47.3501 56.7268 47.2729 54.4636 48.9988C52.7119 48.3916 50.2242 47.4274 48.3989 47.7549C46.5736 48.0825 44.3215 50.5149 44.5938 52.3513C46.2774 51.5454 48.1029 51.0778 49.9666 50.9749C49.4661 50.3825 49.9556 50.9933 47.6482 49.1239Z" fill="white" fill-opacity="0.8"/>
<path d="M94.8699 49.7532C93.8149 49.2757 92.6701 49.0287 91.5119 49.0287C90.3538 49.0287 89.209 49.2757 88.1539 49.7532C86.7114 48.697 84.4923 48.4726 83.0019 49.4846C82.7675 49.2042 82.4773 48.9756 82.1498 48.8134C81.8222 48.6512 81.4645 48.559 81.0994 48.5425C80.3634 48.5167 79.8923 49.0246 79.3882 49.5508C80.448 50.0844 80.989 51.273 81.3644 52.3991C82.3224 55.2515 82.7307 58.2597 82.5677 61.2642C87.6461 58.7839 91.9554 54.6218 94.8699 49.7532Z" fill="#B8B8FF"/>
<path opacity="0.6" d="M94.8699 49.7532C93.8149 49.2757 92.6701 49.0287 91.5119 49.0287C90.3538 49.0287 89.209 49.2757 88.1539 49.7532C86.7114 48.697 84.4923 48.4726 83.0019 49.4846C82.7675 49.2042 82.4773 48.9756 82.1498 48.8134C81.8222 48.6512 81.4645 48.559 81.0994 48.5425C80.3634 48.5167 79.8923 49.0246 79.3882 49.5508C80.448 50.0844 80.989 51.273 81.3644 52.3991C82.3224 55.2515 82.7307 58.2597 82.5677 61.2642C87.6461 58.7839 91.9554 54.6218 94.8699 49.7532Z" fill="white" fill-opacity="0.8"/>
<path opacity="0.5" d="M93.8764 78.4314C93.8764 84.0213 85.9202 94.0125 76.1057 94.0125C66.2911 94.0125 58.335 84.0213 58.335 78.4314C58.335 72.8415 66.2911 68.3077 76.1057 68.3077C85.9202 68.3077 93.8764 72.8305 93.8764 78.4314Z" fill="white" fill-opacity="0.8"/>
<path d="M91.488 78.9135C91.488 83.5172 84.9339 91.7493 76.849 91.7493C68.764 91.7493 62.2136 83.5025 62.2136 78.9135C62.2136 74.3245 68.764 70.5709 76.849 70.5709C84.9339 70.5709 91.488 74.3025 91.488 78.9135Z" fill="#B8B8FF"/>
<path opacity="0.5" d="M91.488 78.9135C91.488 83.5172 84.9339 91.7493 76.849 91.7493C68.764 91.7493 62.2136 83.5025 62.2136 78.9135C62.2136 74.3245 68.764 70.5709 76.849 70.5709C84.9339 70.5709 91.488 74.3025 91.488 78.9135Z" fill="white" fill-opacity="0.8"/>
<path d="M96.9419 115.066H54.5151V121.988H96.9419V115.066Z" fill="white" fill-opacity="0.8"/>
<path d="M54.5151 121.988L50.4561 135.648H98.3145L96.9455 121.988H54.5151Z" fill="#B8B8FF"/>
<path opacity="0.2" d="M54.5151 121.988L50.4561 135.648H98.3145L96.9455 121.988H54.5151Z" fill="white" fill-opacity="0.8"/>
<path d="M85.9606 114.624H73.2756V122.209H85.9606V114.624Z" fill="#263238"/>
<path opacity="0.7" d="M85.9606 114.624H73.2756V122.209H85.9606V114.624Z" fill="white" fill-opacity="0.8"/>
<path opacity="0.7" d="M78.586 114.624L74.8508 122.209H77.6182L81.4711 114.624H78.586Z" fill="white" fill-opacity="0.8"/>
<path opacity="0.7" d="M82.6561 114.624L78.9209 122.209H80.8971L84.75 114.624H82.6561Z" fill="white" fill-opacity="0.8"/>
<path opacity="0.2" d="M90.2222 24.8396C90.0676 25.881 89.2544 27.2574 88.5257 28.3098C88.6441 30.4158 88.5206 32.5285 88.1577 34.6063C87.7164 37.0536 86.4794 39.2867 84.6388 40.9589C82.7983 42.6311 80.4571 43.6489 77.9789 43.8542C77.9329 44.6877 77.9329 45.5231 77.9789 46.3566C78.0306 47.4348 78.244 48.4991 78.6118 49.514L88.7208 50.5444C88.4368 53.2128 87.4388 55.7553 85.832 57.9044C85.7142 58.0626 85.5928 58.2209 85.464 58.3754C81.887 62.9055 75.458 64.3113 70.111 61.9303C68.4244 61.1974 66.8051 60.3182 65.2718 59.3028C62.2395 57.2641 59.623 54.4305 58.3902 51.1038L67.7926 49.893C68.2784 48.5167 68.3888 46.397 68.6096 44.741C68.7641 43.6113 68.5286 41.1678 68.0649 38.8751C67.712 38.6999 67.3758 38.4929 67.0603 38.2569C67.0603 39.3351 66.3243 41.2009 66.3243 41.2009C62.8945 40.0711 60.0683 33.2116 59.7003 30.9374C57.7904 34.4812 57.9596 32.4425 57.8124 30.9374C57.599 28.7698 57.5438 26.5214 58.2835 24.479C58.8113 22.9601 59.8525 21.673 61.2275 20.8394C60.8595 18.3444 61.3673 13.7039 65.9673 11.0359C75.9033 5.28776 82.6451 10.3294 83.7086 10.8519C84.4005 11.1905 85.1291 11.4481 85.7915 11.8418C86.4628 12.2255 87.0317 12.7652 87.45 13.4155C87.8683 14.0657 88.1237 14.8071 88.1945 15.577C88.2424 16.578 87.683 17.7041 86.8808 18.5026C90.2958 18.9406 90.5019 22.9591 90.2222 24.8396Z" fill="white" fill-opacity="0.8"/>
<path opacity="0.2" d="M83.1603 17.9727L83.0352 17.7629C83.0813 17.4901 83.0813 17.2115 83.0352 16.9386C83.1318 17.2744 83.174 17.6235 83.1603 17.9727Z" fill="white" fill-opacity="0.8"/>
<path d="M55.3879 124.652C54.3531 124.989 53.2971 125.257 52.2268 125.454C52.0612 125.484 51.8993 125.513 51.7411 125.535C51.2222 125.612 50.7364 125.66 50.2691 125.682C43.1483 126.05 42.9643 120.104 42.7876 117.075C42.6123 113.025 42.7131 108.967 43.0894 104.931C43.5825 99.3115 44.5172 93.4751 45.8751 89.1069C47.8403 82.8067 51.0271 82.1149 53.7319 82.0671C54.2545 82.0671 54.766 82.0671 55.2444 82.0671C55.2444 82.0671 54.8985 83.8519 54.7329 85.5741L53.6583 93.2064L52.1643 103.797L51.9324 105.45V105.542L51.1228 111.275L50.9351 112.596C50.8505 113.476 50.7879 114.716 51.7484 115.423C51.8838 115.527 52.0322 115.614 52.19 115.68C52.8156 115.96 53.7393 116.074 55.0825 115.916L55.2187 119.677L55.2444 120.354L55.2886 121.524L55.3622 123.651L55.3879 124.652Z" fill="#FFC4C0"/>
<path d="M39.1996 102.785C41.2383 105.115 42.8796 104.832 45.6985 105.273C48.5174 105.715 50.9462 105.56 53.7945 105.299C54.3723 97.3758 55.3475 89.4749 55.2665 81.5592C52.9555 81.7322 50.4825 81.6365 48.5873 82.7846C46.0628 84.3192 45.8935 88.2605 44.1934 91.0389C42.1841 94.3214 39.6081 97.0115 37.0579 99.6685C37.9852 101.288 38.0404 101.442 39.1996 102.785Z" fill="#9393E3"/>
<g opacity="0.6">
<path d="M39.1996 102.785C41.2383 105.115 42.8796 104.832 45.6985 105.273C48.5174 105.715 50.9462 105.56 53.7945 105.299C54.3723 97.3758 55.3475 89.4749 55.2665 81.5592C52.9555 81.7322 50.4825 81.6365 48.5873 82.7846C46.0628 84.3192 45.8935 88.2605 44.1934 91.0389C42.1841 94.3214 39.6081 97.0115 37.0579 99.6685C37.9852 101.288 38.0404 101.442 39.1996 102.785Z" fill="#2A2A4A"/>
</g>
<path opacity="0.2" d="M53.6585 93.2027L49.7283 105.553H54.6889L53.6585 93.2027Z" fill="#2A2A4A"/>
<path d="M91.6287 107.282C91.1761 109.306 90.6351 111.29 90.0831 113.818C89.9654 114.359 89.8439 114.922 89.7151 115.526C89.5495 116.365 89.3839 117.255 89.2257 118.227C89.049 119.331 88.8761 120.508 88.7105 121.818C88.5633 122.952 88.4271 124.174 88.2983 125.498C88.2431 126.076 88.1842 126.672 88.1327 127.298C88.0297 128.516 87.9303 129.815 87.842 131.202C87.7537 132.59 87.6727 134.128 87.5991 135.74C86.3994 135.71 50.9426 135.74 50.9426 135.74C51.1413 133.381 51.3106 131.162 51.4725 129.02C51.5572 127.832 51.6418 126.669 51.7117 125.52V125.495C51.7375 125.127 51.7596 124.796 51.778 124.45C51.8332 123.574 51.881 122.709 51.9252 121.848C52.0319 119.787 52.1129 117.748 52.1644 115.669C52.1644 115.581 52.1644 115.492 52.1644 115.404C52.1938 114.124 52.2122 112.828 52.2196 111.496C52.2196 109.582 52.2196 107.606 52.1791 105.531C52.1791 105.494 52.1791 105.457 52.1791 105.42C52.1791 104.883 52.1607 104.338 52.146 103.786C52.1018 102.094 52.0429 100.327 51.962 98.4688C51.8626 96.1504 51.7338 93.6848 51.5719 91.0573C51.3805 87.9477 51.6013 83.815 53.71 82.0597C53.9187 81.8841 54.1472 81.7334 54.3908 81.6107C54.7526 81.4273 55.1415 81.3031 55.5426 81.2427L66.6746 79.5094L70.557 78.9059L76.2757 80.0099L88.8245 82.4755C88.9748 82.5045 89.1234 82.5414 89.2698 82.5859C90.0809 82.823 90.7918 83.3194 91.2938 83.999C92.5892 85.7323 92.8578 88.783 92.6002 92.8899C92.9204 99.9886 92.4236 103.698 91.6287 107.282Z" fill="#9393E3"/>
<path opacity="0.6" d="M91.6287 107.282C91.1761 109.306 90.6351 111.29 90.0831 113.818C89.9654 114.359 89.8439 114.922 89.7151 115.526C89.5495 116.365 89.3839 117.255 89.2257 118.227C89.049 119.331 88.8761 120.508 88.7105 121.818C88.5633 122.952 88.4271 124.174 88.2983 125.498C88.2431 126.076 88.1842 126.672 88.1327 127.298C88.0297 128.516 87.9303 129.815 87.842 131.202C87.7537 132.59 87.6727 134.128 87.5991 135.74C86.3994 135.71 50.9426 135.74 50.9426 135.74C51.1413 133.381 51.3106 131.162 51.4725 129.02C51.5572 127.832 51.6418 126.669 51.7117 125.52V125.495C51.7375 125.127 51.7596 124.796 51.778 124.45C51.8332 123.574 51.881 122.709 51.9252 121.848C52.0319 119.787 52.1129 117.748 52.1644 115.669C52.1644 115.581 52.1644 115.492 52.1644 115.404C52.1938 114.124 52.2122 112.828 52.2196 111.496C52.2196 109.582 52.2196 107.606 52.1791 105.531C52.1791 105.494 52.1791 105.457 52.1791 105.42C52.1791 104.883 52.1607 104.338 52.146 103.786C52.1018 102.094 52.0429 100.327 51.962 98.4688C51.8626 96.1504 51.7338 93.6848 51.5719 91.0573C51.3805 87.9477 51.6013 83.815 53.71 82.0597C53.9187 81.8841 54.1472 81.7334 54.3908 81.6107C54.7526 81.4273 55.1415 81.3031 55.5426 81.2427L66.6746 79.5094L70.557 78.9059L76.2757 80.0099L88.8245 82.4755C88.9748 82.5045 89.1234 82.5414 89.2698 82.5859C90.0809 82.823 90.7918 83.3194 91.2938 83.999C92.5892 85.7323 92.8578 88.783 92.6002 92.8899C92.9204 99.9886 92.4236 103.698 91.6287 107.282Z" fill="#2A2A4A"/>
<path d="M76.7946 80.6723C79.0246 82.2621 78.0789 84.7608 76.261 86.8032C72.4742 91.0536 68.533 92.3747 68.533 92.3747C68.4741 92.349 58.6963 85.2834 65.589 80.8637C66.7298 80.1277 67.175 78.3944 67.3002 76.5802C67.376 75.1944 67.3206 73.8045 67.1346 72.4291C67.1014 72.0832 67.0462 71.7447 66.9874 71.4245C66.9285 71.1043 66.8622 70.7805 66.785 70.4824L77.1883 66.2063C76.0475 67.9211 75.179 73.4191 75.4219 75.1891C75.6869 77.169 75.7642 79.94 76.7946 80.6723Z" fill="#FFC4C0"/>
<path opacity="0.2" d="M67.3333 76.5802C67.4092 75.1943 67.3537 73.8045 67.1677 72.4291C67.1346 72.0832 67.0794 71.7446 67.0205 71.4245L75.0392 69.8862C73.3685 71.568 70.9986 74.9757 67.3333 76.5802Z" fill="#2A2A4A"/>
<path d="M56.4663 58.4194C56.7275 60.1416 59.1674 62.9421 59.0423 62.7728C58.9446 62.5917 58.9096 62.3834 58.9429 62.1803C58.9985 61.4013 59.1969 60.6392 59.528 59.9319C59.7304 60.896 60.0469 62.8759 61.0295 62.9016C61.4195 62.1914 61.9016 61.5437 61.8354 60.7341C62.0635 61.5621 62.2696 62.3938 62.4941 63.2218C63.4657 62.5921 64.2378 61.6988 64.7201 60.6462C65.2023 59.5937 65.3748 58.4256 65.2173 57.2786C65.1309 56.7452 64.9409 56.2338 64.6579 55.7735C64.3062 55.2655 63.8808 54.8129 63.3957 54.4303C62.1519 53.3741 60.5658 52.5093 58.9797 52.9583C55.9842 53.812 56.205 56.6971 56.4663 58.4194Z" fill="#263238"/>
<path d="M58.5492 66.4234C59.8372 73.4411 68.2387 77.1432 73.7844 72.1163C76.986 69.2202 77.4975 65.7647 78.079 60.3772C78.171 59.5602 78.263 58.7028 78.3697 57.8012C78.5395 56.3808 78.3924 54.9406 77.9391 53.5839C77.7522 53.0171 77.5054 52.4719 77.2031 51.9573C76.1196 50.0019 74.3842 48.4889 72.2994 47.6818C70.2147 46.8748 67.9128 46.8251 65.7951 47.5413C58.8694 49.8818 57.3826 60.1085 58.5492 66.4234Z" fill="#FFC4C0"/>
<path d="M65.3646 56.469C65.3132 56.4505 65.2683 56.4172 65.2358 56.3733C65.1845 56.3039 65.1626 56.217 65.175 56.1315C65.1874 56.046 65.2331 55.9689 65.3021 55.917C65.7153 55.6009 66.1993 55.3901 66.7122 55.3029C67.2251 55.2157 67.7516 55.2547 68.2461 55.4165C68.2855 55.4326 68.3213 55.4564 68.3516 55.4864C68.3818 55.5164 68.4058 55.5521 68.4222 55.5914C68.4386 55.6307 68.4471 55.6729 68.4472 55.7155C68.4473 55.7581 68.4389 55.8003 68.4227 55.8397C68.3892 55.9205 68.3254 55.9851 68.2449 56.0194C68.1644 56.0538 68.0737 56.0554 67.9921 56.0237C67.6 55.8951 67.1824 55.8644 66.7757 55.9343C66.369 56.0042 65.9856 56.1726 65.659 56.4248C65.618 56.457 65.5692 56.478 65.5176 56.4857C65.466 56.4935 65.4133 56.4877 65.3646 56.469Z" fill="#263238"/>
<path d="M61.8095 56.9621C61.7745 56.9208 61.7303 56.8883 61.6805 56.8672C61.6306 56.8461 61.5765 56.837 61.5225 56.8406C61.1015 56.8937 60.6739 56.8482 60.2734 56.7077C59.873 56.5672 59.5107 56.3356 59.2151 56.031C59.1579 55.9636 59.0766 55.9213 58.9886 55.913C58.9006 55.9048 58.8128 55.9313 58.7441 55.9869C58.6785 56.0433 58.6367 56.1225 58.6271 56.2086C58.6175 56.2946 58.6409 56.3811 58.6926 56.4506C59.0567 56.8409 59.5089 57.1385 60.0114 57.3184C60.514 57.4983 61.0523 57.5553 61.5814 57.4846C61.6259 57.4815 61.6694 57.4693 61.7091 57.4489C61.7489 57.4284 61.7841 57.4002 61.8126 57.3658C61.8412 57.3314 61.8624 57.2916 61.8752 57.2488C61.8879 57.206 61.8919 57.161 61.8868 57.1166C61.8737 57.0597 61.8472 57.0067 61.8095 56.9621Z" fill="#263238"/>
<path d="M63.0645 64.3846C62.0555 64.3941 61.0737 64.0577 60.2825 63.4315C61.3607 62.3606 62.5678 61.1573 63.3074 59.8288L63.0645 64.3846Z" fill="#ED893E"/>
<path d="M60.5548 60.2299C60.2793 60.2081 60.0109 60.1319 59.7652 60.0055C59.5195 59.8792 59.3012 59.7053 59.1233 59.4939C59.1066 59.4763 59.0936 59.4555 59.0849 59.4329C59.0762 59.4102 59.0721 59.386 59.0728 59.3618C59.0735 59.3375 59.079 59.3136 59.0889 59.2915C59.0988 59.2693 59.113 59.2493 59.1306 59.2327C59.1483 59.216 59.169 59.2029 59.1917 59.1943C59.2144 59.1856 59.2385 59.1815 59.2628 59.1822C59.287 59.1829 59.3109 59.1884 59.3331 59.1983C59.3552 59.2082 59.3752 59.2224 59.3919 59.24C59.8004 59.6706 60.4407 60.0975 61.162 59.6743C61.2041 59.6496 61.2542 59.6423 61.3016 59.654C61.349 59.6657 61.39 59.6954 61.4159 59.7368C61.4402 59.7794 61.4469 59.8298 61.4345 59.8773C61.4222 59.9247 61.3917 59.9655 61.3497 59.9907C61.111 60.1404 60.8364 60.2231 60.5548 60.2299Z" fill="#263238"/>
<path d="M66.9578 66.0848C66.4395 66.4823 65.8469 66.7721 65.2149 66.9371C64.5829 67.1021 63.9243 67.1388 63.2778 67.0453C63.2339 67.0406 63.1934 67.0194 63.1647 66.9858C63.1359 66.9523 63.1211 66.9091 63.1232 66.8649C63.1242 66.8442 63.1292 66.8238 63.1381 66.8049C63.1469 66.7861 63.1594 66.7692 63.1748 66.7552C63.1901 66.7411 63.2081 66.7303 63.2277 66.7233C63.2473 66.7162 63.2681 66.7131 63.2888 66.7141C63.9937 66.8136 64.712 66.7499 65.3883 66.5278C66.0646 66.3058 66.6809 65.9314 67.1896 65.4334C67.2198 65.4044 67.26 65.3882 67.3019 65.3882C67.3437 65.3882 67.384 65.4044 67.4141 65.4334C67.4431 65.4658 67.4591 65.5077 67.4591 65.5512C67.4591 65.5946 67.4431 65.6366 67.4141 65.6689C67.2767 65.8186 67.1246 65.9572 66.9578 66.0848Z" fill="#263238"/>
<path d="M74.4172 70.6223C75.2667 70.4634 76.0686 70.1122 76.7614 69.5956C76.7614 70.5266 77.387 72.1237 77.387 72.1237C80.3494 71.1485 82.7892 65.22 83.1168 63.2549C84.7654 66.3167 84.6219 64.5576 84.7507 63.2549C84.9347 61.3818 84.9788 59.4424 84.3422 57.676C83.7056 55.9096 82.2446 54.3309 80.3899 54.0255C80.0445 53.9929 79.6968 54.0536 79.3829 54.2012C79.0689 54.3488 78.8004 54.5778 78.6051 54.8645C78.2877 55.4341 78.0805 56.0583 77.9942 56.7045C77.1331 61.345 77.1699 66.773 74.4172 70.6223Z" fill="#263238"/>
<path d="M78.6199 59.9503C76.353 59.9981 74.9657 62.8575 74.7265 64.8152C74.4431 66.9901 75.9077 68.7823 78.009 67.8181C78.7925 67.4544 79.4955 66.938 80.0769 66.2991C80.6582 65.6603 81.1062 64.9118 81.3946 64.0976C82.0938 62.0847 80.8868 59.9098 78.6199 59.9503Z" fill="#FFC4C0"/>
<path opacity="0.2" d="M84.9089 96.0621C84.9089 96.0621 82.1562 108.519 84.0662 116.037C85.9761 123.555 89.7885 127.346 89.7885 127.346L90.4693 96.0658L84.9089 96.0621Z" fill="#2A2A4A"/>
<path opacity="0.2" d="M89.7886 127.346C89.2475 127.475 88.6822 127.462 88.1474 127.309C88.0443 128.527 87.945 129.826 87.8566 131.213C85.667 132.387 75.904 128.939 67.3406 125.498C65.4528 124.74 63.6238 123.979 61.9494 123.268C61.3533 123.022 60.7829 122.775 60.2346 122.532C59.0974 122.047 58.0597 121.594 57.1544 121.196C56.4184 120.876 55.7707 120.589 55.2334 120.346C54.111 119.85 53.467 119.555 53.467 119.555L55.2077 119.669L68.9525 120.56L72.5037 120.792L73.2176 120.832L77.6152 121.115L80.6181 121.307H80.7726L83.6872 121.495L86.0608 121.645L88.7104 121.815L89.7739 121.885C89.7739 121.885 89.8328 122.621 89.8512 123.853V123.898C89.877 124.814 89.8659 125.988 89.7886 127.346Z" fill="#2A2A4A"/>
<path d="M95.4484 107.33C94.9038 113.086 94.1016 118.771 93.4392 122.503C92.9792 125.101 91.5108 126.919 89.7886 127.353C89.2475 127.482 88.6821 127.47 88.1473 127.316C88.0664 127.294 87.9891 127.268 87.9081 127.239L74.7337 123.842L74.6196 123.809L73.2102 123.441L73.2323 120.828V120.619V119.585L73.2617 116.32L75.0428 116.416L83.746 116.88C83.9222 116.929 84.1074 116.937 84.287 116.902C85.0414 116.758 85.667 115.875 85.759 114.712L85.9283 112.188L86.2963 106.62L87.0065 96.0547L87.6579 86.2733C87.7302 85.2179 87.8964 84.1711 88.1547 83.1453C89.2617 83.1923 90.3426 83.4959 91.3121 84.0322C93.3619 85.1362 95.5883 87.4803 95.9489 92.2864C96.2507 96.2755 95.971 101.832 95.4484 107.33Z" fill="#FFC4C0"/>
<path d="M79.6427 124.788L60.308 121.057C59.781 120.891 59.2219 120.854 58.6778 120.95L53.2314 121.885C52.6465 121.986 52.0454 121.936 51.4856 121.739C50.9257 121.542 50.4257 121.204 50.0335 120.759L47.4575 117.837C47.1469 117.486 46.9103 117.075 46.7618 116.631C46.6134 116.186 46.5562 115.716 46.5937 115.249C46.6311 114.782 46.7624 114.327 46.9798 113.911C47.1971 113.496 47.496 113.129 47.8586 112.832L48.7823 112.074C49.3823 111.581 50.13 111.303 50.9063 111.284C51.6826 111.266 52.4428 111.507 53.0658 111.971C53.695 112.439 54.4642 112.68 55.248 112.655H55.5682C56.2957 112.633 57.012 112.839 57.616 113.245C58.2201 113.651 58.6816 114.236 58.9354 114.918L59.2372 115.724L74.9986 116.328L79.6427 124.788Z" fill="#FFC4C0"/>
<path opacity="0.1" d="M56.4663 116.184C57.3899 116.004 58.3063 115.857 59.2336 115.706L58.9355 114.911C58.6817 114.229 58.2203 113.644 57.6162 113.238C57.0121 112.832 56.2958 112.625 55.5683 112.648H55.2482C54.4643 112.673 53.6951 112.432 53.0659 111.963C52.4429 111.5 51.6827 111.258 50.9064 111.277C50.1301 111.295 49.3824 111.573 48.7824 112.066L47.8587 112.824C47.2611 113.315 46.8436 113.991 46.6717 114.745C46.4998 115.499 46.5834 116.289 46.9093 116.99C48.672 117.156 54.9979 116.471 56.4663 116.184Z" fill="#2A2A4A"/>
<path opacity="0.2" d="M85.704 120.825C85.0554 121.1 84.3875 121.328 83.7057 121.506C82.4214 121.874 80.6513 122.337 78.5868 122.853C77.3577 123.158 76.0109 123.478 74.6272 123.809C72.3161 124.361 69.8432 124.939 67.3628 125.502C60.8897 126.974 54.4829 128.384 51.5094 129.035C51.5941 127.846 51.6787 126.683 51.7486 125.535C51.2297 125.613 50.744 125.66 50.2766 125.682V125.594L50.3907 124.781L51.7891 124.464L55.3477 123.655L60.231 122.551L63.808 121.737L68.96 120.564L73.2361 119.592L76.3899 118.874L78.7598 118.337C78.7598 118.337 83.0764 118.786 85.152 119.511C86.2486 119.879 86.7086 120.324 85.704 120.825Z" fill="#2A2A4A"/>
<path d="M45.0913 115.555L74.7631 115.007C75.3125 114.96 75.8433 114.785 76.3124 114.495L81.0155 111.584C81.5195 111.271 82.0954 111.093 82.6881 111.066C83.2808 111.039 83.8706 111.164 84.4011 111.43L87.8823 113.17C88.3004 113.38 88.6721 113.672 88.9754 114.028C89.2786 114.384 89.5072 114.798 89.6476 115.244C89.788 115.69 89.8373 116.16 89.7926 116.625C89.7479 117.091 89.6101 117.543 89.3875 117.954L88.8244 119.014C88.4523 119.696 87.8629 120.233 87.1501 120.541C86.4373 120.849 85.6419 120.91 84.8905 120.714C84.1324 120.516 79.3705 121.292 78.3475 120.192L77.7587 119.566L54.1515 125.123C52.4779 125.517 50.7573 125.675 49.0399 125.59L45.0913 115.555Z" fill="#FFC4C0"/>
<path d="M103.324 105.649C102.516 106.229 101.585 106.616 100.604 106.778C94.2083 107.838 90.1566 107.301 85.0009 106.41C84.0919 97.8543 84.3201 91.2303 85.9614 86.4463C86.5097 84.8565 88.0774 82.5418 89.7555 82.6117C96.8836 82.9098 98.098 90.0784 98.9113 93.3868C99.9216 97.6253 101.402 101.738 103.324 105.649Z" fill="#9393E3"/>
<path opacity="0.6" d="M103.324 105.649C102.516 106.229 101.585 106.616 100.604 106.778C94.2083 107.838 90.1566 107.301 85.0009 106.41C84.0919 97.8543 84.3201 91.2303 85.9614 86.4463C86.5097 84.8565 88.0774 82.5418 89.7555 82.6117C96.8836 82.9098 98.098 90.0784 98.9113 93.3868C99.9216 97.6253 101.402 101.738 103.324 105.649Z" fill="#2A2A4A"/>
<path d="M72.857 56.5573C73.7365 54.2904 75.0245 53.1533 74.2627 53.3079C72.2019 53.7311 70.8477 51.9463 69.372 53.0613C68.6691 53.9555 69.5965 55.5195 69.6296 55.4312C68.8936 55.8323 67.9184 55.5895 67.267 55.0632C66.6157 54.537 66.3507 53.5471 66.0048 52.7743C65.8155 53.6471 65.878 54.5558 66.1851 55.3944C65.6589 55.8618 64.496 55.0816 63.9771 54.6253C63.4409 54.0895 63.031 53.4408 62.7774 52.7264C62.6229 53.5066 62.5014 54.3051 63.0939 55.2104C62.3174 55.2877 61.2907 55.0927 60.7534 54.5259C60.472 54.2303 60.2579 53.8772 60.1258 53.491C59.9937 53.1048 59.9467 52.6946 59.988 52.2885C59.8298 52.6933 59.8776 54.3309 60.2382 54.5738C58.884 54.2058 57.585 52.5645 57.5886 51.1587C57.6189 50.4542 57.8174 49.7672 58.1676 49.1551C58.5179 48.543 59.0095 48.0237 59.6016 47.6407C60.1757 47.2727 60.8234 46.9856 61.4416 46.6471C62.3763 46.1282 68.2533 41.2301 77.4275 46.084C83.1242 49.0943 82.3403 55.652 81.711 56.388C80.9309 57.297 79.6539 57.6503 78.4579 57.584C77.2619 57.5178 72.6325 57.1571 72.857 56.5573Z" fill="#263238"/>
<path d="M74.0786 53.2895C73.4834 53.9296 73.039 54.6948 72.7779 55.5289C72.5169 56.3631 72.4458 57.2451 72.5698 58.1103C72.8311 59.8325 75.2746 62.6367 75.1458 62.4637C75.0481 62.2826 75.0132 62.0743 75.0464 61.8712C75.1021 61.0922 75.3004 60.3301 75.6316 59.6228C75.8376 60.5869 76.1504 62.5668 77.1367 62.5925C77.5268 61.8823 78.0052 61.2346 77.9389 60.425C78.1671 61.253 78.3732 62.0847 78.6013 62.9127C79.5723 62.2824 80.3439 61.3889 80.8261 60.3366C81.3082 59.2842 81.4811 58.1164 81.3245 56.9695C81.2369 56.4358 81.0456 55.9245 80.7615 55.4644C80.4063 54.96 79.977 54.5122 79.4882 54.1359C78.2444 53.0797 76.5957 52.0272 75.0722 52.6639C74.8808 52.7485 74.0197 53.0613 74.0786 53.2895Z" fill="#263238"/>
<path d="M67.9479 58.8831C67.9479 59.4571 67.6425 59.9171 67.2745 59.9282C66.9065 59.9392 66.6047 59.4829 66.5753 58.8941C66.5459 58.3053 66.8807 57.86 67.2524 57.8527C67.6241 57.8453 67.9516 58.3163 67.9479 58.8831Z" fill="#263238"/>
<path d="M11.2902 111.989C11.4685 111.159 11.5915 110.319 11.6582 109.472C12.0262 106.628 13.6969 104.427 15.8202 103.996L17.3548 103.68C17.3548 103.68 14.9481 103.68 13.9434 102.977C11.8164 101.505 11.327 97.0891 11.327 97.0891C11.327 97.0891 10.7308 101.505 8.60008 102.977C7.59544 103.68 5.18872 103.68 5.18872 103.68L6.72328 103.996C8.85032 104.427 10.5358 106.628 10.889 109.472C10.9678 110.319 11.1018 111.16 11.2902 111.989Z" fill="#FFCC00"/>
<path d="M116.424 80.0838C116.583 79.3683 116.694 78.6429 116.755 77.9126C117.061 75.4617 118.514 73.5665 120.347 73.1911L121.668 72.9225C121.668 72.9225 119.592 72.9225 118.724 72.3153C116.884 71.031 116.468 67.2369 116.468 67.2369C116.468 67.2369 115.953 71.031 114.12 72.3153C113.255 72.9225 111.176 72.9225 111.176 72.9225L112.501 73.1911C114.341 73.5591 115.787 75.4617 116.089 77.9126C116.154 78.6427 116.266 79.368 116.424 80.0838Z" fill="#FFCC00"/>
<path d="M42.6915 41.0574C42.7651 41.0279 42.9638 39.5854 43.1772 37.8705C43.6225 34.2678 45.7532 31.482 48.4507 30.9337L50.3937 30.5362C50.3937 30.5362 47.343 30.5362 46.0734 29.6457C43.376 27.7615 42.7614 22.19 42.7614 22.19C42.7614 22.19 42.0254 27.7615 39.3132 29.6457C38.04 30.5362 34.9929 30.5362 34.9929 30.5362L36.936 30.9337C39.626 31.482 41.7604 34.2678 42.2057 37.8705C42.4192 39.6001 42.6142 41.0279 42.6915 41.0574Z" fill="#FFCC00"/>
<path d="M127.221 120.788C127.298 120.759 127.497 119.316 127.71 117.601C128.156 113.999 130.286 111.213 132.984 110.665L134.927 110.267C134.927 110.267 131.876 110.267 130.603 109.377C127.909 107.489 127.291 101.917 127.291 101.917C127.291 101.917 126.555 107.489 123.839 109.377C122.57 110.267 119.519 110.267 119.519 110.267L121.462 110.665C124.156 111.213 126.29 113.999 126.735 117.601C126.949 119.331 127.147 120.759 127.221 120.788Z" fill="#FFCC00"/>
<path d="M96.2428 41.9185C96.3607 41.3873 96.4431 40.8488 96.4894 40.3067C96.7138 38.4888 97.7921 37.0793 99.1537 36.7996L100.136 36.6009C100.136 36.6009 98.5943 36.6009 97.954 36.152C96.5887 35.1988 96.2759 32.38 96.2759 32.38C96.2759 32.38 95.9079 35.1988 94.5353 36.152C93.8913 36.6009 92.3494 36.6009 92.3494 36.6009L93.3319 36.7996C94.6935 37.0793 95.7718 38.4888 95.9962 40.3067C96.0447 40.8486 96.127 41.3869 96.2428 41.9185Z" fill="#FFCC00"/>
<path d="M11.9708 64.5615C12.0909 64.0307 12.1733 63.4921 12.2174 62.9497C12.4419 61.1318 13.5238 59.7223 14.8817 59.4426L15.8643 59.2439C15.8643 59.2439 14.3224 59.2439 13.682 58.795C12.3204 57.8418 12.0076 55.0266 12.0076 55.0266C12.0076 55.0266 11.6396 57.8418 10.2633 58.795C9.61931 59.2439 8.07739 59.2439 8.07739 59.2439L9.05995 59.4426C10.4216 59.7223 11.4998 61.1318 11.7243 62.9497C11.7727 63.4916 11.855 64.0299 11.9708 64.5615Z" fill="#FFCC00"/>
</svg>
