<svg width="324" height="324" viewBox="0 0 324 324" fill="none" xmlns="http://www.w3.org/2000/svg">
<path d="M201.437 162.136L124.896 161.397L101.736 161.287H95.4245H93.7851C93.5995 161.276 93.4134 161.276 93.2278 161.287C93.412 161.317 93.5985 161.33 93.7851 161.326L95.4245 161.365L101.73 161.443L124.928 161.572L201.47 161.618C231.349 161.618 258.403 161.657 277.986 161.799C287.777 161.87 295.702 161.961 301.178 162.071C303.919 162.123 306.044 162.175 307.483 162.233C308.221 162.217 308.959 162.274 309.686 162.402C308.958 162.519 308.22 162.567 307.483 162.544C306.044 162.583 303.912 162.622 301.178 162.642C295.695 162.693 287.77 162.706 277.979 162.642C258.364 162.68 231.336 162.447 201.437 162.136Z" fill="#EBEBEB"/>
<path d="M200.841 168.882L125.349 156.252L102.449 152.539L96.2149 151.574L94.5949 151.347C94.4113 151.31 94.2248 151.291 94.0376 151.289C94.2151 151.346 94.3972 151.387 94.5819 151.412L96.1954 151.71L102.41 152.766L125.304 156.498L200.912 168.435C230.429 173.068 257.146 177.312 276.469 180.494C286.131 182.088 293.965 183.41 299.337 184.382C302.039 184.861 304.126 185.244 305.545 185.522C306.274 185.627 306.992 185.799 307.69 186.034C306.953 186.04 306.217 185.974 305.493 185.84C304.061 185.652 301.955 185.36 299.246 184.959C293.829 184.155 285.995 182.937 276.327 181.388C256.99 178.271 230.306 173.833 200.841 168.882Z" fill="#EBEBEB"/>
<path d="M199.195 175.446L126.619 151.088L104.587 143.811L98.5866 141.867L97.0184 141.381C96.8402 141.322 96.6584 141.274 96.4741 141.238C96.6401 141.325 96.8136 141.396 96.9925 141.452L98.5412 141.996L104.516 144.025L126.548 151.315L199.331 175.005C227.746 184.226 253.465 192.625 272.05 198.813C281.336 201.904 288.846 204.444 294.023 206.239C296.615 207.133 298.611 207.846 299.966 208.345C300.672 208.56 301.355 208.842 302.007 209.187C301.279 209.076 300.563 208.896 299.868 208.65C298.482 208.241 296.447 207.619 293.836 206.796C288.613 205.15 281.07 202.714 271.765 199.668C253.161 193.571 227.513 184.978 199.195 175.446Z" fill="#EBEBEB"/>
<path d="M196.539 181.667L128.712 146.195L108.106 135.549L102.481 132.691L101.01 131.972C100.847 131.88 100.676 131.804 100.499 131.745C100.652 131.85 100.812 131.946 100.978 132.03L102.417 132.814L107.996 135.75L128.596 146.448L196.746 181.304C223.353 194.912 247.433 207.224 264.786 216.257C273.476 220.793 280.494 224.461 285.321 227.046C287.738 228.342 289.604 229.36 290.862 230.066C291.522 230.389 292.151 230.773 292.741 231.213C292.041 230.989 291.364 230.698 290.719 230.345C289.423 229.697 287.479 228.789 285.055 227.565C280.157 225.115 273.087 221.525 264.384 217.041C246.985 208.053 223.003 195.534 196.539 181.667Z" fill="#EBEBEB"/>
<path d="M192.942 187.395L131.492 141.757L112.797 128.019L107.691 124.319L106.35 123.373C106.2 123.262 106.044 123.161 105.883 123.068C106.013 123.204 106.156 123.325 106.311 123.431L107.607 124.429L112.661 128.2L131.337 141.957L193.201 187.032C217.359 204.606 239.209 220.56 254.962 232.198C262.835 238.03 269.218 242.76 273.553 246.065C275.737 247.718 277.441 249.02 278.556 249.914C279.162 250.332 279.724 250.809 280.234 251.34C279.576 251.009 278.951 250.617 278.368 250.167C277.182 249.35 275.439 248.126 273.184 246.532C268.726 243.35 262.31 238.697 254.392 232.924C238.639 221.344 216.911 205.228 192.942 187.395Z" fill="#EBEBEB"/>
<path d="M188.49 192.495L134.888 137.855L118.584 121.377L114.113 116.925L112.934 115.785C112.806 115.648 112.667 115.523 112.519 115.409C112.629 115.56 112.753 115.701 112.888 115.83L114.016 117.016L118.422 121.552L134.713 138.024C148.574 151.891 167.69 171.033 188.814 192.177C209.939 213.322 229.049 232.451 242.793 246.395C249.668 253.374 255.208 259.038 258.993 262.991C260.891 264.935 262.356 266.503 263.334 267.566C263.866 268.076 264.348 268.635 264.773 269.238C264.174 268.809 263.618 268.323 263.114 267.786C262.064 266.795 260.522 265.317 258.578 263.393C254.69 259.556 249.052 253.964 242.151 247.018C228.355 233.131 209.395 213.84 188.49 192.495Z" fill="#EBEBEB"/>
<path d="M183.306 196.836L138.853 134.518L125.291 115.726L121.565 110.633L120.58 109.337C120.476 109.181 120.356 109.035 120.223 108.903C120.315 109.067 120.416 109.225 120.528 109.376L121.461 110.724L125.103 115.869L138.672 134.667L183.695 196.571C201.282 220.722 217.177 242.579 228.582 258.533C234.291 266.49 238.879 272.951 242.015 277.441C243.59 279.683 244.795 281.439 245.598 282.625C246.041 283.212 246.427 283.839 246.752 284.498C246.227 283.982 245.753 283.415 245.339 282.807C244.458 281.666 243.181 279.968 241.548 277.765C238.308 273.365 233.604 266.97 227.869 259.032C216.367 243.181 200.64 221.169 183.306 196.836Z" fill="#EBEBEB"/>
<path d="M177.506 200.316C164.171 173.567 152.098 149.364 143.344 131.816L132.892 111.113L130.008 105.501L129.237 104.049C129.156 103.883 129.063 103.723 128.958 103.57C129.015 103.747 129.089 103.919 129.179 104.082L129.885 105.566C130.533 106.862 131.479 108.806 132.684 111.216L143.124 131.952L177.908 200.141C191.516 226.742 203.783 250.847 212.563 268.356C216.957 277.104 220.482 284.206 222.873 289.131C224.072 291.594 224.992 293.512 225.595 294.821C225.947 295.468 226.232 296.15 226.443 296.855C226.01 296.261 225.632 295.627 225.316 294.963C224.623 293.7 223.625 291.82 222.355 289.39C219.821 284.537 216.199 277.487 211.773 268.752C202.915 251.262 190.816 227.059 177.506 200.316Z" fill="#EBEBEB"/>
<path d="M171.234 202.824C162.266 174.312 154.159 148.509 148.275 129.801C145.294 120.489 142.884 112.953 141.206 107.711C140.357 105.119 139.696 103.11 139.262 101.717C139.035 101.069 138.86 100.537 138.73 100.168C138.677 99.9879 138.61 99.8124 138.529 99.6429C138.556 99.8285 138.602 100.011 138.665 100.187L139.132 101.762L141.005 107.782L148.055 129.879L171.681 202.688C180.928 231.096 189.255 256.835 195.177 275.504C198.132 284.835 200.498 292.404 202.085 297.646C202.882 300.238 203.485 302.305 203.88 303.692C204.12 304.389 204.294 305.107 204.399 305.837C204.057 305.183 203.781 304.497 203.576 303.789C203.09 302.435 202.403 300.419 201.528 297.821C199.791 292.637 197.329 285.094 194.329 275.789C188.309 257.152 180.144 231.336 171.234 202.824Z" fill="#EBEBEB"/>
<path d="M164.637 204.353L153.453 128.628C151.975 118.96 150.783 111.132 149.953 105.702C149.519 103.013 149.182 100.92 148.955 99.4745L148.677 97.8545C148.652 97.6698 148.611 97.4876 148.554 97.3102C148.56 97.4968 148.577 97.6829 148.606 97.8675C148.657 98.2498 148.729 98.7941 148.819 99.4939C149.033 100.939 149.331 103.039 149.72 105.734C150.55 111.171 151.735 118.999 153.206 128.667C156.252 148.036 160.445 174.759 165.084 204.282C169.724 233.805 173.916 260.496 176.826 279.891C178.277 289.572 179.418 297.419 180.17 302.843C180.539 305.558 180.818 307.664 180.986 309.096C181.114 309.823 181.173 310.561 181.161 311.299C180.932 310.599 180.769 309.879 180.675 309.148C180.409 307.729 180.027 305.636 179.593 302.934C178.692 297.529 177.442 289.701 175.951 280.027C172.951 260.671 168.979 233.928 164.637 204.353Z" fill="#EBEBEB"/>
<path d="M157.885 204.813C158.157 174.921 158.397 147.874 158.579 128.272C158.617 118.487 158.65 110.575 158.676 105.073C158.676 102.352 158.676 100.233 158.676 98.7682C158.676 98.0619 158.676 97.5176 158.676 97.1288C158.683 96.9402 158.672 96.7514 158.643 96.565C158.623 96.7522 158.612 96.9404 158.611 97.1288C158.611 97.5176 158.611 98.0619 158.572 98.7682C158.572 100.233 158.527 102.352 158.494 105.073C158.494 110.568 158.43 118.487 158.384 128.272V204.813C158.384 234.686 158.384 261.74 158.248 281.323C158.183 291.121 158.099 299.046 157.995 304.521C157.944 307.256 157.892 309.381 157.833 310.826C157.849 311.562 157.795 312.297 157.671 313.023C157.55 312.297 157.5 311.562 157.522 310.826C157.483 309.381 157.445 307.256 157.419 304.515C157.367 299.039 157.354 291.114 157.373 281.323C157.373 261.734 157.594 234.686 157.885 204.813Z" fill="#EBEBEB"/>
<path d="M151.14 204.217C156.052 174.733 160.497 148.055 163.724 128.719C165.279 119.064 166.543 111.223 167.424 105.818C167.839 103.123 168.156 101.03 168.383 99.5847C168.48 98.8849 168.558 98.347 168.61 97.9582C168.647 97.7747 168.667 97.5881 168.668 97.4009C168.608 97.5776 168.567 97.76 168.545 97.9453L168.247 99.5653C168.007 101.004 167.651 103.097 167.191 105.78C166.309 111.21 165.046 119.025 163.478 128.673C160.432 148.042 156.233 174.766 151.587 204.295C146.941 233.824 142.748 260.529 139.573 279.858C137.985 289.52 136.67 297.354 135.717 302.726C135.238 305.422 134.856 307.515 134.577 308.934C134.476 309.663 134.306 310.381 134.071 311.079C134.062 310.342 134.127 309.606 134.266 308.882C134.447 307.45 134.739 305.344 135.141 302.636C135.938 297.218 137.149 289.384 138.698 279.716C141.783 260.373 146.209 233.682 151.14 204.217Z" fill="#EBEBEB"/>
<path d="M144.575 202.578L168.888 130.002C171.953 120.709 174.429 113.193 176.146 107.97C176.982 105.378 177.63 103.356 178.09 101.963L178.576 100.395C178.639 100.22 178.684 100.04 178.712 99.8568C178.632 100.025 178.562 100.198 178.505 100.375L177.96 101.924C177.494 103.311 176.813 105.313 175.938 107.892C174.215 113.115 171.733 120.632 168.661 129.924L145.003 202.72C135.801 231.142 127.423 256.867 121.241 275.452C118.156 284.744 115.623 292.255 113.828 297.432C112.933 300.024 112.227 302.026 111.728 303.374C111.515 304.081 111.233 304.764 110.886 305.415C111.007 304.682 111.198 303.961 111.456 303.264C111.858 301.877 112.48 299.843 113.303 297.231C114.942 292.008 117.379 284.466 120.431 275.154C126.483 256.556 135.063 230.895 144.575 202.578Z" fill="#EBEBEB"/>
<path d="M138.348 199.928C152.182 173.431 164.708 149.455 173.78 132.075L184.414 111.456L187.265 105.825L187.991 104.354C188.076 104.188 188.152 104.017 188.218 103.842C188.107 103.993 188.009 104.154 187.926 104.322L187.148 105.767C186.468 107.063 185.477 108.935 184.213 111.346L173.56 131.952L138.749 200.122C125.18 226.742 112.829 250.828 103.835 268.207C99.2991 276.897 95.6379 283.915 93.0588 288.749C91.7628 291.166 90.752 293.032 90.0456 294.289C89.7214 294.951 89.3375 295.583 88.8987 296.175C89.1204 295.472 89.4112 294.792 89.767 294.147C90.415 292.851 91.3222 290.907 92.5404 288.483C94.9899 283.578 98.5798 276.515 103.051 267.806C112 250.387 124.5 226.398 138.348 199.928Z" fill="#EBEBEB"/>
<path d="M132.619 196.344L178.199 134.849L191.931 116.154C193.525 113.944 194.762 112.227 195.624 111.041L196.57 109.7C196.681 109.55 196.782 109.395 196.875 109.233C196.739 109.363 196.618 109.506 196.512 109.661C196.279 109.972 195.948 110.4 195.514 110.957L191.743 116.011L178.005 134.7C166.464 150.55 150.549 172.42 132.963 196.59C115.376 220.761 99.4675 242.598 87.8359 258.377C82.0039 266.257 77.2864 272.633 73.9816 276.981C72.3292 279.165 71.0332 280.869 70.139 281.984C69.7166 282.586 69.2394 283.148 68.7134 283.662C69.0407 283.002 69.4336 282.377 69.8863 281.796C70.7027 280.61 71.921 278.867 73.5151 276.612C76.6903 272.154 81.3429 265.732 87.1231 257.82C98.7028 242.054 114.806 220.32 132.619 196.344Z" fill="#EBEBEB"/>
<path d="M127.52 191.886L182.127 138.244L198.599 121.908L203.044 117.437L204.185 116.258C204.321 116.131 204.444 115.992 204.554 115.843C204.407 115.955 204.268 116.079 204.139 116.212L202.947 117.346L198.411 121.746L181.932 138.076L127.811 192.203C106.706 213.348 87.5642 232.464 73.6257 246.221C66.6532 253.102 60.9897 258.643 57.0434 262.421C55.0994 264.326 53.5312 265.79 52.4685 266.769C51.9585 267.301 51.3987 267.782 50.7966 268.207C51.2276 267.61 51.7136 267.055 52.2481 266.548C53.2396 265.499 54.717 263.956 56.6351 262.012C60.4713 258.124 66.0635 252.487 73.0036 245.573C86.9097 231.777 106.194 212.803 127.52 191.886Z" fill="#EBEBEB"/>
<path d="M123.178 186.702L185.464 142.21L204.256 128.602L209.343 124.876L210.639 123.891C210.79 123.783 210.933 123.664 211.067 123.535C210.901 123.62 210.742 123.72 210.593 123.833L209.304 124.798L204.12 128.447L185.328 142.009L123.45 187.065C99.3124 204.671 77.4424 220.579 61.521 231.997C53.5701 237.712 47.1095 242.307 42.6189 245.443C40.3768 247.011 38.6272 248.223 37.4349 249.026C36.8478 249.473 36.2184 249.862 35.5557 250.186C36.0716 249.661 36.6381 249.188 37.2469 248.774C38.3874 247.886 40.0917 246.609 42.2884 244.97C46.6818 241.73 53.0841 237.025 61.0091 231.284C76.8527 219.789 98.8523 204.049 123.178 186.702Z" fill="#EBEBEB"/>
<path d="M119.692 180.902L188.166 146.701L208.87 136.236L214.475 133.345L215.926 132.574C216.093 132.493 216.253 132.4 216.406 132.296C216.229 132.354 216.058 132.428 215.894 132.516L214.417 133.229L208.766 136.028L188.03 146.48L119.88 181.31C93.3117 194.918 69.1867 207.23 51.6907 216.004C42.9427 220.404 35.8406 223.929 30.9158 226.327C28.4534 227.532 26.5353 228.446 25.2264 229.055C24.5776 229.404 23.896 229.688 23.1917 229.904C23.7912 229.462 24.4287 229.074 25.0968 228.744C26.3928 228.051 28.2396 227.053 30.6696 225.783C35.5231 223.243 42.5733 219.62 51.3019 215.188C68.7655 206.343 92.9554 194.232 119.692 180.902Z" fill="#EBEBEB"/>
<path d="M117.158 174.63L190.168 151.632L212.252 144.556L218.246 142.612L219.795 142.08C219.976 142.027 220.151 141.958 220.32 141.873C220.135 141.909 219.954 141.957 219.775 142.016L218.207 142.482L212.181 144.355L190.091 151.418L117.288 175.064C88.8858 184.324 63.1537 192.67 44.4913 198.599C35.1537 201.567 27.5915 203.932 22.3492 205.526C19.7572 206.323 17.69 206.932 16.3033 207.321C15.6088 207.57 14.8898 207.744 14.1584 207.84C14.8125 207.506 15.4957 207.232 16.1996 207.023C17.5604 206.537 19.5692 205.844 22.1677 204.969C27.3517 203.226 34.888 200.757 44.1997 197.75C62.8557 191.737 88.659 183.591 117.158 174.63Z" fill="#EBEBEB"/>
<path d="M115.648 168.039L191.361 156.816L214.294 153.297L220.514 152.293L222.134 152.014C222.318 151.989 222.5 151.95 222.679 151.898C222.492 151.894 222.305 151.909 222.121 151.943L220.495 152.163L214.255 153.064L191.328 156.57L115.713 168.48C86.1839 173.159 59.4798 177.351 40.1176 180.274C30.4364 181.732 22.6215 182.866 17.1654 183.63C14.4503 184.006 12.3443 184.278 10.9122 184.453C10.185 184.581 9.44727 184.64 8.70898 184.628C9.40954 184.4 10.1297 184.237 10.8603 184.142C12.2795 183.877 14.3725 183.494 17.0747 183.054C22.479 182.146 30.3068 180.896 39.9815 179.399C59.3372 176.392 86.0932 172.4 115.648 168.039Z" fill="#EBEBEB"/>
<path d="M115.182 161.287L191.724 161.935L214.922 162.02H221.227H222.867C223.054 162.033 223.243 162.033 223.43 162.02C223.244 161.99 223.055 161.977 222.867 161.981L221.227 161.948L214.922 161.877L191.724 161.78L115.182 161.825C85.3092 161.864 58.2551 161.858 38.6726 161.734C28.8748 161.676 20.9498 161.598 15.4742 161.495C12.7396 161.449 10.6077 161.397 9.16913 161.339C8.43341 161.355 7.69785 161.301 6.97241 161.177C7.69846 161.06 8.43386 161.01 9.16913 161.028C10.6142 160.989 12.7396 160.95 15.4807 160.924C20.9563 160.866 28.8813 160.847 38.6726 160.86C58.2551 160.808 85.3092 161.015 115.182 161.287Z" fill="#EBEBEB"/>
<path d="M115.772 154.542L191.283 167.074L214.183 170.761L220.417 171.714L222.044 171.947C222.227 171.98 222.414 171.998 222.601 171.999C222.421 171.944 222.237 171.902 222.05 171.876L220.437 171.584L214.222 170.528L191.322 166.828L115.7 154.989C86.1773 150.388 59.4538 146.182 40.1305 143.02C30.4623 141.446 22.6344 140.13 17.2496 139.178C14.5539 138.704 12.4608 138.322 11.0482 138.044C10.3186 137.945 9.60031 137.775 8.90332 137.538C9.64024 137.529 10.3762 137.594 11.1 137.732C12.5321 137.914 14.6381 138.206 17.3468 138.601C22.764 139.398 30.5984 140.61 40.2665 142.145C59.6158 145.223 86.3005 149.63 115.772 154.542Z" fill="#EBEBEB"/>
<path d="M117.411 147.971L189.987 172.245L212.019 179.49L218.026 181.434L219.594 181.913C219.769 181.975 219.949 182.023 220.132 182.056C219.967 181.968 219.793 181.899 219.613 181.848L218.065 181.304L212.09 179.282L190.058 172.018L117.288 148.392C88.8599 139.203 63.1278 130.844 44.5431 124.675C35.2443 121.597 27.734 119.064 22.5565 117.275C19.9645 116.381 17.9622 115.675 16.6079 115.176C15.903 114.961 15.2196 114.681 14.5667 114.34C15.2954 114.445 16.0117 114.623 16.7051 114.871C18.0918 115.279 20.1265 115.901 22.7379 116.718C27.9673 118.357 35.51 120.781 44.8218 123.846C63.4194 129.918 89.0802 138.478 117.411 147.971Z" fill="#EBEBEB"/>
<path d="M120.055 141.75L187.92 177.137L208.539 187.758L214.164 190.603L215.641 191.329C215.807 191.414 215.978 191.49 216.153 191.555C215.999 191.446 215.836 191.348 215.667 191.264L214.229 190.486L208.656 187.551L188.043 176.904L119.88 142.145C93.2533 128.596 69.1607 116.29 51.7748 107.276C43.0787 102.74 36.0544 99.0922 31.2268 96.5131C28.8097 95.2171 26.937 94.2062 25.6799 93.5064C25.0189 93.1801 24.3879 92.7963 23.7942 92.3594C24.4987 92.5774 25.1785 92.8684 25.8224 93.2278C27.1184 93.8434 29.0624 94.7765 31.4924 96.0012C36.3913 98.4377 43.461 102.021 52.1766 106.492C69.5754 115.428 93.5773 127.915 120.055 141.75Z" fill="#EBEBEB"/>
<path d="M123.651 136.015L185.159 181.576L203.861 195.294L208.98 198.981L210.315 199.928C210.464 200.042 210.622 200.144 210.788 200.232C210.655 200.102 210.512 199.983 210.36 199.876L209.064 198.878L204.003 195.106L185.328 181.382L123.411 136.378C99.228 118.837 77.358 102.915 61.5921 91.2903C53.706 85.4583 47.3361 80.7538 42.9816 77.449C40.7978 75.7966 39.0936 74.5006 37.9725 73.6064C37.3665 73.189 36.8042 72.7113 36.2942 72.1808C36.9522 72.5113 37.5772 72.9041 38.1604 73.3537C39.3528 74.1701 41.0959 75.3884 43.3444 76.9825C47.8027 80.1577 54.2244 84.8038 62.1364 90.5905C77.9023 102.131 99.6557 118.215 123.651 136.015Z" fill="#EBEBEB"/>
<path d="M128.09 130.896L181.764 185.464L198.107 201.923L202.584 206.369L203.764 207.509C203.893 207.646 204.034 207.772 204.185 207.885C204.076 207.733 203.952 207.592 203.816 207.464L202.682 206.278L198.269 201.742L181.939 185.328L127.773 131.246C106.615 110.16 87.48 91.0116 73.723 77.112C66.8347 70.146 61.2943 64.4825 57.523 60.5361C55.6178 58.5921 54.1534 57.024 53.1749 55.9677C52.6406 55.46 52.1587 54.8999 51.7363 54.2959C52.3213 54.7223 52.8657 55.2017 53.3628 55.728C54.4126 56.7194 55.9548 58.1969 57.8988 60.1085C61.7868 63.9446 67.4309 69.5304 74.3451 76.4705C88.1734 90.3247 107.16 109.596 128.09 130.896Z" fill="#EBEBEB"/>
<path d="M133.274 126.567L177.805 188.821L191.413 207.613L195.145 212.693L196.13 213.989C196.237 214.143 196.356 214.288 196.487 214.423C196.403 214.256 196.303 214.098 196.188 213.95L195.255 212.602L191.601 207.464L178.025 188.672C166.478 172.828 150.543 150.971 132.931 126.82C115.318 102.669 99.3902 80.812 87.9595 64.9231C82.2182 56.9786 77.6238 50.544 74.481 46.008C72.9064 43.7659 71.6946 42.0163 70.8911 40.824C70.4501 40.2351 70.0619 39.6084 69.7312 38.9512C70.2578 39.4678 70.733 40.0342 71.1503 40.6425C72.0316 41.7765 73.3146 43.4743 74.9476 45.6775C78.1876 50.0709 82.8986 56.4602 88.6528 64.3917C100.155 80.2612 115.908 102.254 133.274 126.567Z" fill="#EBEBEB"/>
<path d="M139.067 123.075C152.442 149.811 164.54 174.001 173.314 191.529L183.792 212.227L186.689 217.832L187.453 219.277C187.536 219.446 187.631 219.608 187.739 219.763C187.681 219.586 187.608 219.414 187.518 219.251C187.35 218.894 187.11 218.408 186.805 217.767L184.032 212.123C181.557 207.211 177.98 200.148 173.567 191.387L138.672 123.282C125.064 96.714 112.752 72.6019 103.926 55.1124C99.5262 46.3644 95.9946 39.2688 93.5582 34.3764C92.3594 31.914 91.4392 29.9959 90.8301 28.6869C90.4798 28.0411 90.1954 27.3616 89.9812 26.6587C90.4242 27.2393 90.8125 27.8597 91.1411 28.512C91.8345 29.808 92.8324 31.6548 94.1025 34.0848C96.6491 38.9318 100.271 45.9821 104.717 54.7106C113.594 72.1613 125.712 96.3511 139.067 123.075Z" fill="#EBEBEB"/>
<path d="M145.333 120.528C154.34 149.04 162.486 174.824 168.389 193.519C171.376 202.831 173.8 210.367 175.485 215.603C176.334 218.195 177.001 220.203 177.429 221.597C177.662 222.245 177.837 222.776 177.96 223.145C178.01 223.325 178.08 223.499 178.167 223.664C178.135 223.482 178.089 223.302 178.031 223.126C177.915 222.75 177.759 222.232 177.558 221.551L175.679 215.531C174.001 210.295 171.584 202.759 168.603 193.441C162.525 174.805 154.146 149.085 144.88 120.664C135.613 92.2428 127.235 66.5431 121.299 47.8807C118.325 38.5495 115.953 30.9874 114.352 25.745C113.555 23.153 112.946 21.0859 112.557 19.6992C112.315 19.0048 112.139 18.2887 112.032 17.5608C112.374 18.2122 112.649 18.896 112.855 19.602C113.348 20.9628 114.035 22.9716 114.91 25.5701C116.659 30.7541 119.135 38.2903 122.141 47.6021C128.194 66.258 136.365 92.0484 145.333 120.528Z" fill="#EBEBEB"/>
<path d="M151.93 119.025C156.336 148.586 160.321 175.342 163.211 194.731C164.695 204.399 165.907 212.227 166.743 217.657L167.747 223.884C167.87 224.584 167.961 225.115 168.026 225.504C168.052 225.689 168.093 225.871 168.149 226.048C168.143 225.862 168.126 225.676 168.097 225.491C168.045 225.102 167.974 224.564 167.877 223.865C167.67 222.413 167.365 220.32 166.97 217.624C166.134 212.188 164.935 204.36 163.458 194.698C160.386 175.329 156.161 148.612 151.483 119.096C146.804 89.5795 142.56 62.856 139.65 43.5002C138.179 33.8191 137.058 26.0042 136.274 20.5545C135.898 17.8394 135.626 15.7334 135.451 14.2949C135.319 13.5703 135.259 12.8345 135.27 12.0981C135.504 12.7975 135.668 13.518 135.762 14.2495C136.028 15.6686 136.41 17.7617 136.851 20.4638C137.758 25.8681 139.015 33.6895 140.525 43.3642C143.545 62.7199 147.549 89.4694 151.93 119.025Z" fill="#EBEBEB"/>
<path d="M158.682 118.584C158.449 148.47 158.242 175.517 158.086 195.126C158.086 204.904 158.034 212.823 158.021 218.324C158.021 221.046 158.021 223.165 158.021 224.629C158.021 225.336 158.021 225.88 158.021 226.269C158.01 226.454 158.01 226.64 158.021 226.826C158.051 226.642 158.064 226.455 158.06 226.269C158.06 225.88 158.06 225.336 158.093 224.629C158.093 223.165 158.131 221.046 158.164 218.324C158.164 212.823 158.209 204.904 158.248 195.126C158.248 175.517 158.19 148.47 158.151 118.584C158.112 88.6982 158.08 61.6507 158.19 42.0681C158.242 32.2769 158.319 24.3518 158.417 18.8762C158.462 16.1352 158.514 14.0097 158.566 12.5647C158.55 11.829 158.604 11.0935 158.728 10.368C158.85 11.0957 158.899 11.8337 158.877 12.5712C158.922 14.0097 158.961 16.1352 158.987 18.8762C159.045 24.3518 159.078 32.2769 159.065 42.0746C159.123 61.6313 158.935 88.6853 158.682 118.584Z" fill="#EBEBEB"/>
<path d="M165.428 119.141C160.549 148.632 156.168 175.316 152.928 194.659C151.379 204.314 150.129 212.155 149.26 217.566C148.846 220.255 148.528 222.348 148.308 223.8C148.211 224.5 148.133 225.037 148.081 225.42C148.049 225.604 148.029 225.79 148.023 225.977C148.084 225.801 148.125 225.618 148.146 225.433C148.219 225.053 148.316 224.515 148.437 223.819C148.684 222.374 149.034 220.288 149.487 217.598C150.362 212.175 151.619 204.353 153.174 194.698C156.194 175.329 160.361 148.599 164.968 119.07C169.575 89.5406 173.748 62.8171 176.904 43.4873C178.479 33.8256 179.788 25.9913 180.734 20.6129C181.207 17.9172 181.589 15.8241 181.861 14.405C181.963 13.6759 182.132 12.9578 182.367 12.2601C182.377 12.9968 182.314 13.7326 182.179 14.4569C181.997 15.8889 181.706 17.9949 181.31 20.7036C180.52 26.1273 179.315 33.9552 177.779 43.6298C174.714 62.9726 170.32 89.6702 165.428 119.141Z" fill="#EBEBEB"/>
<path d="M171.999 120.774C162.538 149.124 153.978 174.785 147.776 193.383C144.724 202.675 142.255 210.198 140.545 215.415C139.715 218.007 139.067 220.028 138.601 221.422C138.393 222.102 138.238 222.62 138.121 222.99C138.062 223.168 138.015 223.35 137.979 223.534C138.064 223.368 138.134 223.195 138.186 223.016L138.73 221.467L140.745 215.492L147.997 193.46L171.545 120.632C180.714 92.1974 189.041 66.4653 195.216 47.8677C198.288 38.5754 200.815 31.0586 202.597 25.8811C203.491 23.2891 204.198 21.2868 204.697 19.9324C204.906 19.2257 205.186 18.5418 205.533 17.8912C205.425 18.6203 205.245 19.3367 204.995 20.0296C204.593 21.4164 203.977 23.4511 203.154 26.0625C201.521 31.2919 199.104 38.8411 196.065 48.1528C190.013 66.744 181.472 92.4437 171.999 120.774Z" fill="#EBEBEB"/>
<path d="M178.2 123.418L142.877 191.316L132.27 211.941L129.425 217.573L128.706 219.024C128.618 219.189 128.542 219.36 128.479 219.536C128.59 219.387 128.686 219.226 128.764 219.056L129.548 217.611C130.196 216.315 131.207 214.436 132.477 212.026L143.098 191.406C151.995 173.91 164.261 149.831 177.824 123.191C191.387 96.552 203.647 72.4788 212.648 55.08C217.151 46.3839 220.825 39.3595 223.398 34.5255C224.694 32.1084 225.705 30.2357 226.405 28.9786C226.724 28.3137 227.108 27.682 227.552 27.0929C227.328 27.8079 227.038 28.5001 226.683 29.16C226.068 30.456 225.134 32.4 223.916 34.83C221.48 39.7354 217.896 46.8051 213.432 55.5207C204.509 72.9195 192.035 96.9279 178.2 123.418Z" fill="#EBEBEB"/>
<path d="M183.96 127.008L138.432 188.568L124.733 207.282L121.046 212.402L120.1 213.743C119.99 213.892 119.888 214.048 119.795 214.209C119.93 214.08 120.049 213.937 120.152 213.782L121.15 212.486L124.915 207.425C128.155 202.993 132.853 196.61 138.633 188.717L183.591 126.775C201.119 102.578 217.028 80.6954 228.64 64.9296C234.472 57.037 239.17 50.6736 242.475 46.3061C244.121 44.1223 245.417 42.4181 246.311 41.297C246.728 40.691 247.206 40.1287 247.737 39.6187C247.405 40.2723 247.013 40.8928 246.564 41.472C245.747 42.6643 244.529 44.4074 242.941 46.656C239.766 51.1207 235.126 57.5424 229.333 65.448C217.812 81.2398 201.742 103.032 183.96 127.008Z" fill="#EBEBEB"/>
<path d="M189.061 131.447L134.525 185.153L118.072 201.528C116.128 203.472 114.664 204.969 113.633 206.006C113.147 206.518 112.765 206.906 112.493 207.185C112.358 207.315 112.235 207.456 112.124 207.606C112.272 207.493 112.413 207.37 112.545 207.237L113.731 206.103L118.267 201.69L134.693 185.328L188.743 131.123C209.823 109.953 228.919 90.8107 242.864 77.0407C249.824 70.1525 255.481 64.5991 259.427 60.7954C261.371 58.8967 262.933 57.4258 263.963 56.4473C264.487 55.9125 265.062 55.4307 265.68 55.0087C265.252 55.6078 264.766 56.1635 264.229 56.6676C263.244 57.7174 261.766 59.2596 259.855 61.2036C256.018 65.0916 250.439 70.7422 243.506 77.6563C229.625 91.5041 210.367 110.497 189.061 131.447Z" fill="#EBEBEB"/>
<path d="M193.415 136.624L131.207 181.194L112.415 194.802L107.328 198.541L106.032 199.526C105.878 199.632 105.732 199.751 105.598 199.882C105.763 199.795 105.921 199.695 106.071 199.584L107.419 198.644L112.557 194.99L131.349 181.382C147.18 169.815 169.031 153.868 193.169 136.242C217.307 118.616 239.144 102.676 255.04 91.2319C262.971 85.536 269.425 80.9222 273.909 77.76C276.152 76.1853 277.901 74.9736 279.093 74.1701C279.681 73.7231 280.31 73.3346 280.973 73.0101C280.457 73.5354 279.89 74.0086 279.281 74.4228C278.141 75.3105 276.443 76.5936 274.246 78.2265C269.853 81.4665 263.464 86.1905 255.539 91.9447C239.695 103.473 217.728 119.232 193.415 136.624Z" fill="#EBEBEB"/>
<path d="M196.907 142.418L128.472 176.703L107.788 187.201L102.183 190.097L100.738 190.868C100.569 190.949 100.406 191.042 100.252 191.147C100.429 191.09 100.6 191.016 100.764 190.927L102.241 190.214L107.892 187.408L128.582 176.904L196.7 141.983C223.268 128.336 247.361 116.018 264.85 107.199C273.592 102.792 280.687 99.2542 285.586 96.8307C288.049 95.6254 289.967 94.7053 291.276 94.0961C291.924 93.7472 292.606 93.4629 293.31 93.2473C292.714 93.6798 292.081 94.0593 291.418 94.3813C290.155 95.0746 288.275 96.079 285.852 97.3491C281.005 99.8957 273.955 103.531 265.233 107.97C247.801 116.912 223.624 129.049 196.907 142.418Z" fill="#EBEBEB"/>
<path d="M199.448 148.684L126.47 171.778L104.393 178.906L98.3989 180.883L96.8502 181.414C96.6704 181.464 96.4966 181.534 96.3318 181.621C96.5135 181.584 96.6931 181.536 96.8696 181.479L98.4443 181.012L104.464 179.127L126.548 171.999L199.306 148.237C227.701 138.938 253.42 130.559 272.082 124.604C281.407 121.623 288.969 119.251 294.205 117.644C296.83 116.847 298.864 116.238 300.251 115.843C300.945 115.594 301.664 115.421 302.396 115.325C301.74 115.661 301.055 115.937 300.348 116.148C298.994 116.634 296.979 117.327 294.387 118.202C289.203 119.958 281.666 122.433 272.355 125.453C253.718 131.505 227.934 139.689 199.448 148.684Z" fill="#EBEBEB"/>
<path d="M200.964 155.274L125.264 166.607L102.345 170.152L96.1174 171.163L94.4974 171.441C94.3129 171.468 94.1309 171.509 93.9531 171.565C94.1398 171.559 94.3259 171.541 94.5104 171.513L96.1369 171.292L102.377 170.379L125.303 166.847L200.88 154.827C230.377 150.116 257.1 145.891 276.462 142.942C286.144 141.471 293.958 140.318 299.408 139.56C302.123 139.178 304.229 138.912 305.661 138.73C306.386 138.599 307.122 138.538 307.858 138.549C307.16 138.78 306.442 138.945 305.713 139.041C304.294 139.307 302.201 139.689 299.499 140.137C294.094 141.044 286.273 142.307 276.598 143.824C257.256 146.85 230.513 150.88 200.964 155.274Z" fill="#EBEBEB"/>
<path d="M231.627 46.8892L232.308 48.0167C233.07 49.2863 234.181 50.3098 235.509 50.9651L236.695 51.5483L235.561 52.1963C234.298 52.9757 233.283 54.0968 232.632 55.4299L232.049 56.6157L231.336 55.4817C230.574 54.216 229.465 53.195 228.141 52.5398L226.955 51.9501L228.083 51.3021C229.352 50.5423 230.375 49.4333 231.031 48.1075L231.627 46.8892Z" fill="#E0E0E0"/>
<path d="M230.222 179.425L230.636 180.118C231.1 180.892 231.774 181.517 232.58 181.92L233.306 182.276L232.613 182.697C231.838 183.159 231.213 183.833 230.811 184.641L230.455 185.36L230.04 184.68C229.578 183.905 228.903 183.277 228.096 182.872L227.377 182.516L228.064 182.101C228.839 181.638 229.466 180.964 229.872 180.157L230.222 179.425Z" fill="#E0E0E0"/>
<path d="M297.704 252.474L298.118 253.161C298.58 253.936 299.255 254.561 300.062 254.962L300.782 255.325L300.095 255.74C299.321 256.203 298.696 256.877 298.293 257.684L297.931 258.409L297.516 257.716C297.053 256.943 296.378 256.318 295.572 255.915L294.853 255.552L295.539 255.137C296.313 254.674 296.938 253.999 297.341 253.193L297.704 252.474Z" fill="#E0E0E0"/>
<path d="M36.3203 217.08L36.735 217.767C37.1982 218.54 37.8726 219.165 38.679 219.568L39.3983 219.931L38.7114 220.346C37.9364 220.807 37.3109 221.482 36.91 222.29L36.5471 223.009L36.1324 222.322C35.6693 221.549 34.9948 220.924 34.1884 220.521L33.4626 220.158L34.156 219.743C34.9295 219.28 35.5545 218.606 35.9574 217.799L36.3203 217.08Z" fill="#E0E0E0"/>
<path d="M117.703 23.9177L118.117 24.611C118.582 25.3831 119.256 26.0077 120.061 26.4125L120.781 26.7689L120.094 27.1836C119.32 27.6467 118.695 28.3212 118.292 29.1276L117.936 29.8663L117.528 29.16C117.063 28.3879 116.389 27.7633 115.584 27.3585L114.865 27.0021L115.551 26.5874C116.325 26.1243 116.95 25.4498 117.353 24.6434L117.703 23.9177Z" fill="#E0E0E0"/>
<path d="M51.1915 30.7088L51.6063 31.4022C52.0694 32.1756 52.7438 32.8006 53.5503 33.2036L54.276 33.5665L53.5827 33.9812C52.8106 34.446 52.186 35.12 51.7812 35.9252L51.4248 36.6445L51.0101 35.9576C50.549 35.1825 49.874 34.557 49.0661 34.1562L48.3403 33.7933L49.0337 33.3786C49.8071 32.9155 50.4322 32.241 50.8351 31.4346L51.1915 30.7088Z" fill="#E0E0E0"/>
<path d="M82.2184 98.2109L82.6331 98.8978C83.0958 99.6731 83.7702 100.3 84.5771 100.706L85.3029 101.062L84.6095 101.477C83.8361 101.94 83.211 102.614 82.8081 103.421L82.4452 104.147L82.0305 103.453C81.5674 102.68 80.8929 102.055 80.0865 101.652L79.3672 101.295L80.0541 100.874C80.8289 100.413 81.4543 99.7378 81.8555 98.9302L82.2184 98.2109Z" fill="#E0E0E0"/>
<path d="M236.247 117.081L236.669 117.768C237.13 118.544 237.805 119.172 238.613 119.575L239.332 119.932L238.645 120.347C237.87 120.809 237.242 121.484 236.837 122.291L236.481 123.016L236.066 122.323C235.603 121.55 234.928 120.925 234.122 120.522L233.396 120.165L234.09 119.744C234.864 119.283 235.49 118.608 235.891 117.8L236.247 117.081Z" fill="#E0E0E0"/>
<path d="M230.221 254.139L230.636 254.833C231.099 255.606 231.774 256.231 232.58 256.634L233.306 256.99L232.612 257.412C231.838 257.873 231.212 258.548 230.811 259.356L230.455 260.075L230.033 259.388C229.571 258.613 228.896 257.985 228.089 257.58L227.37 257.224L228.057 256.809C228.832 256.346 229.46 255.672 229.865 254.865L230.221 254.139Z" fill="#E0E0E0"/>
<path d="M110.413 52.0992L111.249 53.4924C112.192 55.0573 113.564 56.3189 115.202 57.1277L116.64 57.8535L115.247 58.6894C113.679 59.6285 112.417 61.0013 111.612 62.6422L110.886 64.1002L110.05 62.7005C109.106 61.1371 107.734 59.8758 106.097 59.0652L104.659 58.32L106.052 57.4776C107.62 56.5395 108.884 55.1694 109.694 53.5313L110.413 52.0992Z" fill="#E0E0E0"/>
<path d="M291.6 45.1591L292.436 46.5523C293.376 48.1186 294.745 49.3825 296.382 50.1941L297.846 50.9134L296.447 51.7493C294.883 52.6938 293.622 54.0652 292.811 55.7021L292.092 57.1601L291.25 55.7669C290.313 54.1994 288.942 52.9368 287.303 52.1316L285.845 51.4058L287.219 50.544C288.784 49.6012 290.046 48.2293 290.855 46.5912L291.6 45.1591Z" fill="#E0E0E0"/>
<path d="M214.669 23.4122L215.155 24.2158C215.699 25.1276 216.496 25.8616 217.449 26.3282L218.298 26.7494L217.488 27.2354C216.576 27.7789 215.842 28.5759 215.376 29.5294L214.954 30.3782L214.488 29.5682C213.944 28.6564 213.147 27.9224 212.194 27.4558L211.352 27.0346L212.155 26.5486C213.067 26.0051 213.801 25.2081 214.268 24.2546L214.669 23.4122Z" fill="#E0E0E0"/>
<path d="M48.5998 188.102L49.3321 189.32C50.156 190.691 51.3573 191.795 52.7924 192.501L54.0884 193.149L52.8637 193.882C51.4942 194.707 50.39 195.908 49.682 197.342L49.034 198.638L48.3017 197.413C47.4778 196.042 46.2765 194.938 44.8414 194.232L43.5454 193.584L44.7701 192.845C46.1412 192.018 47.2457 190.815 47.9518 189.378L48.5998 188.102Z" fill="#E0E0E0"/>
<path d="M261.902 258.902L262.634 260.127C263.458 261.498 264.66 262.602 266.095 263.308L267.391 263.956L266.166 264.689C264.795 265.513 263.69 266.714 262.984 268.149L262.336 269.445L261.604 268.22C260.78 266.849 259.579 265.745 258.144 265.039L256.848 264.391L258.072 263.658C259.443 262.834 260.548 261.633 261.254 260.198L261.902 258.902Z" fill="#E0E0E0"/>
<path d="M309.459 309.887C309.459 309.977 243.434 310.055 162.006 310.055C80.5787 310.055 14.541 309.977 14.541 309.887C14.541 309.796 80.5528 309.744 162 309.744C243.447 309.744 309.459 309.789 309.459 309.887Z" fill="#263238"/>
<path d="M210.684 282.399L209.906 281.219L115.499 278.005L103.427 309.854L216.432 309.718L210.684 282.399Z" fill="#B8B8FF"/>
<path opacity="0.3" d="M210.684 282.399L209.906 281.219L115.499 278.005L103.427 309.854L216.432 309.718L210.684 282.399Z" fill="black"/>
<path d="M255.96 195.327C255.915 194.643 255.707 193.98 255.355 193.393C255.002 192.806 254.514 192.311 253.931 191.951C235.859 179.995 222.244 153.492 220.883 131.039C220.849 129.743 220.81 128.447 220.767 127.151C219.724 95.0746 215 56.1686 210.755 45.7941C202.921 26.6393 176.411 24.8378 176.411 24.8378C141.192 22.3171 134.939 49.3841 131.349 74.034C129.14 89.3592 120.618 144.115 120.618 144.115L127.098 146.617C134.725 169.219 151.897 187.492 174.221 195.865C180.701 198.314 186.209 199.292 188.788 197.193C199.087 207.646 211.821 215.377 225.847 219.691C231.537 221.422 237.511 222.575 243.421 222.024C247.264 221.661 251.314 220.391 253.607 217.287C254.6 215.94 255.19 214.338 255.307 212.668C255.425 210.998 255.066 209.33 254.273 207.856C253.479 206.382 252.283 205.164 250.825 204.343C249.366 203.522 247.704 203.133 246.032 203.219C247.335 198.936 256.115 200.232 255.96 195.327Z" fill="#B8B8FF"/>
<g opacity="0.3">
<path d="M255.96 195.327C255.915 194.643 255.707 193.98 255.355 193.393C255.002 192.806 254.514 192.311 253.931 191.951C235.859 179.995 222.244 153.492 220.883 131.039C220.849 129.743 220.81 128.447 220.767 127.151C219.724 95.0746 215 56.1686 210.755 45.7941C202.921 26.6393 176.411 24.8378 176.411 24.8378C141.192 22.3171 134.939 49.3841 131.349 74.034C129.14 89.3592 120.618 144.115 120.618 144.115L127.098 146.617C134.725 169.219 151.897 187.492 174.221 195.865C180.701 198.314 186.209 199.292 188.788 197.193C199.087 207.646 211.821 215.377 225.847 219.691C231.537 221.422 237.511 222.575 243.421 222.024C247.264 221.661 251.314 220.391 253.607 217.287C254.6 215.94 255.19 214.338 255.307 212.668C255.425 210.998 255.066 209.33 254.273 207.856C253.479 206.382 252.283 205.164 250.825 204.343C249.366 203.522 247.704 203.133 246.032 203.219C247.335 198.936 256.115 200.232 255.96 195.327Z" fill="black"/>
</g>
<path d="M181.077 34.8106L178.848 32.7046L155.06 42.3015C153.398 42.3946 151.832 43.107 150.669 44.2981C149.507 45.4893 148.833 47.0727 148.781 48.7361L148.994 126.321C148.962 131.583 150.018 136.138 153.193 140.331L156.537 144.744C164.164 154.814 179.865 153.984 185.885 142.891C186.25 142.262 186.533 141.589 186.727 140.888C186.874 140.316 186.991 139.736 187.077 139.152C187.79 132.911 187.829 127.488 187.829 127.488C188.25 120.638 188.393 117.826 188.393 117.891C188.393 117.955 202.979 116.212 206.919 97.4916C208.863 88.1799 208.513 75.3754 207.962 62.7718C207.198 45.36 195.1 34.7912 181.077 34.8106Z" fill="#B8B8FF"/>
<g opacity="0.3">
<path d="M176.191 73.224C176.167 73.856 175.897 74.4535 175.438 74.8884C174.979 75.3233 174.367 75.5609 173.735 75.5503C173.426 75.5598 173.118 75.5073 172.829 75.3957C172.541 75.2841 172.278 75.1158 172.055 74.9007C171.833 74.6856 171.656 74.4281 171.535 74.1435C171.414 73.8588 171.351 73.5528 171.35 73.2434C171.377 72.6126 171.649 72.017 172.107 71.5828C172.565 71.1485 173.175 70.9098 173.806 70.9171C174.115 70.9085 174.423 70.9617 174.711 71.0736C174.999 71.1855 175.262 71.3538 175.484 71.5687C175.706 71.7836 175.883 72.0407 176.005 72.325C176.126 72.6093 176.189 72.9149 176.191 73.224Z" fill="black"/>
</g>
<g opacity="0.3">
<path d="M200.809 73.872C200.782 74.5023 200.51 75.0972 200.051 75.5304C199.593 75.9636 198.983 76.2009 198.353 76.1918C198.043 76.2014 197.735 76.1488 197.447 76.0372C197.158 75.9257 196.895 75.7573 196.673 75.5423C196.451 75.3272 196.274 75.0697 196.153 74.785C196.031 74.5004 195.969 74.1943 195.968 73.885C195.992 73.2541 196.261 72.6576 196.719 72.2229C197.177 71.7881 197.786 71.5497 198.417 71.5586C198.727 71.55 199.036 71.6034 199.325 71.7156C199.614 71.8278 199.877 71.9966 200.1 72.2121C200.323 72.4276 200.5 72.6855 200.622 72.9705C200.743 73.2556 200.807 73.5621 200.809 73.872Z" fill="black"/>
</g>
<g opacity="0.3">
<path d="M205.468 67.7614C205.157 68.0595 203.388 66.6145 200.783 66.4654C198.178 66.3164 196.208 67.5476 195.942 67.2106C195.806 67.0681 196.143 66.5108 197.005 65.9146C198.168 65.192 199.526 64.8458 200.893 64.9232C202.248 64.9861 203.549 65.4786 204.606 66.3293C205.416 67.0421 205.623 67.6253 205.468 67.7614Z" fill="black"/>
</g>
<g opacity="0.3">
<path d="M179.042 68.0401C178.699 68.3057 177.098 66.6793 174.506 66.2905C171.914 65.9017 169.841 66.8996 169.607 66.5367C169.491 66.3812 169.879 65.8887 170.8 65.3897C172.033 64.7867 173.423 64.5807 174.778 64.8001C176.118 65.0046 177.359 65.6285 178.323 66.5821C179.023 67.3078 179.211 67.9169 179.042 68.0401Z" fill="black"/>
</g>
<g opacity="0.3">
<path d="M188.14 86.9875C188.14 86.8384 189.767 86.644 192.411 86.4367C193.059 86.4367 193.707 86.3006 193.849 85.8535C193.992 85.4064 193.784 84.6482 193.499 83.8576L191.789 78.6736C189.417 71.3253 187.739 65.2989 188.037 65.2082C188.335 65.1175 190.493 70.9948 192.864 78.3367C193.435 80.1511 193.979 81.8748 194.491 83.5207C194.705 84.2853 195.1 85.1666 194.705 86.1451C194.598 86.3756 194.439 86.5784 194.242 86.7379C194.044 86.8975 193.812 87.0094 193.564 87.0652C193.192 87.148 192.811 87.1807 192.43 87.1624C189.78 87.2078 188.14 87.1365 188.14 86.9875Z" fill="black"/>
</g>
<g opacity="0.2">
<path d="M188.393 117.897C179.5 117.586 170.868 114.813 163.458 109.888C163.458 109.888 169.16 123.269 188.134 122.453L188.393 117.897Z" fill="black"/>
</g>
<path d="M186.721 93.2083C186.257 92.5613 185.635 92.0433 184.915 91.7032C184.195 91.363 183.401 91.212 182.606 91.2643C182.029 91.2864 181.462 91.4252 180.939 91.6724C180.417 91.9197 179.95 92.2702 179.567 92.7029C179.198 93.1192 178.965 93.6387 178.9 94.1914C178.835 94.7441 178.941 95.3034 179.204 95.7939C179.852 96.8177 181.317 97.1223 182.574 96.8307C183.826 96.4571 184.991 95.8381 186.002 95.0098C186.305 94.8144 186.57 94.5664 186.786 94.2776C186.887 94.1375 186.945 93.971 186.953 93.7983C186.961 93.6257 186.919 93.4544 186.831 93.3056" fill="#B8B8FF"/>
<g opacity="0.2">
<path d="M186.721 93.2083C186.257 92.5613 185.635 92.0433 184.915 91.7032C184.195 91.363 183.401 91.212 182.606 91.2643C182.029 91.2864 181.462 91.4252 180.939 91.6724C180.417 91.9197 179.95 92.2702 179.567 92.7029C179.198 93.1192 178.965 93.6387 178.9 94.1914C178.835 94.7441 178.941 95.3034 179.204 95.7939C179.852 96.8177 181.317 97.1223 182.574 96.8307C183.826 96.4571 184.991 95.8381 186.002 95.0098C186.305 94.8144 186.57 94.5664 186.786 94.2776C186.887 94.1375 186.945 93.971 186.953 93.7983C186.961 93.6257 186.919 93.4544 186.831 93.3056" fill="black"/>
</g>
<g opacity="0.3">
<path d="M181.083 58.618C180.572 59.1753 178.304 57.8534 175.342 57.0045C172.381 56.1556 169.776 55.9612 169.653 55.216C169.601 54.8661 170.255 54.419 171.441 54.1728C172.995 53.9142 174.588 54.0132 176.098 54.4623C177.609 54.9115 178.997 55.6989 180.157 56.7648C181.012 57.6201 181.317 58.3524 181.083 58.618Z" fill="black"/>
</g>
<g opacity="0.3">
<path d="M203.763 61.56C203.355 62.208 201.515 61.7156 199.357 61.8581C197.199 62.0007 195.411 62.5644 194.944 61.9812C194.737 61.6961 194.977 61.087 195.728 60.4649C196.746 59.7032 197.969 59.263 199.239 59.2007C200.509 59.1383 201.768 59.4567 202.856 60.115C203.647 60.6593 203.945 61.249 203.763 61.56Z" fill="black"/>
</g>
<path d="M149.26 81.849C149.26 81.849 162.596 85.9962 170.145 53.0778C172.737 41.822 183.164 32.7046 183.164 32.7046L178.926 31.4086C178.926 31.4086 152.623 38.8218 152.183 39.1846C151.742 39.5475 145.547 52.7926 145.547 52.7926L149.26 81.849Z" fill="#B8B8FF"/>
<path d="M152.546 80.6242C152.611 79.218 151.153 75.8225 149.779 75.5374C146.098 74.7728 139.411 74.7339 138.873 84.1428C138.141 97.0056 151.185 95.0876 151.25 94.7182C151.315 94.3488 152.313 85.4777 152.546 80.6242Z" fill="#B8B8FF"/>
<g opacity="0.3">
<path d="M147.595 89.6248C147.543 89.5795 147.361 89.7674 146.947 89.9164C146.403 90.1168 145.803 90.0959 145.275 89.8581C143.94 89.2814 142.923 87.0587 142.987 84.7389C143.017 83.6334 143.294 82.5485 143.797 81.5637C143.941 81.1696 144.179 80.8163 144.489 80.5342C144.799 80.252 145.174 80.0494 145.579 79.9437C145.842 79.8875 146.116 79.9255 146.353 80.0512C146.59 80.1768 146.775 80.3819 146.875 80.6306C147.025 80.9999 146.927 81.2786 146.999 81.2786C147.07 81.2786 147.284 81.0777 147.212 80.5399C147.158 80.2173 146.996 79.9228 146.752 79.7039C146.414 79.4176 145.976 79.2756 145.534 79.3087C144.536 79.3087 143.59 80.1835 143.078 81.1684C142.464 82.251 142.128 83.4688 142.1 84.713C142.035 87.305 143.221 89.8063 145.048 90.4478C145.388 90.5686 145.751 90.6116 146.11 90.5734C146.469 90.5353 146.815 90.4171 147.122 90.2275C147.556 89.9294 147.64 89.6443 147.595 89.6248Z" fill="black"/>
</g>
<g opacity="0.3">
<path d="M149.26 81.849C149.26 81.849 162.596 85.9962 170.145 53.0778C172.737 41.822 183.164 32.7046 183.164 32.7046L178.926 31.4086C178.926 31.4086 152.623 38.8218 152.183 39.1846C151.742 39.5475 145.547 52.7926 145.547 52.7926L149.26 81.849Z" fill="black"/>
</g>
<path d="M180.384 88.4067C180.811 88.4067 180.675 91.232 182.976 93.3574C185.276 95.4828 188.315 95.3014 188.322 95.7226C188.322 95.8975 187.622 96.2345 186.378 96.2086C184.72 96.1491 183.137 95.5065 181.906 94.3942C180.728 93.3253 180.01 91.8409 179.904 90.2535C179.846 89.0611 180.196 88.3807 180.384 88.4067Z" fill="#B8B8FF"/>
<g opacity="0.3">
<path d="M180.384 88.4067C180.811 88.4067 180.675 91.232 182.976 93.3574C185.276 95.4828 188.315 95.3014 188.322 95.7226C188.322 95.8975 187.622 96.2345 186.378 96.2086C184.72 96.1491 183.137 95.5065 181.906 94.3942C180.728 93.3253 180.01 91.8409 179.904 90.2535C179.846 89.0611 180.196 88.3807 180.384 88.4067Z" fill="black"/>
</g>
<path d="M281.42 89.2361C281.42 89.2361 298.611 123.826 301.508 131.097C304.035 137.389 318.006 166.867 313.684 175.044C309.362 183.222 305.532 182.82 299.512 183.125C293.492 183.429 254.333 181.829 244.179 181.421C231.265 180.883 217.054 177.215 217.054 177.215L223.715 141.776L275.484 151.405L266.736 95.1653L281.42 89.2361Z" fill="#B8B8FF"/>
<path d="M281.517 89.4952C281.517 89.4952 278.536 84.1946 276.689 82.9245C274.843 81.6544 259.841 68.5 259.841 68.5C259.841 68.5 253.958 62.2663 252.338 62.6162C250.718 62.9661 235.367 73.224 235.224 74.8504C235.081 76.4769 235.917 77.3841 236.844 77.6174C237.771 77.8507 236.377 78.9134 238.788 81.311C238.788 81.311 236.481 81.1944 236.598 83.3911C236.714 85.5878 236.598 88.5751 238.101 88.6982C239.604 88.8213 244.328 90.2016 244.581 87.6614L245.041 86.6181C247.47 88.3311 250.061 89.8005 252.778 91.0051C256.472 92.5084 262.356 92.3918 262.356 92.3918C263.397 93.8565 264.973 94.8527 266.743 95.1652C269.529 95.5087 281.517 89.4952 281.517 89.4952Z" fill="#B8B8FF"/>
<g opacity="0.3">
<path d="M258.513 80.0151C258.461 79.9762 257.955 80.5594 257.709 81.7517C257.443 83.2982 257.684 84.8892 258.396 86.2877C259.104 87.6583 260.039 88.8985 261.163 89.9554C261.999 90.7654 262.563 91.2125 262.621 91.1542C262.679 91.0959 262.219 90.5451 261.468 89.6703C260.475 88.5663 259.624 87.3429 258.934 86.0285C258.277 84.7202 257.997 83.2553 258.124 81.7971C258.247 80.6955 258.603 80.0604 258.513 80.0151Z" fill="black"/>
</g>
<g opacity="0.3">
<path d="M251.424 83.0606C251.391 83.0606 251.424 83.1902 251.547 83.3133C251.752 83.4658 252.006 83.5352 252.26 83.5077C252.645 83.4585 253.017 83.3308 253.351 83.1324C253.686 82.934 253.976 82.6692 254.204 82.3543C254.679 81.7465 254.931 80.9937 254.917 80.2224C254.884 79.6392 254.69 79.3152 254.625 79.3411C254.56 79.367 254.567 79.6975 254.495 80.2029C254.392 80.8532 254.13 81.4677 253.731 81.9914C253.345 82.5111 252.805 82.8964 252.189 83.093C251.761 83.2226 251.515 83.0153 251.424 83.0606Z" fill="black"/>
</g>
<g opacity="0.3">
<path d="M257.204 68.377C256.965 68.2859 256.709 68.2491 256.455 68.2692C256.201 68.2894 255.954 68.3661 255.733 68.4936C255.195 68.7477 254.724 69.1251 254.359 69.5952C253.918 70.1266 253.536 70.7875 253.063 71.4809C251.987 73.1193 250.823 74.6984 249.577 76.2113C248.877 77.0666 248.112 77.9414 247.289 78.8033C246.815 79.2534 246.429 79.7872 246.149 80.3779C246.018 80.7162 245.97 81.0808 246.008 81.4414C246.046 81.802 246.17 82.1483 246.369 82.4515C246.729 83.0048 247.165 83.5044 247.665 83.9354C248.132 84.3566 248.598 84.7649 249.071 85.1472C249.979 85.9056 250.945 86.5904 251.961 87.1949C252.473 87.4882 253.05 87.6465 253.64 87.655C254.196 87.6373 254.738 87.4766 255.214 87.1884C256.049 86.7079 256.744 86.0177 257.23 85.1861C257.436 84.8333 257.559 84.4382 257.591 84.0308C257.622 83.6234 257.561 83.2141 257.411 82.8338C257.298 82.5434 257.109 82.2886 256.864 82.096C256.619 81.9034 256.327 81.78 256.018 81.7387C255.635 81.6804 255.245 81.7734 254.929 81.9979C254.722 82.1599 254.67 82.2895 254.676 82.296C254.855 82.1496 255.064 82.0441 255.288 81.987C255.512 81.9299 255.745 81.9226 255.972 81.9655C256.231 82.0185 256.47 82.1386 256.667 82.3138C256.864 82.4891 257.011 82.7131 257.094 82.9634C257.205 83.2962 257.242 83.6495 257.2 83.998C257.159 84.3465 257.04 84.6815 256.854 84.9787C256.38 85.7204 255.727 86.331 254.955 86.7543C254.551 86.9946 254.091 87.1243 253.62 87.1301C253.122 87.1113 252.637 86.9688 252.208 86.7154C251.231 86.113 250.302 85.4371 249.428 84.6936C248.968 84.3178 248.508 83.916 248.047 83.4948C247.603 83.1064 247.212 82.6595 246.888 82.1664C246.735 81.9408 246.638 81.6817 246.607 81.411C246.575 81.1403 246.609 80.866 246.706 80.6112C246.959 80.0899 247.304 79.618 247.723 79.218C248.544 78.3238 249.307 77.4382 250.011 76.5612C251.25 75.0169 252.391 73.3958 253.426 71.7077C253.873 70.9884 254.229 70.321 254.618 69.8026C254.938 69.3521 255.351 68.9763 255.83 68.701C256.256 68.4876 256.727 68.3766 257.204 68.377Z" fill="black"/>
</g>
<g opacity="0.3">
<path d="M254.489 79.4059C254.417 79.4448 254.489 79.717 254.741 80.0539C255.095 80.5145 255.574 80.8632 256.122 81.0583C256.666 81.2601 257.257 81.3028 257.826 81.1814C258.26 81.0713 258.474 80.8963 258.474 80.8315C258.474 80.7667 257.443 80.9158 256.348 80.501C255.253 80.0863 254.664 79.3152 254.489 79.4059Z" fill="black"/>
</g>
<g opacity="0.3">
<path d="M251.158 66.2969C250.829 66.5656 250.534 66.8723 250.277 67.2106C249.739 67.8197 248.981 68.7139 248.048 69.8026L244.808 73.7424L242.903 76.0817C242.173 76.9071 241.522 77.7987 240.959 78.745C240.646 79.244 240.46 79.8123 240.418 80.3999C240.377 80.9874 240.48 81.5762 240.719 82.1146C241.271 83.0096 242.018 83.7691 242.903 84.3372C244.451 85.4906 245.754 86.5987 247.037 87.3893C247.623 87.7589 248.29 87.9812 248.981 88.0373C249.505 88.0568 250.025 87.9336 250.484 87.6809C251.236 87.2338 251.327 86.683 251.301 86.6959C251.051 87.0188 250.735 87.2841 250.374 87.4735C249.945 87.6706 249.471 87.7511 249 87.7068C248.379 87.6294 247.784 87.4074 247.264 87.0588C246.091 86.2747 244.769 85.1148 243.253 83.9354C242.448 83.4016 241.766 82.7038 241.25 81.8878C241.058 81.431 240.98 80.9341 241.024 80.4404C241.068 79.9468 241.233 79.4714 241.503 79.056C242.046 78.1393 242.668 77.272 243.363 76.464L245.242 74.1053L248.391 70.0812C249.285 68.9342 249.998 67.9946 250.478 67.3402C250.748 67.0229 250.977 66.6723 251.158 66.2969Z" fill="black"/>
</g>
<g opacity="0.3">
<path d="M246.156 67.4827C246.007 67.3791 244.121 70.2886 240.972 73.0815C240.196 73.7346 239.474 74.4498 238.814 75.2199C238.27 75.8753 237.869 76.6366 237.635 77.4555C237.259 78.9005 237.745 79.7883 237.797 79.7429C237.751 79.0126 237.835 78.28 238.043 77.5786C238.308 76.8374 238.715 76.155 239.242 75.5698C239.905 74.8418 240.617 74.1598 241.374 73.5286C242.743 72.3097 243.973 70.9427 245.041 69.4527C245.521 68.8634 245.898 68.1974 246.156 67.4827Z" fill="black"/>
</g>
<g opacity="0.3">
<path d="M238.904 83.9355C238.904 84.1428 240.602 83.9355 242.423 84.5511C243.193 84.8246 243.882 85.2882 244.425 85.8989C244.84 86.3719 245.002 86.7543 245.073 86.7219C245.144 86.6895 245.125 86.2553 244.756 85.6462C244.244 84.8748 243.493 84.2939 242.617 83.9938C241.767 83.6996 240.863 83.5913 239.967 83.6763C239.299 83.7346 238.898 83.8577 238.904 83.9355Z" fill="black"/>
</g>
<path opacity="0.3" d="M275.646 151.049C275.793 151.75 276.063 152.419 276.443 153.025C277.237 154.546 278.193 155.975 279.294 157.289C280.396 158.607 281.634 159.804 282.988 160.86C283.519 161.338 284.129 161.721 284.79 161.994C284.9 161.845 282.275 159.946 279.755 156.907C277.234 153.868 275.808 150.984 275.646 151.049Z" fill="black"/>
<path opacity="0.2" d="M237.563 180.902L243.427 145.437L247.439 146.182L242.812 181.349L237.563 180.902Z" fill="black"/>
<path d="M41.2774 75.4271C41.2774 75.4271 24.0859 110.024 21.1894 117.288C18.6622 123.58 4.6913 153.058 9.01346 161.235C13.3356 169.413 17.1718 169.011 23.1852 169.316C29.1987 169.62 68.3638 168.02 78.518 167.612C91.4391 167.074 105.643 163.406 105.643 163.406L98.9818 127.967L47.1936 137.596L55.9352 81.3563L41.2774 75.4271Z" fill="#B8B8FF"/>
<path d="M41.1802 75.6864C41.1802 75.6864 44.1675 70.3922 46.0143 69.1222C47.8611 67.8521 62.8558 54.6912 62.8558 54.6912C62.8558 54.6912 68.7396 48.4574 70.3596 48.8074C71.9796 49.1573 87.3307 59.4216 87.4798 61.0416C87.6288 62.6616 86.7864 63.5818 85.8663 63.8086C84.9461 64.0354 86.3263 65.1046 83.9223 67.5022C83.9223 67.5022 85.5487 67.4568 86.1125 69.5822C86.6763 71.7077 86.7605 73.6776 84.6156 74.8894C82.9827 75.8095 79.0947 76.7297 77.7339 72.9454L77.6885 72.8482C75.2617 74.5585 72.6723 76.0258 69.9579 77.2286C66.2643 78.732 60.3739 78.6154 60.3739 78.6154C59.3326 80.0801 57.7568 81.0763 55.987 81.3888C53.1682 81.6998 41.1802 75.6864 41.1802 75.6864Z" fill="#B8B8FF"/>
<g opacity="0.3">
<path d="M64.184 66.2062C64.2359 66.1673 64.7478 66.7505 64.994 67.9428C65.254 69.4901 65.0109 71.0799 64.3007 72.4788C63.6026 73.8543 62.6757 75.1011 61.5596 76.1659C61.1448 76.6468 60.6519 77.0542 60.1016 77.3712C60.0433 77.3064 60.5034 76.7232 61.2551 75.8808C62.2476 74.7768 63.0987 73.5535 63.7888 72.2391C64.4344 70.9391 64.7058 69.4853 64.5728 68.04C64.4562 66.8866 64.0933 66.2515 64.184 66.2062Z" fill="black"/>
</g>
<g opacity="0.3">
<path d="M71.2796 69.2518C71.2796 69.2518 71.2796 69.3814 71.15 69.5045C70.945 69.6564 70.6914 69.7279 70.4372 69.7054C70.0522 69.654 69.6816 69.5253 69.3475 69.3271C69.0135 69.1289 68.7229 68.8652 68.4932 68.552C68.0144 67.9432 67.7603 67.1879 67.774 66.4136C67.8128 65.8304 68.0008 65.5128 68.072 65.5323C68.1433 65.5517 68.1239 65.8887 68.1952 66.3941C68.2981 67.0444 68.5609 67.6589 68.9598 68.1826C69.3458 68.7022 69.8853 69.0876 70.502 69.2842C70.9362 69.4203 71.1824 69.2064 71.2796 69.2518Z" fill="black"/>
</g>
<g opacity="0.3">
<path d="M65.4998 54.5681C65.7371 54.4766 65.9918 54.4396 66.2453 54.4598C66.4988 54.48 66.7445 54.5568 66.9643 54.6847C67.5035 54.9371 67.9745 55.3148 68.338 55.7863C68.7787 56.3177 69.1675 56.9851 69.634 57.6785C70.7133 59.3147 71.8769 60.8936 73.1203 62.4089C73.8201 63.2642 74.5912 64.1325 75.4077 65.0009C75.8838 65.4491 76.2708 65.9834 76.5482 66.5755C76.679 66.9148 76.7272 67.2804 76.6889 67.6421C76.6506 68.0038 76.5269 68.3512 76.3279 68.6556C75.9682 69.2071 75.5318 69.7046 75.0319 70.133C74.5653 70.5542 74.0923 70.9625 73.6192 71.3448C72.7119 72.1032 71.7455 72.7879 70.7292 73.3925C70.2199 73.685 69.6446 73.8433 69.0573 73.8525C68.5011 73.8348 67.9588 73.6742 67.4827 73.386C66.6446 72.9076 65.9473 72.217 65.4609 71.3837C65.2549 71.032 65.1315 70.6381 65.1 70.2317C65.0686 69.8253 65.13 69.4171 65.2795 69.0379C65.3922 68.7466 65.5809 68.4909 65.8259 68.2972C66.0709 68.1035 66.3633 67.9788 66.6727 67.9363C67.0555 67.878 67.4459 67.971 67.7613 68.1955C67.9687 68.3575 68.027 68.4871 68.014 68.4936C67.8339 68.3498 67.6249 68.2464 67.4013 68.1905C67.1777 68.1346 66.9447 68.1275 66.718 68.1696C66.4596 68.2194 66.2192 68.3377 66.022 68.5121C65.8248 68.6865 65.6781 68.9106 65.597 69.161C65.4821 69.4932 65.444 69.8471 65.4855 70.1962C65.5271 70.5452 65.6471 70.8803 65.8368 71.1763C66.3048 71.9206 66.9564 72.5321 67.7289 72.9518C68.1341 73.1907 68.5936 73.3222 69.0638 73.3341C69.5619 73.3107 70.0468 73.1662 70.4764 72.9129C71.4516 72.3107 72.3807 71.6371 73.2564 70.8977C73.7143 70.5132 74.1744 70.1114 74.6366 69.6924C75.0886 69.3055 75.4854 68.8586 75.816 68.364C75.9704 68.1378 76.0676 67.8775 76.0992 67.6055C76.1308 67.3335 76.0959 67.0578 75.9974 66.8023C75.7441 66.2809 75.3995 65.8091 74.98 65.4091C74.1592 64.5149 73.3968 63.6293 72.6926 62.7523C71.4592 61.2057 70.3189 59.5872 69.2776 57.9053C68.8305 57.1795 68.4741 56.5121 68.0853 55.9613C67.7689 55.508 67.3548 55.1316 66.8736 54.8597C66.4444 54.6574 65.9741 54.5576 65.4998 54.5681Z" fill="black"/>
</g>
<g opacity="0.3">
<path d="M68.2148 65.5971C68.2796 65.6359 68.2148 65.9081 67.9621 66.2451C67.6011 66.6997 67.121 67.0452 66.5753 67.2431C66.0296 67.441 65.4396 67.4836 64.8711 67.3661C64.437 67.2559 64.2231 67.0874 64.2231 67.0162C64.2231 66.9449 65.2599 67.1004 66.3486 66.6857C67.4372 66.271 68.0399 65.5128 68.2148 65.5971Z" fill="black"/>
</g>
<g opacity="0.3">
<path d="M71.539 52.4879C71.8697 52.7545 72.1658 53.0615 72.4203 53.4016C72.9581 54.0107 73.7163 54.9114 74.6559 55.9936L77.8959 59.9334L79.801 62.2727C80.5289 63.0993 81.1796 63.9908 81.745 64.936C82.0579 65.4351 82.2433 66.0034 82.2851 66.5909C82.327 67.1784 82.2238 67.7673 81.9848 68.3056C81.4324 69.2006 80.6862 69.9602 79.801 70.5282C78.2523 71.6817 76.9498 72.7898 75.6668 73.5803C75.0805 73.95 74.4136 74.1723 73.7228 74.2283C73.2004 74.2503 72.6823 74.1269 72.2259 73.8719C71.4677 73.4248 71.377 72.8805 71.4029 72.8934C71.6543 73.2143 71.97 73.4791 72.3296 73.671C72.7606 73.8628 73.2336 73.9409 73.7033 73.8978C74.3249 73.8204 74.9196 73.5985 75.44 73.2498C76.6129 72.4722 77.9348 71.3058 79.4511 70.133C80.2557 69.5968 80.938 68.8968 81.4534 68.0788C81.6468 67.6226 81.7255 67.1259 81.6826 66.6323C81.6397 66.1386 81.4764 65.663 81.2072 65.247C80.6616 64.3304 80.0372 63.4631 79.3409 62.655L77.4617 60.2898L74.3125 56.2722C73.4182 55.1188 72.7054 54.1792 72.2259 53.5247C71.9562 53.2079 71.7255 52.8598 71.539 52.4879Z" fill="black"/>
</g>
<g opacity="0.3">
<path d="M76.5415 53.6738C76.6905 53.5702 78.5762 56.4797 81.7255 59.2726C82.5 59.9274 83.2215 60.6424 83.8833 61.411C84.4296 62.0647 84.8315 62.8266 85.0627 63.6466C85.4385 65.0916 84.9525 65.9794 84.9072 65.934C84.9444 65.2039 84.8612 64.4727 84.6609 63.7697C84.3919 63.0322 83.9851 62.3527 83.4621 61.7674C82.7972 61.0388 82.085 60.3547 81.3302 59.7197C79.9572 58.5024 78.7248 57.1353 77.6561 55.6438C77.175 55.0554 76.798 54.3892 76.5415 53.6738Z" fill="black"/>
</g>
<g opacity="0.3">
<path d="M84.1295 70.3598C84.1295 70.5736 82.4383 70.3598 80.6109 71.0078C79.842 71.281 79.1537 71.7421 78.6086 72.3492C78.1939 72.8222 78.0383 73.2045 77.9606 73.1786C77.8828 73.1527 77.9087 72.7056 78.2846 72.1029C78.7969 71.3311 79.548 70.7484 80.423 70.444C81.2748 70.1554 82.1774 70.0473 83.0733 70.1265C83.7343 70.1589 84.136 70.282 84.1295 70.3598Z" fill="black"/>
</g>
<path opacity="0.3" d="M47.0574 137.24C46.9068 137.939 46.6372 138.608 46.2604 139.216C44.6567 142.263 42.4236 144.933 39.7091 147.051C39.1778 147.529 38.5685 147.912 37.9076 148.185C37.7975 148.036 40.4219 146.143 42.9426 143.098C45.4633 140.052 46.8889 137.162 47.0574 137.24Z" fill="black"/>
<path opacity="0.2" d="M89.1383 166.679L82.4379 131.039L78.6147 131.751L83.1896 167.294L89.1383 166.679Z" fill="black"/>
<path d="M114.009 256.964C114.009 256.964 105.585 199.811 105.617 191.516C105.617 188.276 103.88 166.789 103.88 166.789L89.3847 168.085L82.0364 129.049C82.0364 129.049 110.846 123.865 118.59 123.47C126.334 123.075 152.39 127.053 152.39 127.053L198.741 134.369C198.741 134.369 211.578 136.423 211.448 136.313L243.563 144.621L237.518 181.174L218.376 180.423L218.499 203.537C218.246 205.286 219.749 214.028 208.254 228.018L206.31 252.364L214.928 296.654H108.533L114.009 256.964Z" fill="#B8B8FF"/>
<g opacity="0.3">
<path d="M187.881 132.659C187.978 132.717 187.725 133.378 186.961 134.376C185.855 135.765 184.526 136.961 183.027 137.914C180.802 139.348 178.323 140.344 175.724 140.849C174.992 140.959 174.241 141.115 173.469 141.199C172.698 141.283 171.901 141.342 171.098 141.368C170.294 141.394 169.471 141.368 168.635 141.368L166.108 141.115C162.885 140.662 159.793 139.534 157.036 137.804C154.809 136.381 152.861 134.563 151.288 132.438C150.225 131.028 149.353 129.483 148.696 127.844C148.249 126.678 148.152 125.984 148.262 125.952C148.372 125.919 148.677 126.516 149.293 127.559C150.138 129.024 151.114 130.41 152.209 131.7C153.815 133.59 155.719 135.205 157.846 136.482C160.454 138.015 163.339 139.022 166.335 139.443C169.346 139.879 172.406 139.846 175.407 139.346C177.854 138.94 180.214 138.12 182.386 136.922C183.856 136.105 185.221 135.111 186.449 133.961C187.35 133.112 187.784 132.6 187.881 132.659Z" fill="black"/>
</g>
<g opacity="0.3">
<path d="M187.868 193.564C188.05 193.506 188.937 195.735 189.132 199.565C189.236 201.807 189.059 204.053 188.607 206.252C187.516 211.702 184.806 216.695 180.831 220.579C179.232 222.158 177.442 223.531 175.504 224.668C172.186 226.612 169.834 227.053 169.782 226.871C169.731 226.69 171.843 225.757 174.863 223.664C178.799 220.979 182.037 217.393 184.308 213.205C186.579 209.017 187.817 204.347 187.92 199.584C188.056 195.897 187.596 193.616 187.868 193.564Z" fill="black"/>
</g>
<path d="M49.2481 247.452C49.2877 246.861 49.4676 246.288 49.773 245.781C50.0785 245.274 50.5006 244.847 51.0042 244.536C66.5951 234.22 78.3434 211.345 79.5162 191.983C79.5162 190.881 79.581 189.76 79.6199 188.633C80.5206 160.95 84.5966 127.371 88.2578 118.422C95.0229 101.878 117.936 100.323 117.936 100.323C148.334 98.1524 153.758 121.506 156.816 142.78C158.721 156.006 166.076 203.258 166.076 203.258L160.477 205.416C153.9 224.914 139.093 240.687 119.815 247.944C114.217 250.05 109.447 250.899 107.244 249.085C98.3575 258.114 87.3665 264.795 75.2589 268.525C70.3535 270.022 65.2084 271.019 60.0957 270.54C56.7844 270.229 53.2852 269.134 51.3023 266.451C50.4437 265.289 49.9333 263.906 49.8307 262.464C49.7282 261.023 50.0377 259.582 50.7231 258.309C51.4085 257.037 52.4416 255.986 53.7018 255.278C54.9621 254.571 56.3975 254.236 57.8406 254.314C56.6937 250.562 49.1121 251.657 49.2481 247.452Z" fill="#263238"/>
<path d="M113.873 108.922L115.778 107.108L136.326 115.389C137.76 115.471 139.11 116.086 140.113 117.114C141.116 118.142 141.697 119.508 141.743 120.943L141.562 187.92C141.562 192.456 140.674 196.396 137.933 200.012L135.05 203.822C128.466 212.512 114.962 211.799 109.726 202.221C109.405 201.681 109.16 201.099 109 200.491C108.868 199.998 108.764 199.499 108.689 198.994C108.08 193.609 108.041 188.937 108.041 188.937C107.672 183.021 107.548 180.598 107.548 180.649C107.548 180.701 94.9643 179.204 91.5623 163.05C89.871 155.015 90.1885 143.96 90.668 133.086C91.329 118.001 101.775 108.909 113.873 108.922Z" fill="#FFBF9D"/>
<path d="M118.085 142.08C118.107 142.625 118.341 143.139 118.737 143.513C119.133 143.887 119.659 144.092 120.204 144.083C120.471 144.091 120.737 144.046 120.986 143.95C121.235 143.854 121.463 143.709 121.655 143.524C121.847 143.338 122 143.116 122.105 142.87C122.21 142.625 122.264 142.36 122.265 142.093C122.243 141.549 122.009 141.034 121.613 140.658C121.217 140.283 120.691 140.077 120.146 140.085C119.879 140.078 119.613 140.124 119.364 140.221C119.115 140.318 118.888 140.464 118.696 140.65C118.504 140.836 118.351 141.058 118.246 141.304C118.141 141.549 118.087 141.813 118.085 142.08Z" fill="#263238"/>
<path d="M96.8435 142.651C96.8654 143.195 97.0994 143.709 97.4953 144.083C97.8912 144.457 98.4178 144.662 98.9625 144.653C99.2294 144.662 99.4954 144.617 99.7446 144.521C99.9939 144.425 100.221 144.28 100.413 144.094C100.606 143.909 100.759 143.686 100.863 143.441C100.968 143.195 101.022 142.931 101.023 142.664C101 142.119 100.765 141.605 100.37 141.231C99.9746 140.856 99.449 140.649 98.9042 140.655C98.6371 140.648 98.3714 140.694 98.1225 140.791C97.8736 140.888 97.6466 141.034 97.4547 141.22C97.2628 141.406 97.1099 141.628 97.005 141.874C96.9 142.119 96.8451 142.383 96.8435 142.651Z" fill="#263238"/>
<path d="M92.8196 137.376C93.0917 137.635 94.6145 136.384 96.8631 136.274C99.1116 136.164 100.816 137.214 101.043 136.922C101.159 136.793 100.868 136.32 100.129 135.827C99.1213 135.207 97.9474 134.91 96.7659 134.978C95.584 135.025 94.4484 135.45 93.5259 136.19C92.8973 136.728 92.664 137.246 92.8196 137.376Z" fill="#263238"/>
<path d="M115.629 137.596C115.927 137.823 117.314 136.423 119.517 136.086C121.72 135.749 123.547 136.611 123.742 136.3C123.845 136.164 123.509 135.717 122.718 135.309C121.653 134.789 120.453 134.612 119.284 134.803C118.127 134.978 117.056 135.516 116.225 136.339C115.642 136.968 115.486 137.493 115.629 137.596Z" fill="#263238"/>
<path d="M107.775 153.952C107.775 153.829 106.369 153.654 104.095 153.479C103.518 153.479 102.967 153.362 102.851 152.973C102.772 152.384 102.876 151.784 103.149 151.256C103.622 149.837 104.108 148.353 104.626 146.798C106.674 140.46 108.119 135.257 107.866 135.179C107.613 135.101 105.741 140.169 103.699 146.513C103.207 148.072 102.738 149.565 102.293 150.99C101.969 151.702 101.905 152.505 102.112 153.258C102.205 153.456 102.342 153.631 102.513 153.768C102.684 153.905 102.883 154.001 103.097 154.049C103.418 154.118 103.747 154.147 104.075 154.133C106.363 154.14 107.775 154.081 107.775 153.952Z" fill="#263238"/>
<path d="M107.568 180.624C115.242 180.358 122.692 177.966 129.088 173.716C129.088 173.716 124.17 185.263 107.795 184.557L107.568 180.624Z" fill="#FF9A6C"/>
<path d="M109 159.324C109.399 158.764 109.935 158.315 110.556 158.02C111.178 157.725 111.864 157.594 112.551 157.639C113.049 157.657 113.539 157.775 113.99 157.988C114.441 158.201 114.845 158.503 115.175 158.877C115.494 159.236 115.695 159.685 115.751 160.162C115.807 160.64 115.714 161.123 115.486 161.546C114.923 162.434 113.665 162.693 112.577 162.441C111.498 162.117 110.494 161.584 109.622 160.872C109.37 160.696 109.151 160.476 108.974 160.224C108.886 160.104 108.836 159.961 108.829 159.812C108.822 159.664 108.859 159.516 108.935 159.388" fill="#FF9A6C"/>
<path d="M114.469 155.176C114.1 155.176 114.217 157.613 112.221 159.447C110.225 161.281 107.607 161.145 107.607 161.488C107.607 161.644 108.21 161.935 109.305 161.909C110.744 161.864 112.122 161.311 113.193 160.348C114.21 159.424 114.83 158.142 114.923 156.771C114.936 155.747 114.631 155.157 114.469 155.176Z" fill="#263238"/>
<path d="M113.478 128.835C113.789 129.406 115.966 128.777 118.623 128.693C121.28 128.608 123.503 128.991 123.762 128.401C123.878 128.116 123.425 127.604 122.466 127.144C121.219 126.6 119.865 126.347 118.506 126.406C117.148 126.464 115.82 126.832 114.625 127.481C113.75 128.012 113.335 128.563 113.478 128.835Z" fill="#263238"/>
<path d="M93.1434 127.708C93.5646 128.194 95.0874 127.591 96.9471 127.468C98.8069 127.345 100.401 127.643 100.738 127.086C100.887 126.82 100.608 126.321 99.8955 125.874C98.9412 125.342 97.8502 125.105 96.7611 125.194C95.672 125.283 94.6339 125.693 93.7784 126.373C93.1434 126.93 92.9554 127.462 93.1434 127.708Z" fill="#263238"/>
<path d="M141.328 149.519C141.328 149.519 129.82 153.103 123.307 124.688C121.078 114.968 112.071 107.108 112.071 107.108L115.726 106.013C115.726 106.013 138.406 112.408 138.808 112.694C139.209 112.979 144.503 124.416 144.503 124.416L141.328 149.519Z" fill="#263238"/>
<path d="M138.491 148.457C138.439 147.245 139.696 144.316 140.882 144.07C144.057 143.422 149.831 143.376 150.297 151.496C150.945 162.596 139.65 160.944 139.612 160.626C139.573 160.309 138.672 152.649 138.491 148.457Z" fill="#FFBF9D"/>
<path d="M142.767 156.226C142.812 156.187 142.968 156.349 143.298 156.479C143.771 156.65 144.291 156.631 144.75 156.427C145.897 155.935 146.778 154.017 146.694 152.014C146.665 151.06 146.426 150.124 145.994 149.273C145.875 148.938 145.678 148.636 145.419 148.392C145.159 148.149 144.846 147.971 144.504 147.874C144.278 147.826 144.043 147.859 143.84 147.967C143.636 148.074 143.477 148.25 143.389 148.463C143.259 148.787 143.344 149.001 143.285 149.027C143.227 149.053 143.033 148.852 143.097 148.379C143.144 148.099 143.283 147.844 143.493 147.653C143.788 147.408 144.166 147.285 144.549 147.31C145.01 147.376 145.446 147.558 145.816 147.839C146.187 148.12 146.48 148.491 146.668 148.917C147.191 149.853 147.48 150.903 147.51 151.975C147.569 154.217 146.545 156.375 144.964 156.926C144.67 157.032 144.357 157.069 144.047 157.035C143.737 157.001 143.439 156.898 143.175 156.732C142.799 156.492 142.728 156.246 142.767 156.226Z" fill="#FF9A6C"/>
<path d="M133.52 144.083C132.961 144.002 132.407 143.89 131.861 143.746C130.384 143.297 129.031 142.512 127.909 141.452C127.129 140.732 126.438 139.923 125.848 139.041C125.182 138.02 124.62 136.934 124.17 135.801C123.209 133.161 122.41 130.465 121.778 127.727C121.001 124.837 120.152 122.102 119.225 119.672C118.42 117.511 117.452 115.414 116.329 113.4C115.575 112.046 114.726 110.746 113.789 109.512C113.465 109.071 113.179 108.754 112.992 108.527C112.905 108.41 112.808 108.301 112.7 108.203C112.772 108.33 112.855 108.451 112.946 108.566C113.115 108.799 113.387 109.13 113.698 109.583C114.594 110.841 115.412 112.152 116.147 113.51C117.233 115.531 118.177 117.624 118.973 119.776C119.88 122.206 120.716 124.928 121.493 127.818C122.128 130.567 122.938 133.272 123.917 135.918C124.382 137.065 124.959 138.163 125.641 139.197C126.25 140.088 126.964 140.904 127.766 141.627C128.922 142.69 130.315 143.463 131.829 143.882C132.38 144.029 132.95 144.096 133.52 144.083Z" fill="#263238"/>
<path d="M148.696 191.445C148.747 191.269 148.786 191.089 148.813 190.907C148.884 190.518 148.975 189.993 149.092 189.333C149.332 187.907 149.668 185.879 150.09 183.306L149.824 183.267C149.766 183.669 149.707 184.116 149.643 184.563V184.524C149.571 184.673 149.487 184.842 149.409 185.023L149.688 185.121C151.38 179.278 152.57 173.301 153.245 167.255C153.676 163.416 153.903 159.558 153.926 155.695C153.887 151.638 153.926 147.329 152.831 143.026C152.386 141.263 151.706 139.567 150.809 137.985C149.926 136.465 148.898 135.035 147.737 133.715C145.482 131.123 143.052 128.861 140.83 126.639L128.952 114.923L120.858 107.049L118.649 104.931L118.066 104.386C118.005 104.318 117.935 104.259 117.858 104.211C117.907 104.29 117.966 104.362 118.033 104.425L118.577 105.002C119.096 105.527 119.815 106.259 120.722 107.192L128.673 115.182C132.056 118.545 136.06 122.543 140.512 126.982C142.728 129.218 145.152 131.473 147.375 134.045C149.74 136.641 151.447 139.768 152.351 143.163C153.414 147.375 153.401 151.664 153.446 155.708C153.431 159.553 153.214 163.394 152.798 167.216C152.151 173.245 151.016 179.211 149.403 185.056L149.681 185.159C149.759 184.978 149.837 184.809 149.902 184.654C149.96 184.194 150.018 183.747 150.064 183.358L149.798 183.319C149.429 185.911 149.15 187.939 148.923 189.365C148.839 190.013 148.768 190.564 148.716 190.953C148.695 191.116 148.688 191.281 148.696 191.445Z" fill="#3F3F6F"/>
<path d="M157.464 140.13C157.422 139.964 157.356 139.805 157.27 139.657C157.095 139.313 156.881 138.879 156.622 138.361C156.058 137.233 155.17 135.633 154.03 133.695C152.889 131.758 151.386 129.503 149.636 127.079C147.887 124.656 145.819 122.096 143.519 119.523C141.219 116.951 138.86 114.651 136.65 112.635C134.441 110.62 132.348 108.922 130.54 107.561C128.732 106.201 127.241 105.144 126.179 104.47L124.947 103.686C124.81 103.584 124.66 103.501 124.5 103.44C124.615 103.566 124.746 103.677 124.889 103.771C125.207 104.004 125.595 104.283 126.062 104.632C127.092 105.358 128.55 106.453 130.319 107.872C132.088 109.292 134.136 110.996 136.333 113.005C138.529 115.013 140.784 117.288 143.091 119.88C145.398 122.472 147.426 124.993 149.208 127.377C150.99 129.762 152.481 131.991 153.673 133.903C154.866 135.814 155.805 137.376 156.414 138.477L157.146 139.735C157.237 139.878 157.344 140.011 157.464 140.13Z" fill="#3F3F6F"/>
<path d="M142.637 229.599C142.928 229.256 143.184 228.884 143.402 228.491C143.869 227.765 144.536 226.709 145.391 225.426C147.593 222.076 149.972 218.847 152.519 215.752C155.041 212.64 157.896 209.815 161.034 207.328C162.378 206.353 163.773 205.451 165.214 204.625C164.781 204.752 164.362 204.921 163.963 205.131C163.484 205.352 163.021 205.605 162.576 205.889C161.972 206.238 161.388 206.621 160.827 207.036C157.592 209.475 154.671 212.304 152.131 215.46C149.557 218.566 147.195 221.841 145.061 225.264C144.244 226.56 143.622 227.662 143.208 228.42C142.982 228.795 142.791 229.189 142.637 229.599Z" fill="#263238"/>
<path d="M151.833 284.705L170.23 202.785L151.438 192.748C151.049 192.184 141.543 187.894 141.543 187.894C139.03 191.945 135.724 195.445 131.823 198.184C120.444 205.053 109.026 199.441 108.054 188.911L97.6342 191.84L77.5462 195.307C77.5462 195.307 61.1583 238.01 63.3291 254.716C65.4999 271.421 62.4738 300.329 62.4738 300.329L60.7825 309.887L77.8832 310.237H80.6955L118.837 310.023L152.125 309.887C148.185 298.598 151.833 284.705 151.833 284.705Z" fill="#3F3F6F"/>
<path d="M49.4682 291.639C46.2254 291.795 43.0025 291.053 40.1545 289.494C37.3064 287.936 34.9437 285.622 33.3266 282.807C32.2457 280.949 31.659 278.845 31.6223 276.696C31.6223 267.799 37.1627 255.04 39.003 250.445C41.6534 243.823 66.9189 197.957 69.958 198.605C72.9971 199.253 74.6495 199.493 74.6495 199.493L60.2639 264.747L106.019 272.251L100.997 289.747L49.4682 291.639Z" fill="#FFBF9D"/>
<path d="M48.2822 222.581L71.5325 234.893L79.2178 195.281C79.2178 195.281 69.3682 196.169 66.1152 200.303C62.8622 204.437 48.2822 222.581 48.2822 222.581Z" fill="#3F3F6F"/>
<path d="M76.4637 267.404L70.1975 253.796L67.463 243.739L59.1362 237.259C59.1362 237.259 56.3757 237.583 57.231 239.728C58.0864 241.872 62.2725 245.728 62.2725 245.728L64.7349 252.603L60.7302 245.618L54.8982 242.728L49.1116 243.156C49.1116 243.156 48.0424 245.748 50.7251 245.832H53.6152L58.0086 249.37L60.7562 256.012L56.6154 249.584L50.5048 247.413L46.6168 248.404C46.6168 248.404 45.5476 250.122 47.4722 250.348C49.3967 250.575 50.7122 250.562 50.7122 250.562L54.2438 252.616L57.3542 259.135L51.885 254.664L44.8154 253.822C44.8154 253.822 43.636 255.526 45.4634 256.167C47.3295 256.937 49.1549 257.802 50.9325 258.759L54.8658 264.196L76.4637 267.404Z" fill="#FFBF9D"/>
<path d="M76.4641 267.404L54.8339 264.267H54.7885V264.228L50.8357 258.798L50.8811 258.831C49.6434 258.183 48.3539 257.535 46.9931 256.925C46.6496 256.776 46.3062 256.621 45.9563 256.485C45.5838 256.363 45.2254 256.203 44.8871 256.005C44.7084 255.885 44.5627 255.721 44.4632 255.53C44.3636 255.339 44.3133 255.126 44.3168 254.91C44.3381 254.488 44.4748 254.08 44.7121 253.731L44.751 253.666H44.8417L51.9114 254.502H51.9567L57.4259 258.999L57.1926 259.18L54.0757 252.7L54.1405 252.765L50.6024 250.711H50.6867C49.7471 250.711 48.7815 250.633 47.7901 250.53C47.5161 250.545 47.2421 250.499 46.9878 250.396C46.7335 250.293 46.5052 250.135 46.3191 249.934C46.1619 249.68 46.1107 249.375 46.1766 249.085C46.2347 248.816 46.3353 248.557 46.4747 248.32V248.262H46.5395L50.4275 247.264H50.4793H50.5247L56.6612 249.48H56.7131V249.525L60.9121 255.96L60.6205 256.115L59.1431 252.558C58.7219 251.521 58.2942 250.497 57.8471 249.473L57.8989 249.538L53.5055 246L53.6092 246.039H51.8984C51.3275 246.064 50.7555 246.045 50.1877 245.981C49.8784 245.945 49.5855 245.822 49.3426 245.627C49.0997 245.432 48.9165 245.173 48.8139 244.879C48.6692 244.297 48.717 243.683 48.95 243.13V243.039H49.0602L54.8468 242.611H54.8922H54.9311L60.7631 245.508H60.802V245.553L64.8066 252.538L64.5215 252.668L62.1433 245.799L62.1822 245.864C60.7145 244.511 59.3579 243.041 58.1257 241.471C57.8325 241.083 57.5662 240.676 57.3287 240.252C57.0691 239.821 56.9407 239.323 56.9593 238.82C56.9918 238.568 57.084 238.327 57.2283 238.117C57.3725 237.908 57.5646 237.736 57.7888 237.615C58.2032 237.374 58.6613 237.218 59.1366 237.155H59.1884H59.2338L67.5476 243.635H67.58V243.674L70.2952 253.737L76.4641 267.404L70.1137 253.841L67.3921 243.771L67.4375 243.836L59.1042 237.395H59.2014C58.7658 237.455 58.3458 237.598 57.9637 237.816C57.7754 237.915 57.6136 238.058 57.4919 238.233C57.3701 238.408 57.2919 238.609 57.2639 238.82C57.2185 239.689 57.8471 240.518 58.3849 241.276C59.6104 242.829 60.9582 244.281 62.4155 245.618V245.65L64.8844 252.526L64.6057 252.655L60.5946 245.676L60.6659 245.734L54.8339 242.844H54.9181L49.1315 243.272L49.274 243.175C49.0731 243.654 49.03 244.185 49.1509 244.691C49.2317 244.929 49.3801 245.139 49.5781 245.294C49.776 245.45 50.0148 245.544 50.2655 245.566C50.8165 245.623 51.3709 245.64 51.9243 245.618H53.6804L53.7258 245.657L58.1192 249.195H58.1581V249.234L59.4541 252.318C59.9531 253.536 60.4585 254.748 60.9251 255.876L60.627 256.031L56.4863 249.603L56.5705 249.668L50.4663 247.497H50.5441L46.6561 248.488L46.7598 248.417C46.6205 248.6 46.5321 248.816 46.5036 249.043C46.4751 249.271 46.5076 249.502 46.5978 249.713C46.7245 249.887 46.9118 250.007 47.1227 250.05C47.354 250.111 47.5905 250.15 47.829 250.167C48.8075 250.264 49.773 250.329 50.6932 250.342H50.732H50.7709L54.3025 252.396H54.3479V252.441L57.4518 258.96L57.7434 259.576L57.2185 259.142L51.7559 254.606H51.8336L44.7639 253.757L44.8871 253.698C44.6841 254.004 44.5635 254.356 44.5371 254.722C44.5307 254.896 44.5691 255.068 44.6485 255.222C44.728 255.377 44.8458 255.508 44.9907 255.604C45.3155 255.783 45.6561 255.933 46.0081 256.051C46.3645 256.193 46.7079 256.349 47.0514 256.498C48.4122 257.146 49.7082 257.794 50.9394 258.442L54.8663 263.885L54.795 263.84L76.4641 267.404Z" fill="#FF9A6C"/>
<g opacity="0.3">
<path d="M152.209 289.876C152.209 289.876 146.895 301.009 139.994 304.268C133.585 307.295 129.516 307.949 121.889 307.392C118.163 307.126 106.019 304.767 101.626 303.504L72.0317 290.803L134.24 300.607L152.209 289.876Z" fill="black"/>
</g>
<path d="M167.391 206.848C167.391 206.848 178.524 202.902 178.738 227.856C178.952 252.811 149.688 294.691 144.673 298.812C139.657 302.934 133.981 305.707 118.94 303.478C100.077 300.685 72.9907 290.809 72.9907 290.809L89.5601 275.4L123.191 273.884L150.53 217.683C150.53 217.683 158.06 205.759 167.391 206.848Z" fill="#FFBF9D"/>
<path d="M100.997 289.734C100.997 289.734 109.337 294.982 118.753 294.71C128.168 294.438 136.501 297.484 137.713 296.654C138.925 295.825 139.061 294.328 137.713 293.654C136.365 292.98 130.669 292.177 130.669 292.177L125.744 290.155C125.744 290.155 142.56 291.6 143.901 290.952C145.243 290.304 146.591 289.338 146.053 287.861C145.926 287.452 145.678 287.09 145.341 286.825C145.004 286.56 144.595 286.404 144.167 286.377C144.167 286.377 147.802 286.513 147.666 285.036C147.56 284.409 147.327 283.81 146.98 283.278C146.634 282.745 146.181 282.289 145.651 281.938C145.113 281.673 138.056 278.802 138.056 278.802L128.984 277L137.694 276.651L145.301 278.776C145.301 278.776 148.34 279.119 147.666 276.56C146.992 274 137.707 271.181 137.707 271.181L125.874 270.365C125.874 270.365 135.017 269.03 135.957 266.205C136.897 263.38 135.309 261.766 135.309 261.766C135.309 261.766 128.829 264.326 125.757 264.863C122.686 265.401 118.902 266.607 113.925 268.628C111.23 269.694 108.595 270.905 106.032 272.257" fill="#FFBF9D"/>
<path d="M106.019 272.251L106.499 271.979C106.816 271.804 107.296 271.551 107.931 271.233C109.227 270.585 111.093 269.711 113.582 268.68C116.6 267.403 119.692 266.308 122.841 265.401C123.762 265.155 124.734 264.928 125.745 264.753C126.773 264.55 127.788 264.284 128.784 263.956C130.851 263.308 133.009 262.531 135.264 261.656H135.341L135.393 261.714C135.801 262.204 136.097 262.776 136.261 263.392C136.426 264.007 136.454 264.651 136.346 265.278L136.249 265.758L136.119 266.231C136.008 266.555 135.829 266.851 135.594 267.099C135.115 267.576 134.559 267.969 133.948 268.259C132.704 268.858 131.401 269.327 130.06 269.659C128.686 270.026 127.293 270.32 125.887 270.54V270.255L137.726 271.058H137.758C140.202 271.8 142.576 272.755 144.854 273.91C145.436 274.219 145.995 274.569 146.526 274.959C146.798 275.163 147.052 275.391 147.284 275.64C147.533 275.894 147.719 276.202 147.828 276.541C147.925 276.884 147.947 277.244 147.893 277.597C147.867 277.781 147.804 277.959 147.708 278.119C147.612 278.279 147.486 278.419 147.336 278.53C146.724 278.901 146.005 279.054 145.295 278.964L137.681 276.845H137.733L129.023 277.195V276.865L135.503 278.161L138.095 278.672H138.128L145.69 281.802C146.291 282.165 146.796 282.667 147.161 283.267C147.565 283.836 147.791 284.513 147.809 285.211C147.779 285.402 147.701 285.582 147.582 285.734C147.463 285.886 147.307 286.005 147.129 286.079C146.82 286.233 146.49 286.34 146.15 286.397C145.492 286.519 144.823 286.571 144.154 286.552V286.222C144.454 286.237 144.748 286.313 145.018 286.446C145.287 286.578 145.527 286.764 145.722 286.993C146.113 287.439 146.326 288.013 146.319 288.606C146.29 288.898 146.203 289.181 146.064 289.439C145.925 289.697 145.736 289.925 145.509 290.11C145.091 290.472 144.626 290.777 144.128 291.017C144 291.094 143.86 291.149 143.714 291.179C143.577 291.21 143.439 291.23 143.299 291.237C143.027 291.27 142.755 291.276 142.489 291.283C141.951 291.283 141.42 291.283 140.888 291.283C139.826 291.283 138.776 291.218 137.739 291.166C133.592 290.952 129.6 290.622 125.712 290.304L125.783 290.012L130.702 292.034C132.516 292.306 134.279 292.598 135.996 292.987C136.424 293.09 136.851 293.194 137.292 293.337C137.733 293.455 138.134 293.69 138.452 294.017C138.607 294.191 138.722 294.398 138.787 294.622C138.852 294.847 138.866 295.083 138.828 295.313C138.742 295.759 138.514 296.166 138.18 296.473C138.102 296.549 138.02 296.621 137.933 296.687C137.842 296.763 137.739 296.824 137.629 296.868C137.418 296.928 137.2 296.954 136.981 296.946C136.566 296.939 136.153 296.903 135.743 296.836C134.933 296.726 134.149 296.57 133.372 296.428C131.823 296.136 130.313 295.851 128.836 295.618C126.106 295.162 123.347 294.9 120.58 294.834C119.932 294.834 119.284 294.834 118.694 294.834C118.105 294.834 117.47 294.834 116.88 294.834C116.29 294.834 115.713 294.756 115.15 294.697L113.523 294.471C110.263 293.889 107.094 292.876 104.101 291.457C103.065 290.965 102.293 290.55 101.781 290.259C101.27 289.967 101.017 289.786 101.017 289.786C101.086 289.819 101.153 289.856 101.218 289.896L101.801 290.213C102.326 290.492 103.097 290.9 104.14 291.373C107.136 292.755 110.299 293.739 113.549 294.302L115.169 294.516C115.726 294.574 116.303 294.6 116.886 294.646C117.47 294.691 118.072 294.646 118.688 294.646C119.303 294.646 119.938 294.646 120.58 294.646C123.359 294.699 126.131 294.952 128.874 295.404C130.345 295.631 131.855 295.909 133.41 296.201C134.188 296.343 134.972 296.492 135.769 296.603C136.168 296.663 136.571 296.697 136.974 296.706C137.167 296.71 137.359 296.686 137.545 296.635C137.713 296.553 137.864 296.441 137.992 296.305C138.278 296.034 138.473 295.68 138.549 295.294C138.579 295.103 138.566 294.908 138.511 294.723C138.456 294.538 138.361 294.368 138.232 294.224C137.944 293.933 137.584 293.725 137.188 293.622C136.786 293.486 136.365 293.389 135.944 293.285C134.246 292.903 132.477 292.637 130.676 292.352H130.637L125.712 290.304L124.805 289.935L125.783 290.012C129.626 290.336 133.637 290.66 137.791 290.861C138.828 290.913 139.877 290.959 140.934 290.978C141.459 290.978 141.99 290.978 142.515 290.978C142.78 290.978 143.046 290.978 143.305 290.939C143.432 290.926 143.557 290.907 143.681 290.881C143.798 290.858 143.91 290.814 144.012 290.751C144.478 290.518 144.913 290.229 145.308 289.889C145.506 289.731 145.67 289.535 145.791 289.312C145.913 289.09 145.988 288.845 146.014 288.593C146.012 288.083 145.826 287.59 145.489 287.207C145.326 287.018 145.128 286.864 144.906 286.753C144.683 286.642 144.441 286.576 144.193 286.559V286.228C144.844 286.245 145.496 286.195 146.137 286.079C146.446 286.029 146.745 285.933 147.025 285.794C147.154 285.743 147.267 285.661 147.356 285.554C147.444 285.448 147.504 285.321 147.53 285.185C147.491 284.551 147.265 283.942 146.882 283.435C146.545 282.889 146.086 282.427 145.541 282.087L138.024 278.958L135.432 278.446L128.952 277.15L127.559 276.871L128.978 276.813L137.687 276.469H137.739L145.353 278.64C145.982 278.727 146.622 278.597 147.167 278.271C147.39 278.068 147.545 277.802 147.611 277.509C147.677 277.216 147.651 276.909 147.537 276.631C147.292 276.056 146.882 275.566 146.357 275.225C145.842 274.842 145.299 274.5 144.731 274.201C142.473 273.051 140.118 272.101 137.694 271.363H137.733L125.894 270.54L124.598 270.449L125.894 270.248C127.287 270.031 128.669 269.744 130.034 269.387C131.347 269.056 132.623 268.596 133.845 268.013C134.426 267.737 134.958 267.367 135.419 266.918C135.629 266.695 135.788 266.43 135.886 266.14L136.022 265.693L136.106 265.233C136.212 264.645 136.189 264.041 136.039 263.463C135.889 262.884 135.616 262.345 135.238 261.883H135.374C133.119 262.751 130.961 263.529 128.894 264.17C127.886 264.492 126.86 264.756 125.822 264.961C124.818 265.136 123.878 265.356 122.932 265.609C119.785 266.5 116.694 267.582 113.679 268.849C111.184 269.853 109.285 270.728 108.009 271.337L106.557 272.05L106.019 272.251Z" fill="#FF9A6C"/>
<path d="M126.178 283.72C127.114 283.859 128.058 283.933 129.004 283.941C130.74 284.044 133.144 284.245 135.769 284.647C138.393 285.049 140.752 285.561 142.443 285.975C143.346 286.258 144.269 286.474 145.204 286.623C144.354 286.204 143.461 285.878 142.54 285.651C140.346 285.001 138.109 284.503 135.846 284.161C133.585 283.819 131.303 283.63 129.016 283.597C128.069 283.533 127.117 283.574 126.178 283.72Z" fill="#FF9A6C"/>
<path d="M67.2234 235.373C66.8735 236.999 66.5754 238.354 66.3681 239.391C66.2454 239.878 66.1631 240.374 66.1218 240.874C66.3128 240.407 66.4603 239.924 66.5625 239.429C66.8217 238.406 67.1586 237.064 67.5669 235.457C68.4028 232.094 69.5109 227.441 70.7097 222.29C72.6537 213.866 74.2672 206.692 74.6819 204.463V204.288L74.5393 204.386C74.2873 204.537 74.0526 204.715 73.8395 204.917C74.1124 204.809 74.3731 204.672 74.6171 204.509L74.507 204.431C73.859 206.608 72.1547 213.73 70.1848 222.18" fill="#263238"/>
<path d="M136.857 237.285L174.441 254.035C174.441 254.035 189.028 209.019 167.54 201.768L156.764 204.288L136.857 237.285Z" fill="#3F3F6F"/>
<path d="M100.997 289.734C100.997 289.831 89.4696 290.33 75.2395 290.855C61.0094 291.38 49.4685 291.73 49.4685 291.639C49.4685 291.548 60.9964 291.043 75.2265 290.518C89.4566 289.993 100.997 289.656 100.997 289.734Z" fill="#FF9A6C"/>
<path d="M54.8595 264.157C54.8595 264.215 54.1208 264.287 52.9609 264.572C51.4552 264.956 50.0218 265.582 48.7165 266.425C47.4021 267.269 46.2732 268.371 45.3987 269.665C44.7507 270.657 44.498 271.369 44.4397 271.35C44.4565 271.174 44.5003 271.001 44.5693 270.838C44.7392 270.384 44.9564 269.95 45.2173 269.542C46.0574 268.184 47.1967 267.036 48.548 266.185C49.8835 265.316 51.3689 264.703 52.9285 264.377C53.3995 264.286 53.8755 264.223 54.3541 264.19C54.5193 264.149 54.6905 264.138 54.8595 264.157Z" fill="#FF9A6C"/>
<path d="M143.338 231.939C143.318 232.062 143.281 232.182 143.227 232.295L142.852 233.28C142.521 234.129 142.016 235.354 141.374 236.863C140.078 239.877 138.212 243.991 135.996 248.469C133.78 252.947 131.661 256.951 130.099 259.829C129.321 261.267 128.68 262.421 128.226 263.224L127.701 264.138C127.646 264.246 127.579 264.349 127.5 264.442C127.534 264.325 127.582 264.212 127.643 264.105L128.11 263.159C128.557 262.304 129.153 261.137 129.892 259.718C131.395 256.809 133.475 252.798 135.724 248.32C137.972 243.842 139.845 239.753 141.186 236.766L142.761 233.228L143.202 232.269C143.236 232.155 143.282 232.044 143.338 231.939Z" fill="#263238"/>
<path d="M241.704 278.951C241.704 278.951 225.647 260.47 219.588 242.015C213.529 223.56 216.432 225.634 216.432 225.634C216.432 225.634 224.61 243.583 230.824 252.253C237.038 260.924 248.087 273.638 248.087 273.638L241.704 278.951Z" fill="#455A64"/>
<path d="M244.944 228.511C244.837 228.32 244.667 228.173 244.463 228.095C244.259 228.017 244.034 228.013 243.827 228.084C243.62 228.155 243.445 228.296 243.332 228.483C243.219 228.67 243.175 228.891 243.207 229.107C244.186 235.587 246.298 250.834 246.214 260.71C246.11 273.547 246.214 278.504 246.214 278.504H252.895C252.895 278.504 251.709 251.975 250.199 243.888C249.124 238.218 246.888 231.919 244.944 228.511Z" fill="#455A64"/>
<path d="M248.567 276.346C251.368 270.001 253.22 263.279 254.062 256.394C254.612 251.67 253.634 245.287 252.17 236.766C251.605 233.651 251.323 230.491 251.327 227.325C251.331 226.972 251.452 226.631 251.671 226.354C251.889 226.077 252.194 225.881 252.536 225.796C252.878 225.71 253.239 225.741 253.562 225.883C253.885 226.025 254.152 226.27 254.321 226.58C255.124 228.018 257.464 232.93 258.053 236.015C259.673 244.439 261.507 248.631 260.101 256.615C258.695 264.598 253.524 276.89 253.524 276.89L248.567 276.346Z" fill="#455A64"/>
<path d="M254.58 276.89C254.58 276.89 272.212 239.002 273.43 233.384C274.649 227.765 278.809 214.812 279.295 215.544C279.781 216.276 280.52 223.119 277.351 230.941C274.182 238.762 260.606 278.044 260.606 278.044H254.587" fill="#455A64"/>
<path d="M246.635 275.193C246.459 275.096 246.292 274.983 246.136 274.856C245.825 274.616 245.352 274.285 244.776 273.812C243.603 272.886 241.957 271.486 240.039 269.626C235.073 264.74 230.772 259.221 227.247 253.212C223.731 247.208 220.808 240.875 218.519 234.304C217.631 231.79 216.983 229.729 216.575 228.297C216.361 227.584 216.212 227.001 216.108 226.644C216.048 226.454 216.002 226.259 215.972 226.061C216.057 226.243 216.126 226.431 216.179 226.625C216.315 227.027 216.49 227.571 216.717 228.251C217.177 229.671 217.864 231.712 218.778 234.213C221.14 240.73 224.087 247.02 227.584 253.005C231.099 258.983 235.348 264.497 240.233 269.419C242.125 271.292 243.739 272.724 244.879 273.676C245.443 274.169 245.903 274.519 246.175 274.771C246.34 274.899 246.494 275.039 246.635 275.193Z" fill="#263238"/>
<path d="M248.56 257.016C248.476 256.652 248.424 256.281 248.405 255.908C248.32 255.124 248.21 254.1 248.081 252.869C247.802 250.277 247.361 246.771 246.739 242.89C246.117 239.008 245.443 235.516 244.886 232.995C244.62 231.783 244.406 230.779 244.238 230.008C244.14 229.645 244.075 229.274 244.043 228.899C244.187 229.248 244.3 229.607 244.38 229.975C244.581 230.669 244.841 231.679 245.145 232.937C245.748 235.444 246.486 238.937 247.089 242.831C247.692 246.726 248.106 250.271 248.32 252.843C248.424 254.139 248.495 255.176 248.521 255.895C248.566 256.267 248.579 256.642 248.56 257.016Z" fill="#263238"/>
<path d="M252.72 226.282C252.799 226.437 252.868 226.597 252.928 226.761C253.057 227.118 253.232 227.584 253.453 228.167C253.673 228.751 253.958 229.528 254.211 230.422C254.464 231.317 254.813 232.315 255.066 233.455C255.209 234.025 255.351 234.621 255.507 235.237C255.662 235.853 255.76 236.533 255.889 237.181C256.181 238.529 256.356 239.987 256.537 241.516C257.338 248.187 257.097 254.942 255.824 261.539C255.5 263.056 255.215 264.494 254.833 265.816C254.652 266.464 254.496 267.112 254.308 267.76L253.744 269.503C253.407 270.624 252.999 271.603 252.669 272.471C252.338 273.339 252.021 274.072 251.755 274.661C251.489 275.251 251.288 275.685 251.107 276.029C251.045 276.193 250.964 276.349 250.867 276.495C250.907 276.323 250.966 276.156 251.042 275.996L251.599 274.61C251.859 274.007 252.157 273.268 252.455 272.393C252.753 271.519 253.155 270.54 253.472 269.426C253.641 268.868 253.822 268.285 254.01 267.676C254.198 267.067 254.334 266.425 254.509 265.764C254.878 264.468 255.157 263.01 255.462 261.5C256.691 254.933 256.932 248.219 256.174 241.581C255.973 240.058 255.805 238.607 255.526 237.265C255.397 236.617 255.299 235.937 255.163 235.321C255.027 234.706 254.885 234.11 254.749 233.539C254.515 232.399 254.191 231.394 253.952 230.507C253.712 229.619 253.466 228.854 253.258 228.232C253.051 227.61 252.915 227.169 252.798 226.807C252.754 226.635 252.728 226.459 252.72 226.282Z" fill="#263238"/>
<path d="M279.094 216.309C279.101 216.365 279.101 216.421 279.094 216.477C279.094 216.613 279.048 216.775 279.016 216.97C278.938 217.404 278.841 218.039 278.666 218.855C278.329 220.488 277.759 222.828 276.878 225.672C275.996 228.517 274.798 231.861 273.365 235.522C271.933 239.183 270.294 243.188 268.726 247.439C267.158 251.69 265.913 255.83 264.767 259.595C263.62 263.36 262.544 266.723 261.527 269.523C260.718 271.732 259.788 273.896 258.74 276.003C258.377 276.754 258.053 277.299 257.846 277.7C257.749 277.875 257.664 278.011 257.6 278.135C257.535 278.258 257.509 278.277 257.502 278.271C257.519 278.217 257.541 278.165 257.567 278.115C257.626 277.992 257.69 277.843 257.781 277.661C257.969 277.266 258.267 276.696 258.611 275.938C259.317 274.441 260.276 272.231 261.274 269.458C262.272 266.684 263.334 263.289 264.455 259.517C265.577 255.746 266.808 251.592 268.402 247.335C269.996 243.078 271.642 239.08 273.074 235.425C274.506 231.77 275.744 228.452 276.651 225.621C277.558 222.789 278.167 220.469 278.549 218.849C278.744 218.039 278.867 217.41 278.964 216.983C279.016 216.788 279.048 216.626 279.081 216.497C279.073 216.434 279.077 216.37 279.094 216.309Z" fill="#263238"/>
<path d="M224.739 207.943C224.497 207.709 224.184 207.562 223.849 207.526C223.514 207.49 223.176 207.566 222.889 207.743C222.603 207.919 222.383 208.187 222.265 208.502C222.147 208.818 222.137 209.164 222.238 209.485C222.84 211.434 223.58 213.338 224.454 215.181C226.878 220.333 233.993 238.814 237.33 248.962C240.667 259.109 245.359 278.044 245.359 278.044L252.487 276.89C252.487 276.89 245.974 245.786 239.611 234.569C234.492 225.562 229.392 212.544 224.739 207.943Z" fill="#455A64"/>
<path d="M239.274 255.312C239.427 255.583 239.551 255.87 239.643 256.167C239.851 256.725 240.142 257.541 240.46 258.558C241.108 260.587 241.918 263.418 242.728 266.568C243.538 269.717 244.205 272.588 244.672 274.668L245.21 277.13C245.286 277.432 245.336 277.74 245.359 278.05C245.23 277.768 245.132 277.472 245.067 277.169L244.419 274.726L242.352 266.658C241.542 263.509 240.784 260.671 240.194 258.623L239.488 256.206C239.384 255.917 239.313 255.617 239.274 255.312Z" fill="#263238"/>
<path d="M248.93 277.467C248.909 277.404 248.895 277.339 248.891 277.273C248.891 277.124 248.845 276.942 248.813 276.716C248.735 276.223 248.67 275.491 248.521 274.558C248.256 272.691 247.789 270.022 247.025 266.71C246.116 262.865 245.004 259.072 243.694 255.344C242.236 251.126 240.408 246.571 238.328 241.86C234.142 232.438 229.963 224.085 227.215 217.884C225.828 214.806 224.753 212.291 224.04 210.535C223.684 209.66 223.424 208.974 223.243 208.514L223.042 207.982C223.017 207.922 222.999 207.859 222.99 207.794C223.028 207.848 223.059 207.907 223.081 207.969C223.139 208.105 223.217 208.274 223.314 208.481L224.176 210.477C224.928 212.214 226.036 214.708 227.455 217.773C230.267 223.916 234.486 232.25 238.678 241.678C240.752 246.402 242.566 250.97 244.024 255.202C245.318 258.946 246.399 262.76 247.264 266.626C247.857 269.23 248.318 271.862 248.645 274.512C248.774 275.452 248.813 276.184 248.865 276.683C248.865 276.91 248.897 277.098 248.91 277.247C248.927 277.319 248.934 277.393 248.93 277.467Z" fill="#263238"/>
<path d="M252.474 276.89C252.362 276.498 252.282 276.097 252.234 275.692L251.677 272.419C251.184 269.665 250.439 265.868 249.363 261.734C248.288 257.599 247.095 253.919 246.175 251.275L245.061 248.145C244.905 247.768 244.778 247.381 244.678 246.985C244.88 247.34 245.053 247.711 245.197 248.093C245.501 248.819 245.929 249.869 246.421 251.184C247.708 254.607 248.811 258.096 249.726 261.636C250.644 265.178 251.384 268.764 251.942 272.38C252.143 273.767 252.299 274.888 252.376 275.672C252.44 276.075 252.473 276.482 252.474 276.89Z" fill="#263238"/>
<path d="M267.073 275.867H239.3V309.705H267.073V275.867Z" fill="#2A2A4A"/>
<g opacity="0.3">
<path d="M267.073 275.867H239.3V309.705H267.073V275.867Z" fill="black"/>
</g>
<path d="M258.215 275.867H233.572V309.705H258.215V275.867Z" fill="#2A2A4A"/>
</svg>
