<svg width="150" height="150" viewBox="0 0 150 150" fill="none" xmlns="http://www.w3.org/2000/svg">
<path d="M13.818 139.554L29.112 139.482L44.409 139.455L75 139.407L105.591 139.455L120.888 139.482L136.182 139.554L120.888 139.629L105.591 139.656L75 139.704L44.409 139.656L29.112 139.629L13.818 139.554Z" fill="#263238"/>
<path d="M54.573 89.2047C56.544 103.005 61.392 120.657 65.973 124.521C69.657 127.641 89.805 134.28 90.942 134.499C93.756 135.024 101.049 115.446 98.175 114.381C94.554 113.043 76.977 111.015 76.062 109.899C75.147 108.783 69.417 99.5127 63 88.8417C58.578 81.4707 53.352 80.6487 54.573 89.2047Z" fill="#FFC4C0"/>
<path d="M88.743 133.2C89.067 133.401 93.666 136.218 96.561 137.328C98.724 138.156 105.006 140.376 106.161 138.087C106.947 136.527 103.404 134.787 100.926 133.503C99.621 132.825 98.073 131.268 98.547 130.434C99.372 128.973 102.723 130.791 104.901 132.315C109.101 135.258 114.621 140.385 117.501 138.366C118.596 137.604 117.537 135.966 115.929 134.295C118.599 136.299 121.482 138 122.73 137.202C123.444 136.746 123.534 136.047 123.228 135.213C124.074 135.57 124.848 135.579 125.43 135.057C126.429 134.175 126.102 132.723 125.22 131.187C125.394 131.183 125.564 131.138 125.716 131.055C125.869 130.973 126 130.856 126.099 130.713C128.286 127.917 119.292 118.611 116.001 117.534C106.323 114.354 95.742 114.327 95.742 114.327C91.608 117.108 88.737 133.2 88.743 133.2Z" fill="#FFC4C0"/>
<path d="M104.034 125.334C106.351 125.902 108.521 126.955 110.4 128.424C112.764 130.29 114.264 132.363 116.202 134.487C116.253 134.544 116.166 134.625 116.115 134.568C115.191 133.557 111.336 129.729 110.331 128.847C108.517 127.223 106.356 126.035 104.013 125.373C103.995 125.367 104.007 125.328 104.034 125.334Z" fill="#263238"/>
<path d="M106.227 121.299C108.762 122.226 111.363 123.168 113.67 124.599C116.193 126.165 118.074 128.529 119.925 130.806C121.037 132.178 122.118 133.571 123.168 134.985C123.213 135.045 123.132 135.126 123.084 135.066C121.206 132.714 119.26 130.421 117.246 128.187C115.39 126.102 113.139 124.405 110.625 123.192C109.188 122.502 107.7 121.92 106.212 121.344C106.2 121.332 106.2 121.287 106.227 121.299Z" fill="#263238"/>
<path d="M109.308 117.867C111.786 118.596 113.952 119.223 116.07 120.765C118.878 122.802 121.47 126.057 122.391 127.209C123.396 128.484 124.359 129.789 125.304 131.109C125.343 131.163 125.25 131.229 125.211 131.178C123.039 128.273 120.683 125.511 118.155 122.91C116.97 121.652 115.598 120.585 114.087 119.748C112.587 118.941 110.925 118.416 109.287 117.879C109.293 117.879 109.299 117.864 109.308 117.867Z" fill="#263238"/>
<path opacity="0.1" d="M90.069 134.253C85.965 132.999 69.282 127.329 65.961 124.521C61.392 120.657 56.544 102.999 54.561 89.2048C53.802 83.8798 55.539 82.1878 58.026 83.4448L90.069 134.253Z" fill="black"/>
<path d="M58.407 111.558L73.155 103.299C73.155 103.299 67.416 93.0988 61.527 85.4068C55.638 77.7148 53.286 82.1398 54.132 90.4798C54.978 98.8198 58.407 111.558 58.407 111.558Z" fill="#7D7DDE"/>
<path opacity="0.3" d="M58.407 111.558L73.155 103.299C73.155 103.299 67.416 93.0988 61.527 85.4068C55.638 77.7148 53.286 82.1398 54.132 90.4798C54.978 98.8198 58.407 111.558 58.407 111.558Z" fill="black"/>
<path d="M70.908 101.232C66.679 103.326 62.5615 105.638 58.572 108.159C58.512 108.198 58.572 108.294 58.635 108.264C62.866 106.174 66.9855 103.866 70.977 101.349C71.043 101.31 70.977 101.199 70.908 101.232Z" fill="#263238"/>
<path d="M54.6 88.9767C54.4614 89.0931 54.2967 89.1745 54.12 89.2137L54.021 89.2287C54.021 89.3697 54.039 89.5077 54.051 89.6517C54.1181 89.638 54.1835 89.6168 54.246 89.5887C54.465 89.4973 54.6533 89.3453 54.789 89.1507C54.903 88.9767 55.026 88.8117 55.128 88.6227C54.945 88.7397 54.78 88.8657 54.6 88.9767ZM70.446 102.06C70.395 101.859 70.371 101.661 70.317 101.46C70.257 101.673 70.233 101.871 70.194 102.06C70.1811 102.246 70.1257 102.426 70.032 102.588C69.9504 102.728 69.8337 102.845 69.6933 102.927C69.5529 103.01 69.3936 103.054 69.231 103.056C68.9807 103.052 68.7351 103.124 68.5267 103.263C68.3183 103.401 68.1569 103.6 68.064 103.833C67.9683 104.044 67.9461 104.282 68.001 104.508C68.04 104.721 68.064 104.922 68.112 105.123C68.1681 104.921 68.2102 104.715 68.238 104.508C68.2608 104.329 68.3211 104.157 68.415 104.004C68.5026 103.865 68.6252 103.751 68.7705 103.674C68.9158 103.597 69.0787 103.56 69.243 103.566C69.4939 103.559 69.7373 103.479 69.9423 103.334C70.1474 103.189 70.3049 102.987 70.395 102.753C70.468 102.529 70.4875 102.292 70.452 102.06H70.446ZM63.699 88.3677C63.7031 88.4204 63.7121 88.4726 63.726 88.5237C63.762 88.7367 63.789 88.9377 63.837 89.1387C63.8793 88.9941 63.9114 88.8467 63.933 88.6977L63.699 88.3677ZM62.799 97.7847C62.6163 97.7696 62.4402 97.7098 62.286 97.6107C62.1505 97.5193 62.0396 97.396 61.9632 97.2516C61.8868 97.1071 61.8473 96.9461 61.848 96.7827C61.8462 96.533 61.7683 96.2898 61.6246 96.0855C61.481 95.8813 61.2784 95.7257 61.044 95.6397C60.8242 95.5542 60.5839 95.5365 60.354 95.5887C60.153 95.6277 59.94 95.6547 59.739 95.7147C59.94 95.7627 60.153 95.7897 60.354 95.8407C60.5354 95.8519 60.7118 95.9043 60.87 95.9937C61.0101 96.0765 61.127 96.1933 61.2098 96.3333C61.2927 96.4733 61.3388 96.632 61.344 96.7947C61.3439 97.0441 61.4161 97.2883 61.5518 97.4975C61.6876 97.7068 61.8812 97.8722 62.109 97.9737C62.3281 98.0611 62.5681 98.0819 62.799 98.0337C63.0016 98.0054 63.2021 97.9633 63.399 97.9077C63.2021 97.8609 63.0028 97.8248 62.802 97.7997L62.799 97.7847Z" fill="#7D7DDE"/>
<path opacity="0.1" d="M70.551 104.757L58.407 111.558C58.407 111.558 54.978 98.8201 54.132 90.4801C53.595 85.2061 54.342 81.4981 56.454 81.4351L70.551 104.757Z" fill="black"/>
<path d="M71.751 139.515H19.632C19.059 138.462 27.6 92.8076 45.177 79.9526C49.077 77.0996 55.995 78.9356 57.918 81.7076C67.59 95.6456 71.751 139.515 71.751 139.515Z" fill="#7D7DDE"/>
<g opacity="0.3">
<path d="M71.751 139.515H19.632C19.059 138.462 27.6 92.8076 45.177 79.9526C49.077 77.0996 55.995 78.9356 57.918 81.7076C67.59 95.6456 71.751 139.515 71.751 139.515Z" fill="black"/>
</g>
<path d="M43.8 97.0737C43.6217 97.0537 43.4503 96.9931 43.299 96.8967C43.159 96.8093 43.0448 96.6863 42.9678 96.5403C42.8909 96.3943 42.854 96.2305 42.861 96.0657C42.8627 95.8807 42.8224 95.6977 42.743 95.5305C42.6636 95.3634 42.5473 95.2165 42.4028 95.1009C42.2583 94.9853 42.0895 94.9041 41.909 94.8633C41.7285 94.8226 41.5411 94.8234 41.361 94.8657C41.1498 94.8971 40.9405 94.9402 40.734 94.9947C40.947 95.0427 41.148 95.0667 41.361 95.1087C41.5425 95.1238 41.7185 95.178 41.877 95.2677C42.0153 95.3529 42.1301 95.4714 42.2108 95.6123C42.2915 95.7533 42.3356 95.9123 42.339 96.0747C42.3396 96.324 42.4135 96.5677 42.5517 96.7752C42.6899 96.9828 42.8862 97.145 43.116 97.2417C43.3306 97.3297 43.5658 97.3547 43.794 97.3137C44.007 97.2657 44.208 97.2417 44.409 97.1877C44.2088 97.1359 44.0054 97.0978 43.8 97.0737ZM53.913 136.5C53.7316 136.483 53.5567 136.423 53.403 136.326C53.2642 136.237 53.1506 136.113 53.0728 135.968C52.9951 135.823 52.9559 135.66 52.959 135.495C52.965 135.308 52.9274 135.123 52.8493 134.954C52.7713 134.785 52.6548 134.636 52.5093 134.519C52.3637 134.403 52.193 134.322 52.0107 134.283C51.8284 134.244 51.6395 134.248 51.459 134.295C51.258 134.331 51.045 134.361 50.859 134.409C51.0566 134.461 51.2569 134.502 51.459 134.532C51.6385 134.55 51.8122 134.605 51.969 134.694C52.111 134.776 52.2297 134.892 52.3137 135.033C52.3977 135.174 52.4443 135.334 52.449 135.498C52.445 135.746 52.5157 135.991 52.6521 136.199C52.7885 136.407 52.9843 136.569 53.214 136.665C53.4303 136.758 53.6697 136.784 53.901 136.74C54.102 136.692 54.303 136.665 54.519 136.614C54.315 136.551 54.114 136.527 53.913 136.5ZM62.802 97.7997C62.6193 97.7846 62.4432 97.7248 62.289 97.6257C62.1535 97.5343 62.0427 97.411 61.9662 97.2666C61.8898 97.1221 61.8503 96.9611 61.851 96.7977C61.8492 96.548 61.7713 96.3048 61.6276 96.1005C61.484 95.8963 61.2814 95.7407 61.047 95.6547C60.8273 95.5692 60.587 95.5515 60.357 95.6037C60.156 95.6427 59.943 95.6697 59.742 95.7297C59.943 95.7777 60.156 95.8047 60.357 95.8557C60.5384 95.8669 60.7148 95.9193 60.873 96.0087C61.0131 96.0915 61.13 96.2083 61.2128 96.3483C61.2957 96.4883 61.3419 96.647 61.347 96.8097C61.3469 97.0591 61.4191 97.3032 61.5549 97.5125C61.6906 97.7217 61.8842 97.8872 62.112 97.9887C62.3311 98.0761 62.5711 98.0969 62.802 98.0487C63.0047 98.0204 63.2051 97.9783 63.402 97.9227C63.2044 97.8707 63.0041 97.8296 62.802 97.7997ZM26.421 112.83C26.2983 112.819 26.1778 112.79 26.064 112.743L25.95 113.1C26.1057 113.128 26.2653 113.128 26.421 113.1C26.6295 113.07 26.8359 113.027 27.039 112.971C26.838 112.908 26.622 112.884 26.421 112.83ZM40.053 130.014C39.8706 129.995 39.6946 129.936 39.537 129.843C39.3999 129.752 39.2879 129.629 39.2113 129.483C39.1348 129.338 39.0961 129.176 39.099 129.012C39.0944 128.76 39.0145 128.515 38.8696 128.31C38.7247 128.104 38.5214 127.946 38.286 127.857C38.067 127.782 37.8323 127.766 37.605 127.809C37.392 127.857 37.191 127.881 37.005 127.935C37.2019 127.99 37.4024 128.031 37.605 128.058C37.7882 128.068 37.9658 128.125 38.121 128.223C38.2632 128.304 38.382 128.42 38.4661 128.56C38.5502 128.701 38.5967 128.86 38.601 129.024C38.5966 129.273 38.6672 129.517 38.8036 129.725C38.9401 129.933 39.136 130.095 39.366 130.191C39.5836 130.279 39.8225 130.302 40.053 130.257C40.26 130.224 40.4653 130.181 40.668 130.128C40.455 130.08 40.254 130.056 40.053 130.014ZM48.924 113.322C48.7468 113.305 48.5757 113.248 48.423 113.157C48.2844 113.069 48.171 112.947 48.0942 112.802C48.0173 112.658 47.9797 112.495 47.985 112.332C47.9782 112.08 47.897 111.836 47.7518 111.631C47.6066 111.425 47.4038 111.267 47.169 111.177C46.9535 111.09 46.7165 111.074 46.491 111.129C46.278 111.177 46.077 111.201 45.864 111.252C46.0702 111.307 46.2796 111.349 46.491 111.378C46.6721 111.388 46.8486 111.439 47.007 111.528C47.1453 111.612 47.2601 111.73 47.3408 111.871C47.4215 112.011 47.4656 112.17 47.469 112.332C47.4695 112.583 47.5433 112.828 47.6814 113.037C47.8194 113.247 48.0157 113.411 48.246 113.511C48.4615 113.596 48.697 113.617 48.924 113.571C49.1354 113.543 49.3448 113.502 49.551 113.448C49.338 113.4 49.137 113.37 48.924 113.322ZM65.982 124.008C65.8017 123.992 65.6283 123.932 65.478 123.831C65.3385 123.743 65.2245 123.62 65.1476 123.474C65.0707 123.328 65.0336 123.164 65.04 123C65.0336 122.749 64.9529 122.505 64.8082 122.3C64.6635 122.095 64.4613 121.938 64.227 121.848C64.0034 121.774 63.7645 121.761 63.534 121.809C63.333 121.848 63.135 121.872 62.934 121.92C63.1314 121.974 63.3317 122.017 63.534 122.049C63.7202 122.061 63.901 122.116 64.062 122.211C64.202 122.293 64.3182 122.411 64.3992 122.552C64.4802 122.693 64.5232 122.852 64.524 123.015C64.5232 123.263 64.5957 123.506 64.7323 123.713C64.8689 123.92 65.0636 124.082 65.292 124.179C65.5096 124.271 65.7496 124.297 65.982 124.254C66.195 124.203 66.396 124.179 66.597 124.131C66.3954 124.074 66.1898 124.033 65.982 124.008ZM63.45 111.075C63.3078 111.192 63.1451 111.283 62.97 111.342C62.8116 111.38 62.6463 111.377 62.4891 111.335C62.3319 111.292 62.1878 111.211 62.07 111.099C61.8949 110.922 61.672 110.802 61.4288 110.751C61.1856 110.7 60.9329 110.722 60.702 110.814C60.4818 110.9 60.2941 111.053 60.165 111.252C60.051 111.426 59.925 111.591 59.814 111.78C60.003 111.663 60.165 111.543 60.342 111.426C60.4804 111.312 60.6423 111.231 60.816 111.189C60.9772 111.158 61.1434 111.167 61.3002 111.215C61.4571 111.263 61.5998 111.349 61.716 111.465C61.8979 111.637 62.1269 111.753 62.3741 111.795C62.6214 111.838 62.8757 111.806 63.105 111.705C63.3135 111.601 63.4914 111.445 63.621 111.252C63.732 111.075 63.858 110.916 63.957 110.727C63.786 110.838 63.624 110.964 63.45 111.075ZM46.017 83.4237C45.975 83.2047 45.951 83.0037 45.903 82.8057C45.8475 83.0087 45.8054 83.2151 45.777 83.4237C45.7601 83.6033 45.7048 83.7772 45.615 83.9337C45.5339 84.0754 45.4169 84.1933 45.2757 84.2754C45.1346 84.3576 44.9743 84.4011 44.811 84.4017C44.5617 84.4022 44.318 84.4762 44.1105 84.6144C43.9029 84.7526 43.7407 84.9488 43.644 85.1787C43.5534 85.3957 43.5273 85.6342 43.569 85.8657C43.62 86.0667 43.644 86.2677 43.698 86.4657C43.758 86.2527 43.782 86.0517 43.821 85.8657C43.8348 85.6827 43.8946 85.5062 43.995 85.3527C44.0847 85.2146 44.208 85.1017 44.3534 85.0246C44.4988 84.9474 44.6614 84.9085 44.826 84.9117C45.0108 84.9128 45.1935 84.8721 45.3604 84.7925C45.5272 84.713 45.6739 84.5966 45.7893 84.4523C45.9048 84.308 45.9861 84.1394 46.0271 83.9591C46.0681 83.7789 46.0677 83.5917 46.026 83.4117L46.017 83.4237ZM37.647 115.878C37.618 115.675 37.5769 115.475 37.524 115.278C37.476 115.479 37.446 115.68 37.398 115.878C37.3853 116.059 37.3331 116.235 37.245 116.394C37.1638 116.534 37.0471 116.651 36.9065 116.733C36.766 116.815 36.6065 116.858 36.444 116.859C36.2605 116.853 36.0781 116.889 35.9103 116.963C35.7425 117.038 35.5935 117.149 35.4743 117.289C35.3551 117.428 35.2688 117.593 35.2217 117.77C35.1745 117.948 35.1678 118.133 35.202 118.314C35.241 118.527 35.265 118.728 35.325 118.941C35.3809 118.735 35.424 118.525 35.454 118.314C35.4689 118.134 35.5287 117.96 35.628 117.81C35.7158 117.671 35.8385 117.557 35.9837 117.48C36.129 117.404 36.2918 117.366 36.456 117.372C36.7068 117.364 36.9498 117.282 37.155 117.138C37.3602 116.993 37.5187 116.792 37.611 116.559C37.6865 116.34 37.699 116.104 37.647 115.878ZM53.922 100.665C53.874 100.467 53.85 100.266 53.796 100.065C53.744 100.262 53.7029 100.463 53.673 100.665C53.6592 100.851 53.6028 101.032 53.508 101.193C53.4267 101.334 53.31 101.451 53.1696 101.533C53.0291 101.615 52.8697 101.659 52.707 101.661C52.457 101.658 52.2119 101.731 52.0037 101.869C51.7956 102.008 51.634 102.206 51.54 102.438C51.4437 102.649 51.4225 102.887 51.48 103.113C51.516 103.326 51.54 103.527 51.591 103.728C51.6457 103.525 51.6878 103.32 51.717 103.113C51.7388 102.93 51.8014 102.755 51.9 102.6C51.9878 102.461 52.1105 102.347 52.2557 102.27C52.401 102.194 52.5638 102.156 52.728 102.162C52.9793 102.155 53.2232 102.075 53.4287 101.93C53.6343 101.786 53.7924 101.583 53.883 101.349C53.9474 101.127 53.9608 100.893 53.922 100.665ZM29.646 137.226C29.598 137.013 29.571 136.812 29.52 136.611C29.4649 136.813 29.4238 137.018 29.397 137.226C29.3857 137.409 29.329 137.586 29.232 137.742C29.1528 137.884 29.0364 138.002 28.8954 138.083C28.7543 138.165 28.5938 138.206 28.431 138.204C28.1819 138.205 27.9388 138.28 27.7315 138.418C27.5241 138.556 27.3617 138.752 27.264 138.981C27.1916 139.149 27.1627 139.332 27.18 139.515H27.48C27.5043 139.388 27.5522 139.267 27.621 139.158C27.7084 139.018 27.8309 138.905 27.9763 138.828C28.1216 138.751 28.2847 138.714 28.449 138.72C28.7012 138.715 28.9462 138.635 29.1521 138.49C29.3581 138.344 29.5156 138.14 29.604 137.904C29.6766 137.685 29.6911 137.451 29.646 137.226ZM54.6 88.9767C54.4614 89.0931 54.2968 89.1744 54.12 89.2137C53.9591 89.2532 53.7904 89.2484 53.6319 89.1998C53.4735 89.1512 53.3311 89.0606 53.22 88.9377C53.0371 88.7654 52.8075 88.651 52.5598 88.6089C52.3122 88.5667 52.0576 88.5986 51.828 88.7007C51.6174 88.7996 51.4387 88.9555 51.312 89.1507C51.198 89.3277 51.063 89.4927 50.961 89.6787C51.15 89.5647 51.312 89.4417 51.489 89.3277C51.6226 89.2048 51.786 89.1189 51.963 89.0787C52.1197 89.0353 52.2849 89.0333 52.4426 89.0727C52.6003 89.1121 52.7452 89.1917 52.863 89.3037C52.9899 89.4358 53.1446 89.5381 53.3158 89.6031C53.4871 89.6681 53.6707 89.6942 53.8533 89.6796C54.0359 89.6649 54.213 89.6099 54.3717 89.5184C54.5304 89.4269 54.6668 89.3013 54.771 89.1507C54.885 88.9767 55.008 88.8117 55.11 88.6227C54.945 88.7397 54.78 88.8657 54.6 88.9767ZM38.535 104.946C38.4012 105.066 38.2375 105.148 38.061 105.183C37.9003 105.221 37.7322 105.216 37.574 105.168C37.4158 105.12 37.2732 105.031 37.161 104.91C36.9785 104.737 36.749 104.622 36.5013 104.579C36.2536 104.537 35.9989 104.568 35.769 104.67C35.5577 104.768 35.3794 104.925 35.256 105.123C35.145 105.297 35.004 105.462 34.902 105.651C35.091 105.534 35.256 105.408 35.43 105.297C35.565 105.172 35.7307 105.086 35.91 105.048C36.0666 105.003 36.2321 105.001 36.39 105.04C36.5478 105.08 36.6926 105.16 36.81 105.273C36.9816 105.454 37.2039 105.58 37.4478 105.633C37.6918 105.687 37.9462 105.666 38.178 105.573C38.395 105.479 38.5818 105.328 38.718 105.135C38.832 104.958 38.955 104.793 39.057 104.607C38.88 104.7 38.718 104.832 38.541 104.946H38.535ZM26.7 126.228C26.5653 126.35 26.399 126.432 26.22 126.465C26.06 126.502 25.8929 126.498 25.7352 126.451C25.5775 126.405 25.4344 126.319 25.32 126.201C25.1416 126.025 24.9146 125.908 24.6684 125.863C24.4223 125.819 24.1684 125.85 23.94 125.952C23.7337 126.056 23.5572 126.211 23.427 126.402C23.3057 126.57 23.1964 126.746 23.1 126.93C23.285 126.826 23.4615 126.707 23.628 126.576C23.7624 126.454 23.9255 126.368 24.102 126.327C24.2598 126.286 24.4253 126.287 24.5828 126.328C24.7403 126.37 24.8846 126.451 25.002 126.564C25.1769 126.744 25.4012 126.869 25.6467 126.922C25.8922 126.976 26.148 126.955 26.382 126.864C26.5939 126.767 26.7762 126.616 26.91 126.426C27.018 126.249 27.159 126.087 27.261 125.898C27.051 126 26.889 126.114 26.7 126.228ZM53.4 123.957C53.2578 124.075 53.0889 124.156 52.908 124.194C52.7472 124.228 52.5801 124.221 52.4227 124.174C52.2652 124.126 52.1225 124.039 52.008 123.921C51.8283 123.742 51.598 123.623 51.3484 123.581C51.0988 123.538 50.842 123.573 50.613 123.681C50.4042 123.782 50.2269 123.939 50.1 124.134C49.986 124.296 49.863 124.458 49.749 124.644C49.9328 124.54 50.1092 124.424 50.277 124.296C50.4207 124.187 50.5807 124.102 50.751 124.044C50.9092 124.006 51.0743 124.008 51.2314 124.05C51.3886 124.092 51.5328 124.172 51.651 124.284C51.824 124.462 52.0456 124.586 52.2884 124.639C52.5311 124.692 52.7842 124.673 53.016 124.584C53.233 124.49 53.42 124.339 53.556 124.146C53.667 123.969 53.793 123.807 53.892 123.618C53.7224 123.722 53.5582 123.836 53.4 123.957ZM43.047 139.257C42.9052 139.373 42.7375 139.455 42.558 139.494C42.3972 139.528 42.2301 139.521 42.0727 139.474C41.9152 139.426 41.7725 139.339 41.658 139.221C41.4786 139.042 41.2485 138.922 40.9989 138.879C40.7493 138.835 40.4923 138.87 40.263 138.978C40.054 139.081 39.8767 139.238 39.75 139.434L39.687 139.521H40.038C40.1488 139.443 40.2713 139.383 40.401 139.344C40.544 139.31 40.6927 139.308 40.8365 139.338C40.9802 139.369 41.1153 139.431 41.232 139.521H43.143C43.17 139.491 43.191 139.461 43.212 139.434C43.323 139.257 43.449 139.092 43.548 138.906C43.374 139.002 43.215 139.125 43.038 139.251L43.047 139.257ZM68.4 133.137C68.2617 133.25 68.0997 133.331 67.926 133.374C67.7651 133.406 67.5988 133.398 67.4418 133.35C67.2848 133.302 67.1419 133.217 67.026 133.101C66.8465 132.928 66.6194 132.813 66.3739 132.771C66.1284 132.729 65.8759 132.761 65.649 132.864C65.4344 132.956 65.2541 133.114 65.133 133.314C65.0054 133.482 64.8882 133.659 64.782 133.842C64.968 133.725 65.133 133.605 65.31 133.488C65.446 133.364 65.6096 133.275 65.787 133.227C65.9447 133.184 66.1107 133.184 66.2686 133.225C66.4264 133.267 66.5707 133.349 66.687 133.464C66.8628 133.643 67.087 133.767 67.3322 133.82C67.5774 133.873 67.8328 133.854 68.067 133.764C68.2806 133.67 68.4636 133.518 68.595 133.326C68.709 133.149 68.844 132.984 68.946 132.798C68.727 132.9 68.565 133.026 68.4 133.137Z" fill="#7D7DDE"/>
<path d="M92.817 137.919L92.832 135.366L70.698 135.993L67.512 137.919H92.817Z" fill="#EBEBEB"/>
<path d="M92.817 137.919L92.832 135.366C92.832 135.366 100.713 135.504 102.105 135.366C103.497 135.228 110.625 134.568 111.78 134.628C112.935 134.688 115.182 136.05 115.182 136.05V137.919H92.817Z" fill="#DBDBDB"/>
<path d="M131.94 137.919L131.457 136.845C131.457 136.845 127.8 136.47 127.29 136.401C126.78 136.332 119.505 134.97 118.485 135.156C117.465 135.342 115.185 136.056 115.185 136.056V137.925L131.94 137.919Z" fill="#DBDBDB"/>
<path d="M132.471 137.919H66.3V139.527H132.471V137.919Z" fill="#37474F"/>
<path d="M92.145 137.919H66.3V139.527H92.145V137.919Z" fill="#455A64"/>
<path d="M40.953 82.4397C27.693 97.4787 10.872 125.493 13.779 131.04C17.463 138.069 42.936 136.767 48.879 135.384C51.414 134.784 46.089 113.22 43.332 113.583C40.287 113.982 37.791 114.441 37.791 114.441C37.707 114.102 42.423 103.269 46.74 88.1877C49.683 77.9067 43.764 79.2507 40.953 82.4397Z" fill="#FFC4C0"/>
<path d="M22.089 121.614C22.959 120.225 26.913 117.462 29.658 116.277C31.497 115.482 34.926 114.321 37.524 114.345C37.677 114.345 37.824 114.51 37.686 114.531C34.994 115.008 32.3658 115.793 29.853 116.871C28.5 117.45 23.382 120.645 22.152 121.692C22.122 121.716 22.068 121.644 22.089 121.614Z" fill="#263238"/>
<path d="M25.296 100.989L41.1 107.004C41.1 107.004 45.243 96.051 47.364 86.604C49.485 77.157 44.583 78.189 38.727 84.186C32.871 90.183 25.296 100.989 25.296 100.989Z" fill="#7D7DDE"/>
<path opacity="0.3" d="M25.296 100.989L41.1 107.004C41.1 107.004 45.243 96.051 47.364 86.604C49.485 77.157 44.583 78.189 38.727 84.186C32.871 90.183 25.296 100.989 25.296 100.989Z" fill="black"/>
<path d="M43.8 97.0737C43.6216 97.0537 43.4503 96.9931 43.299 96.8967C43.159 96.8093 43.0447 96.6863 42.9678 96.5403C42.8908 96.3943 42.854 96.2305 42.861 96.0657C42.8627 95.8807 42.8223 95.6977 42.7429 95.5305C42.6636 95.3634 42.5473 95.2165 42.4028 95.1009C42.2583 94.9853 42.0894 94.9041 41.909 94.8633C41.7285 94.8226 41.5411 94.8234 41.361 94.8657C41.1498 94.8971 40.9404 94.9402 40.734 94.9947C40.947 95.0427 41.148 95.0667 41.361 95.1087C41.5424 95.1238 41.7185 95.178 41.877 95.2677C42.0153 95.3529 42.13 95.4714 42.2107 95.6123C42.2914 95.7533 42.3355 95.9123 42.339 96.0747C42.3395 96.324 42.4135 96.5677 42.5517 96.7752C42.6899 96.9828 42.8861 97.145 43.116 97.2417C43.3305 97.3297 43.5657 97.3547 43.794 97.3137C44.007 97.2657 44.208 97.2417 44.409 97.1877C44.2088 97.1359 44.0053 97.0978 43.8 97.0737ZM46.026 83.4237C45.984 83.2047 45.96 83.0037 45.912 82.8057C45.8565 83.0087 45.8144 83.2151 45.786 83.4237C45.769 83.6033 45.7138 83.7772 45.624 83.9337C45.5428 84.0754 45.4258 84.1933 45.2847 84.2754C45.1436 84.3576 44.9833 84.4011 44.82 84.4017C44.5706 84.4022 44.327 84.4762 44.1194 84.6144C43.9119 84.7526 43.7496 84.9488 43.653 85.1787C43.5623 85.3957 43.5363 85.6342 43.578 85.8657C43.629 86.0667 43.653 86.2677 43.707 86.4657C43.767 86.2527 43.791 86.0517 43.83 85.8657C43.8437 85.6827 43.9036 85.5062 44.004 85.3527C44.0936 85.2146 44.217 85.1017 44.3624 85.0246C44.5077 84.9474 44.6704 84.9085 44.835 84.9117C45.0198 84.9128 45.2025 84.8721 45.3693 84.7925C45.5362 84.713 45.6828 84.5966 45.7983 84.4523C45.9137 84.308 45.995 84.1394 46.036 83.9591C46.077 83.7789 46.0766 83.5917 46.035 83.4117L46.026 83.4237ZM31.146 96.1197C31.098 95.9187 31.074 95.7177 31.02 95.5197C30.9691 95.7175 30.928 95.9178 30.897 96.1197C30.8817 96.3053 30.8264 96.4854 30.735 96.6477C30.6525 96.788 30.5352 96.9047 30.3943 96.9861C30.2534 97.0676 30.0937 97.1112 29.931 97.1127C29.681 97.1104 29.4361 97.1833 29.228 97.3218C29.02 97.4603 28.8583 97.6582 28.764 97.8897C28.6679 98.1013 28.6467 98.3394 28.704 98.5647C28.74 98.7777 28.764 98.9787 28.815 99.1797C28.8696 98.9775 28.9117 98.7721 28.941 98.5647C28.9624 98.3867 29.0228 98.2156 29.118 98.0637C29.2044 97.9242 29.3263 97.8101 29.4713 97.7332C29.6162 97.6562 29.779 97.6191 29.943 97.6257C30.1945 97.6188 30.4384 97.5377 30.644 97.3925C30.8495 97.2473 31.0075 97.0445 31.098 96.8097C31.1652 96.586 31.1785 96.3495 31.137 96.1197H31.146ZM38.55 104.946C38.4162 105.066 38.2524 105.148 38.076 105.183C37.9152 105.221 37.7471 105.216 37.5889 105.168C37.4307 105.12 37.2882 105.031 37.176 104.91C36.9934 104.737 36.7639 104.622 36.5162 104.579C36.2686 104.537 36.0138 104.568 35.784 104.67C35.6711 104.714 35.5689 104.781 35.484 104.868L35.946 105.045C36.0988 105.005 36.2594 105.005 36.4123 105.044C36.5652 105.084 36.7052 105.163 36.819 105.273C36.8949 105.354 36.983 105.423 37.08 105.477C37.2058 105.552 37.3439 105.605 37.488 105.633C37.7219 105.68 37.9647 105.655 38.184 105.561C38.4009 105.467 38.5878 105.316 38.724 105.123C38.838 104.946 38.961 104.781 39.063 104.595C38.88 104.7 38.718 104.832 38.541 104.946H38.55ZM36.474 88.4277C36.3395 88.5486 36.1746 88.6306 35.997 88.6647C35.8362 88.7036 35.668 88.6988 35.5098 88.6508C35.3515 88.6028 35.209 88.5133 35.097 88.3917C35.0694 88.3651 35.0403 88.3401 35.01 88.3167L34.689 88.7007L34.746 88.7547C34.9162 88.9373 35.1379 89.0638 35.3817 89.1174C35.6255 89.1709 35.8799 89.1491 36.111 89.0547C36.3284 88.9621 36.5155 88.8103 36.651 88.6167C36.768 88.4397 36.888 88.2777 36.993 88.0887C36.804 88.1997 36.639 88.3137 36.465 88.4277H36.474Z" fill="#7D7DDE"/>
<path d="M45.987 94.7698C46.002 94.7308 45.945 94.7008 45.927 94.7398C45.651 95.2528 45.381 95.7688 45.108 96.2848C45.392 95.2368 45.655 94.1828 45.897 93.1228C45.897 93.0898 45.849 93.0688 45.84 93.1048C45.04 95.3848 44.255 97.6708 43.485 99.9628C42.72 102.261 41.847 104.523 41.109 106.827C40.653 106.734 40.41 106.662 40.068 106.602C39.99 106.602 39.939 106.677 40.014 106.713C40.44 106.932 41.283 107.262 41.31 107.205C42.312 105.003 43.11 102.534 43.902 100.245C44.286 99.1168 44.634 97.9828 44.955 96.8398C45.3372 96.1694 45.6817 95.4784 45.987 94.7698Z" fill="#263238"/>
<path d="M41.238 103.953C36.918 102.052 32.5021 100.376 28.008 98.9338C27.942 98.9128 27.906 99.0208 27.969 99.0478C32.2867 100.954 36.7007 102.634 41.193 104.082C41.265 104.1 41.307 103.983 41.238 103.953Z" fill="#263238"/>
<path d="M50.784 77.5016C46.74 77.8496 45.747 81.4526 47.484 85.7096C49.221 89.9666 52.455 93.9866 55.602 93.9986C58.749 94.0106 60.9 88.4996 60.936 85.3796C60.972 82.2596 55.899 77.0636 50.784 77.5016Z" fill="#7D7DDE"/>
<path d="M55.344 91.7157C52.221 91.3677 48.846 85.2027 48.168 80.9367C48.123 80.6367 52.629 71.2227 53.328 69.2637L64.554 76.6347C64.554 76.6347 61.881 80.3127 60.681 83.7357C60.6 84.0237 58.365 92.0487 55.344 91.7157Z" fill="#FFC4C0"/>
<path d="M64.557 76.6347C64.557 76.6347 61.881 80.3127 60.681 83.7357C60.66 83.8017 60.531 84.2577 60.309 84.9177C59.211 84.6027 52.698 82.1517 51.324 73.8507C52.224 71.8497 53.061 70.0077 53.328 69.2607L64.557 76.6347Z" fill="#263238"/>
<path d="M69.969 53.6068C70.701 53.7058 73.569 58.3288 73.287 60.8908C73.005 63.4528 71.469 68.3728 70.707 68.3728C69.945 68.3728 69.402 53.5288 69.969 53.6068Z" fill="#263238"/>
<path d="M51.501 54.5998C49.242 58.8778 49.125 72.4648 51.801 76.0138C55.671 81.1558 63.267 83.0338 67.953 78.0928C72.495 73.2928 72.336 55.5928 69.237 52.2388C64.665 47.3128 54.837 48.2998 51.501 54.5998Z" fill="#FFC4C0"/>
<path d="M62.571 65.9636C62.571 65.9276 62.499 66.0026 62.496 66.0416C62.472 66.9566 62.289 68.0006 61.446 68.2556C61.419 68.2556 61.419 68.3096 61.446 68.3066C62.466 68.2226 62.7 66.8336 62.571 65.9636Z" fill="#263238"/>
<path d="M61.8 64.9617C60.336 64.7637 60.048 67.7037 61.404 67.8867C62.76 68.0697 63.039 65.1267 61.8 64.9617Z" fill="#263238"/>
<path d="M67.758 66.3628C67.758 66.3268 67.827 66.4108 67.821 66.4498C67.704 67.3498 67.719 68.4178 68.514 68.8018C68.538 68.8018 68.532 68.8588 68.514 68.8498C67.5 68.6098 67.5 67.1998 67.758 66.3628Z" fill="#263238"/>
<path d="M68.667 65.4899C70.143 65.5229 69.969 68.4719 68.601 68.4419C67.233 68.4119 67.428 65.4629 68.667 65.4899Z" fill="#263238"/>
<path d="M60.783 63.5039C61.1811 63.4252 61.5747 63.3251 61.962 63.2039C62.415 63.0899 62.784 63.0419 63.108 62.6819C63.1886 62.5693 63.2297 62.4332 63.2248 62.2948C63.2199 62.1565 63.1693 62.0236 63.081 61.9169C62.679 61.4849 62.091 61.4879 61.545 61.6169C60.9874 61.7148 60.4866 62.0176 60.141 62.4659C59.772 62.9249 60.243 63.5999 60.783 63.5039Z" fill="#263238"/>
<path d="M69.948 64.122C69.549 64.014 69.195 63.849 68.811 63.705C68.376 63.537 68.01 63.453 67.731 63.057C67.6626 62.9366 67.6364 62.7969 67.6565 62.6599C67.6766 62.5229 67.7419 62.3966 67.842 62.301C68.289 61.914 68.871 61.983 69.405 62.163C69.9477 62.3234 70.411 62.6808 70.704 63.165C71.019 63.66 70.479 64.263 69.948 64.122Z" fill="#263238"/>
<path d="M60.939 74.0999C61.137 74.3339 61.326 74.6489 61.653 74.6999C61.9925 74.7267 62.3339 74.6817 62.655 74.5679C62.6616 74.5659 62.6686 74.5661 62.6751 74.5684C62.6816 74.5707 62.6872 74.5749 62.6912 74.5805C62.6951 74.5861 62.6973 74.5928 62.6972 74.5997C62.6972 74.6066 62.695 74.6133 62.691 74.6189C62.5431 74.7835 62.3538 74.9055 62.1427 74.972C61.9316 75.0385 61.7065 75.0471 61.491 74.9969C61.31 74.9304 61.153 74.8116 61.0397 74.6556C60.9265 74.4996 60.8622 74.3135 60.855 74.1209C60.84 74.0999 60.9 74.0759 60.939 74.0999Z" fill="#263238"/>
<path d="M62.166 71.478C62.3618 71.8612 62.6349 72.1997 62.9679 72.4723C63.3009 72.7449 63.6867 72.9457 64.101 73.062C64.4615 73.1679 64.8353 73.2214 65.211 73.221C65.2828 73.2285 65.3552 73.2285 65.427 73.221C65.4939 73.2252 65.5611 73.2252 65.628 73.221C65.6774 73.2172 65.7242 73.1972 65.7611 73.1641C65.798 73.1311 65.8229 73.0867 65.832 73.038C65.8365 73.0072 65.8365 72.9758 65.832 72.945V72.864C65.919 72.165 65.955 71.091 65.955 71.091C66.198 71.244 67.455 71.961 67.455 71.592C67.572 68.541 67.701 65.148 67.176 62.088C67.1722 62.0681 67.1616 62.0501 67.146 62.0371C67.1304 62.0242 67.1108 62.0171 67.0905 62.0171C67.0702 62.0171 67.0506 62.0242 67.035 62.0371C67.0193 62.0501 67.0087 62.0681 67.005 62.088C66.777 65.016 67.065 67.965 66.882 70.908C66.48 70.71 65.829 70.35 65.463 70.308C65.358 70.329 65.427 72.384 65.364 72.708C65.3647 72.719 65.3647 72.73 65.364 72.741C64.164 72.774 63.318 72.333 62.253 71.427C62.196 71.346 62.118 71.4 62.166 71.478Z" fill="#263238"/>
<path d="M64.833 72.8248C64.3987 73.2887 63.8521 73.6328 63.246 73.8238C62.9134 73.9166 62.5602 73.904 62.235 73.7878C61.527 73.5238 61.572 72.8548 61.764 72.2878C61.867 71.9915 62.005 71.7085 62.175 71.4448C62.8912 72.1765 63.8225 72.6601 64.833 72.8248Z" fill="#263238"/>
<path d="M63.246 73.8236C62.9134 73.9163 62.5602 73.9038 62.235 73.7876C61.527 73.5236 61.572 72.8546 61.764 72.2876C62.535 72.4526 63.255 73.0586 63.246 73.8236Z" fill="#FF99BA"/>
<path d="M51.204 65.8946C53.469 66.5336 55.089 64.1876 56.559 60.7496C57.417 58.7426 57.651 54.4496 57.651 54.4496C57.651 54.4496 63.018 58.3256 66.417 58.6646C69.816 59.0036 73.209 56.6666 73.554 54.0176C73.854 51.7436 70.611 48.1046 65.664 46.9466C62.214 46.1396 55.809 47.8196 52.509 51.0686C52.509 51.0686 47.733 52.3316 47.76 55.7606C47.787 59.1896 48.63 65.1656 51.204 65.8946Z" fill="#263238"/>
<path d="M51.417 65.6637C54.33 66.8817 56.799 62.6127 57.327 60.2457C57.873 57.7857 57.399 55.1037 57.423 52.6077C57.423 52.6077 57.444 52.5927 57.447 52.6077C57.918 55.7307 58.326 59.6487 56.748 62.5257C55.755 64.3257 53.748 67.2567 51.348 65.8257C51.267 65.7717 51.324 65.6247 51.417 65.6637Z" fill="#263238"/>
<path d="M47.283 54.6476C48.099 52.6916 50.799 51.1226 52.836 51.0146C52.854 51.0146 52.86 51.0446 52.836 51.0476C50.346 51.4556 47.136 53.6336 47.367 56.3816C47.55 58.5776 48.036 61.5176 49.143 63.4436C49.173 63.4916 49.098 63.5306 49.068 63.4856C48.168 62.1566 47.946 60.6026 47.631 59.0486C47.364 57.6986 46.722 56.0036 47.283 54.6476Z" fill="#263238"/>
<path d="M52.008 51.2998C55.497 47.8768 62.274 44.5258 67.107 46.6918C67.122 46.6918 67.107 46.7218 67.107 46.7158C61.89 44.8798 56.175 48.5308 52.167 51.4978C52.038 51.5998 51.9 51.3988 52.008 51.2998Z" fill="#263238"/>
<path d="M59.862 70.9047C59.0694 70.7307 58.3415 70.3378 57.7612 69.7705C57.1809 69.2033 56.7715 68.4846 56.5794 67.6962C56.3874 66.9078 56.4206 66.0813 56.6751 65.3108C56.9296 64.5403 57.3953 63.8567 58.0191 63.3377C58.643 62.8188 59.4 62.4854 60.2039 62.3754C61.0079 62.2655 61.8266 62.3834 62.5669 62.7158C63.3072 63.0481 63.9393 63.5816 64.3914 64.2555C64.8434 64.9294 65.0973 65.7166 65.124 66.5277C65.1604 67.6781 64.7384 68.7959 63.9507 69.6353C63.1631 70.4746 62.0744 70.9668 60.924 71.0037C60.5672 71.0155 60.2104 70.9822 59.862 70.9047ZM61.596 62.9997C61.2918 62.9322 60.9803 62.9039 60.669 62.9157C59.7153 62.9482 58.8099 63.343 58.1372 64.0197C57.4645 64.6964 57.075 65.6041 57.0482 66.5579C57.0213 67.5117 57.3591 68.4399 57.9926 69.1534C58.6262 69.8669 59.5079 70.3121 60.4583 70.3982C61.4086 70.4843 62.356 70.2049 63.1075 69.6169C63.859 69.0289 64.3581 68.1766 64.5031 67.2334C64.6481 66.2903 64.4282 65.3274 63.8881 64.5408C63.3479 63.7542 62.5283 63.203 61.596 62.9997Z" fill="#455A64"/>
<path d="M69.399 71.7597C67.779 71.4027 66.672 69.4197 66.897 67.1697C66.9827 66.0935 67.4022 65.0709 68.097 64.2447C68.3757 63.8727 68.7457 63.5789 69.1713 63.3919C69.5968 63.2048 70.0634 63.1308 70.526 63.1769C70.9885 63.2231 71.4313 63.3879 71.8114 63.6554C72.1916 63.9228 72.4963 64.2839 72.696 64.7037C73.2139 65.6511 73.4237 66.7365 73.296 67.8087C73.059 70.1877 71.424 71.9787 69.654 71.8017C69.6 71.7927 69.489 71.7777 69.399 71.7597ZM70.698 63.7887L70.482 63.7527C70.1117 63.7329 69.742 63.8024 69.4042 63.9554C69.0664 64.1083 68.7704 64.3403 68.541 64.6317C67.9232 65.3642 67.5497 66.2715 67.473 67.2267C67.269 69.2877 68.277 71.0817 69.735 71.2257C71.193 71.3697 72.537 69.8127 72.735 67.7517C72.8471 66.7992 72.6593 65.8355 72.198 64.9947C72.0447 64.701 71.8323 64.4423 71.5742 64.2347C71.316 64.0272 71.0177 63.8753 70.698 63.7887Z" fill="#455A64"/>
<path d="M64.971 67.0169L64.698 66.6119C65.298 66.2039 66.633 65.7119 67.425 66.7469L67.038 67.0469C66.327 66.1109 65.028 66.9779 64.971 67.0169Z" fill="#455A64"/>
<path d="M47.328 66.2099L46.92 65.9429C47.043 65.7539 48.165 64.0769 49.266 64.0079C50.298 63.9479 56.766 65.2079 57.027 65.2619L56.934 65.7389C55.083 65.3759 50.094 64.4459 49.296 64.4969C48.57 64.5389 47.628 65.7479 47.328 66.2099Z" fill="#455A64"/>
<path d="M52.254 65.8498C52.254 65.8498 50.004 61.0768 47.889 61.8088C45.774 62.5408 46.956 69.1018 49.089 70.3348C49.3505 70.5107 49.6448 70.632 49.9543 70.6915C50.2638 70.751 50.5821 70.7475 50.8902 70.6811C51.1983 70.6147 51.4899 70.4869 51.7474 70.3052C52.0049 70.1235 52.2231 69.8918 52.389 69.6238L52.254 65.8498Z" fill="#FFC4C0"/>
<path d="M48.276 63.6807C48.2686 63.6794 48.2609 63.6806 48.2542 63.6843C48.2476 63.688 48.2424 63.6939 48.2396 63.7009C48.2368 63.708 48.2365 63.7158 48.2388 63.723C48.241 63.7302 48.2457 63.7365 48.252 63.7407C49.734 64.6557 50.319 66.2757 50.652 67.9077C50.28 67.2357 49.692 66.8037 48.807 67.2327C48.759 67.2537 48.789 67.3257 48.834 67.3257C49.1291 67.2836 49.43 67.3343 49.695 67.4709C49.96 67.6074 50.176 67.823 50.313 68.0877C50.5398 68.5312 50.7178 68.9979 50.844 69.4797C50.895 69.6357 51.165 69.6027 51.144 69.4287C51.144 69.4287 51.144 69.4017 51.144 69.3897C51.51 67.3677 50.418 64.2567 48.276 63.6807Z" fill="#263238"/>
<g opacity="0.5">
<path d="M63.3 91.2479C63.9898 92.404 64.3436 93.7294 64.3219 95.0754C64.3002 96.4214 63.9037 97.7347 63.177 98.8679C63.4281 99.7226 63.7286 100.562 64.077 101.382L59.664 104.382C59.0297 103.758 58.3596 103.172 57.657 102.627C56.3363 102.883 54.9703 102.766 53.7124 102.289C52.4544 101.812 51.3542 100.994 50.535 99.9269C48.435 97.3199 47.646 91.9169 52.263 88.7819L52.311 88.7489C56.931 85.5989 61.656 88.3439 63.3 91.2479Z" fill="#7D7DDE"/>
</g>
<g opacity="0.7">
<path d="M62.772 91.6377C63.4033 92.6947 63.7274 93.9069 63.7077 95.138C63.6881 96.369 63.3257 97.5703 62.661 98.6067C62.814 99.3087 63.885 101.511 63.885 101.511L59.85 104.247C59.85 104.247 58.2 102.447 57.603 102.036C56.3946 102.27 55.145 102.162 53.9944 101.725C52.8439 101.287 51.8381 100.538 51.09 99.5607C49.179 97.1757 48.447 92.2317 52.671 89.3607L52.716 89.3307C56.943 86.4717 61.266 88.9797 62.772 91.6377Z" fill="#7D7DDE"/>
</g>
<path d="M55.153 97.7956L54.9313 98.0151L60.939 104.082L61.1607 103.862L55.153 97.7956Z" fill="white"/>
<path d="M59.9238 94.6358L59.6379 94.7607L63.0561 102.585L63.342 102.46L59.9238 94.6358Z" fill="white"/>
<path d="M58.968 98.604C58.623 98.838 58.086 98.793 57.468 98.478C57.4451 98.4688 57.4231 98.4578 57.402 98.445C57.3984 98.5356 57.3758 98.6244 57.3354 98.7056C57.2951 98.7868 57.238 98.8585 57.168 98.916C56.526 99.351 55.368 98.19 55.308 98.142L55.383 98.067C55.383 98.067 56.538 99.219 57.111 98.829C57.1707 98.7747 57.2183 98.7084 57.2508 98.6345C57.2834 98.5606 57.3001 98.4808 57.3 98.4C56.8443 98.1499 56.4475 97.8052 56.136 97.389C55.884 97.02 55.878 96.714 56.118 96.549C56.1873 96.4989 56.2691 96.469 56.3544 96.4627C56.4397 96.4563 56.525 96.4737 56.601 96.513C57.024 96.717 57.357 97.515 57.402 98.133C57.402 98.208 57.402 98.277 57.402 98.343C57.954 98.643 58.548 98.775 58.902 98.526C59.178 98.34 59.307 97.926 59.268 97.392C59.268 97.344 59.268 97.293 59.253 97.242C58.758 97.0957 58.332 96.7763 58.053 96.342C57.729 95.865 57.708 95.442 57.993 95.253C58.0479 95.216 58.1121 95.1949 58.1784 95.1923C58.2446 95.1896 58.3103 95.2055 58.368 95.238C58.788 95.439 59.223 96.315 59.343 97.152C59.5448 97.19 59.7535 97.148 59.925 97.035C60.417 96.702 59.895 95.133 59.889 95.115L59.988 95.082C60.009 95.151 60.54 96.744 59.988 97.122C59.8036 97.2447 59.5795 97.2929 59.361 97.257C59.361 97.299 59.361 97.338 59.361 97.377C59.391 97.791 59.343 98.34 58.947 98.607L58.968 98.604ZM58.068 95.34C57.792 95.529 57.942 95.967 58.158 96.282C58.4197 96.6758 58.8033 96.973 59.25 97.128C59.127 96.342 58.719 95.514 58.35 95.328C58.307 95.3006 58.2566 95.287 58.2056 95.2892C58.1546 95.2913 58.1055 95.3091 58.065 95.34H58.068ZM56.169 96.627C55.917 96.801 56.088 97.137 56.214 97.32C56.5048 97.7106 56.8736 98.0365 57.297 98.277C57.297 98.229 57.297 98.181 57.297 98.133C57.255 97.557 56.94 96.783 56.553 96.597C56.4924 96.5645 56.4237 96.5501 56.3551 96.5554C56.2865 96.5607 56.2209 96.5856 56.166 96.627H56.169Z" fill="white"/>
<g opacity="0.5">
<path d="M51.3 98.0398C51.525 97.9348 51.078 96.7138 51.384 94.7398C51.519 93.8638 52.956 91.9048 52.398 91.3768C51.84 90.8488 50.598 92.6338 50.403 94.1968C50.1 96.7078 51.087 98.1358 51.3 98.0398Z" fill="white"/>
<path d="M61.413 91.4998C61.4819 91.4446 61.5274 91.3655 61.5405 91.2782C61.5537 91.1909 61.5334 91.1019 61.4838 91.0289C61.4343 90.9558 61.359 90.9042 61.2731 90.8842C61.1871 90.8641 61.0967 90.8772 61.02 90.9208C60.9512 90.976 60.9056 91.0552 60.8925 91.1425C60.8794 91.2297 60.8996 91.3188 60.9492 91.3918C60.9987 91.4648 61.074 91.5165 61.16 91.5365C61.2459 91.5565 61.3363 91.5434 61.413 91.4998Z" fill="white"/>
<path d="M62.541 97.0889C62.841 97.1069 63.222 95.5228 62.928 94.1308C62.685 92.9788 61.974 91.7909 61.68 91.8929C61.386 91.9949 62.28 93.6749 62.382 94.4549C62.499 95.4389 62.211 97.0709 62.541 97.0889Z" fill="white"/>
</g>
<path d="M83.577 129.348L84.138 134.052L84.333 135.603L82.944 134.874L78.744 132.651L59.487 104.571L64.308 101.271L83.565 129.354L83.577 129.348Z" fill="#7D7DDE"/>
<path opacity="0.6" d="M78.753 132.657L83.58 129.351L84.336 135.609L78.753 132.657Z" fill="white"/>
<path d="M84.144 134.058L84.336 135.609L82.947 134.877L84.144 134.058Z" fill="#37474F"/>
<path d="M83.568 129.249L78.639 132.606L60.873 106.686L65.805 103.326L83.568 129.249Z" fill="#7D7DDE"/>
<g opacity="0.1">
<path d="M82.113 129.21C76.689 121.476 70.689 112.74 65.418 104.91C70.842 112.644 76.839 121.38 82.113 129.21Z" fill="black"/>
<path d="M81.135 129.876C75.711 122.142 69.711 113.406 64.44 105.576C69.864 113.31 75.864 122.046 81.135 129.876Z" fill="black"/>
<path d="M80.157 130.542C74.733 122.808 68.733 114.072 63.462 106.242C68.886 113.976 74.886 122.712 80.157 130.542Z" fill="black"/>
<path d="M79.179 131.208C73.755 123.474 67.755 114.738 62.484 106.908C67.908 114.642 73.908 123.378 79.179 131.208Z" fill="black"/>
</g>
<path d="M83.571 129.246L84.132 134.046L84.321 135.63L82.905 134.88L78.633 132.6V131.544C78.633 131.544 79.59 131.922 79.611 131.925V130.872C79.611 130.872 80.568 131.25 80.589 131.253V130.206C80.589 130.206 81.558 130.578 81.576 130.581V129.534C81.576 129.534 82.545 129.906 82.563 129.909V128.862C82.563 128.862 83.553 129.243 83.571 129.246Z" fill="#7D7DDE"/>
<path opacity="0.8" d="M83.571 129.246L84.132 134.046L84.321 135.63L82.905 134.88L78.633 132.6V131.544C78.633 131.544 79.59 131.922 79.611 131.925V130.872C79.611 130.872 80.568 131.25 80.589 131.253V130.206C80.589 130.206 81.558 130.578 81.576 130.581V129.534C81.576 129.534 82.545 129.906 82.563 129.909V128.862C82.563 128.862 83.553 129.243 83.571 129.246Z" fill="white"/>
<path d="M84.132 134.058L84.321 135.642L82.905 134.892L84.132 134.058Z" fill="#263238"/>
<path d="M64.6137 100.846L58.9875 104.704L59.7527 105.82L65.3789 101.962L64.6137 100.846Z" fill="#37474F"/>
<path d="M65.4585 102.083L59.8322 105.941L60.5974 107.057L66.2236 103.199L65.4585 102.083Z" fill="#37474F"/>
<path d="M77.271 114.183C77.31 116.91 70.581 116.433 70.581 116.433C70.581 116.433 72.192 117.405 72.651 119.157C73.176 121.161 70.251 122.862 70.251 122.862C71.1454 123.735 71.755 124.858 72 126.084C72.3 128.052 69.6 130.188 69.6 130.188C69.6 130.188 70.254 132.15 69.333 133.977C67.761 137.097 62.451 137.577 59.076 137.931C55.701 138.285 45.807 136.101 43.881 135.876L41.481 114.24C41.481 114.24 56.181 108.384 60.195 108.54C63.579 108.672 77.214 110.019 77.271 114.183Z" fill="#FFC4C0"/>
<path d="M70.524 116.355C66.951 115.35 63.147 115.203 59.475 115.101C59.4583 115.101 59.4423 115.108 59.4304 115.12C59.4186 115.131 59.412 115.147 59.412 115.164C59.412 115.181 59.4186 115.197 59.4304 115.209C59.4423 115.22 59.4583 115.227 59.475 115.227C63.129 115.287 66.855 116.325 70.5 116.529C70.5204 116.527 70.5396 116.519 70.5544 116.505C70.5693 116.491 70.5789 116.472 70.5817 116.452C70.5845 116.431 70.5803 116.411 70.5698 116.393C70.5593 116.376 70.5431 116.362 70.524 116.355Z" fill="#263238"/>
<path d="M70.161 122.586C69.348 122.385 68.466 122.451 67.635 122.469C66.735 122.487 65.835 122.523 64.935 122.574C63.135 122.67 61.347 122.813 59.571 123.003C59.493 123.003 59.484 123.132 59.571 123.129C61.371 123.033 63.144 122.967 64.932 122.946C65.83 122.946 66.725 122.946 67.617 122.946C68.451 122.946 69.327 123.024 70.146 122.841C70.1769 122.838 70.206 122.824 70.2277 122.802C70.2494 122.78 70.2623 122.751 70.2642 122.72C70.266 122.689 70.2566 122.658 70.2376 122.633C70.2186 122.609 70.1914 122.592 70.161 122.586Z" fill="#263238"/>
<path d="M69.528 130.2C68.826 129.993 67.965 130.158 67.248 130.2C66.432 130.26 65.616 130.317 64.8 130.371C63.168 130.476 61.536 130.581 59.901 130.629C59.82 130.629 59.817 130.758 59.901 130.755C61.563 130.716 63.225 130.698 64.884 130.641C65.7 130.614 66.516 130.584 67.332 130.545C68.025 130.515 68.895 130.545 69.537 130.266C69.541 130.261 69.544 130.255 69.5457 130.249C69.5475 130.243 69.5479 130.237 69.5471 130.231C69.5462 130.225 69.5441 130.219 69.5408 130.213C69.5375 130.208 69.5331 130.203 69.528 130.2Z" fill="#263238"/>
<g opacity="0.7">
<path opacity="0.7" d="M63.075 92.5769C58.905 81.7139 63.594 70.6919 75.924 69.3899C80.901 68.8529 85.965 69.9149 90.711 71.0369C99.411 73.1699 107.877 76.0049 116.658 75.3809C125.169 74.7509 132.981 70.8809 136.686 62.8679C138.583 58.7717 139.39 54.2545 139.026 49.7549C140.472 53.0069 140.928 56.7869 140.622 60.3629C139.218 75.9959 124.236 83.5589 109.842 82.6169C102.657 82.2359 95.442 79.9679 88.842 77.9699C85.623 77.0009 82.542 76.0979 79.302 75.6269C67.44 73.7759 62.985 81.8249 63.081 92.5769H63.075Z" fill="#7D7DDE"/>
<path opacity="0.5" d="M63.072 92.5769C59.034 79.3409 64.152 66.6389 78.504 63.7769C86.439 62.2319 94.758 64.4819 102.405 65.6489C108.531 66.5879 114.336 66.9539 119.874 64.4489C129.297 59.8799 132.024 46.7729 128.574 37.5089C127.675 34.9447 126.186 32.6273 124.228 30.7432C122.27 28.8591 119.897 27.4608 117.3 26.6609C113.479 25.3141 109.324 25.2435 105.459 26.4599C101.679 27.5399 98.1 29.3999 94.146 29.9669C91.977 30.3299 89.7 30.0329 87.6 29.3999C83.601 28.3859 79.611 25.5959 78.66 21.3899C78.1799 19.4507 78.2276 17.4184 78.798 15.5039C78.51 19.1999 79.944 23.0549 83.208 24.8999C84.7466 25.7638 86.4452 26.3049 88.2 26.4899C89.889 26.7509 91.527 26.3849 93.099 25.7639C96.201 24.5339 99.219 22.1219 103.083 20.3309C107.161 18.3392 111.725 17.5624 116.232 18.0929C136.425 20.5709 144.081 43.4939 135.618 60.3329C131.136 69.1799 123.318 73.9409 113.454 74.3609C105.39 74.7179 97.389 71.9609 89.817 70.2059C86.325 69.4349 82.797 68.8499 79.281 69.1439C66.519 70.2089 62.22 81.0839 63.081 92.5769H63.072Z" fill="#7D7DDE"/>
<path opacity="0.5" d="M63.039 93.345C61.884 89.928 62.199 85.926 64.083 82.794C67.482 77.343 74.862 74.232 81.078 76.587C83.6986 77.5068 85.9175 79.3099 87.354 81.687C89.277 84.762 89.067 89.265 86.328 91.83C83.724 94.422 78.612 94.275 77.277 90.489C76.9145 89.2962 76.976 88.0147 77.451 86.862C77.562 88.905 78.603 91.035 80.718 91.107C83.418 91.224 85.086 88.623 84.705 86.13C84.318 83.52 82.005 81.516 79.605 80.607C74.967 78.855 69.636 80.862 66.294 84.384C64.161 86.817 63.225 90.132 63.045 93.36L63.039 93.345Z" fill="#7D7DDE"/>
<path opacity="0.7" d="M96 23.3191C92.955 25.8541 88.155 26.3911 84.819 23.9641C82.269 22.1641 80.991 18.6271 82.215 15.5941C83.139 13.0561 86.301 11.4181 88.785 12.8761C91.185 14.2141 91.146 17.9461 88.125 18.2191C88.725 17.5621 89.253 16.4371 88.485 15.7831C87.795 15.1231 86.712 15.4201 86.184 16.1161C85.569 16.9321 85.512 18.0811 85.815 19.1161C86.319 20.8141 87.738 21.9901 89.433 22.7161C91.419 23.5111 93.774 23.4841 96 23.3161V23.3191Z" fill="#7D7DDE"/>
<path opacity="0.7" d="M63.075 92.5769C61.1852 87.0715 60.9763 81.1283 62.475 75.5039C64.65 67.2599 71.4 61.1999 79.215 58.2239C82.815 56.7239 86.754 56.1539 90.597 56.1959C93.5159 56.2551 96.4293 56.4755 99.324 56.8559C104.307 57.3779 109.788 58.3559 114.324 56.8919C120.798 54.7259 123.228 46.8509 121.188 40.6919C119.688 35.9939 116.088 33.0449 111.318 31.9289C106.218 30.5789 100.677 31.6949 96.192 34.7489C100.569 28.2659 109.35 25.9859 116.661 28.2989C121.488 29.7989 125.46 33.6989 127.359 38.3549C130.734 46.2449 128.628 56.4059 121.446 61.5479C117.342 64.6349 111.882 65.3489 106.965 64.9229C98.757 64.3469 90.873 61.2839 82.746 62.6429C77.736 63.7649 72.87 66.1109 69.297 69.8429C63.621 75.7559 62.052 84.5999 63.066 92.5649L63.075 92.5769Z" fill="#7D7DDE"/>
<path opacity="0.5" d="M64.266 74.7152C65.814 60.3152 76.806 50.2562 91.266 49.8572C96.84 49.6142 102.495 51.0962 108.048 50.8772C110.184 50.7662 112.104 50.1602 113.538 48.5102C116.52 45.0002 116.058 39.0122 112.437 35.9102C110.457 34.1402 107.895 33.3362 105.213 33.0122C107.961 32.5382 111.057 32.8772 113.544 34.3592C119.811 38.0582 120.696 46.9592 116.139 52.4342C112.227 57.1742 105.432 56.8802 99.9 56.4002C97.074 56.1572 94.221 55.7012 91.386 55.7042C78.186 55.6562 69.612 63.1412 64.269 74.7302L64.266 74.7152Z" fill="#7D7DDE"/>
<path opacity="0.7" d="M89.199 79.6232C91.68 79.4342 94.176 81.0212 95.424 83.1602C97.005 85.6292 97.164 88.5122 98.802 90.7682C99.7923 91.9354 101.181 92.6926 102.699 92.8928C104.216 93.0929 105.754 92.7217 107.013 91.8512C106.527 92.964 105.682 93.8818 104.613 94.4582C101.013 96.4382 96.213 94.4582 94.437 90.8582C92.181 86.3402 93.42 83.4002 89.19 79.6202L89.199 79.6232Z" fill="#7D7DDE"/>
<path opacity="0.7" d="M89.79 49.3802C92.121 46.6622 96.153 45.7952 99.558 45.7112C101.904 45.5492 104.058 45.8822 105.966 45.0092C106.917 44.5262 107.646 43.4132 107.883 42.3482C108.068 41.4048 107.975 40.4279 107.614 39.5366C107.253 38.6454 106.641 37.8784 105.852 37.3292C103.281 35.4422 99.81 36.6332 97.383 38.3822C98.826 36.2312 101.394 34.4072 104.187 34.4822C107.277 34.5092 110.073 36.7202 111 39.7172C111.393 41.0228 111.439 42.4085 111.132 43.7371C110.825 45.0657 110.177 46.2912 109.251 47.2922C108.132 48.5132 106.278 49.2122 104.769 49.3502C102.912 49.5482 101.205 49.3502 99.441 49.1432C96.105 48.7322 93.141 48.4892 89.79 49.3772V49.3802Z" fill="#7D7DDE"/>
<path opacity="0.5" d="M117.9 88.4342C115.239 87.8342 112.44 87.7202 110.025 89.0012C108.699 89.6372 107.589 90.2792 105.945 90.5942C103.704 91.0802 101.178 90.1472 99.726 88.4942C99.0381 87.7597 98.4973 86.9002 98.133 85.9622C99.12 86.1962 99.999 86.4812 100.833 86.6582C104.796 87.7502 106.272 85.1852 109.833 84.4022C113.019 83.6852 116.766 85.3022 117.903 88.4282L117.9 88.4342Z" fill="#7D7DDE"/>
</g>
<path d="M74.031 57.8731L75.711 57.5611L76.089 55.7881L76.464 57.5611L78.147 57.8731L76.47 58.2811L76.089 59.9581L75.705 58.2811L74.031 57.8731Z" fill="white"/>
<path d="M128.298 63.5342L129.981 63.2222L130.356 61.4492L130.734 63.2222L132.414 63.5342L130.74 63.9422L130.356 65.6162L129.975 63.9422L128.298 63.5342Z" fill="white"/>
<path d="M102.162 79.836L103.842 79.524L104.22 77.751L104.595 79.524L106.278 79.836L104.604 80.244L104.22 81.921L103.836 80.244L102.162 79.836Z" fill="white"/>
<path d="M122.841 43.7973L124.524 43.4883L124.899 41.7153L125.277 43.4883L126.957 43.8003L125.283 44.2083L124.899 45.8823L124.518 44.2083L122.841 43.7973Z" fill="white"/>
<path d="M105.018 21.9482L106.698 21.6392L107.076 19.8662L107.451 21.6392L109.131 21.9512L107.457 22.3592L107.076 24.0332L106.692 22.3592L105.018 21.9482Z" fill="white"/>
<path d="M64.122 76.332L65.805 76.023L66.18 74.25L66.555 76.023L68.238 76.335L66.564 76.743L66.18 78.417L65.796 76.743L64.122 76.332Z" fill="white"/>
<path d="M96.282 48.1113L97.962 47.7993L98.34 46.0293L98.715 47.7993L100.395 48.1113L98.721 48.5223L98.34 50.1963L97.956 48.5223L96.282 48.1113Z" fill="white"/>
<path d="M82.191 75.519L83.133 75.345L83.343 74.355L83.553 75.345L84.492 75.519L83.556 75.747L83.343 76.683L83.127 75.747L82.191 75.519Z" fill="white"/>
<path d="M121.692 65.7089L122.631 65.5379L122.841 64.5449L123.051 65.5379L123.993 65.7119L123.057 65.9399L122.841 66.8759L122.628 65.9399L121.692 65.7089Z" fill="white"/>
<path d="M111.99 37.209L112.929 37.035L113.139 36.042L113.349 37.035L114.288 37.209L113.352 37.437L113.139 38.373L112.926 37.437L111.99 37.209Z" fill="white"/>
<path d="M134.691 38.373L135.63 38.199L135.84 37.209L136.05 38.199L136.989 38.373L136.053 38.601L135.84 39.537L135.627 38.601L134.691 38.373Z" fill="white"/>
<path d="M79.623 91.644L80.562 91.47L80.775 90.48L80.982 91.47L81.924 91.644L80.988 91.875L80.775 92.811L80.559 91.875L79.623 91.644Z" fill="white"/>
<path d="M115.503 79.3232L116.442 79.1492L116.652 78.1592L116.862 79.1492L117.801 79.3262L116.865 79.5542L116.652 80.4902L116.439 79.5542L115.503 79.3232Z" fill="white"/>
<path d="M96.642 62.0038L97.581 61.8298L97.794 60.8398L98.004 61.8298L98.943 62.0068L98.007 62.2348L97.794 63.1708L97.578 62.2348L96.642 62.0038Z" fill="white"/>
<path d="M103.8 46.7373L104.742 46.5633L104.952 45.5703L105.162 46.5633L106.101 46.7373L105.165 46.9653L104.952 47.9013L104.739 46.9653L103.8 46.7373Z" fill="white"/>
<path d="M88.878 23.9072L89.817 23.7362L90.027 22.7432L90.237 23.7362L91.179 23.9102L90.243 24.1382L90.027 25.0742L89.814 24.1382L88.878 23.9072Z" fill="white"/>
<path d="M114.078 57.8159L115.02 57.6389L115.23 56.6489L115.44 57.6389L116.379 57.8159L115.443 58.0439L115.23 58.9799L115.014 58.0439L114.078 57.8159Z" fill="white"/>
<path d="M67.551 72.7709L68.49 72.5969L68.7 71.6069L68.91 72.5969L69.852 72.7709L68.916 73.0019L68.7 73.9379L68.487 73.0019L67.551 72.7709Z" fill="white"/>
<path d="M84.279 54.2431L85.218 54.0691L85.428 53.0791L85.638 54.0691L86.577 54.2431L85.641 54.4741L85.428 55.4101L85.215 54.4741L84.279 54.2431Z" fill="white"/>
<path d="M125.478 49.7553L126.417 49.5813L126.627 48.5913L126.837 49.5813L127.779 49.7553L126.843 49.9863L126.627 50.9223L126.414 49.9863L125.478 49.7553Z" fill="white"/>
<path d="M84.2789 80.3789C84.346 80.3719 84.4081 80.3402 84.4533 80.2901C84.4984 80.24 84.5234 80.1749 84.5234 80.1074C84.5234 80.04 84.4984 79.9749 84.4533 79.9248C84.4081 79.8746 84.346 79.843 84.2789 79.8359C84.2119 79.843 84.1498 79.8746 84.1046 79.9248C84.0595 79.9749 84.0345 80.04 84.0345 80.1074C84.0345 80.1749 84.0595 80.24 84.1046 80.2901C84.1498 80.3402 84.2119 80.3719 84.2789 80.3789Z" fill="white"/>
<path d="M134.7 69.2999C134.772 69.2999 134.842 69.2712 134.893 69.22C134.944 69.1688 134.973 69.0993 134.973 69.0269C134.973 68.9545 134.944 68.8851 134.893 68.8339C134.842 68.7827 134.772 68.7539 134.7 68.7539C134.628 68.7539 134.558 68.7827 134.507 68.8339C134.456 68.8851 134.427 68.9545 134.427 69.0269C134.427 69.0993 134.456 69.1688 134.507 69.22C134.558 69.2712 134.628 69.2999 134.7 69.2999Z" fill="white"/>
<path d="M106.539 87.2999C106.611 87.2999 106.681 87.2711 106.732 87.2199C106.783 87.1687 106.812 87.0993 106.812 87.0269C106.812 86.9545 106.783 86.8851 106.732 86.8339C106.681 86.7827 106.611 86.7539 106.539 86.7539C106.467 86.7539 106.397 86.7827 106.346 86.8339C106.295 86.8851 106.266 86.9545 106.266 87.0269C106.266 87.0993 106.295 87.1687 106.346 87.2199C106.397 87.2711 106.467 87.2999 106.539 87.2999Z" fill="white"/>
<path d="M121.692 60.4049C121.764 60.4049 121.834 60.3761 121.885 60.3249C121.936 60.2737 121.965 60.2043 121.965 60.1319C121.965 60.0595 121.936 59.99 121.885 59.9388C121.834 59.8877 121.764 59.8589 121.692 59.8589C121.62 59.8589 121.55 59.8877 121.499 59.9388C121.448 59.99 121.419 60.0595 121.419 60.1319C121.419 60.2043 121.448 60.2737 121.499 60.3249C121.55 60.3761 121.62 60.4049 121.692 60.4049Z" fill="white"/>
<path d="M104.952 37.752C105.019 37.7449 105.081 37.7133 105.126 37.6631C105.171 37.613 105.196 37.5479 105.196 37.4805C105.196 37.413 105.171 37.348 105.126 37.2978C105.081 37.2477 105.019 37.216 104.952 37.209C104.885 37.216 104.823 37.2477 104.778 37.2978C104.733 37.348 104.708 37.413 104.708 37.4805C104.708 37.5479 104.733 37.613 104.778 37.6631C104.823 37.7133 104.885 37.7449 104.952 37.752Z" fill="white"/>
<path d="M119.922 22.7432C119.989 22.7361 120.051 22.7045 120.096 22.6544C120.141 22.6042 120.166 22.5392 120.166 22.4717C120.166 22.4042 120.141 22.3392 120.096 22.289C120.051 22.2389 119.989 22.2073 119.922 22.2002C119.855 22.2073 119.793 22.2389 119.748 22.289C119.703 22.3392 119.678 22.4042 119.678 22.4717C119.678 22.5392 119.703 22.6042 119.748 22.6544C119.793 22.7045 119.855 22.7361 119.922 22.7432Z" fill="white"/>
<path d="M94.917 75.7921C94.9894 75.7921 95.0588 75.7633 95.11 75.7121C95.1612 75.6609 95.19 75.5915 95.19 75.5191C95.19 75.4467 95.1612 75.3772 95.11 75.3261C95.0588 75.2749 94.9894 75.2461 94.917 75.2461C94.8446 75.2461 94.7751 75.2749 94.7239 75.3261C94.6728 75.3772 94.644 75.4467 94.644 75.5191C94.644 75.5915 94.6728 75.6609 94.7239 75.7121C94.7751 75.7633 94.8446 75.7921 94.917 75.7921Z" fill="white"/>
<path d="M133.35 57.4439C133.422 57.4439 133.492 57.4152 133.543 57.364C133.594 57.3128 133.623 57.2434 133.623 57.171C133.623 57.0985 133.594 57.0291 133.543 56.9779C133.492 56.9267 133.422 56.8979 133.35 56.8979C133.278 56.8979 133.208 56.9267 133.157 56.9779C133.106 57.0291 133.077 57.0985 133.077 57.171C133.077 57.2434 133.106 57.3128 133.157 57.364C133.208 57.4152 133.278 57.4439 133.35 57.4439Z" fill="white"/>
<path d="M116.652 49.6529C116.724 49.6529 116.794 49.6242 116.845 49.573C116.896 49.5218 116.925 49.4523 116.925 49.3799C116.925 49.3075 116.896 49.2381 116.845 49.1869C116.794 49.1357 116.724 49.1069 116.652 49.1069C116.58 49.1069 116.51 49.1357 116.459 49.1869C116.408 49.2381 116.379 49.3075 116.379 49.3799C116.379 49.4523 116.408 49.5218 116.459 49.573C116.51 49.6242 116.58 49.6529 116.652 49.6529Z" fill="white"/>
<path d="M100.782 52.7042C100.854 52.7042 100.924 52.6754 100.975 52.6242C101.026 52.573 101.055 52.5036 101.055 52.4312C101.055 52.3588 101.026 52.2894 100.975 52.2382C100.924 52.187 100.854 52.1582 100.782 52.1582C100.71 52.1582 100.64 52.187 100.589 52.2382C100.538 52.2894 100.509 52.3588 100.509 52.4312C100.509 52.5036 100.538 52.573 100.589 52.6242C100.64 52.6754 100.71 52.7042 100.782 52.7042Z" fill="white"/>
<path d="M118.911 31.167C118.978 31.16 119.04 31.1283 119.085 31.0782C119.13 31.028 119.155 30.963 119.155 30.8955C119.155 30.8281 119.13 30.763 119.085 30.7129C119.04 30.6627 118.978 30.6311 118.911 30.624C118.844 30.6311 118.782 30.6627 118.737 30.7129C118.692 30.763 118.667 30.8281 118.667 30.8955C118.667 30.963 118.692 31.028 118.737 31.0782C118.782 31.1283 118.844 31.16 118.911 31.167Z" fill="white"/>
<path d="M109.5 87.114C109.551 87.114 109.6 87.0937 109.636 87.0577C109.672 87.0217 109.692 86.9729 109.692 86.922C109.692 86.8711 109.672 86.8222 109.636 86.7862C109.6 86.7502 109.551 86.73 109.5 86.73C109.449 86.73 109.4 86.7502 109.364 86.7862C109.328 86.8222 109.308 86.8711 109.308 86.922C109.308 86.9729 109.328 87.0217 109.364 87.0577C109.4 87.0937 109.449 87.114 109.5 87.114Z" fill="white"/>
<path d="M78.981 59.6252C79.0319 59.6252 79.0807 59.605 79.1167 59.569C79.1527 59.533 79.173 59.4841 79.173 59.4332C79.173 59.3823 79.1527 59.3335 79.1167 59.2974C79.0807 59.2614 79.0319 59.2412 78.981 59.2412C78.93 59.2412 78.8812 59.2614 78.8452 59.2974C78.8092 59.3335 78.789 59.3823 78.789 59.4332C78.789 59.4841 78.8092 59.533 78.8452 59.569C78.8812 59.605 78.93 59.6252 78.981 59.6252Z" fill="white"/>
<path d="M87.0629 66.9002C87.1101 66.8943 87.1535 66.8714 87.185 66.8358C87.2164 66.8001 87.2338 66.7542 87.2338 66.7067C87.2338 66.6591 87.2164 66.6132 87.185 66.5776C87.1535 66.542 87.1101 66.5191 87.0629 66.5132C87.0158 66.5191 86.9724 66.542 86.9409 66.5776C86.9095 66.6132 86.8921 66.6591 86.8921 66.7067C86.8921 66.7542 86.9095 66.8001 86.9409 66.8358C86.9724 66.8714 87.0158 66.8943 87.0629 66.9002Z" fill="white"/>
<path d="M120.924 67.701C120.971 67.6951 121.015 67.6722 121.046 67.6365C121.077 67.6009 121.095 67.555 121.095 67.5075C121.095 67.4599 121.077 67.414 121.046 67.3784C121.015 67.3428 120.971 67.3198 120.924 67.314C120.877 67.3198 120.833 67.3428 120.802 67.3784C120.77 67.414 120.753 67.4599 120.753 67.5075C120.753 67.555 120.77 67.6009 120.802 67.6365C120.833 67.6722 120.877 67.6951 120.924 67.701Z" fill="white"/>
<path d="M122.469 79.6531C122.516 79.6472 122.56 79.6243 122.591 79.5887C122.622 79.5531 122.64 79.5072 122.64 79.4596C122.64 79.4121 122.622 79.3662 122.591 79.3305C122.56 79.2949 122.516 79.272 122.469 79.2661C122.422 79.272 122.378 79.2949 122.347 79.3305C122.315 79.3662 122.298 79.4121 122.298 79.4596C122.298 79.5072 122.315 79.5531 122.347 79.5887C122.378 79.6243 122.422 79.6472 122.469 79.6531Z" fill="white"/>
<path d="M109.572 68.5379C109.619 68.532 109.663 68.5091 109.694 68.4734C109.725 68.4378 109.743 68.3919 109.743 68.3444C109.743 68.2968 109.725 68.2509 109.694 68.2153C109.663 68.1797 109.619 68.1568 109.572 68.1509C109.525 68.1568 109.481 68.1797 109.45 68.2153C109.418 68.2509 109.401 68.2968 109.401 68.3444C109.401 68.3919 109.418 68.4378 109.45 68.4734C109.481 68.5091 109.525 68.532 109.572 68.5379Z" fill="white"/>
<path d="M98.151 56.325C98.1982 56.3191 98.2416 56.2962 98.273 56.2606C98.3045 56.2249 98.3219 56.179 98.3219 56.1315C98.3219 56.0839 98.3045 56.0381 98.273 56.0024C98.2416 55.9668 98.1982 55.9439 98.151 55.938C98.1038 55.9439 98.0604 55.9668 98.029 56.0024C97.9975 56.0381 97.9801 56.0839 97.9801 56.1315C97.9801 56.179 97.9975 56.2249 98.029 56.2606C98.0604 56.2962 98.1038 56.3191 98.151 56.325Z" fill="white"/>
<path d="M71.619 77.6009C71.6662 77.595 71.7096 77.5721 71.741 77.5364C71.7725 77.5008 71.7899 77.4549 71.7899 77.4074C71.7899 77.3598 71.7725 77.3139 71.741 77.2783C71.7096 77.2427 71.6662 77.2198 71.619 77.2139C71.5718 77.2198 71.5284 77.2427 71.497 77.2783C71.4655 77.3139 71.4481 77.3598 71.4481 77.4074C71.4481 77.4549 71.4655 77.5008 71.497 77.5364C71.5284 77.5721 71.5718 77.595 71.619 77.6009Z" fill="white"/>
<path d="M132.414 37.9471C132.461 37.9412 132.505 37.9183 132.536 37.8826C132.567 37.847 132.585 37.8011 132.585 37.7536C132.585 37.706 132.567 37.6601 132.536 37.6245C132.505 37.5889 132.461 37.5659 132.414 37.5601C132.367 37.5659 132.323 37.5889 132.292 37.6245C132.26 37.6601 132.243 37.706 132.243 37.7536C132.243 37.8011 132.26 37.847 132.292 37.8826C132.323 37.9183 132.367 37.9412 132.414 37.9471Z" fill="white"/>
<path d="M85.428 21.4563C85.4789 21.4563 85.5277 21.436 85.5638 21.4C85.5998 21.364 85.62 21.3152 85.62 21.2643C85.62 21.2133 85.5998 21.1645 85.5638 21.1285C85.5277 21.0925 85.4789 21.0723 85.428 21.0723C85.3771 21.0723 85.3282 21.0925 85.2922 21.1285C85.2562 21.1645 85.236 21.2133 85.236 21.2643C85.236 21.3152 85.2562 21.364 85.2922 21.4C85.3282 21.436 85.3771 21.4563 85.428 21.4563Z" fill="white"/>
<path d="M111.744 60.4441C111.795 60.4441 111.844 60.4238 111.88 60.3878C111.916 60.3518 111.936 60.303 111.936 60.2521C111.936 60.2011 111.916 60.1523 111.88 60.1163C111.844 60.0803 111.795 60.0601 111.744 60.0601C111.693 60.0601 111.644 60.0803 111.608 60.1163C111.572 60.1523 111.552 60.2011 111.552 60.2521C111.552 60.303 111.572 60.3518 111.608 60.3878C111.644 60.4238 111.693 60.4441 111.744 60.4441Z" fill="white"/>
<path d="M94.74 87.0002C94.7909 87.0002 94.8397 86.98 94.8757 86.944C94.9117 86.908 94.932 86.8591 94.932 86.8082C94.932 86.7573 94.9117 86.7084 94.8757 86.6724C94.8397 86.6364 94.7909 86.6162 94.74 86.6162C94.689 86.6162 94.6402 86.6364 94.6042 86.6724C94.5682 86.7084 94.548 86.7573 94.548 86.8082C94.548 86.8591 94.5682 86.908 94.6042 86.944C94.6402 86.98 94.689 87.0002 94.74 87.0002Z" fill="white"/>
<path d="M116.4 41.7151C116.447 41.7092 116.491 41.6863 116.522 41.6507C116.553 41.6151 116.571 41.5692 116.571 41.5216C116.571 41.4741 116.553 41.4282 116.522 41.3926C116.491 41.3569 116.447 41.334 116.4 41.3281C116.353 41.334 116.309 41.3569 116.278 41.3926C116.246 41.4282 116.229 41.4741 116.229 41.5216C116.229 41.5692 116.246 41.6151 116.278 41.6507C116.309 41.6863 116.353 41.7092 116.4 41.7151Z" fill="white"/>
<path d="M106.8 70.65C106.932 70.64 107.055 70.5805 107.145 70.4835C107.235 70.3864 107.285 70.2589 107.285 70.1265C107.285 69.9942 107.235 69.8667 107.145 69.7696C107.055 69.6725 106.932 69.613 106.8 69.603C106.668 69.613 106.545 69.6725 106.455 69.7696C106.365 69.8667 106.315 69.9942 106.315 70.1265C106.315 70.2589 106.365 70.3864 106.455 70.4835C106.545 70.5805 106.668 70.64 106.8 70.65Z" fill="white"/>
<path d="M125.634 28.1251C125.772 28.1251 125.905 28.0701 126.003 27.9722C126.101 27.8743 126.156 27.7415 126.156 27.6031C126.156 27.4646 126.101 27.3318 126.003 27.2339C125.905 27.1361 125.772 27.0811 125.634 27.0811C125.496 27.0811 125.363 27.1361 125.265 27.2339C125.167 27.3318 125.112 27.4646 125.112 27.6031C125.112 27.7415 125.167 27.8743 125.265 27.9722C125.363 28.0701 125.496 28.1251 125.634 28.1251Z" fill="white"/>
<path d="M73.362 62.5289C73.494 62.5189 73.6173 62.4594 73.7073 62.3624C73.7973 62.2653 73.8473 62.1378 73.8473 62.0054C73.8473 61.8731 73.7973 61.7456 73.7073 61.6485C73.6173 61.5514 73.494 61.4919 73.362 61.4819C73.23 61.4919 73.1066 61.5514 73.0166 61.6485C72.9266 61.7456 72.8766 61.8731 72.8766 62.0054C72.8766 62.1378 72.9266 62.2653 73.0166 62.3624C73.1066 62.4594 73.23 62.5189 73.362 62.5289Z" fill="white"/>
<path d="M50.037 100.2H49.959V99.9751H50.037H51.159V100.2H50.037ZM48.459 100.185C48.054 100.185 47.652 100.17 47.259 100.158V99.9331C47.659 99.9451 48.059 99.9541 48.459 99.9601V100.185ZM52.659 100.164V99.9391L53.859 99.9031V100.128L52.659 100.164ZM45.759 100.101C45.354 100.08 44.955 100.059 44.559 100.032V99.8101L45.759 99.8761V100.101ZM55.359 100.068V99.8431L56.559 99.7801V100.005L55.359 100.068ZM43.059 99.9241L41.859 99.8131L41.883 99.5881C42.273 99.6271 42.672 99.6661 43.083 99.6991L43.059 99.9241ZM58.059 99.9091L58.041 99.6841C58.437 99.6571 58.836 99.6301 59.241 99.5971L59.259 99.8221C58.857 99.8551 58.455 99.8821 58.062 99.9001L58.059 99.9091ZM60.759 99.6991L60.738 99.4741L61.938 99.3661L61.959 99.5911L60.759 99.6991ZM40.359 99.6421C39.957 99.5911 39.561 99.5341 39.159 99.4771L39.192 99.2551C39.579 99.3121 39.975 99.3661 40.377 99.4171L40.359 99.6421ZM63.435 99.4411L63.411 99.2191L64.611 99.0901L64.635 99.3151L63.435 99.4411ZM37.686 99.2341C37.284 99.1621 36.891 99.0871 36.504 99.0061L36.552 98.7871C36.936 98.8651 37.326 98.9401 37.725 99.0121L37.686 99.2341ZM66.12 99.1411L66.093 98.9191L67.293 98.7721L67.32 98.9941L66.12 99.1411ZM68.799 98.7991L68.769 98.5771L69.87 98.4271H69.96L69.99 98.6491H69.9L68.799 98.7991ZM35.037 98.6791C34.644 98.5831 34.254 98.4811 33.873 98.3791L33.933 98.1631C34.311 98.2681 34.701 98.3671 35.091 98.4631L35.037 98.6791ZM71.484 98.4001L71.445 98.1781C71.838 98.1091 72.231 98.0371 72.621 97.9591L72.666 98.1781C72.273 98.2591 71.88 98.3341 71.484 98.4001ZM32.442 97.9381C32.052 97.8121 31.668 97.6771 31.305 97.5421L31.383 97.3321C31.746 97.4671 32.124 97.5991 32.511 97.7251L32.442 97.9381ZM74.142 97.8631L74.091 97.6441C74.481 97.5571 74.871 97.4611 75.255 97.3651L75.312 97.5811C74.916 97.6831 74.529 97.7791 74.136 97.8661L74.142 97.8631ZM76.761 97.1941L76.701 96.9751C77.088 96.8671 77.469 96.7531 77.85 96.6391L77.916 96.8521C77.529 96.9721 77.145 97.0861 76.755 97.2001L76.761 97.1941ZM29.91 96.9811C29.535 96.8161 29.169 96.6451 28.818 96.4681L28.92 96.2671C29.268 96.4411 29.631 96.6121 30 96.7741L29.91 96.9811ZM79.341 96.3961L79.269 96.1831C79.65 96.0571 80.028 95.9251 80.403 95.7901L80.478 96.0031C80.1 96.1381 79.722 96.2701 79.341 96.3961ZM27.498 95.7391C27.15 95.5291 26.808 95.3101 26.487 95.0821L26.616 94.8991C26.934 95.1211 27.27 95.3401 27.615 95.5471L27.498 95.7391ZM81.888 95.4811L81.807 95.2711C82.182 95.1271 82.551 94.9711 82.92 94.8271L83.004 95.0371C82.635 95.1871 82.263 95.3341 81.9 95.4811H81.888ZM84.39 94.4521L84.3 94.2481C84.669 94.0861 85.035 93.9241 85.395 93.7591L85.488 93.9631C85.125 94.1281 84.759 94.2931 84.39 94.4521ZM25.29 94.1521C24.99 93.8851 24.69 93.6061 24.411 93.3211L24.573 93.1651C24.843 93.4441 25.131 93.7201 25.437 93.9841L25.29 94.1521ZM86.844 93.3241L86.745 93.1231L87.822 92.5921L87.921 92.7931C87.573 92.9731 87.213 93.1501 86.85 93.3241H86.844ZM23.445 92.1601C23.2097 91.8288 23.0039 91.4774 22.83 91.1101L23.031 91.0141C23.2028 91.369 23.4035 91.7091 23.631 92.0311L23.445 92.1601ZM89.262 92.1001L89.157 91.9021C89.514 91.7131 89.865 91.5211 90.213 91.3321L90.321 91.5271C89.973 91.7221 89.619 91.9141 89.262 92.1001ZM91.632 90.7891L91.518 90.5941C91.869 90.3931 92.214 90.1891 92.553 89.9941L92.667 90.1861C92.328 90.3871 91.983 90.6001 91.632 90.7921V90.7891ZM22.347 89.6641C22.2713 89.2777 22.2332 88.8849 22.233 88.4911V88.4491H22.458V88.5001C22.4572 88.8789 22.4944 89.2568 22.569 89.6281L22.347 89.6641ZM93.951 89.4001L93.831 89.2081C94.176 88.9951 94.512 88.7791 94.845 88.5661L94.965 88.7551C94.635 88.9711 94.296 89.1841 93.951 89.4001ZM96.222 87.9301L96.096 87.7411C96.434 87.5171 96.764 87.2921 97.086 87.0661L97.215 87.2521C96.9 87.4741 96.561 87.7021 96.222 87.9301ZM22.644 87.0001L22.425 86.9461C22.5196 86.5548 22.645 86.1716 22.8 85.8001L23.007 85.8901C22.8556 86.2495 22.7342 86.6207 22.644 87.0001ZM98.445 86.4001L98.313 86.2171C98.646 85.9771 98.97 85.7401 99.282 85.5091L99.414 85.6891C99.102 85.9081 98.778 86.1451 98.445 86.4001ZM100.614 84.7801L100.476 84.6031C100.806 84.3481 101.121 84.1021 101.421 83.8621L101.562 84.0391C101.262 84.2641 100.944 84.5101 100.614 84.7651V84.7801ZM23.715 84.5881L23.526 84.4651C23.7439 84.1247 23.9813 83.7971 24.237 83.4841L24.411 83.6251C24.1617 83.9281 23.9294 84.2445 23.715 84.5731V84.5881ZM102.729 83.0881L102.585 82.9141C102.919 82.6381 103.225 82.3801 103.503 82.1401L103.65 82.3111C103.371 82.5391 103.062 82.8001 102.729 83.0761V83.0881ZM25.413 82.5151L25.257 82.3531C25.539 82.0771 25.839 81.8071 26.157 81.5461L26.301 81.7171C25.989 81.9751 25.692 82.2421 25.413 82.5151ZM104.781 81.3151L104.631 81.1471C105.201 80.6341 105.507 80.3311 105.51 80.3281L105.666 80.4901C105.666 80.4901 105.354 80.7841 104.781 81.3001V81.3151ZM27.483 80.8171L27.357 80.6311C27.678 80.4091 28.017 80.1871 28.368 79.9741L28.485 80.1661C28.14 80.3761 27.801 80.5951 27.483 80.8171ZM29.787 79.4371L29.685 79.2391C30.036 79.0561 30.402 78.8821 30.771 78.7141L30.864 78.9211C30.498 79.0861 30.135 79.2601 29.787 79.4371ZM32.241 78.3481L32.163 78.1381C32.529 78.0001 32.91 77.8651 33.297 77.7361L33.369 77.9491C32.982 78.0781 32.604 78.2131 32.241 78.3481ZM34.8 77.5231L34.743 77.3071C35.124 77.2051 35.52 77.1061 35.91 77.0071L35.961 77.2261C35.571 77.3251 35.181 77.4211 34.8 77.5231ZM37.428 76.9471L37.389 76.7251C37.782 76.6591 38.181 76.5991 38.589 76.5451L38.619 76.7701C38.214 76.8211 37.815 76.8811 37.428 76.9471ZM40.095 76.6081L40.077 76.3861C40.47 76.3501 40.875 76.3261 41.277 76.3081V76.5331C40.887 76.5511 40.5 76.5751 40.095 76.6081Z" fill="#263238"/>
<path d="M105.834 74.628L103.875 81.645L108.777 77.166L128.163 68.394L105.834 74.628Z" fill="#7D7DDE"/>
<path opacity="0.1" d="M105.834 74.628L103.875 81.645L108.777 77.166L128.163 68.394L105.834 74.628Z" fill="black"/>
<path d="M109.572 78.705L103.875 81.645L108.777 77.166L109.572 78.705Z" fill="#263238"/>
<path d="M108.777 77.166L128.163 68.394L113.04 85.62L108.777 77.166Z" fill="#7D7DDE"/>
<path d="M105.834 74.628L97.131 69.918L128.163 68.394L105.834 74.628Z" fill="#7D7DDE"/>
</svg>
