<svg width="33" height="32" viewBox="0 0 33 32" fill="none" xmlns="http://www.w3.org/2000/svg">
<path d="M16.7469 29.9978C26.0814 29.9978 30.7458 23.7303 30.7458 15.9989C30.7458 8.26751 26.0814 2 16.7469 2C7.41248 2 2.74805 8.26751 2.74805 15.9989C2.74805 23.7303 7.41248 29.9978 16.7469 29.9978Z" fill="url(#paint0_radial_68_3131)"/>
<path d="M16.7469 29.9978C26.0814 29.9978 30.7458 23.7303 30.7458 15.9989C30.7458 8.26751 26.0814 2 16.7469 2C7.41248 2 2.74805 8.26751 2.74805 15.9989C2.74805 23.7303 7.41248 29.9978 16.7469 29.9978Z" fill="url(#paint1_radial_68_3131)"/>
<path d="M16.7469 29.9978C26.0814 29.9978 30.7458 23.7303 30.7458 15.9989C30.7458 8.26751 26.0814 2 16.7469 2C7.41248 2 2.74805 8.26751 2.74805 15.9989C2.74805 23.7303 7.41248 29.9978 16.7469 29.9978Z" fill="url(#paint2_radial_68_3131)" fill-opacity="0.6"/>
<path d="M16.7469 29.9978C26.0814 29.9978 30.7458 23.7303 30.7458 15.9989C30.7458 8.26751 26.0814 2 16.7469 2C7.41248 2 2.74805 8.26751 2.74805 15.9989C2.74805 23.7303 7.41248 29.9978 16.7469 29.9978Z" fill="url(#paint3_radial_68_3131)"/>
<path d="M16.7469 29.9978C26.0814 29.9978 30.7458 23.7303 30.7458 15.9989C30.7458 8.26751 26.0814 2 16.7469 2C7.41248 2 2.74805 8.26751 2.74805 15.9989C2.74805 23.7303 7.41248 29.9978 16.7469 29.9978Z" fill="url(#paint4_radial_68_3131)"/>
<path d="M16.7469 29.9978C26.0814 29.9978 30.7458 23.7303 30.7458 15.9989C30.7458 8.26751 26.0814 2 16.7469 2C7.41248 2 2.74805 8.26751 2.74805 15.9989C2.74805 23.7303 7.41248 29.9978 16.7469 29.9978Z" fill="url(#paint5_radial_68_3131)"/>
<path d="M16.7469 29.9978C26.0814 29.9978 30.7458 23.7303 30.7458 15.9989C30.7458 8.26751 26.0814 2 16.7469 2C7.41248 2 2.74805 8.26751 2.74805 15.9989C2.74805 23.7303 7.41248 29.9978 16.7469 29.9978Z" fill="url(#paint6_radial_68_3131)"/>
<path d="M16.7469 29.9978C26.0814 29.9978 30.7458 23.7303 30.7458 15.9989C30.7458 8.26751 26.0814 2 16.7469 2C7.41248 2 2.74805 8.26751 2.74805 15.9989C2.74805 23.7303 7.41248 29.9978 16.7469 29.9978Z" fill="url(#paint7_radial_68_3131)"/>
<path d="M16.7469 29.9978C26.0814 29.9978 30.7458 23.7303 30.7458 15.9989C30.7458 8.26751 26.0814 2 16.7469 2C7.41248 2 2.74805 8.26751 2.74805 15.9989C2.74805 23.7303 7.41248 29.9978 16.7469 29.9978Z" fill="url(#paint8_radial_68_3131)"/>
<path fill-rule="evenodd" clip-rule="evenodd" d="M8.44504 13.2829C8.05378 12.9024 7.42811 12.9057 7.04094 13.2929C6.65042 13.6834 6.65042 14.3166 7.04094 14.7071L7.04237 14.7085L7.0439 14.7101L7.04726 14.7134L7.05518 14.7211L7.07582 14.7408C7.09172 14.7557 7.11192 14.7741 7.13642 14.7955C7.18539 14.8384 7.25175 14.8934 7.33555 14.9562C7.50301 15.0818 7.74133 15.2397 8.05083 15.3944C8.67312 15.7056 9.57528 16 10.748 16C11.9208 16 12.823 15.7056 13.4453 15.3944C13.7548 15.2397 13.9931 15.0818 14.1605 14.9562C14.2443 14.8934 14.3107 14.8384 14.3597 14.7955C14.3842 14.7741 14.4044 14.7557 14.4203 14.7408L14.4409 14.7211L14.4488 14.7134L14.4522 14.7101L14.4537 14.7085L14.4545 14.7078C14.845 14.3173 14.8457 13.6834 14.4552 13.2929C14.068 12.9057 13.4423 12.9024 13.0511 13.2829C13.0495 13.2843 13.0467 13.2868 13.0427 13.2904C13.0291 13.3022 13.0017 13.3253 12.9605 13.3562C12.878 13.4182 12.7413 13.5103 12.5508 13.6056C12.1731 13.7944 11.5753 14 10.748 14C9.92081 14 9.32297 13.7944 8.94526 13.6056C8.75477 13.5103 8.61809 13.4182 8.53555 13.3562C8.49435 13.3253 8.46695 13.3022 8.45343 13.2904C8.44936 13.2868 8.44656 13.2843 8.44504 13.2829Z" fill="url(#paint9_linear_68_3131)"/>
<path fill-rule="evenodd" clip-rule="evenodd" d="M20.445 13.2829C20.0538 12.9024 19.4281 12.9057 19.0409 13.2929C18.6504 13.6834 18.6504 14.3166 19.0409 14.7071L19.0424 14.7085L19.0439 14.7101L19.0473 14.7134L19.0552 14.7211L19.0758 14.7408C19.0917 14.7557 19.1119 14.7741 19.1364 14.7955C19.1854 14.8384 19.2517 14.8934 19.3355 14.9562C19.503 15.0818 19.7413 15.2397 20.0508 15.3944C20.6731 15.7056 21.5753 16 22.748 16C23.9208 16 24.823 15.7056 25.4453 15.3944C25.7548 15.2397 25.9931 15.0818 26.1605 14.9562C26.2443 14.8934 26.3107 14.8384 26.3597 14.7955C26.3842 14.7741 26.4044 14.7557 26.4203 14.7408L26.4409 14.7211L26.4488 14.7134L26.4522 14.7101L26.4537 14.7085L26.4545 14.7078C26.845 14.3173 26.8457 13.6834 26.4552 13.2929C26.068 12.9057 25.4423 12.9024 25.0511 13.2829C25.0495 13.2843 25.0467 13.2868 25.0427 13.2904C25.0291 13.3022 25.0017 13.3253 24.9605 13.3562C24.878 13.4182 24.7413 13.5103 24.5508 13.6056C24.1731 13.7944 23.5753 14 22.748 14C21.9208 14 21.323 13.7944 20.9453 13.6056C20.7548 13.5103 20.6181 13.4182 20.5355 13.3562C20.4943 13.3253 20.467 13.3022 20.4534 13.2904C20.4494 13.2868 20.4466 13.2843 20.445 13.2829Z" fill="url(#paint10_linear_68_3131)"/>
<path d="M16.7178 22.9219C17.8223 22.9219 18.7178 22.0264 18.7178 20.9219C18.7178 19.8173 17.8223 18.9219 16.7178 18.9219C15.6132 18.9219 14.7178 19.8173 14.7178 20.9219C14.7178 22.0264 15.6132 22.9219 16.7178 22.9219Z" fill="url(#paint11_radial_68_3131)"/>
<path d="M13.748 25.0017C15.698 24.0617 16.3081 21.4717 16.3081 21.4717C16.5181 21.1917 16.9281 21.1917 17.1381 21.4717C17.1381 21.4717 17.748 23.9817 19.748 25.0017C20.068 25.1617 18.6981 25.9217 18.6981 25.9217H14.7181L13.748 25.0017Z" fill="url(#paint12_linear_68_3131)"/>
<path d="M19.748 29C20.8526 29 21.748 28.1046 21.748 27C21.748 25.8954 20.8526 25 19.748 25C18.6435 25 17.748 25.8954 17.748 27C17.748 28.1046 18.6435 29 19.748 29Z" fill="url(#paint13_radial_68_3131)"/>
<path fill-rule="evenodd" clip-rule="evenodd" d="M19.748 28.5C20.5765 28.5 21.248 27.8284 21.248 27C21.248 26.1716 20.5765 25.5 19.748 25.5C18.9196 25.5 18.248 26.1716 18.248 27C18.248 27.8284 18.9196 28.5 19.748 28.5ZM21.748 27C21.748 28.1046 20.8526 29 19.748 29C18.6435 29 17.748 28.1046 17.748 27C17.748 25.8954 18.6435 25 19.748 25C20.8526 25 21.748 25.8954 21.748 27Z" fill="url(#paint14_radial_68_3131)"/>
<path d="M13.748 29C14.8526 29 15.748 28.1046 15.748 27C15.748 25.8954 14.8526 25 13.748 25C12.6435 25 11.748 25.8954 11.748 27C11.748 28.1046 12.6435 29 13.748 29Z" fill="url(#paint15_radial_68_3131)"/>
<path fill-rule="evenodd" clip-rule="evenodd" d="M13.748 28.5C14.5765 28.5 15.248 27.8284 15.248 27C15.248 26.1716 14.5765 25.5 13.748 25.5C12.9196 25.5 12.248 26.1716 12.248 27C12.248 27.8284 12.9196 28.5 13.748 28.5ZM15.748 27C15.748 28.1046 14.8526 29 13.748 29C12.6435 29 11.748 28.1046 11.748 27C11.748 25.8954 12.6435 25 13.748 25C14.8526 25 15.748 25.8954 15.748 27Z" fill="url(#paint16_radial_68_3131)"/>
<path d="M16.748 31C18.4049 31 19.748 29.6569 19.748 28C19.748 26.3431 18.4049 25 16.748 25C15.0912 25 13.748 26.3431 13.748 28C13.748 29.6569 15.0912 31 16.748 31Z" fill="url(#paint17_radial_68_3131)"/>
<path d="M16.748 31C18.4049 31 19.748 29.6569 19.748 28C19.748 26.3431 18.4049 25 16.748 25C15.0912 25 13.748 26.3431 13.748 28C13.748 29.6569 15.0912 31 16.748 31Z" fill="url(#paint18_radial_68_3131)"/>
<path fill-rule="evenodd" clip-rule="evenodd" d="M8.81744 7.98761C8.22454 8.55049 7.86598 9.22774 7.72252 9.65811C7.6352 9.92009 7.35204 10.0617 7.09007 9.97434C6.8281 9.88702 6.68652 9.60386 6.77384 9.34189C6.96371 8.77226 7.40516 7.94951 8.12893 7.26239C8.86119 6.5672 9.89609 6 11.2482 6C11.5243 6 11.7482 6.22386 11.7482 6.5C11.7482 6.77614 11.5243 7 11.2482 7C10.2003 7 9.40184 7.4328 8.81744 7.98761Z" fill="url(#paint19_linear_68_3131)"/>
<path fill-rule="evenodd" clip-rule="evenodd" d="M24.6787 7.98761C25.2716 8.55049 25.6301 9.22774 25.7736 9.65811C25.8609 9.92009 26.1441 10.0617 26.406 9.97434C26.668 9.88702 26.8096 9.60386 26.7223 9.34189C26.5324 8.77226 26.0909 7.94951 25.3672 7.26239C24.6349 6.5672 23.6 6 22.2479 6C21.9718 6 21.7479 6.22386 21.7479 6.5C21.7479 6.77614 21.9718 7 22.2479 7C23.2958 7 24.0943 7.4328 24.6787 7.98761Z" fill="url(#paint20_linear_68_3131)"/>
<defs>
<radialGradient id="paint0_radial_68_3131" cx="0" cy="0" r="1" gradientUnits="userSpaceOnUse" gradientTransform="translate(26.248 9) rotate(131.878) scale(38.9487)">
<stop stop-color="#FFF478"/>
<stop offset="0.474827" stop-color="#FFB02E"/>
<stop offset="1" stop-color="#F70A8D"/>
</radialGradient>
<radialGradient id="paint1_radial_68_3131" cx="0" cy="0" r="1" gradientUnits="userSpaceOnUse" gradientTransform="translate(16.7481 12.5) rotate(101.31) scale(17.8466 22.8581)">
<stop offset="0.787821" stop-color="#F59639" stop-opacity="0"/>
<stop offset="0.972509" stop-color="#FF7DCE"/>
</radialGradient>
<radialGradient id="paint2_radial_68_3131" cx="0" cy="0" r="1" gradientUnits="userSpaceOnUse" gradientTransform="translate(18.7481 14) rotate(135) scale(41.0122)">
<stop offset="0.314853" stop-opacity="0"/>
<stop offset="1"/>
</radialGradient>
<radialGradient id="paint3_radial_68_3131" cx="0" cy="0" r="1" gradientUnits="userSpaceOnUse" gradientTransform="translate(16.748 17) rotate(77.692) scale(28.1469)">
<stop offset="0.507903" stop-color="#7D6133" stop-opacity="0"/>
<stop offset="1" stop-color="#715B32"/>
</radialGradient>
<radialGradient id="paint4_radial_68_3131" cx="0" cy="0" r="1" gradientUnits="userSpaceOnUse" gradientTransform="translate(17.248 16.5) rotate(55.7131) scale(13.3135 9.65032)">
<stop stop-color="#FFB849"/>
<stop offset="1" stop-color="#FFB847" stop-opacity="0"/>
</radialGradient>
<radialGradient id="paint5_radial_68_3131" cx="0" cy="0" r="1" gradientUnits="userSpaceOnUse" gradientTransform="translate(18.6711 16.8135) rotate(13.3925) scale(11.1558)">
<stop stop-color="#FFCE51"/>
<stop offset="0.900412" stop-color="#FFCE51" stop-opacity="0"/>
</radialGradient>
<radialGradient id="paint6_radial_68_3131" cx="0" cy="0" r="1" gradientUnits="userSpaceOnUse" gradientTransform="translate(18.248 15) rotate(43.9708) scale(59.0529)">
<stop offset="0.185425" stop-opacity="0"/>
<stop offset="1" stop-opacity="0.4"/>
</radialGradient>
<radialGradient id="paint7_radial_68_3131" cx="0" cy="0" r="1" gradientUnits="userSpaceOnUse" gradientTransform="translate(15.25 25.6875) rotate(103.392) scale(5.39676 2.55217)">
<stop offset="0.251641" stop-color="#E4694E"/>
<stop offset="1" stop-color="#E4694E" stop-opacity="0"/>
</radialGradient>
<radialGradient id="paint8_radial_68_3131" cx="0" cy="0" r="1" gradientUnits="userSpaceOnUse" gradientTransform="translate(13.5625 27.375) rotate(73.664) scale(3.7775 3.44384)">
<stop offset="0.362989" stop-color="#E4694E"/>
<stop offset="1" stop-color="#E4694E" stop-opacity="0"/>
</radialGradient>
<linearGradient id="paint9_linear_68_3131" x1="11.948" y1="13.75" x2="11.7129" y2="15.1608" gradientUnits="userSpaceOnUse">
<stop stop-color="#52383E"/>
<stop offset="1" stop-color="#432A35"/>
</linearGradient>
<linearGradient id="paint10_linear_68_3131" x1="23.948" y1="13.75" x2="23.7129" y2="15.1608" gradientUnits="userSpaceOnUse">
<stop stop-color="#52383E"/>
<stop offset="1" stop-color="#432A35"/>
</linearGradient>
<radialGradient id="paint11_radial_68_3131" cx="0" cy="0" r="1" gradientUnits="userSpaceOnUse" gradientTransform="translate(16.7178 23.8108) rotate(-90) scale(4.88889)">
<stop stop-color="#F70A8D"/>
<stop offset="1" stop-color="#89029C"/>
</radialGradient>
<linearGradient id="paint12_linear_68_3131" x1="18.248" y1="24.5017" x2="15.248" y2="24.5017" gradientUnits="userSpaceOnUse">
<stop stop-color="#FAEEF9"/>
<stop offset="1" stop-color="#DCBAD5"/>
</linearGradient>
<radialGradient id="paint13_radial_68_3131" cx="0" cy="0" r="1" gradientUnits="userSpaceOnUse" gradientTransform="translate(20.4147 26) rotate(119.055) scale(3.43188)">
<stop stop-color="#ECE1F5"/>
<stop offset="0.623683" stop-color="#EAC6FF"/>
<stop offset="1" stop-color="#F595FF"/>
</radialGradient>
<radialGradient id="paint14_radial_68_3131" cx="0" cy="0" r="1" gradientUnits="userSpaceOnUse" gradientTransform="translate(21.4147 26) rotate(153.435) scale(2.23607 1.49192)">
<stop stop-color="#FEF7FF"/>
<stop offset="1" stop-color="white" stop-opacity="0"/>
</radialGradient>
<radialGradient id="paint15_radial_68_3131" cx="0" cy="0" r="1" gradientUnits="userSpaceOnUse" gradientTransform="translate(14.4147 26) rotate(119.055) scale(3.43188)">
<stop stop-color="#ECE1F5"/>
<stop offset="0.623683" stop-color="#EAC6FF"/>
<stop offset="1" stop-color="#F595FF"/>
</radialGradient>
<radialGradient id="paint16_radial_68_3131" cx="0" cy="0" r="1" gradientUnits="userSpaceOnUse" gradientTransform="translate(15.4147 26) rotate(153.435) scale(2.23607 1.49192)">
<stop stop-color="#FEF7FF"/>
<stop offset="1" stop-color="white" stop-opacity="0"/>
</radialGradient>
<radialGradient id="paint17_radial_68_3131" cx="0" cy="0" r="1" gradientUnits="userSpaceOnUse" gradientTransform="translate(17.748 26.5) rotate(119.055) scale(5.14781)">
<stop stop-color="#ECE1F5"/>
<stop offset="0.623683" stop-color="#EAC6FF"/>
<stop offset="1" stop-color="#F595FF"/>
</radialGradient>
<radialGradient id="paint18_radial_68_3131" cx="0" cy="0" r="1" gradientUnits="userSpaceOnUse" gradientTransform="translate(17.9375 27.0625) rotate(110.556) scale(2.136)">
<stop stop-color="white"/>
<stop offset="1" stop-color="white" stop-opacity="0"/>
</radialGradient>
<linearGradient id="paint19_linear_68_3131" x1="7.58138" y1="10.4" x2="7.58138" y2="8.6" gradientUnits="userSpaceOnUse">
<stop offset="0.0299084" stop-color="#524049"/>
<stop offset="1" stop-color="#4A2C42"/>
</linearGradient>
<linearGradient id="paint20_linear_68_3131" x1="25.9147" y1="10.4" x2="25.9147" y2="8.6" gradientUnits="userSpaceOnUse">
<stop offset="0.0299084" stop-color="#524049"/>
<stop offset="1" stop-color="#4A2C42"/>
</linearGradient>
</defs>
</svg>
