<svg width="33" height="32" viewBox="0 0 33 32" fill="none" xmlns="http://www.w3.org/2000/svg">
<path d="M16.4978 29.9978C25.8322 29.9978 30.4967 23.7303 30.4967 15.9989C30.4967 8.26751 25.8322 2 16.4978 2C7.16334 2 2.4989 8.26751 2.4989 15.9989C2.4989 23.7303 7.16334 29.9978 16.4978 29.9978Z" fill="url(#paint0_radial_68_3132)"/>
<path d="M16.4978 29.9978C25.8322 29.9978 30.4967 23.7303 30.4967 15.9989C30.4967 8.26751 25.8322 2 16.4978 2C7.16334 2 2.4989 8.26751 2.4989 15.9989C2.4989 23.7303 7.16334 29.9978 16.4978 29.9978Z" fill="url(#paint1_radial_68_3132)"/>
<path d="M16.4978 29.9978C25.8322 29.9978 30.4967 23.7303 30.4967 15.9989C30.4967 8.26751 25.8322 2 16.4978 2C7.16334 2 2.4989 8.26751 2.4989 15.9989C2.4989 23.7303 7.16334 29.9978 16.4978 29.9978Z" fill="url(#paint2_radial_68_3132)" fill-opacity="0.6"/>
<path d="M16.4978 29.9978C25.8322 29.9978 30.4967 23.7303 30.4967 15.9989C30.4967 8.26751 25.8322 2 16.4978 2C7.16334 2 2.4989 8.26751 2.4989 15.9989C2.4989 23.7303 7.16334 29.9978 16.4978 29.9978Z" fill="url(#paint3_radial_68_3132)"/>
<path d="M16.4978 29.9978C25.8322 29.9978 30.4967 23.7303 30.4967 15.9989C30.4967 8.26751 25.8322 2 16.4978 2C7.16334 2 2.4989 8.26751 2.4989 15.9989C2.4989 23.7303 7.16334 29.9978 16.4978 29.9978Z" fill="url(#paint4_radial_68_3132)"/>
<path d="M16.4978 29.9978C25.8322 29.9978 30.4967 23.7303 30.4967 15.9989C30.4967 8.26751 25.8322 2 16.4978 2C7.16334 2 2.4989 8.26751 2.4989 15.9989C2.4989 23.7303 7.16334 29.9978 16.4978 29.9978Z" fill="url(#paint5_radial_68_3132)"/>
<path d="M16.4978 29.9978C25.8322 29.9978 30.4967 23.7303 30.4967 15.9989C30.4967 8.26751 25.8322 2 16.4978 2C7.16334 2 2.4989 8.26751 2.4989 15.9989C2.4989 23.7303 7.16334 29.9978 16.4978 29.9978Z" fill="url(#paint6_radial_68_3132)"/>
<path d="M16.4978 29.9978C25.8322 29.9978 30.4967 23.7303 30.4967 15.9989C30.4967 8.26751 25.8322 2 16.4978 2C7.16334 2 2.4989 8.26751 2.4989 15.9989C2.4989 23.7303 7.16334 29.9978 16.4978 29.9978Z" fill="url(#paint7_radial_68_3132)"/>
<path d="M16.4978 29.9978C25.8322 29.9978 30.4967 23.7303 30.4967 15.9989C30.4967 8.26751 25.8322 2 16.4978 2C7.16334 2 2.4989 8.26751 2.4989 15.9989C2.4989 23.7303 7.16334 29.9978 16.4978 29.9978Z" fill="url(#paint8_radial_68_3132)"/>
<path fill-rule="evenodd" clip-rule="evenodd" d="M12.6403 18.4182C12.642 18.4205 12.6437 18.4228 12.6453 18.4252L12.6437 18.4229L12.642 18.4205L12.6403 18.4182C12.3217 17.9725 11.7027 17.8659 11.2531 18.181C10.8008 18.498 10.6911 19.1216 11.0081 19.5739L11.0162 19.5681C11.0161 19.5679 11.0164 19.5683 11.0162 19.5681C11.0081 19.5739 11.0086 19.5747 11.0087 19.5748L11.0094 19.5757L11.0108 19.5777L11.0141 19.5824L11.0223 19.5938C11.0286 19.6024 11.0363 19.6129 11.0456 19.6251C11.0641 19.6496 11.0886 19.6812 11.1194 19.7189C11.1809 19.7941 11.2676 19.894 11.3805 20.0099C11.606 20.2416 11.9383 20.5399 12.3865 20.8351C13.2901 21.4302 14.6467 22 16.4989 22C18.351 22 19.7077 21.4302 20.6112 20.8351C21.0594 20.5399 21.3918 20.2416 21.6173 20.0099C21.7301 19.894 21.8168 19.7941 21.8783 19.7189C21.9091 19.6812 21.9337 19.6496 21.9522 19.6251C21.9614 19.6129 21.9692 19.6024 21.9754 19.5938L21.9836 19.5824L21.9869 19.5777L21.9884 19.5757L21.989 19.5748C21.9891 19.5747 21.9891 19.5746 21.9854 19.5719C21.9853 19.5721 21.9856 19.5717 21.9854 19.5719L21.9897 19.5739C22.3066 19.1216 22.1969 18.498 21.7446 18.181C21.295 17.8659 20.676 17.9725 20.3574 18.4182C20.3571 18.4186 20.3567 18.4191 20.3562 18.4197C20.3526 18.4245 20.3439 18.4359 20.3299 18.4529C20.3021 18.4871 20.2537 18.5435 20.184 18.615C20.0445 18.7583 19.8221 18.96 19.5111 19.1648C18.8963 19.5698 17.917 20 16.4989 20C15.0807 20 14.1014 19.5698 13.4866 19.1648C13.1756 18.96 12.9532 18.7583 12.8137 18.615C12.7441 18.5435 12.6957 18.4871 12.6678 18.4529C12.6539 18.4359 12.6456 18.4253 12.642 18.4205L12.6403 18.4182ZM20.3574 18.4182C20.3557 18.4205 20.3541 18.4229 20.3524 18.4252L20.354 18.4229L20.3562 18.4197C20.3567 18.4191 20.3571 18.4186 20.3574 18.4182C20.3582 18.4171 20.3579 18.4174 20.3574 18.4182Z" fill="url(#paint9_radial_68_3132)"/>
<path fill-rule="evenodd" clip-rule="evenodd" d="M13.2959 5.66639C13.8479 5.88633 14.322 6.22517 14.6965 6.6523C14.9419 6.93216 15.2887 7.11938 15.6606 7.10432C16.1658 7.08386 16.7301 7.08081 17.3302 7.1074C17.704 7.12396 18.0531 6.93601 18.2995 6.65451C18.6743 6.22634 19.1491 5.88671 19.7019 5.66639C19.903 5.58047 20.2503 5.45188 21.1111 5.29138C21.6318 5.1943 22.8707 5.14099 23.7069 5.12201C24.57 5.10242 25.4981 5.10316 26.1921 5.10371L26.5066 5.10389C27.696 5.10389 28.8694 5.47968 29.3348 5.76014C30.3816 6.29139 31.3504 7.30701 31.4199 9.05473C31.4227 9.08087 31.4246 9.10722 31.4254 9.13372C31.5079 11.8221 29.8385 15.6671 25.5824 16.7208C25.2832 16.7948 24.9892 16.8487 24.6943 16.8893C24.68 16.8913 24.6656 16.8929 24.6512 16.8943C20.3453 17.2978 17.502 13.659 17.3614 9.70014C17.3498 9.37332 17.0989 9.09664 16.7719 9.09093C16.5853 9.08767 16.404 9.08744 16.2292 9.0897C15.9009 9.09393 15.6483 9.37144 15.6367 9.69957C15.4978 13.6586 12.6517 17.2977 8.34672 16.8943C8.33231 16.8929 8.31794 16.8913 8.3036 16.8893C8.0087 16.8487 7.71466 16.7948 7.41551 16.7208C3.15942 15.6671 1.49001 11.8221 1.57248 9.13372C1.57329 9.10722 1.57515 9.08087 1.57804 9.05473C1.64751 7.30701 2.61626 6.29139 3.66314 5.76014C4.12846 5.47968 5.30188 5.10389 6.49126 5.10389L6.80582 5.10371C7.49977 5.10316 8.42786 5.10242 9.29097 5.12201C10.1272 5.14099 11.366 5.1943 11.8867 5.29138C12.7476 5.45188 13.0949 5.58047 13.2959 5.66639ZM2.98946 8.16506C3.23935 7.55643 3.70319 7.05906 4.32764 6.6827C4.67876 6.47107 5.52691 6.10389 6.49126 6.10389L6.802 6.10372C8.19465 6.10261 10.4764 6.10078 11.3311 6.26014C12.1596 6.4146 12.4275 6.52706 12.542 6.57654C13.0115 6.76132 13.4209 7.06554 13.7329 7.45175L14.0746 9.2663C14.1562 9.25095 14.2565 9.23462 14.3736 9.21831C14.3739 9.23482 14.3741 9.25137 14.3741 9.26795L14.3739 9.29915C14.5536 13.5101 11.3467 16.0481 8.34673 15.7668C8.08152 15.7303 7.82261 15.6826 7.56248 15.6182C4.4022 14.8358 3.07541 12.3461 2.82299 10.1426C2.78412 9.80332 2.77072 9.47079 2.78004 9.15233L2.78031 9.14339L2.78232 9.14346L2.78269 9.13372C2.79661 8.78513 2.86759 8.46187 2.98946 8.16506ZM18.6241 9.22468C18.6239 9.23908 18.6238 9.2535 18.6238 9.26795L18.624 9.29915C18.4443 13.5101 21.6512 16.0481 24.6512 15.7668C24.9164 15.7303 25.1753 15.6826 25.4354 15.6182C28.5957 14.8358 29.9225 12.3461 30.1749 10.1426C30.2138 9.80332 30.2272 9.47079 30.2179 9.15233L30.2176 9.14339L30.2156 9.14346L30.2152 9.13372C30.2013 8.78513 30.1303 8.46187 30.0084 8.16506C29.7585 7.55643 29.2947 7.05906 28.6703 6.6827C28.3191 6.47107 27.471 6.10389 26.5066 6.10389L26.1959 6.10372C24.8032 6.10261 22.5215 6.10078 21.6668 6.26014C20.8383 6.4146 20.5704 6.52706 20.4559 6.57654C19.9684 6.76839 19.5457 7.08898 19.2296 7.49642L18.956 9.27191C18.845 9.2548 18.7343 9.23908 18.6241 9.22468Z" fill="url(#paint10_radial_68_3132)"/>
<path fill-rule="evenodd" clip-rule="evenodd" d="M13.2959 5.66639C13.8479 5.88633 14.322 6.22517 14.6965 6.6523C14.9419 6.93216 15.2887 7.11938 15.6606 7.10432C16.1658 7.08386 16.7301 7.08081 17.3302 7.1074C17.704 7.12396 18.0531 6.93601 18.2995 6.65451C18.6743 6.22634 19.1491 5.88671 19.7019 5.66639C19.903 5.58047 20.2503 5.45188 21.1111 5.29138C21.6318 5.1943 22.8707 5.14099 23.7069 5.12201C24.57 5.10242 25.4981 5.10316 26.1921 5.10371L26.5066 5.10389C27.696 5.10389 28.8694 5.47968 29.3348 5.76014C30.3816 6.29139 31.3504 7.30701 31.4199 9.05473C31.4227 9.08087 31.4246 9.10722 31.4254 9.13372C31.5079 11.8221 29.8385 15.6671 25.5824 16.7208C25.2832 16.7948 24.9892 16.8487 24.6943 16.8893C24.68 16.8913 24.6656 16.8929 24.6512 16.8943C20.3453 17.2978 17.502 13.659 17.3614 9.70014C17.3498 9.37332 17.0989 9.09664 16.7719 9.09093C16.5853 9.08767 16.404 9.08744 16.2292 9.0897C15.9009 9.09393 15.6483 9.37144 15.6367 9.69957C15.4978 13.6586 12.6517 17.2977 8.34672 16.8943C8.33231 16.8929 8.31794 16.8913 8.3036 16.8893C8.0087 16.8487 7.71466 16.7948 7.41551 16.7208C3.15942 15.6671 1.49001 11.8221 1.57248 9.13372C1.57329 9.10722 1.57515 9.08087 1.57804 9.05473C1.64751 7.30701 2.61626 6.29139 3.66314 5.76014C4.12846 5.47968 5.30188 5.10389 6.49126 5.10389L6.80582 5.10371C7.49977 5.10316 8.42786 5.10242 9.29097 5.12201C10.1272 5.14099 11.366 5.1943 11.8867 5.29138C12.7476 5.45188 13.0949 5.58047 13.2959 5.66639ZM2.98946 8.16506C3.23935 7.55643 3.70319 7.05906 4.32764 6.6827C4.67876 6.47107 5.52691 6.10389 6.49126 6.10389L6.802 6.10372C8.19465 6.10261 10.4764 6.10078 11.3311 6.26014C12.1596 6.4146 12.4275 6.52706 12.542 6.57654C13.0115 6.76132 13.4209 7.06554 13.7329 7.45175L14.0746 9.2663C14.1562 9.25095 14.2565 9.23462 14.3736 9.21831C14.3739 9.23482 14.3741 9.25137 14.3741 9.26795L14.3739 9.29915C14.5536 13.5101 11.3467 16.0481 8.34673 15.7668C8.08152 15.7303 7.82261 15.6826 7.56248 15.6182C4.4022 14.8358 3.07541 12.3461 2.82299 10.1426C2.78412 9.80332 2.77072 9.47079 2.78004 9.15233L2.78031 9.14339L2.78232 9.14346L2.78269 9.13372C2.79661 8.78513 2.86759 8.46187 2.98946 8.16506ZM18.6241 9.22468C18.6239 9.23908 18.6238 9.2535 18.6238 9.26795L18.624 9.29915C18.4443 13.5101 21.6512 16.0481 24.6512 15.7668C24.9164 15.7303 25.1753 15.6826 25.4354 15.6182C28.5957 14.8358 29.9225 12.3461 30.1749 10.1426C30.2138 9.80332 30.2272 9.47079 30.2179 9.15233L30.2176 9.14339L30.2156 9.14346L30.2152 9.13372C30.2013 8.78513 30.1303 8.46187 30.0084 8.16506C29.7585 7.55643 29.2947 7.05906 28.6703 6.6827C28.3191 6.47107 27.471 6.10389 26.5066 6.10389L26.1959 6.10372C24.8032 6.10261 22.5215 6.10078 21.6668 6.26014C20.8383 6.4146 20.5704 6.52706 20.4559 6.57654C19.9684 6.76839 19.5457 7.08898 19.2296 7.49642L18.956 9.27191C18.845 9.2548 18.7343 9.23908 18.6241 9.22468Z" fill="url(#paint11_radial_68_3132)"/>
<path fill-rule="evenodd" clip-rule="evenodd" d="M13.2959 5.66639C13.8479 5.88633 14.322 6.22517 14.6965 6.6523C14.9419 6.93216 15.2887 7.11938 15.6606 7.10432C16.1658 7.08386 16.7301 7.08081 17.3302 7.1074C17.704 7.12396 18.0531 6.93601 18.2995 6.65451C18.6743 6.22634 19.1491 5.88671 19.7019 5.66639C19.903 5.58047 20.2503 5.45188 21.1111 5.29138C21.6318 5.1943 22.8707 5.14099 23.7069 5.12201C24.57 5.10242 25.4981 5.10316 26.1921 5.10371L26.5066 5.10389C27.696 5.10389 28.8694 5.47968 29.3348 5.76014C30.3816 6.29139 31.3504 7.30701 31.4199 9.05473C31.4227 9.08087 31.4246 9.10722 31.4254 9.13372C31.5079 11.8221 29.8385 15.6671 25.5824 16.7208C25.2832 16.7948 24.9892 16.8487 24.6943 16.8893C24.68 16.8913 24.6656 16.8929 24.6512 16.8943C20.3453 17.2978 17.502 13.659 17.3614 9.70014C17.3498 9.37332 17.0989 9.09664 16.7719 9.09093C16.5853 9.08767 16.404 9.08744 16.2292 9.0897C15.9009 9.09393 15.6483 9.37144 15.6367 9.69957C15.4978 13.6586 12.6517 17.2977 8.34672 16.8943C8.33231 16.8929 8.31794 16.8913 8.3036 16.8893C8.0087 16.8487 7.71466 16.7948 7.41551 16.7208C3.15942 15.6671 1.49001 11.8221 1.57248 9.13372C1.57329 9.10722 1.57515 9.08087 1.57804 9.05473C1.64751 7.30701 2.61626 6.29139 3.66314 5.76014C4.12846 5.47968 5.30188 5.10389 6.49126 5.10389L6.80582 5.10371C7.49977 5.10316 8.42786 5.10242 9.29097 5.12201C10.1272 5.14099 11.366 5.1943 11.8867 5.29138C12.7476 5.45188 13.0949 5.58047 13.2959 5.66639ZM2.98946 8.16506C3.23935 7.55643 3.70319 7.05906 4.32764 6.6827C4.67876 6.47107 5.52691 6.10389 6.49126 6.10389L6.802 6.10372C8.19465 6.10261 10.4764 6.10078 11.3311 6.26014C12.1596 6.4146 12.4275 6.52706 12.542 6.57654C13.0115 6.76132 13.4209 7.06554 13.7329 7.45175L14.0746 9.2663C14.1562 9.25095 14.2565 9.23462 14.3736 9.21831C14.3739 9.23482 14.3741 9.25137 14.3741 9.26795L14.3739 9.29915C14.5536 13.5101 11.3467 16.0481 8.34673 15.7668C8.08152 15.7303 7.82261 15.6826 7.56248 15.6182C4.4022 14.8358 3.07541 12.3461 2.82299 10.1426C2.78412 9.80332 2.77072 9.47079 2.78004 9.15233L2.78031 9.14339L2.78232 9.14346L2.78269 9.13372C2.79661 8.78513 2.86759 8.46187 2.98946 8.16506ZM18.6241 9.22468C18.6239 9.23908 18.6238 9.2535 18.6238 9.26795L18.624 9.29915C18.4443 13.5101 21.6512 16.0481 24.6512 15.7668C24.9164 15.7303 25.1753 15.6826 25.4354 15.6182C28.5957 14.8358 29.9225 12.3461 30.1749 10.1426C30.2138 9.80332 30.2272 9.47079 30.2179 9.15233L30.2176 9.14339L30.2156 9.14346L30.2152 9.13372C30.2013 8.78513 30.1303 8.46187 30.0084 8.16506C29.7585 7.55643 29.2947 7.05906 28.6703 6.6827C28.3191 6.47107 27.471 6.10389 26.5066 6.10389L26.1959 6.10372C24.8032 6.10261 22.5215 6.10078 21.6668 6.26014C20.8383 6.4146 20.5704 6.52706 20.4559 6.57654C19.9684 6.76839 19.5457 7.08898 19.2296 7.49642L18.956 9.27191C18.845 9.2548 18.7343 9.23908 18.6241 9.22468Z" fill="url(#paint12_radial_68_3132)"/>
<path d="M4.32766 6.6827C4.67878 6.47107 5.52694 6.10389 6.49128 6.10389C6.58862 6.10389 6.69258 6.1038 6.80203 6.10372C8.19467 6.1026 10.4764 6.10078 11.3311 6.26013C12.1596 6.41459 12.4275 6.52706 12.5421 6.57654C13.6151 6.99884 14.3741 8.045 14.3741 9.26795L14.3739 9.29915C14.5536 13.5101 11.3468 16.0481 8.34675 15.7668C8.08154 15.7303 7.82263 15.6826 7.56251 15.6182C3.91076 14.7142 2.70711 11.5304 2.78034 9.14295L2.78235 9.14346C2.82168 8.07536 3.39586 7.24431 4.32766 6.6827Z" fill="url(#paint13_radial_68_3132)"/>
<path d="M4.32766 6.6827C4.67878 6.47107 5.52694 6.10389 6.49128 6.10389C6.58862 6.10389 6.69258 6.1038 6.80203 6.10372C8.19467 6.1026 10.4764 6.10078 11.3311 6.26013C12.1596 6.41459 12.4275 6.52706 12.5421 6.57654C13.6151 6.99884 14.3741 8.045 14.3741 9.26795L14.3739 9.29915C14.5536 13.5101 11.3468 16.0481 8.34675 15.7668C8.08154 15.7303 7.82263 15.6826 7.56251 15.6182C3.91076 14.7142 2.70711 11.5304 2.78034 9.14295L2.78235 9.14346C2.82168 8.07536 3.39586 7.24431 4.32766 6.6827Z" fill="url(#paint14_radial_68_3132)"/>
<path d="M4.32766 6.6827C4.67878 6.47107 5.52694 6.10389 6.49128 6.10389C6.58862 6.10389 6.69258 6.1038 6.80203 6.10372C8.19467 6.1026 10.4764 6.10078 11.3311 6.26013C12.1596 6.41459 12.4275 6.52706 12.5421 6.57654C13.6151 6.99884 14.3741 8.045 14.3741 9.26795L14.3739 9.29915C14.5536 13.5101 11.3468 16.0481 8.34675 15.7668C8.08154 15.7303 7.82263 15.6826 7.56251 15.6182C3.91076 14.7142 2.70711 11.5304 2.78034 9.14295L2.78235 9.14346C2.82168 8.07536 3.39586 7.24431 4.32766 6.6827Z" fill="url(#paint15_radial_68_3132)"/>
<path d="M4.32766 6.6827C4.67878 6.47107 5.52694 6.10389 6.49128 6.10389C6.58862 6.10389 6.69258 6.1038 6.80203 6.10372C8.19467 6.1026 10.4764 6.10078 11.3311 6.26013C12.1596 6.41459 12.4275 6.52706 12.5421 6.57654C13.6151 6.99884 14.3741 8.045 14.3741 9.26795L14.3739 9.29915C14.5536 13.5101 11.3468 16.0481 8.34675 15.7668C8.08154 15.7303 7.82263 15.6826 7.56251 15.6182C3.91076 14.7142 2.70711 11.5304 2.78034 9.14295L2.78235 9.14346C2.82168 8.07536 3.39586 7.24431 4.32766 6.6827Z" fill="url(#paint16_radial_68_3132)"/>
<ellipse cx="11.6381" cy="9.14283" rx="1.49418" ry="1.8791" transform="rotate(-25.8832 11.6381 9.14283)" fill="url(#paint17_linear_68_3132)"/>
<path d="M28.6703 6.6827C28.3191 6.47107 27.471 6.10389 26.5066 6.10389C26.4093 6.10389 26.3053 6.1038 26.1959 6.10372C24.8032 6.1026 22.5215 6.10078 21.6668 6.26013C20.8383 6.41459 20.5704 6.52706 20.4559 6.57654C19.3828 6.99884 18.6238 8.045 18.6238 9.26795L18.624 9.29915C18.4443 13.5101 21.6512 16.0481 24.6512 15.7668C24.9164 15.7303 25.1753 15.6826 25.4354 15.6182C29.0872 14.7142 30.2908 11.5304 30.2176 9.14295L30.2156 9.14346C30.1762 8.07536 29.6021 7.24431 28.6703 6.6827Z" fill="url(#paint18_radial_68_3132)"/>
<path d="M28.6703 6.6827C28.3191 6.47107 27.471 6.10389 26.5066 6.10389C26.4093 6.10389 26.3053 6.1038 26.1959 6.10372C24.8032 6.1026 22.5215 6.10078 21.6668 6.26013C20.8383 6.41459 20.5704 6.52706 20.4559 6.57654C19.3828 6.99884 18.6238 8.045 18.6238 9.26795L18.624 9.29915C18.4443 13.5101 21.6512 16.0481 24.6512 15.7668C24.9164 15.7303 25.1753 15.6826 25.4354 15.6182C29.0872 14.7142 30.2908 11.5304 30.2176 9.14295L30.2156 9.14346C30.1762 8.07536 29.6021 7.24431 28.6703 6.6827Z" fill="url(#paint19_radial_68_3132)"/>
<path d="M28.6703 6.6827C28.3191 6.47107 27.471 6.10389 26.5066 6.10389C26.4093 6.10389 26.3053 6.1038 26.1959 6.10372C24.8032 6.1026 22.5215 6.10078 21.6668 6.26013C20.8383 6.41459 20.5704 6.52706 20.4559 6.57654C19.3828 6.99884 18.6238 8.045 18.6238 9.26795L18.624 9.29915C18.4443 13.5101 21.6512 16.0481 24.6512 15.7668C24.9164 15.7303 25.1753 15.6826 25.4354 15.6182C29.0872 14.7142 30.2908 11.5304 30.2176 9.14295L30.2156 9.14346C30.1762 8.07536 29.6021 7.24431 28.6703 6.6827Z" fill="url(#paint20_radial_68_3132)"/>
<path d="M28.6703 6.6827C28.3191 6.47107 27.471 6.10389 26.5066 6.10389C26.4093 6.10389 26.3053 6.1038 26.1959 6.10372C24.8032 6.1026 22.5215 6.10078 21.6668 6.26013C20.8383 6.41459 20.5704 6.52706 20.4559 6.57654C19.3828 6.99884 18.6238 8.045 18.6238 9.26795L18.624 9.29915C18.4443 13.5101 21.6512 16.0481 24.6512 15.7668C24.9164 15.7303 25.1753 15.6826 25.4354 15.6182C29.0872 14.7142 30.2908 11.5304 30.2176 9.14295L30.2156 9.14346C30.1762 8.07536 29.6021 7.24431 28.6703 6.6827Z" fill="url(#paint21_radial_68_3132)"/>
<ellipse cx="27.6723" cy="9.14283" rx="1.49418" ry="1.8791" transform="rotate(-25.8832 27.6723 9.14283)" fill="url(#paint22_linear_68_3132)"/>
<defs>
<radialGradient id="paint0_radial_68_3132" cx="0" cy="0" r="1" gradientUnits="userSpaceOnUse" gradientTransform="translate(25.9989 9) rotate(131.878) scale(38.9487)">
<stop stop-color="#FFF478"/>
<stop offset="0.474827" stop-color="#FFB02E"/>
<stop offset="1" stop-color="#F70A8D"/>
</radialGradient>
<radialGradient id="paint1_radial_68_3132" cx="0" cy="0" r="1" gradientUnits="userSpaceOnUse" gradientTransform="translate(16.4989 12.5) rotate(101.31) scale(17.8466 22.8581)">
<stop offset="0.787821" stop-color="#F59639" stop-opacity="0"/>
<stop offset="0.972509" stop-color="#FF7DCE"/>
</radialGradient>
<radialGradient id="paint2_radial_68_3132" cx="0" cy="0" r="1" gradientUnits="userSpaceOnUse" gradientTransform="translate(18.4989 14) rotate(135) scale(41.0122)">
<stop offset="0.314853" stop-opacity="0"/>
<stop offset="1"/>
</radialGradient>
<radialGradient id="paint3_radial_68_3132" cx="0" cy="0" r="1" gradientUnits="userSpaceOnUse" gradientTransform="translate(16.4989 17) rotate(77.692) scale(28.1469)">
<stop offset="0.507903" stop-color="#7D6133" stop-opacity="0"/>
<stop offset="1" stop-color="#715B32"/>
</radialGradient>
<radialGradient id="paint4_radial_68_3132" cx="0" cy="0" r="1" gradientUnits="userSpaceOnUse" gradientTransform="translate(16.9989 16.5) rotate(55.7131) scale(13.3135 9.65032)">
<stop stop-color="#FFB849"/>
<stop offset="1" stop-color="#FFB847" stop-opacity="0"/>
</radialGradient>
<radialGradient id="paint5_radial_68_3132" cx="0" cy="0" r="1" gradientUnits="userSpaceOnUse" gradientTransform="translate(20.9989 18) rotate(9.86581) scale(11.6726)">
<stop stop-color="#FFA64B"/>
<stop offset="0.900412" stop-color="#FFAE46" stop-opacity="0"/>
</radialGradient>
<radialGradient id="paint6_radial_68_3132" cx="0" cy="0" r="1" gradientUnits="userSpaceOnUse" gradientTransform="translate(17.9989 15) rotate(43.9708) scale(59.0529)">
<stop offset="0.185425" stop-opacity="0"/>
<stop offset="1" stop-opacity="0.4"/>
</radialGradient>
<radialGradient id="paint7_radial_68_3132" cx="0" cy="0" r="1" gradientUnits="userSpaceOnUse" gradientTransform="translate(22.2579 11.7809) rotate(124.346) scale(6.28715 7.7239)">
<stop offset="0.440361" stop-color="#BC6533"/>
<stop offset="1" stop-color="#BC6533" stop-opacity="0"/>
</radialGradient>
<radialGradient id="paint8_radial_68_3132" cx="0" cy="0" r="1" gradientUnits="userSpaceOnUse" gradientTransform="translate(8.05465 11.4418) rotate(67.4259) scale(7.39363)">
<stop offset="0.538073" stop-color="#BC6533"/>
<stop offset="1" stop-color="#BC6533" stop-opacity="0"/>
</radialGradient>
<radialGradient id="paint9_radial_68_3132" cx="0" cy="0" r="1" gradientUnits="userSpaceOnUse" gradientTransform="translate(16.4989 17.8147) rotate(90) scale(10.9375 16.8684)">
<stop offset="0.145833" stop-color="#2E1529"/>
<stop offset="0.276042" stop-color="#503A4A"/>
<stop offset="0.342857" stop-color="#4B2744"/>
</radialGradient>
<radialGradient id="paint10_radial_68_3132" cx="0" cy="0" r="1" gradientUnits="userSpaceOnUse" gradientTransform="translate(21.6238 5.75232) rotate(78.8614) scale(12.2941 25.4762)">
<stop stop-color="#5F5B9B"/>
<stop offset="1" stop-color="#5C3085"/>
</radialGradient>
<radialGradient id="paint11_radial_68_3132" cx="0" cy="0" r="1" gradientUnits="userSpaceOnUse" gradientTransform="translate(24.3896 11.0135) rotate(78.0636) scale(5.51431 6.19479)">
<stop offset="0.776042" stop-color="#77579C"/>
<stop offset="0.9375" stop-color="#77579C" stop-opacity="0"/>
</radialGradient>
<radialGradient id="paint12_radial_68_3132" cx="0" cy="0" r="1" gradientUnits="userSpaceOnUse" gradientTransform="translate(22.3738 10.0023) rotate(-122.735) scale(4.68093 3.43606)">
<stop offset="0.769354" stop-color="#4E3D92"/>
<stop offset="1" stop-color="#534687" stop-opacity="0"/>
</radialGradient>
<radialGradient id="paint13_radial_68_3132" cx="0" cy="0" r="1" gradientUnits="userSpaceOnUse" gradientTransform="translate(11.1865 9.06482) rotate(121.845) scale(5.92276 6.72838)">
<stop stop-color="#4C3D70"/>
<stop offset="1" stop-color="#361C5D"/>
</radialGradient>
<radialGradient id="paint14_radial_68_3132" cx="0" cy="0" r="1" gradientUnits="userSpaceOnUse" gradientTransform="translate(9.96785 9.22107) rotate(87.1376) scale(7.50937 11.1509)">
<stop offset="0.647365" stop-color="#5B2B84" stop-opacity="0"/>
<stop offset="1" stop-color="#5B2B84"/>
</radialGradient>
<radialGradient id="paint15_radial_68_3132" cx="0" cy="0" r="1" gradientUnits="userSpaceOnUse" gradientTransform="translate(8.28035 16.7836) rotate(-99.5134) scale(11.5336 11.4216)">
<stop offset="0.858612" stop-color="#2E1D57" stop-opacity="0"/>
<stop offset="1" stop-color="#20143D"/>
</radialGradient>
<radialGradient id="paint16_radial_68_3132" cx="0" cy="0" r="1" gradientUnits="userSpaceOnUse" gradientTransform="translate(9.2491 8.47107) rotate(102.225) scale(7.67402 7.20221)">
<stop offset="0.872281" stop-color="#2E1D57" stop-opacity="0"/>
<stop offset="1" stop-color="#20143D" stop-opacity="0.6"/>
</radialGradient>
<linearGradient id="paint17_linear_68_3132" x1="12.2919" y1="7.79538" x2="10.8984" y2="10.9574" gradientUnits="userSpaceOnUse">
<stop stop-color="white"/>
<stop offset="0.973958" stop-color="white" stop-opacity="0"/>
</linearGradient>
<radialGradient id="paint18_radial_68_3132" cx="0" cy="0" r="1" gradientUnits="userSpaceOnUse" gradientTransform="translate(25.1552 8.65857) rotate(121.289) scale(6.61888 9.94211)">
<stop stop-color="#4C3D70"/>
<stop offset="1" stop-color="#361C5D"/>
</radialGradient>
<radialGradient id="paint19_radial_68_3132" cx="0" cy="0" r="1" gradientUnits="userSpaceOnUse" gradientTransform="translate(23.0301 9.22107) rotate(92.8624) scale(7.50937 11.1509)">
<stop offset="0.647365" stop-color="#5B2B84" stop-opacity="0"/>
<stop offset="1" stop-color="#5B2B84"/>
</radialGradient>
<radialGradient id="paint20_radial_68_3132" cx="0" cy="0" r="1" gradientUnits="userSpaceOnUse" gradientTransform="translate(24.4187 15.4398) rotate(-77.6023) scale(10.2708 10.171)">
<stop offset="0.858612" stop-color="#2E1D57" stop-opacity="0"/>
<stop offset="1" stop-color="#20143D"/>
</radialGradient>
<radialGradient id="paint21_radial_68_3132" cx="0" cy="0" r="1" gradientUnits="userSpaceOnUse" gradientTransform="translate(23.7488 8.47107) rotate(77.7749) scale(7.67402 7.20221)">
<stop offset="0.872281" stop-color="#2E1D57" stop-opacity="0"/>
<stop offset="1" stop-color="#20143D" stop-opacity="0.6"/>
</radialGradient>
<linearGradient id="paint22_linear_68_3132" x1="28.3261" y1="7.79538" x2="26.9326" y2="10.9574" gradientUnits="userSpaceOnUse">
<stop stop-color="white"/>
<stop offset="0.973958" stop-color="white" stop-opacity="0"/>
</linearGradient>
</defs>
</svg>
