<svg width="33" height="32" viewBox="0 0 33 32" fill="none" xmlns="http://www.w3.org/2000/svg">
<g clip-path="url(#clip0_68_3130)">
<path d="M16.4989 29.9978C25.8333 29.9978 30.4978 23.7303 30.4978 15.9989C30.4978 8.26751 25.8333 2 16.4989 2C7.16443 2 2.5 8.26751 2.5 15.9989C2.5 23.7303 7.16443 29.9978 16.4989 29.9978Z" fill="url(#paint0_radial_68_3130)"/>
<path d="M16.4989 29.9978C25.8333 29.9978 30.4978 23.7303 30.4978 15.9989C30.4978 8.26751 25.8333 2 16.4989 2C7.16443 2 2.5 8.26751 2.5 15.9989C2.5 23.7303 7.16443 29.9978 16.4989 29.9978Z" fill="url(#paint1_radial_68_3130)"/>
<path d="M16.4989 29.9978C25.8333 29.9978 30.4978 23.7303 30.4978 15.9989C30.4978 8.26751 25.8333 2 16.4989 2C7.16443 2 2.5 8.26751 2.5 15.9989C2.5 23.7303 7.16443 29.9978 16.4989 29.9978Z" fill="url(#paint2_radial_68_3130)"/>
<path d="M16.4989 29.9978C25.8333 29.9978 30.4978 23.7303 30.4978 15.9989C30.4978 8.26751 25.8333 2 16.4989 2C7.16443 2 2.5 8.26751 2.5 15.9989C2.5 23.7303 7.16443 29.9978 16.4989 29.9978Z" fill="url(#paint3_radial_68_3130)" fill-opacity="0.6"/>
<path d="M16.4989 29.9978C25.8333 29.9978 30.4978 23.7303 30.4978 15.9989C30.4978 8.26751 25.8333 2 16.4989 2C7.16443 2 2.5 8.26751 2.5 15.9989C2.5 23.7303 7.16443 29.9978 16.4989 29.9978Z" fill="url(#paint4_radial_68_3130)"/>
<path d="M16.4989 29.9978C25.8333 29.9978 30.4978 23.7303 30.4978 15.9989C30.4978 8.26751 25.8333 2 16.4989 2C7.16443 2 2.5 8.26751 2.5 15.9989C2.5 23.7303 7.16443 29.9978 16.4989 29.9978Z" fill="url(#paint5_radial_68_3130)"/>
<path d="M16.4989 29.9978C25.8333 29.9978 30.4978 23.7303 30.4978 15.9989C30.4978 8.26751 25.8333 2 16.4989 2C7.16443 2 2.5 8.26751 2.5 15.9989C2.5 23.7303 7.16443 29.9978 16.4989 29.9978Z" fill="url(#paint6_radial_68_3130)"/>
<path d="M16.4989 29.9978C25.8333 29.9978 30.4978 23.7303 30.4978 15.9989C30.4978 8.26751 25.8333 2 16.4989 2C7.16443 2 2.5 8.26751 2.5 15.9989C2.5 23.7303 7.16443 29.9978 16.4989 29.9978Z" fill="url(#paint7_radial_68_3130)"/>
<path d="M16.4989 29.9978C25.8333 29.9978 30.4978 23.7303 30.4978 15.9989C30.4978 8.26751 25.8333 2 16.4989 2C7.16443 2 2.5 8.26751 2.5 15.9989C2.5 23.7303 7.16443 29.9978 16.4989 29.9978Z" fill="url(#paint8_radial_68_3130)"/>
<path d="M16.4989 29.9978C25.8333 29.9978 30.4978 23.7303 30.4978 15.9989C30.4978 8.26751 25.8333 2 16.4989 2C7.16443 2 2.5 8.26751 2.5 15.9989C2.5 23.7303 7.16443 29.9978 16.4989 29.9978Z" fill="url(#paint9_radial_68_3130)"/>
<path d="M16.4989 29.9978C25.8333 29.9978 30.4978 23.7303 30.4978 15.9989C30.4978 8.26751 25.8333 2 16.4989 2C7.16443 2 2.5 8.26751 2.5 15.9989C2.5 23.7303 7.16443 29.9978 16.4989 29.9978Z" fill="url(#paint10_radial_68_3130)"/>
<path d="M16.4989 29.9978C25.8333 29.9978 30.4978 23.7303 30.4978 15.9989C30.4978 8.26751 25.8333 2 16.4989 2C7.16443 2 2.5 8.26751 2.5 15.9989C2.5 23.7303 7.16443 29.9978 16.4989 29.9978Z" fill="url(#paint11_radial_68_3130)"/>
<path d="M16.4989 29.9978C25.8333 29.9978 30.4978 23.7303 30.4978 15.9989C30.4978 8.26751 25.8333 2 16.4989 2C7.16443 2 2.5 8.26751 2.5 15.9989C2.5 23.7303 7.16443 29.9978 16.4989 29.9978Z" fill="url(#paint12_radial_68_3130)"/>
<path d="M16.4989 29.9978C25.8333 29.9978 30.4978 23.7303 30.4978 15.9989C30.4978 8.26751 25.8333 2 16.4989 2C7.16443 2 2.5 8.26751 2.5 15.9989C2.5 23.7303 7.16443 29.9978 16.4989 29.9978Z" fill="url(#paint13_radial_68_3130)"/>
<path d="M16.4989 29.9978C25.8333 29.9978 30.4978 23.7303 30.4978 15.9989C30.4978 8.26751 25.8333 2 16.4989 2C7.16443 2 2.5 8.26751 2.5 15.9989C2.5 23.7303 7.16443 29.9978 16.4989 29.9978Z" fill="url(#paint14_radial_68_3130)"/>
<path d="M16.4989 29.9978C25.8333 29.9978 30.4978 23.7303 30.4978 15.9989C30.4978 8.26751 25.8333 2 16.4989 2C7.16443 2 2.5 8.26751 2.5 15.9989C2.5 23.7303 7.16443 29.9978 16.4989 29.9978Z" fill="url(#paint15_radial_68_3130)"/>
<path d="M16.4989 29.9978C25.8333 29.9978 30.4978 23.7303 30.4978 15.9989C30.4978 8.26751 25.8333 2 16.4989 2C7.16443 2 2.5 8.26751 2.5 15.9989C2.5 23.7303 7.16443 29.9978 16.4989 29.9978Z" fill="url(#paint16_radial_68_3130)"/>
<path d="M16.4989 29.9978C25.8333 29.9978 30.4978 23.7303 30.4978 15.9989C30.4978 8.26751 25.8333 2 16.4989 2C7.16443 2 2.5 8.26751 2.5 15.9989C2.5 23.7303 7.16443 29.9978 16.4989 29.9978Z" fill="url(#paint17_radial_68_3130)"/>
<path d="M16.4989 29.9978C25.8333 29.9978 30.4978 23.7303 30.4978 15.9989C30.4978 8.26751 25.8333 2 16.4989 2C7.16443 2 2.5 8.26751 2.5 15.9989C2.5 23.7303 7.16443 29.9978 16.4989 29.9978Z" fill="url(#paint18_radial_68_3130)"/>
<path d="M14 18C14 18 15.5 16.5 15.5 14.5C15.5 12.0147 13.4853 10 11 10C8.51472 10 6.5 12.0147 6.5 14.5C6.5 16.5 7.54226 17.3801 7.54226 17.3801C7.54226 17.3801 9.55528 16.8367 11 17C13 17.226 14 18 14 18Z" fill="white"/>
<path d="M13.5 14.25C13.5 15.3546 12.6046 16.25 11.5 16.25C10.3954 16.25 9.5 15.3546 9.5 14.25C9.5 13.1454 10.3954 12.25 11.5 12.25C12.6046 12.25 13.5 13.1454 13.5 14.25Z" fill="url(#paint19_linear_68_3130)"/>
<path fill-rule="evenodd" clip-rule="evenodd" d="M22 13.9999C20.7271 13.9999 20.292 14.9313 20.224 15.2423C20.1068 15.7781 19.6317 16.1038 19.1629 15.9699C18.6942 15.836 18.4091 15.2931 18.5263 14.7573C18.7499 13.7351 19.7731 12 22 12C24.2269 12 25.2501 13.7351 25.4737 14.7573C25.5909 15.2931 25.3058 15.836 24.8371 15.9699C24.3683 16.1038 23.8932 15.7781 23.776 15.2423C23.708 14.9313 23.2729 13.9999 22 13.9999Z" fill="url(#paint20_radial_68_3130)"/>
<path d="M16.5 26C9.5 26 9.5 19 9.5 19H23.5C23.5 19 23.5 26 16.5 26Z" fill="url(#paint21_radial_68_3130)"/>
<path fill-rule="evenodd" clip-rule="evenodd" d="M24.4306 9.98761C25.0235 10.5505 25.3821 11.2277 25.5255 11.6581C25.6128 11.9201 25.896 12.0617 26.158 11.9743C26.4199 11.887 26.5615 11.6039 26.4742 11.3419C26.2843 10.7723 25.8429 9.94951 25.1191 9.26239C24.3869 8.5672 23.352 8 21.9999 8C21.7237 8 21.4999 8.22386 21.4999 8.5C21.4999 8.77614 21.7237 9 21.9999 9C23.0478 9 23.8462 9.4328 24.4306 9.98761Z" fill="url(#paint22_radial_68_3130)"/>
<path fill-rule="evenodd" clip-rule="evenodd" d="M24.4306 9.98761C25.0235 10.5505 25.3821 11.2277 25.5255 11.6581C25.6128 11.9201 25.896 12.0617 26.158 11.9743C26.4199 11.887 26.5615 11.6039 26.4742 11.3419C26.2843 10.7723 25.8429 9.94951 25.1191 9.26239C24.3869 8.5672 23.352 8 21.9999 8C21.7237 8 21.4999 8.22386 21.4999 8.5C21.4999 8.77614 21.7237 9 21.9999 9C23.0478 9 23.8462 9.4328 24.4306 9.98761Z" fill="url(#paint23_radial_68_3130)"/>
<path fill-rule="evenodd" clip-rule="evenodd" d="M8.56939 7.98761C7.97649 8.55049 7.61794 9.22774 7.47448 9.65811C7.38715 9.92009 7.10399 10.0617 6.84202 9.97434C6.58005 9.88702 6.43847 9.60386 6.52579 9.34189C6.71567 8.77226 7.15711 7.94951 7.88088 7.26239C8.61314 6.5672 9.64804 6 11.0001 6C11.2763 6 11.5001 6.22386 11.5001 6.5C11.5001 6.77614 11.2763 7 11.0001 7C9.95223 7 9.15379 7.4328 8.56939 7.98761Z" fill="url(#paint24_radial_68_3130)"/>
<path fill-rule="evenodd" clip-rule="evenodd" d="M8.56939 7.98761C7.97649 8.55049 7.61794 9.22774 7.47448 9.65811C7.38715 9.92009 7.10399 10.0617 6.84202 9.97434C6.58005 9.88702 6.43847 9.60386 6.52579 9.34189C6.71567 8.77226 7.15711 7.94951 7.88088 7.26239C8.61314 6.5672 9.64804 6 11.0001 6C11.2763 6 11.5001 6.22386 11.5001 6.5C11.5001 6.77614 11.2763 7 11.0001 7C9.95223 7 9.15379 7.4328 8.56939 7.98761Z" fill="url(#paint25_radial_68_3130)"/>
<path d="M23.5 19C23.5 19 23.499 19.6242 23.3125 20.5H9.6875C9.50102 19.6242 9.5 19 9.5 19H23.5Z" fill="url(#paint26_linear_68_3130)"/>
</g>
<defs>
<radialGradient id="paint0_radial_68_3130" cx="0" cy="0" r="1" gradientUnits="userSpaceOnUse" gradientTransform="translate(26 9) rotate(132.839) scale(37.5033)">
<stop stop-color="#FFF478"/>
<stop offset="0.474827" stop-color="#FFB02E"/>
<stop offset="1" stop-color="#F70A8D"/>
</radialGradient>
<radialGradient id="paint1_radial_68_3130" cx="0" cy="0" r="1" gradientUnits="userSpaceOnUse" gradientTransform="translate(26 9) rotate(131.878) scale(38.9487)">
<stop stop-color="#FFF478"/>
<stop offset="0.474827" stop-color="#FFB02E"/>
<stop offset="1" stop-color="#F70A8D"/>
</radialGradient>
<radialGradient id="paint2_radial_68_3130" cx="0" cy="0" r="1" gradientUnits="userSpaceOnUse" gradientTransform="translate(16.5 12.5) rotate(101.31) scale(17.8466 22.8581)">
<stop offset="0.787821" stop-color="#F59639" stop-opacity="0"/>
<stop offset="0.972509" stop-color="#FF7DCE"/>
</radialGradient>
<radialGradient id="paint3_radial_68_3130" cx="0" cy="0" r="1" gradientUnits="userSpaceOnUse" gradientTransform="translate(18.5 14) rotate(135) scale(41.0122)">
<stop offset="0.314853" stop-opacity="0"/>
<stop offset="1"/>
</radialGradient>
<radialGradient id="paint4_radial_68_3130" cx="0" cy="0" r="1" gradientUnits="userSpaceOnUse" gradientTransform="translate(16.5 17) rotate(77.692) scale(28.1469)">
<stop offset="0.507903" stop-color="#7D6133" stop-opacity="0"/>
<stop offset="1" stop-color="#715B32"/>
</radialGradient>
<radialGradient id="paint5_radial_68_3130" cx="0" cy="0" r="1" gradientUnits="userSpaceOnUse" gradientTransform="translate(17 16.5) rotate(55.7131) scale(13.3135 9.65032)">
<stop stop-color="#FFB849"/>
<stop offset="1" stop-color="#FFB847" stop-opacity="0"/>
</radialGradient>
<radialGradient id="paint6_radial_68_3130" cx="0" cy="0" r="1" gradientUnits="userSpaceOnUse" gradientTransform="translate(21 18) rotate(9.86581) scale(11.6726)">
<stop stop-color="#FFA64B"/>
<stop offset="0.900412" stop-color="#FFAE46" stop-opacity="0"/>
</radialGradient>
<radialGradient id="paint7_radial_68_3130" cx="0" cy="0" r="1" gradientUnits="userSpaceOnUse" gradientTransform="translate(18 15) rotate(43.9708) scale(59.0529)">
<stop offset="0.185425" stop-opacity="0"/>
<stop offset="1" stop-opacity="0.4"/>
</radialGradient>
<radialGradient id="paint8_radial_68_3130" cx="0" cy="0" r="1" gradientUnits="userSpaceOnUse" gradientTransform="translate(12.1725 14.7697) rotate(86.5467) scale(3.7592 3.81207)">
<stop stop-color="#B3671F"/>
<stop offset="0.392157" stop-color="#B3671F"/>
<stop offset="0.643397" stop-color="#B3671F" stop-opacity="0.446091"/>
<stop offset="0.806763" stop-color="#B3671F" stop-opacity="0.179254"/>
<stop offset="1" stop-color="#B3671F" stop-opacity="0"/>
</radialGradient>
<radialGradient id="paint9_radial_68_3130" cx="0" cy="0" r="1" gradientUnits="userSpaceOnUse" gradientTransform="translate(9.41035 14.1463) rotate(89.9138) scale(4.77181 4.11178)">
<stop offset="0.47452" stop-color="#B3671F"/>
<stop offset="0.781916" stop-color="#B3671F" stop-opacity="0.236695"/>
<stop offset="0.873485" stop-color="#B3671F" stop-opacity="0.0865443"/>
<stop offset="0.948588" stop-color="#B3671F" stop-opacity="0"/>
</radialGradient>
<radialGradient id="paint10_radial_68_3130" cx="0" cy="0" r="1" gradientUnits="userSpaceOnUse" gradientTransform="translate(23.8599 15.1272) rotate(46.1017) scale(1.74373 1.41318)">
<stop stop-color="#D0782E"/>
<stop offset="1" stop-color="#D0782E" stop-opacity="0"/>
</radialGradient>
<radialGradient id="paint11_radial_68_3130" cx="0" cy="0" r="1" gradientUnits="userSpaceOnUse" gradientTransform="translate(22.5797 14.1552) rotate(34.5742) scale(2.13061 0.729976)">
<stop stop-color="#D0782E"/>
<stop offset="1" stop-color="#D0782E" stop-opacity="0"/>
</radialGradient>
<radialGradient id="paint12_radial_68_3130" cx="0" cy="0" r="1" gradientUnits="userSpaceOnUse" gradientTransform="translate(21.4417 13.5388) rotate(24.7395) scale(2.66249 1.09297)">
<stop stop-color="#D0782E"/>
<stop offset="1" stop-color="#D0782E" stop-opacity="0"/>
</radialGradient>
<radialGradient id="paint13_radial_68_3130" cx="0" cy="0" r="1" gradientUnits="userSpaceOnUse" gradientTransform="translate(18.1732 14.9747) rotate(105.124) scale(1.59522 1.17734)">
<stop stop-color="#E7982E"/>
<stop offset="1" stop-color="#E39632" stop-opacity="0"/>
</radialGradient>
<radialGradient id="paint14_radial_68_3130" cx="0" cy="0" r="1" gradientUnits="userSpaceOnUse" gradientTransform="translate(25.4927 11.8214) rotate(54.1967) scale(0.949407)">
<stop stop-color="#E7982E"/>
<stop offset="1" stop-color="#E39632" stop-opacity="0"/>
</radialGradient>
<radialGradient id="paint15_radial_68_3130" cx="0" cy="0" r="1" gradientUnits="userSpaceOnUse" gradientTransform="translate(24.7101 10.5717) rotate(67.5573) scale(1.88471 0.7789)">
<stop stop-color="#E7982E"/>
<stop offset="1" stop-color="#E39632" stop-opacity="0"/>
</radialGradient>
<radialGradient id="paint16_radial_68_3130" cx="0" cy="0" r="1" gradientUnits="userSpaceOnUse" gradientTransform="translate(23.3721 9.43566) rotate(35.24) scale(3.10649 1.35087)">
<stop stop-color="#E2981B"/>
<stop offset="1" stop-color="#FFDC64" stop-opacity="0"/>
</radialGradient>
<radialGradient id="paint17_radial_68_3130" cx="0" cy="0" r="1" gradientUnits="userSpaceOnUse" gradientTransform="translate(22.1981 9.00648) rotate(28.8386) scale(2.27678 0.992083)">
<stop stop-color="#E2981B"/>
<stop offset="1" stop-color="#FFDC64" stop-opacity="0"/>
</radialGradient>
<radialGradient id="paint18_radial_68_3130" cx="0" cy="0" r="1" gradientUnits="userSpaceOnUse" gradientTransform="translate(8.72454 9.98363) rotate(-8.56089) scale(4.4529)">
<stop stop-color="#D59A13"/>
<stop offset="1" stop-color="#D59A13" stop-opacity="0"/>
</radialGradient>
<linearGradient id="paint19_linear_68_3130" x1="13.0385" y1="12.25" x2="11.3542" y2="15.5342" gradientUnits="userSpaceOnUse">
<stop stop-color="#553B3E"/>
<stop offset="1" stop-color="#3D2432"/>
</linearGradient>
<radialGradient id="paint20_radial_68_3130" cx="0" cy="0" r="1" gradientUnits="userSpaceOnUse" gradientTransform="translate(22 14.9998) rotate(90) scale(3.99976 5.12655)">
<stop offset="0.337213" stop-color="#4D274B"/>
<stop offset="0.628228" stop-color="#514047"/>
<stop offset="1" stop-color="#4E2553"/>
<stop offset="1" stop-color="#4A342F"/>
</radialGradient>
<radialGradient id="paint21_radial_68_3130" cx="0" cy="0" r="1" gradientUnits="userSpaceOnUse" gradientTransform="translate(16.5 27.5556) rotate(-90) scale(8.55556 17.1111)">
<stop stop-color="#F70A8D"/>
<stop offset="1" stop-color="#89029C"/>
</radialGradient>
<radialGradient id="paint22_radial_68_3130" cx="0" cy="0" r="1" gradientUnits="userSpaceOnUse" gradientTransform="translate(22.7234 11.498) rotate(-145.524) scale(3.94156 3.60988)">
<stop offset="0.641397" stop-color="#2F1F2A"/>
<stop offset="0.822285" stop-color="#51394C"/>
<stop offset="0.881253" stop-color="#50394C"/>
<stop offset="1" stop-color="#442E3E"/>
</radialGradient>
<radialGradient id="paint23_radial_68_3130" cx="0" cy="0" r="1" gradientUnits="userSpaceOnUse" gradientTransform="translate(23.8118 10.0001) rotate(129.805) scale(4.05269 3.26964)">
<stop offset="0.645531" stop-color="#362530" stop-opacity="0"/>
<stop offset="1" stop-color="#342330"/>
</radialGradient>
<radialGradient id="paint24_radial_68_3130" cx="0" cy="0" r="1" gradientUnits="userSpaceOnUse" gradientTransform="translate(10.3566 9.81565) rotate(-124.747) scale(3.41018 4.28513)">
<stop offset="0.552138" stop-color="#4A2F37"/>
<stop offset="0.822285" stop-color="#51394C"/>
<stop offset="0.881253" stop-color="#50394C"/>
<stop offset="1" stop-color="#4D3635"/>
</radialGradient>
<radialGradient id="paint25_radial_68_3130" cx="0" cy="0" r="1" gradientUnits="userSpaceOnUse" gradientTransform="translate(11.2528 6.62374) rotate(-176.165) scale(0.413982 0.778569)">
<stop stop-color="#5A4950"/>
<stop offset="1" stop-color="#5D4C4F" stop-opacity="0"/>
</radialGradient>
<linearGradient id="paint26_linear_68_3130" x1="16.5" y1="19" x2="16.5" y2="20.5" gradientUnits="userSpaceOnUse">
<stop stop-color="#ECCDFF"/>
<stop offset="1" stop-color="white"/>
</linearGradient>
<clipPath id="clip0_68_3130">
<rect width="32" height="32" fill="white" transform="translate(0.5)"/>
</clipPath>
</defs>
</svg>
