<svg width="33" height="32" viewBox="0 0 33 32" fill="none" xmlns="http://www.w3.org/2000/svg">
<path d="M16.7489 29.9978C26.0833 29.9978 30.7478 23.7303 30.7478 15.9989C30.7478 8.26751 26.0833 2 16.7489 2C7.41443 2 2.75 8.26751 2.75 15.9989C2.75 23.7303 7.41443 29.9978 16.7489 29.9978Z" fill="url(#paint0_radial_68_3260)"/>
<path d="M16.7489 29.9978C26.0833 29.9978 30.7478 23.7303 30.7478 15.9989C30.7478 8.26751 26.0833 2 16.7489 2C7.41443 2 2.75 8.26751 2.75 15.9989C2.75 23.7303 7.41443 29.9978 16.7489 29.9978Z" fill="url(#paint1_radial_68_3260)"/>
<path d="M16.7489 29.9978C26.0833 29.9978 30.7478 23.7303 30.7478 15.9989C30.7478 8.26751 26.0833 2 16.7489 2C7.41443 2 2.75 8.26751 2.75 15.9989C2.75 23.7303 7.41443 29.9978 16.7489 29.9978Z" fill="url(#paint2_radial_68_3260)" fill-opacity="0.6"/>
<path d="M16.7489 29.9978C26.0833 29.9978 30.7478 23.7303 30.7478 15.9989C30.7478 8.26751 26.0833 2 16.7489 2C7.41443 2 2.75 8.26751 2.75 15.9989C2.75 23.7303 7.41443 29.9978 16.7489 29.9978Z" fill="url(#paint3_radial_68_3260)"/>
<path d="M16.7489 29.9978C26.0833 29.9978 30.7478 23.7303 30.7478 15.9989C30.7478 8.26751 26.0833 2 16.7489 2C7.41443 2 2.75 8.26751 2.75 15.9989C2.75 23.7303 7.41443 29.9978 16.7489 29.9978Z" fill="url(#paint4_radial_68_3260)"/>
<path d="M16.7489 29.9978C26.0833 29.9978 30.7478 23.7303 30.7478 15.9989C30.7478 8.26751 26.0833 2 16.7489 2C7.41443 2 2.75 8.26751 2.75 15.9989C2.75 23.7303 7.41443 29.9978 16.7489 29.9978Z" fill="url(#paint5_radial_68_3260)"/>
<path d="M16.7489 29.9978C26.0833 29.9978 30.7478 23.7303 30.7478 15.9989C30.7478 8.26751 26.0833 2 16.7489 2C7.41443 2 2.75 8.26751 2.75 15.9989C2.75 23.7303 7.41443 29.9978 16.7489 29.9978Z" fill="url(#paint6_radial_68_3260)"/>
<path d="M16.7489 29.9978C26.0833 29.9978 30.7478 23.7303 30.7478 15.9989C30.7478 8.26751 26.0833 2 16.7489 2C7.41443 2 2.75 8.26751 2.75 15.9989C2.75 23.7303 7.41443 29.9978 16.7489 29.9978Z" fill="url(#paint7_radial_68_3260)"/>
<path d="M16.7489 29.9978C26.0833 29.9978 30.7478 23.7303 30.7478 15.9989C30.7478 8.26751 26.0833 2 16.7489 2C7.41443 2 2.75 8.26751 2.75 15.9989C2.75 23.7303 7.41443 29.9978 16.7489 29.9978Z" fill="url(#paint8_radial_68_3260)"/>
<path d="M16.7489 29.9978C26.0833 29.9978 30.7478 23.7303 30.7478 15.9989C30.7478 8.26751 26.0833 2 16.7489 2C7.41443 2 2.75 8.26751 2.75 15.9989C2.75 23.7303 7.41443 29.9978 16.7489 29.9978Z" fill="url(#paint9_radial_68_3260)"/>
<path d="M16.7489 29.9978C26.0833 29.9978 30.7478 23.7303 30.7478 15.9989C30.7478 8.26751 26.0833 2 16.7489 2C7.41443 2 2.75 8.26751 2.75 15.9989C2.75 23.7303 7.41443 29.9978 16.7489 29.9978Z" fill="url(#paint10_radial_68_3260)"/>
<path d="M16.7489 29.9978C26.0833 29.9978 30.7478 23.7303 30.7478 15.9989C30.7478 8.26751 26.0833 2 16.7489 2C7.41443 2 2.75 8.26751 2.75 15.9989C2.75 23.7303 7.41443 29.9978 16.7489 29.9978Z" fill="url(#paint11_radial_68_3260)"/>
<path d="M16.7489 29.9978C26.0833 29.9978 30.7478 23.7303 30.7478 15.9989C30.7478 8.26751 26.0833 2 16.7489 2C7.41443 2 2.75 8.26751 2.75 15.9989C2.75 23.7303 7.41443 29.9978 16.7489 29.9978Z" fill="url(#paint12_radial_68_3260)"/>
<path d="M16.7489 29.9978C26.0833 29.9978 30.7478 23.7303 30.7478 15.9989C30.7478 8.26751 26.0833 2 16.7489 2C7.41443 2 2.75 8.26751 2.75 15.9989C2.75 23.7303 7.41443 29.9978 16.7489 29.9978Z" fill="url(#paint13_radial_68_3260)"/>
<path d="M16.7489 29.9978C26.0833 29.9978 30.7478 23.7303 30.7478 15.9989C30.7478 8.26751 26.0833 2 16.7489 2C7.41443 2 2.75 8.26751 2.75 15.9989C2.75 23.7303 7.41443 29.9978 16.7489 29.9978Z" fill="url(#paint14_radial_68_3260)"/>
<path d="M16.7489 29.9978C26.0833 29.9978 30.7478 23.7303 30.7478 15.9989C30.7478 8.26751 26.0833 2 16.7489 2C7.41443 2 2.75 8.26751 2.75 15.9989C2.75 23.7303 7.41443 29.9978 16.7489 29.9978Z" fill="url(#paint15_radial_68_3260)"/>
<path fill-rule="evenodd" clip-rule="evenodd" d="M23.5219 10.5649C23.3133 10.2853 22.9676 9.99505 22.2888 10.0001C21.602 10.0051 21.2609 10.2989 21.0605 10.5712C20.9497 10.7217 20.877 10.8766 20.8325 10.995C20.8108 11.0529 20.7973 11.0983 20.79 11.1248C20.7868 11.1366 20.785 11.1444 20.7842 11.1475C20.6738 11.6832 20.1524 12.0316 19.6141 11.9269C19.072 11.8216 18.7179 11.2967 18.8232 10.7545C18.8601 10.5999 18.8601 10.5999 18.8601 10.5999C18.8816 10.5209 18.9138 10.4154 18.9601 10.2922C19.0516 10.0482 19.2039 9.7197 19.4497 9.38582C19.9622 8.68939 20.8593 8.01058 22.274 8.00012C23.6968 7.9896 24.605 8.672 25.125 9.36897C25.3746 9.70361 25.5311 10.0338 25.6257 10.2789C25.6736 10.4028 25.7072 10.5087 25.7297 10.5881C25.8628 11.0569 25.6737 11.7834 24.9921 11.9246C24.4549 12.0359 23.9291 11.6937 23.8123 11.159C23.8115 11.1558 23.8094 11.1473 23.8057 11.1343C23.7978 11.1064 23.7832 11.0594 23.7601 10.9996C23.7129 10.8775 23.6365 10.7185 23.5219 10.5649Z" fill="url(#paint16_radial_68_3260)"/>
<path fill-rule="evenodd" clip-rule="evenodd" d="M12.4907 10.5649C12.2821 10.2853 11.9364 9.99505 11.2576 10.0001C10.5708 10.0051 10.2296 10.2989 10.0292 10.5712C9.9185 10.7217 9.84571 10.8766 9.80128 10.995C9.77955 11.0529 9.76601 11.0983 9.75879 11.1248C9.75557 11.1366 9.7537 11.1444 9.75298 11.1475C9.64254 11.6832 9.1212 12.0316 8.58286 11.9269C8.04072 11.8216 7.68663 11.2967 7.79199 10.7545C7.82889 10.5999 7.82889 10.5999 7.82889 10.5999C7.85039 10.5209 7.88257 10.4154 7.92883 10.2922C8.02039 10.0482 8.1727 9.7197 8.4184 9.38582C8.93091 8.68939 9.82801 8.01058 11.2428 8.00012C12.6656 7.9896 13.5738 8.672 14.0937 9.36897C14.3434 9.70361 14.4998 10.0338 14.5945 10.2789C14.6423 10.4028 14.6759 10.5087 14.6984 10.5881C14.8315 11.0569 14.6424 11.7834 13.9609 11.9246C13.4236 12.0359 12.8978 11.6937 12.7811 11.159C12.7803 11.1558 12.7782 11.1473 12.7745 11.1343C12.7665 11.1064 12.7519 11.0594 12.7289 10.9996C12.6817 10.8775 12.6053 10.7185 12.4907 10.5649Z" fill="url(#paint17_radial_68_3260)"/>
<path d="M16.75 26C6.75 26 6.75 16 6.75 16H26.75C26.75 16 26.75 26 16.75 26Z" fill="url(#paint18_radial_68_3260)"/>
<path d="M8.50883 19.7942L7.75 16H25.75L24.9912 19.7942C24.8509 20.4953 24.2353 21 23.5203 21H9.97971C9.26468 21 8.64906 20.4953 8.50883 19.7942Z" fill="url(#paint19_radial_68_3260)"/>
<path d="M8.50883 19.7942L7.75 16H25.75L24.9912 19.7942C24.8509 20.4953 24.2353 21 23.5203 21H9.97971C9.26468 21 8.64906 20.4953 8.50883 19.7942Z" fill="url(#paint20_linear_68_3260)"/>
<path d="M23.53 21C24.1611 21 24.6342 21.5775 24.5105 22.1963L24.407 22.7139C22.9495 24.5277 20.5863 25.9999 16.7507 26C12.9134 26 10.5489 24.5268 9.09153 22.7119L8.98899 22.1963C8.86525 21.5776 9.33858 21.0002 9.96946 21H23.53Z" fill="url(#paint21_linear_68_3260)"/>
<defs>
<radialGradient id="paint0_radial_68_3260" cx="0" cy="0" r="1" gradientUnits="userSpaceOnUse" gradientTransform="translate(26.25 9) rotate(131.878) scale(38.9487)">
<stop stop-color="#FFF478"/>
<stop offset="0.474827" stop-color="#FFB02E"/>
<stop offset="1" stop-color="#F70A8D"/>
</radialGradient>
<radialGradient id="paint1_radial_68_3260" cx="0" cy="0" r="1" gradientUnits="userSpaceOnUse" gradientTransform="translate(16.75 12.5) rotate(101.31) scale(17.8466 22.8581)">
<stop offset="0.787821" stop-color="#F59639" stop-opacity="0"/>
<stop offset="0.972509" stop-color="#FF7DCE"/>
</radialGradient>
<radialGradient id="paint2_radial_68_3260" cx="0" cy="0" r="1" gradientUnits="userSpaceOnUse" gradientTransform="translate(18.75 14) rotate(135) scale(41.0122)">
<stop offset="0.314853" stop-opacity="0"/>
<stop offset="1"/>
</radialGradient>
<radialGradient id="paint3_radial_68_3260" cx="0" cy="0" r="1" gradientUnits="userSpaceOnUse" gradientTransform="translate(16.75 17) rotate(77.692) scale(28.1469)">
<stop offset="0.507903" stop-color="#7D6133" stop-opacity="0"/>
<stop offset="1" stop-color="#715B32"/>
</radialGradient>
<radialGradient id="paint4_radial_68_3260" cx="0" cy="0" r="1" gradientUnits="userSpaceOnUse" gradientTransform="translate(17.25 16.5) rotate(55.7131) scale(13.3135 9.65032)">
<stop stop-color="#FFB849"/>
<stop offset="1" stop-color="#FFB847" stop-opacity="0"/>
</radialGradient>
<radialGradient id="paint5_radial_68_3260" cx="0" cy="0" r="1" gradientUnits="userSpaceOnUse" gradientTransform="translate(21.25 18) rotate(9.86581) scale(11.6726)">
<stop stop-color="#FFA64B"/>
<stop offset="0.900412" stop-color="#FFAE46" stop-opacity="0"/>
</radialGradient>
<radialGradient id="paint6_radial_68_3260" cx="0" cy="0" r="1" gradientUnits="userSpaceOnUse" gradientTransform="translate(18.25 15) rotate(43.9708) scale(59.0529)">
<stop offset="0.185425" stop-opacity="0"/>
<stop offset="1" stop-opacity="0.4"/>
</radialGradient>
<radialGradient id="paint7_radial_68_3260" cx="0" cy="0" r="1" gradientUnits="userSpaceOnUse" gradientTransform="translate(10.0523 13.0752) rotate(-10.3912) scale(7.07095 5.21865)">
<stop stop-color="#F1A227"/>
<stop offset="1" stop-color="#F5A72C" stop-opacity="0"/>
</radialGradient>
<radialGradient id="paint8_radial_68_3260" cx="0" cy="0" r="1" gradientUnits="userSpaceOnUse" gradientTransform="translate(19.7336 10.9281) rotate(103.681) scale(2.06508 1.52412)">
<stop stop-color="#E7982E"/>
<stop offset="1" stop-color="#E39632" stop-opacity="0"/>
</radialGradient>
<radialGradient id="paint9_radial_68_3260" cx="0" cy="0" r="1" gradientUnits="userSpaceOnUse" gradientTransform="translate(24.1151 11.3566) scale(1.38367)">
<stop stop-color="#D28118"/>
<stop offset="1" stop-color="#D68623" stop-opacity="0"/>
</radialGradient>
<radialGradient id="paint10_radial_68_3260" cx="0" cy="0" r="1" gradientUnits="userSpaceOnUse" gradientTransform="translate(22.9582 10.1859) rotate(45.9878) scale(2.24107 0.76782)">
<stop stop-color="#D28118"/>
<stop offset="1" stop-color="#D68623" stop-opacity="0"/>
</radialGradient>
<radialGradient id="paint11_radial_68_3260" cx="0" cy="0" r="1" gradientUnits="userSpaceOnUse" gradientTransform="translate(21.6606 9.80348) rotate(9.61849) scale(2.11644 0.868811)">
<stop stop-color="#D28118"/>
<stop offset="1" stop-color="#D68623" stop-opacity="0"/>
</radialGradient>
<radialGradient id="paint12_radial_68_3260" cx="0" cy="0" r="1" gradientUnits="userSpaceOnUse" gradientTransform="translate(12.7975 10.2639) rotate(65.4048) scale(2.41198 1.20885)">
<stop stop-color="#BE7227"/>
<stop offset="1" stop-color="#C67A2A" stop-opacity="0"/>
</radialGradient>
<radialGradient id="paint13_radial_68_3260" cx="0" cy="0" r="1" gradientUnits="userSpaceOnUse" gradientTransform="translate(11.6293 9.5764) rotate(29.8052) scale(1.89688 1.40143)">
<stop stop-color="#D07E2D"/>
<stop offset="1" stop-color="#D98833" stop-opacity="0"/>
</radialGradient>
<radialGradient id="paint14_radial_68_3260" cx="0" cy="0" r="1" gradientUnits="userSpaceOnUse" gradientTransform="translate(10.5209 9.5764) rotate(-8.79514) scale(2.06979 1.58384)">
<stop stop-color="#D88431"/>
<stop offset="1" stop-color="#CF8231" stop-opacity="0"/>
</radialGradient>
<radialGradient id="paint15_radial_68_3260" cx="0" cy="0" r="1" gradientUnits="userSpaceOnUse" gradientTransform="translate(8.44449 10.7166) rotate(-66.0375) scale(2.58552 1.77357)">
<stop stop-color="#DA8924"/>
<stop offset="1" stop-color="#DC8924" stop-opacity="0"/>
</radialGradient>
<radialGradient id="paint16_radial_68_3260" cx="0" cy="0" r="1" gradientUnits="userSpaceOnUse" gradientTransform="translate(22.2871 10.8359) rotate(90) scale(3.1875 4.31047)">
<stop offset="0.307692" stop-color="#452A3D"/>
<stop offset="0.626374" stop-color="#594052"/>
<stop offset="1" stop-color="#482C40"/>
</radialGradient>
<radialGradient id="paint17_radial_68_3260" cx="0" cy="0" r="1" gradientUnits="userSpaceOnUse" gradientTransform="translate(11.2559 10.8359) rotate(90) scale(3.1875 4.31047)">
<stop offset="0.307692" stop-color="#452A3D"/>
<stop offset="0.626374" stop-color="#594052"/>
<stop offset="1" stop-color="#482C40"/>
</radialGradient>
<radialGradient id="paint18_radial_68_3260" cx="0" cy="0" r="1" gradientUnits="userSpaceOnUse" gradientTransform="translate(15.75 25) rotate(-90) scale(9 18)">
<stop stop-color="#F70A8D"/>
<stop offset="1" stop-color="#89029C"/>
</radialGradient>
<radialGradient id="paint19_radial_68_3260" cx="0" cy="0" r="1" gradientUnits="userSpaceOnUse" gradientTransform="translate(22.25 16) rotate(138.576) scale(11.3358)">
<stop stop-color="white"/>
<stop offset="1" stop-color="#ECCDFF"/>
</radialGradient>
<linearGradient id="paint20_linear_68_3260" x1="16.75" y1="19.7031" x2="16.75" y2="21" gradientUnits="userSpaceOnUse">
<stop stop-color="#F4DFFF" stop-opacity="0"/>
<stop offset="0.865521" stop-color="#FFB8FF"/>
<stop offset="1" stop-color="#DA7CE9"/>
</linearGradient>
<linearGradient id="paint21_linear_68_3260" x1="17.8009" y1="21" x2="16.5274" y2="25.2773" gradientUnits="userSpaceOnUse">
<stop stop-color="white"/>
<stop offset="1" stop-color="#ECCDFF"/>
</linearGradient>
</defs>
</svg>
