<svg width="33" height="32" viewBox="0 0 33 32" fill="none" xmlns="http://www.w3.org/2000/svg">
<path d="M16.4989 29.9978C25.8333 29.9978 30.4978 23.7303 30.4978 15.9989C30.4978 8.26751 25.8333 2 16.4989 2C7.16443 2 2.5 8.26751 2.5 15.9989C2.5 23.7303 7.16443 29.9978 16.4989 29.9978Z" fill="url(#paint0_radial_68_3259)"/>
<path d="M16.4989 29.9978C25.8333 29.9978 30.4978 23.7303 30.4978 15.9989C30.4978 8.26751 25.8333 2 16.4989 2C7.16443 2 2.5 8.26751 2.5 15.9989C2.5 23.7303 7.16443 29.9978 16.4989 29.9978Z" fill="url(#paint1_radial_68_3259)"/>
<path d="M16.4989 29.9978C25.8333 29.9978 30.4978 23.7303 30.4978 15.9989C30.4978 8.26751 25.8333 2 16.4989 2C7.16443 2 2.5 8.26751 2.5 15.9989C2.5 23.7303 7.16443 29.9978 16.4989 29.9978Z" fill="url(#paint2_radial_68_3259)" fill-opacity="0.6"/>
<path d="M16.4989 29.9978C25.8333 29.9978 30.4978 23.7303 30.4978 15.9989C30.4978 8.26751 25.8333 2 16.4989 2C7.16443 2 2.5 8.26751 2.5 15.9989C2.5 23.7303 7.16443 29.9978 16.4989 29.9978Z" fill="url(#paint3_radial_68_3259)"/>
<path d="M16.4989 29.9978C25.8333 29.9978 30.4978 23.7303 30.4978 15.9989C30.4978 8.26751 25.8333 2 16.4989 2C7.16443 2 2.5 8.26751 2.5 15.9989C2.5 23.7303 7.16443 29.9978 16.4989 29.9978Z" fill="url(#paint4_radial_68_3259)"/>
<path d="M16.4989 29.9978C25.8333 29.9978 30.4978 23.7303 30.4978 15.9989C30.4978 8.26751 25.8333 2 16.4989 2C7.16443 2 2.5 8.26751 2.5 15.9989C2.5 23.7303 7.16443 29.9978 16.4989 29.9978Z" fill="url(#paint5_radial_68_3259)"/>
<path d="M16.4989 29.9978C25.8333 29.9978 30.4978 23.7303 30.4978 15.9989C30.4978 8.26751 25.8333 2 16.4989 2C7.16443 2 2.5 8.26751 2.5 15.9989C2.5 23.7303 7.16443 29.9978 16.4989 29.9978Z" fill="url(#paint6_radial_68_3259)"/>
<path d="M16.4989 29.9978C25.8333 29.9978 30.4978 23.7303 30.4978 15.9989C30.4978 8.26751 25.8333 2 16.4989 2C7.16443 2 2.5 8.26751 2.5 15.9989C2.5 23.7303 7.16443 29.9978 16.4989 29.9978Z" fill="url(#paint7_radial_68_3259)"/>
<path d="M16.4989 29.9978C25.8333 29.9978 30.4978 23.7303 30.4978 15.9989C30.4978 8.26751 25.8333 2 16.4989 2C7.16443 2 2.5 8.26751 2.5 15.9989C2.5 23.7303 7.16443 29.9978 16.4989 29.9978Z" fill="url(#paint8_radial_68_3259)"/>
<path d="M16.4989 29.9978C25.8333 29.9978 30.4978 23.7303 30.4978 15.9989C30.4978 8.26751 25.8333 2 16.4989 2C7.16443 2 2.5 8.26751 2.5 15.9989C2.5 23.7303 7.16443 29.9978 16.4989 29.9978Z" fill="url(#paint9_radial_68_3259)"/>
<path d="M16.4989 29.9978C25.8333 29.9978 30.4978 23.7303 30.4978 15.9989C30.4978 8.26751 25.8333 2 16.4989 2C7.16443 2 2.5 8.26751 2.5 15.9989C2.5 23.7303 7.16443 29.9978 16.4989 29.9978Z" fill="url(#paint10_radial_68_3259)"/>
<path d="M16.4989 29.9978C25.8333 29.9978 30.4978 23.7303 30.4978 15.9989C30.4978 8.26751 25.8333 2 16.4989 2C7.16443 2 2.5 8.26751 2.5 15.9989C2.5 23.7303 7.16443 29.9978 16.4989 29.9978Z" fill="url(#paint11_radial_68_3259)"/>
<path d="M10.999 5C13.2076 5 14.998 7.01472 14.998 9.5C14.998 10.9081 14.4224 12.1641 13.5225 12.9893C12.9498 12.7313 12.177 12.5 11 12.5C10.0347 12.5 9.10823 12.6553 8.33301 12.8535C7.51506 12.0295 7 10.8326 7 9.5C7 7.01472 8.79042 5 10.999 5ZM22.0039 5C24.213 5 26.0039 7.01472 26.0039 9.5C26.0039 10.8333 25.4878 12.0305 24.6689 12.8545C23.8933 12.6561 22.9661 12.5 22 12.5C20.8236 12.5 20.0511 12.7314 19.4785 12.9893C18.5788 12.1641 18.0039 10.9077 18.0039 9.5C18.0039 7.01472 19.7948 5 22.0039 5Z" fill="white"/>
<path d="M11.5 12C12.6046 12 13.5 10.9926 13.5 9.75C13.5 8.50736 12.6046 7.5 11.5 7.5C10.3954 7.5 9.5 8.50736 9.5 9.75C9.5 10.9926 10.3954 12 11.5 12Z" fill="url(#paint12_linear_68_3259)"/>
<path d="M21.5 12C22.6046 12 23.5 10.9926 23.5 9.75C23.5 8.50736 22.6046 7.5 21.5 7.5C20.3954 7.5 19.5 8.50736 19.5 9.75C19.5 10.9926 20.3954 12 21.5 12Z" fill="url(#paint13_linear_68_3259)"/>
<path d="M16.5 24C7.5 24 7.5 15 7.5 15H25.5C25.5 15 25.5 24 16.5 24Z" fill="url(#paint14_radial_68_3259)"/>
<path d="M8.5 15.5V15H24.5V15.5C24.5 16.0523 24.0523 16.5 23.5 16.5H9.5C8.94772 16.5 8.5 16.0523 8.5 15.5Z" fill="url(#paint15_linear_68_3259)"/>
<defs>
<radialGradient id="paint0_radial_68_3259" cx="0" cy="0" r="1" gradientUnits="userSpaceOnUse" gradientTransform="translate(26 9) rotate(131.878) scale(38.9487)">
<stop stop-color="#FFF478"/>
<stop offset="0.474827" stop-color="#FFB02E"/>
<stop offset="1" stop-color="#F70A8D"/>
</radialGradient>
<radialGradient id="paint1_radial_68_3259" cx="0" cy="0" r="1" gradientUnits="userSpaceOnUse" gradientTransform="translate(16.5 12.5) rotate(101.31) scale(17.8466 22.8581)">
<stop offset="0.787821" stop-color="#F59639" stop-opacity="0"/>
<stop offset="0.972509" stop-color="#FF7DCE"/>
</radialGradient>
<radialGradient id="paint2_radial_68_3259" cx="0" cy="0" r="1" gradientUnits="userSpaceOnUse" gradientTransform="translate(18.5 14) rotate(135) scale(41.0122)">
<stop offset="0.314853" stop-opacity="0"/>
<stop offset="1"/>
</radialGradient>
<radialGradient id="paint3_radial_68_3259" cx="0" cy="0" r="1" gradientUnits="userSpaceOnUse" gradientTransform="translate(16.5 17) rotate(77.692) scale(28.1469)">
<stop offset="0.507903" stop-color="#7D6133" stop-opacity="0"/>
<stop offset="1" stop-color="#715B32"/>
</radialGradient>
<radialGradient id="paint4_radial_68_3259" cx="0" cy="0" r="1" gradientUnits="userSpaceOnUse" gradientTransform="translate(17 16.5) rotate(55.7131) scale(13.3135 9.65032)">
<stop stop-color="#FFB849"/>
<stop offset="1" stop-color="#FFB847" stop-opacity="0"/>
</radialGradient>
<radialGradient id="paint5_radial_68_3259" cx="0" cy="0" r="1" gradientUnits="userSpaceOnUse" gradientTransform="translate(21 18) rotate(9.86581) scale(11.6726)">
<stop stop-color="#FFA64B"/>
<stop offset="0.900412" stop-color="#FFAE46" stop-opacity="0"/>
</radialGradient>
<radialGradient id="paint6_radial_68_3259" cx="0" cy="0" r="1" gradientUnits="userSpaceOnUse" gradientTransform="translate(18 15) rotate(43.9708) scale(59.0529)">
<stop offset="0.185425" stop-opacity="0"/>
<stop offset="1" stop-opacity="0.4"/>
</radialGradient>
<radialGradient id="paint7_radial_68_3259" cx="0" cy="0" r="1" gradientUnits="userSpaceOnUse" gradientTransform="translate(9.62268 9.91474) rotate(93.252) scale(4.532 3.66788)">
<stop offset="0.47452" stop-color="#B3671F"/>
<stop offset="0.781916" stop-color="#B3671F" stop-opacity="0.236695"/>
<stop offset="0.873485" stop-color="#B3671F" stop-opacity="0.0865443"/>
<stop offset="0.948588" stop-color="#B3671F" stop-opacity="0"/>
</radialGradient>
<radialGradient id="paint8_radial_68_3259" cx="0" cy="0" r="1" gradientUnits="userSpaceOnUse" gradientTransform="translate(11.4719 11.7303) rotate(3.86546) scale(2.85146 1.81551)">
<stop offset="0.392157" stop-color="#D57D2E"/>
<stop offset="0.643397" stop-color="#D57D2E" stop-opacity="0.446091"/>
<stop offset="0.806763" stop-color="#D57D2E" stop-opacity="0.179254"/>
<stop offset="1" stop-color="#D57D2E" stop-opacity="0"/>
</radialGradient>
<radialGradient id="paint9_radial_68_3259" cx="0" cy="0" r="1" gradientUnits="userSpaceOnUse" gradientTransform="translate(20.0069 9.07757) rotate(90) scale(3.92145 2.92186)">
<stop offset="0.308886" stop-color="#9F5915"/>
<stop offset="0.773417" stop-color="#9F5915" stop-opacity="0.15"/>
<stop offset="0.936131" stop-color="#9F5915" stop-opacity="0"/>
</radialGradient>
<radialGradient id="paint10_radial_68_3259" cx="0" cy="0" r="1" gradientUnits="userSpaceOnUse" gradientTransform="translate(22.9287 11.4996) rotate(14.5889) scale(2.90003 2.05227)">
<stop offset="0.404329" stop-color="#D18239"/>
<stop offset="0.783188" stop-color="#9F5915" stop-opacity="0.15"/>
<stop offset="0.936131" stop-color="#9F5915" stop-opacity="0"/>
</radialGradient>
<radialGradient id="paint11_radial_68_3259" cx="0" cy="0" r="1" gradientUnits="userSpaceOnUse" gradientTransform="translate(21.0449 11.6534) rotate(2.93568) scale(3.00269 1.78788)">
<stop offset="0.404329" stop-color="#DA8A38"/>
<stop offset="0.783188" stop-color="#D38333" stop-opacity="0.22"/>
<stop offset="0.936131" stop-color="#D38233" stop-opacity="0"/>
</radialGradient>
<linearGradient id="paint12_linear_68_3259" x1="21.8846" y1="7.5" x2="21.1358" y2="12.043" gradientUnits="userSpaceOnUse">
<stop stop-color="#553B3E"/>
<stop offset="1" stop-color="#3D2432"/>
</linearGradient>
<linearGradient id="paint13_linear_68_3259" x1="21.8846" y1="7.5" x2="21.1358" y2="12.043" gradientUnits="userSpaceOnUse">
<stop stop-color="#553B3E"/>
<stop offset="1" stop-color="#3D2432"/>
</linearGradient>
<radialGradient id="paint14_radial_68_3259" cx="0" cy="0" r="1" gradientUnits="userSpaceOnUse" gradientTransform="translate(16.5 26) rotate(-90) scale(11 22)">
<stop stop-color="#F70A8D"/>
<stop offset="1" stop-color="#89029C"/>
</radialGradient>
<linearGradient id="paint15_linear_68_3259" x1="16.5" y1="15" x2="16.5" y2="16.5" gradientUnits="userSpaceOnUse">
<stop stop-color="#ECCDFF"/>
<stop offset="1" stop-color="white"/>
</linearGradient>
</defs>
</svg>
