<svg width="33" height="32" viewBox="0 0 33 32" fill="none" xmlns="http://www.w3.org/2000/svg">
<path d="M16.2489 29.9978C25.5833 29.9978 30.2478 23.7303 30.2478 15.9989C30.2478 8.26751 25.5833 2 16.2489 2C6.91443 2 2.25 8.26751 2.25 15.9989C2.25 23.7303 6.91443 29.9978 16.2489 29.9978Z" fill="url(#paint0_radial_68_3262)"/>
<path d="M16.2489 29.9978C25.5833 29.9978 30.2478 23.7303 30.2478 15.9989C30.2478 8.26751 25.5833 2 16.2489 2C6.91443 2 2.25 8.26751 2.25 15.9989C2.25 23.7303 6.91443 29.9978 16.2489 29.9978Z" fill="url(#paint1_radial_68_3262)"/>
<path d="M16.2489 29.9978C25.5833 29.9978 30.2478 23.7303 30.2478 15.9989C30.2478 8.26751 25.5833 2 16.2489 2C6.91443 2 2.25 8.26751 2.25 15.9989C2.25 23.7303 6.91443 29.9978 16.2489 29.9978Z" fill="url(#paint2_radial_68_3262)" fill-opacity="0.6"/>
<path d="M16.2489 29.9978C25.5833 29.9978 30.2478 23.7303 30.2478 15.9989C30.2478 8.26751 25.5833 2 16.2489 2C6.91443 2 2.25 8.26751 2.25 15.9989C2.25 23.7303 6.91443 29.9978 16.2489 29.9978Z" fill="url(#paint3_radial_68_3262)"/>
<path d="M16.2489 29.9978C25.5833 29.9978 30.2478 23.7303 30.2478 15.9989C30.2478 8.26751 25.5833 2 16.2489 2C6.91443 2 2.25 8.26751 2.25 15.9989C2.25 23.7303 6.91443 29.9978 16.2489 29.9978Z" fill="url(#paint4_radial_68_3262)"/>
<path d="M16.2489 29.9978C25.5833 29.9978 30.2478 23.7303 30.2478 15.9989C30.2478 8.26751 25.5833 2 16.2489 2C6.91443 2 2.25 8.26751 2.25 15.9989C2.25 23.7303 6.91443 29.9978 16.2489 29.9978Z" fill="url(#paint5_radial_68_3262)"/>
<path d="M16.2489 29.9978C25.5833 29.9978 30.2478 23.7303 30.2478 15.9989C30.2478 8.26751 25.5833 2 16.2489 2C6.91443 2 2.25 8.26751 2.25 15.9989C2.25 23.7303 6.91443 29.9978 16.2489 29.9978Z" fill="url(#paint6_radial_68_3262)"/>
<path d="M16.2489 29.9978C25.5833 29.9978 30.2478 23.7303 30.2478 15.9989C30.2478 8.26751 25.5833 2 16.2489 2C6.91443 2 2.25 8.26751 2.25 15.9989C2.25 23.7303 6.91443 29.9978 16.2489 29.9978Z" fill="url(#paint7_radial_68_3262)"/>
<path d="M16.2489 29.9978C25.5833 29.9978 30.2478 23.7303 30.2478 15.9989C30.2478 8.26751 25.5833 2 16.2489 2C6.91443 2 2.25 8.26751 2.25 15.9989C2.25 23.7303 6.91443 29.9978 16.2489 29.9978Z" fill="url(#paint8_radial_68_3262)"/>
<path d="M23.25 20C23.25 23.87 20.12 27 16.25 27C12.38 27 9.25 23.87 9.25 20H16.25H23.25Z" fill="url(#paint9_radial_68_3262)"/>
<path d="M13.25 20H19.25V20.5C19.25 21.0523 18.8023 21.5 18.25 21.5H14.25C13.6977 21.5 13.25 21.0523 13.25 20.5V20Z" fill="url(#paint10_linear_68_3262)"/>
<path d="M22.75 18.4263C25.4707 18.4263 27.6763 16.2207 27.6763 13.5C27.6763 10.7793 25.4707 8.57373 22.75 8.57373C20.0293 8.57373 17.8237 10.7793 17.8237 13.5C17.8237 16.2207 20.0293 18.4263 22.75 18.4263Z" fill="white"/>
<path d="M9.75001 18.4263C12.4707 18.4263 14.6763 16.2207 14.6763 13.5C14.6763 10.7793 12.4707 8.57373 9.75001 8.57373C7.0293 8.57373 4.82373 10.7793 4.82373 13.5C4.82373 16.2207 7.0293 18.4263 9.75001 18.4263Z" fill="white"/>
<path d="M4.75 14H2.25C1.69772 14 1.25 13.5523 1.25 13C1.25 12.4477 1.69772 12 2.25 12H4.75V14ZM18.25 12V14H14.25V12H18.25ZM30.1631 12C30.7609 12 31.25 12.45 31.25 13C31.25 13.55 30.7609 14 30.1631 14H27.75V12H30.1631Z" fill="url(#paint11_linear_68_3262)"/>
<circle cx="9.75" cy="13.5" r="5.5" fill="url(#paint12_radial_68_3262)"/>
<circle cx="9.75" cy="13.5" r="5.5" fill="url(#paint13_radial_68_3262)"/>
<circle cx="22.75" cy="13.5" r="5.5" fill="url(#paint14_radial_68_3262)"/>
<circle cx="22.75" cy="13.5" r="5.5" fill="url(#paint15_radial_68_3262)"/>
<circle cx="9.75" cy="13.5" r="4.25" fill="white"/>
<circle cx="22.75" cy="13.5" r="4.25" fill="white"/>
<circle cx="10.75" cy="13.5" r="2" fill="#402A32"/>
<circle cx="21.75" cy="13.5" r="2" fill="#402A32"/>
<defs>
<radialGradient id="paint0_radial_68_3262" cx="0" cy="0" r="1" gradientUnits="userSpaceOnUse" gradientTransform="translate(25.75 9) rotate(131.878) scale(38.9487)">
<stop stop-color="#FFF478"/>
<stop offset="0.474827" stop-color="#FFB02E"/>
<stop offset="1" stop-color="#F70A8D"/>
</radialGradient>
<radialGradient id="paint1_radial_68_3262" cx="0" cy="0" r="1" gradientUnits="userSpaceOnUse" gradientTransform="translate(16.25 12.5) rotate(101.31) scale(17.8466 22.8581)">
<stop offset="0.787821" stop-color="#F59639" stop-opacity="0"/>
<stop offset="0.972509" stop-color="#FF7DCE"/>
</radialGradient>
<radialGradient id="paint2_radial_68_3262" cx="0" cy="0" r="1" gradientUnits="userSpaceOnUse" gradientTransform="translate(18.25 14) rotate(135) scale(41.0122)">
<stop offset="0.314853" stop-opacity="0"/>
<stop offset="1"/>
</radialGradient>
<radialGradient id="paint3_radial_68_3262" cx="0" cy="0" r="1" gradientUnits="userSpaceOnUse" gradientTransform="translate(16.25 17) rotate(77.692) scale(28.1469)">
<stop offset="0.507903" stop-color="#7D6133" stop-opacity="0"/>
<stop offset="1" stop-color="#715B32"/>
</radialGradient>
<radialGradient id="paint4_radial_68_3262" cx="0" cy="0" r="1" gradientUnits="userSpaceOnUse" gradientTransform="translate(16.75 16.5) rotate(55.7131) scale(13.3135 9.65032)">
<stop stop-color="#FFB849"/>
<stop offset="1" stop-color="#FFB847" stop-opacity="0"/>
</radialGradient>
<radialGradient id="paint5_radial_68_3262" cx="0" cy="0" r="1" gradientUnits="userSpaceOnUse" gradientTransform="translate(20.75 18) rotate(9.86581) scale(11.6726)">
<stop stop-color="#FFA64B"/>
<stop offset="0.900412" stop-color="#FFAE46" stop-opacity="0"/>
</radialGradient>
<radialGradient id="paint6_radial_68_3262" cx="0" cy="0" r="1" gradientUnits="userSpaceOnUse" gradientTransform="translate(17.75 15) rotate(43.9708) scale(59.0529)">
<stop offset="0.185425" stop-opacity="0"/>
<stop offset="1" stop-opacity="0.4"/>
</radialGradient>
<radialGradient id="paint7_radial_68_3262" cx="0" cy="0" r="1" gradientUnits="userSpaceOnUse" gradientTransform="translate(8.50466 14.4068) rotate(137.961) scale(6.62434)">
<stop offset="0.262526" stop-color="#392108"/>
<stop offset="1" stop-color="#C87928" stop-opacity="0"/>
</radialGradient>
<radialGradient id="paint8_radial_68_3262" cx="0" cy="0" r="1" gradientUnits="userSpaceOnUse" gradientTransform="translate(20.5219 14.4875) rotate(133.413) scale(6.21757 6.83414)">
<stop offset="0.288888" stop-color="#392108"/>
<stop offset="1" stop-color="#C87928" stop-opacity="0"/>
</radialGradient>
<radialGradient id="paint9_radial_68_3262" cx="0" cy="0" r="1" gradientUnits="userSpaceOnUse" gradientTransform="translate(16.25 28.5556) rotate(-90) scale(9.55556 19.1111)">
<stop stop-color="#F70A8D"/>
<stop offset="1" stop-color="#89029C"/>
</radialGradient>
<linearGradient id="paint10_linear_68_3262" x1="16.25" y1="20" x2="16.25" y2="21.5" gradientUnits="userSpaceOnUse">
<stop stop-color="#CEA4F3"/>
<stop offset="0.279919" stop-color="#ECCDFF"/>
<stop offset="1" stop-color="white"/>
</linearGradient>
<linearGradient id="paint11_linear_68_3262" x1="16.25" y1="12" x2="16.25" y2="14" gradientUnits="userSpaceOnUse">
<stop stop-color="#5F5253"/>
<stop offset="1" stop-color="#4D2C4F"/>
</linearGradient>
<radialGradient id="paint12_radial_68_3262" cx="0" cy="0" r="1" gradientUnits="userSpaceOnUse" gradientTransform="translate(13.25 11) rotate(131.186) scale(10.6301)">
<stop stop-color="#54424A"/>
<stop offset="1" stop-color="#52394D"/>
</radialGradient>
<radialGradient id="paint13_radial_68_3262" cx="0" cy="0" r="1" gradientUnits="userSpaceOnUse" gradientTransform="translate(10.25 13.5) rotate(170.538) scale(6.08276)">
<stop offset="0.899365" stop-color="#3B2131" stop-opacity="0"/>
<stop offset="1" stop-color="#422833"/>
</radialGradient>
<radialGradient id="paint14_radial_68_3262" cx="0" cy="0" r="1" gradientUnits="userSpaceOnUse" gradientTransform="translate(26.25 11) rotate(131.186) scale(10.6301)">
<stop stop-color="#54424A"/>
<stop offset="1" stop-color="#52394D"/>
</radialGradient>
<radialGradient id="paint15_radial_68_3262" cx="0" cy="0" r="1" gradientUnits="userSpaceOnUse" gradientTransform="translate(23.25 13.5) rotate(170.538) scale(6.08276)">
<stop offset="0.899365" stop-color="#3B2131" stop-opacity="0"/>
<stop offset="1" stop-color="#422833"/>
</radialGradient>
</defs>
</svg>
