<svg width="32" height="32" viewBox="0 0 32 32" fill="none" xmlns="http://www.w3.org/2000/svg">
<path d="M15.9989 29.9978C25.3333 29.9978 29.9978 23.7303 29.9978 15.9989C29.9978 8.26751 25.3333 2 15.9989 2C6.66443 2 2 8.26751 2 15.9989C2 23.7303 6.66443 29.9978 15.9989 29.9978Z" fill="url(#paint0_radial_68_3263)"/>
<path d="M15.9989 29.9978C25.3333 29.9978 29.9978 23.7303 29.9978 15.9989C29.9978 8.26751 25.3333 2 15.9989 2C6.66443 2 2 8.26751 2 15.9989C2 23.7303 6.66443 29.9978 15.9989 29.9978Z" fill="url(#paint1_radial_68_3263)"/>
<path d="M15.9989 29.9978C25.3333 29.9978 29.9978 23.7303 29.9978 15.9989C29.9978 8.26751 25.3333 2 15.9989 2C6.66443 2 2 8.26751 2 15.9989C2 23.7303 6.66443 29.9978 15.9989 29.9978Z" fill="url(#paint2_radial_68_3263)" fill-opacity="0.6"/>
<path d="M15.9989 29.9978C25.3333 29.9978 29.9978 23.7303 29.9978 15.9989C29.9978 8.26751 25.3333 2 15.9989 2C6.66443 2 2 8.26751 2 15.9989C2 23.7303 6.66443 29.9978 15.9989 29.9978Z" fill="url(#paint3_radial_68_3263)"/>
<path d="M15.9989 29.9978C25.3333 29.9978 29.9978 23.7303 29.9978 15.9989C29.9978 8.26751 25.3333 2 15.9989 2C6.66443 2 2 8.26751 2 15.9989C2 23.7303 6.66443 29.9978 15.9989 29.9978Z" fill="url(#paint4_radial_68_3263)"/>
<path d="M15.9989 29.9978C25.3333 29.9978 29.9978 23.7303 29.9978 15.9989C29.9978 8.26751 25.3333 2 15.9989 2C6.66443 2 2 8.26751 2 15.9989C2 23.7303 6.66443 29.9978 15.9989 29.9978Z" fill="url(#paint5_radial_68_3263)"/>
<path d="M15.9989 29.9978C25.3333 29.9978 29.9978 23.7303 29.9978 15.9989C29.9978 8.26751 25.3333 2 15.9989 2C6.66443 2 2 8.26751 2 15.9989C2 23.7303 6.66443 29.9978 15.9989 29.9978Z" fill="url(#paint6_radial_68_3263)"/>
<path fill-rule="evenodd" clip-rule="evenodd" d="M7.697 14.2829C7.30573 13.9024 6.68007 13.9057 6.29289 14.2929C5.90237 14.6834 5.90237 15.3166 6.29289 15.7071L6.29432 15.7085L6.29585 15.7101L6.29922 15.7134L6.30713 15.7211L6.32778 15.7408C6.34367 15.7557 6.36387 15.7741 6.38837 15.7955C6.43735 15.8384 6.5037 15.8934 6.5875 15.9562C6.75496 16.0818 6.99328 16.2397 7.30279 16.3944C7.92507 16.7056 8.82724 17 10 17C11.1728 17 12.0749 16.7056 12.6972 16.3944C13.0067 16.2397 13.245 16.0818 13.4125 15.9562C13.4963 15.8934 13.5627 15.8384 13.6116 15.7955C13.6438 15.7674 13.6754 15.7386 13.7057 15.7085C14.0918 15.3234 14.0928 14.6786 13.7071 14.2929C13.3199 13.9057 12.6943 13.9024 12.303 14.2829C12.3015 14.2843 12.2987 14.2868 12.2946 14.2904C12.2811 14.3022 12.2537 14.3253 12.2125 14.3562C12.13 14.4182 11.9933 14.5103 11.8028 14.6056C11.4251 14.7944 10.8272 15 10 15C9.17276 15 8.57493 14.7944 8.19721 14.6056C8.00672 14.5103 7.87004 14.4182 7.7875 14.3562C7.7463 14.3253 7.7189 14.3022 7.70538 14.2904C7.70132 14.2868 7.69852 14.2843 7.697 14.2829Z" fill="url(#paint7_linear_68_3263)"/>
<path fill-rule="evenodd" clip-rule="evenodd" d="M19.697 14.2829C19.3057 13.9024 18.6801 13.9057 18.2929 14.2929C17.9024 14.6834 17.9024 15.3166 18.2929 15.7071L18.2943 15.7085L18.2959 15.7101L18.2992 15.7134L18.3071 15.7211L18.3278 15.7408C18.3437 15.7557 18.3639 15.7741 18.3884 15.7955C18.4373 15.8384 18.5037 15.8934 18.5875 15.9562C18.755 16.0818 18.9933 16.2397 19.3028 16.3944C19.9251 16.7056 20.8272 17 22 17C23.1728 17 24.0749 16.7056 24.6972 16.3944C25.0067 16.2397 25.245 16.0818 25.4125 15.9562C25.4963 15.8934 25.5627 15.8384 25.6116 15.7955C25.642 15.7689 25.6719 15.7416 25.7008 15.7134L25.7041 15.7101L25.7057 15.7085C26.0918 15.3234 26.0928 14.6786 25.7071 14.2929C25.3199 13.9057 24.6943 13.9024 24.303 14.2829C24.3015 14.2843 24.2987 14.2868 24.2946 14.2904C24.2811 14.3022 24.2537 14.3253 24.2125 14.3562C24.13 14.4182 23.9933 14.5103 23.8028 14.6056C23.4251 14.7944 22.8272 15 22 15C21.1728 15 20.5749 14.7944 20.1972 14.6056C20.0067 14.5103 19.87 14.4182 19.7875 14.3562C19.7463 14.3253 19.7189 14.3022 19.7054 14.2904C19.7013 14.2868 19.6985 14.2843 19.697 14.2829Z" fill="url(#paint8_linear_68_3263)"/>
<path fill-rule="evenodd" clip-rule="evenodd" d="M8.06915 8.98761C7.47625 9.55049 7.11769 10.2277 6.97423 10.6581C6.88691 10.9201 6.60375 11.0617 6.34178 10.9743C6.07981 10.887 5.93823 10.6039 6.02555 10.3419C6.21542 9.77226 6.65687 8.94951 7.38064 8.26239C8.1129 7.5672 9.1478 7 10.4999 7C10.776 7 10.9999 7.22386 10.9999 7.5C10.9999 7.77614 10.776 8 10.4999 8C9.45198 8 8.65355 8.4328 8.06915 8.98761Z" fill="url(#paint9_linear_68_3263)"/>
<path fill-rule="evenodd" clip-rule="evenodd" d="M23.9309 8.98761C24.5238 9.55049 24.8823 10.2277 25.0258 10.6581C25.1131 10.9201 25.3963 11.0617 25.6582 10.9743C25.9202 10.887 26.0618 10.6039 25.9745 10.3419C25.7846 9.77226 25.3431 8.94951 24.6194 8.26239C23.8871 7.5672 22.8522 7 21.5001 7C21.224 7 21.0001 7.22386 21.0001 7.5C21.0001 7.77614 21.224 8 21.5001 8C22.548 8 23.3465 8.4328 23.9309 8.98761Z" fill="url(#paint10_linear_68_3263)"/>
<path d="M20.9013 25.0064C21.0104 25.5478 20.5516 26 19.9993 26C16.9301 26 14.7168 26 12.0002 26C11.448 26 10.9896 25.5478 11.0987 25.0064C11.5595 22.721 13.5788 21 16 21C18.4212 21 20.4405 22.721 20.9013 25.0064Z" fill="url(#paint11_radial_68_3263)"/>
<path d="M17 19C17 18.4477 17.4477 18 18 18H20.5C22.433 18 24 19.567 24 21.5C24 23.433 22.433 25 20.5 25C18.567 25 17 23.433 17 21.5V19Z" fill="url(#paint12_radial_68_3263)"/>
<defs>
<radialGradient id="paint0_radial_68_3263" cx="0" cy="0" r="1" gradientUnits="userSpaceOnUse" gradientTransform="translate(25.5 9) rotate(131.878) scale(38.9487)">
<stop stop-color="#FFF478"/>
<stop offset="0.474827" stop-color="#FFB02E"/>
<stop offset="1" stop-color="#F70A8D"/>
</radialGradient>
<radialGradient id="paint1_radial_68_3263" cx="0" cy="0" r="1" gradientUnits="userSpaceOnUse" gradientTransform="translate(16 12.5) rotate(101.31) scale(17.8466 22.8581)">
<stop offset="0.787821" stop-color="#F59639" stop-opacity="0"/>
<stop offset="0.972509" stop-color="#FF7DCE"/>
</radialGradient>
<radialGradient id="paint2_radial_68_3263" cx="0" cy="0" r="1" gradientUnits="userSpaceOnUse" gradientTransform="translate(18 14) rotate(135) scale(41.0122)">
<stop offset="0.314853" stop-opacity="0"/>
<stop offset="1"/>
</radialGradient>
<radialGradient id="paint3_radial_68_3263" cx="0" cy="0" r="1" gradientUnits="userSpaceOnUse" gradientTransform="translate(16 17) rotate(77.692) scale(28.1469)">
<stop offset="0.507903" stop-color="#7D6133" stop-opacity="0"/>
<stop offset="1" stop-color="#715B32"/>
</radialGradient>
<radialGradient id="paint4_radial_68_3263" cx="0" cy="0" r="1" gradientUnits="userSpaceOnUse" gradientTransform="translate(16.5 16.5) rotate(55.7131) scale(13.3135 9.65032)">
<stop stop-color="#FFB849"/>
<stop offset="1" stop-color="#FFB847" stop-opacity="0"/>
</radialGradient>
<radialGradient id="paint5_radial_68_3263" cx="0" cy="0" r="1" gradientUnits="userSpaceOnUse" gradientTransform="translate(20.5 18) rotate(9.86581) scale(11.6726)">
<stop stop-color="#FFA64B"/>
<stop offset="0.900412" stop-color="#FFAE46" stop-opacity="0"/>
</radialGradient>
<radialGradient id="paint6_radial_68_3263" cx="0" cy="0" r="1" gradientUnits="userSpaceOnUse" gradientTransform="translate(17.5 15) rotate(43.9708) scale(59.0529)">
<stop offset="0.185425" stop-opacity="0"/>
<stop offset="1" stop-opacity="0.4"/>
</radialGradient>
<linearGradient id="paint7_linear_68_3263" x1="11.2" y1="14.75" x2="10.9649" y2="16.1608" gradientUnits="userSpaceOnUse">
<stop stop-color="#52383E"/>
<stop offset="1" stop-color="#432A35"/>
</linearGradient>
<linearGradient id="paint8_linear_68_3263" x1="23.2" y1="14.75" x2="22.9649" y2="16.1608" gradientUnits="userSpaceOnUse">
<stop stop-color="#52383E"/>
<stop offset="1" stop-color="#432A35"/>
</linearGradient>
<linearGradient id="paint9_linear_68_3263" x1="6.83322" y1="11.4" x2="6.83322" y2="9.6" gradientUnits="userSpaceOnUse">
<stop offset="0.0299084" stop-color="#524049"/>
<stop offset="1" stop-color="#4A2C42"/>
</linearGradient>
<linearGradient id="paint10_linear_68_3263" x1="25.1668" y1="11.4" x2="25.1668" y2="9.6" gradientUnits="userSpaceOnUse">
<stop offset="0.0299084" stop-color="#524049"/>
<stop offset="1" stop-color="#4A2C42"/>
</linearGradient>
<radialGradient id="paint11_radial_68_3263" cx="0" cy="0" r="1" gradientUnits="userSpaceOnUse" gradientTransform="translate(16 27.1111) rotate(-90) scale(7.61111 15.2222)">
<stop stop-color="#F70A8D"/>
<stop offset="1" stop-color="#89029C"/>
</radialGradient>
<radialGradient id="paint12_radial_68_3263" cx="0" cy="0" r="1" gradientUnits="userSpaceOnUse" gradientTransform="translate(22 20) rotate(135) scale(4.94975)">
<stop stop-color="#5495FF"/>
<stop offset="1" stop-color="#3758FF"/>
</radialGradient>
</defs>
</svg>
