<svg width="33" height="32" viewBox="0 0 33 32" fill="none" xmlns="http://www.w3.org/2000/svg">
<path d="M16.4989 29.9978C25.8333 29.9978 30.4978 23.7303 30.4978 15.9989C30.4978 8.26751 25.8333 2 16.4989 2C7.16443 2 2.5 8.26751 2.5 15.9989C2.5 23.7303 7.16443 29.9978 16.4989 29.9978Z" fill="url(#paint0_radial_68_3261)"/>
<path d="M16.4989 29.9978C25.8333 29.9978 30.4978 23.7303 30.4978 15.9989C30.4978 8.26751 25.8333 2 16.4989 2C7.16443 2 2.5 8.26751 2.5 15.9989C2.5 23.7303 7.16443 29.9978 16.4989 29.9978Z" fill="url(#paint1_radial_68_3261)"/>
<path d="M16.4989 29.9978C25.8333 29.9978 30.4978 23.7303 30.4978 15.9989C30.4978 8.26751 25.8333 2 16.4989 2C7.16443 2 2.5 8.26751 2.5 15.9989C2.5 23.7303 7.16443 29.9978 16.4989 29.9978Z" fill="url(#paint2_radial_68_3261)"/>
<path d="M16.4989 29.9978C25.8333 29.9978 30.4978 23.7303 30.4978 15.9989C30.4978 8.26751 25.8333 2 16.4989 2C7.16443 2 2.5 8.26751 2.5 15.9989C2.5 23.7303 7.16443 29.9978 16.4989 29.9978Z" fill="url(#paint3_radial_68_3261)" fill-opacity="0.6"/>
<path d="M16.4989 29.9978C25.8333 29.9978 30.4978 23.7303 30.4978 15.9989C30.4978 8.26751 25.8333 2 16.4989 2C7.16443 2 2.5 8.26751 2.5 15.9989C2.5 23.7303 7.16443 29.9978 16.4989 29.9978Z" fill="url(#paint4_radial_68_3261)"/>
<path d="M16.4989 29.9978C25.8333 29.9978 30.4978 23.7303 30.4978 15.9989C30.4978 8.26751 25.8333 2 16.4989 2C7.16443 2 2.5 8.26751 2.5 15.9989C2.5 23.7303 7.16443 29.9978 16.4989 29.9978Z" fill="url(#paint5_radial_68_3261)"/>
<path d="M16.4989 29.9978C25.8333 29.9978 30.4978 23.7303 30.4978 15.9989C30.4978 8.26751 25.8333 2 16.4989 2C7.16443 2 2.5 8.26751 2.5 15.9989C2.5 23.7303 7.16443 29.9978 16.4989 29.9978Z" fill="url(#paint6_radial_68_3261)"/>
<path d="M16.4989 29.9978C25.8333 29.9978 30.4978 23.7303 30.4978 15.9989C30.4978 8.26751 25.8333 2 16.4989 2C7.16443 2 2.5 8.26751 2.5 15.9989C2.5 23.7303 7.16443 29.9978 16.4989 29.9978Z" fill="url(#paint7_radial_68_3261)"/>
<path d="M16.4989 29.9978C25.8333 29.9978 30.4978 23.7303 30.4978 15.9989C30.4978 8.26751 25.8333 2 16.4989 2C7.16443 2 2.5 8.26751 2.5 15.9989C2.5 23.7303 7.16443 29.9978 16.4989 29.9978Z" fill="url(#paint8_radial_68_3261)"/>
<path d="M16.4989 29.9978C25.8333 29.9978 30.4978 23.7303 30.4978 15.9989C30.4978 8.26751 25.8333 2 16.4989 2C7.16443 2 2.5 8.26751 2.5 15.9989C2.5 23.7303 7.16443 29.9978 16.4989 29.9978Z" fill="url(#paint9_radial_68_3261)"/>
<path d="M16.4989 29.9978C25.8333 29.9978 30.4978 23.7303 30.4978 15.9989C30.4978 8.26751 25.8333 2 16.4989 2C7.16443 2 2.5 8.26751 2.5 15.9989C2.5 23.7303 7.16443 29.9978 16.4989 29.9978Z" fill="url(#paint10_radial_68_3261)"/>
<path d="M16.4989 29.9978C25.8333 29.9978 30.4978 23.7303 30.4978 15.9989C30.4978 8.26751 25.8333 2 16.4989 2C7.16443 2 2.5 8.26751 2.5 15.9989C2.5 23.7303 7.16443 29.9978 16.4989 29.9978Z" fill="url(#paint11_radial_68_3261)"/>
<path d="M16.4989 29.9978C25.8333 29.9978 30.4978 23.7303 30.4978 15.9989C30.4978 8.26751 25.8333 2 16.4989 2C7.16443 2 2.5 8.26751 2.5 15.9989C2.5 23.7303 7.16443 29.9978 16.4989 29.9978Z" fill="url(#paint12_radial_68_3261)"/>
<path d="M16.4989 29.9978C25.8333 29.9978 30.4978 23.7303 30.4978 15.9989C30.4978 8.26751 25.8333 2 16.4989 2C7.16443 2 2.5 8.26751 2.5 15.9989C2.5 23.7303 7.16443 29.9978 16.4989 29.9978Z" fill="url(#paint13_radial_68_3261)"/>
<path d="M9.27746 13.062L6.22736 15.4343C5.95116 15.6491 5.55175 15.4308 5.58343 15.0823L5.8821 11.7969C5.95377 11.0085 5.55364 10.252 4.8616 9.86755L2.87899 8.7661C2.32667 8.45926 2.37804 7.64879 2.96468 7.41413L5.49409 6.40236C6.12162 6.15135 6.57992 5.60038 6.71247 4.93764L7.18419 2.57907C7.30624 1.96879 8.09279 1.79038 8.4662 2.28827L9.83038 4.10717C10.2466 4.66211 10.9206 4.96176 11.6115 4.89896L15.1039 4.58146C15.4491 4.55009 15.6681 4.94257 15.4601 5.21982L13.6744 7.60081C13.2556 8.1592 13.1582 8.89553 13.4174 9.54359L14.8286 13.0715C14.9023 13.2558 14.7421 13.4484 14.5475 13.4095L10.8976 12.6795C10.3276 12.5655 9.73627 12.7051 9.27746 13.062Z" fill="url(#paint14_linear_68_3261)"/>
<path d="M9.27746 13.062L6.22736 15.4343C5.95116 15.6491 5.55175 15.4308 5.58343 15.0823L5.8821 11.7969C5.95377 11.0085 5.55364 10.252 4.8616 9.86755L2.87899 8.7661C2.32667 8.45926 2.37804 7.64879 2.96468 7.41413L5.49409 6.40236C6.12162 6.15135 6.57992 5.60038 6.71247 4.93764L7.18419 2.57907C7.30624 1.96879 8.09279 1.79038 8.4662 2.28827L9.83038 4.10717C10.2466 4.66211 10.9206 4.96176 11.6115 4.89896L15.1039 4.58146C15.4491 4.55009 15.6681 4.94257 15.4601 5.21982L13.6744 7.60081C13.2556 8.1592 13.1582 8.89553 13.4174 9.54359L14.8286 13.0715C14.9023 13.2558 14.7421 13.4484 14.5475 13.4095L10.8976 12.6795C10.3276 12.5655 9.73627 12.7051 9.27746 13.062Z" fill="url(#paint15_radial_68_3261)"/>
<path d="M9.27746 13.062L6.22736 15.4343C5.95116 15.6491 5.55175 15.4308 5.58343 15.0823L5.8821 11.7969C5.95377 11.0085 5.55364 10.252 4.8616 9.86755L2.87899 8.7661C2.32667 8.45926 2.37804 7.64879 2.96468 7.41413L5.49409 6.40236C6.12162 6.15135 6.57992 5.60038 6.71247 4.93764L7.18419 2.57907C7.30624 1.96879 8.09279 1.79038 8.4662 2.28827L9.83038 4.10717C10.2466 4.66211 10.9206 4.96176 11.6115 4.89896L15.1039 4.58146C15.4491 4.55009 15.6681 4.94257 15.4601 5.21982L13.6744 7.60081C13.2556 8.1592 13.1582 8.89553 13.4174 9.54359L14.8286 13.0715C14.9023 13.2558 14.7421 13.4484 14.5475 13.4095L10.8976 12.6795C10.3276 12.5655 9.73627 12.7051 9.27746 13.062Z" fill="url(#paint16_radial_68_3261)"/>
<path d="M23.7225 13.062L26.7726 15.4343C27.0488 15.6491 27.4483 15.4308 27.4166 15.0823L27.1179 11.7969C27.0462 11.0085 27.4464 10.252 28.1384 9.86755L30.121 8.7661C30.6733 8.45926 30.622 7.64879 30.0353 7.41413L27.5059 6.40236C26.8784 6.15135 26.4201 5.60038 26.2875 4.93764L25.8158 2.57907C25.6938 1.96879 24.9072 1.79038 24.5338 2.28827L23.1696 4.10717C22.7534 4.66211 22.0794 4.96176 21.3885 4.89896L17.8961 4.58146C17.5509 4.55009 17.3319 4.94257 17.5399 5.21982L19.3256 7.60081C19.7444 8.1592 19.8418 8.89553 19.5826 9.54359L18.1714 13.0715C18.0977 13.2558 18.2579 13.4484 18.4525 13.4095L22.1024 12.6795C22.6724 12.5655 23.2637 12.7051 23.7225 13.062Z" fill="url(#paint17_linear_68_3261)"/>
<path d="M23.7225 13.062L26.7726 15.4343C27.0488 15.6491 27.4483 15.4308 27.4166 15.0823L27.1179 11.7969C27.0462 11.0085 27.4464 10.252 28.1384 9.86755L30.121 8.7661C30.6733 8.45926 30.622 7.64879 30.0353 7.41413L27.5059 6.40236C26.8784 6.15135 26.4201 5.60038 26.2875 4.93764L25.8158 2.57907C25.6938 1.96879 24.9072 1.79038 24.5338 2.28827L23.1696 4.10717C22.7534 4.66211 22.0794 4.96176 21.3885 4.89896L17.8961 4.58146C17.5509 4.55009 17.3319 4.94257 17.5399 5.21982L19.3256 7.60081C19.7444 8.1592 19.8418 8.89553 19.5826 9.54359L18.1714 13.0715C18.0977 13.2558 18.2579 13.4484 18.4525 13.4095L22.1024 12.6795C22.6724 12.5655 23.2637 12.7051 23.7225 13.062Z" fill="url(#paint18_radial_68_3261)"/>
<path d="M23.7225 13.062L26.7726 15.4343C27.0488 15.6491 27.4483 15.4308 27.4166 15.0823L27.1179 11.7969C27.0462 11.0085 27.4464 10.252 28.1384 9.86755L30.121 8.7661C30.6733 8.45926 30.622 7.64879 30.0353 7.41413L27.5059 6.40236C26.8784 6.15135 26.4201 5.60038 26.2875 4.93764L25.8158 2.57907C25.6938 1.96879 24.9072 1.79038 24.5338 2.28827L23.1696 4.10717C22.7534 4.66211 22.0794 4.96176 21.3885 4.89896L17.8961 4.58146C17.5509 4.55009 17.3319 4.94257 17.5399 5.21982L19.3256 7.60081C19.7444 8.1592 19.8418 8.89553 19.5826 9.54359L18.1714 13.0715C18.0977 13.2558 18.2579 13.4484 18.4525 13.4095L22.1024 12.6795C22.6724 12.5655 23.2637 12.7051 23.7225 13.062Z" fill="url(#paint19_radial_68_3261)"/>
<path d="M23.7225 13.062L26.7726 15.4343C27.0488 15.6491 27.4483 15.4308 27.4166 15.0823L27.1179 11.7969C27.0462 11.0085 27.4464 10.252 28.1384 9.86755L30.121 8.7661C30.6733 8.45926 30.622 7.64879 30.0353 7.41413L27.5059 6.40236C26.8784 6.15135 26.4201 5.60038 26.2875 4.93764L25.8158 2.57907C25.6938 1.96879 24.9072 1.79038 24.5338 2.28827L23.1696 4.10717C22.7534 4.66211 22.0794 4.96176 21.3885 4.89896L17.8961 4.58146C17.5509 4.55009 17.3319 4.94257 17.5399 5.21982L19.3256 7.60081C19.7444 8.1592 19.8418 8.89553 19.5826 9.54359L18.1714 13.0715C18.0977 13.2558 18.2579 13.4484 18.4525 13.4095L22.1024 12.6795C22.6724 12.5655 23.2637 12.7051 23.7225 13.062Z" fill="url(#paint20_radial_68_3261)"/>
<path d="M23.7225 13.062L26.7726 15.4343C27.0488 15.6491 27.4483 15.4308 27.4166 15.0823L27.1179 11.7969C27.0462 11.0085 27.4464 10.252 28.1384 9.86755L30.121 8.7661C30.6733 8.45926 30.622 7.64879 30.0353 7.41413L27.5059 6.40236C26.8784 6.15135 26.4201 5.60038 26.2875 4.93764L25.8158 2.57907C25.6938 1.96879 24.9072 1.79038 24.5338 2.28827L23.1696 4.10717C22.7534 4.66211 22.0794 4.96176 21.3885 4.89896L17.8961 4.58146C17.5509 4.55009 17.3319 4.94257 17.5399 5.21982L19.3256 7.60081C19.7444 8.1592 19.8418 8.89553 19.5826 9.54359L18.1714 13.0715C18.0977 13.2558 18.2579 13.4484 18.4525 13.4095L22.1024 12.6795C22.6724 12.5655 23.2637 12.7051 23.7225 13.062Z" fill="url(#paint21_radial_68_3261)"/>
<path d="M23.7225 13.062L26.7726 15.4343C27.0488 15.6491 27.4483 15.4308 27.4166 15.0823L27.1179 11.7969C27.0462 11.0085 27.4464 10.252 28.1384 9.86755L30.121 8.7661C30.6733 8.45926 30.622 7.64879 30.0353 7.41413L27.5059 6.40236C26.8784 6.15135 26.4201 5.60038 26.2875 4.93764L25.8158 2.57907C25.6938 1.96879 24.9072 1.79038 24.5338 2.28827L23.1696 4.10717C22.7534 4.66211 22.0794 4.96176 21.3885 4.89896L17.8961 4.58146C17.5509 4.55009 17.3319 4.94257 17.5399 5.21982L19.3256 7.60081C19.7444 8.1592 19.8418 8.89553 19.5826 9.54359L18.1714 13.0715C18.0977 13.2558 18.2579 13.4484 18.4525 13.4095L22.1024 12.6795C22.6724 12.5655 23.2637 12.7051 23.7225 13.062Z" fill="url(#paint22_radial_68_3261)"/>
<path d="M23.7225 13.062L26.7726 15.4343C27.0488 15.6491 27.4483 15.4308 27.4166 15.0823L27.1179 11.7969C27.0462 11.0085 27.4464 10.252 28.1384 9.86755L30.121 8.7661C30.6733 8.45926 30.622 7.64879 30.0353 7.41413L27.5059 6.40236C26.8784 6.15135 26.4201 5.60038 26.2875 4.93764L25.8158 2.57907C25.6938 1.96879 24.9072 1.79038 24.5338 2.28827L23.1696 4.10717C22.7534 4.66211 22.0794 4.96176 21.3885 4.89896L17.8961 4.58146C17.5509 4.55009 17.3319 4.94257 17.5399 5.21982L19.3256 7.60081C19.7444 8.1592 19.8418 8.89553 19.5826 9.54359L18.1714 13.0715C18.0977 13.2558 18.2579 13.4484 18.4525 13.4095L22.1024 12.6795C22.6724 12.5655 23.2637 12.7051 23.7225 13.062Z" fill="url(#paint23_radial_68_3261)"/>
<path d="M16.5 26C7.5 26 7.5 17 7.5 17H25.5C25.5 17 25.5 26 16.5 26Z" fill="url(#paint24_radial_68_3261)"/>
<path d="M8.5 17.5V17H24.5V17.5C24.5 18.0523 24.0523 18.5 23.5 18.5H9.5C8.94772 18.5 8.5 18.0523 8.5 17.5Z" fill="url(#paint25_linear_68_3261)"/>
<defs>
<radialGradient id="paint0_radial_68_3261" cx="0" cy="0" r="1" gradientUnits="userSpaceOnUse" gradientTransform="translate(26 9) rotate(132.839) scale(37.5033)">
<stop stop-color="#FFF478"/>
<stop offset="0.474827" stop-color="#FFB02E"/>
<stop offset="1" stop-color="#F70A8D"/>
</radialGradient>
<radialGradient id="paint1_radial_68_3261" cx="0" cy="0" r="1" gradientUnits="userSpaceOnUse" gradientTransform="translate(26 9) rotate(131.878) scale(38.9487)">
<stop stop-color="#FFF478"/>
<stop offset="0.474827" stop-color="#FFB02E"/>
<stop offset="1" stop-color="#F70A8D"/>
</radialGradient>
<radialGradient id="paint2_radial_68_3261" cx="0" cy="0" r="1" gradientUnits="userSpaceOnUse" gradientTransform="translate(16.5 12.5) rotate(101.31) scale(17.8466 22.8581)">
<stop offset="0.787821" stop-color="#F59639" stop-opacity="0"/>
<stop offset="0.972509" stop-color="#FF7DCE"/>
</radialGradient>
<radialGradient id="paint3_radial_68_3261" cx="0" cy="0" r="1" gradientUnits="userSpaceOnUse" gradientTransform="translate(18.5 14) rotate(135) scale(41.0122)">
<stop offset="0.314853" stop-opacity="0"/>
<stop offset="1"/>
</radialGradient>
<radialGradient id="paint4_radial_68_3261" cx="0" cy="0" r="1" gradientUnits="userSpaceOnUse" gradientTransform="translate(16.5 17) rotate(77.692) scale(28.1469)">
<stop offset="0.507903" stop-color="#7D6133" stop-opacity="0"/>
<stop offset="1" stop-color="#715B32"/>
</radialGradient>
<radialGradient id="paint5_radial_68_3261" cx="0" cy="0" r="1" gradientUnits="userSpaceOnUse" gradientTransform="translate(17 16.5) rotate(55.7131) scale(13.3135 9.65032)">
<stop stop-color="#FFB849"/>
<stop offset="1" stop-color="#FFB847" stop-opacity="0"/>
</radialGradient>
<radialGradient id="paint6_radial_68_3261" cx="0" cy="0" r="1" gradientUnits="userSpaceOnUse" gradientTransform="translate(21 18) rotate(9.86581) scale(11.6726)">
<stop stop-color="#FFA64B"/>
<stop offset="0.900412" stop-color="#FFAE46" stop-opacity="0"/>
</radialGradient>
<radialGradient id="paint7_radial_68_3261" cx="0" cy="0" r="1" gradientUnits="userSpaceOnUse" gradientTransform="translate(18 15) rotate(43.9708) scale(59.0529)">
<stop offset="0.185425" stop-opacity="0"/>
<stop offset="1" stop-opacity="0.4"/>
</radialGradient>
<radialGradient id="paint8_radial_68_3261" cx="0" cy="0" r="1" gradientUnits="userSpaceOnUse" gradientTransform="translate(23.672 13.0832) rotate(136.169) scale(1.24264 3.98455)">
<stop stop-color="#EC812A" stop-opacity="0.76"/>
<stop offset="0.572289" stop-color="#EC812A" stop-opacity="0.260417"/>
<stop offset="0.794087" stop-color="#EC812A" stop-opacity="0.111011"/>
<stop offset="1" stop-color="#EC812A" stop-opacity="0"/>
</radialGradient>
<radialGradient id="paint9_radial_68_3261" cx="0" cy="0" r="1" gradientUnits="userSpaceOnUse" gradientTransform="translate(22.1997 12.2578) rotate(103.824) scale(1.66994 2.79166)">
<stop stop-color="#EC812A"/>
<stop offset="0.359734" stop-color="#EC812A" stop-opacity="0.52"/>
<stop offset="0.792681" stop-color="#EC812A" stop-opacity="0.125447"/>
<stop offset="1" stop-color="#EC812A" stop-opacity="0"/>
</radialGradient>
<radialGradient id="paint10_radial_68_3261" cx="0" cy="0" r="1" gradientUnits="userSpaceOnUse" gradientTransform="translate(19.4855 10.3285) rotate(-162.668) scale(1.90831 3.9894)">
<stop stop-color="#EC812A" stop-opacity="0.78"/>
<stop offset="0.451488" stop-color="#EC812A" stop-opacity="0.49"/>
<stop offset="0.747195" stop-color="#EC812A" stop-opacity="0.12266"/>
<stop offset="1" stop-color="#EC812A" stop-opacity="0"/>
</radialGradient>
<radialGradient id="paint11_radial_68_3261" cx="0" cy="0" r="1" gradientUnits="userSpaceOnUse" gradientTransform="translate(19.3224 8.08812) rotate(134.735) scale(1.3726 3.1153)">
<stop stop-color="#EC812A" stop-opacity="0.72"/>
<stop offset="0.65285" stop-color="#EC812A" stop-opacity="0.192708"/>
<stop offset="1" stop-color="#EC812A" stop-opacity="0"/>
</radialGradient>
<radialGradient id="paint12_radial_68_3261" cx="0" cy="0" r="1" gradientUnits="userSpaceOnUse" gradientTransform="translate(11.3705 12.7347) rotate(99.0872) scale(1.49157 4.38736)">
<stop stop-color="#C85F27" stop-opacity="0.65"/>
<stop offset="0.482815" stop-color="#C85F27" stop-opacity="0.260417"/>
<stop offset="0.806099" stop-color="#C85F27" stop-opacity="0.07"/>
<stop offset="1" stop-color="#C85F27" stop-opacity="0"/>
</radialGradient>
<radialGradient id="paint13_radial_68_3261" cx="0" cy="0" r="1" gradientUnits="userSpaceOnUse" gradientTransform="translate(9.5356 12.652) rotate(62.5603) scale(1.28368 3.72584)">
<stop stop-color="#C85F27" stop-opacity="0.65"/>
<stop offset="0.285517" stop-color="#C85F27" stop-opacity="0.260417"/>
<stop offset="0.727885" stop-color="#C85F27" stop-opacity="0.07"/>
<stop offset="1" stop-color="#C85F27" stop-opacity="0"/>
</radialGradient>
<linearGradient id="paint14_linear_68_3261" x1="8" y1="1" x2="10.5" y2="15" gradientUnits="userSpaceOnUse">
<stop stop-color="#7912B2"/>
<stop offset="1" stop-color="#CF1DA1"/>
</linearGradient>
<radialGradient id="paint15_radial_68_3261" cx="0" cy="0" r="1" gradientUnits="userSpaceOnUse" gradientTransform="translate(9.70619 3.85915) rotate(135) scale(0.679562 2.48129)">
<stop stop-color="#A82D9C"/>
<stop offset="1" stop-color="#A82D9C" stop-opacity="0"/>
</radialGradient>
<radialGradient id="paint16_radial_68_3261" cx="0" cy="0" r="1" gradientUnits="userSpaceOnUse" gradientTransform="translate(12.7565 4.82019) rotate(87.6141) scale(0.50185 3.09894)">
<stop stop-color="#A82D9C"/>
<stop offset="1" stop-color="#A82D9C" stop-opacity="0"/>
</radialGradient>
<linearGradient id="paint17_linear_68_3261" x1="22.5" y1="2.5" x2="23" y2="14.5" gradientUnits="userSpaceOnUse">
<stop stop-color="#7912B2"/>
<stop offset="1" stop-color="#CF1DA1"/>
</linearGradient>
<radialGradient id="paint18_radial_68_3261" cx="0" cy="0" r="1" gradientUnits="userSpaceOnUse" gradientTransform="translate(29.4734 7.19478) rotate(116.565) scale(0.31087 2.20718)">
<stop stop-color="#B51AA6"/>
<stop offset="0.432292" stop-color="#B51AA6" stop-opacity="0.21875"/>
<stop offset="1" stop-color="#B51AA6" stop-opacity="0"/>
</radialGradient>
<radialGradient id="paint19_radial_68_3261" cx="0" cy="0" r="1" gradientUnits="userSpaceOnUse" gradientTransform="translate(28.1141 6.66958) rotate(116.456) scale(0.512027 2.14062)">
<stop stop-color="#B51AA6"/>
<stop offset="0.600176" stop-color="#B51AA6" stop-opacity="0.21875"/>
<stop offset="1" stop-color="#B51AA6" stop-opacity="0"/>
</radialGradient>
<radialGradient id="paint20_radial_68_3261" cx="0" cy="0" r="1" gradientUnits="userSpaceOnUse" gradientTransform="translate(30.0174 7.29171) rotate(112.521) scale(0.554675 2.31891)">
<stop offset="0.145752" stop-color="#B51AA6"/>
<stop offset="0.761264" stop-color="#B51AA6" stop-opacity="0.21875"/>
<stop offset="1" stop-color="#B51AA6" stop-opacity="0"/>
</radialGradient>
<radialGradient id="paint21_radial_68_3261" cx="0" cy="0" r="1" gradientUnits="userSpaceOnUse" gradientTransform="translate(27.0034 6.0539) rotate(127.504) scale(0.543309 1.27284)">
<stop stop-color="#B51AA6"/>
<stop offset="0.565981" stop-color="#B51AA6" stop-opacity="0.21875"/>
<stop offset="0.841141" stop-color="#B51AA6" stop-opacity="0"/>
</radialGradient>
<radialGradient id="paint22_radial_68_3261" cx="0" cy="0" r="1" gradientUnits="userSpaceOnUse" gradientTransform="translate(26.4813 5.50805) rotate(152.269) scale(0.416143 1.29012)">
<stop stop-color="#B51AA6"/>
<stop offset="0.546247" stop-color="#B51AA6" stop-opacity="0.21875"/>
<stop offset="1" stop-color="#B51AA6" stop-opacity="0"/>
</radialGradient>
<radialGradient id="paint23_radial_68_3261" cx="0" cy="0" r="1" gradientUnits="userSpaceOnUse" gradientTransform="translate(26.1433 4.12997) rotate(168.178) scale(0.549015 2.98829)">
<stop offset="0.00764343" stop-color="#B51AA6"/>
<stop offset="0.704661" stop-color="#B51AA6" stop-opacity="0.21875"/>
<stop offset="1" stop-color="#B51AA6" stop-opacity="0"/>
</radialGradient>
<radialGradient id="paint24_radial_68_3261" cx="0" cy="0" r="1" gradientUnits="userSpaceOnUse" gradientTransform="translate(16.5 28) rotate(-90) scale(11 22)">
<stop stop-color="#F70A8D"/>
<stop offset="1" stop-color="#89029C"/>
</radialGradient>
<linearGradient id="paint25_linear_68_3261" x1="16.5" y1="17" x2="16.5" y2="18.5" gradientUnits="userSpaceOnUse">
<stop stop-color="#D5A8FE"/>
<stop offset="1" stop-color="white"/>
</linearGradient>
</defs>
</svg>
