<svg width="40" height="40" viewBox="0 0 40 40" fill="none" xmlns="http://www.w3.org/2000/svg">
<path d="M19.9986 37.4972C31.6667 37.4972 37.4972 29.6628 37.4972 19.9986C37.4972 10.3344 31.6667 2.5 19.9986 2.5C8.33054 2.5 2.5 10.3344 2.5 19.9986C2.5 29.6628 8.33054 37.4972 19.9986 37.4972Z" fill="#FF9721"/>
<path d="M16.809 18.882C17.4265 19.1907 17.6768 19.9416 17.368 20.559C16.4655 22.3642 14.6319 23.3157 12.8801 23.5684C11.1445 23.8187 9.16244 23.4302 7.86612 22.1339C7.37796 21.6458 7.37796 20.8543 7.86612 20.3661C8.35427 19.878 9.14573 19.878 9.63388 20.3661C10.2126 20.9448 11.3119 21.2687 12.5232 21.094C13.7183 20.9216 14.6972 20.3105 15.132 19.441C15.4407 18.8235 16.1915 18.5733 16.809 18.882Z" fill="#402A32"/>
<path d="M23.191 18.882C22.5735 19.1907 22.3232 19.9416 22.632 20.559C23.5345 22.3642 25.3681 23.3157 27.1199 23.5684C28.8555 23.8187 30.8376 23.4302 32.1339 22.1339C32.622 21.6458 32.622 20.8543 32.1339 20.3661C31.6457 19.878 30.8543 19.878 30.3661 20.3661C29.7874 20.9448 28.6881 21.2687 27.4768 21.094C26.2817 20.9216 25.3028 20.3105 24.868 19.441C24.5593 18.8235 23.8085 18.5733 23.191 18.882Z" fill="#402A32"/>
<path d="M14.6981 30.9074C17.624 27.9707 22.3713 27.9605 25.3069 30.8747C25.7969 31.3611 26.5883 31.3582 27.0747 30.8682C27.561 30.3783 27.5581 29.5868 27.0682 29.1005C23.1538 25.2147 16.8261 25.2295 12.9271 29.1428C12.4398 29.6319 12.4412 30.4233 12.9303 30.9106C13.4193 31.3978 14.2108 31.3964 14.6981 30.9074Z" fill="#402A32"/>
</svg>
