<svg width="40" height="40" viewBox="0 0 40 40" fill="none" xmlns="http://www.w3.org/2000/svg">
<path d="M19.9986 37.4972C31.6667 37.4972 37.4972 29.6628 37.4972 19.9986C37.4972 10.3344 31.6667 2.5 19.9986 2.5C8.33054 2.5 2.5 10.3344 2.5 19.9986C2.5 29.6628 8.33054 37.4972 19.9986 37.4972Z" fill="#C5E851"/>
<path d="M16.875 22.5C16.875 22.5 18.75 20.625 18.75 18.125C18.75 15.0184 16.2316 12.5 13.125 12.5C10.0184 12.5 7.5 15.0184 7.5 18.125C7.5 20.625 8.80283 21.7251 8.80283 21.7251C8.80283 21.7251 11.3191 21.0459 13.125 21.25C15.625 21.5325 16.875 22.5 16.875 22.5Z" fill="white"/>
<path d="M10.0865 9.98452C9.34537 10.6881 8.89718 11.5347 8.71785 12.0726C8.6087 12.4001 8.25475 12.5771 7.92728 12.4679C7.59982 12.3588 7.42284 12.0048 7.532 11.6774C7.76934 10.9653 8.32115 9.93688 9.22586 9.07798C10.1412 8.209 11.4348 7.5 13.1249 7.5C13.4701 7.5 13.7499 7.77982 13.7499 8.125C13.7499 8.47018 13.4701 8.75 13.1249 8.75C11.815 8.75 10.817 9.291 10.0865 9.98452Z" fill="#402A32"/>
<path d="M26.2501 10.625C26.2501 10.2798 26.5299 10 26.8751 10C27.8429 10 29.0532 10.3554 30.1058 11.0381C31.1662 11.726 32.1213 12.783 32.4814 14.2234C32.5651 14.5583 32.3615 14.8976 32.0266 14.9813C31.6918 15.0651 31.3524 14.8615 31.2687 14.5266C31.0038 13.467 30.2923 12.649 29.4256 12.0869C28.5511 11.5196 27.5739 11.25 26.8751 11.25C26.5299 11.25 26.2501 10.9702 26.2501 10.625Z" fill="#402A32"/>
<path d="M13.7501 20.3125C15.1308 20.3125 16.2501 19.1932 16.2501 17.8125C16.2501 16.4318 15.1308 15.3125 13.7501 15.3125C12.3693 15.3125 11.2501 16.4318 11.2501 17.8125C11.2501 19.1932 12.3693 20.3125 13.7501 20.3125Z" fill="#402A32"/>
<path d="M24.655 19.0531C24.7401 18.6642 25.2839 17.5 26.8751 17.5C28.4662 17.5 29.01 18.6642 29.0951 19.0531C29.2416 19.7228 29.8354 20.13 30.4214 19.9625C31.0074 19.7951 31.3636 19.1165 31.2171 18.4468C30.9376 17.1691 29.6587 15.0001 26.8751 15.0001C24.0914 15.0001 22.8125 17.1691 22.533 18.4468C22.3865 19.1165 22.7428 19.7951 23.3287 19.9625C23.9147 20.13 24.5085 19.7228 24.655 19.0531Z" fill="#402A32"/>
<path d="M14.7501 26.7501C14.3359 26.1978 13.5524 26.0859 13.0001 26.5001C12.4478 26.9143 12.3359 27.6978 12.7501 28.2501C13.6134 29.4011 16.1104 31.2501 20.0001 31.2501C23.8899 31.2501 26.3868 29.4011 27.2501 28.2501C27.6643 27.6978 27.5524 26.9143 27.0001 26.5001C26.4479 26.0859 25.6643 26.1978 25.2501 26.7501C24.8634 27.2657 23.1104 28.7501 20.0001 28.7501C16.8899 28.7501 15.1368 27.2657 14.7501 26.7501Z" fill="#402A32"/>
</svg>
