<svg width="40" height="40" viewBox="0 0 40 40" fill="none" xmlns="http://www.w3.org/2000/svg">
<path d="M19.9986 37.4972C31.6667 37.4972 37.4972 29.6628 37.4972 19.9986C37.4972 10.3344 31.6667 2.5 19.9986 2.5C8.33054 2.5 2.5 10.3344 2.5 19.9986C2.5 29.6628 8.33054 37.4972 19.9986 37.4972Z" fill="#34C759"/>
<path d="M11.227 13.9886C11.2871 13.6795 11.4247 13.3006 11.6863 13.0157C11.9104 12.7714 12.3088 12.5 13.125 12.5C13.9271 12.5 14.3357 12.7771 14.5715 13.036C14.8442 13.3353 14.9756 13.7171 15.0184 13.9639C15.1365 14.644 15.7837 15.0997 16.4639 14.9816C17.144 14.8635 17.5997 14.2163 17.4816 13.5361C17.3828 12.9675 17.1 12.0992 16.4197 11.3524C15.7026 10.5652 14.6194 10 13.125 10C11.6446 10 10.5659 10.5391 9.84445 11.3252C9.16039 12.0705 8.88377 12.9416 8.77297 13.5114C8.6412 14.1891 9.08374 14.8453 9.7614 14.977C10.4391 15.1088 11.0952 14.6663 11.227 13.9886Z" fill="#402A32"/>
<path d="M24.9773 13.9886C25.0374 13.6795 25.175 13.3006 25.4366 13.0157C25.6607 12.7714 26.0591 12.5 26.8753 12.5C27.6775 12.5 28.086 12.7771 28.3218 13.036C28.5945 13.3353 28.7259 13.7171 28.7687 13.9639C28.8868 14.644 29.534 15.0997 30.2142 14.9816C30.8943 14.8635 31.35 14.2163 31.2319 13.5361C31.1331 12.9675 30.8503 12.0992 30.17 11.3524C29.4529 10.5652 28.3697 10 26.8753 10C25.3949 10 24.3162 10.5391 23.5948 11.3252C22.9107 12.0705 22.6341 12.9416 22.5233 13.5114C22.3915 14.1891 22.834 14.8453 23.5117 14.977C24.1894 15.1088 24.8455 14.6663 24.9773 13.9886Z" fill="#402A32"/>
<path d="M20 31.25C8.75 31.25 8.75 20 8.75 20H31.25C31.25 20 31.25 31.25 20 31.25Z" fill="#E06D8E"/>
<path d="M10 20.625V20H30V20.625C30 21.3154 29.4404 21.875 28.75 21.875H11.25C10.5596 21.875 10 21.3154 10 20.625Z" fill="white"/>
</svg>
