<svg width="40" height="40" viewBox="0 0 40 40" fill="none" xmlns="http://www.w3.org/2000/svg">
<path d="M19.9986 37.4972C31.6667 37.4972 37.4972 29.6628 37.4972 19.9986C37.4972 10.3344 31.6667 2.5 19.9986 2.5C8.33054 2.5 2.5 10.3344 2.5 19.9986C2.5 29.6628 8.33054 37.4972 19.9986 37.4972Z" fill="#FFCC00"/>
<path d="M13.125 20.3125C16.059 20.3125 18.4375 17.934 18.4375 15C18.4375 12.066 16.059 9.6875 13.125 9.6875C10.191 9.6875 7.8125 12.066 7.8125 15C7.8125 17.934 10.191 20.3125 13.125 20.3125Z" fill="white"/>
<path d="M26.875 20.3125C29.809 20.3125 32.1875 17.934 32.1875 15C32.1875 12.066 29.809 9.6875 26.875 9.6875C23.941 9.6875 21.5625 12.066 21.5625 15C21.5625 17.934 23.941 20.3125 26.875 20.3125Z" fill="white"/>
<path d="M13.75 17.5C15.1307 17.5 16.25 16.3807 16.25 15C16.25 13.6193 15.1307 12.5 13.75 12.5C12.3693 12.5 11.25 13.6193 11.25 15C11.25 16.3807 12.3693 17.5 13.75 17.5Z" fill="#402A32"/>
<path d="M26.25 17.5C27.6307 17.5 28.75 16.3807 28.75 15C28.75 13.6193 27.6307 12.5 26.25 12.5C24.8693 12.5 23.75 13.6193 23.75 15C23.75 16.3807 24.8693 17.5 26.25 17.5Z" fill="#402A32"/>
<path d="M13.75 23.75C13.0596 23.75 12.5 24.3096 12.5 25C12.5 25.6904 13.0596 26.25 13.75 26.25H26.25C26.9404 26.25 27.5 25.6904 27.5 25C27.5 24.3096 26.9404 23.75 26.25 23.75H13.75Z" fill="#402A32"/>
</svg>
