<svg width="40" height="40" viewBox="0 0 40 40" fill="none" xmlns="http://www.w3.org/2000/svg">
<path d="M19.9986 37.4972C31.6667 37.4972 37.4972 29.6628 37.4972 19.9986C37.4972 10.3344 31.6667 2.5 19.9986 2.5C8.33054 2.5 2.5 10.3344 2.5 19.9986C2.5 29.6628 8.33054 37.4972 19.9986 37.4972Z" fill="#F8312F"/>
<path d="M13.125 26.25C16.2316 26.25 18.75 23.7316 18.75 20.625C18.75 17.5184 16.2316 15 13.125 15C10.0184 15 7.5 17.5184 7.5 20.625C7.5 23.7316 10.0184 26.25 13.125 26.25Z" fill="white"/>
<path d="M26.875 26.25C29.9816 26.25 32.5 23.7316 32.5 20.625C32.5 17.5184 29.9816 15 26.875 15C23.7684 15 21.25 17.5184 21.25 20.625C21.25 23.7316 23.7684 26.25 26.875 26.25Z" fill="white"/>
<path d="M17.8624 15.6263C18.3794 15.6539 18.7762 16.0954 18.7487 16.6124C18.7211 17.1294 18.2796 17.5262 17.7626 17.4987C16.4912 17.4309 15.2767 17.1192 14.2416 16.3984C13.1975 15.6713 12.4164 14.5839 11.9234 13.1099C11.7592 12.6188 12.0241 12.0876 12.5152 11.9234C13.0062 11.7592 13.5374 12.0241 13.7016 12.5152C14.0895 13.6748 14.6544 14.401 15.3131 14.8597C15.9808 15.3247 16.8259 15.5711 17.8624 15.6263Z" fill="#402A32"/>
<path d="M22.1376 15.6263C21.6206 15.6539 21.2238 16.0954 21.2513 16.6124C21.2789 17.1294 21.7204 17.5262 22.2374 17.4987C23.5088 17.4309 24.7233 17.1192 25.7584 16.3984C26.8025 15.6713 27.5836 14.5839 28.0766 13.1099C28.2408 12.6188 27.9759 12.0876 27.4849 11.9234C26.9938 11.7592 26.4626 12.0241 26.2984 12.5152C25.9106 13.6748 25.3456 14.401 24.6869 14.8597C24.0192 15.3247 23.1741 15.5711 22.1376 15.6263Z" fill="#402A32"/>
<path d="M20 30C17.4942 30 16.3324 31.3803 16.118 31.809C15.8093 32.4265 15.0585 32.6768 14.441 32.368C13.8235 32.0593 13.5732 31.3085 13.882 30.691C14.5009 29.4531 16.5058 27.5 20 27.5C23.4942 27.5 25.4991 29.4531 26.118 30.691C26.4268 31.3085 26.1765 32.0593 25.559 32.368C24.9416 32.6768 24.1907 32.4265 23.882 31.809C23.6676 31.3803 22.5058 30 20 30Z" fill="#402A32"/>
<path d="M17.5001 21.25C17.5001 22.6307 16.3808 23.75 15.0001 23.75C13.6193 23.75 12.5001 22.6307 12.5001 21.25C12.5001 19.8693 13.6193 18.75 15.0001 18.75C16.3808 18.75 17.5001 19.8693 17.5001 21.25Z" fill="#402A32"/>
<path d="M27.5001 21.25C27.5001 22.6307 26.3808 23.75 25.0001 23.75C23.6193 23.75 22.5001 22.6307 22.5001 21.25C22.5001 19.8693 23.6193 18.75 25.0001 18.75C26.3808 18.75 27.5001 19.8693 27.5001 21.25Z" fill="#402A32"/>
</svg>
