<svg width="24" height="24" viewBox="0 0 24 24" fill="none" xmlns="http://www.w3.org/2000/svg">
<path d="M18.5306 6.53062L7.81031 17.25H15.75C15.9489 17.25 16.1397 17.329 16.2803 17.4697C16.421 17.6103 16.5 17.8011 16.5 18C16.5 18.1989 16.421 18.3897 16.2803 18.5303C16.1397 18.671 15.9489 18.75 15.75 18.75H6C5.80109 18.75 5.61032 18.671 5.46967 18.5303C5.32902 18.3897 5.25 18.1989 5.25 18V8.24999C5.25 8.05108 5.32902 7.86031 5.46967 7.71966C5.61032 7.57901 5.80109 7.49999 6 7.49999C6.19891 7.49999 6.38968 7.57901 6.53033 7.71966C6.67098 7.86031 6.75 8.05108 6.75 8.24999V16.1897L17.4694 5.46936C17.5391 5.39968 17.6218 5.34441 17.7128 5.30669C17.8039 5.26898 17.9015 5.24957 18 5.24957C18.0985 5.24957 18.1961 5.26898 18.2872 5.30669C18.3782 5.34441 18.4609 5.39968 18.5306 5.46936C18.6003 5.53905 18.6556 5.62177 18.6933 5.71282C18.731 5.80386 18.7504 5.90144 18.7504 5.99999C18.7504 6.09854 18.731 6.19612 18.6933 6.28716C18.6556 6.37821 18.6003 6.46093 18.5306 6.53062Z" fill="black"/>
</svg>
