<svg width="24" height="24" viewBox="0 0 24 24" fill="none" xmlns="http://www.w3.org/2000/svg">
<path d="M21.75 17.25C21.75 17.4489 21.671 17.6397 21.5303 17.7803C21.3897 17.921 21.1989 18 21 18C20.8011 18 20.6103 17.921 20.4697 17.7803C20.329 17.6397 20.25 17.4489 20.25 17.25C20.2498 15.6184 19.7658 14.0236 18.8593 12.6671C17.9528 11.3105 16.6644 10.2533 15.157 9.62894C13.6496 9.0046 11.991 8.84122 10.3908 9.15947C8.79057 9.47771 7.32065 10.2633 6.16687 11.4169L4.06875 13.5H8.25C8.44891 13.5 8.63968 13.579 8.78033 13.7197C8.92098 13.8603 9 14.0511 9 14.25C9 14.4489 8.92098 14.6397 8.78033 14.7803C8.63968 14.921 8.44891 15 8.25 15H2.25C2.05109 15 1.86032 14.921 1.71967 14.7803C1.57902 14.6397 1.5 14.4489 1.5 14.25V8.24999C1.5 8.05108 1.57902 7.86031 1.71967 7.71966C1.86032 7.57901 2.05109 7.49999 2.25 7.49999C2.44891 7.49999 2.63968 7.57901 2.78033 7.71966C2.92098 7.86031 3 8.05108 3 8.24999V12.4472L5.1075 10.3537C6.47127 8.99067 8.20858 8.06258 10.0998 7.68679C11.991 7.311 13.9511 7.50439 15.7324 8.24251C17.5137 8.98064 19.0361 10.2303 20.1073 11.8336C21.1784 13.4369 21.75 15.3218 21.75 17.25Z" fill="black"/>
</svg>
