<svg width="24" height="24" viewBox="0 0 24 24" fill="none" xmlns="http://www.w3.org/2000/svg">
<path d="M20.7806 12.3108L14.0306 19.0608C13.8899 19.2016 13.699 19.2806 13.5 19.2806C13.301 19.2806 13.1101 19.2016 12.9694 19.0608C12.8286 18.9201 12.7496 18.7292 12.7496 18.5302C12.7496 18.3312 12.8286 18.1403 12.9694 17.9996L18 12.5302H3.75C3.55109 12.5302 3.36032 12.4512 3.21967 12.3105C3.07902 12.1699 3 11.6989 3 11.5C3 11 3.09728 11.0387 3.21967 10.9163C3.34206 10.7939 3.77076 10.6985 3.96967 10.6985H18L12.9694 5.56083C12.8286 5.4201 12.7496 5.22923 12.7496 5.0302C12.7496 4.83118 12.8286 4.64031 12.9694 4.49958C13.1101 4.35885 13.301 4.27979 13.5 4.27979C13.699 4.27979 13.8899 4.35885 14.0306 4.49958L20.7806 11.2496C20.8504 11.3192 20.9057 11.4019 20.9434 11.493C20.9812 11.584 21.0006 11.6816 21.0006 11.7802C21.0006 11.8788 20.9812 11.9764 20.9434 12.0674C20.9057 12.1585 20.8504 12.2412 20.7806 12.3108Z" fill="black"/>
</svg>
