<svg width="24" height="24" viewBox="0 0 24 24" fill="none" xmlns="http://www.w3.org/2000/svg">
<path d="M18.5306 18.5306C18.461 18.6004 18.3783 18.6557 18.2872 18.6934C18.1962 18.7312 18.0986 18.7506 18 18.7506C17.9014 18.7506 17.8038 18.7312 17.7128 18.6934C17.6217 18.6557 17.539 18.6004 17.4694 18.5306L6.75 7.81031V15.75C6.75 15.9489 6.67098 16.1397 6.53033 16.2803C6.38968 16.421 6.19891 16.5 6 16.5C5.80109 16.5 5.61032 16.421 5.46967 16.2803C5.32902 16.1397 5.25 15.9489 5.25 15.75V6C5.25 5.80109 5.32902 5.61032 5.46967 5.46967C5.61032 5.32902 5.80109 5.25 6 5.25H15.75C15.9489 5.25 16.1397 5.32902 16.2803 5.46967C16.421 5.61032 16.5 5.80109 16.5 6C16.5 6.19891 16.421 6.38968 16.2803 6.53033C16.1397 6.67098 15.9489 6.75 15.75 6.75H7.81031L18.5306 17.4694C18.6004 17.539 18.6557 17.6217 18.6934 17.7128C18.7312 17.8038 18.7506 17.9014 18.7506 18C18.7506 18.0986 18.7312 18.1962 18.6934 18.2872C18.6557 18.3783 18.6004 18.461 18.5306 18.5306Z" fill="black"/>
</svg>
