<svg width="24" height="24" viewBox="0 0 24 24" fill="none" xmlns="http://www.w3.org/2000/svg">
<g opacity="0.8">
<path d="M4.09961 17.8086C4.15586 17.6033 4.03257 17.3178 3.91492 17.112C3.87844 17.0506 3.8387 16.9911 3.79586 16.9339C2.78676 15.4036 2.24892 13.6108 2.24898 11.7777C2.23211 6.51594 6.59523 2.24609 11.9905 2.24609C16.6959 2.24609 20.624 5.50578 21.5413 9.83282C21.679 10.4743 21.7486 11.1286 21.749 11.7847C21.749 17.0539 17.5541 21.3908 12.1588 21.3908C11.3005 21.3908 10.1432 21.1752 9.51179 20.9984C8.88039 20.8217 8.24992 20.5873 8.08726 20.5245C7.92074 20.4606 7.74392 20.4277 7.56554 20.4275C7.37103 20.4268 7.1784 20.4656 6.99929 20.5414L3.81929 21.6889C3.7498 21.7189 3.67615 21.7382 3.60086 21.7461C3.5413 21.7459 3.48237 21.7339 3.42748 21.7108C3.37259 21.6877 3.32283 21.654 3.28106 21.6115C3.2393 21.5691 3.20638 21.5187 3.18419 21.4635C3.162 21.4082 3.15099 21.3491 3.15179 21.2895C3.1557 21.2373 3.16513 21.1856 3.17992 21.1353L4.09961 17.8086Z" stroke="#201D2F" stroke-width="1.49989" stroke-miterlimit="10" stroke-linecap="round"/>
<path d="M7.50076 13.4961C8.32919 13.4961 9.00076 12.8245 9.00076 11.9961C9.00076 11.1677 8.32919 10.4961 7.50076 10.4961C6.67234 10.4961 6.00076 11.1677 6.00076 11.9961C6.00076 12.8245 6.67234 13.4961 7.50076 13.4961Z" fill="#201D2F"/>
<path d="M12.0027 13.4961C12.8312 13.4961 13.5027 12.8245 13.5027 11.9961C13.5027 11.1677 12.8312 10.4961 12.0027 10.4961C11.1743 10.4961 10.5027 11.1677 10.5027 11.9961C10.5027 12.8245 11.1743 13.4961 12.0027 13.4961Z" fill="#201D2F"/>
<path d="M16.5003 13.4961C17.3288 13.4961 18.0003 12.8245 18.0003 11.9961C18.0003 11.1677 17.3288 10.4961 16.5003 10.4961C15.6719 10.4961 15.0003 11.1677 15.0003 11.9961C15.0003 12.8245 15.6719 13.4961 16.5003 13.4961Z" fill="#201D2F"/>
</g>
</svg>
