<svg width="24" height="24" viewBox="0 0 24 24" fill="none" xmlns="http://www.w3.org/2000/svg">
<path d="M21.5306 7.28062L9.53055 19.2806C9.4609 19.3503 9.37818 19.4057 9.28713 19.4434C9.19609 19.4812 9.09849 19.5006 8.99993 19.5006C8.90137 19.5006 8.80377 19.4812 8.71272 19.4434C8.62168 19.4057 8.53896 19.3503 8.4693 19.2806L3.2193 14.0306C3.07857 13.8899 2.99951 13.699 2.99951 13.5C2.99951 13.301 3.07857 13.1101 3.2193 12.9694C3.36003 12.8286 3.80098 12.5 4 12.5C4.19902 12.5 4.35927 12.6088 4.5 12.7496L8.99993 17L20.3164 6.21936C20.5 6 20.801 6 21 6C21.199 6 21.3898 6.07863 21.5306 6.21936C21.6713 6.36009 21.7503 6.55097 21.7503 6.74999C21.7503 6.94901 21.6713 7.13988 21.5306 7.28062Z" fill="black"/>
</svg>
