<svg width="24" height="24" viewBox="0 0 24 24" fill="none" xmlns="http://www.w3.org/2000/svg">
<path d="M22.8075 6.3975L20.5575 4.18875C20.2763 3.90852 19.8955 3.75116 19.4986 3.75116C19.1016 3.75116 18.7208 3.90852 18.4397 4.18875L9.74997 12.7716L6.31028 9.43406C6.02854 9.15474 5.64761 8.9984 5.25088 8.99928C4.85414 9.00016 4.47391 9.15818 4.19341 9.43875L1.94341 11.6887C1.6626 11.97 1.50488 12.3512 1.50488 12.7486C1.50488 13.146 1.6626 13.5272 1.94341 13.8084L8.65778 20.5584C8.79707 20.6978 8.96245 20.8083 9.14446 20.8837C9.32647 20.9591 9.52155 20.9979 9.71856 20.9979C9.91558 20.9979 10.1107 20.9591 10.2927 20.8837C10.4747 20.8083 10.6401 20.6978 10.7793 20.5584L22.8122 8.52281C22.9517 8.38314 23.0624 8.21729 23.1377 8.03476C23.213 7.85224 23.2516 7.65664 23.2512 7.45918C23.2507 7.26172 23.2113 7.06629 23.1352 6.8841C23.059 6.70191 22.9477 6.53655 22.8075 6.3975ZM9.71434 19.5L2.99997 12.75L5.24997 10.5C5.2527 10.5023 5.25521 10.5048 5.25747 10.5075L9.22778 14.3597C9.36794 14.4968 9.55623 14.5736 9.75231 14.5736C9.9484 14.5736 10.1367 14.4968 10.2768 14.3597L19.5056 5.25L21.75 7.4625L9.71434 19.5Z" fill="black"/>
</svg>
