<svg width="24" height="24" viewBox="0 0 24 24" fill="none" xmlns="http://www.w3.org/2000/svg">
<path d="M15.3751 6.93754C14.7027 6.93756 14.0339 7.03514 13.3895 7.22722C13.1133 6.74777 12.7605 6.31676 12.3451 5.95129L13.3314 4.54504C13.3738 4.48452 13.4039 4.41625 13.4199 4.34412C13.4359 4.27198 13.4376 4.1974 13.4248 4.12462C13.412 4.05184 13.385 3.9823 13.3453 3.91996C13.3056 3.85761 13.2541 3.8037 13.1935 3.76129C13.133 3.71887 13.0648 3.68879 12.9926 3.67277C12.9205 3.65674 12.8459 3.65507 12.7731 3.66787C12.7004 3.68067 12.6308 3.70768 12.5685 3.74735C12.5061 3.78702 12.4522 3.83859 12.4098 3.8991L11.4235 5.30535C10.6803 4.8996 9.84693 4.68716 9.00011 4.68754C8.8923 4.68754 8.78636 4.68754 8.68042 4.69879L8.38136 3.00472C8.37067 2.93006 8.34507 2.85831 8.30608 2.79374C8.2671 2.72917 8.21553 2.6731 8.15443 2.62886C8.09334 2.58463 8.02397 2.55313 7.95046 2.53625C7.87695 2.51936 7.80079 2.51744 7.72652 2.53058C7.65225 2.54372 7.58138 2.57167 7.51813 2.61276C7.45488 2.65384 7.40053 2.70723 7.35833 2.76975C7.31613 2.83226 7.28693 2.90263 7.27247 2.97665C7.25802 3.05068 7.25859 3.12686 7.27417 3.20066L7.5723 4.89379C6.6565 5.1642 5.83586 5.68812 5.20511 6.40504L3.79417 5.41691C3.73366 5.3745 3.66539 5.34442 3.59326 5.32839C3.52112 5.31236 3.44654 5.3107 3.37376 5.3235C3.30098 5.33629 3.23144 5.3633 3.16909 5.40297C3.10675 5.44265 3.05284 5.49421 3.01042 5.55472C2.92477 5.67693 2.89117 5.82816 2.91701 5.97514C2.94286 6.12212 3.02603 6.25282 3.14824 6.33847L4.55449 7.32472C4.148 8.06835 3.93582 8.90256 3.93761 9.75003C3.93761 9.85597 3.93761 9.96191 3.94886 10.0678L2.2548 10.366C2.11643 10.3902 1.99213 10.4653 1.90635 10.5766C1.82058 10.6878 1.77953 10.8271 1.79128 10.9671C1.80303 11.1071 1.86674 11.2376 1.96987 11.333C2.07299 11.4284 2.20808 11.4817 2.34855 11.4825C2.38154 11.4824 2.41446 11.4796 2.44699 11.4741L4.14386 11.175C4.29067 11.6754 4.51461 12.1499 4.80761 12.5813C4.0851 13.2069 3.57106 14.0383 3.33441 14.9643C3.09775 15.8902 3.14977 16.8664 3.48351 17.7619C3.81725 18.6575 4.41675 19.4296 5.20167 19.9748C5.98658 20.5201 6.9194 20.8124 7.87511 20.8125H15.3751C17.2151 20.8125 18.9796 20.0816 20.2807 18.7806C21.5817 17.4796 22.3126 15.715 22.3126 13.875C22.3126 12.0351 21.5817 10.2705 20.2807 8.96948C18.9796 7.66845 17.2151 6.93754 15.3751 6.93754ZM5.06261 9.75003C5.06233 8.89698 5.33908 8.06691 5.85124 7.38472C6.3634 6.70252 7.08325 6.2051 7.90249 5.9673C8.72172 5.7295 9.59603 5.76419 10.3939 6.06614C11.1917 6.36809 11.8699 6.92097 12.3264 7.6416C10.7004 8.43499 9.44692 9.82998 8.83136 11.5313C8.51663 11.4676 8.19622 11.4362 7.87511 11.4375C7.13182 11.437 6.3992 11.6144 5.73855 11.955C5.29821 11.304 5.0628 10.536 5.06261 9.75003ZM15.3751 19.6875H7.87511C7.3794 19.6872 6.88922 19.5833 6.43593 19.3827C5.98263 19.1821 5.57619 18.8891 5.24261 18.5224C4.90902 18.1557 4.65564 17.7234 4.49865 17.2532C4.34166 16.783 4.28453 16.2853 4.33091 15.7917C4.37729 15.2982 4.52616 14.8198 4.768 14.387C5.00984 13.9543 5.33932 13.5768 5.73537 13.2787C6.13143 12.9806 6.58534 12.7684 7.06808 12.6558C7.55082 12.5431 8.05176 12.5324 8.53886 12.6244C8.48863 12.9034 8.45514 13.1852 8.43855 13.4682C8.42985 13.6173 8.48076 13.7639 8.5801 13.8755C8.67944 13.9872 8.81905 14.0548 8.96824 14.0635C9.11742 14.0722 9.26395 14.0213 9.3756 13.9219C9.48724 13.8226 9.55485 13.683 9.56355 13.5338C9.58725 13.1459 9.65007 12.7615 9.75105 12.3863C9.75105 12.3722 9.75855 12.3591 9.76136 12.346C10.0455 11.2986 10.6169 10.3516 11.411 9.61197C12.2052 8.87232 13.1903 8.36951 14.2552 8.16036C15.3201 7.95121 16.4222 8.04405 17.4371 8.4284C18.4519 8.81274 19.3391 9.47327 19.9983 10.3353C20.6575 11.1974 21.0624 12.2267 21.1674 13.3068C21.2723 14.3869 21.073 15.4749 20.5921 16.4477C20.1112 17.4206 19.3678 18.2395 18.4459 18.812C17.524 19.3845 16.4603 19.6878 15.3751 19.6875Z" fill="black"/>
<path d="M5.06261 9.75003C5.06233 8.89698 5.33908 8.06691 5.85124 7.38472C6.3634 6.70252 7.08325 6.2051 7.90249 5.9673C8.72172 5.7295 9.59603 5.76419 10.3939 6.06614C11.1917 6.36809 11.8699 6.92097 12.3264 7.6416C10.7004 8.43499 9.44692 9.82998 8.83136 11.5313C8.51663 11.4676 8.19622 11.4362 7.87511 11.4375C7.13182 11.437 6.3992 11.6144 5.73855 11.955C5.29821 11.304 5.0628 10.536 5.06261 9.75003Z" fill="#FFE83C"/>
</svg>
