<svg width="24" height="24" viewBox="0 0 24 24" fill="none" xmlns="http://www.w3.org/2000/svg">
<path d="M14.7187 18.3122L11.7187 22.8122C11.6359 22.9366 11.5071 23.0229 11.3606 23.0523C11.2142 23.0816 11.0621 23.0516 10.9377 22.9688C10.8134 22.886 10.7271 22.7572 10.6977 22.6108C10.6684 22.4643 10.6984 22.3122 10.7812 22.1879L13.7812 17.6879C13.864 17.5635 13.9928 17.4772 14.1392 17.4478C14.2857 17.4185 14.4378 17.4485 14.5621 17.5313C14.6864 17.6141 14.7728 17.7429 14.8021 17.8893C14.8315 18.0358 14.8015 18.1879 14.7187 18.3122ZM21.5624 8.62505C21.5602 10.4643 20.8286 12.2276 19.528 13.5281C18.2275 14.8287 16.4642 15.5603 14.6249 15.5625H12.3009L9.46869 19.8122C9.42769 19.8738 9.37497 19.9267 9.31354 19.9679C9.2521 20.009 9.18316 20.0377 9.11064 20.0523C9.03813 20.0668 8.96346 20.0669 8.8909 20.0526C8.81834 20.0383 8.74931 20.0098 8.68775 19.9688C8.62619 19.9278 8.57331 19.8751 8.53213 19.8136C8.49095 19.7522 8.46227 19.6833 8.44773 19.6108C8.43319 19.5382 8.43308 19.4636 8.4474 19.391C8.46172 19.3184 8.49019 19.2494 8.53119 19.1879L10.949 15.5625H7.12494C6.47085 15.5592 5.82471 15.4191 5.22804 15.1511C4.63138 14.8831 4.09741 14.4931 3.66047 14.0064C3.22353 13.5197 2.89329 12.9469 2.691 12.3248C2.4887 11.7028 2.41883 11.0453 2.48587 10.3947C2.5529 9.74405 2.75537 9.11463 3.08024 8.54693C3.40511 7.97922 3.8452 7.48578 4.37221 7.09836C4.89921 6.71093 5.50147 6.43808 6.14024 6.29737C6.77902 6.15665 7.44017 6.15117 8.08119 6.2813C8.63383 4.74251 9.71166 3.44803 11.1249 2.6258C12.5381 1.80357 14.1961 1.50631 15.807 1.78636C17.4179 2.06642 18.8783 2.90582 19.9311 4.15678C20.9839 5.40773 21.5616 6.99003 21.5624 8.62505ZM20.4374 8.62505C20.4325 7.11491 19.8406 5.66586 18.7869 4.58414C17.7331 3.50243 16.3 2.87283 14.7905 2.82839C13.281 2.78396 11.8134 3.32819 10.6978 4.34604C9.58228 5.3639 8.90617 6.77563 8.81244 8.28286C8.80373 8.43204 8.73612 8.57166 8.62448 8.67099C8.51284 8.77033 8.36631 8.82125 8.21712 8.81255C8.06794 8.80384 7.92832 8.73623 7.82899 8.62459C7.72965 8.51295 7.67873 8.36642 7.68744 8.21723C7.70402 7.93424 7.73752 7.65248 7.78775 7.37348C7.30089 7.28226 6.80037 7.29357 6.31813 7.40669C5.83589 7.5198 5.38254 7.73224 4.98703 8.03043C4.59152 8.32862 4.26254 8.70601 4.02109 9.1385C3.77964 9.571 3.63104 10.0491 3.58476 10.5422C3.53849 11.0354 3.59557 11.5328 3.75235 12.0027C3.90913 12.4725 4.16217 12.9045 4.49531 13.2711C4.82845 13.6376 5.23437 13.9307 5.68715 14.1315C6.13993 14.3324 6.62961 14.4366 7.12494 14.4375H14.6249C16.166 14.4358 17.6434 13.8229 18.7331 12.7332C19.8228 11.6435 20.4357 10.1661 20.4374 8.62505Z" fill="black"/>
<path d="M20.4374 8.62505C20.4325 7.11491 19.8406 5.66586 18.7869 4.58414C17.7331 3.50243 16.3 2.87283 14.7905 2.82839C13.281 2.78396 11.8134 3.32819 10.6978 4.34604C9.58228 5.3639 8.90617 6.77563 8.81244 8.28286C8.80373 8.43204 8.73612 8.57166 8.62448 8.67099C8.51284 8.77033 8.36631 8.82125 8.21712 8.81255C8.06794 8.80384 7.92832 8.73623 7.82899 8.62459C7.72965 8.51295 7.67873 8.36642 7.68744 8.21723C7.70402 7.93424 7.73752 7.65248 7.78775 7.37348C7.30089 7.28226 6.80037 7.29357 6.31813 7.40669C5.83589 7.5198 5.38254 7.73224 4.98703 8.03043C4.59152 8.32862 4.26254 8.70601 4.02109 9.1385C3.77964 9.571 3.63104 10.0491 3.58476 10.5422C3.53849 11.0354 3.59557 11.5328 3.75235 12.0027C3.90913 12.4725 4.16217 12.9045 4.49531 13.2711C4.82845 13.6376 5.23437 13.9307 5.68715 14.1315C6.13993 14.3324 6.62961 14.4366 7.12494 14.4375H14.6249C16.166 14.4358 17.6434 13.8229 18.7331 12.7332C19.8228 11.6435 20.4357 10.1661 20.4374 8.62505Z" fill="#8C929C"/>
</svg>
