<svg width="24" height="24" viewBox="0 0 24 24" fill="none" xmlns="http://www.w3.org/2000/svg">
<path d="M17.055 14.3438C16.8674 15.3919 16.3632 16.3574 15.6103 17.1103C14.8574 17.8633 13.8919 18.3674 12.8438 18.555C12.8127 18.5598 12.7814 18.5623 12.75 18.5625C12.6086 18.5631 12.4721 18.5103 12.3678 18.4148C12.2635 18.3193 12.1991 18.188 12.1872 18.047C12.1754 17.9061 12.2171 17.7659 12.304 17.6543C12.391 17.5428 12.5167 17.468 12.6562 17.445C14.2856 17.1713 15.6684 15.7875 15.945 14.1563C15.9699 14.0091 16.0522 13.8778 16.1738 13.7913C16.2341 13.7485 16.3022 13.7179 16.3742 13.7014C16.4463 13.6849 16.5209 13.6827 16.5938 13.695C16.6666 13.7073 16.7364 13.7339 16.799 13.7731C16.8616 13.8124 16.9159 13.8636 16.9587 13.9239C17.0016 13.9841 17.0321 14.0522 17.0486 14.1242C17.0651 14.1963 17.0673 14.2709 17.055 14.3438ZM20.0625 13.5C20.0625 15.6383 19.2131 17.6891 17.701 19.2011C16.189 20.7131 14.1383 21.5625 12 21.5625C9.86169 21.5625 7.81096 20.7131 6.29895 19.2011C4.78694 17.6891 3.9375 15.6383 3.9375 13.5C3.9375 10.9247 4.95469 8.28658 6.96094 5.65877C7.00911 5.59477 7.0704 5.5418 7.1407 5.50341C7.211 5.46501 7.28869 5.44207 7.36858 5.43612C7.44846 5.43018 7.52869 5.44136 7.6039 5.46892C7.67911 5.49649 7.74757 5.5398 7.80469 5.59596L10.2741 7.99221L12.4387 2.05689C12.4696 1.9722 12.5204 1.89617 12.5869 1.83521C12.6533 1.77425 12.7334 1.73015 12.8204 1.70662C12.9074 1.6831 12.9988 1.68083 13.0869 1.70003C13.175 1.71922 13.2572 1.7593 13.3266 1.81689C15.3487 3.49971 20.0625 8.00627 20.0625 13.5ZM18.9375 13.5C18.9375 8.96252 15.3141 5.07752 13.2122 3.20627L11.0287 9.19314C10.9966 9.28138 10.9429 9.36017 10.8725 9.42233C10.8022 9.48449 10.7173 9.52805 10.6258 9.54902C10.5343 9.56999 10.439 9.56771 10.3485 9.5424C10.2581 9.51708 10.1755 9.46953 10.1081 9.40408L7.48312 6.85221C5.87531 9.10596 5.0625 11.3438 5.0625 13.5C5.0625 15.34 5.79341 17.1045 7.09445 18.4056C8.39548 19.7066 10.1601 20.4375 12 20.4375C13.8399 20.4375 15.6045 19.7066 16.9056 18.4056C18.2066 17.1045 18.9375 15.34 18.9375 13.5Z" fill="black"/>
<path fill-rule="evenodd" clip-rule="evenodd" d="M18.9375 13.5C18.9375 8.96252 15.3141 5.07752 13.2122 3.20627L11.0287 9.19314C10.9966 9.28138 10.9429 9.36017 10.8725 9.42233C10.8022 9.48449 10.7173 9.52805 10.6258 9.54902C10.5343 9.56999 10.439 9.56771 10.3485 9.5424C10.2581 9.51708 10.1755 9.46953 10.1081 9.40408L7.48312 6.85221C5.87531 9.10596 5.0625 11.3438 5.0625 13.5C5.0625 15.34 5.79341 17.1045 7.09445 18.4056C8.39548 19.7066 10.1601 20.4375 12 20.4375C13.8399 20.4375 15.6045 19.7066 16.9056 18.4056C18.2066 17.1045 18.9375 15.34 18.9375 13.5ZM15.6103 17.1103C16.3632 16.3574 16.8674 15.3919 17.055 14.3438C17.0673 14.2709 17.0651 14.1963 17.0486 14.1242C17.0321 14.0522 17.0016 13.9841 16.9587 13.9239C16.9159 13.8636 16.8616 13.8124 16.799 13.7731C16.7364 13.7339 16.6666 13.7073 16.5938 13.695C16.5209 13.6827 16.4463 13.6849 16.3742 13.7014C16.3022 13.7179 16.2341 13.7485 16.1738 13.7913C16.0522 13.8778 15.9699 14.0091 15.945 14.1563C15.6684 15.7875 14.2856 17.1713 12.6562 17.445C12.5167 17.468 12.391 17.5428 12.304 17.6543C12.2171 17.7659 12.1754 17.9061 12.1872 18.047C12.1991 18.188 12.2635 18.3193 12.3678 18.4148C12.4721 18.5103 12.6086 18.5631 12.75 18.5625C12.7814 18.5623 12.8127 18.5598 12.8438 18.555C13.8919 18.3674 14.8574 17.8633 15.6103 17.1103Z" fill="#FF9F3A"/>
</svg>
