<svg width="24" height="24" viewBox="0 0 24 24" fill="none" xmlns="http://www.w3.org/2000/svg">
<path d="M17.9729 16.0763C18.9421 15.2836 19.7181 14.2807 20.2423 13.1436C20.7664 12.0065 21.0249 10.765 20.9981 9.51326C20.9025 5.23992 17.4823 1.71738 13.2185 1.49262C12.1144 1.43254 11.0096 1.59567 9.97 1.97228C8.93041 2.34888 7.97743 2.93122 7.168 3.68448C6.35858 4.43775 5.70934 5.34647 5.25909 6.35635C4.80883 7.36622 4.56681 8.45651 4.54749 9.56204L2.37734 13.7321C2.37065 13.7445 2.36491 13.7569 2.35917 13.7703C2.22571 14.0839 2.21681 14.4365 2.33427 14.7564C2.45173 15.0762 2.68672 15.3393 2.99137 15.4919L3.00859 15.5005L5.31168 16.5526V19.6514C5.31168 20.0066 5.45275 20.3471 5.70386 20.5983C5.95498 20.8494 6.29556 20.9904 6.65068 20.9904H11.2416C11.3938 20.9904 11.5397 20.93 11.6473 20.8224C11.755 20.7147 11.8154 20.5688 11.8154 20.4166C11.8154 20.2644 11.755 20.1184 11.6473 20.0108C11.5397 19.9032 11.3938 19.8427 11.2416 19.8427H6.65164C6.60091 19.8427 6.55225 19.8226 6.51638 19.7867C6.48051 19.7508 6.46035 19.7022 6.46035 19.6514V16.1901C6.46046 16.0801 6.42896 15.9725 6.36961 15.8799C6.31027 15.7873 6.22557 15.7137 6.1256 15.6679L3.49541 14.4657C3.45594 14.444 3.42538 14.4091 3.40911 14.3671C3.39284 14.3251 3.3919 14.2787 3.40647 14.2361L5.62634 9.96948C5.67033 9.88802 5.69396 9.79712 5.69521 9.70455C5.69576 8.05978 6.26876 6.46648 7.31587 5.19808C8.36298 3.92968 9.81891 3.06527 11.4338 2.7532V4.62015C10.9452 4.75867 10.5231 5.06923 10.2456 5.49454C9.968 5.91984 9.85362 6.43119 9.92355 6.93423C9.99347 7.43726 10.243 7.89803 10.626 8.23152C11.0091 8.565 11.4998 8.74869 12.0077 8.74869C12.5155 8.74869 13.0063 8.565 13.3893 8.23152C13.7724 7.89803 14.0219 7.43726 14.0918 6.93423C14.1617 6.43119 14.0473 5.91984 13.7697 5.49454C13.4922 5.06923 13.0701 4.75867 12.5815 4.62015V2.63173C12.7728 2.62695 12.9641 2.62695 13.1554 2.63747C14.5959 2.71983 15.9772 3.23879 17.1155 4.12533C18.2539 5.01186 19.0954 6.22396 19.5281 7.6004H17.3637C17.2795 7.6004 17.1964 7.61891 17.1202 7.65461C17.044 7.69031 16.9766 7.74233 16.9228 7.80699L14.393 10.8427C13.9279 10.6349 13.4034 10.6023 12.9162 10.751C12.4289 10.8997 12.012 11.2197 11.7423 11.6518C11.4725 12.084 11.3683 12.5991 11.4487 13.1021C11.5291 13.6051 11.7888 14.0621 12.1799 14.3885C12.5709 14.715 13.0668 14.889 13.5761 14.8784C14.0854 14.8678 14.5737 14.6733 14.9507 14.3308C15.3278 13.9883 15.5682 13.5209 15.6276 13.015C15.687 12.5091 15.5614 11.9987 15.2739 11.5782L17.6324 8.74812H19.7844C19.8208 9.01002 19.8422 9.27378 19.8485 9.53813C19.8731 10.6644 19.6294 11.7804 19.1374 12.7939C18.6455 13.8073 17.9195 14.6892 17.0194 15.3666C16.9386 15.4273 16.8752 15.5083 16.8358 15.6013C16.7963 15.6944 16.7821 15.7962 16.7946 15.8965L17.5597 22.0177C17.577 22.1565 17.6443 22.2842 17.7491 22.3768C17.8539 22.4695 17.989 22.5206 18.1288 22.5207C18.1528 22.5206 18.1768 22.519 18.2006 22.516C18.2754 22.5066 18.3476 22.4826 18.4131 22.4454C18.4786 22.4081 18.5362 22.3583 18.5825 22.2988C18.6287 22.2393 18.6628 22.1712 18.6828 22.0985C18.7028 22.0259 18.7082 21.9499 18.6989 21.8751L17.9729 16.0763ZM12.9641 6.64397C12.9641 6.83313 12.908 7.01805 12.8029 7.17533C12.6978 7.33261 12.5484 7.4552 12.3737 7.52759C12.1989 7.59998 12.0066 7.61892 11.8211 7.58202C11.6355 7.54512 11.4651 7.45402 11.3314 7.32026C11.1976 7.18651 11.1065 7.01609 11.0696 6.83056C11.0327 6.64503 11.0516 6.45272 11.124 6.27795C11.1964 6.10319 11.319 5.95381 11.4763 5.84872C11.6336 5.74363 11.8185 5.68753 12.0077 5.68753C12.2613 5.68753 12.5046 5.7883 12.684 5.96767C12.8633 6.14703 12.9641 6.3903 12.9641 6.64397ZM13.538 13.7216C13.3488 13.7216 13.1639 13.6655 13.0066 13.5604C12.8493 13.4553 12.7267 13.3059 12.6543 13.1311C12.5819 12.9564 12.563 12.7641 12.5999 12.5785C12.6368 12.393 12.7279 12.2226 12.8617 12.0888C12.9954 11.9551 13.1658 11.864 13.3514 11.8271C13.5369 11.7902 13.7292 11.8091 13.904 11.8815C14.0787 11.9539 14.2281 12.0765 14.3332 12.2338C14.4383 12.391 14.4944 12.576 14.4944 12.7651C14.4944 13.0188 14.3936 13.2621 14.2143 13.4414C14.0349 13.6208 13.7916 13.7216 13.538 13.7216Z" fill="black"/>
<path d="M13.538 13.7216C13.3488 13.7216 13.1639 13.6655 13.0066 13.5604C12.8493 13.4553 12.7267 13.3059 12.6543 13.1311C12.5819 12.9564 12.563 12.7641 12.5999 12.5785C12.6368 12.393 12.7279 12.2226 12.8617 12.0888C12.9954 11.9551 13.1658 11.864 13.3514 11.8271C13.5369 11.7902 13.7292 11.8091 13.904 11.8815C14.0787 11.9539 14.2281 12.0765 14.3332 12.2338C14.4383 12.391 14.4944 12.576 14.4944 12.7651C14.4944 13.0188 14.3936 13.2621 14.2143 13.4414C14.0349 13.6208 13.7916 13.7216 13.538 13.7216Z" fill="#F26767"/>
<path d="M12.9641 6.64397C12.9641 6.83313 12.908 7.01805 12.8029 7.17533C12.6978 7.33261 12.5484 7.4552 12.3737 7.52759C12.1989 7.59998 12.0066 7.61892 11.8211 7.58202C11.6355 7.54512 11.4651 7.45402 11.3314 7.32026C11.1976 7.18651 11.1065 7.01609 11.0696 6.83056C11.0327 6.64503 11.0516 6.45272 11.124 6.27795C11.1964 6.10319 11.319 5.95381 11.4763 5.84872C11.6336 5.74363 11.8185 5.68753 12.0077 5.68753C12.2613 5.68753 12.5046 5.7883 12.684 5.96767C12.8633 6.14703 12.9641 6.3903 12.9641 6.64397Z" fill="#F26767"/>
</svg>
