<svg width="24" height="24" viewBox="0 0 24 24" fill="none" xmlns="http://www.w3.org/2000/svg">
<path d="M12.7501 7.49997V11.5753L16.1363 13.6068C16.3069 13.7093 16.4298 13.8753 16.478 14.0683C16.5261 14.2614 16.4956 14.4657 16.3932 14.6362C16.2908 14.8068 16.1248 14.9297 15.9317 14.9778C15.7387 15.026 15.5344 14.9955 15.3638 14.8931L11.6138 12.6431C11.5028 12.5764 11.411 12.4821 11.3473 12.3694C11.2835 12.2567 11.25 12.1294 11.2501 12V7.49997C11.2501 7.30106 11.3291 7.11029 11.4697 6.96964C11.6104 6.82899 11.8012 6.74997 12.0001 6.74997C12.199 6.74997 12.3898 6.82899 12.5304 6.96964C12.6711 7.11029 12.7501 7.30106 12.7501 7.49997ZM21.0001 5.24997C20.8012 5.24997 20.6104 5.32899 20.4697 5.46964C20.3291 5.61029 20.2501 5.80106 20.2501 5.99997V7.68747C19.6548 6.99747 19.0473 6.33278 18.3638 5.64091C17.1131 4.39001 15.5214 3.53543 13.7877 3.18396C12.0541 2.83249 10.2552 2.99971 8.61606 3.66472C6.97688 4.32974 5.57002 5.46306 4.57126 6.92307C3.57251 8.38309 3.02615 10.1051 3.00046 11.8738C2.97477 13.6426 3.47089 15.3797 4.42682 16.8681C5.38275 18.3565 6.7561 19.5302 8.37528 20.2425C9.99445 20.9549 11.7876 21.1743 13.5308 20.8733C15.274 20.5723 16.8898 19.7643 18.1763 18.5503C18.248 18.4826 18.3056 18.4014 18.3459 18.3114C18.3862 18.2214 18.4083 18.1244 18.4111 18.0259C18.4139 17.9273 18.3972 17.8292 18.3621 17.7371C18.327 17.645 18.274 17.5607 18.2063 17.489C18.1386 17.4174 18.0574 17.3598 17.9675 17.3195C17.8775 17.2792 17.7805 17.257 17.6819 17.2542C17.5834 17.2515 17.4852 17.2681 17.3931 17.3032C17.301 17.3384 17.2167 17.3913 17.1451 17.459C16.0726 18.4697 14.7262 19.1421 13.2739 19.3921C11.8216 19.6422 10.3278 19.4589 8.97908 18.865C7.63036 18.2712 6.48646 17.2932 5.69024 16.0532C4.89402 14.8131 4.48075 13.366 4.50205 11.8925C4.52336 10.419 4.97828 8.98439 5.81001 7.76788C6.64175 6.55138 7.81344 5.60685 9.17876 5.05226C10.5441 4.49767 12.0425 4.3576 13.487 4.64952C14.9315 4.94145 16.2579 5.65245 17.3007 6.69372C18.0638 7.46622 18.7323 8.2106 19.4063 8.99997H17.2501C17.0512 8.99997 16.8604 9.07899 16.7197 9.21964C16.5791 9.36029 16.5001 9.55106 16.5001 9.74997C16.5001 9.94888 16.5791 10.1396 16.7197 10.2803C16.8604 10.421 17.0512 10.5 17.2501 10.5H21.0001C21.199 10.5 21.3898 10.421 21.5304 10.2803C21.6711 10.1396 21.7501 9.94888 21.7501 9.74997V5.99997C21.7501 5.80106 21.6711 5.61029 21.5304 5.46964C21.3898 5.32899 21.199 5.24997 21.0001 5.24997Z" fill="black"/>
</svg>
