<svg width="24" height="24" viewBox="0 0 24 24" fill="none" xmlns="http://www.w3.org/2000/svg">
<path d="M20.7611 3.76778C20.753 3.63017 20.6947 3.5003 20.5973 3.40282C20.4998 3.30535 20.3699 3.24706 20.2323 3.23903C13.1654 2.82278 7.51324 4.94153 5.1123 8.90621C3.4773 11.6053 3.54105 14.7937 5.28012 17.925L3.35261 19.8525C3.29735 19.904 3.25302 19.9661 3.22228 20.0351C3.19154 20.1041 3.175 20.1785 3.17367 20.2541C3.17234 20.3296 3.18623 20.4046 3.21452 20.4747C3.24281 20.5447 3.28492 20.6083 3.33834 20.6617C3.39175 20.7152 3.45538 20.7573 3.52542 20.7856C3.59546 20.8138 3.67048 20.8277 3.74601 20.8264C3.82153 20.8251 3.89602 20.8085 3.96502 20.7778C4.03402 20.7471 4.09612 20.7027 4.14762 20.6475L6.07512 18.72C7.69418 19.619 9.32824 20.0709 10.9023 20.0709C12.382 20.0715 13.8329 19.662 15.0939 18.8878C19.0586 16.4868 21.1764 10.8347 20.7611 3.76778ZM14.5117 17.924C12.2542 19.2909 9.57668 19.2712 6.90574 17.8875L15.3986 9.39465C15.4979 9.28802 15.552 9.14699 15.5494 9.00126C15.5469 8.85553 15.4878 8.7165 15.3848 8.61344C15.2817 8.51038 15.1427 8.45134 14.9969 8.44877C14.8512 8.4462 14.7102 8.50029 14.6036 8.59965L6.11074 17.0943C4.72699 14.4234 4.70449 11.7506 6.07418 9.4884C8.20043 5.97934 13.2582 4.06965 19.6679 4.33684C19.9304 10.7418 18.0207 15.8006 14.5117 17.9259V17.924Z" fill="black"/>
<path d="M14.5117 17.924C12.2542 19.2909 9.57668 19.2712 6.90574 17.8875L15.3986 9.39465C15.4979 9.28802 15.552 9.14699 15.5494 9.00126C15.5469 8.85553 15.4878 8.7165 15.3848 8.61344C15.2817 8.51038 15.1427 8.45134 14.9969 8.44877C14.8512 8.4462 14.7102 8.50029 14.6036 8.59965L6.11074 17.0943C4.72699 14.4234 4.70449 11.7506 6.07418 9.4884C8.20043 5.97934 13.2582 4.06965 19.6679 4.33684C19.9304 10.7418 18.0207 15.8006 14.5117 17.9259V17.924Z" fill="#428764"/>
</svg>
