<svg width="24" height="24" viewBox="0 0 24 24" fill="none" xmlns="http://www.w3.org/2000/svg">
<path d="M21 12C21 12.1989 20.921 12.3897 20.7803 12.5303C20.6397 12.671 20.4489 12.75 20.25 12.75H13V20.25C13 20.4489 12.873 20.6397 12.7324 20.7803C12.5917 20.921 12.1989 21 12 21C11.8011 21 11.6103 20.921 11.4697 20.7803C11.329 20.6397 11.25 20.4489 11.25 20.25V12.75H3.75C3.55109 12.75 3.36032 12.671 3.21967 12.5303C3.07902 12.3897 3 12.1989 3 12C3 11.8011 3.07902 11.3907 3.21967 11.25C3.36032 11.1093 3.63375 11 3.83266 11H11.25V3.75C11.25 3.55109 11.329 3.36032 11.4697 3.21967C11.6103 3.07902 11.8011 3 12 3C12.5404 3 12.6246 3.07902 12.7653 3.21967C12.9059 3.36032 13 3.55109 13 3.75V11C13 11 20 11 20.25 11C20.5 11 20.6723 11.2451 20.7803 11.3531C20.8884 11.4612 21 11.8011 21 12Z" fill="black"/>
</svg>
