<svg width="24" height="24" viewBox="0 0 24 24" fill="none" xmlns="http://www.w3.org/2000/svg">
<path d="M21.451 10.771L15.4219 8.57814L13.2291 2.54908C13.1373 2.29679 12.9702 2.07885 12.7503 1.92485C12.5304 1.77084 12.2685 1.68823 12 1.68823C11.7316 1.68823 11.4696 1.77084 11.2497 1.92485C11.0299 2.07885 10.8627 2.29679 10.771 2.54908L8.57814 8.57814L2.54908 10.771C2.29679 10.8627 2.07885 11.0299 1.92485 11.2497C1.77084 11.4696 1.68823 11.7316 1.68823 12C1.68823 12.2685 1.77084 12.5304 1.92485 12.7503C2.07885 12.9702 2.29679 13.1373 2.54908 13.2291L8.57814 15.4219L10.771 21.451C10.8627 21.7032 11.0299 21.9212 11.2497 22.0752C11.4696 22.2292 11.7316 22.3118 12 22.3118C12.2685 22.3118 12.5304 22.2292 12.7503 22.0752C12.9702 21.9212 13.1373 21.7032 13.2291 21.451L15.4219 15.4219L21.451 13.2291C21.7032 13.1373 21.9212 12.9702 22.0752 12.7503C22.2292 12.5304 22.3118 12.2685 22.3118 12C22.3118 11.7316 22.2292 11.4696 22.0752 11.2497C21.9212 11.0299 21.7032 10.8627 21.451 10.771ZM21.0666 12.1772L14.791 14.4591C14.7137 14.4872 14.6435 14.5319 14.5853 14.59C14.5272 14.6482 14.4825 14.7183 14.4544 14.7956L12.1725 21.0713C12.1581 21.1051 12.1341 21.1339 12.1034 21.1542C12.0727 21.1745 12.0368 21.1853 12 21.1853C11.9633 21.1853 11.9273 21.1745 11.8966 21.1542C11.866 21.1339 11.8419 21.1051 11.8275 21.0713L9.54564 14.7956C9.51755 14.7183 9.47286 14.6482 9.41471 14.59C9.35656 14.5319 9.28637 14.4872 9.20908 14.4591L2.93345 12.1725C2.89963 12.1581 2.87079 12.1341 2.85052 12.1034C2.83025 12.0727 2.81944 12.0368 2.81944 12C2.81944 11.9633 2.83025 11.9273 2.85052 11.8966C2.87079 11.866 2.89963 11.8419 2.93345 11.8275L9.20908 9.54564C9.28637 9.51755 9.35656 9.47286 9.41471 9.41471C9.47286 9.35656 9.51755 9.28637 9.54564 9.20908L11.8275 2.93345C11.8419 2.89963 11.866 2.87079 11.8966 2.85052C11.9273 2.83025 11.9633 2.81944 12 2.81944C12.0368 2.81944 12.0727 2.83025 12.1034 2.85052C12.1341 2.87079 12.1581 2.89963 12.1725 2.93345L14.4544 9.20908C14.4825 9.28637 14.5272 9.35656 14.5853 9.41471C14.6435 9.47286 14.7137 9.51755 14.791 9.54564L21.0666 11.8275C21.1004 11.8419 21.1292 11.866 21.1495 11.8966C21.1698 11.9273 21.1806 11.9633 21.1806 12C21.1806 12.0368 21.1698 12.0727 21.1495 12.1034C21.1292 12.1341 21.1004 12.1581 21.0666 12.1725V12.1772Z" fill="black"/>
</svg>
