<svg width="24" height="24" viewBox="0 0 24 24" fill="none" xmlns="http://www.w3.org/2000/svg">
<path d="M22.2449 9.17535C22.1646 8.92123 22.0097 8.69713 21.8004 8.53212C21.5911 8.36712 21.337 8.26884 21.0712 8.25004L15.4227 7.79348L13.2458 2.52473C13.1443 2.27777 12.9716 2.06656 12.7498 1.91793C12.5279 1.7693 12.2669 1.68994 11.9999 1.68994C11.7329 1.68994 11.4719 1.7693 11.25 1.91793C11.0282 2.06656 10.8555 2.27777 10.754 2.52473L8.5771 7.7916L2.92866 8.25004C2.66257 8.26898 2.40834 8.36754 2.19901 8.53289C1.98968 8.69825 1.83494 8.92276 1.75491 9.17723C1.67148 9.43102 1.66507 9.70384 1.73648 9.96127C1.80788 10.2187 1.95392 10.4492 2.15616 10.6238L6.46866 14.3372L5.15616 19.8919C5.09457 20.1519 5.11149 20.4242 5.20478 20.6746C5.29807 20.9249 5.46353 21.1419 5.68022 21.2982C5.89423 21.4567 6.15115 21.5469 6.4173 21.557C6.68346 21.567 6.94644 21.4964 7.17178 21.3544L11.9999 18.3863L16.8355 21.3591C17.0609 21.5011 17.3239 21.5717 17.59 21.5616C17.8562 21.5516 18.1131 21.4614 18.3271 21.3029C18.5438 21.1466 18.7092 20.9296 18.8025 20.6793C18.8958 20.4289 18.9127 20.1566 18.8512 19.8966L17.5387 14.3419L21.8437 10.6238C22.0463 10.4491 22.1925 10.2182 22.2639 9.96042C22.3354 9.70261 22.3287 9.42941 22.2449 9.17535ZM21.1068 9.77254L16.5421 13.71C16.4642 13.7772 16.4062 13.8645 16.3745 13.9624C16.3428 14.0602 16.3385 14.1649 16.3621 14.265L17.7571 20.1516C17.7693 20.196 17.7673 20.2432 17.7513 20.2864C17.7353 20.3296 17.7062 20.3667 17.668 20.3925C17.6334 20.4193 17.5914 20.4346 17.5477 20.4362C17.504 20.4379 17.4608 20.4259 17.4243 20.4019L12.2943 17.25C12.2057 17.1957 12.1038 17.1669 11.9999 17.1669C11.896 17.1669 11.7941 17.1957 11.7055 17.25L6.57553 20.401C6.53899 20.425 6.49585 20.437 6.45216 20.4353C6.40846 20.4336 6.36638 20.4184 6.33178 20.3916C6.29276 20.3664 6.26269 20.3296 6.24585 20.2863C6.22901 20.2431 6.22628 20.1956 6.23803 20.1507L7.63303 14.2641C7.65665 14.164 7.65235 14.0593 7.62062 13.9614C7.58888 13.8636 7.53092 13.7763 7.45303 13.7091L2.88835 9.7716C2.85253 9.74244 2.8267 9.70285 2.81443 9.65832C2.80217 9.61379 2.80408 9.56655 2.81991 9.52317C2.83214 9.48039 2.8574 9.4425 2.89219 9.41478C2.92698 9.38705 2.96955 9.37086 3.01397 9.36848L9.00647 8.88473C9.10973 8.87634 9.20867 8.8396 9.29237 8.77856C9.37608 8.71752 9.4413 8.63455 9.48085 8.53879L11.7899 2.95129C11.806 2.90993 11.8342 2.87439 11.8709 2.84934C11.9075 2.82429 11.9508 2.81088 11.9952 2.81088C12.0396 2.81088 12.083 2.82429 12.1196 2.84934C12.1562 2.87439 12.1844 2.90993 12.2005 2.95129L14.5096 8.53879C14.5491 8.63455 14.6144 8.71752 14.6981 8.77856C14.7818 8.8396 14.8807 8.87634 14.984 8.88473L20.9765 9.36848C21.0209 9.37086 21.0635 9.38705 21.0982 9.41478C21.133 9.4425 21.1583 9.48039 21.1705 9.52317C21.1871 9.56621 21.1899 9.61334 21.1784 9.65803C21.167 9.70271 21.142 9.74273 21.1068 9.77254Z" fill="black"/>
</svg>
