<svg width="20" height="21" viewBox="0 0 20 21" fill="none" xmlns="http://www.w3.org/2000/svg">
<path d="M9.24994 17.3125H4.74994C4.60075 17.3125 4.45768 17.2533 4.35219 17.1478C4.2467 17.0423 4.18744 16.8992 4.18744 16.75C4.18744 16.6009 4.2467 16.4578 4.35219 16.3523C4.45768 16.2468 4.60075 16.1875 4.74994 16.1875H9.24994C9.39912 16.1875 9.5422 16.2468 9.64768 16.3523C9.75317 16.4578 9.81244 16.6009 9.81244 16.75C9.81244 16.8992 9.75317 17.0423 9.64768 17.1478C9.5422 17.2533 9.39912 17.3125 9.24994 17.3125ZM15.2499 16.1875H12.9999C12.8508 16.1875 12.7077 16.2468 12.6022 16.3523C12.4967 16.4578 12.4374 16.6009 12.4374 16.75C12.4374 16.8992 12.4967 17.0423 12.6022 17.1478C12.7077 17.2533 12.8508 17.3125 12.9999 17.3125H15.2499C15.3991 17.3125 15.5422 17.2533 15.6477 17.1478C15.7532 17.0423 15.8124 16.8992 15.8124 16.75C15.8124 16.6009 15.7532 16.4578 15.6477 16.3523C15.5422 16.2468 15.3991 16.1875 15.2499 16.1875ZM12.9999 19.1875H7.74994C7.60075 19.1875 7.45768 19.2468 7.35219 19.3523C7.2467 19.4578 7.18744 19.6009 7.18744 19.75C7.18744 19.8992 7.2467 20.0423 7.35219 20.1478C7.45768 20.2533 7.60075 20.3125 7.74994 20.3125H12.9999C13.1491 20.3125 13.2922 20.2533 13.3977 20.1478C13.5032 20.0423 13.5624 19.8992 13.5624 19.75C13.5624 19.6009 13.5032 19.4578 13.3977 19.3523C13.2922 19.2468 13.1491 19.1875 12.9999 19.1875ZM19.5624 7.37505C19.5602 9.2143 18.8286 10.9776 17.528 12.2781C16.2275 13.5787 14.4642 14.3103 12.6249 14.3125H5.12494C4.47085 14.3092 3.82471 14.1691 3.22804 13.9011C2.63138 13.6331 2.09741 13.2431 1.66047 12.7564C1.22353 12.2697 0.893294 11.6969 0.690999 11.0748C0.488705 10.4528 0.418829 9.79534 0.485865 9.14469C0.552901 8.49405 0.755366 7.86463 1.08024 7.29693C1.40511 6.72922 1.8452 6.23578 2.37221 5.84836C2.89921 5.46093 3.50147 5.18808 4.14024 5.04737C4.77902 4.90665 5.44017 4.90117 6.08119 5.0313C6.63383 3.49251 7.71166 2.19803 9.12489 1.3758C10.5381 0.553572 12.1961 0.256313 13.807 0.536364C15.4179 0.816416 16.8783 1.65582 17.9311 2.90678C18.9839 4.15773 19.5616 5.74003 19.5624 7.37505ZM18.4374 7.37505C18.4325 5.86491 17.8406 4.41586 16.7869 3.33414C15.7331 2.25243 14.3 1.62283 12.7905 1.57839C11.281 1.53396 9.81342 2.07818 8.69785 3.09604C7.58228 4.1139 6.90617 5.52563 6.81244 7.03286C6.80373 7.18204 6.73612 7.32166 6.62448 7.42099C6.51284 7.52033 6.36631 7.57125 6.21712 7.56255C6.06794 7.55384 5.92832 7.48623 5.82899 7.37459C5.72965 7.26295 5.67873 7.11642 5.68744 6.96723C5.70402 6.68424 5.73752 6.40248 5.78775 6.12348C5.30089 6.03226 4.80037 6.04357 4.31813 6.15669C3.83589 6.2698 3.38254 6.48224 2.98703 6.78043C2.59152 7.07862 2.26254 7.45601 2.02109 7.8885C1.77964 8.321 1.63104 8.79909 1.58476 9.29225C1.53849 9.78541 1.59557 10.2828 1.75235 10.7527C1.90913 11.2225 2.16217 11.6545 2.49531 12.0211C2.82845 12.3876 3.23437 12.6807 3.68715 12.8815C4.13993 13.0824 4.62961 13.1866 5.12494 13.1875H12.6249C14.166 13.1858 15.6434 12.5729 16.7331 11.4832C17.8228 10.3935 18.4357 8.91608 18.4374 7.37505Z" fill="black"/>
<path d="M18.4374 7.37505C18.4325 5.86491 17.8406 4.41586 16.7869 3.33414C15.7331 2.25243 14.3 1.62283 12.7905 1.57839C11.281 1.53396 9.81342 2.07818 8.69785 3.09604C7.58228 4.1139 6.90617 5.52563 6.81244 7.03286C6.80373 7.18204 6.73612 7.32166 6.62448 7.42099C6.51284 7.52033 6.36631 7.57125 6.21712 7.56255C6.06794 7.55384 5.92832 7.48623 5.82899 7.37459C5.72965 7.26295 5.67873 7.11642 5.68744 6.96723C5.70402 6.68424 5.73752 6.40248 5.78775 6.12348C5.30089 6.03226 4.80037 6.04357 4.31813 6.15669C3.83589 6.2698 3.38254 6.48224 2.98703 6.78043C2.59152 7.07862 2.26254 7.45601 2.02109 7.8885C1.77964 8.321 1.63104 8.79909 1.58476 9.29225C1.53849 9.78541 1.59557 10.2828 1.75235 10.7527C1.90913 11.2225 2.16217 11.6545 2.49531 12.0211C2.82845 12.3876 3.23437 12.6807 3.68715 12.8815C4.13993 13.0824 4.62961 13.1866 5.12494 13.1875H12.6249C14.166 13.1858 15.6434 12.5729 16.7331 11.4832C17.8228 10.3935 18.4357 8.91608 18.4374 7.37505Z" fill="#A0D9FF" fill-opacity="0.52"/>
</svg>
