<svg width="25" height="24" viewBox="0 0 25 24" fill="none" xmlns="http://www.w3.org/2000/svg">
<path d="M7.25 13.5H3.5C3.30109 13.5 3.11032 13.421 2.96967 13.2803C2.82902 13.1397 2.75 12.9489 2.75 12.75C2.75 12.5511 2.82902 12.3603 2.96967 12.2197C3.11032 12.079 3.30109 12 3.5 12H6.84875L8.12562 10.0837C8.19409 9.98087 8.28691 9.89651 8.39584 9.83816C8.50477 9.7798 8.62643 9.74927 8.75 9.74927C8.87357 9.74927 8.99523 9.7798 9.10416 9.83816C9.21309 9.89651 9.30591 9.98087 9.37438 10.0837L11.75 13.6462L12.6256 12.3337C12.6942 12.231 12.787 12.1468 12.896 12.0886C13.0049 12.0303 13.1265 11.9999 13.25 12H15.5C15.6989 12 15.8897 12.079 16.0303 12.2197C16.171 12.3603 16.25 12.5511 16.25 12.75C16.25 12.9489 16.171 13.1397 16.0303 13.2803C15.8897 13.421 15.6989 13.5 15.5 13.5H13.6512L12.3744 15.4162C12.3059 15.5191 12.2131 15.6035 12.1042 15.6618C11.9952 15.7202 11.8736 15.7507 11.75 15.7507C11.6264 15.7507 11.5048 15.7202 11.3958 15.6618C11.2869 15.6035 11.1941 15.5191 11.1256 15.4162L8.75 11.8519L7.87438 13.1644C7.80604 13.2675 7.71328 13.3521 7.60434 13.4106C7.49541 13.4692 7.37368 13.4999 7.25 13.5ZM17.1875 3.75C15.2516 3.75 13.5566 4.5825 12.5 5.98969C11.4434 4.5825 9.74844 3.75 7.8125 3.75C6.27146 3.75174 4.79404 4.36468 3.70436 5.45436C2.61468 6.54404 2.00174 8.02146 2 9.5625C2 9.63281 2 9.70312 2 9.77344C2.00622 9.97235 2.0912 10.1606 2.23624 10.2969C2.38129 10.4332 2.57453 10.5062 2.77344 10.5C2.97235 10.4938 3.16065 10.4088 3.2969 10.2638C3.43316 10.1187 3.50622 9.92547 3.5 9.72656C3.5 9.67219 3.5 9.61687 3.5 9.5625C3.50149 8.41921 3.95632 7.32317 4.76475 6.51475C5.57317 5.70632 6.66921 5.25149 7.8125 5.25C9.63594 5.25 11.1669 6.22125 11.8062 7.78125C11.8628 7.91881 11.9589 8.03646 12.0824 8.11926C12.2059 8.20206 12.3513 8.24627 12.5 8.24627C12.6487 8.24627 12.7941 8.20206 12.9176 8.11926C13.0411 8.03646 13.1372 7.91881 13.1937 7.78125C13.8331 6.21844 15.3641 5.25 17.1875 5.25C18.3308 5.25149 19.4268 5.70632 20.2353 6.51475C21.0437 7.32317 21.4985 8.41921 21.5 9.5625C21.5 14.5884 14.21 19.1391 12.5 20.1375C11.4847 19.5459 8.50344 17.7 6.24875 15.2428C6.18215 15.1702 6.10189 15.1114 6.01255 15.0697C5.92322 15.0281 5.82657 15.0045 5.72811 15.0002C5.62965 14.996 5.53131 15.0111 5.43872 15.0449C5.34612 15.0786 5.26107 15.1303 5.18844 15.1969C5.1158 15.2635 5.05699 15.3437 5.01537 15.4331C4.97375 15.5224 4.95014 15.6191 4.94587 15.7175C4.94161 15.816 4.95677 15.9143 4.99051 16.0069C5.02425 16.0995 5.0759 16.1845 5.1425 16.2572C8.06469 19.4447 11.9797 21.5709 12.1447 21.66C12.2539 21.7188 12.376 21.7495 12.5 21.7495C12.624 21.7495 12.7461 21.7188 12.8553 21.66C13.2697 21.4369 23 16.125 23 9.5625C22.9983 8.02146 22.3853 6.54404 21.2956 5.45436C20.206 4.36468 18.7285 3.75174 17.1875 3.75Z" fill="#6868B9"/>
</svg>
