<svg width="25" height="24" viewBox="0 0 25 24" fill="none" xmlns="http://www.w3.org/2000/svg">
<path d="M23 9.5625C23 16.125 13.2697 21.4369 12.8553 21.6562C12.7461 21.715 12.624 21.7458 12.5 21.7458C12.376 21.7458 12.2539 21.715 12.1447 21.6562C11.8306 21.4875 6.18687 18.4041 3.45594 14.0728C3.42071 14.0161 3.40127 13.951 3.39963 13.8842C3.39799 13.8174 3.41421 13.7515 3.44661 13.6931C3.47901 13.6347 3.52641 13.586 3.58393 13.552C3.64144 13.5181 3.70697 13.5001 3.77375 13.5H7.25C7.37351 13.5001 7.49512 13.4697 7.60405 13.4114C7.71297 13.3532 7.80583 13.269 7.87438 13.1663L8.75 11.8538L11.1256 15.4163C11.2167 15.5528 11.3499 15.6557 11.505 15.7092C11.6602 15.7627 11.8285 15.7639 11.9844 15.7125C12.1497 15.6565 12.2911 15.5461 12.3856 15.3994L13.6512 13.5H15.5C15.6028 13.5002 15.7046 13.4793 15.799 13.4385C15.8934 13.3978 15.9784 13.3381 16.0487 13.2631C16.119 13.1881 16.1732 13.0994 16.2078 13.0026C16.2425 12.9058 16.2568 12.8029 16.25 12.7003C16.2332 12.5075 16.1442 12.3282 16.0007 12.1983C15.8573 12.0685 15.6701 11.9976 15.4766 12H13.25C13.1265 11.9999 13.0049 12.0303 12.896 12.0886C12.787 12.1468 12.6942 12.231 12.6256 12.3337L11.75 13.6462L9.37438 10.0837C9.2833 9.94704 9.14986 9.84401 8.99455 9.79048C8.83924 9.73696 8.67065 9.73592 8.51469 9.7875C8.34979 9.8438 8.20873 9.95414 8.11438 10.1006L6.84875 12H2.70594C2.62579 12.0002 2.54768 11.9748 2.48307 11.9274C2.41845 11.8799 2.37072 11.8131 2.34688 11.7366C2.12067 11.0339 2.00368 10.3007 2 9.5625C2.00174 8.02146 2.61468 6.54404 3.70436 5.45436C4.79404 4.36468 6.27146 3.75174 7.8125 3.75C9.74844 3.75 11.4434 4.5825 12.5 5.98969C13.5566 4.5825 15.2516 3.75 17.1875 3.75C18.7285 3.75174 20.206 4.36468 21.2956 5.45436C22.3853 6.54404 22.9983 8.02146 23 9.5625Z" fill="#6868B9"/>
</svg>
