<svg width="25" height="24" viewBox="0 0 25 24" fill="none" xmlns="http://www.w3.org/2000/svg">
<path d="M21.0603 10.1887L13.5603 2.68875C13.279 2.40766 12.8977 2.24976 12.5 2.24976C12.1024 2.24976 11.721 2.40766 11.4397 2.68875L3.9397 10.1887C3.79973 10.3277 3.68878 10.493 3.6133 10.6752C3.53782 10.8574 3.49931 11.0528 3.50001 11.25V20.25C3.50001 20.4489 3.57903 20.6397 3.71968 20.7803C3.86033 20.921 4.0511 21 4.25001 21H10.25C10.4489 21 10.6397 20.921 10.7803 20.7803C10.921 20.6397 11 20.4489 11 20.25V15H14V20.25C14 20.4489 14.079 20.6397 14.2197 20.7803C14.3603 20.921 14.5511 21 14.75 21H20.75C20.9489 21 21.1397 20.921 21.2803 20.7803C21.421 20.6397 21.5 20.4489 21.5 20.25V11.25C21.5007 11.0528 21.4622 10.8574 21.3867 10.6752C21.3112 10.493 21.2003 10.3277 21.0603 10.1887ZM20 19.5H15.5V14.25C15.5 14.0511 15.421 13.8603 15.2803 13.7197C15.1397 13.579 14.9489 13.5 14.75 13.5H10.25C10.0511 13.5 9.86033 13.579 9.71968 13.7197C9.57903 13.8603 9.50001 14.0511 9.50001 14.25V19.5H5.00001V11.25L12.5 3.75L20 11.25V19.5Z" fill="#7D7DDE"/>
</svg>
