<svg width="25" height="24" viewBox="0 0 25 24" fill="none" xmlns="http://www.w3.org/2000/svg">
<path d="M21.5 11.25V20.25C21.5 20.4489 21.421 20.6397 21.2803 20.7803C21.1397 20.921 20.9489 21 20.75 21H15.5C15.3011 21 15.1103 20.921 14.9697 20.7803C14.829 20.6397 14.75 20.4489 14.75 20.25V15.375C14.75 15.2755 14.7105 15.1801 14.6402 15.1098C14.5698 15.0395 14.4745 15 14.375 15H10.625C10.5255 15 10.4302 15.0395 10.3598 15.1098C10.2895 15.1801 10.25 15.2755 10.25 15.375V20.25C10.25 20.4489 10.171 20.6397 10.0303 20.7803C9.88968 20.921 9.69891 21 9.5 21H4.25C4.05109 21 3.86032 20.921 3.71967 20.7803C3.57902 20.6397 3.5 20.4489 3.5 20.25V11.25C3.50018 10.8522 3.65834 10.4708 3.93969 10.1897L11.4397 2.68966C11.721 2.40857 12.1023 2.25067 12.5 2.25067C12.8977 2.25067 13.279 2.40857 13.5603 2.68966L21.0603 10.1897C21.3417 10.4708 21.4998 10.8522 21.5 11.25Z" fill="#7D7DDE"/>
</svg>
