<svg width="25" height="24" viewBox="0 0 25 24" fill="none" xmlns="http://www.w3.org/2000/svg">
<path d="M12.5 2.25C10.5716 2.25 8.68657 2.82183 7.08319 3.89317C5.47982 4.96451 4.23013 6.48726 3.49218 8.26884C2.75422 10.0504 2.56114 12.0108 2.93735 13.9021C3.31355 15.7934 4.24215 17.5307 5.60571 18.8943C6.96928 20.2579 8.70656 21.1865 10.5979 21.5627C12.4892 21.9389 14.4496 21.7458 16.2312 21.0078C18.0127 20.2699 19.5355 19.0202 20.6068 17.4168C21.6782 15.8134 22.25 13.9284 22.25 12C22.2473 9.41498 21.2192 6.93661 19.3913 5.10872C17.5634 3.28084 15.085 2.25273 12.5 2.25ZM12.5 20.25C10.8683 20.25 9.27326 19.7661 7.91655 18.8596C6.55984 17.9531 5.50242 16.6646 4.878 15.1571C4.25358 13.6496 4.0902 11.9908 4.40853 10.3905C4.72685 8.79016 5.51259 7.32015 6.66637 6.16637C7.82016 5.01259 9.29017 4.22685 10.8905 3.90852C12.4909 3.59019 14.1497 3.75357 15.6571 4.37799C17.1646 5.00242 18.4531 6.05984 19.3596 7.41655C20.2661 8.77325 20.75 10.3683 20.75 12C20.7475 14.1873 19.8775 16.2843 18.3309 17.8309C16.7843 19.3775 14.6873 20.2475 12.5 20.25ZM8 10.125C8 9.9025 8.06598 9.68499 8.1896 9.49998C8.31322 9.31498 8.48892 9.17078 8.69449 9.08564C8.90005 9.00049 9.12625 8.97821 9.34448 9.02162C9.56271 9.06502 9.76317 9.17217 9.9205 9.3295C10.0778 9.48684 10.185 9.68729 10.2284 9.90552C10.2718 10.1238 10.2495 10.35 10.1644 10.5555C10.0792 10.7611 9.93503 10.9368 9.75002 11.0604C9.56502 11.184 9.34751 11.25 9.125 11.25C8.82664 11.25 8.54049 11.1315 8.32951 10.9205C8.11853 10.7095 8 10.4234 8 10.125ZM17 10.125C17 10.3475 16.934 10.565 16.8104 10.75C16.6868 10.935 16.5111 11.0792 16.3055 11.1644C16.1 11.2495 15.8738 11.2718 15.6555 11.2284C15.4373 11.185 15.2368 11.0778 15.0795 10.9205C14.9222 10.7632 14.815 10.5627 14.7716 10.3445C14.7282 10.1262 14.7505 9.90005 14.8356 9.69448C14.9208 9.48891 15.065 9.31321 15.25 9.1896C15.435 9.06598 15.6525 9 15.875 9C16.1734 9 16.4595 9.11853 16.6705 9.3295C16.8815 9.54048 17 9.82663 17 10.125ZM16.8997 14.625C15.935 16.2928 14.3309 17.25 12.5 17.25C10.6691 17.25 9.06594 16.2937 8.10125 14.625C8.04699 14.5396 8.01055 14.4442 7.99413 14.3444C7.97772 14.2446 7.98166 14.1425 8.00573 14.0442C8.02979 13.946 8.07348 13.8536 8.13417 13.7727C8.19485 13.6917 8.27128 13.6239 8.35886 13.5733C8.44643 13.5227 8.54334 13.4903 8.64375 13.4781C8.74417 13.4659 8.84601 13.4742 8.94316 13.5023C9.0403 13.5305 9.13074 13.5781 9.20904 13.6421C9.28734 13.7062 9.35187 13.7854 9.39875 13.875C10.0991 15.0853 11.1997 15.75 12.5 15.75C13.8003 15.75 14.9009 15.0844 15.6003 13.875C15.6998 13.7027 15.8636 13.577 16.0558 13.5254C16.2479 13.4739 16.4527 13.5009 16.625 13.6003C16.7973 13.6998 16.9231 13.8636 16.9746 14.0558C17.0261 14.2479 16.9991 14.4527 16.8997 14.625Z" fill="#6868B9"/>
</svg>
