<svg width="25" height="24" viewBox="0 0 25 24" fill="none" xmlns="http://www.w3.org/2000/svg">
<path d="M12.5 2.25C10.5716 2.25 8.68657 2.82183 7.08319 3.89317C5.47982 4.96451 4.23013 6.48726 3.49218 8.26884C2.75422 10.0504 2.56114 12.0108 2.93735 13.9021C3.31355 15.7934 4.24215 17.5307 5.60571 18.8943C6.96928 20.2579 8.70656 21.1865 10.5979 21.5627C12.4892 21.9389 14.4496 21.7458 16.2312 21.0078C18.0127 20.2699 19.5355 19.0202 20.6068 17.4168C21.6782 15.8134 22.25 13.9284 22.25 12C22.2473 9.41498 21.2192 6.93661 19.3913 5.10872C17.5634 3.28084 15.085 2.25273 12.5 2.25ZM9.125 9C9.34751 9 9.56502 9.06598 9.75002 9.1896C9.93503 9.31321 10.0792 9.48891 10.1644 9.69448C10.2495 9.90005 10.2718 10.1262 10.2284 10.3445C10.185 10.5627 10.0778 10.7632 9.9205 10.9205C9.76317 11.0778 9.56271 11.185 9.34448 11.2284C9.12625 11.2718 8.90005 11.2495 8.69449 11.1644C8.48892 11.0792 8.31322 10.935 8.1896 10.75C8.06598 10.565 8 10.3475 8 10.125C8 9.82663 8.11853 9.54048 8.32951 9.3295C8.54049 9.11853 8.82664 9 9.125 9ZM16.8988 14.625C15.9341 16.2928 14.3309 17.25 12.5 17.25C10.6691 17.25 9.06594 16.2937 8.10125 14.625C8.04699 14.5396 8.01055 14.4442 7.99413 14.3444C7.97772 14.2446 7.98166 14.1425 8.00573 14.0442C8.02979 13.946 8.07348 13.8536 8.13417 13.7727C8.19485 13.6917 8.27128 13.6239 8.35886 13.5733C8.44643 13.5227 8.54334 13.4903 8.64375 13.4781C8.74417 13.4659 8.84601 13.4742 8.94316 13.5023C9.0403 13.5305 9.13074 13.5781 9.20904 13.6421C9.28734 13.7062 9.35187 13.7854 9.39875 13.875C10.0991 15.0853 11.1997 15.75 12.5 15.75C13.8003 15.75 14.9009 15.0844 15.6013 13.875C15.6481 13.7854 15.7127 13.7062 15.791 13.6421C15.8693 13.5781 15.9597 13.5305 16.0569 13.5023C16.154 13.4742 16.2558 13.4659 16.3563 13.4781C16.4567 13.4903 16.5536 13.5227 16.6412 13.5733C16.7287 13.6239 16.8052 13.6917 16.8658 13.7727C16.9265 13.8536 16.9702 13.946 16.9943 14.0442C17.0183 14.1425 17.0223 14.2446 17.0059 14.3444C16.9895 14.4442 16.953 14.5396 16.8988 14.625ZM15.875 11.25C15.6525 11.25 15.435 11.184 15.25 11.0604C15.065 10.9368 14.9208 10.7611 14.8356 10.5555C14.7505 10.35 14.7282 10.1238 14.7716 9.90552C14.815 9.68729 14.9222 9.48684 15.0795 9.3295C15.2368 9.17217 15.4373 9.06502 15.6555 9.02162C15.8738 8.97821 16.1 9.00049 16.3055 9.08564C16.5111 9.17078 16.6868 9.31498 16.8104 9.49998C16.934 9.68499 17 9.9025 17 10.125C17 10.4234 16.8815 10.7095 16.6705 10.9205C16.4595 11.1315 16.1734 11.25 15.875 11.25Z" fill="#6868B9"/>
</svg>
