<svg width="33" height="32" viewBox="0 0 33 32" fill="none" xmlns="http://www.w3.org/2000/svg">
<g clip-path="url(#clip0_68_3366)">
<path d="M16.4145 29.9978C25.749 29.9978 30.4134 23.7303 30.4134 15.9989C30.4134 8.26751 25.749 2 16.4145 2C7.08008 2 2.41565 8.26751 2.41565 15.9989C2.41565 23.7303 7.08008 29.9978 16.4145 29.9978Z" fill="url(#paint0_radial_68_3366)"/>
<path d="M16.4145 29.9978C25.749 29.9978 30.4134 23.7303 30.4134 15.9989C30.4134 8.26751 25.749 2 16.4145 2C7.08008 2 2.41565 8.26751 2.41565 15.9989C2.41565 23.7303 7.08008 29.9978 16.4145 29.9978Z" fill="url(#paint1_radial_68_3366)"/>
<path d="M16.4145 29.9978C25.749 29.9978 30.4134 23.7303 30.4134 15.9989C30.4134 8.26751 25.749 2 16.4145 2C7.08008 2 2.41565 8.26751 2.41565 15.9989C2.41565 23.7303 7.08008 29.9978 16.4145 29.9978Z" fill="url(#paint2_radial_68_3366)" fill-opacity="0.6"/>
<path d="M16.4145 29.9978C25.749 29.9978 30.4134 23.7303 30.4134 15.9989C30.4134 8.26751 25.749 2 16.4145 2C7.08008 2 2.41565 8.26751 2.41565 15.9989C2.41565 23.7303 7.08008 29.9978 16.4145 29.9978Z" fill="url(#paint3_radial_68_3366)"/>
<path d="M16.4145 29.9978C25.749 29.9978 30.4134 23.7303 30.4134 15.9989C30.4134 8.26751 25.749 2 16.4145 2C7.08008 2 2.41565 8.26751 2.41565 15.9989C2.41565 23.7303 7.08008 29.9978 16.4145 29.9978Z" fill="url(#paint4_radial_68_3366)"/>
<path d="M16.4145 29.9978C25.749 29.9978 30.4134 23.7303 30.4134 15.9989C30.4134 8.26751 25.749 2 16.4145 2C7.08008 2 2.41565 8.26751 2.41565 15.9989C2.41565 23.7303 7.08008 29.9978 16.4145 29.9978Z" fill="url(#paint5_radial_68_3366)"/>
<path d="M16.4145 29.9978C25.749 29.9978 30.4134 23.7303 30.4134 15.9989C30.4134 8.26751 25.749 2 16.4145 2C7.08008 2 2.41565 8.26751 2.41565 15.9989C2.41565 23.7303 7.08008 29.9978 16.4145 29.9978Z" fill="url(#paint6_radial_68_3366)"/>
<path d="M16.4145 29.9978C25.749 29.9978 30.4134 23.7303 30.4134 15.9989C30.4134 8.26751 25.749 2 16.4145 2C7.08008 2 2.41565 8.26751 2.41565 15.9989C2.41565 23.7303 7.08008 29.9978 16.4145 29.9978Z" fill="url(#paint7_radial_68_3366)"/>
<path d="M16.4145 29.9978C25.749 29.9978 30.4134 23.7303 30.4134 15.9989C30.4134 8.26751 25.749 2 16.4145 2C7.08008 2 2.41565 8.26751 2.41565 15.9989C2.41565 23.7303 7.08008 29.9978 16.4145 29.9978Z" fill="url(#paint8_radial_68_3366)"/>
<path d="M16.4145 29.9978C25.749 29.9978 30.4134 23.7303 30.4134 15.9989C30.4134 8.26751 25.749 2 16.4145 2C7.08008 2 2.41565 8.26751 2.41565 15.9989C2.41565 23.7303 7.08008 29.9978 16.4145 29.9978Z" fill="url(#paint9_radial_68_3366)"/>
<path d="M16.4145 29.9978C25.749 29.9978 30.4134 23.7303 30.4134 15.9989C30.4134 8.26751 25.749 2 16.4145 2C7.08008 2 2.41565 8.26751 2.41565 15.9989C2.41565 23.7303 7.08008 29.9978 16.4145 29.9978Z" fill="url(#paint10_radial_68_3366)"/>
<path d="M7.34827 11.4485C8.02602 11.7601 8.88119 12.0002 9.91565 12.0002C10.6823 12.0002 11.3508 11.8685 11.9215 11.6741C13.4123 12.5395 14.4156 14.1523 14.4156 16.0002C14.4155 18.7615 12.177 21.0002 9.41565 21.0002C6.65433 21.0002 4.41581 18.7615 4.41565 16.0002C4.41565 13.9765 5.61893 12.2353 7.34827 11.4485Z" fill="url(#paint11_radial_68_3366)"/>
<circle cx="19.9156" cy="16.5" r="4.5" fill="url(#paint12_radial_68_3366)"/>
<path d="M13.524 10.8344C14.6685 11.6502 15.4156 12.9877 15.4156 14.5004C15.4155 16.9855 13.4008 19.0004 10.9156 19.0004C8.43048 19.0004 6.41582 16.9855 6.41565 14.5004C6.41565 13.3629 6.83783 12.3239 7.53381 11.5316C8.18 11.8021 8.97373 12.0004 9.91565 12.0004C11.5809 12.0004 12.7832 11.3827 13.524 10.8344ZM19.3063 10.8344C20.0471 11.3828 21.2499 12.0004 22.9156 12.0004C23.8572 12.0004 24.6505 11.8019 25.2965 11.5316C25.9927 12.324 26.4156 13.3627 26.4156 14.5004C26.4155 16.9855 24.4008 19.0004 21.9156 19.0004C19.4305 19.0004 17.4158 16.9855 17.4156 14.5004C17.4156 12.988 18.1621 11.6503 19.3063 10.8344Z" fill="white"/>
<path d="M12.4156 17C13.5202 17 14.4156 16.1046 14.4156 15C14.4156 13.8954 13.5202 13 12.4156 13C11.3111 13 10.4156 13.8954 10.4156 15C10.4156 16.1046 11.3111 17 12.4156 17Z" fill="url(#paint13_linear_68_3366)"/>
<path d="M20.4156 17C21.5202 17 22.4156 16.1046 22.4156 15C22.4156 13.8954 21.5202 13 20.4156 13C19.3111 13 18.4156 13.8954 18.4156 15C18.4156 16.1046 19.3111 17 20.4156 17Z" fill="url(#paint14_linear_68_3366)"/>
<path fill-rule="evenodd" clip-rule="evenodd" d="M10.2993 5.3966L10.2997 5.39411L10.297 5.40785C10.2942 5.42172 10.289 5.44534 10.281 5.47732C10.265 5.54143 10.2377 5.63813 10.195 5.75647C10.109 5.99466 9.96363 6.31106 9.72817 6.625C9.27391 7.23069 8.45317 7.875 6.91567 7.875C6.5705 7.875 6.29067 8.15482 6.29067 8.5C6.29067 8.84518 6.5705 9.125 6.91567 9.125C8.87818 9.125 10.0574 8.26931 10.7282 7.375C11.0552 6.93894 11.2536 6.50534 11.3707 6.18103C11.4295 6.01812 11.4687 5.88044 11.4937 5.78049C11.5062 5.73044 11.5152 5.68961 11.5214 5.65953C11.5245 5.64449 11.5269 5.63211 11.5287 5.62259L11.5308 5.61047L11.5316 5.60605L11.5319 5.60426C11.5323 5.60198 11.5322 5.60275 11.5322 5.60275C11.5889 5.26227 11.3589 4.94025 11.0184 4.8835C10.679 4.82693 10.3579 5.05537 10.2997 5.39411" fill="url(#paint15_linear_68_3366)"/>
<path fill-rule="evenodd" clip-rule="evenodd" d="M10.2993 5.3966L10.2997 5.39411L10.297 5.40785C10.2942 5.42172 10.289 5.44534 10.281 5.47732C10.265 5.54143 10.2377 5.63813 10.195 5.75647C10.109 5.99466 9.96363 6.31106 9.72817 6.625C9.27391 7.23069 8.45317 7.875 6.91567 7.875C6.5705 7.875 6.29067 8.15482 6.29067 8.5C6.29067 8.84518 6.5705 9.125 6.91567 9.125C8.87818 9.125 10.0574 8.26931 10.7282 7.375C11.0552 6.93894 11.2536 6.50534 11.3707 6.18103C11.4295 6.01812 11.4687 5.88044 11.4937 5.78049C11.5062 5.73044 11.5152 5.68961 11.5214 5.65953C11.5245 5.64449 11.5269 5.63211 11.5287 5.62259L11.5308 5.61047L11.5316 5.60605L11.5319 5.60426C11.5323 5.60198 11.5322 5.60275 11.5322 5.60275C11.5889 5.26227 11.3589 4.94025 11.0184 4.8835C10.679 4.82693 10.3579 5.05537 10.2997 5.39411" fill="url(#paint16_radial_68_3366)"/>
<path fill-rule="evenodd" clip-rule="evenodd" d="M22.532 5.3966L22.5316 5.39411L22.5343 5.40785C22.5371 5.42172 22.5423 5.44534 22.5503 5.47732C22.5663 5.54143 22.5935 5.63813 22.6363 5.75647C22.7223 5.99466 22.8677 6.31106 23.1031 6.625C23.5574 7.23069 24.3781 7.875 25.9156 7.875C26.2608 7.875 26.5406 8.15482 26.5406 8.5C26.5406 8.84518 26.2608 9.125 25.9156 9.125C23.9531 9.125 22.7739 8.26931 22.1031 7.375C21.7761 6.93894 21.5777 6.50534 21.4606 6.18103C21.4018 6.01812 21.3626 5.88044 21.3376 5.78049C21.3251 5.73044 21.3161 5.68961 21.3099 5.65953C21.3068 5.64449 21.3044 5.63211 21.3026 5.62259L21.3005 5.61047L21.2997 5.60605L21.2994 5.60426C21.299 5.60218 21.2991 5.60275 21.2991 5.60275C21.2424 5.26227 21.4724 4.94025 21.8129 4.8835C22.1523 4.82693 22.4734 5.05537 22.5316 5.39411" fill="url(#paint17_radial_68_3366)"/>
<path d="M21.3169 25.0064C21.4261 25.5478 20.9672 26 20.4149 26C17.3457 26 15.1325 26 12.4159 26C11.8636 26 11.4052 25.5478 11.5144 25.0064C11.9752 22.721 13.9944 21 16.4156 21C18.8369 21 20.8561 22.721 21.3169 25.0064Z" fill="url(#paint18_radial_68_3366)"/>
<rect x="1.41565" y="16" width="5" height="9" rx="2.5" fill="url(#paint19_radial_68_3366)"/>
</g>
<defs>
<radialGradient id="paint0_radial_68_3366" cx="0" cy="0" r="1" gradientUnits="userSpaceOnUse" gradientTransform="translate(25.9156 9) rotate(132.839) scale(37.5033)">
<stop stop-color="#FFF478"/>
<stop offset="0.474827" stop-color="#FFB02E"/>
<stop offset="1" stop-color="#F70A8D"/>
</radialGradient>
<radialGradient id="paint1_radial_68_3366" cx="0" cy="0" r="1" gradientUnits="userSpaceOnUse" gradientTransform="translate(16.4157 49) rotate(-90) scale(51 64.9968)">
<stop offset="0.670495" stop-color="#BFB2DD" stop-opacity="0"/>
<stop offset="0.747649" stop-color="#A4AEEB"/>
<stop offset="0.811631" stop-color="#379EFF"/>
<stop offset="0.964059" stop-color="#1345B7"/>
</radialGradient>
<radialGradient id="paint2_radial_68_3366" cx="0" cy="0" r="1" gradientUnits="userSpaceOnUse" gradientTransform="translate(18.4157 14) rotate(135) scale(41.0122)">
<stop offset="0.314853" stop-opacity="0"/>
<stop offset="1"/>
</radialGradient>
<radialGradient id="paint3_radial_68_3366" cx="0" cy="0" r="1" gradientUnits="userSpaceOnUse" gradientTransform="translate(21.7913 6.15046) rotate(171.877) scale(1.45557 2.14385)">
<stop offset="0.219122" stop-color="#166CDE"/>
<stop offset="0.74081" stop-color="#166CDE" stop-opacity="0.19"/>
<stop offset="0.859375" stop-color="#166CDE" stop-opacity="0.10924"/>
<stop offset="1" stop-color="#166CDE" stop-opacity="0"/>
</radialGradient>
<radialGradient id="paint4_radial_68_3366" cx="0" cy="0" r="1" gradientUnits="userSpaceOnUse" gradientTransform="translate(22.7197 7.39143) rotate(136.046) scale(1.36572 2.53778)">
<stop offset="0.196272" stop-color="#166CDE"/>
<stop offset="0.695193" stop-color="#166CDE" stop-opacity="0.379352"/>
<stop offset="0.864583" stop-color="#166CDE" stop-opacity="0.136125"/>
<stop offset="1" stop-color="#166CDE" stop-opacity="0"/>
</radialGradient>
<radialGradient id="paint5_radial_68_3366" cx="0" cy="0" r="1" gradientUnits="userSpaceOnUse" gradientTransform="translate(24.0259 8.3126) rotate(110.626) scale(1.36134 3.09579)">
<stop offset="0.277663" stop-color="#166CDE"/>
<stop offset="0.502888" stop-color="#166CDE" stop-opacity="0.379352"/>
<stop offset="0.802083" stop-color="#166CDE" stop-opacity="0.109924"/>
<stop offset="1" stop-color="#166CDE" stop-opacity="0"/>
</radialGradient>
<radialGradient id="paint6_radial_68_3366" cx="0" cy="0" r="1" gradientUnits="userSpaceOnUse" gradientTransform="translate(25.2559 8.86447) rotate(88.548) scale(1.06989 2.12201)">
<stop stop-color="#166CDE"/>
<stop offset="0.419608" stop-color="#166CDE" stop-opacity="0.379352"/>
<stop offset="0.809283" stop-color="#166CDE" stop-opacity="0.148943"/>
<stop offset="0.885417" stop-color="#166CDE" stop-opacity="0.0691477"/>
<stop offset="1" stop-color="#166CDE" stop-opacity="0"/>
</radialGradient>
<radialGradient id="paint7_radial_68_3366" cx="0" cy="0" r="1" gradientUnits="userSpaceOnUse" gradientTransform="translate(7.28469 8.81808) rotate(90) scale(1.42285 2.07369)">
<stop stop-color="#4475BF" stop-opacity="0.92"/>
<stop offset="0.731733" stop-color="#4475BF" stop-opacity="0.194442"/>
<stop offset="0.854167" stop-color="#4475BF" stop-opacity="0.0847001"/>
<stop offset="1" stop-color="#4475BF" stop-opacity="0"/>
</radialGradient>
<radialGradient id="paint8_radial_68_3366" cx="0" cy="0" r="1" gradientUnits="userSpaceOnUse" gradientTransform="translate(9.2392 8.23208) rotate(60.0652) scale(1.59496 3.16336)">
<stop stop-color="#4475BF" stop-opacity="0.92"/>
<stop offset="0.734125" stop-color="#4475BF" stop-opacity="0.03"/>
<stop offset="0.885417" stop-color="#4475BF" stop-opacity="0"/>
<stop offset="1" stop-color="#4475BF" stop-opacity="0"/>
</radialGradient>
<radialGradient id="paint9_radial_68_3366" cx="0" cy="0" r="1" gradientUnits="userSpaceOnUse" gradientTransform="translate(10.4844 7.00172) rotate(40.8847) scale(1.19225 2.35417)">
<stop stop-color="#4475BF" stop-opacity="0.85"/>
<stop offset="0.8125" stop-color="#4475BF" stop-opacity="0.119531"/>
<stop offset="1" stop-color="#4475BF" stop-opacity="0"/>
</radialGradient>
<radialGradient id="paint10_radial_68_3366" cx="0" cy="0" r="1" gradientUnits="userSpaceOnUse" gradientTransform="translate(24.1658 7.27731) rotate(-67.0511) scale(1.68642 2.8556)">
<stop stop-color="#3497F9"/>
<stop offset="1" stop-color="#3497F9" stop-opacity="0"/>
</radialGradient>
<radialGradient id="paint11_radial_68_3366" cx="0" cy="0" r="1" gradientUnits="userSpaceOnUse" gradientTransform="translate(13.3045 12.1111) rotate(134.999) scale(9.74251 5.0424)">
<stop offset="0.330628" stop-color="#392108"/>
<stop offset="1" stop-color="#C87928" stop-opacity="0"/>
</radialGradient>
<radialGradient id="paint12_radial_68_3366" cx="0" cy="0" r="1" gradientUnits="userSpaceOnUse" gradientTransform="translate(23.4156 13) rotate(135) scale(8.13173 4.59049)">
<stop offset="0.402076" stop-color="#392108"/>
<stop offset="1" stop-color="#C87928" stop-opacity="0"/>
</radialGradient>
<linearGradient id="paint13_linear_68_3366" x1="21.1849" y1="13" x2="20.4156" y2="17" gradientUnits="userSpaceOnUse">
<stop stop-color="#553B3E"/>
<stop offset="1" stop-color="#3D2432"/>
</linearGradient>
<linearGradient id="paint14_linear_68_3366" x1="21.1849" y1="13" x2="20.4156" y2="17" gradientUnits="userSpaceOnUse">
<stop stop-color="#553B3E"/>
<stop offset="1" stop-color="#3D2432"/>
</linearGradient>
<linearGradient id="paint15_linear_68_3366" x1="9.91567" y1="5" x2="9.91567" y2="6.5" gradientUnits="userSpaceOnUse">
<stop offset="0.0299084" stop-color="#524049"/>
<stop offset="1" stop-color="#4A2C42"/>
</linearGradient>
<radialGradient id="paint16_radial_68_3366" cx="0" cy="0" r="1" gradientUnits="userSpaceOnUse" gradientTransform="translate(7.41567 5) rotate(54.4623) scale(4.30116)">
<stop offset="0.541667" stop-color="#493032"/>
<stop offset="0.806723" stop-color="#5E445A"/>
<stop offset="0.955326" stop-color="#4A2C42"/>
</radialGradient>
<radialGradient id="paint17_radial_68_3366" cx="0" cy="0" r="1" gradientUnits="userSpaceOnUse" gradientTransform="translate(25.4156 5) rotate(125.538) scale(4.30116)">
<stop stop-color="#C2B4B5"/>
<stop offset="0.887405" stop-color="#462B45"/>
<stop offset="1" stop-color="#4A2C42"/>
</radialGradient>
<radialGradient id="paint18_radial_68_3366" cx="0" cy="0" r="1" gradientUnits="userSpaceOnUse" gradientTransform="translate(16.4156 27.1111) rotate(-90) scale(7.61111 15.2222)">
<stop stop-color="#F70A8D"/>
<stop offset="1" stop-color="#89029C"/>
</radialGradient>
<radialGradient id="paint19_radial_68_3366" cx="0" cy="0" r="1" gradientUnits="userSpaceOnUse" gradientTransform="translate(5.58232 16.4091) rotate(104.88) scale(9.73555 3.6969)">
<stop stop-color="#5C98FF"/>
<stop offset="0.805982" stop-color="#3D5BF1"/>
<stop offset="0.962238" stop-color="#6065CA"/>
</radialGradient>
<clipPath id="clip0_68_3366">
<rect width="32" height="32" fill="white" transform="translate(0.25)"/>
</clipPath>
</defs>
</svg>
