<svg width="32" height="32" viewBox="0 0 32 32" fill="none" xmlns="http://www.w3.org/2000/svg">
<path d="M16.4989 29.9978C25.8333 29.9978 30.4978 23.7303 30.4978 15.9989C30.4978 8.26751 25.8333 2 16.4989 2C7.16443 2 2.5 8.26751 2.5 15.9989C2.5 23.7303 7.16443 29.9978 16.4989 29.9978Z" fill="url(#paint0_radial_68_3367)"/>
<path d="M16.4989 29.9978C25.8333 29.9978 30.4978 23.7303 30.4978 15.9989C30.4978 8.26751 25.8333 2 16.4989 2C7.16443 2 2.5 8.26751 2.5 15.9989C2.5 23.7303 7.16443 29.9978 16.4989 29.9978Z" fill="url(#paint1_radial_68_3367)"/>
<path d="M16.4989 29.9978C25.8333 29.9978 30.4978 23.7303 30.4978 15.9989C30.4978 8.26751 25.8333 2 16.4989 2C7.16443 2 2.5 8.26751 2.5 15.9989C2.5 23.7303 7.16443 29.9978 16.4989 29.9978Z" fill="url(#paint2_radial_68_3367)" fill-opacity="0.6"/>
<path d="M16.4989 29.9978C25.8333 29.9978 30.4978 23.7303 30.4978 15.9989C30.4978 8.26751 25.8333 2 16.4989 2C7.16443 2 2.5 8.26751 2.5 15.9989C2.5 23.7303 7.16443 29.9978 16.4989 29.9978Z" fill="url(#paint3_radial_68_3367)"/>
<path d="M16.4989 29.9978C25.8333 29.9978 30.4978 23.7303 30.4978 15.9989C30.4978 8.26751 25.8333 2 16.4989 2C7.16443 2 2.5 8.26751 2.5 15.9989C2.5 23.7303 7.16443 29.9978 16.4989 29.9978Z" fill="url(#paint4_radial_68_3367)"/>
<path d="M16.4989 29.9978C25.8333 29.9978 30.4978 23.7303 30.4978 15.9989C30.4978 8.26751 25.8333 2 16.4989 2C7.16443 2 2.5 8.26751 2.5 15.9989C2.5 23.7303 7.16443 29.9978 16.4989 29.9978Z" fill="url(#paint5_radial_68_3367)"/>
<path d="M16.4989 29.9978C25.8333 29.9978 30.4978 23.7303 30.4978 15.9989C30.4978 8.26751 25.8333 2 16.4989 2C7.16443 2 2.5 8.26751 2.5 15.9989C2.5 23.7303 7.16443 29.9978 16.4989 29.9978Z" fill="url(#paint6_radial_68_3367)"/>
<path d="M16.4989 29.9978C25.8333 29.9978 30.4978 23.7303 30.4978 15.9989C30.4978 8.26751 25.8333 2 16.4989 2C7.16443 2 2.5 8.26751 2.5 15.9989C2.5 23.7303 7.16443 29.9978 16.4989 29.9978Z" fill="url(#paint7_radial_68_3367)"/>
<path d="M16.4989 29.9978C25.8333 29.9978 30.4978 23.7303 30.4978 15.9989C30.4978 8.26751 25.8333 2 16.4989 2C7.16443 2 2.5 8.26751 2.5 15.9989C2.5 23.7303 7.16443 29.9978 16.4989 29.9978Z" fill="url(#paint8_radial_68_3367)"/>
<path d="M9.20711 9.29289C8.81658 8.90237 8.18342 8.90237 7.79289 9.29289C7.40237 9.68342 7.40237 10.3166 7.79289 10.7071L9.58579 12.5L7.79289 14.2929C7.40237 14.6834 7.40237 15.3166 7.79289 15.7071C8.18342 16.0976 8.81658 16.0976 9.20711 15.7071L11 13.9142L12.7929 15.7071C13.1834 16.0976 13.8166 16.0976 14.2071 15.7071C14.5976 15.3166 14.5976 14.6834 14.2071 14.2929L12.4142 12.5L14.2071 10.7071C14.5976 10.3166 14.5976 9.68342 14.2071 9.29289C13.8166 8.90237 13.1834 8.90237 12.7929 9.29289L11 11.0858L9.20711 9.29289Z" fill="url(#paint9_linear_68_3367)"/>
<path d="M20.2071 9.29289C19.8166 8.90237 19.1834 8.90237 18.7929 9.29289C18.4024 9.68342 18.4024 10.3166 18.7929 10.7071L20.5858 12.5L18.7929 14.2929C18.4024 14.6834 18.4024 15.3166 18.7929 15.7071C19.1834 16.0976 19.8166 16.0976 20.2071 15.7071L22 13.9142L23.7929 15.7071C24.1834 16.0976 24.8166 16.0976 25.2071 15.7071C25.5976 15.3166 25.5976 14.6834 25.2071 14.2929L23.4142 12.5L25.2071 10.7071C25.5976 10.3166 25.5976 9.68342 25.2071 9.29289C24.8166 8.90237 24.1834 8.90237 23.7929 9.29289L22 11.0858L20.2071 9.29289Z" fill="url(#paint10_linear_68_3367)"/>
<path d="M12.5 23C12.5 20.7909 14.2909 19 16.5 19C18.7091 19 20.5 20.7909 20.5 23C20.5 25.2091 18.7091 27 16.5 27C14.2909 27 12.5 25.2091 12.5 23Z" fill="url(#paint11_radial_68_3367)"/>
<defs>
<radialGradient id="paint0_radial_68_3367" cx="0" cy="0" r="1" gradientUnits="userSpaceOnUse" gradientTransform="translate(26 9) rotate(131.878) scale(38.9487)">
<stop stop-color="#FFF478"/>
<stop offset="0.474827" stop-color="#FFB02E"/>
<stop offset="1" stop-color="#F70A8D"/>
</radialGradient>
<radialGradient id="paint1_radial_68_3367" cx="0" cy="0" r="1" gradientUnits="userSpaceOnUse" gradientTransform="translate(16.5 12.5) rotate(101.31) scale(17.8466 22.8581)">
<stop offset="0.787821" stop-color="#F59639" stop-opacity="0"/>
<stop offset="0.972509" stop-color="#FF7DCE"/>
</radialGradient>
<radialGradient id="paint2_radial_68_3367" cx="0" cy="0" r="1" gradientUnits="userSpaceOnUse" gradientTransform="translate(18.5 14) rotate(135) scale(41.0122)">
<stop offset="0.314853" stop-opacity="0"/>
<stop offset="1"/>
</radialGradient>
<radialGradient id="paint3_radial_68_3367" cx="0" cy="0" r="1" gradientUnits="userSpaceOnUse" gradientTransform="translate(16.5 17) rotate(77.692) scale(28.1469)">
<stop offset="0.507903" stop-color="#7D6133" stop-opacity="0"/>
<stop offset="1" stop-color="#715B32"/>
</radialGradient>
<radialGradient id="paint4_radial_68_3367" cx="0" cy="0" r="1" gradientUnits="userSpaceOnUse" gradientTransform="translate(17 16.5) rotate(55.7131) scale(13.3135 9.65032)">
<stop stop-color="#FFB849"/>
<stop offset="1" stop-color="#FFB847" stop-opacity="0"/>
</radialGradient>
<radialGradient id="paint5_radial_68_3367" cx="0" cy="0" r="1" gradientUnits="userSpaceOnUse" gradientTransform="translate(21 18) rotate(9.86581) scale(11.6726)">
<stop stop-color="#FFA64B"/>
<stop offset="0.900412" stop-color="#FFAE46" stop-opacity="0"/>
</radialGradient>
<radialGradient id="paint6_radial_68_3367" cx="0" cy="0" r="1" gradientUnits="userSpaceOnUse" gradientTransform="translate(18 15) rotate(43.9708) scale(59.0529)">
<stop offset="0.185425" stop-opacity="0"/>
<stop offset="1" stop-opacity="0.4"/>
</radialGradient>
<radialGradient id="paint7_radial_68_3367" cx="0" cy="0" r="1" gradientUnits="userSpaceOnUse" gradientTransform="translate(11.0625 12.8125) rotate(90) scale(4.03125)">
<stop stop-color="#DE8F35"/>
<stop offset="1" stop-color="#DE8F35" stop-opacity="0"/>
</radialGradient>
<radialGradient id="paint8_radial_68_3367" cx="0" cy="0" r="1" gradientUnits="userSpaceOnUse" gradientTransform="translate(22.0938 12.7813) rotate(90) scale(3.9375)">
<stop stop-color="#DE8F35"/>
<stop offset="1" stop-color="#DE8F35" stop-opacity="0"/>
</radialGradient>
<linearGradient id="paint9_linear_68_3367" x1="13.5" y1="12.5" x2="11.5" y2="14.5" gradientUnits="userSpaceOnUse">
<stop stop-color="#45253E"/>
<stop offset="0.414382" stop-color="#55424C"/>
<stop offset="1" stop-color="#512756"/>
</linearGradient>
<linearGradient id="paint10_linear_68_3367" x1="24.5" y1="12.5" x2="22.5" y2="14.5" gradientUnits="userSpaceOnUse">
<stop stop-color="#45253E"/>
<stop offset="0.414382" stop-color="#55424C"/>
<stop offset="1" stop-color="#512756"/>
</linearGradient>
<radialGradient id="paint11_radial_68_3367" cx="0" cy="0" r="1" gradientUnits="userSpaceOnUse" gradientTransform="translate(16.5 28.7778) rotate(-90) scale(9.77778)">
<stop stop-color="#F70A8D"/>
<stop offset="1" stop-color="#89029C"/>
</radialGradient>
</defs>
</svg>
