<svg width="33" height="32" viewBox="0 0 33 32" fill="none" xmlns="http://www.w3.org/2000/svg">
<path d="M16.7489 29.9978C26.0833 29.9978 30.7478 23.7303 30.7478 15.9989C30.7478 8.26751 26.0833 2 16.7489 2C7.41443 2 2.75 8.26751 2.75 15.9989C2.75 23.7303 7.41443 29.9978 16.7489 29.9978Z" fill="url(#paint0_radial_68_3364)"/>
<path d="M16.7489 29.9978C26.0833 29.9978 30.7478 23.7303 30.7478 15.9989C30.7478 8.26751 26.0833 2 16.7489 2C7.41443 2 2.75 8.26751 2.75 15.9989C2.75 23.7303 7.41443 29.9978 16.7489 29.9978Z" fill="url(#paint1_radial_68_3364)"/>
<path d="M16.7489 29.9978C26.0833 29.9978 30.7478 23.7303 30.7478 15.9989C30.7478 8.26751 26.0833 2 16.7489 2C7.41443 2 2.75 8.26751 2.75 15.9989C2.75 23.7303 7.41443 29.9978 16.7489 29.9978Z" fill="url(#paint2_radial_68_3364)" fill-opacity="0.6"/>
<path d="M16.7489 29.9978C26.0833 29.9978 30.7478 23.7303 30.7478 15.9989C30.7478 8.26751 26.0833 2 16.7489 2C7.41443 2 2.75 8.26751 2.75 15.9989C2.75 23.7303 7.41443 29.9978 16.7489 29.9978Z" fill="url(#paint3_radial_68_3364)"/>
<path d="M16.7489 29.9978C26.0833 29.9978 30.7478 23.7303 30.7478 15.9989C30.7478 8.26751 26.0833 2 16.7489 2C7.41443 2 2.75 8.26751 2.75 15.9989C2.75 23.7303 7.41443 29.9978 16.7489 29.9978Z" fill="url(#paint4_radial_68_3364)"/>
<path d="M16.7489 29.9978C26.0833 29.9978 30.7478 23.7303 30.7478 15.9989C30.7478 8.26751 26.0833 2 16.7489 2C7.41443 2 2.75 8.26751 2.75 15.9989C2.75 23.7303 7.41443 29.9978 16.7489 29.9978Z" fill="url(#paint5_radial_68_3364)"/>
<path d="M16.7489 29.9978C26.0833 29.9978 30.7478 23.7303 30.7478 15.9989C30.7478 8.26751 26.0833 2 16.7489 2C7.41443 2 2.75 8.26751 2.75 15.9989C2.75 23.7303 7.41443 29.9978 16.7489 29.9978Z" fill="url(#paint6_radial_68_3364)"/>
<path d="M16.7489 29.9978C26.0833 29.9978 30.7478 23.7303 30.7478 15.9989C30.7478 8.26751 26.0833 2 16.7489 2C7.41443 2 2.75 8.26751 2.75 15.9989C2.75 23.7303 7.41443 29.9978 16.7489 29.9978Z" fill="url(#paint7_radial_68_3364)"/>
<path d="M16.7489 29.9978C26.0833 29.9978 30.7478 23.7303 30.7478 15.9989C30.7478 8.26751 26.0833 2 16.7489 2C7.41443 2 2.75 8.26751 2.75 15.9989C2.75 23.7303 7.41443 29.9978 16.7489 29.9978Z" fill="url(#paint8_radial_68_3364)"/>
<path d="M16.7489 29.9978C26.0833 29.9978 30.7478 23.7303 30.7478 15.9989C30.7478 8.26751 26.0833 2 16.7489 2C7.41443 2 2.75 8.26751 2.75 15.9989C2.75 23.7303 7.41443 29.9978 16.7489 29.9978Z" fill="url(#paint9_radial_68_3364)"/>
<path d="M16.7489 29.9978C26.0833 29.9978 30.7478 23.7303 30.7478 15.9989C30.7478 8.26751 26.0833 2 16.7489 2C7.41443 2 2.75 8.26751 2.75 15.9989C2.75 23.7303 7.41443 29.9978 16.7489 29.9978Z" fill="url(#paint10_radial_68_3364)"/>
<path d="M16.7489 29.9978C26.0833 29.9978 30.7478 23.7303 30.7478 15.9989C30.7478 8.26751 26.0833 2 16.7489 2C7.41443 2 2.75 8.26751 2.75 15.9989C2.75 23.7303 7.41443 29.9978 16.7489 29.9978Z" fill="url(#paint11_radial_68_3364)"/>
<path d="M16.7489 29.9978C26.0833 29.9978 30.7478 23.7303 30.7478 15.9989C30.7478 8.26751 26.0833 2 16.7489 2C7.41443 2 2.75 8.26751 2.75 15.9989C2.75 23.7303 7.41443 29.9978 16.7489 29.9978Z" fill="url(#paint12_radial_68_3364)"/>
<path d="M16.7489 29.9978C26.0833 29.9978 30.7478 23.7303 30.7478 15.9989C30.7478 8.26751 26.0833 2 16.7489 2C7.41443 2 2.75 8.26751 2.75 15.9989C2.75 23.7303 7.41443 29.9978 16.7489 29.9978Z" fill="url(#paint13_radial_68_3364)"/>
<path d="M11.2131 10.25C13.5603 10.25 15.4631 12.1528 15.4631 14.5C15.4631 16.8472 13.5603 18.75 11.2131 18.75C8.86592 18.75 6.96313 16.8472 6.96313 14.5C6.96313 12.1528 8.86592 10.25 11.2131 10.25ZM22.2131 10.25C24.5603 10.25 26.4631 12.1528 26.4631 14.5C26.4631 16.8472 24.5603 18.75 22.2131 18.75C19.8659 18.75 17.9631 16.8472 17.9631 14.5C17.9631 12.1528 19.8659 10.25 22.2131 10.25Z" fill="white"/>
<path d="M11.75 12.5C12.8546 12.5 13.75 13.3954 13.75 14.5C13.75 15.6046 12.8546 16.5 11.75 16.5C10.6454 16.5 9.75 15.6046 9.75 14.5C9.75 13.3954 10.6454 12.5 11.75 12.5ZM21.75 12.5C22.8546 12.5 23.75 13.3954 23.75 14.5C23.75 15.6046 22.8546 16.5 21.75 16.5C20.6454 16.5 19.75 15.6046 19.75 14.5C19.75 13.3954 20.6454 12.5 21.75 12.5Z" fill="url(#paint14_linear_68_3364)"/>
<path fill-rule="evenodd" clip-rule="evenodd" d="M10.6336 6.3966L10.6341 6.39411L10.6314 6.40785C10.6285 6.42172 10.6234 6.44534 10.6154 6.47732C10.5993 6.54143 10.5721 6.63813 10.5294 6.75647C10.4434 6.99466 10.298 7.31106 10.0625 7.625C9.60826 8.23069 8.78752 8.875 7.25002 8.875C6.90485 8.875 6.62502 9.15482 6.62502 9.5C6.62502 9.84518 6.90485 10.125 7.25002 10.125C9.21253 10.125 10.3918 9.26931 11.0625 8.375C11.3896 7.93894 11.5879 7.50534 11.7051 7.18103C11.7639 7.01812 11.8031 6.88044 11.828 6.78049C11.8406 6.73044 11.8496 6.68961 11.8558 6.65953C11.8588 6.64449 11.8612 6.63211 11.863 6.62259L11.8652 6.61047L11.866 6.60605L11.8663 6.60426C11.8666 6.60198 11.8665 6.60275 11.8665 6.60275C11.9233 6.26227 11.6933 5.94025 11.3528 5.8835C11.0133 5.82693 10.6923 6.05537 10.6341 6.39411" fill="url(#paint15_linear_68_3364)"/>
<path fill-rule="evenodd" clip-rule="evenodd" d="M10.6336 6.3966L10.6341 6.39411L10.6314 6.40785C10.6285 6.42172 10.6234 6.44534 10.6154 6.47732C10.5993 6.54143 10.5721 6.63813 10.5294 6.75647C10.4434 6.99466 10.298 7.31106 10.0625 7.625C9.60826 8.23069 8.78752 8.875 7.25002 8.875C6.90485 8.875 6.62502 9.15482 6.62502 9.5C6.62502 9.84518 6.90485 10.125 7.25002 10.125C9.21253 10.125 10.3918 9.26931 11.0625 8.375C11.3896 7.93894 11.5879 7.50534 11.7051 7.18103C11.7639 7.01812 11.8031 6.88044 11.828 6.78049C11.8406 6.73044 11.8496 6.68961 11.8558 6.65953C11.8588 6.64449 11.8612 6.63211 11.863 6.62259L11.8652 6.61047L11.866 6.60605L11.8663 6.60426C11.8666 6.60198 11.8665 6.60275 11.8665 6.60275C11.9233 6.26227 11.6933 5.94025 11.3528 5.8835C11.0133 5.82693 10.6923 6.05537 10.6341 6.39411" fill="url(#paint16_radial_68_3364)"/>
<path fill-rule="evenodd" clip-rule="evenodd" d="M22.8664 6.3966L22.8659 6.39411L22.8686 6.40785C22.8715 6.42172 22.8766 6.44534 22.8846 6.47732C22.9007 6.54143 22.9279 6.63813 22.9706 6.75647C23.0566 6.99466 23.202 7.31106 23.4375 7.625C23.8917 8.23069 24.7125 8.875 26.25 8.875C26.5952 8.875 26.875 9.15482 26.875 9.5C26.875 9.84518 26.5952 10.125 26.25 10.125C24.2875 10.125 23.1082 9.26931 22.4375 8.375C22.1104 7.93894 21.9121 7.50534 21.7949 7.18103C21.7361 7.01812 21.6969 6.88044 21.672 6.78049C21.6594 6.73044 21.6504 6.68961 21.6442 6.65953C21.6412 6.64449 21.6388 6.63211 21.637 6.62259L21.6348 6.61047L21.634 6.60605L21.6337 6.60426C21.6334 6.60198 21.6335 6.60275 21.6335 6.60275C21.5767 6.26227 21.8067 5.94025 22.1472 5.8835C22.4867 5.82693 22.8077 6.05537 22.8659 6.39411" fill="url(#paint17_radial_68_3364)"/>
<path fill-rule="evenodd" clip-rule="evenodd" d="M14.447 23.7171C14.0557 24.0976 13.4301 24.0943 13.0429 23.7071C12.6524 23.3166 12.6524 22.6834 13.0429 22.2929L13.0443 22.2915L13.0459 22.2899L13.0492 22.2866L13.0571 22.2789L13.0778 22.2592C13.0937 22.2443 13.1139 22.2259 13.1384 22.2045C13.1873 22.1616 13.2537 22.1066 13.3375 22.0438C13.505 21.9182 13.7433 21.7603 14.0528 21.6056C14.6751 21.2944 15.5772 21 16.75 21C17.9228 21 18.8249 21.2944 19.4472 21.6056C19.7567 21.7603 19.995 21.9182 20.1625 22.0438C20.2463 22.1066 20.3127 22.1616 20.3616 22.2045C20.3861 22.2259 20.4063 22.2443 20.4222 22.2592L20.4429 22.2789L20.4508 22.2866L20.4541 22.2899L20.4557 22.2915L20.4564 22.2922C20.8469 22.6827 20.8476 23.3166 20.4571 23.7071C20.0699 24.0943 19.4443 24.0976 19.053 23.7171C19.0515 23.7157 19.0487 23.7132 19.0446 23.7096C19.0311 23.6978 19.0037 23.6747 18.9625 23.6437C18.88 23.5818 18.7433 23.4897 18.5528 23.3944C18.1751 23.2056 17.5772 23 16.75 23C15.9228 23 15.3249 23.2056 14.9472 23.3944C14.7567 23.4897 14.62 23.5818 14.5375 23.6437C14.4963 23.6747 14.4689 23.6978 14.4554 23.7096C14.4513 23.7132 14.4485 23.7157 14.447 23.7171Z" fill="url(#paint18_radial_68_3364)"/>
<path fill-rule="evenodd" clip-rule="evenodd" d="M14.447 23.7171C14.0557 24.0976 13.4301 24.0943 13.0429 23.7071C12.6524 23.3166 12.6524 22.6834 13.0429 22.2929L13.0443 22.2915L13.0459 22.2899L13.0492 22.2866L13.0571 22.2789L13.0778 22.2592C13.0937 22.2443 13.1139 22.2259 13.1384 22.2045C13.1873 22.1616 13.2537 22.1066 13.3375 22.0438C13.505 21.9182 13.7433 21.7603 14.0528 21.6056C14.6751 21.2944 15.5772 21 16.75 21C17.9228 21 18.8249 21.2944 19.4472 21.6056C19.7567 21.7603 19.995 21.9182 20.1625 22.0438C20.2463 22.1066 20.3127 22.1616 20.3616 22.2045C20.3861 22.2259 20.4063 22.2443 20.4222 22.2592L20.4429 22.2789L20.4508 22.2866L20.4541 22.2899L20.4557 22.2915L20.4564 22.2922C20.8469 22.6827 20.8476 23.3166 20.4571 23.7071C20.0699 24.0943 19.4443 24.0976 19.053 23.7171C19.0515 23.7157 19.0487 23.7132 19.0446 23.7096C19.0311 23.6978 19.0037 23.6747 18.9625 23.6437C18.88 23.5818 18.7433 23.4897 18.5528 23.3944C18.1751 23.2056 17.5772 23 16.75 23C15.9228 23 15.3249 23.2056 14.9472 23.3944C14.7567 23.4897 14.62 23.5818 14.5375 23.6437C14.4963 23.6747 14.4689 23.6978 14.4554 23.7096C14.4513 23.7132 14.4485 23.7157 14.447 23.7171Z" fill="url(#paint19_radial_68_3364)"/>
<path fill-rule="evenodd" clip-rule="evenodd" d="M14.447 23.7171C14.0557 24.0976 13.4301 24.0943 13.0429 23.7071C12.6524 23.3166 12.6524 22.6834 13.0429 22.2929L13.0443 22.2915L13.0459 22.2899L13.0492 22.2866L13.0571 22.2789L13.0778 22.2592C13.0937 22.2443 13.1139 22.2259 13.1384 22.2045C13.1873 22.1616 13.2537 22.1066 13.3375 22.0438C13.505 21.9182 13.7433 21.7603 14.0528 21.6056C14.6751 21.2944 15.5772 21 16.75 21C17.9228 21 18.8249 21.2944 19.4472 21.6056C19.7567 21.7603 19.995 21.9182 20.1625 22.0438C20.2463 22.1066 20.3127 22.1616 20.3616 22.2045C20.3861 22.2259 20.4063 22.2443 20.4222 22.2592L20.4429 22.2789L20.4508 22.2866L20.4541 22.2899L20.4557 22.2915L20.4564 22.2922C20.8469 22.6827 20.8476 23.3166 20.4571 23.7071C20.0699 24.0943 19.4443 24.0976 19.053 23.7171C19.0515 23.7157 19.0487 23.7132 19.0446 23.7096C19.0311 23.6978 19.0037 23.6747 18.9625 23.6437C18.88 23.5818 18.7433 23.4897 18.5528 23.3944C18.1751 23.2056 17.5772 23 16.75 23C15.9228 23 15.3249 23.2056 14.9472 23.3944C14.7567 23.4897 14.62 23.5818 14.5375 23.6437C14.4963 23.6747 14.4689 23.6978 14.4554 23.7096C14.4513 23.7132 14.4485 23.7157 14.447 23.7171Z" fill="url(#paint20_radial_68_3364)"/>
<path fill-rule="evenodd" clip-rule="evenodd" d="M14.447 23.7171C14.0557 24.0976 13.4301 24.0943 13.0429 23.7071C12.6524 23.3166 12.6524 22.6834 13.0429 22.2929L13.0443 22.2915L13.0459 22.2899L13.0492 22.2866L13.0571 22.2789L13.0778 22.2592C13.0937 22.2443 13.1139 22.2259 13.1384 22.2045C13.1873 22.1616 13.2537 22.1066 13.3375 22.0438C13.505 21.9182 13.7433 21.7603 14.0528 21.6056C14.6751 21.2944 15.5772 21 16.75 21C17.9228 21 18.8249 21.2944 19.4472 21.6056C19.7567 21.7603 19.995 21.9182 20.1625 22.0438C20.2463 22.1066 20.3127 22.1616 20.3616 22.2045C20.3861 22.2259 20.4063 22.2443 20.4222 22.2592L20.4429 22.2789L20.4508 22.2866L20.4541 22.2899L20.4557 22.2915L20.4564 22.2922C20.8469 22.6827 20.8476 23.3166 20.4571 23.7071C20.0699 24.0943 19.4443 24.0976 19.053 23.7171C19.0515 23.7157 19.0487 23.7132 19.0446 23.7096C19.0311 23.6978 19.0037 23.6747 18.9625 23.6437C18.88 23.5818 18.7433 23.4897 18.5528 23.3944C18.1751 23.2056 17.5772 23 16.75 23C15.9228 23 15.3249 23.2056 14.9472 23.3944C14.7567 23.4897 14.62 23.5818 14.5375 23.6437C14.4963 23.6747 14.4689 23.6978 14.4554 23.7096C14.4513 23.7132 14.4485 23.7157 14.447 23.7171Z" fill="url(#paint21_radial_68_3364)"/>
<path d="M3.75 6.5C3.75 4.84315 5.09315 3.5 6.75 3.5C8.40685 3.5 9.75 4.84315 9.75 6.5V11.5C9.75 13.1569 8.40685 14.5 6.75 14.5C5.09315 14.5 3.75 13.1569 3.75 11.5V6.5Z" fill="url(#paint22_radial_68_3364)"/>
<defs>
<radialGradient id="paint0_radial_68_3364" cx="0" cy="0" r="1" gradientUnits="userSpaceOnUse" gradientTransform="translate(26.25 9) rotate(132.839) scale(37.5033)">
<stop stop-color="#FFF478"/>
<stop offset="0.474827" stop-color="#FFB02E"/>
<stop offset="1" stop-color="#F70A8D"/>
</radialGradient>
<radialGradient id="paint1_radial_68_3364" cx="0" cy="0" r="1" gradientUnits="userSpaceOnUse" gradientTransform="translate(16.75 12.5) rotate(101.31) scale(17.8466 22.8581)">
<stop offset="0.787821" stop-color="#F59639" stop-opacity="0"/>
<stop offset="0.972509" stop-color="#FF7DCE"/>
</radialGradient>
<radialGradient id="paint2_radial_68_3364" cx="0" cy="0" r="1" gradientUnits="userSpaceOnUse" gradientTransform="translate(18.75 14) rotate(135) scale(41.0122)">
<stop offset="0.314853" stop-opacity="0"/>
<stop offset="1"/>
</radialGradient>
<radialGradient id="paint3_radial_68_3364" cx="0" cy="0" r="1" gradientUnits="userSpaceOnUse" gradientTransform="translate(16.75 17) rotate(77.692) scale(28.1469)">
<stop offset="0.507903" stop-color="#7D6133" stop-opacity="0"/>
<stop offset="1" stop-color="#715B32"/>
</radialGradient>
<radialGradient id="paint4_radial_68_3364" cx="0" cy="0" r="1" gradientUnits="userSpaceOnUse" gradientTransform="translate(17.25 16.5) rotate(55.7131) scale(13.3135 9.65032)">
<stop stop-color="#FFB849"/>
<stop offset="1" stop-color="#FFB847" stop-opacity="0"/>
</radialGradient>
<radialGradient id="paint5_radial_68_3364" cx="0" cy="0" r="1" gradientUnits="userSpaceOnUse" gradientTransform="translate(21.25 18) rotate(9.86581) scale(11.6726)">
<stop stop-color="#FFA64B"/>
<stop offset="0.900412" stop-color="#FFAE46" stop-opacity="0"/>
</radialGradient>
<radialGradient id="paint6_radial_68_3364" cx="0" cy="0" r="1" gradientUnits="userSpaceOnUse" gradientTransform="translate(18.25 15) rotate(43.9708) scale(59.0529)">
<stop offset="0.185425" stop-opacity="0"/>
<stop offset="1" stop-opacity="0.4"/>
</radialGradient>
<radialGradient id="paint7_radial_68_3364" cx="0" cy="0" r="1" gradientUnits="userSpaceOnUse" gradientTransform="translate(10.6118 15.4607) rotate(47.4896) scale(3.70928)">
<stop offset="0.359039" stop-color="#C84E28"/>
<stop offset="1" stop-color="#C84528" stop-opacity="0"/>
</radialGradient>
<radialGradient id="paint8_radial_68_3364" cx="0" cy="0" r="1" gradientUnits="userSpaceOnUse" gradientTransform="translate(20.9864 13.7667) rotate(136.054) scale(3.6367)">
<stop offset="0.135653" stop-color="#392108"/>
<stop offset="1" stop-color="#C87928" stop-opacity="0"/>
</radialGradient>
<radialGradient id="paint9_radial_68_3364" cx="0" cy="0" r="1" gradientUnits="userSpaceOnUse" gradientTransform="translate(21.8924 14.9091) rotate(106.798) scale(4.36162)">
<stop offset="0.359039" stop-color="#C84E28"/>
<stop offset="1" stop-color="#C84528" stop-opacity="0"/>
</radialGradient>
<radialGradient id="paint10_radial_68_3364" cx="0" cy="0" r="1" gradientUnits="userSpaceOnUse" gradientTransform="translate(10.3088 14.9357) rotate(162.77) scale(4.9562)">
<stop offset="0.31498" stop-color="#392108"/>
<stop offset="1" stop-color="#C87928" stop-opacity="0"/>
</radialGradient>
<radialGradient id="paint11_radial_68_3364" cx="0" cy="0" r="1" gradientUnits="userSpaceOnUse" gradientTransform="translate(23.2632 9.10458) rotate(133.831) scale(1.70422 3.80763)">
<stop offset="0.09375" stop-color="#D4901B"/>
<stop offset="1" stop-color="#DEA22D" stop-opacity="0"/>
</radialGradient>
<radialGradient id="paint12_radial_68_3364" cx="0" cy="0" r="1" gradientUnits="userSpaceOnUse" gradientTransform="translate(25.3552 10.1642) rotate(91.7899) scale(1.17292 1.37916)">
<stop offset="0.09375" stop-color="#D4901B"/>
<stop offset="1" stop-color="#DEA22D" stop-opacity="0"/>
</radialGradient>
<radialGradient id="paint13_radial_68_3364" cx="0" cy="0" r="1" gradientUnits="userSpaceOnUse" gradientTransform="translate(10.1389 10.2879) rotate(3.30285) scale(3.86529)">
<stop stop-color="#D59A13"/>
<stop offset="1" stop-color="#D59A13" stop-opacity="0"/>
</radialGradient>
<linearGradient id="paint14_linear_68_3364" x1="17.1875" y1="11.8333" x2="16.6753" y2="16.5395" gradientUnits="userSpaceOnUse">
<stop stop-color="#553B3E"/>
<stop offset="1" stop-color="#3D2432"/>
</linearGradient>
<linearGradient id="paint15_linear_68_3364" x1="10.25" y1="6" x2="10.25" y2="7.5" gradientUnits="userSpaceOnUse">
<stop offset="0.0299084" stop-color="#524049"/>
<stop offset="1" stop-color="#4A2C42"/>
</linearGradient>
<radialGradient id="paint16_radial_68_3364" cx="0" cy="0" r="1" gradientUnits="userSpaceOnUse" gradientTransform="translate(7.75003 6) rotate(54.4623) scale(4.30116)">
<stop offset="0.541667" stop-color="#493032"/>
<stop offset="0.806723" stop-color="#5E445A"/>
<stop offset="0.955326" stop-color="#4A2C42"/>
</radialGradient>
<radialGradient id="paint17_radial_68_3364" cx="0" cy="0" r="1" gradientUnits="userSpaceOnUse" gradientTransform="translate(25.75 6) rotate(125.538) scale(4.30116)">
<stop stop-color="#C2B4B5"/>
<stop offset="0.887405" stop-color="#462B45"/>
<stop offset="1" stop-color="#4A2C42"/>
</radialGradient>
<radialGradient id="paint18_radial_68_3364" cx="0" cy="0" r="1" gradientUnits="userSpaceOnUse" gradientTransform="translate(16.7498 24.6925) rotate(-90) scale(4.07942 5.42949)">
<stop offset="0.479167" stop-color="#5B2666"/>
<stop offset="0.686742" stop-color="#533A4E"/>
<stop offset="0.817708" stop-color="#533A4E"/>
<stop offset="0.959686" stop-color="#53261F"/>
</radialGradient>
<radialGradient id="paint19_radial_68_3364" cx="0" cy="0" r="1" gradientUnits="userSpaceOnUse" gradientTransform="translate(13.5755 23.8245) rotate(22.15) scale(0.986104 0.9426)">
<stop stop-color="#52265D"/>
<stop offset="1" stop-color="#52265D" stop-opacity="0"/>
</radialGradient>
<radialGradient id="paint20_radial_68_3364" cx="0" cy="0" r="1" gradientUnits="userSpaceOnUse" gradientTransform="translate(12.75 23.0356) rotate(31.34) scale(0.619584 1.5253)">
<stop stop-color="#4E3130"/>
<stop offset="1" stop-color="#4E3130" stop-opacity="0"/>
</radialGradient>
<radialGradient id="paint21_radial_68_3364" cx="0" cy="0" r="1" gradientUnits="userSpaceOnUse" gradientTransform="translate(20.4204 22.9522) rotate(135.945) scale(1.03077 1.03072)">
<stop stop-color="#694F5B"/>
<stop offset="1" stop-color="#59414E" stop-opacity="0"/>
</radialGradient>
<radialGradient id="paint22_radial_68_3364" cx="0" cy="0" r="1" gradientUnits="userSpaceOnUse" gradientTransform="translate(8.75 4) rotate(104.621) scale(11.8849 4.44155)">
<stop stop-color="#5C98FF"/>
<stop offset="0.805982" stop-color="#3D5BF1"/>
<stop offset="0.962238" stop-color="#6065CA"/>
</radialGradient>
</defs>
</svg>
