<svg width="33" height="32" viewBox="0 0 33 32" fill="none" xmlns="http://www.w3.org/2000/svg">
<g clip-path="url(#clip0_68_3365)">
<path d="M16.6645 29.9978C25.999 29.9978 30.6634 23.7303 30.6634 15.9989C30.6634 8.26751 25.999 2 16.6645 2C7.33008 2 2.66565 8.26751 2.66565 15.9989C2.66565 23.7303 7.33008 29.9978 16.6645 29.9978Z" fill="url(#paint0_radial_68_3365)"/>
<path d="M16.6645 29.9978C25.999 29.9978 30.6634 23.7303 30.6634 15.9989C30.6634 8.26751 25.999 2 16.6645 2C7.33008 2 2.66565 8.26751 2.66565 15.9989C2.66565 23.7303 7.33008 29.9978 16.6645 29.9978Z" fill="url(#paint1_radial_68_3365)"/>
<path d="M16.6645 29.9978C25.999 29.9978 30.6634 23.7303 30.6634 15.9989C30.6634 8.26751 25.999 2 16.6645 2C7.33008 2 2.66565 8.26751 2.66565 15.9989C2.66565 23.7303 7.33008 29.9978 16.6645 29.9978Z" fill="url(#paint2_radial_68_3365)" fill-opacity="0.6"/>
<path d="M16.6645 29.9978C25.999 29.9978 30.6634 23.7303 30.6634 15.9989C30.6634 8.26751 25.999 2 16.6645 2C7.33008 2 2.66565 8.26751 2.66565 15.9989C2.66565 23.7303 7.33008 29.9978 16.6645 29.9978Z" fill="url(#paint3_radial_68_3365)"/>
<path d="M16.6645 29.9978C25.999 29.9978 30.6634 23.7303 30.6634 15.9989C30.6634 8.26751 25.999 2 16.6645 2C7.33008 2 2.66565 8.26751 2.66565 15.9989C2.66565 23.7303 7.33008 29.9978 16.6645 29.9978Z" fill="url(#paint4_radial_68_3365)"/>
<path d="M16.6645 29.9978C25.999 29.9978 30.6634 23.7303 30.6634 15.9989C30.6634 8.26751 25.999 2 16.6645 2C7.33008 2 2.66565 8.26751 2.66565 15.9989C2.66565 23.7303 7.33008 29.9978 16.6645 29.9978Z" fill="url(#paint5_radial_68_3365)"/>
<path d="M16.6645 29.9978C25.999 29.9978 30.6634 23.7303 30.6634 15.9989C30.6634 8.26751 25.999 2 16.6645 2C7.33008 2 2.66565 8.26751 2.66565 15.9989C2.66565 23.7303 7.33008 29.9978 16.6645 29.9978Z" fill="url(#paint6_radial_68_3365)"/>
<path d="M14.1156 12.03L10.1156 10.03C9.61563 9.78 9.01563 9.98 8.76563 10.47C8.51563 10.96 8.72563 11.57 9.21563 11.81L11.4256 12.92L9.21563 14.03C8.72563 14.28 8.52563 14.88 8.76563 15.37C9.00563 15.86 9.61563 16.06 10.1056 15.82L14.1056 13.82C14.4456 13.64 14.6656 13.3 14.6656 12.92C14.6656 12.54 14.4456 12.19 14.1156 12.03Z" fill="#533566"/>
<path d="M24.1157 14.03L21.9056 12.92L24.1157 11.81C24.6056 11.56 24.8056 10.96 24.5656 10.47C24.3256 9.97998 23.7156 9.77998 23.2256 10.02L19.2256 12.02C18.8756 12.19 18.6656 12.54 18.6656 12.92C18.6656 13.3 18.8756 13.65 19.2156 13.81L23.2156 15.81C23.7056 16.06 24.3056 15.86 24.5556 15.36C24.8056 14.86 24.6056 14.27 24.1157 14.03Z" fill="#533566"/>
<path d="M11.0857 4.53003C11.0857 6.68003 9.34568 8.42003 7.19568 8.42003" stroke="#533468" stroke-miterlimit="10" stroke-linecap="round"/>
<path d="M22.1957 4.53003C22.1957 6.68003 23.9357 8.42003 26.0857 8.42003" stroke="#533468" stroke-miterlimit="10" stroke-linecap="round"/>
<path d="M8.80561 24.92C8.16561 24.92 7.66561 24.36 7.74561 23.73C8.32561 19.32 12.0956 15.92 16.6656 15.92C21.2356 15.92 25.0056 19.32 25.5856 23.73C25.6656 24.36 25.1656 24.92 24.5256 24.92H16.6656H8.80561Z" fill="url(#paint7_linear_68_3365)"/>
<path d="M10.9457 17.97C12.4957 16.69 14.4957 15.92 16.6657 15.92C18.8357 15.92 20.8257 16.69 22.3857 17.97" fill="white"/>
<path d="M16.6645 29.9978C25.999 29.9978 30.6634 23.7303 30.6634 15.9989C30.6634 8.26751 25.999 2 16.6645 2C7.33008 2 2.66565 8.26751 2.66565 15.9989C2.66565 23.7303 7.33008 29.9978 16.6645 29.9978Z" fill="url(#paint8_radial_68_3365)"/>
<path d="M16.6645 29.9978C25.999 29.9978 30.6634 23.7303 30.6634 15.9989C30.6634 8.26751 25.999 2 16.6645 2C7.33008 2 2.66565 8.26751 2.66565 15.9989C2.66565 23.7303 7.33008 29.9978 16.6645 29.9978Z" fill="url(#paint9_radial_68_3365)"/>
<path d="M16.6645 29.9978C25.999 29.9978 30.6634 23.7303 30.6634 15.9989C30.6634 8.26751 25.999 2 16.6645 2C7.33008 2 2.66565 8.26751 2.66565 15.9989C2.66565 23.7303 7.33008 29.9978 16.6645 29.9978Z" fill="url(#paint10_radial_68_3365)" fill-opacity="0.6"/>
<path d="M16.6645 29.9978C25.999 29.9978 30.6634 23.7303 30.6634 15.9989C30.6634 8.26751 25.999 2 16.6645 2C7.33008 2 2.66565 8.26751 2.66565 15.9989C2.66565 23.7303 7.33008 29.9978 16.6645 29.9978Z" fill="url(#paint11_radial_68_3365)"/>
<path d="M16.6645 29.9978C25.999 29.9978 30.6634 23.7303 30.6634 15.9989C30.6634 8.26751 25.999 2 16.6645 2C7.33008 2 2.66565 8.26751 2.66565 15.9989C2.66565 23.7303 7.33008 29.9978 16.6645 29.9978Z" fill="url(#paint12_radial_68_3365)"/>
<path d="M16.6645 29.9978C25.999 29.9978 30.6634 23.7303 30.6634 15.9989C30.6634 8.26751 25.999 2 16.6645 2C7.33008 2 2.66565 8.26751 2.66565 15.9989C2.66565 23.7303 7.33008 29.9978 16.6645 29.9978Z" fill="url(#paint13_radial_68_3365)"/>
<path d="M16.6645 29.9978C25.999 29.9978 30.6634 23.7303 30.6634 15.9989C30.6634 8.26751 25.999 2 16.6645 2C7.33008 2 2.66565 8.26751 2.66565 15.9989C2.66565 23.7303 7.33008 29.9978 16.6645 29.9978Z" fill="url(#paint14_radial_68_3365)"/>
<path d="M16.6645 29.9978C25.999 29.9978 30.6634 23.7303 30.6634 15.9989C30.6634 8.26751 25.999 2 16.6645 2C7.33008 2 2.66565 8.26751 2.66565 15.9989C2.66565 23.7303 7.33008 29.9978 16.6645 29.9978Z" fill="url(#paint15_radial_68_3365)"/>
<path d="M16.6645 29.9978C25.999 29.9978 30.6634 23.7303 30.6634 15.9989C30.6634 8.26751 25.999 2 16.6645 2C7.33008 2 2.66565 8.26751 2.66565 15.9989C2.66565 23.7303 7.33008 29.9978 16.6645 29.9978Z" fill="url(#paint16_radial_68_3365)"/>
<path d="M16.6645 29.9978C25.999 29.9978 30.6634 23.7303 30.6634 15.9989C30.6634 8.26751 25.999 2 16.6645 2C7.33008 2 2.66565 8.26751 2.66565 15.9989C2.66565 23.7303 7.33008 29.9978 16.6645 29.9978Z" fill="url(#paint17_radial_68_3365)"/>
<path d="M16.6645 29.9978C25.999 29.9978 30.6634 23.7303 30.6634 15.9989C30.6634 8.26751 25.999 2 16.6645 2C7.33008 2 2.66565 8.26751 2.66565 15.9989C2.66565 23.7303 7.33008 29.9978 16.6645 29.9978Z" fill="url(#paint18_radial_68_3365)"/>
<path d="M16.6645 29.9978C25.999 29.9978 30.6634 23.7303 30.6634 15.9989C30.6634 8.26751 25.999 2 16.6645 2C7.33008 2 2.66565 8.26751 2.66565 15.9989C2.66565 23.7303 7.33008 29.9978 16.6645 29.9978Z" fill="url(#paint19_radial_68_3365)"/>
<path d="M16.6645 29.9978C25.999 29.9978 30.6634 23.7303 30.6634 15.9989C30.6634 8.26751 25.999 2 16.6645 2C7.33008 2 2.66565 8.26751 2.66565 15.9989C2.66565 23.7303 7.33008 29.9978 16.6645 29.9978Z" fill="url(#paint20_radial_68_3365)"/>
<path d="M16.6645 29.9978C25.999 29.9978 30.6634 23.7303 30.6634 15.9989C30.6634 8.26751 25.999 2 16.6645 2C7.33008 2 2.66565 8.26751 2.66565 15.9989C2.66565 23.7303 7.33008 29.9978 16.6645 29.9978Z" fill="url(#paint21_radial_68_3365)"/>
<path d="M16.6645 29.9978C25.999 29.9978 30.6634 23.7303 30.6634 15.9989C30.6634 8.26751 25.999 2 16.6645 2C7.33008 2 2.66565 8.26751 2.66565 15.9989C2.66565 23.7303 7.33008 29.9978 16.6645 29.9978Z" fill="url(#paint22_radial_68_3365)"/>
<path fill-rule="evenodd" clip-rule="evenodd" d="M10.5493 5.3966L10.5497 5.39411L10.547 5.40785C10.5442 5.42172 10.539 5.44534 10.531 5.47732C10.515 5.54143 10.4877 5.63813 10.445 5.75647C10.359 5.99466 10.2136 6.31106 9.97817 6.625C9.52391 7.23069 8.70317 7.875 7.16567 7.875C6.8205 7.875 6.54067 8.15482 6.54067 8.5C6.54067 8.84518 6.8205 9.125 7.16567 9.125C9.12818 9.125 10.3074 8.26931 10.9782 7.375C11.3052 6.93894 11.5036 6.50534 11.6207 6.18103C11.6795 6.01812 11.7187 5.88044 11.7437 5.78049C11.7562 5.73044 11.7652 5.68961 11.7714 5.65953C11.7745 5.64449 11.7769 5.63211 11.7787 5.62259L11.7808 5.61047L11.7816 5.60605L11.7819 5.60426C11.7823 5.60198 11.7822 5.60275 11.7822 5.60275C11.8389 5.26227 11.6089 4.94025 11.2684 4.8835C10.929 4.82693 10.6079 5.05537 10.5497 5.39411" fill="url(#paint23_linear_68_3365)"/>
<path fill-rule="evenodd" clip-rule="evenodd" d="M10.5493 5.3966L10.5497 5.39411L10.547 5.40785C10.5442 5.42172 10.539 5.44534 10.531 5.47732C10.515 5.54143 10.4877 5.63813 10.445 5.75647C10.359 5.99466 10.2136 6.31106 9.97817 6.625C9.52391 7.23069 8.70317 7.875 7.16567 7.875C6.8205 7.875 6.54067 8.15482 6.54067 8.5C6.54067 8.84518 6.8205 9.125 7.16567 9.125C9.12818 9.125 10.3074 8.26931 10.9782 7.375C11.3052 6.93894 11.5036 6.50534 11.6207 6.18103C11.6795 6.01812 11.7187 5.88044 11.7437 5.78049C11.7562 5.73044 11.7652 5.68961 11.7714 5.65953C11.7745 5.64449 11.7769 5.63211 11.7787 5.62259L11.7808 5.61047L11.7816 5.60605L11.7819 5.60426C11.7823 5.60198 11.7822 5.60275 11.7822 5.60275C11.8389 5.26227 11.6089 4.94025 11.2684 4.8835C10.929 4.82693 10.6079 5.05537 10.5497 5.39411" fill="url(#paint24_radial_68_3365)"/>
<path fill-rule="evenodd" clip-rule="evenodd" d="M22.782 5.3966L22.7816 5.39411L22.7843 5.40785C22.7871 5.42172 22.7923 5.44534 22.8003 5.47732C22.8163 5.54143 22.8435 5.63813 22.8863 5.75647C22.9723 5.99466 23.1177 6.31106 23.3531 6.625C23.8074 7.23069 24.6281 7.875 26.1656 7.875C26.5108 7.875 26.7906 8.15482 26.7906 8.5C26.7906 8.84518 26.5108 9.125 26.1656 9.125C24.2031 9.125 23.0239 8.26931 22.3531 7.375C22.0261 6.93894 21.8277 6.50534 21.7106 6.18103C21.6518 6.01812 21.6126 5.88044 21.5876 5.78049C21.5751 5.73044 21.5661 5.68961 21.5599 5.65953C21.5568 5.64449 21.5544 5.63211 21.5526 5.62259L21.5505 5.61047L21.5497 5.60605L21.5494 5.60426C21.549 5.60198 21.5491 5.60275 21.5491 5.60275C21.4924 5.26227 21.7224 4.94025 22.0629 4.8835C22.4023 4.82693 22.7234 5.05537 22.7816 5.39411" fill="url(#paint25_radial_68_3365)"/>
<path d="M25.3228 22.5311C25.7008 23.8591 24.5466 25 23.1659 25C18.7998 25 14.2837 25 10.1652 25C8.78448 25 7.63051 23.8591 8.0085 22.5311C9.08165 18.7609 12.5512 16 16.6656 16C20.7801 16 24.2496 18.7609 25.3228 22.5311Z" fill="url(#paint26_radial_68_3365)"/>
<path d="M16.6655 16C18.8079 16 20.7744 16.7501 22.3198 18H11.0122C12.5576 16.7504 14.5234 16 16.6655 16Z" fill="url(#paint27_radial_68_3365)"/>
<path d="M10.1131 15.8898C9.61913 16.1368 9.01846 15.9366 8.77147 15.4426C8.52448 14.9486 8.72471 14.3479 9.21868 14.101L11.4252 12.9977L13.1656 12.4999L14.6659 12.9977C14.665 13.3756 14.4512 13.7208 14.1131 13.8898L10.1131 15.8898Z" fill="url(#paint28_linear_68_3365)"/>
<path d="M10.1131 15.8898C9.61913 16.1368 9.01846 15.9366 8.77147 15.4426C8.52448 14.9486 8.72471 14.3479 9.21868 14.101L11.4252 12.9977L13.1656 12.4999L14.6659 12.9977C14.665 13.3756 14.4512 13.7208 14.1131 13.8898L10.1131 15.8898Z" fill="url(#paint29_linear_68_3365)"/>
<path d="M10.1131 15.8898C9.61913 16.1368 9.01846 15.9366 8.77147 15.4426C8.52448 14.9486 8.72471 14.3479 9.21868 14.101L11.4252 12.9977L13.1656 12.4999L14.6659 12.9977C14.665 13.3756 14.4512 13.7208 14.1131 13.8898L10.1131 15.8898Z" fill="url(#paint30_radial_68_3365)"/>
<path d="M10.1131 10.1058C9.61913 9.8588 9.01846 10.059 8.77147 10.553C8.52448 11.047 8.72471 11.6477 9.21868 11.8946L11.4252 12.9979H14.6659C14.665 12.62 14.4512 12.2748 14.1131 12.1058L10.1131 10.1058Z" fill="url(#paint31_linear_68_3365)"/>
<path d="M10.1131 10.1058C9.61913 9.8588 9.01846 10.059 8.77147 10.553C8.52448 11.047 8.72471 11.6477 9.21868 11.8946L11.4252 12.9979H14.6659C14.665 12.62 14.4512 12.2748 14.1131 12.1058L10.1131 10.1058Z" fill="url(#paint32_linear_68_3365)"/>
<path d="M10.1131 10.1058C9.61913 9.8588 9.01846 10.059 8.77147 10.553C8.52448 11.047 8.72471 11.6477 9.21868 11.8946L11.4252 12.9979H14.6659C14.665 12.62 14.4512 12.2748 14.1131 12.1058L10.1131 10.1058Z" fill="url(#paint33_radial_68_3365)"/>
<path d="M23.2028 15.8898C23.6968 16.1368 24.2975 15.9366 24.5444 15.4426C24.7914 14.9486 24.5912 14.3479 24.0972 14.101L21.8907 12.9977L20.1656 12.4999L18.65 12.9977C18.6509 13.3756 18.8647 13.7208 19.2028 13.8898L23.2028 15.8898Z" fill="url(#paint34_linear_68_3365)"/>
<path d="M23.2028 15.8898C23.6968 16.1368 24.2975 15.9366 24.5444 15.4426C24.7914 14.9486 24.5912 14.3479 24.0972 14.101L21.8907 12.9977L20.1656 12.4999L18.65 12.9977C18.6509 13.3756 18.8647 13.7208 19.2028 13.8898L23.2028 15.8898Z" fill="url(#paint35_linear_68_3365)"/>
<path d="M23.2028 10.1058C23.6968 9.8588 24.2975 10.059 24.5444 10.553C24.7914 11.047 24.5912 11.6477 24.0972 11.8946L21.8907 12.9979H18.65C18.6509 12.62 18.8647 12.2748 19.2028 12.1058L23.2028 10.1058Z" fill="url(#paint36_linear_68_3365)"/>
<path d="M23.2028 10.1058C23.6968 9.8588 24.2975 10.059 24.5444 10.553C24.7914 11.047 24.5912 11.6477 24.0972 11.8946L21.8907 12.9979H18.65C18.6509 12.62 18.8647 12.2748 19.2028 12.1058L23.2028 10.1058Z" fill="url(#paint37_radial_68_3365)"/>
<path d="M23.2028 10.1058C23.6968 9.8588 24.2975 10.059 24.5444 10.553C24.7914 11.047 24.5912 11.6477 24.0972 11.8946L21.8907 12.9979H18.65C18.6509 12.62 18.8647 12.2748 19.2028 12.1058L23.2028 10.1058Z" fill="url(#paint38_radial_68_3365)"/>
<path d="M23.2028 10.1058C23.6968 9.8588 24.2975 10.059 24.5444 10.553C24.7914 11.047 24.5912 11.6477 24.0972 11.8946L21.8907 12.9979H18.65C18.6509 12.62 18.8647 12.2748 19.2028 12.1058L23.2028 10.1058Z" fill="url(#paint39_linear_68_3365)"/>
</g>
<defs>
<radialGradient id="paint0_radial_68_3365" cx="0" cy="0" r="1" gradientUnits="userSpaceOnUse" gradientTransform="translate(26.1657 9) rotate(131.878) scale(38.9487)">
<stop stop-color="#FFF478"/>
<stop offset="0.474827" stop-color="#FFB02E"/>
<stop offset="1" stop-color="#F70A8D"/>
</radialGradient>
<radialGradient id="paint1_radial_68_3365" cx="0" cy="0" r="1" gradientUnits="userSpaceOnUse" gradientTransform="translate(16.6657 12.5) rotate(101.31) scale(17.8466 22.8581)">
<stop offset="0.787821" stop-color="#F59639" stop-opacity="0"/>
<stop offset="0.972509" stop-color="#FF7DCE"/>
</radialGradient>
<radialGradient id="paint2_radial_68_3365" cx="0" cy="0" r="1" gradientUnits="userSpaceOnUse" gradientTransform="translate(18.6657 14) rotate(135) scale(41.0122)">
<stop offset="0.314853" stop-opacity="0"/>
<stop offset="1"/>
</radialGradient>
<radialGradient id="paint3_radial_68_3365" cx="0" cy="0" r="1" gradientUnits="userSpaceOnUse" gradientTransform="translate(16.6657 17) rotate(77.692) scale(28.1469)">
<stop offset="0.507903" stop-color="#7D6133" stop-opacity="0"/>
<stop offset="1" stop-color="#715B32"/>
</radialGradient>
<radialGradient id="paint4_radial_68_3365" cx="0" cy="0" r="1" gradientUnits="userSpaceOnUse" gradientTransform="translate(17.1656 16.5) rotate(55.7131) scale(13.3135 9.65032)">
<stop stop-color="#FFB849"/>
<stop offset="1" stop-color="#FFB847" stop-opacity="0"/>
</radialGradient>
<radialGradient id="paint5_radial_68_3365" cx="0" cy="0" r="1" gradientUnits="userSpaceOnUse" gradientTransform="translate(21.1656 18) rotate(9.86581) scale(11.6726)">
<stop stop-color="#FFA64B"/>
<stop offset="0.900412" stop-color="#FFAE46" stop-opacity="0"/>
</radialGradient>
<radialGradient id="paint6_radial_68_3365" cx="0" cy="0" r="1" gradientUnits="userSpaceOnUse" gradientTransform="translate(18.1656 15) rotate(43.9708) scale(59.0529)">
<stop offset="0.185425" stop-opacity="0"/>
<stop offset="1" stop-opacity="0.4"/>
</radialGradient>
<linearGradient id="paint7_linear_68_3365" x1="16.6645" y1="28.9174" x2="16.6645" y2="4.37358" gradientUnits="userSpaceOnUse">
<stop stop-color="#E81123"/>
<stop offset="1" stop-color="#68217A"/>
</linearGradient>
<radialGradient id="paint8_radial_68_3365" cx="0" cy="0" r="1" gradientUnits="userSpaceOnUse" gradientTransform="translate(26.1656 9) rotate(132.839) scale(37.5033)">
<stop stop-color="#FFF478"/>
<stop offset="0.474827" stop-color="#FFB02E"/>
<stop offset="1" stop-color="#F70A8D"/>
</radialGradient>
<radialGradient id="paint9_radial_68_3365" cx="0" cy="0" r="1" gradientUnits="userSpaceOnUse" gradientTransform="translate(16.6657 12.5) rotate(101.31) scale(17.8466 22.8581)">
<stop offset="0.787821" stop-color="#F59639" stop-opacity="0"/>
<stop offset="0.972509" stop-color="#FF7DCE"/>
</radialGradient>
<radialGradient id="paint10_radial_68_3365" cx="0" cy="0" r="1" gradientUnits="userSpaceOnUse" gradientTransform="translate(18.6657 14) rotate(135) scale(41.0122)">
<stop offset="0.314853" stop-opacity="0"/>
<stop offset="1"/>
</radialGradient>
<radialGradient id="paint11_radial_68_3365" cx="0" cy="0" r="1" gradientUnits="userSpaceOnUse" gradientTransform="translate(16.6657 17) rotate(77.692) scale(28.1469)">
<stop offset="0.507903" stop-color="#7D6133" stop-opacity="0"/>
<stop offset="1" stop-color="#715B32"/>
</radialGradient>
<radialGradient id="paint12_radial_68_3365" cx="0" cy="0" r="1" gradientUnits="userSpaceOnUse" gradientTransform="translate(17.1656 16.5) rotate(55.7131) scale(13.3135 9.65032)">
<stop stop-color="#FFB849"/>
<stop offset="1" stop-color="#FFB847" stop-opacity="0"/>
</radialGradient>
<radialGradient id="paint13_radial_68_3365" cx="0" cy="0" r="1" gradientUnits="userSpaceOnUse" gradientTransform="translate(21.1656 18) rotate(9.86581) scale(11.6726)">
<stop stop-color="#FFA64B"/>
<stop offset="0.900412" stop-color="#FFAE46" stop-opacity="0"/>
</radialGradient>
<radialGradient id="paint14_radial_68_3365" cx="0" cy="0" r="1" gradientUnits="userSpaceOnUse" gradientTransform="translate(18.1656 15) rotate(43.9708) scale(59.0529)">
<stop offset="0.185425" stop-opacity="0"/>
<stop offset="1" stop-opacity="0.4"/>
</radialGradient>
<radialGradient id="paint15_radial_68_3365" cx="0" cy="0" r="1" gradientUnits="userSpaceOnUse" gradientTransform="translate(10.7627 12.572) rotate(110.266) scale(1.57775 2.64383)">
<stop stop-color="#D07E2D"/>
<stop offset="1" stop-color="#D98833" stop-opacity="0"/>
</radialGradient>
<radialGradient id="paint16_radial_68_3365" cx="0" cy="0" r="1" gradientUnits="userSpaceOnUse" gradientTransform="translate(10.3957 14.1998) rotate(67.2703) scale(1.73758 2.76896)">
<stop stop-color="#D07E2D"/>
<stop offset="1" stop-color="#D98833" stop-opacity="0"/>
</radialGradient>
<radialGradient id="paint17_radial_68_3365" cx="0" cy="0" r="1" gradientUnits="userSpaceOnUse" gradientTransform="translate(21.7128 14.4791) rotate(116.962) scale(1.70513 3.24953)">
<stop stop-color="#D07E2D"/>
<stop offset="1" stop-color="#D98833" stop-opacity="0"/>
</radialGradient>
<radialGradient id="paint18_radial_68_3365" cx="0" cy="0" r="1" gradientUnits="userSpaceOnUse" gradientTransform="translate(24.5424 8.89905) rotate(11.6894) scale(2.31745 1.5038)">
<stop stop-color="#E3A120"/>
<stop offset="1" stop-color="#E3A120" stop-opacity="0"/>
</radialGradient>
<radialGradient id="paint19_radial_68_3365" cx="0" cy="0" r="1" gradientUnits="userSpaceOnUse" gradientTransform="translate(22.5521 7.54498) rotate(54.3611) scale(2.52782 1.31925)">
<stop stop-color="#E3A120"/>
<stop offset="1" stop-color="#E3A120" stop-opacity="0"/>
</radialGradient>
<radialGradient id="paint20_radial_68_3365" cx="0" cy="0" r="1" gradientUnits="userSpaceOnUse" gradientTransform="translate(8.67804 9.63099) rotate(-26.5651) scale(4.45994)">
<stop stop-color="#D99621"/>
<stop offset="1" stop-color="#E4A228" stop-opacity="0"/>
</radialGradient>
<radialGradient id="paint21_radial_68_3365" cx="0" cy="0" r="1" gradientUnits="userSpaceOnUse" gradientTransform="translate(8.04163 8.8479) rotate(-23.3049) scale(2.24349 1.08829)">
<stop stop-color="#DB8A21"/>
<stop offset="1" stop-color="#DB8A21" stop-opacity="0"/>
</radialGradient>
<radialGradient id="paint22_radial_68_3365" cx="0" cy="0" r="1" gradientUnits="userSpaceOnUse" gradientTransform="translate(9.88019 8.18222) rotate(-50.4923) scale(2.34189 1.13602)">
<stop stop-color="#DB8A21"/>
<stop offset="1" stop-color="#DB8A21" stop-opacity="0"/>
</radialGradient>
<linearGradient id="paint23_linear_68_3365" x1="10.1657" y1="5" x2="10.1657" y2="6.5" gradientUnits="userSpaceOnUse">
<stop offset="0.0299084" stop-color="#524049"/>
<stop offset="1" stop-color="#4A2C42"/>
</linearGradient>
<radialGradient id="paint24_radial_68_3365" cx="0" cy="0" r="1" gradientUnits="userSpaceOnUse" gradientTransform="translate(7.66567 5) rotate(54.4623) scale(4.30116)">
<stop offset="0.541667" stop-color="#493032"/>
<stop offset="0.806723" stop-color="#5E445A"/>
<stop offset="0.955326" stop-color="#4A2C42"/>
</radialGradient>
<radialGradient id="paint25_radial_68_3365" cx="0" cy="0" r="1" gradientUnits="userSpaceOnUse" gradientTransform="translate(25.6656 5) rotate(125.538) scale(4.30116)">
<stop stop-color="#C2B4B5"/>
<stop offset="0.887405" stop-color="#462B45"/>
<stop offset="1" stop-color="#4A2C42"/>
</radialGradient>
<radialGradient id="paint26_radial_68_3365" cx="0" cy="0" r="1" gradientUnits="userSpaceOnUse" gradientTransform="translate(16.6657 27) rotate(-90) scale(10.5 28.4095)">
<stop stop-color="#F70A8D"/>
<stop offset="1" stop-color="#89029C"/>
</radialGradient>
<radialGradient id="paint27_radial_68_3365" cx="0" cy="0" r="1" gradientUnits="userSpaceOnUse" gradientTransform="translate(15.667 19.5) rotate(-49.4226) scale(4.60812 6.28792)">
<stop offset="0.454233" stop-color="white"/>
<stop offset="0.839648" stop-color="#ECCDFF"/>
<stop offset="1" stop-color="#D590FF"/>
</radialGradient>
<linearGradient id="paint28_linear_68_3365" x1="11.1378" y1="16.7651" x2="8.66565" y2="11.8505" gradientUnits="userSpaceOnUse">
<stop offset="0.21392" stop-color="#492741"/>
<stop offset="0.331485" stop-color="#503A4A"/>
<stop offset="0.511203" stop-color="#482641"/>
</linearGradient>
<linearGradient id="paint29_linear_68_3365" x1="10.9661" y1="12.9977" x2="11.082" y2="13.473" gradientUnits="userSpaceOnUse">
<stop stop-color="#2D1721"/>
<stop offset="1" stop-color="#2D1721" stop-opacity="0"/>
</linearGradient>
<radialGradient id="paint30_radial_68_3365" cx="0" cy="0" r="1" gradientUnits="userSpaceOnUse" gradientTransform="translate(12.9837 13.2903) rotate(-148.405) scale(5.68231)">
<stop offset="0.631717" stop-color="#492741" stop-opacity="0"/>
<stop offset="0.798224" stop-color="#492741"/>
</radialGradient>
<linearGradient id="paint31_linear_68_3365" x1="9.52527" y1="13.1385" x2="11.3545" y2="9.91235" gradientUnits="userSpaceOnUse">
<stop offset="0.162863" stop-color="#22161C"/>
<stop offset="0.435713" stop-color="#482641"/>
<stop offset="0.631598" stop-color="#503A4A"/>
</linearGradient>
<linearGradient id="paint32_linear_68_3365" x1="10.9661" y1="12.9979" x2="11.082" y2="12.5226" gradientUnits="userSpaceOnUse">
<stop stop-color="#2D1721"/>
<stop offset="1" stop-color="#2D1721" stop-opacity="0"/>
</linearGradient>
<radialGradient id="paint33_radial_68_3365" cx="0" cy="0" r="1" gradientUnits="userSpaceOnUse" gradientTransform="translate(12.9837 12.7053) rotate(148.405) scale(5.68231)">
<stop offset="0.631717" stop-color="#492741" stop-opacity="0"/>
<stop offset="0.798224" stop-color="#492741"/>
</radialGradient>
<linearGradient id="paint34_linear_68_3365" x1="22.0719" y1="16.7321" x2="24.6502" y2="11.3883" gradientUnits="userSpaceOnUse">
<stop offset="0.207167" stop-color="#381B32"/>
<stop offset="0.277026" stop-color="#482641"/>
<stop offset="0.390091" stop-color="#503A4A"/>
<stop offset="0.516907" stop-color="#503A4A"/>
<stop offset="0.651166" stop-color="#482641"/>
</linearGradient>
<linearGradient id="paint35_linear_68_3365" x1="22.3498" y1="12.9977" x2="22.2339" y2="13.473" gradientUnits="userSpaceOnUse">
<stop stop-color="#2D1721"/>
<stop offset="1" stop-color="#2D1721" stop-opacity="0"/>
</linearGradient>
<linearGradient id="paint36_linear_68_3365" x1="23.7906" y1="13.1385" x2="21.4" y2="8.45102" gradientUnits="userSpaceOnUse">
<stop offset="0.162402" stop-color="#482641"/>
<stop offset="0.296966" stop-color="#503A4A"/>
<stop offset="0.39491" stop-color="#503A4A"/>
<stop offset="0.511203" stop-color="#482641"/>
</linearGradient>
<radialGradient id="paint37_radial_68_3365" cx="0" cy="0" r="1" gradientUnits="userSpaceOnUse" gradientTransform="translate(19.9691 12.7783) rotate(29.1673) scale(5.95871)">
<stop offset="0.631717" stop-color="#492741" stop-opacity="0"/>
<stop offset="0.798224" stop-color="#492741"/>
</radialGradient>
<radialGradient id="paint38_radial_68_3365" cx="0" cy="0" r="1" gradientUnits="userSpaceOnUse" gradientTransform="translate(24.1861 10.6566) rotate(134.019) scale(0.898479 1.62536)">
<stop stop-color="#5E5051"/>
<stop offset="1" stop-color="#5E5051" stop-opacity="0"/>
</radialGradient>
<linearGradient id="paint39_linear_68_3365" x1="22.3498" y1="12.9979" x2="22.2339" y2="12.5226" gradientUnits="userSpaceOnUse">
<stop stop-color="#2D1721"/>
<stop offset="1" stop-color="#2D1721" stop-opacity="0"/>
</linearGradient>
<clipPath id="clip0_68_3365">
<rect width="32" height="32" fill="white" transform="translate(0.5)"/>
</clipPath>
</defs>
</svg>
